<svg width="32" height="32" viewBox="0 0 32 32" fill="none" xmlns="http://www.w3.org/2000/svg">
<rect width="32" height="32" rx="16" fill="#EDE5F0"/>
<path d="M14.1801 20.6261C14.06 20.5101 14 20.3729 14 20.2143C14 20.0557 14.06 19.9185 14.1801 19.8029L17.6988 16.4058L14.1681 12.9971C14.056 12.8889 14 12.7536 14 12.5913C14 12.429 14.06 12.2899 14.1801 12.1739C14.3002 12.058 14.4424 12 14.6067 12C14.771 12 14.913 12.058 15.0328 12.1739L19.0679 16.0812C19.1159 16.1275 19.15 16.1778 19.1702 16.2319C19.1904 16.286 19.2003 16.344 19.2 16.4058C19.2 16.4676 19.1899 16.5256 19.1697 16.5797C19.1496 16.6338 19.1156 16.6841 19.0679 16.7304L15.0208 20.6377C14.9087 20.7459 14.7705 20.8 14.6062 20.8C14.4419 20.8 14.2999 20.742 14.1801 20.6261Z" fill="#9043B4" stroke="#9043B4" stroke-width="0.3"/>
</svg>
