<svg width="24" height="24" viewBox="0 0 24 24" fill="none" xmlns="http://www.w3.org/2000/svg">
<path d="M9.00006 11.9453C9.00006 12.0888 9.02296 12.2282 9.06876 12.3635C9.11457 12.4988 9.17564 12.6113 9.25198 12.701L13.4659 17.6902C13.6339 17.889 13.8476 17.9896 14.1072 17.9919C14.3667 17.9943 14.5805 17.8975 14.7484 17.7017C14.9164 17.5059 15.0004 17.2555 15.0004 16.9506C15.0004 16.6456 14.9164 16.3937 14.7484 16.1949L11.1757 11.9649L14.7484 7.79945C14.9164 7.60364 15.0004 7.35325 15.0004 7.04829C15.0004 6.74332 14.9164 6.49142 14.7484 6.29258C14.5805 6.09373 14.3667 5.99314 14.1072 5.9908C13.8476 5.98845 13.6339 6.08519 13.4659 6.281L9.25198 11.1941C9.16037 11.3009 9.09533 11.4169 9.05685 11.5422C9.01838 11.6674 8.99944 11.8018 9.00006 11.9453Z" fill="#9670B3"/>
</svg>
