<svg width="16" height="26" viewBox="0 0 16 26" fill="none" xmlns="http://www.w3.org/2000/svg">
<path d="M1.14418 24.9738C0.80392 24.6453 0.633789 24.2563 0.633789 23.8069C0.633789 23.3575 0.80392 22.969 1.14418 22.6414L11.1138 13.0163L1.11015 3.35832C0.792577 3.05172 0.633789 2.66847 0.633789 2.20857C0.633789 1.74866 0.80392 1.35446 1.14418 1.02596C1.48444 0.697454 1.88731 0.533203 2.35279 0.533203C2.81827 0.533203 3.22068 0.697454 3.56004 1.02596L14.9928 12.0965C15.1289 12.2279 15.2256 12.3702 15.2827 12.5235C15.3399 12.6768 15.368 12.8411 15.3671 13.0163C15.3671 13.1915 15.3385 13.3557 15.2814 13.509C15.2242 13.6623 15.128 13.8047 14.9928 13.9361L3.52601 25.0066C3.20843 25.3132 2.8169 25.4665 2.35143 25.4665C1.88595 25.4665 1.48353 25.3023 1.14418 24.9738Z" fill="white" stroke="white" stroke-width="0.4"/>
</svg>
