<svg width="16" height="26" viewBox="0 0 16 26" fill="none" xmlns="http://www.w3.org/2000/svg">
<path d="M14.8563 1.02622C15.1966 1.35472 15.3667 1.74367 15.3667 2.19306C15.3667 2.64245 15.1966 3.03096 14.8563 3.35859L4.88665 12.9837L14.8903 22.6417C15.2079 22.9483 15.3667 23.3315 15.3667 23.7914C15.3667 24.2513 15.1966 24.6455 14.8563 24.974C14.516 25.3025 14.1132 25.4668 13.6477 25.4668C13.1822 25.4668 12.7798 25.3025 12.4405 24.974L1.00767 13.9035C0.871568 13.7721 0.774936 13.6298 0.717771 13.4765C0.660608 13.3232 0.632479 13.1589 0.633386 12.9837C0.633386 12.8085 0.661966 12.6443 0.71913 12.491C0.776295 12.3377 0.872475 12.1953 1.00767 12.0639L12.4745 0.99337C12.7921 0.686768 13.1836 0.533468 13.6491 0.533468C14.1145 0.533468 14.517 0.69772 14.8563 1.02622Z" fill="white" stroke="white" stroke-width="0.4"/>
</svg>
