<svg width="32" height="32" viewBox="0 0 32 32" fill="none" xmlns="http://www.w3.org/2000/svg">
<rect width="32" height="32" rx="16" fill="#D7C9E2"/>
<path d="M17.4195 11.7738C17.5396 11.8898 17.5996 12.027 17.5996 12.1856C17.5996 12.3443 17.5396 12.4814 17.4195 12.597L13.9008 15.9941L17.4315 19.4028C17.5436 19.511 17.5996 19.6463 17.5996 19.8086C17.5996 19.9709 17.5396 20.11 17.4195 20.226C17.2994 20.3419 17.1572 20.3999 16.9929 20.3999C16.8286 20.3999 16.6866 20.3419 16.5668 20.226L12.5317 16.3187C12.4837 16.2724 12.4496 16.2221 12.4294 16.168C12.4092 16.1139 12.3993 16.0559 12.3996 15.9941C12.3996 15.9323 12.4097 15.8743 12.4299 15.8202C12.4501 15.7661 12.484 15.7158 12.5317 15.6695L16.5788 11.7622C16.6909 11.654 16.8291 11.5999 16.9934 11.5999C17.1577 11.5999 17.2997 11.6579 17.4195 11.7738Z" fill="#581C87" stroke="#581C87" stroke-width="0.4"/>
</svg>
