<svg width="24" height="24" viewBox="0 0 24 24" fill="none" xmlns="http://www.w3.org/2000/svg">
<path d="M16.6261 13.8199C16.5101 13.94 16.3729 14 16.2143 14C16.0557 14 15.9185 13.94 15.8029 13.8199L12.4058 10.3012L8.9971 13.8319C8.88889 13.944 8.75362 14 8.5913 14C8.42899 14 8.28986 13.94 8.17391 13.8199C8.05797 13.6998 8 13.5576 8 13.3933C8 13.229 8.05797 13.087 8.17391 12.9672L12.0812 8.93211C12.1275 8.88407 12.1778 8.84997 12.2319 8.82979C12.286 8.80961 12.344 8.79969 12.4058 8.80001C12.4676 8.80001 12.5256 8.81009 12.5797 8.83027C12.6338 8.85045 12.6841 8.88439 12.7304 8.93211L16.6377 12.9792C16.7459 13.0913 16.8 13.2295 16.8 13.3938C16.8 13.5581 16.742 13.7001 16.6261 13.8199Z" fill="#5C5C5C" stroke="#5C5C5C" stroke-width="0.3"/>
</svg>
