<svg width="24" height="24" viewBox="0 0 24 24" fill="none" xmlns="http://www.w3.org/2000/svg">
<path d="M14.4198 7.77394C14.5399 7.88988 14.6 8.02716 14.6 8.18576C14.6 8.34437 14.5399 8.48149 14.4198 8.59713L10.9011 11.9942L14.4318 15.4029C14.5439 15.5111 14.6 15.6464 14.6 15.8087C14.6 15.971 14.5399 16.1102 14.4198 16.2261C14.2997 16.3421 14.1576 16.4 13.9933 16.4C13.829 16.4 13.687 16.3421 13.5672 16.2261L9.53208 12.3189C9.48405 12.2725 9.44994 12.2222 9.42977 12.1681C9.40959 12.114 9.39966 12.0561 9.39998 11.9942C9.39998 11.9324 9.41007 11.8744 9.43024 11.8203C9.45042 11.7662 9.48437 11.716 9.53208 11.6696L13.5792 7.76234C13.6913 7.65413 13.8295 7.60003 13.9937 7.60003C14.158 7.60003 14.3001 7.658 14.4198 7.77394Z" fill="white" stroke="white" stroke-width="0.4"/>
</svg>
