<svg width="24" height="24" viewBox="0 0 24 24" fill="none" xmlns="http://www.w3.org/2000/svg">
<path d="M7.77388 9.58016C7.88982 9.46007 8.02709 9.40002 8.1857 9.40002C8.34431 9.40002 8.48143 9.46007 8.59706 9.58016L11.9942 13.0989L15.4029 9.56815C15.5111 9.45607 15.6463 9.40002 15.8087 9.40002C15.971 9.40002 16.1101 9.46007 16.2261 9.58016C16.342 9.70025 16.4 9.84244 16.4 10.0067C16.4 10.171 16.342 10.313 16.2261 10.4328L12.3188 14.4679C12.2724 14.516 12.2222 14.5501 12.1681 14.5702C12.114 14.5904 12.056 14.6003 11.9942 14.6C11.9323 14.6 11.8744 14.5899 11.8203 14.5698C11.7661 14.5496 11.7159 14.5156 11.6695 14.4679L7.76228 10.4208C7.65407 10.3087 7.59996 10.1705 7.59996 10.0062C7.59996 9.84196 7.65793 9.69993 7.77388 9.58016Z" fill="#5C5C5C" stroke="#5C5C5C" stroke-width="0.3"/>
</svg>
