<svg width="7" height="10" viewBox="0 0 7 10" fill="none" xmlns="http://www.w3.org/2000/svg">
<path d="M1.18014 9.12609C1.06005 9.01014 1 8.87287 1 8.71426C1 8.55565 1.06005 8.41853 1.18014 8.3029L4.69884 4.9058L1.16813 1.4971C1.05604 1.38889 1 1.25362 1 1.0913C1 0.928985 1.06005 0.789855 1.18014 0.673913C1.30023 0.557971 1.44242 0.5 1.60671 0.5C1.77099 0.5 1.91302 0.557971 2.03279 0.673913L6.06789 4.58116C6.11593 4.62754 6.15003 4.67778 6.17021 4.73188C6.19039 4.78599 6.20031 4.84396 6.19999 4.9058C6.19999 4.96763 6.18991 5.0256 6.16973 5.07971C6.14955 5.13382 6.11561 5.18406 6.06789 5.23043L2.02078 9.13768C1.9087 9.24589 1.77051 9.3 1.60623 9.3C1.44194 9.3 1.29991 9.24203 1.18014 9.12609Z" fill="white" stroke="white" stroke-width="0.3"/>
</svg>
