<svg width="7" height="10" viewBox="0 0 7 10" fill="none" xmlns="http://www.w3.org/2000/svg">
<path d="M1.74244e-05 4.99988C1.74296e-05 4.8803 0.0267356 4.7643 0.0801704 4.6519C0.133605 4.53949 0.204852 4.44622 0.29391 4.37207L5.20993 0.246514C5.40586 0.0820898 5.65522 -0.000122129 5.95802 -0.000122116C6.26082 -0.000122103 6.51018 0.0820898 6.70611 0.246514C6.90204 0.410939 7 0.620207 7 0.874317C7 1.12843 6.90204 1.3377 6.70611 1.50212L2.53818 4.99988L6.70611 8.49763C6.90204 8.66206 7 8.87133 7 9.12544C7 9.37955 6.90204 9.58882 6.70611 9.75324C6.51018 9.91766 6.26082 9.99988 5.95802 9.99988C5.65522 9.99988 5.40586 9.91766 5.20993 9.75324L0.29391 5.62768C0.18704 5.53799 0.111162 5.44083 0.0662768 5.3362C0.0213916 5.23157 -0.000695452 5.11946 1.74244e-05 4.99988Z" fill="white"/>
</svg>
