<svg width="160" height="160" viewBox="0 0 160 160" fill="none" xmlns="http://www.w3.org/2000/svg">
<g filter="url(#filter0_b_1454_1241)">
<rect width="160" height="160" rx="10" fill="#260F4A"/>
<path d="M133.174 113.76C133.174 115.68 132.747 117.653 131.84 119.573C130.934 121.493 129.76 123.307 128.214 125.013C125.6 127.893 122.72 129.973 119.467 131.307C116.267 132.64 112.8 133.333 109.067 133.333C103.627 133.333 97.8137 132.053 91.6803 129.44C85.547 126.827 79.4137 123.307 73.3337 118.88C67.1369 114.347 61.2893 109.355 55.8403 103.947C50.4471 98.5175 45.4729 92.6875 40.9603 86.5068C36.587 80.4268 33.067 74.3468 30.507 68.3201C27.947 62.2401 26.667 56.4267 26.667 50.8801C26.667 47.2534 27.307 43.7867 28.587 40.5867C29.867 37.3334 31.8937 34.3467 34.7203 31.6801C38.1337 28.3201 41.867 26.6667 45.8137 26.6667C47.307 26.6667 48.8003 26.9867 50.1337 27.6267C51.5203 28.2667 52.747 29.2267 53.707 30.6134L66.0803 48.0534C67.0403 49.3867 67.7337 50.6134 68.2137 51.7867C68.6937 52.9067 68.9603 54.0267 68.9603 55.0401C68.9603 56.3201 68.587 57.6001 67.8403 58.8267C67.147 60.0534 66.1337 61.3334 64.8537 62.6134L60.8003 66.8267C60.2137 67.4134 59.947 68.1068 59.947 68.9601C59.947 69.3868 60.0003 69.7601 60.107 70.1867C60.267 70.6134 60.427 70.9334 60.5337 71.2534C61.4937 73.0134 63.147 75.3068 65.4937 78.0801C67.8937 80.8534 70.4537 83.6801 73.227 86.5068C76.107 89.3334 78.8803 91.9467 81.707 94.3467C84.4803 96.6934 86.7737 98.2934 88.587 99.2534C88.8537 99.3601 89.1737 99.5201 89.547 99.6801C89.9737 99.8401 90.4003 99.8934 90.8803 99.8934C91.787 99.8934 92.4803 99.5734 93.067 98.9868L97.1203 94.9868C98.4537 93.6534 99.7337 92.6401 100.96 92.0001C102.187 91.2534 103.414 90.8801 104.747 90.8801C105.76 90.8801 106.827 91.0934 108 91.5734C109.174 92.0534 110.4 92.7468 111.734 93.6534L129.387 106.187C130.774 107.147 131.734 108.267 132.32 109.6C132.854 110.933 133.174 112.267 133.174 113.76Z" stroke="url(#paint0_linear_1454_1241)" stroke-width="8" stroke-miterlimit="10"/>
<path d="M128 57.6H102.4V32" stroke="url(#paint1_linear_1454_1241)" stroke-width="8" stroke-linecap="round" stroke-linejoin="round"/>
</g>
<defs>
<filter id="filter0_b_1454_1241" x="-20" y="-20" width="200" height="200" filterUnits="userSpaceOnUse" color-interpolation-filters="sRGB">
<feFlood flood-opacity="0" result="BackgroundImageFix"/>
<feGaussianBlur in="BackgroundImageFix" stdDeviation="10"/>
<feComposite in2="SourceAlpha" operator="in" result="effect1_backgroundBlur_1454_1241"/>
<feBlend mode="normal" in="SourceGraphic" in2="effect1_backgroundBlur_1454_1241" result="shape"/>
</filter>
<linearGradient id="paint0_linear_1454_1241" x1="26.667" y1="26.6667" x2="133.334" y2="133.173" gradientUnits="userSpaceOnUse">
<stop stop-color="#C800C8"/>
<stop offset="1" stop-color="#9600FF"/>
<stop offset="1" stop-color="#9600FF"/>
</linearGradient>
<linearGradient id="paint1_linear_1454_1241" x1="102.4" y1="32" x2="128" y2="57.6" gradientUnits="userSpaceOnUse">
<stop stop-color="#C800C8"/>
<stop offset="1" stop-color="#9600FF"/>
<stop offset="1" stop-color="#9600FF"/>
</linearGradient>
</defs>
</svg>
