<svg width="256" height="92" viewBox="0 0 256 92" fill="none" xmlns="http://www.w3.org/2000/svg">
<path fill-rule="evenodd" clip-rule="evenodd" d="M101.653 10.7C102.34 10.5505 103.093 10.4337 103.913 10.3495C104.733 10.2654 105.552 10.2233 106.372 10.2233C107.249 10.2233 108.112 10.3028 108.96 10.4616C109.809 10.6204 110.567 10.9334 111.234 11.4006C111.901 11.8678 112.445 12.5265 112.864 13.3767C113.284 14.2269 113.493 15.3341 113.493 16.6982C113.493 17.9316 113.317 18.9779 112.964 19.8376C112.611 20.6972 112.14 21.3979 111.549 21.9398C110.958 22.4817 110.276 22.8742 109.504 23.1171C108.732 23.36 107.936 23.4815 107.116 23.4815C107.039 23.4815 106.916 23.4815 106.744 23.4815C106.572 23.4815 106.391 23.4768 106.201 23.4674C106.01 23.4581 105.824 23.4441 105.643 23.4254C105.462 23.4067 105.333 23.388 105.257 23.3693V30.1245H101.653V10.6999L101.653 10.7ZM85.4898 38.2157C84.0669 37.5545 82.4753 37.323 80.918 37.5505C83.699 36.6019 85.5903 34.5847 85.6901 32.7748C84.2873 32.4618 82.8273 32.4955 81.4406 32.873C82.787 31.8809 85.0004 30.0819 84.7781 27.4214C83.4766 27.1161 81.0851 28.0103 80.0725 28.4465C83.2763 26.68 84.4219 22.5152 82.7312 20.1492C81.7298 20.727 77.1694 25.3063 76.4128 25.8405C78.1927 24.0098 79.5873 21.8537 80.5176 19.495C81.2849 17.5432 81.3294 14.1525 78.8712 13.0186C76.7445 17.2241 74.2429 21.2375 71.3955 25.0119C71.1507 24.7938 70.951 24.4996 70.6282 24.4559C69.9072 26.4086 68.6718 28.1392 67.046 29.4711C66.9067 29.1476 66.7505 28.8309 66.5789 28.5227C65.0327 30.7905 61.0165 33.8978 59.7153 35.8058C59.4436 36.0864 59.2355 36.42 59.1051 36.7849C58.9748 37.1501 58.9246 37.5378 58.9583 37.923C58.9919 38.3085 59.1088 38.6824 59.3003 39.0201C59.4921 39.3581 59.7551 39.6523 60.0712 39.8837C60.6273 40.4397 61.7176 41.4318 60.7833 42.7948C60.2218 43.6004 59.3573 44.1551 58.3792 44.337C57.4014 44.5189 56.3892 44.3133 55.5661 43.765C55.5661 43.438 55.5661 43.1327 55.5661 42.8383C55.9469 42.6612 56.2795 42.3986 56.5373 42.0718C56.795 41.7452 56.9709 41.3634 57.0494 40.9578C57.1286 40.5521 57.1091 40.1338 56.9925 39.7369C56.8756 39.3399 56.6651 38.9755 56.3778 38.6735C56.1279 39.1774 55.6902 39.5679 55.1542 39.7637C55.0828 39.4668 54.9896 39.1755 54.8763 38.8914L54.8096 38.7606H54.6646C54.6646 38.7606 54.1198 38.7606 53.3188 38.6297C53.773 38.4849 54.1601 38.1855 54.409 37.7854C54.6578 37.3855 54.7527 36.9116 54.676 36.4491C54.2254 36.819 53.6439 36.9991 53.0582 36.9503C52.4723 36.9012 51.9301 36.6269 51.55 36.1875C51.104 35.6535 50.7992 35.0198 50.6635 34.3426C50.5275 33.6653 50.5647 32.9658 50.7712 32.3059C51.2914 30.5024 52.312 28.8757 53.7193 27.6066C53.825 27.7397 53.9624 27.845 54.1199 27.9137C54.2765 27.9821 54.4491 28.0115 54.6201 27.9992C54.9209 27.901 55.4211 27.6503 55.7886 27.5085C56.2473 27.3768 56.7293 27.3389 57.2037 27.3969C57.6781 27.455 58.1355 27.6081 58.5474 27.8466C58.9464 28.0246 59.2729 28.3285 59.4746 28.7102C59.6763 29.0919 59.7416 29.5287 59.6599 29.9507C61.4951 28.9368 60.8609 27.2468 58.447 26.6255C60.0934 26.6255 61.4507 28.0973 61.7843 28.2826C62.2252 28.5537 62.7297 28.71 63.2493 28.7367C63.7692 28.7633 64.2871 28.6596 64.7545 28.4354C66.2121 27.7484 66.5013 26.0694 66.1117 25.7312C66.036 26.0628 65.8534 26.3618 65.5911 26.5835C65.3287 26.8055 65.0001 26.9388 64.6545 26.9633C63.4366 26.9777 62.2372 26.6687 61.1837 26.0694C60.2255 25.7101 59.206 25.5327 58.1801 25.5459C59.8265 24.6519 62.3851 24.7501 63.2973 26.1238C63.584 25.9271 63.8245 25.6727 64.0031 25.3775C64.1816 25.0823 64.2939 24.7531 64.3317 24.412C64.7988 22.0133 62.8855 20.7704 60.8386 20.7704C60.8386 20.1925 60.4716 19.909 59.9268 20.1053C59.9372 20.0071 59.9246 19.9079 59.8901 19.8153C59.8554 19.7227 59.7995 19.6392 59.7266 19.5711H59.8822C61.7373 19.557 63.5287 18.9047 64.9438 17.7283C66.7905 15.7877 63.8312 13.3672 64.9438 11.4373C65.9191 11.9897 66.9782 12.3872 68.081 12.6149C68.2422 12.9912 68.3511 13.3873 68.4032 13.7924C68.8481 15.973 66.6902 16.3002 67.2907 18.5897C67.5356 19.6255 68.3256 19.9853 68.5926 21.2174C68.6046 21.5176 68.5513 21.8166 68.436 22.0946C68.321 22.373 68.1468 22.6239 67.9252 22.831C68.2839 22.8734 68.6477 22.8227 68.9802 22.6845C69.3129 22.5462 69.6034 22.3248 69.8215 22.0425C70.0394 21.7602 70.1787 21.4266 70.2246 21.0753C70.2708 20.7239 70.2215 20.3671 70.0834 20.0399C69.8495 19.4838 69.2267 18.9497 69.2267 18.2955C70.0834 19.451 70.8615 19.4075 72.3077 18.9713C72.9421 18.7752 72.9975 19.6474 72.5969 20.3452C72.9421 20.1526 73.2329 19.8799 73.4445 19.5508C73.6557 19.2219 73.7814 18.8468 73.8098 18.459C73.8286 18.2713 73.7994 18.0818 73.7261 17.9074C73.6531 17.7332 73.5372 17.5789 73.3891 17.4586C73.2407 17.3379 73.0647 17.255 72.8764 17.2165C72.688 17.1782 72.4931 17.1854 72.3077 17.238C71.8963 17.238 71.051 17.8375 71.0064 17.0417C70.8284 15.6678 73.0419 15.7115 72.5969 13.4981C72.3636 12.4078 71.0953 11.7864 69.1375 11.5464C68.7903 11.2275 68.47 10.8811 68.1807 10.5107C67.0684 8.75535 65.9558 8.33027 65.322 8.65713C64.6876 8.98416 64.1204 9.3767 63.4862 9.7474C62.9688 9.92334 62.4891 10.1934 62.0737 10.5434C61.2168 11.5792 62.0737 13.1929 62.474 14.1849C63.0418 15.0394 63.2855 16.0618 63.1638 17.0742C62.8189 18.2519 60.8277 19.0041 59.6263 19.2549H59.4151V18.797C59.7603 18.1598 60.0615 17.5006 60.3161 16.8235C61.1279 14.6974 59.9156 13.8361 58.0912 13.4217C57.9809 13.3458 57.8536 13.2973 57.7197 13.2802C57.586 13.263 57.4499 13.278 57.3238 13.3236H57.2679V13.6836L57.0232 13.618V13.1819H56.9119C57.0101 13.1105 57.0889 13.0164 57.1414 12.9081C57.1939 12.7995 57.2182 12.6804 57.2125 12.5606C57.2131 12.3431 57.1467 12.1305 57.0232 11.9499H57.2569L57.1566 11.8517C57.0845 11.721 56.9864 11.606 56.8673 11.5137C56.8202 11.4616 56.7893 11.3972 56.7783 11.3284C56.8301 11.3885 56.8947 11.4368 56.9676 11.4701C57.0748 11.5534 57.1721 11.6486 57.2568 11.7536L57.4126 11.8518V9.81299L57.2568 9.93279C57.2568 9.93279 57.0675 10.0747 56.9676 10.1727C56.8672 10.271 56.8228 10.271 56.7783 10.3252C56.7339 10.38 56.7783 10.2271 56.8673 10.1291C56.9916 10.0514 57.0914 9.942 57.1566 9.81299L57.2569 9.6711H55.2432L55.3435 9.81299C55.4564 9.91288 55.5639 10.0184 55.666 10.1291C55.7032 10.2017 55.7523 10.268 55.8108 10.3252C55.8108 10.3252 55.666 10.3252 55.6105 10.1727C55.5548 10.0202 55.3436 9.98742 55.2432 9.93279L55.1543 9.81299V11.7864L55.2432 11.6882C55.3606 11.5958 55.4875 11.5156 55.6216 11.4483C55.6216 11.4483 55.7772 11.3501 55.8217 11.3066C55.8662 11.2629 55.7218 11.4483 55.6774 11.4919C55.5841 11.6169 55.4756 11.7303 55.3545 11.8299L55.2545 11.928H55.6215C55.5403 12.0072 55.4781 12.103 55.4398 12.2086C55.4014 12.3143 55.3876 12.4269 55.3989 12.5387C55.3973 12.6547 55.4202 12.7698 55.4662 12.8768C55.5124 12.9838 55.5801 13.0802 55.666 13.1601V13.5961L55.3989 13.6617V13.3019H55.3435C55.2224 13.2561 55.0921 13.2412 54.9632 13.2584C54.8348 13.2755 54.7134 13.3242 54.6094 13.3999C52.7849 13.8143 51.5834 14.6757 52.3845 16.8017C52.6285 17.4846 52.934 18.1449 53.2966 18.7752V19.0914C51.052 18.2952 49.0127 17.0261 47.3228 15.3733L47.1005 15.0898V13.8142C47.7535 12.6975 48.3044 11.5262 48.7467 10.3143C49.8593 7.25063 48.2017 5.95313 45.5096 5.45159C45.3547 5.3317 45.17 5.25432 44.9745 5.22746C44.779 5.20069 44.5797 5.22537 44.3972 5.29899L44.3082 5.78966H43.7407V5.16806C43.6456 5.18914 43.5469 5.18914 43.4517 5.16806C43.6483 5.05805 43.8123 4.89951 43.9274 4.70843C44.0427 4.51718 44.1047 4.29983 44.1079 4.07788C44.1105 3.89499 44.0696 3.71404 43.9884 3.54939C43.9074 3.38483 43.7883 3.24102 43.6406 3.12925H44.1078C43.763 2.82715 43.4898 2.45511 43.3068 2.03881C43.73 2.22546 44.109 2.49652 44.4191 2.83485V0.294402C44.1745 0.479711 43.6516 0.970465 43.3068 1.01389C43.5113 0.626703 43.791 0.282522 44.1299 0H41.5714C41.7716 0.239939 42.2723 0.730442 42.3166 1.01389C42.0163 1.01389 41.527 0.479711 41.2601 0.294402V2.80205C41.5497 2.4833 41.8919 2.21433 42.2723 2.00627C42.2723 2.33322 41.7271 2.84572 41.5271 3.09645H41.972C41.8289 3.2109 41.7146 3.35597 41.6375 3.52028C41.5603 3.68467 41.5225 3.86412 41.527 4.04508C41.5256 4.26662 41.5847 4.48455 41.698 4.67647C41.8115 4.86805 41.9752 5.02667 42.172 5.13527C42.0578 5.15409 41.9413 5.15409 41.8271 5.13527V5.75687H41.2709V5.2662C41.0885 5.19257 40.8892 5.16806 40.6936 5.19475C40.4982 5.22152 40.3134 5.29899 40.1586 5.41879C37.4776 5.95313 35.7756 7.21783 36.9326 10.2817C37.3373 11.5084 37.8899 12.6834 38.5788 13.7814V15.1007C38.5219 15.1853 38.4587 15.2653 38.3897 15.3406C37.5331 16.529 34.2294 18.4808 32.4162 19.0585V18.7424C32.7923 18.1241 33.1124 17.4746 33.3729 16.8016C34.1848 14.6755 32.9723 13.8142 31.148 13.3998C31.0417 13.3241 30.918 13.2754 30.788 13.2583C30.6579 13.2412 30.5255 13.256 30.4026 13.3018L30.3469 13.6616L30.1023 13.596V13.16C30.2604 12.9904 30.3478 12.7684 30.3469 12.5386C30.3594 12.4287 30.3478 12.3175 30.3134 12.2124C30.2788 12.1071 30.2221 12.0102 30.1467 11.9279H30.447L30.3469 11.8298C30.234 11.7318 30.1365 11.618 30.0576 11.4918C30.0576 11.4918 29.9354 11.3499 29.8797 11.3065C29.8242 11.2628 30.0576 11.4046 30.1023 11.4482C30.2236 11.5351 30.3386 11.6297 30.447 11.7317L30.5472 11.8299V9.81291L30.447 9.93271C30.3469 9.93271 30.2468 10.0746 30.1023 10.1726C29.9575 10.2709 29.9355 10.2709 29.8797 10.3252C29.9403 10.2836 29.9932 10.232 30.0353 10.1726C30.1245 10.0442 30.225 9.92393 30.3357 9.81291L30.4358 9.67102H28.4224L28.5225 9.81291C28.6002 9.92694 28.6898 10.0329 28.7897 10.129C28.8898 10.2271 28.9342 10.2709 28.9342 10.3252C28.9342 10.3799 28.8452 10.3252 28.7452 10.1726C28.645 10.0201 28.4671 9.98734 28.4225 9.93271L28.2779 9.81291V11.7863L28.4225 11.6882C28.5148 11.5782 28.6235 11.4825 28.7452 11.4046C28.818 11.3713 28.8825 11.323 28.9342 11.2628C28.9282 11.3032 28.9118 11.3416 28.8865 11.374C28.8612 11.4064 28.8279 11.4319 28.7897 11.4482C28.6895 11.6009 28.5672 11.6882 28.5225 11.7863L28.4224 11.8845H28.6895C28.5437 12.0554 28.4647 12.2721 28.467 12.495C28.4625 12.6169 28.4898 12.7379 28.5464 12.8467C28.6028 12.9555 28.6865 13.0482 28.7897 13.1164H28.6895L28.7451 13.5526L28.467 13.618V13.2582C28.3443 13.2116 28.2118 13.1961 28.0813 13.2133C27.9511 13.2304 27.8273 13.2796 27.7216 13.3563C25.9083 13.7707 24.6957 14.6321 25.4968 16.7581C25.741 17.4408 26.0463 18.1011 26.4089 18.7315V19.1894H26.2086C25.0073 18.9496 22.9938 18.1972 22.649 17.0087C22.5235 16.0233 22.739 15.0251 23.2608 14.1739C23.728 13.1818 24.5179 11.5681 23.6836 10.5324C23.2564 10.1814 22.7711 9.90485 22.2486 9.71469C21.6144 9.37662 21.2141 9.03863 20.413 8.62434C19.612 8.21005 18.6665 8.72247 17.5541 10.478C17.2709 10.8535 16.9506 11.2004 16.5974 11.5137C14.6506 11.7535 13.4047 12.3533 13.1377 13.4654C12.6817 15.646 14.8954 15.646 14.7507 17.0088C14.7507 17.8049 13.8495 17.2488 13.449 17.2051C13.2628 17.1481 13.0651 17.1374 12.8736 17.1738C12.6822 17.2103 12.5028 17.2927 12.3517 17.4136C12.2008 17.5345 12.0826 17.6906 12.0083 17.8673C11.9337 18.044 11.9052 18.236 11.9249 18.4262C11.9562 18.8134 12.0829 19.1871 12.2942 19.5158C12.5054 19.8443 12.7948 20.1177 13.1376 20.3124C12.7371 19.6144 12.7817 18.7424 13.449 18.9387C14.8508 19.3747 15.6739 19.4183 16.5415 18.2299C16.5415 18.8841 15.9631 19.4183 15.6961 19.9744C15.5539 20.3015 15.5024 20.6595 15.5469 21.0123C15.5914 21.3652 15.73 21.7003 15.9493 21.9835C16.1683 22.2668 16.4598 22.4884 16.7945 22.6259C17.1291 22.7632 17.4946 22.8114 17.8544 22.7656C17.6223 22.5672 17.4423 22.3172 17.3302 22.0363C17.2178 21.7554 17.1763 21.452 17.209 21.152C17.4538 19.9199 18.2438 19.5601 18.5108 18.5243C19.0558 16.2346 16.8977 15.8748 17.3982 13.727C17.4533 13.3247 17.5541 12.9299 17.6986 12.5495C18.8064 12.3274 19.8697 11.9297 20.8468 11.3719C21.8592 13.269 18.9445 15.7332 20.7912 17.663C22.2129 18.8352 24.006 19.4868 25.8639 19.5058H26.0195C25.9424 19.5709 25.8827 19.6538 25.846 19.747C25.8091 19.84 25.7962 19.9406 25.8083 20.0399C25.2742 19.8437 24.8516 20.1271 24.9295 20.705C22.8158 20.705 20.9469 21.9481 21.4141 24.3466C21.4298 24.7058 21.5295 25.0566 21.7049 25.372C21.8802 25.6877 22.1271 25.9597 22.4265 26.1674C23.3053 24.7935 25.8639 24.6954 27.5326 25.5896C26.5028 25.5742 25.4796 25.7519 24.5178 26.1128C23.48 26.6721 22.309 26.9506 21.125 26.9197C20.7763 26.8961 20.4446 26.7639 20.1785 26.5421C19.9121 26.3204 19.7254 26.0209 19.6453 25.6876C19.256 26.0255 19.5452 27.7046 21.0137 28.3915C21.4791 28.616 21.9954 28.7197 22.5135 28.6931C23.0315 28.6662 23.5338 28.5101 23.9728 28.239C24.3175 28.0537 25.6635 26.5817 27.31 26.5817C24.9183 27.2033 24.2509 28.8933 26.1197 29.9071C26.0197 29.4933 26.0678 29.0582 26.2564 28.6751C26.4447 28.2919 26.7617 27.984 27.1544 27.8027C27.5664 27.5649 28.0237 27.4123 28.4981 27.3543C28.9725 27.296 29.4541 27.3337 29.9132 27.4649C30.2802 27.6066 30.7697 27.8575 31.0255 27.9556C31.1972 27.9688 31.3695 27.9399 31.5269 27.8712C31.6841 27.8026 31.8216 27.6968 31.9266 27.563C33.3265 28.8397 34.3489 30.4634 34.8858 32.2623C35.0991 32.922 35.1384 33.6239 35.0004 34.3026C34.8623 34.9813 34.5512 35.6146 34.0959 36.1439C33.7161 36.5801 33.1764 36.8523 32.5934 36.9011C32.0104 36.95 31.4311 36.7719 30.9812 36.4055C30.9045 36.8677 30.9994 37.3418 31.2483 37.7418C31.497 38.1416 31.8837 38.441 32.3383 38.5861L30.9589 38.7169H30.8142L30.7586 38.8478C30.6449 39.1317 30.5521 39.4232 30.4805 39.7199C29.9532 39.5194 29.5236 39.1296 29.2792 38.6297C28.9911 38.9295 28.7791 39.2915 28.6607 39.6866C28.5424 40.0816 28.5207 40.4984 28.5977 40.9033C28.6746 41.3082 28.8481 41.6893 29.1037 42.0161C29.3592 42.3428 29.69 42.6059 30.0688 42.7838C30.0688 43.0891 30.0688 43.4052 30.0688 43.7324C29.251 44.2708 28.2487 44.4699 27.2813 44.2859C26.3141 44.1021 25.4604 43.5503 24.9072 42.751C23.9505 41.3882 25.0519 40.3959 25.597 39.8398C25.9054 39.61 26.162 39.3201 26.3503 38.9883C26.5385 38.6565 26.6547 38.2899 26.6913 37.9121C26.7279 37.5338 26.6841 37.1525 26.5628 36.7919C26.4412 36.4312 26.245 36.0992 25.9863 35.8167C24.6846 33.9086 20.6799 30.8012 19.1336 28.5335C18.9471 28.831 18.7976 29.1496 18.6887 29.482C17.0502 28.1549 15.8022 26.4237 15.0734 24.4667C14.773 24.4667 14.5616 24.8047 14.3169 25.0228C11.4739 21.2457 8.97246 17.2326 6.84148 13.0292C4.44948 14.1741 4.44948 17.5431 5.21711 19.4949C6.16451 21.8427 7.55295 23.9952 9.31107 25.8404C8.57674 25.3062 4.01578 20.7161 3.00342 20.1491C1.30146 22.5151 2.45841 26.6909 5.65116 28.4464C4.6721 28.0102 2.22495 27.116 0.956698 27.4213C0.711804 30.0818 2.90347 31.8808 4.29396 32.8729C2.89374 32.488 1.41704 32.4543 0 32.7747C0.100211 34.5847 2.01352 36.6019 4.71683 37.5504C3.17363 37.3284 1.598 37.5598 0.18924 38.2156C0.389405 40.1015 2.55862 41.7153 5.1618 42.1078C3.60213 42.227 2.15069 42.9345 1.11248 44.0813C1.6178 44.7671 2.2888 45.3193 3.06531 45.6884C3.8419 46.0576 4.69975 46.2321 5.56222 46.1965C4.98357 46.411 4.45691 46.7414 4.01586 47.1668C3.94604 47.1039 3.85479 47.0688 3.76013 47.0686C3.71139 47.0962 3.67443 47.1399 3.65599 47.192C3.63764 47.2442 3.639 47.301 3.65992 47.3521V47.4284C3.57174 47.4808 3.49552 47.5504 3.43628 47.6329C3.37678 47.7155 3.33547 47.8092 3.31498 47.9081C3.11098 48.1866 2.93949 48.4866 2.80343 48.8023C2.85584 48.8285 2.90432 48.8615 2.94794 48.9005C2.92822 49.0864 2.97961 49.2731 3.09271 49.4237C3.00334 49.5408 2.93906 49.6742 2.90364 49.8163L1.64657 49.3256C1.57888 49.7877 1.61131 50.2585 1.74157 50.7076C1.87208 51.1566 2.09734 51.5735 2.40301 51.9316C2.859 52.4438 3.37089 52.3676 3.21494 52.5421L4.57214 53.349C4.61439 53.4499 4.67816 53.5406 4.75925 53.6158C4.84025 53.6904 4.93679 53.7477 5.04221 53.7825C5.14771 53.8176 5.25945 53.8303 5.37041 53.8196C5.48112 53.8084 5.58825 53.7745 5.68445 53.7197V53.8176C5.7005 54.0626 5.79046 54.2968 5.943 54.491C6.09571 54.6853 6.30407 54.8303 6.54119 54.9079C6.45225 55.3441 6.6414 55.6276 7.26426 55.8239L12.3703 67.9701C12.2617 68.1957 12.2477 68.4545 12.3308 68.6908C12.4139 68.9271 12.5876 69.1222 12.8152 69.235C12.6869 69.4047 12.6204 69.6122 12.6261 69.8232C12.8152 69.6817 13.1156 69.6274 13.2602 70.0411C13.405 70.4555 12.8153 71.2625 13.6386 71.8948C13.5869 72.1768 13.6363 72.4673 13.7782 72.7179C13.9203 72.9679 14.1459 73.1627 14.4172 73.2687C14.4172 73.5522 14.6843 74.501 14.7287 74.8282C14.3727 75.3403 13.5274 76.1147 13.6164 77.0088C13.6187 77.235 13.7027 77.4529 13.8532 77.6248C14.0037 77.7964 14.2115 77.9104 14.4395 77.9465C14.2504 79.0367 14.8624 79.5165 15.7966 79.5707C15.8299 79.8735 15.9771 80.153 16.2097 80.3548C16.4422 80.556 16.7432 80.6657 17.0538 80.6611C17.4285 80.9492 17.8309 81.2012 18.2551 81.4132C17.7657 81.9801 18.1105 82.7327 19.0117 82.9727C19.0717 83.1637 19.1845 83.3352 19.3377 83.4681C19.4906 83.601 19.6782 83.6896 19.8792 83.7246C19.9925 83.9026 20.1671 84.0351 20.3712 84.0968C20.5756 84.1587 20.7958 84.1471 20.9917 84.0629C21.1529 83.9356 21.2657 83.7587 21.3121 83.5609C21.3587 83.3631 21.3358 83.1561 21.2475 82.9727C21.3191 82.815 21.3514 82.6424 21.3418 82.4701C21.332 82.2971 21.2808 82.1297 21.192 81.9802C21.3266 81.7499 21.3634 81.4772 21.2947 81.2201C21.2263 80.9629 21.0575 80.7429 20.8251 80.6063C20.835 80.255 20.7668 79.905 20.6248 79.5815L22.5493 78.3933C24.2624 77.0484 26.3227 76.1955 28.5009 75.9292C29.2414 75.8794 29.985 75.8794 30.7256 75.9292C31.6379 76.0276 32.8838 76.2892 33.6179 75.733C33.7309 75.6745 33.8234 75.5839 33.8829 75.4727C33.9425 75.3622 33.9664 75.236 33.9518 75.1117C33.8516 74.5553 33.2285 74.0214 33.0395 73.5634C32.9839 73.4107 32.8838 73.1926 32.7948 72.9965C33.3289 73.0958 33.8811 73.0431 34.3856 72.8437C34.7802 72.6805 35.1161 72.4056 35.3501 72.0537C35.584 71.7023 35.7052 71.29 35.6982 70.8701C34.9418 71.23 33.0953 71.7098 32.895 69.8781C32.6948 68.2644 34.1521 66.8905 36.4214 67.4904C37.9677 67.883 40.2259 71.1097 38.1569 72.5055C37.1555 73.1815 35.6093 73.825 35.7983 75.5914C36.1134 75.1946 36.5283 74.8859 37.0024 74.6948C37.4765 74.5035 37.9931 74.4366 38.5016 74.501C36.7997 75.7221 35.5091 75.8636 33.7293 76.8126C32.183 77.6954 31.0372 79.1677 29.8247 79.2219C28.8903 79.2219 28.3785 78.1315 29.2797 77.3359C28.7651 77.2863 28.2481 77.4003 27.8053 77.6616C27.3624 77.9226 27.0172 78.3173 26.821 78.7859C26.5983 79.2468 26.5474 79.7701 26.6774 80.2641C26.8075 80.758 27.1103 81.1922 27.533 81.4899C26.9307 81.7764 26.4493 82.2598 26.1712 82.8566C25.8931 83.4536 25.8355 84.1271 26.0089 84.7609C26.3873 86.091 27.7331 86.091 27.2216 87.7808C27.5751 87.6952 27.8987 87.5171 28.1571 87.2656C28.4158 87.014 28.5999 86.6987 28.69 86.3527C28.7292 85.8979 28.8821 85.4597 29.1349 85.0767C29.0921 85.7401 29.2497 86.4008 29.588 86.9769C29.9263 87.5531 30.4302 88.0186 31.0371 88.3152C31.615 88.6235 32.2801 88.7387 32.9309 88.6424C33.5817 88.5459 34.1825 88.2432 34.6415 87.7807C34.9412 88.5024 35.4563 89.1181 36.1193 89.548C36.7823 89.9781 37.5619 90.2018 38.3569 90.1901C39.0918 90.1552 39.8046 89.9335 40.426 89.5471C40.9125 90.6131 41.762 91.4802 42.8288 92C43.9105 91.4823 44.7784 90.6165 45.2875 89.5471C45.8998 89.935 46.6059 90.1565 47.3342 90.1901C48.1274 90.1947 48.904 89.9676 49.5654 89.539C50.227 89.1099 50.7434 88.4979 51.0497 87.7807C51.5086 88.2432 52.1094 88.5459 52.7604 88.6424C53.4107 88.7387 54.0761 88.6235 54.654 88.3152C55.2501 88.0202 55.7464 87.5626 56.0838 86.9978C56.4211 86.4333 56.5852 85.7851 56.5561 85.1315C56.822 85.5099 56.9829 85.9496 57.0234 86.4069C57.1008 86.7554 57.2784 87.0744 57.5345 87.3274C57.7905 87.5805 58.115 87.7565 58.4695 87.8355C57.9578 86.1453 59.3373 86.1453 59.6709 84.8151C59.8484 84.1837 59.7952 83.5118 59.521 82.9149C59.2468 82.3175 58.7686 81.8331 58.1694 81.5441C58.6011 81.2535 58.9094 80.8185 59.0361 80.3205C59.1635 79.8225 59.1003 79.296 58.8592 78.8406C58.6621 78.3737 58.316 77.9821 57.873 77.7245C57.4297 77.4669 56.9125 77.3572 56.4004 77.412C57.3127 78.2519 56.8232 79.3421 55.8664 79.2986C54.654 79.2986 53.5081 77.7721 51.9505 76.8887C50.1819 75.9402 48.8805 75.7983 47.1896 74.5771C47.6964 74.5106 48.2124 74.5761 48.6851 74.7678C49.1579 74.9589 49.5706 75.2692 49.8815 75.6673C50.0817 73.9011 48.5357 73.258 47.5233 72.582C45.4874 71.1865 47.7234 67.9591 49.3032 67.5665C51.5279 66.967 53.0075 68.3409 52.7852 69.954C52.5404 71.7859 50.7492 71.3061 49.9373 70.9466C49.9629 71.3518 50.1032 71.7424 50.3432 72.074C50.583 72.4052 50.9123 72.6643 51.2945 72.822C51.6221 72.9565 51.9739 73.0254 52.3288 73.0254C52.6844 73.0254 53.0362 72.9564 53.3637 72.822C53.3637 72.9965 53.3637 73.1927 53.3637 73.247C53.2079 74.817 52.351 74.9591 52.6516 75.6021C52.9516 76.2458 55.8218 75.9947 56.5561 76.1367C57.8579 76.3111 58.9704 76.7909 60.2272 77.0307C61.632 77.1727 63.0206 77.4389 64.3764 77.8264C65.1887 78.1646 66.101 78.8076 66.8907 79.2002C68.0812 79.3964 67.8918 79.8762 68.6597 79.8762C69.4268 79.8762 69.6164 79.2987 70.4949 79.0588C71.1066 78.9062 71.7964 79.1459 72.4084 78.9604C72.8533 78.8624 73.0536 78.4045 73.5207 78.1646C73.9879 77.9248 74.7 77.87 75.1671 77.4557C75.2759 77.3329 75.3551 77.1884 75.3995 77.0317C75.4441 76.875 75.4519 76.7107 75.4228 76.5509V76.6164C76.3696 75.9535 77.0842 75.0204 77.4697 73.9447C77.5908 73.9203 77.6994 73.8559 77.7781 73.7632C77.8568 73.6698 77.9013 73.5533 77.9039 73.4325V73.3453C78.0255 73.2541 78.1243 73.1369 78.1937 73.003C78.263 72.8685 78.3007 72.721 78.3044 72.571C78.305 72.4031 78.2702 72.2363 78.2009 72.0826C78.132 71.9285 78.0306 71.7905 77.9039 71.6768V71.579C77.8904 71.4106 77.8242 71.2509 77.7146 71.121C77.5324 70.082 77.0465 69.1169 76.316 68.3425C75.5854 67.5686 74.6416 67.0188 73.5984 66.7597V66.6619C73.5984 66.5634 73.5984 66.5092 73.4763 66.5092C73.1632 66.2309 72.9294 65.8778 72.7973 65.4844C73.2311 65.7157 73.6345 65.9977 73.9989 66.3237V63.5761C73.6345 63.9027 73.2311 64.1846 72.7973 64.4158C72.9351 63.9727 73.1793 63.569 73.5094 63.2383H70.6397C71.018 63.5568 71.3119 63.9609 71.4961 64.4158C71.0595 64.1897 70.6554 63.9073 70.2948 63.5761V66.3455C70.6554 66.0149 71.0594 65.7324 71.4961 65.5062C71.3119 65.9604 71.018 66.3647 70.6397 66.6837H70.7397C69.6775 66.9338 68.7114 67.4774 67.9559 68.2508C67.2005 69.0242 66.6877 69.9939 66.4792 71.0447C66.4072 71.0994 66.3478 71.1689 66.306 71.2474C66.2635 71.3266 66.2391 71.4137 66.2346 71.5025V71.6008C66.1107 71.7161 66.013 71.855 65.9457 72.0088C65.879 72.1623 65.8448 72.3277 65.8448 72.495C65.8485 72.6441 65.8853 72.7907 65.9526 72.9239C66.0198 73.058 66.116 73.1756 66.2346 73.2689V73.3562C66.2278 73.4814 66.2702 73.6037 66.3532 73.699C66.4359 73.7944 66.5527 73.8551 66.6796 73.8689C66.7811 74.1324 66.8958 74.3906 67.0242 74.6427C66.92 74.9514 66.7374 75.229 66.4949 75.45C66.2517 75.6711 65.9552 75.8284 65.6339 75.9074C63.8761 76.1585 61.9406 75.4277 60.1718 74.8171C59.2721 74.5767 58.4644 74.0843 57.8467 73.3996C57.6899 73.2126 57.5807 72.9909 57.5285 72.7541C57.4762 72.5167 57.4823 72.2713 57.5465 72.037C57.8193 72.3409 58.1478 72.5917 58.5141 72.7784C58.5327 72.5415 58.5773 72.3078 58.6478 72.0805C58.8706 72.3981 59.1755 72.6526 59.5309 72.8174C59.8865 72.9817 60.2807 73.0513 60.6724 73.0183C60.3822 72.6652 60.1839 72.2489 60.0949 71.8046C60.0059 71.36 60.0282 70.9008 60.1607 70.4667C60.408 70.7909 60.7422 71.0414 61.1262 71.1899C61.5103 71.3386 61.9287 71.379 62.3349 71.3082C62.7411 71.2367 63.1193 71.0561 63.4271 70.7863C63.7345 70.5166 63.9596 70.1681 64.0766 69.7796C63.9219 69.8823 63.7455 69.9484 63.5607 69.975C63.3765 70.0008 63.1882 69.9851 63.0102 69.9297C62.8326 69.8739 62.6703 69.7796 62.5347 69.6533C62.3997 69.5275 62.2957 69.3734 62.2299 69.2021C61.9294 68.3517 62.9197 66.3018 62.0298 64.7211C61.7002 64.1023 61.2142 63.577 60.6182 63.1952C60.0221 62.8131 59.336 62.5881 58.6256 62.5404C58.7637 62.3117 58.844 62.0535 58.8595 61.7879C58.1656 62.1312 57.363 62.1941 56.6226 61.9638C55.8828 61.7335 55.2639 61.228 54.8992 60.556C55.3359 60.7005 55.7953 60.7673 56.2564 60.7522C54.7097 59.5203 54.7986 56.0314 55.9112 54.2103C56.0668 54.1123 56.1114 54.014 56.2564 53.9703C56.601 54.6464 57.6136 54.6464 58.1254 55.2026C58.3255 55.0064 58.4254 54.9629 58.6256 54.7884C58.6328 56.154 58.7105 57.5187 58.8595 58.8768C59.0597 60.2071 60.361 60.0652 61.0838 60.6432C61.874 59.7928 63.3087 59.8363 63.0754 58.3754C62.8415 56.9143 62.5859 55.5841 62.53 54.5921C62.975 55.4861 63.8318 58.8333 64.1765 59.7928C64.7441 61.221 66.1458 60.7847 66.9354 61.3412C67.4471 60.3486 68.749 60.0652 68.2373 58.5717C68.0817 58.1791 66.0124 53.7741 65.6342 52.9237C66.3905 54.0141 68.4598 57.8957 69.0936 58.9754C69.7281 60.0545 71.107 59.5529 72.0414 59.8364C72.2193 59.0296 73.4768 58.0812 72.5645 56.6638C71.4521 54.7885 68.7045 51.5063 68.5596 51.0484C69.0936 51.5498 73.2989 56.6638 73.6211 56.958C74.6002 57.7977 76.024 57.1436 76.8694 57.1436C76.8694 56.2058 77.626 55.148 76.5248 54.0577C75.4233 52.9674 73.1876 51.5063 72.7204 50.9504C74.2556 52.0409 76.0577 53.6546 77.1702 53.9162C77.7327 54.0789 78.326 54.1135 78.9046 54.0171C79.4825 53.9208 80.0311 53.6962 80.5074 53.3598C79.9176 51.6484 80.7077 50.8633 76.647 49.1952C80.1625 50.4273 81.7084 49.8166 82.9658 48.8571C82.6941 48.2473 82.3003 47.6976 81.8072 47.2406C81.3141 46.7834 80.7321 46.4285 80.0955 46.1969C80.9582 46.2345 81.8171 46.0608 82.5936 45.6915C83.3708 45.3221 84.0413 44.7687 84.5453 44.0817C84.0186 43.5003 83.3801 43.0266 82.6661 42.6878C81.9518 42.3492 81.1769 42.1521 80.3847 42.1082C83.1323 41.7156 85.2459 40.102 85.4905 38.216L85.4898 38.2157ZM4.10446 50.852C4.10446 50.852 4.10446 50.852 4.01543 50.9392C3.71506 50.9392 3.71506 50.5578 3.7597 50.2743C3.82244 50.2795 3.88586 50.2714 3.94527 50.2508C4.00468 50.23 4.05888 50.1972 4.10438 50.1543V50.2089L3.97079 50.3071C4.05982 50.4705 4.05982 50.6559 4.10438 50.852H4.10446ZM5.06116 52.8693L4.57172 52.5859C4.60279 52.5402 4.64307 52.5012 4.69002 52.4712C4.73723 52.4419 4.78981 52.4216 4.84495 52.4124C4.90026 52.4032 4.95677 52.4053 5.01114 52.4179C5.06551 52.4311 5.11656 52.4546 5.16129 52.4875C5.17238 52.5544 5.16931 52.6229 5.15207 52.6887C5.13483 52.7541 5.10375 52.8161 5.06108 52.8693L5.06116 52.8693ZM34.396 85.0444C33.1946 85.0444 32.327 84.303 32.9498 83.2668C33.1301 83.4874 33.3565 83.6674 33.6134 83.7958C33.8706 83.9236 34.1525 83.9961 34.4406 84.0081C34.4052 84.3526 34.3903 84.6984 34.396 85.0443V85.0444ZM52.7401 83.2668C53.3516 84.3572 52.4953 85.0444 51.2939 85.0444C51.3113 84.6783 51.2775 84.3111 51.1938 83.9539C51.4846 83.9551 51.7724 83.8966 52.039 83.7821C52.305 83.6674 52.5439 83.4997 52.7401 83.2887V83.2669V83.2668ZM34.3405 19.4951C36.8732 18.9708 39.2233 17.8099 41.1597 16.126C42.2971 16.1859 43.4372 16.1859 44.5748 16.126C46.4861 17.8124 48.8202 18.9713 51.3384 19.4841C49.7365 19.4841 46.8887 19.3422 46.5883 18.9607C46.6884 19.9421 48.8132 21.0542 50.2259 21.3704C49.1575 21.5233 48.0668 21.38 47.0778 20.956C47.5433 21.6782 48.2455 22.2242 49.0689 22.5043C48.4327 23.1541 47.6519 23.6507 46.7874 23.9551C45.9228 24.2597 44.9977 24.364 44.0853 24.2597C44.3605 24.5639 44.7062 24.7991 45.0934 24.9451C45.4806 25.0911 45.8978 25.1441 46.3102 25.0992C44.4441 27.7917 43.2652 30.8841 42.8728 34.116C42.4834 30.8729 41.2962 27.7713 39.4132 25.0773C39.8155 25.1217 40.2228 25.0681 40.5991 24.9218C40.9756 24.7754 41.3094 24.5405 41.5712 24.2379C40.6621 24.3412 39.7408 24.2365 38.8799 23.9319C38.019 23.6273 37.2421 23.1311 36.6098 22.4825C37.4351 22.2053 38.1379 21.6589 38.601 20.9341C37.6124 21.3604 36.521 21.504 35.4529 21.3486C36.8545 21.0323 39.0239 19.9202 39.1128 18.939C38.7457 19.3532 35.9535 19.4951 34.3405 19.4951ZM26.8203 61.766C26.844 62.0317 26.9277 62.2889 27.0651 62.5185C26.3643 62.5697 25.689 62.7974 25.1043 63.1795C24.5197 63.5613 24.0456 64.0851 23.7278 64.6992C22.7599 66.2799 23.7278 68.3299 23.4942 69.1803C23.4299 69.3512 23.3269 69.5054 23.1927 69.6316C23.0587 69.7574 22.897 69.8522 22.7203 69.9075C22.5433 69.9633 22.3557 69.979 22.172 69.953C21.9879 69.9272 21.8124 69.8603 21.6588 69.7578C21.776 70.1445 21.9999 70.4911 22.3059 70.7604C22.6118 71.0294 22.9881 71.2102 23.3924 71.2823C23.7969 71.3548 24.2138 71.3156 24.5971 71.1696C24.9802 71.0242 25.3149 70.7766 25.5634 70.4556C25.692 70.8989 25.7102 71.3655 25.6176 71.8168C25.5247 72.268 25.323 72.6911 25.0295 73.0507C25.4168 73.0846 25.8063 73.0156 26.1567 72.8508C26.5074 72.6856 26.8058 72.431 27.0207 72.1131C27.1 72.3386 27.1484 72.5731 27.1655 72.8108C27.5349 72.6345 27.8614 72.3813 28.122 72.0695C28.229 72.4772 28.229 72.9048 28.122 73.3124C27.6725 73.6 27.2044 73.8587 26.7204 74.0868C25.4817 74.691 24.1698 75.1375 22.8158 75.417C22.2491 75.4916 21.6729 75.3831 21.1751 75.1076C20.677 74.8318 20.2845 74.4047 20.057 73.8905C19.7121 72.8003 18.7554 72.4077 17.9878 73.0943C17.8434 72.9919 17.6649 72.9464 17.488 72.9666C17.3109 72.9868 17.1477 73.0711 17.0312 73.2033C16.8966 72.9102 16.7123 72.6409 16.4861 72.4077C16.6188 72.144 16.6476 71.8413 16.5677 71.5582C16.4878 71.2747 16.3043 71.0298 16.0523 70.8701C16.0523 69.7796 15.2959 69.7796 15.0512 69.3439C14.8063 68.908 14.8955 68.8096 15.2513 68.7658C15.1901 68.6913 15.1143 68.63 15.0282 68.5849C14.9423 68.5403 14.848 68.5123 14.7508 68.5042C14.8129 68.243 14.7748 67.9687 14.6433 67.7329C14.5121 67.4976 14.2968 67.318 14.0387 67.2289L8.20961 55.4315C8.2796 55.3486 8.32928 55.2509 8.35515 55.1464C8.38075 55.0419 8.38195 54.9329 8.35847 54.8278C8.33474 54.7228 8.28703 54.6245 8.219 54.5398C8.15071 54.4556 8.0639 54.3878 7.96497 54.341V54.2431C7.97317 54.1672 7.97317 54.09 7.96497 54.014L8.47652 53.9049C9.589 53.6431 11.4246 51.9752 12.9821 50.9391C12.4369 51.4954 10.1676 53.1198 9.16631 54.047C8.16514 54.9735 8.67686 55.835 8.83264 56.6961L9.04399 57.1434C9.90056 57.1434 11.1797 57.6992 12.1364 56.936C12.4368 56.6418 16.6418 51.4843 17.2091 51.0264C16.9868 51.4843 14.339 54.7665 13.1377 56.6418C12.2366 58.0592 13.5492 59.0076 13.6939 59.8145C14.6506 59.5311 15.9188 60.0867 16.6418 58.9533C17.365 57.8195 19.3562 53.9921 20.1126 52.9017C19.8122 53.7521 17.6542 58.1572 17.5095 58.5497C16.9868 60.0432 18.2882 60.3267 18.8112 61.3191C19.6009 60.7627 21.0361 61.1989 21.5589 59.7708C21.9037 58.8112 22.7713 55.4643 23.2164 54.5701C23.1607 55.562 22.8715 56.8816 22.6712 58.3533C22.471 59.825 23.8728 59.7708 24.6069 60.6212C25.319 60.0431 26.6315 60.1851 26.8318 58.8549C27.032 57.5247 27.0764 54.81 27.0764 54.81C27.2766 54.9845 27.3768 55.028 27.5993 55.2243C28.0887 54.6681 29.101 54.6681 29.4348 53.992C29.5905 53.992 29.6351 54.134 29.7796 54.2318C30.8922 56.0418 30.9812 59.5309 29.4348 60.7739C29.8954 60.7854 30.3544 60.7191 30.792 60.5777C30.0911 61.9079 28.5672 62.3877 26.8206 61.7658L26.8203 61.766ZM37.711 78.2736C36.784 79.3686 36.0337 80.5969 35.4863 81.9148C34.3738 81.817 34.6186 80.5411 34.9634 79.8868C35.6755 78.6113 38.5788 76.954 40.0361 75.2862C39.3377 76.3369 38.5606 77.3355 37.7111 78.2736H37.711ZM40.8593 80.5411C40.2435 82.853 39.9736 85.2407 40.0583 87.6282C38.0114 86.5379 39.1684 82.5584 39.9582 80.8245C40.9813 78.5161 41.692 76.0859 42.0718 73.5958C42.7059 75.0243 41.2931 79.0256 40.8593 80.5411ZM45.6093 87.6282C45.7064 85.2391 45.4326 82.8495 44.7974 80.5411C44.3745 79.0256 42.9619 75.0243 43.5959 73.5958C43.9704 76.0867 44.6812 78.5176 45.7096 80.8245C46.5217 82.5584 47.6673 86.5815 45.6093 87.6282ZM50.6709 79.8868C51.0271 80.5411 51.2161 81.817 50.1594 81.9148C49.5956 80.6049 48.8466 79.3791 47.9345 78.2736C47.0736 77.3446 46.2959 76.345 45.6094 75.2862C47.0779 76.954 49.9812 78.6113 50.6933 79.8868H50.671H50.6709ZM256 85.9813H252.397V78.1609L250.852 78.6935L247.678 85.9812H243.531L246.791 79.3101L248.221 78.1889C247.211 77.9086 246.372 77.2966 245.704 76.3529C245.037 75.4092 244.704 74.0871 244.704 72.3867C244.704 71.1907 244.875 70.1911 245.218 69.3876C245.562 68.584 246.048 67.9393 246.677 67.4535C247.306 66.9677 248.059 66.6173 248.936 66.4024C249.813 66.1876 250.776 66.0801 251.825 66.0801C252.072 66.0801 252.382 66.0894 252.754 66.1081C253.126 66.1268 253.502 66.1548 253.884 66.1922C254.265 66.2296 254.641 66.281 255.013 66.3463C255.385 66.4118 255.714 66.4819 256 66.5566V85.9812L256 85.9813ZM252.397 69.4717C252.225 69.4157 252.053 69.3783 251.882 69.3596C251.71 69.3409 251.501 69.3315 251.253 69.3315C250.871 69.3315 250.509 69.383 250.166 69.4857C249.823 69.5885 249.527 69.766 249.279 70.0182C249.032 70.2705 248.836 70.6022 248.693 71.0134C248.55 71.4245 248.479 71.9383 248.479 72.555C248.479 73.7323 248.741 74.5778 249.265 75.0917C249.789 75.6056 250.471 75.8625 251.31 75.8625H252.397V69.4717V69.4717ZM238.498 75.5262L238.784 72.7513H238.641L237.554 75.7225L231.863 85.9814H229.032V66.3606H232.635V76.6195L232.32 79.4785H232.464L233.607 76.4233L239.299 66.3606H242.101V85.9814H238.498V75.5263V75.5262ZM222.854 77.6845H217.392V85.9813H213.789V66.3605H217.392V74.4331H222.854V66.3605H226.458V85.9813H222.854V77.6845ZM207.554 81.4966H202.835L201.663 85.9813H198.088L203.893 66.2203H206.725L212.559 85.9813H208.784L207.554 81.4966H207.554ZM203.607 78.6375H206.925L205.781 74.0687L205.324 70.9854H205.209L204.723 74.0967L203.608 78.6375H203.607ZM196.887 70.9013C196.887 71.3871 196.834 71.8684 196.73 72.3448C196.625 72.8213 196.458 73.2698 196.229 73.6903C196 74.1107 195.7 74.4797 195.328 74.7974C194.956 75.1151 194.513 75.3579 193.999 75.5261V75.6943C194.456 75.8065 194.89 75.9745 195.3 76.1987C195.71 76.423 196.067 76.7266 196.372 77.1098C196.677 77.4929 196.92 77.96 197.101 78.5112C197.283 79.0625 197.373 79.7119 197.373 80.4593C197.373 81.4684 197.197 82.3419 196.844 83.0801C196.491 83.8181 196.015 84.4208 195.414 84.8881C194.814 85.3552 194.113 85.7009 193.312 85.9251C192.511 86.1494 191.663 86.2615 190.767 86.2615C190.5 86.2615 190.157 86.2615 189.737 86.2615C189.318 86.2615 188.865 86.2475 188.379 86.2195C187.893 86.1914 187.392 86.1494 186.877 86.0933C186.363 86.0372 185.886 85.9531 185.448 85.841V66.5005C186.077 66.3883 186.854 66.2903 187.778 66.2061C188.703 66.122 189.623 66.08 190.538 66.08C191.377 66.08 192.182 66.1454 192.955 66.2762C193.727 66.407 194.404 66.6499 194.985 67.0049C195.567 67.36 196.029 67.8505 196.372 68.4765C196.715 69.1025 196.887 69.9107 196.887 70.901L196.887 70.9013ZM190.853 83.2063C191.653 83.2063 192.311 82.9541 192.826 82.4495C193.341 81.9451 193.598 81.2069 193.598 80.2353C193.598 79.6185 193.512 79.1281 193.341 78.7637C193.169 78.3993 192.94 78.119 192.654 77.9228C192.368 77.7266 192.039 77.6004 191.668 77.5443C191.296 77.4883 190.91 77.4603 190.509 77.4603H189.051V83.0381C189.203 83.0942 189.465 83.1362 189.837 83.1643C190.209 83.1924 190.547 83.2063 190.853 83.2063H190.853ZM189.88 74.6853C190.09 74.6853 190.333 74.6713 190.609 74.6432C190.886 74.6152 191.11 74.5825 191.282 74.5451C191.834 74.3396 192.306 74.0032 192.697 73.5361C193.088 73.069 193.283 72.4616 193.283 71.7141C193.283 71.2283 193.217 70.8172 193.083 70.4808C192.95 70.1444 192.769 69.8782 192.54 69.682C192.311 69.4858 192.039 69.3456 191.725 69.2615C191.41 69.1773 191.072 69.1353 190.71 69.1353C189.928 69.1353 189.375 69.1727 189.051 69.2475V74.6852H189.88V74.6853ZM169.175 76.1709C169.175 72.8448 169.756 70.3127 170.919 68.5749C172.082 66.837 173.855 65.9681 176.239 65.9681C177.478 65.9681 178.546 66.2063 179.442 66.6828C180.338 67.1593 181.072 67.8414 181.644 68.729C182.216 69.6166 182.64 70.6911 182.916 71.9525C183.193 73.2138 183.331 74.62 183.331 76.1709C183.331 79.4971 182.735 82.0291 181.544 83.767C180.352 85.5048 178.584 86.3737 176.239 86.3737C174.98 86.3737 173.908 86.1355 173.021 85.659C172.135 85.1826 171.406 84.5004 170.834 83.6128C170.262 82.7252 169.842 81.6508 169.575 80.3894C169.308 79.128 169.175 77.7219 169.175 76.1709ZM172.95 76.1709C172.95 77.1613 173.007 78.0816 173.121 78.9319C173.236 79.782 173.426 80.5155 173.693 81.1321C173.96 81.7488 174.299 82.2346 174.709 82.5897C175.119 82.9447 175.629 83.1223 176.239 83.1223C177.344 83.1223 178.174 82.571 178.727 81.4685C179.28 80.366 179.556 78.6001 179.556 76.1709C179.556 75.2179 179.499 74.3163 179.385 73.466C179.27 72.6158 179.084 71.8777 178.827 71.2516C178.569 70.6257 178.231 70.1305 177.812 69.7661C177.392 69.4016 176.868 69.2195 176.239 69.2195C174.046 69.2195 172.95 71.5367 172.95 76.1709H172.95ZM158.708 77.2079V74.3489H159.394C159.68 74.3489 160.033 74.3396 160.452 74.3209C160.872 74.3022 161.205 74.2461 161.453 74.1527C161.968 74.0033 162.407 73.7231 162.769 73.3119C163.131 72.9007 163.312 72.3682 163.312 71.7142C163.312 70.7985 163.088 70.1632 162.64 69.8082C162.192 69.4532 161.568 69.2756 160.767 69.2756C160.119 69.2756 159.513 69.3738 158.951 69.57C158.388 69.7662 157.945 69.9671 157.621 70.1727L156.706 67.1174C156.896 67.0053 157.163 66.8839 157.507 66.753C157.85 66.6222 158.236 66.5007 158.665 66.3886C159.094 66.2764 159.551 66.1877 160.038 66.1223C160.524 66.0569 161.015 66.0242 161.51 66.0242C162.235 66.0242 162.935 66.0943 163.612 66.2344C164.289 66.3745 164.885 66.6269 165.4 66.9911C165.915 67.3555 166.324 67.8554 166.629 68.4907C166.935 69.1261 167.087 69.939 167.087 70.9293C167.087 71.8823 166.882 72.77 166.472 73.5922C166.062 74.4143 165.4 75.0217 164.485 75.4142V75.5822C165.476 75.8439 166.243 76.3671 166.787 77.1519C167.33 77.9367 167.602 79.0019 167.602 80.3473C167.602 81.4124 167.425 82.3281 167.073 83.0942C166.72 83.8603 166.243 84.4863 165.643 84.9722C165.042 85.458 164.351 85.813 163.569 86.0373C162.788 86.2615 161.977 86.3737 161.138 86.3737C160.109 86.3737 159.165 86.2849 158.307 86.1074C157.449 85.9299 156.763 85.6916 156.248 85.3926L157.192 82.2534C157.554 82.4588 158.055 82.6551 158.693 82.8419C159.332 83.0288 160.08 83.1223 160.938 83.1223C161.72 83.1223 162.397 82.8746 162.969 82.3795C163.541 81.8843 163.827 81.1041 163.827 80.039C163.827 79.1234 163.565 78.4367 163.04 77.9788C162.516 77.521 161.596 77.2733 160.281 77.2361C160.071 77.2361 159.928 77.2314 159.852 77.222C159.775 77.2126 159.613 77.2079 159.365 77.2079H158.708H158.708ZM150.958 81.4966H146.239L145.066 85.9813H141.491L147.297 66.2203H150.128L155.962 85.9813H152.187L150.958 81.4966H150.958ZM147.011 78.6375H150.329L149.185 74.0687L148.727 70.9854H148.613L148.126 74.0967L147.011 78.6375H147.011ZM131.082 66.5567C131.768 66.4072 132.521 66.2904 133.341 66.2062C134.161 66.1221 134.981 66.0801 135.8 66.0801C136.677 66.0801 137.54 66.1595 138.389 66.3183C139.237 66.4771 139.995 66.7901 140.662 67.2573C141.329 67.7245 141.873 68.3832 142.292 69.2334C142.712 70.0836 142.921 71.1908 142.921 72.5549C142.921 73.7883 142.745 74.8347 142.392 75.6943C142.04 76.5539 141.568 77.2546 140.977 77.7965C140.386 78.3384 139.704 78.7309 138.932 78.9738C138.16 79.2167 137.364 79.3382 136.544 79.3382C136.468 79.3382 136.344 79.3382 136.172 79.3382C136.001 79.3382 135.819 79.3335 135.629 79.3242C135.438 79.3149 135.252 79.3008 135.071 79.2821C134.89 79.2634 134.761 79.2448 134.685 79.226V85.9812H131.082V66.5566L131.082 66.5567ZM134.685 76.0588C134.799 76.0962 135.014 76.1289 135.329 76.1569C135.643 76.1849 135.858 76.1989 135.972 76.1989C136.392 76.1989 136.792 76.1429 137.173 76.0308C137.555 75.9186 137.893 75.7271 138.188 75.4562C138.484 75.1853 138.718 74.8115 138.889 74.335C139.061 73.8585 139.147 73.2559 139.147 72.527C139.147 71.9104 139.066 71.3872 138.904 70.9574C138.742 70.5277 138.522 70.1866 138.246 69.9344C137.969 69.6822 137.65 69.4999 137.288 69.3878C136.925 69.2757 136.544 69.2197 136.144 69.2197C135.553 69.2197 135.066 69.2664 134.685 69.3599V76.059L134.685 76.0588ZM117.469 66.3605H127.964V69.612H121.072V73.8725C121.358 73.8164 121.701 73.7603 122.102 73.7043C122.502 73.6483 122.893 73.6202 123.274 73.6202C124.189 73.6202 125.009 73.7277 125.734 73.9426C126.458 74.1574 127.078 74.5032 127.593 74.9796C128.107 75.4561 128.503 76.0774 128.78 76.8436C129.056 77.6097 129.194 78.544 129.194 79.6466C129.194 81.8515 128.632 83.5053 127.507 84.6078C126.382 85.7103 124.714 86.2615 122.502 86.2615C122.235 86.2615 121.892 86.2523 121.473 86.2335C121.053 86.2149 120.605 86.1915 120.129 86.1634C119.652 86.1354 119.18 86.0934 118.713 86.0373C118.246 85.9812 117.831 85.9064 117.469 85.813V66.3604L117.469 66.3605ZM122.76 83.1223C123.56 83.1223 124.204 82.8793 124.69 82.3935C125.176 81.9077 125.419 81.0855 125.419 79.9269C125.419 79.2355 125.343 78.6842 125.19 78.2732C125.038 77.862 124.833 77.5444 124.575 77.3201C124.318 77.0959 124.013 76.9464 123.66 76.8717C123.308 76.7969 122.922 76.7595 122.502 76.7595C122.292 76.7595 122.03 76.783 121.716 76.8296C121.401 76.8764 121.187 76.9184 121.072 76.9558V82.9822C121.244 83.0196 121.492 83.0523 121.816 83.0803C122.14 83.1084 122.454 83.1224 122.759 83.1224L122.76 83.1223ZM101.196 76.1708C101.196 72.8447 101.778 70.3126 102.941 68.5748C104.104 66.8369 105.877 65.968 108.26 65.968C109.499 65.968 110.567 66.2062 111.463 66.6827C112.359 67.1592 113.093 67.8413 113.665 68.7289C114.237 69.6166 114.661 70.691 114.938 71.9524C115.214 73.2137 115.353 74.6199 115.353 76.1708C115.353 79.497 114.757 82.029 113.565 83.7669C112.374 85.5048 110.605 86.3737 108.26 86.3737C107.002 86.3737 105.929 86.1354 105.043 85.6589C104.156 85.1825 103.427 84.5003 102.855 83.6128C102.283 82.7251 101.864 81.6507 101.597 80.3893C101.33 79.128 101.196 77.7218 101.196 76.1708ZM104.971 76.1708C104.971 77.1613 105.028 78.0815 105.143 78.9318C105.257 79.7819 105.448 80.5154 105.715 81.132C105.982 81.7487 106.32 82.2345 106.73 82.5896C107.14 82.9446 107.65 83.1222 108.26 83.1222C109.366 83.1222 110.195 82.5709 110.748 81.4685C111.301 80.3659 111.577 78.6001 111.577 76.1708C111.577 75.2178 111.52 74.3162 111.406 73.4659C111.291 72.6157 111.106 71.8776 110.848 71.2515C110.591 70.6256 110.252 70.1304 109.833 69.766C109.413 69.4016 108.889 69.2194 108.26 69.2194C106.067 69.2194 104.971 71.5366 104.971 76.1708H104.971ZM218.765 58.053H215.162V50.2326L213.617 50.7652L210.443 58.0529H206.296L209.556 51.3818L210.986 50.2606C209.976 49.9803 209.137 49.3683 208.469 48.4246C207.802 47.4809 207.468 46.1588 207.468 44.4584C207.468 43.2624 207.64 42.2627 207.983 41.4593C208.326 40.6557 208.813 40.011 209.442 39.5252C210.071 39.0394 210.824 38.689 211.701 38.4741C212.578 38.2592 213.541 38.1517 214.589 38.1517C214.837 38.1517 215.147 38.1611 215.519 38.1798C215.891 38.1985 216.267 38.2265 216.649 38.2639C217.03 38.3013 217.406 38.3527 217.778 38.418C218.15 38.4835 218.479 38.5536 218.765 38.6283V58.0529L218.765 58.053ZM215.162 41.5434C214.99 41.4874 214.818 41.45 214.647 41.4313C214.475 41.4126 214.265 41.4032 214.018 41.4032C213.636 41.4032 213.274 41.4547 212.931 41.5574C212.588 41.6602 212.292 41.8377 212.044 42.0899C211.796 42.3422 211.601 42.6739 211.458 43.085C211.315 43.4962 211.244 44.01 211.244 44.6267C211.244 45.8039 211.506 46.6495 212.03 47.1633C212.554 47.6773 213.236 47.9342 214.075 47.9342H215.162V41.5434V41.5434ZM201.263 47.5979L201.549 44.8229H201.406L200.319 47.7941L194.628 58.0531H191.797V38.4323H195.4V48.6912L195.085 51.5502H195.228L196.372 48.495L202.063 38.4323H204.866V58.0531H201.263V47.598V47.5979ZM185.619 47.9343L186.02 44.1782H185.877L184.819 47.5418L181.558 54.4371H180.357L176.897 47.5138L175.839 44.1222H175.667L176.21 47.9063V58.053H172.807V38.4322H176.268L180.443 46.9252L181.129 49.3637H181.244L181.902 46.8691L185.82 38.4322H189.223V58.053H185.619V47.9342L185.619 47.9343ZM160.51 38.4322H170.519V41.6837H164.113V46.5048H169.919V49.7562H164.113V54.8016H170.634V58.0531H160.51V38.4323L160.51 38.4322ZM158.822 61.5567H156.277L155.934 58.053H145.638L145.295 61.5567H142.75V58.053H139.718L138.489 53.5682H133.77L132.597 58.053H129.308H129.023H124.904L120.357 49.644H119.585V58.053H115.982V38.4322H119.585V47.1214L120.3 46.785L124.504 38.4322H128.565L123.989 46.6822L122.645 47.7147L124.018 48.7844L129.12 57.7223L134.828 38.292H137.659L142.75 55.5346V54.8016H144.494C144.609 54.596 144.785 54.1289 145.024 53.4001C145.262 52.6713 145.505 51.6435 145.753 50.3169C146.001 48.9901 146.206 47.3456 146.368 45.3835C146.53 43.4215 146.601 41.1044 146.582 38.4322H156.763V54.8016H158.822V61.5567H158.822ZM153.16 54.8016V41.6837H149.985C149.89 44.9911 149.666 47.7661 149.313 50.0085C148.961 52.2508 148.603 53.8486 148.241 54.8016H153.16ZM134.542 50.7092H137.86L136.716 46.1403L136.258 43.0571H136.144L135.658 46.1684L134.542 50.7092H134.542ZM109.747 53.5682H105.028L103.856 58.053H100.281L106.086 38.292H108.918L114.752 58.053H110.977L109.747 53.5682H109.747ZM105.8 50.7092H109.118L107.974 46.1403L107.517 43.0571H107.402L106.916 46.1684L105.801 50.7092H105.8ZM240.643 30.1247H237.039V22.3043L235.495 22.8369L232.321 30.1246H228.174L231.434 23.4535L232.864 22.3322C231.854 22.052 231.015 21.44 230.347 20.4963C229.68 19.5526 229.346 18.2305 229.346 16.5301C229.346 15.3341 229.518 14.3344 229.861 13.531C230.204 12.7274 230.691 12.0827 231.32 11.5969C231.949 11.1111 232.702 10.7607 233.579 10.5458C234.456 10.3309 235.419 10.2234 236.467 10.2234C236.715 10.2234 237.025 10.2328 237.397 10.2515C237.769 10.2702 238.145 10.2982 238.527 10.3356C238.908 10.373 239.284 10.4244 239.656 10.4897C240.028 10.5551 240.357 10.6253 240.643 10.7V30.1246L240.643 30.1247ZM237.039 13.6151C236.868 13.5591 236.696 13.5217 236.525 13.503C236.353 13.4843 236.143 13.4749 235.896 13.4749C235.514 13.4749 235.152 13.5264 234.809 13.6291C234.466 13.7319 234.17 13.9094 233.922 14.1616C233.674 14.4139 233.479 14.7455 233.336 15.1567C233.193 15.5679 233.122 16.0817 233.122 16.6984C233.122 17.8756 233.384 18.7212 233.908 19.235C234.432 19.749 235.114 20.0059 235.953 20.0059H237.039V13.615V13.6151ZM223.083 25.6399H218.365L217.192 30.1247H213.903H213.617H209.499L204.952 21.7157H204.18V30.1247H200.576V10.5039H204.18V19.1931L204.895 18.8567L209.099 10.5039H213.16L208.584 18.7539L207.24 19.7864L208.613 20.8561L213.715 29.7939L219.423 10.3636H222.254L228.088 30.1247H224.313L223.083 25.6399ZM219.137 22.7809H222.454L221.31 18.212L220.853 15.1288H220.738L220.252 18.2401L219.137 22.7809H219.137ZM198.86 29.3398C198.365 29.7509 197.702 30.0499 196.873 30.2368C196.043 30.4237 195.219 30.5171 194.399 30.5171C193.37 30.5171 192.412 30.3443 191.525 29.9986C190.638 29.6528 189.861 29.0782 189.194 28.2747C188.527 27.4713 188.002 26.4155 187.621 25.1074C187.24 23.7993 187.049 22.1923 187.049 20.2862C187.049 18.3055 187.264 16.6611 187.693 15.353C188.122 14.045 188.684 13.0031 189.38 12.2277C190.076 11.4522 190.872 10.9056 191.768 10.5879C192.664 10.2703 193.57 10.1115 194.485 10.1115C195.419 10.1115 196.234 10.1862 196.93 10.3357C197.626 10.4851 198.193 10.6534 198.632 10.8402L197.917 13.9515C197.554 13.7647 197.13 13.6198 196.644 13.5171C196.158 13.4143 195.581 13.363 194.914 13.363C193.598 13.363 192.588 13.9236 191.882 15.0447C191.177 16.1659 190.824 17.9225 190.824 20.3143C190.824 21.3421 190.905 22.2811 191.067 23.1314C191.229 23.9816 191.487 24.715 191.839 25.3316C192.192 25.9483 192.64 26.4248 193.184 26.7612C193.727 27.0976 194.38 27.2657 195.142 27.2657C195.81 27.2657 196.382 27.177 196.858 26.9994C197.335 26.8219 197.764 26.6117 198.145 26.3687L198.86 29.3399V29.3398ZM181.329 19.6696L181.615 16.8946H181.472L180.386 19.8658L174.695 30.1247H171.863V10.5039H175.467V20.7628L175.152 23.6219H175.295L176.439 20.5667L182.13 10.5039H184.933V30.1247H181.329V19.6697V19.6696ZM177.211 5.62669C177.326 6.76648 177.86 7.33647 178.813 7.33647C179.766 7.33647 180.3 6.77585 180.414 5.65472L183.331 6.0752C183.179 7.28978 182.712 8.16805 181.93 8.71001C181.148 9.25188 180.1 9.52286 178.784 9.52286C178.117 9.52286 177.507 9.4668 176.954 9.3547C176.401 9.24251 175.915 9.05569 175.495 8.79409C175.076 8.53248 174.733 8.18679 174.466 7.75703C174.199 7.32726 174.027 6.78531 173.951 6.13133L177.211 5.62686V5.62669ZM165.686 19.6696L165.972 16.8946H165.829L164.742 19.8658L159.051 30.1247H156.22V10.5039H159.823V20.7628L159.509 23.6219H159.652L160.796 20.5667L166.487 10.5039H169.29V30.1247H165.686V19.6697V19.6696ZM154.504 29.3398C154.008 29.7509 153.346 30.0499 152.516 30.2368C151.687 30.4237 150.862 30.5171 150.043 30.5171C149.013 30.5171 148.055 30.3443 147.168 29.9986C146.282 29.6528 145.505 29.0782 144.838 28.2747C144.17 27.4713 143.646 26.4155 143.265 25.1074C142.883 23.7993 142.693 22.1923 142.693 20.2862C142.693 18.3055 142.907 16.6611 143.336 15.353C143.765 14.045 144.328 13.0031 145.024 12.2277C145.719 11.4522 146.515 10.9056 147.412 10.5879C148.308 10.2703 149.213 10.1115 150.128 10.1115C151.063 10.1115 151.878 10.1862 152.574 10.3357C153.27 10.4851 153.837 10.6534 154.275 10.8402L153.56 13.9515C153.198 13.7647 152.774 13.6198 152.288 13.5171C151.801 13.4143 151.225 13.363 150.557 13.363C149.242 13.363 148.231 13.9236 147.526 15.0447C146.82 16.1659 146.468 17.9225 146.468 20.3143C146.468 21.3421 146.549 22.2811 146.711 23.1314C146.873 23.9816 147.13 24.715 147.483 25.3316C147.836 25.9483 148.284 26.4248 148.827 26.7612C149.37 27.0976 150.023 27.2657 150.786 27.2657C151.453 27.2657 152.025 27.177 152.502 26.9994C152.979 26.8219 153.408 26.6117 153.789 26.3687L154.504 29.3399V29.3398ZM142.235 29.3398C141.739 29.7509 141.077 30.0499 140.247 30.2368C139.418 30.4237 138.594 30.5171 137.774 30.5171C136.744 30.5171 135.786 30.3443 134.9 29.9986C134.013 29.6528 133.236 29.0782 132.569 28.2747C131.902 27.4713 131.377 26.4155 130.996 25.1074C130.615 23.7993 130.424 22.1923 130.424 20.2862C130.424 18.3055 130.638 16.6611 131.067 15.353C131.496 14.045 132.059 13.0031 132.755 12.2277C133.451 11.4522 134.247 10.9056 135.143 10.5879C136.039 10.2703 136.944 10.1115 137.86 10.1115C138.794 10.1115 139.609 10.1862 140.305 10.3357C141.001 10.4851 141.568 10.6534 142.006 10.8402L141.291 13.9515C140.929 13.7647 140.505 13.6198 140.019 13.5171C139.533 13.4143 138.956 13.363 138.289 13.363C136.973 13.363 135.963 13.9236 135.257 15.0447C134.552 16.1659 134.199 17.9225 134.199 20.3143C134.199 21.3421 134.28 22.2811 134.442 23.1314C134.604 23.9816 134.861 24.715 135.214 25.3316C135.567 25.9483 136.015 26.4248 136.558 26.7612C137.102 27.0976 137.755 27.2657 138.517 27.2657C139.185 27.2657 139.757 27.177 140.233 26.9994C140.71 26.8219 141.139 26.6117 141.52 26.3687L142.235 29.3399V29.3398ZM114.609 20.3143C114.609 16.9882 115.19 14.4561 116.353 12.7183C117.516 10.9804 119.29 10.1115 121.673 10.1115C122.912 10.1115 123.98 10.3497 124.876 10.8262C125.772 11.3027 126.506 11.9847 127.078 12.8724C127.65 13.76 128.074 14.8345 128.35 16.0958C128.627 17.3572 128.765 18.7634 128.765 20.3143C128.765 23.6404 128.169 26.1724 126.978 27.9103C125.786 29.6482 124.018 30.5171 121.673 30.5171C120.414 30.5171 119.342 30.2788 118.455 29.8024C117.569 29.3259 116.84 28.6438 116.268 27.7562C115.696 26.8686 115.276 25.7941 115.009 24.5328C114.742 23.2714 114.609 21.8652 114.609 20.3143ZM118.384 20.3143C118.384 21.3047 118.441 22.225 118.555 23.0752C118.67 23.9254 118.861 24.6588 119.127 25.2755C119.394 25.8922 119.733 26.378 120.143 26.733C120.553 27.0881 121.063 27.2656 121.673 27.2656C122.779 27.2656 123.608 26.7144 124.161 25.6119C124.714 24.5093 124.99 22.7435 124.99 20.3143C124.99 19.3613 124.933 18.4597 124.819 17.6093C124.704 16.7592 124.518 16.021 124.261 15.395C124.004 14.7691 123.665 14.2739 123.246 13.9094C122.826 13.545 122.302 13.3629 121.673 13.3629C119.48 13.3629 118.384 15.68 118.384 20.3143H118.384ZM105.257 20.2022C105.372 20.2396 105.586 20.2723 105.901 20.3003C106.215 20.3283 106.43 20.3423 106.544 20.3423C106.964 20.3423 107.364 20.2862 107.745 20.1742C108.127 20.062 108.465 19.8705 108.761 19.5995C109.056 19.3287 109.29 18.9549 109.461 18.4784C109.633 18.0019 109.719 17.3993 109.719 16.6704C109.719 16.0538 109.638 15.5305 109.476 15.1008C109.314 14.6711 109.094 14.33 108.818 14.0778C108.541 13.8255 108.222 13.6433 107.86 13.5312C107.497 13.419 107.116 13.3631 106.716 13.3631C106.125 13.3631 105.639 13.4097 105.257 13.5033V20.2024L105.257 20.2022Z" fill="white"/>
</svg>
