<svg width="90" height="75" viewBox="0 0 90 75" fill="none" xmlns="http://www.w3.org/2000/svg">
<path fill-rule="evenodd" clip-rule="evenodd" d="M14.4732 17.7595L0.57312 27.1352C0.214873 27.3768 0 27.7808 0 28.213V45.2373C0 45.9552 0.582089 46.5373 1.30005 46.5373C1.55915 46.5373 1.81224 46.4599 2.02704 46.315L15.927 36.9393C16.2854 36.6976 16.5 36.2938 16.5 35.8616V18.8373C16.5 18.1193 15.918 17.5373 15.2001 17.5373C14.941 17.5373 14.6879 17.6147 14.4732 17.7595ZM21.5001 13.7109V73.6999C21.5001 74.4179 22.0821 74.9999 22.8001 74.9999C23.0591 74.9999 23.3123 74.9225 23.527 74.7777L41.927 62.3667C42.2852 62.125 42.5 61.7211 42.5 61.289V1.29999C42.5 0.582039 41.918 0 41.2 0C40.941 0 40.6878 0.0774424 40.4731 0.22229L22.0731 12.6332C21.7149 12.8748 21.5001 13.2788 21.5001 13.7109ZM47.5 13.7109V73.6999C47.5 74.4179 48.0821 74.9999 48.8 74.9999C49.0591 74.9999 49.3122 74.9225 49.5269 74.7777L67.9269 62.3667C68.2852 62.125 68.5 61.7211 68.5 61.289V1.29999C68.5 0.582039 67.918 0 67.2 0C66.941 0 66.6877 0.0774424 66.473 0.22229L48.073 12.6332C47.7148 12.8748 47.5 13.2788 47.5 13.7109ZM87.973 17.7595L74.073 27.1352C73.7147 27.3768 73.4999 27.7808 73.4999 28.213V45.2373C73.4999 45.9552 74.082 46.5373 74.8 46.5373C75.059 46.5373 75.3122 46.4599 75.5269 46.315L89.4269 36.9393C89.7852 36.6976 90 36.2938 90 35.8616V18.8373C90 18.1193 89.418 17.5373 88.7 17.5373C88.4409 17.5373 88.1878 17.6147 87.973 17.7595Z" fill="url(#paint0_linear_1296_478)"/>
<defs>
<linearGradient id="paint0_linear_1296_478" x1="0" y1="0" x2="73.7704" y2="88.5246" gradientUnits="userSpaceOnUse">
<stop stop-color="#C800C8"/>
<stop offset="1" stop-color="#9600FF"/>
<stop offset="1" stop-color="#9600FF"/>
</linearGradient>
</defs>
</svg>
