<svg width="256" height="79" viewBox="0 0 256 79" fill="none" xmlns="http://www.w3.org/2000/svg">
<path fill-rule="evenodd" clip-rule="evenodd" d="M107.879 78.9648H109.729V9.1442H107.879V78.9648ZM31.3717 19.8364L22.9365 8.56508L21.6942 9.54216L30.1295 20.8141L31.3717 19.8364ZM73.6349 70.5082L79.501 45.9156C80.2165 45.8395 81.369 45.9471 81.573 46.727C80.1204 51.3761 74.1444 70.4536 73.6349 70.5081V70.5082ZM47.139 65.7836L46.3868 59.9931L48.1885 60.5349L49.5139 65.5891C48.7216 65.5941 47.9298 65.6535 47.139 65.7835V65.7836ZM41.793 67.9421L41.7862 67.9415V58.6089L44.802 59.5162L45.6496 66.1174C44.361 66.4859 43.0751 67.0703 41.793 67.9421ZM52.1163 61.7174L53.8294 65.9997C52.9149 65.841 52.0004 65.7145 51.0864 65.6454L49.8826 61.0449L52.1162 61.7174H52.1163ZM2.3528 45.6219C2.55766 44.8426 3.70974 44.7351 4.42521 44.8106L10.2907 69.4038C9.78137 69.3493 3.80577 50.2716 2.3528 45.622V45.6219ZM83.5495 46.8249C82.9151 45.7202 81.4233 44.6238 81.3906 44.3936C80.9781 41.5243 82.0955 38.855 83.1891 36.2897C83.9147 33.9158 82.0571 33.2892 80.7721 32.7593V32.7658C78.1044 43.0032 73.5807 61.0308 72.7998 66.7295C72.5339 66.8581 72.2752 66.9784 72.0208 67.0951C72.3205 66.6113 72.6177 66.0856 72.969 65.5086C67.2009 69.4319 61.3645 67.5369 55.5358 66.3281L55.6565 66.3493L54.0129 62.2873L58.0071 63.2186C60.9225 63.7327 63.7051 64.2188 65.9852 63.395C68.1749 62.6043 68.357 61.417 67.8607 60.3487C67.4736 59.3013 66.2106 58.3133 65.6185 57.8316L48.6899 43.9427L48.6851 43.9356L43.0768 44.9329C43.6299 42.7565 44.2615 40.5977 44.7388 38.4024C44.9389 37.4798 44.7113 36.7167 44.3226 35.8836C43.4606 34.0374 41.9746 33.07 40.2451 32.1074C37.3428 30.4892 35.4931 35.5764 37.7527 37.1433C40.3989 38.9777 39.25 41.0778 38.3765 43.5431C38.1705 44.2068 37.503 46.7899 36.9483 46.9525C33.6261 47.9271 31.532 48.4431 28.3696 49.2472L28.7071 48.9011C28.4911 48.6608 28.2796 48.4151 28.0765 48.1628L17.7619 56.2769L16.848 55.0557L27.1693 46.9345C26.9865 46.667 26.8099 46.3948 26.6414 46.1178L18.5733 50.8938L17.8226 49.5596L25.9003 44.7775C25.7543 44.4886 25.6163 44.1948 25.4855 43.8972L13.4443 49.0107L12.8695 47.5876L24.9229 42.4685C24.817 42.1627 24.7191 41.8538 24.629 41.5416L9.22406 45.7736L8.83517 44.2861L24.2581 40.0486C24.1938 39.733 24.1369 39.4155 24.0879 39.0942L11.1079 40.8464L10.9114 39.3193L23.9231 37.5628C23.9004 37.2435 23.8852 36.9227 23.8783 36.5997H14.4357V35.059H23.9035C23.9289 34.6121 24.0001 34.0045 24.0643 33.52C24.4003 33.6644 24.7461 33.8056 25.1062 33.9437C30.917 36.169 31.6829 36.3413 37.4131 38.1217C36.0107 36.1333 36.0107 36.0124 34.0252 35.4523C33.836 34.4161 33.7849 33.6093 33.8783 32.9167C34.8597 30.6076 36.1187 28.8056 39.051 30.0351C40.6341 30.6978 40.7662 31.4237 40.9165 31.5896L42.1386 32.3847L41.5703 30.8738C41.1162 30.0059 39.8165 28.6457 38.8434 28.3561C38.7838 28.3384 38.6933 28.3243 38.5805 28.3124L37.1439 27.0296C34.5432 24.002 31.3522 21.0927 27.6944 19.7046L27.7303 19.7413L27.7006 19.7299L17.4806 9.23207L16.3732 10.368L24.7396 18.9648C24.3379 18.9113 23.9319 18.8746 23.5206 18.8624C23.4837 18.8613 23.4457 18.8617 23.4082 18.8613C23.2503 18.8581 23.0912 18.8596 22.9316 18.8629C22.7757 18.8673 22.6197 18.8733 22.4627 18.884C22.438 18.885 22.4131 18.8872 22.3885 18.8889C22.2789 18.897 22.1678 18.9105 22.0571 18.9212L22.0521 18.9217L16.6759 14.6879L15.7222 15.9615L19.9854 19.3198C19.9352 19.3339 19.8852 19.345 19.835 19.3599C19.1558 19.5608 18.541 19.8698 18.0085 20.2657L18.008 20.2661L7.47191 14.028L6.68858 15.4189L16.854 21.4376C16.349 22.1365 16.0161 22.9541 15.9017 23.8469L15.9008 23.854L12.1736 22.2636L11.5742 23.7474L15.9571 25.6166C16.112 26.4476 16.4501 27.3082 16.9979 28.1676L7.77399 25.6387L7.36888 27.1901L18.884 30.3482L18.8923 30.3557C19.1781 30.6119 19.4862 30.8651 19.817 31.1149C19.4407 31.1315 19.0142 31.1414 18.8739 31.1304C15.4607 30.924 3.04471 28.9249 4.43716 33.135C1.50288 35.4283 2.3341 39.003 2.50337 42.7729L0.883866 44.0525C0.0326722 44.7293 -0.0665143 45.673 0.030026 46.7398C2.23577 50.5657 10.0162 77.239 11.8057 78.6958C14.1032 80.5652 32.816 73.1765 37.6148 73.9349C41.0458 77.2135 44.1188 77.2627 48.3806 74.0369C52.1325 74.4939 71.567 80.3669 73.6348 78.5456C77.7835 69.8151 77.3157 61.9003 83.5036 48.9571C83.8581 48.2155 83.9761 47.5673 83.5494 46.8246L83.5495 46.8249ZM40.4511 57.8299L39.1152 68.237L37.6254 68.0355L38.9903 57.4061L40.4511 57.83V57.8299ZM37.751 57.0464L34.2705 70.3653L32.8192 69.9666L36.3056 56.627L37.751 57.0464ZM35.0737 56.2696L31.0502 66.2294L29.662 65.6396L33.6184 55.8473L35.0737 56.2696V56.2696ZM32.3251 55.472L29.1278 61.1508L27.8266 60.3807L30.8341 55.0394L32.3251 55.4721V55.472ZM29.4001 54.6233L23.7675 62.1502L22.5754 61.2124L27.8446 54.1718L29.4001 54.6233ZM26.1674 53.6836L18.5341 61.5107L17.4716 60.4212L27.2618 50.383L26.1674 53.6837V53.6836ZM53.9309 60.1723L28.9491 50.8081L37.6488 48.1592C37.7337 48.1333 37.7364 48.0021 37.7785 47.9233C38.5976 46.3978 39.7708 43.9769 40.3492 42.3889C41.0616 40.432 41.474 39.6006 40.3492 37.5632C40.0264 36.9781 38.8463 35.3048 38.162 34.8699C38.3927 33.4564 39.7314 33.8085 40.6354 34.3103C41.7871 35.1637 42.9181 36.4958 43.025 37.9818C43.1579 39.8475 42.3243 44.6786 41.3366 46.48C40.732 47.5813 40.6639 47.7754 39.5138 47.6555C39.3879 47.642 39.0276 47.6559 39.0276 47.7835C39.0276 47.9497 39.1652 48.0412 39.2942 48.1453C40.6159 49.2137 44.9264 49.8829 43.3358 46.9527C43.2916 46.87 43.0914 46.7459 43.1806 46.7166C44.7936 46.1858 46.4416 45.7682 48.0819 45.327L64.7155 58.7194C65.04 58.9711 66.3612 59.8278 66.2668 60.5996C65.8097 64.3483 54.9785 60.5242 53.9311 60.1724L53.9309 60.1723ZM33.728 30.455L33.7248 30.4608L33.7101 30.4884L33.6952 30.517L33.6731 30.5619L33.6679 30.5743L33.641 30.6305L33.6384 30.6376L33.6141 30.6895L33.6121 30.6927C33.5962 30.731 33.5804 30.7677 33.5641 30.8055H33.5635C33.4924 30.9784 33.4317 31.1556 33.3792 31.3371L33.3761 31.3469L33.0351 29.9662C32.3292 29.1192 29.6025 26.8041 27.2018 25.3873C25.5245 24.3978 24.0061 23.8462 23.4494 24.5436C22.7608 26.7831 19.8491 25.0589 20.023 23.3126C20.0693 22.8486 20.3381 22.3842 20.9212 21.9903C21.0582 21.8984 21.2057 21.8093 21.3789 21.7262C21.7605 21.5425 22.1497 21.4129 22.5453 21.3302C23.4688 21.1384 24.4292 21.2199 25.4238 21.571C26.4627 21.9362 27.5394 22.5947 28.6515 23.5317C30.1061 24.7564 31.9394 26.258 33.5109 28.4197C34.4592 27.6246 35.1681 27.4247 36.3819 28.3882C35.2557 28.5126 34.2516 29.4804 33.7542 30.4042L33.7279 30.455H33.728ZM53.1005 16.6361C53.1005 14.2524 52.0975 13.0485 50.0424 13.0485H47.7181V20.2985H50.0424C52.0976 20.2985 53.1005 19.1442 53.1005 16.6361ZM55.1309 16.6361C55.1309 20.2725 53.2954 22.2543 50.0424 22.2543H47.718V28.6509H45.712V11.0921H50.0424C53.2954 11.0921 55.1309 13.0987 55.1309 16.6361ZM57.2606 23.5843V16.1596C57.2606 12.6976 59.1685 10.7666 62.0313 10.7666C64.9678 10.7666 66.7774 12.6226 66.9491 16.0093H64.9678C64.8203 13.7515 63.793 12.6975 62.0071 12.6975C60.3676 12.6975 59.2671 13.8011 59.2671 16.1595V23.5843C59.2671 25.9172 60.4172 27.0202 62.0802 27.0202C63.8909 27.0202 64.8934 25.942 65.0888 23.7343H67.0712C66.8749 27.0709 65.0647 28.9522 62.0802 28.9522C59.194 28.9522 57.2606 27.0451 57.2606 23.5843V23.5843ZM77.25 23.1328V16.5857C77.25 14.1528 76.2228 12.7727 74.2403 12.7727C72.2342 12.7727 71.2069 14.1528 71.2069 16.5857V23.1328C71.2069 25.5911 72.2341 26.9706 74.2403 26.9706C76.2227 26.9706 77.25 25.5911 77.25 23.1328ZM69.1519 23.1328V16.5857C69.1519 12.9979 71.06 10.7661 74.2404 10.7661C77.4207 10.7661 79.3046 12.998 79.3046 16.5857V23.1328C79.3046 26.7448 77.4207 28.9773 74.2404 28.9773C71.0601 28.9773 69.1519 26.7447 69.1519 23.1328ZM60.9466 36.4399L60.906 34.8999L70.4945 34.6331L70.5351 36.1731L60.9466 36.4399ZM60.7866 39.0684L60.9489 37.5365L74.1614 39.0094L73.9986 40.5408L60.7866 39.0684ZM60.1842 41.4806L60.5731 39.9925L76.2008 44.2861L75.812 45.7738L60.1842 41.4806ZM59.3137 43.7963L59.889 42.3729L72.1669 47.5882L71.5927 49.0109L59.3137 43.7963ZM58.1557 45.9759L58.9073 44.6417L67.2136 49.5598L66.463 50.8935L58.1557 45.9759ZM56.7306 47.9819L57.6447 46.7594L68.1889 55.0557L67.2742 56.277L56.7306 47.9819ZM40.7462 16.3049L39.1938 16.5145L37.3846 2.42895L38.9377 2.21934L40.7462 16.3049ZM38.2532 16.7064L36.7402 17.1223L32.3745 0.415896L33.8875 0L38.2532 16.7064ZM35.8321 17.4381L34.3855 18.0528L29.0827 4.92713L30.5303 4.31238L35.8321 17.4381ZM33.5253 18.4872L28.5252 9.60762L27.1687 10.4102L32.1692 19.2897L33.5253 18.4872ZM197.925 74.6204H196.081V61.9419H197.925V74.6204ZM192.488 70.4753C192.488 69.0689 191.519 68.1966 190.172 68.1966H188.162V72.8504H190.172C191.519 72.8504 192.488 71.9301 192.488 70.4753ZM194.38 70.4991C194.38 72.924 192.583 74.6204 190.289 74.6204H186.317V61.9419H188.162V66.427H190.289C192.583 66.427 194.38 68.0749 194.38 70.499L194.38 70.4991ZM181.275 72.8506V63.6383H178.037C178.013 65.1421 177.967 66.6206 177.848 68.1232C177.683 70.1607 177.399 71.7119 176.949 72.8506H181.275ZM173.947 72.8506H174.869C175.554 71.6871 175.886 69.8447 176.027 67.7602C176.17 65.7725 176.24 63.8332 176.263 61.8693H183.12V72.8506H184.514V77.4317H182.718V74.6201H175.744V77.4317H173.947V72.8506H173.947ZM170.797 63.6385H169.024C167.582 63.6385 166.755 64.5108 166.755 66.0141C166.755 67.5902 167.487 68.4631 168.929 68.4631H170.797V63.6385H170.797ZM172.594 61.8694V74.6203H170.797V70.1354H169.165L166.637 74.6203H164.485L167.322 69.9414C165.903 69.5051 164.91 68.0752 164.91 65.966C164.91 63.4694 166.542 61.8694 168.977 61.8694H172.594ZM161.192 66.4995C161.192 64.293 160.317 63.3478 158.828 63.3478C157.527 63.3478 156.534 64.366 156.534 66.4505V70.0631C156.534 71.9055 157.409 73.1171 158.828 73.1171C160.389 73.1171 161.192 72.1966 161.192 70.0631V66.4996V66.4995ZM163.084 66.4995V70.063C163.084 73.1905 161.571 74.9114 159.159 74.9114C158.166 74.9114 157.196 74.4754 156.534 73.6993V78.983H154.714V61.8456H156.109L156.298 63.0329C156.912 62.1843 158 61.5781 159.159 61.5781C161.476 61.5781 163.084 63.324 163.084 66.4995H163.084ZM152.984 63.6385H150.029V74.6203H148.184V63.6385H145.229V61.8694H152.984V63.6385H152.984ZM141.7 69.2869V62.9594C141.7 60.6092 140.707 59.2756 138.792 59.2756C136.853 59.2756 135.861 60.6092 135.861 62.9594V69.2869C135.861 71.6618 136.853 72.9955 138.792 72.9955C140.707 72.9955 141.7 71.6618 141.7 69.2869ZM133.874 69.2869V62.9594C133.874 59.4935 135.718 57.336 138.792 57.336C141.866 57.336 143.686 59.4935 143.686 62.9594V69.2869C143.686 72.7779 141.866 74.9353 138.792 74.9353C135.718 74.9353 133.874 72.7779 133.874 69.2869ZM249.333 41.9295V43.2145H253.99V41.9295C253.99 40.0147 253.116 39.1174 251.626 39.1174C250.184 39.1174 249.333 40.0147 249.333 41.9295ZM256 46.414C255.811 49.105 254.227 50.6319 251.579 50.6319C249.049 50.6319 247.442 48.936 247.442 45.9537V41.9539C247.442 38.996 249.072 37.2999 251.603 37.2999C254.18 37.2999 255.835 38.996 255.835 41.9539V44.7908H249.333V45.9536C249.333 47.8933 250.184 48.7657 251.626 48.7657C253.211 48.7657 253.943 48.0386 254.155 46.414H256H256ZM236.844 37.6146H238.664V43.9171C238.664 44.8873 238.664 45.9535 238.616 47.1175L238.664 47.1661C238.876 46.5833 239.42 45.1783 239.752 44.4022L242.919 37.6146H244.811V50.3654H243.014V44.4994C243.014 43.2387 243.037 41.9057 243.109 40.7422L243.062 40.7174C242.896 41.2747 242.305 42.8746 241.856 43.8447L238.735 50.3655H236.844V37.6147L236.844 37.6146ZM229.368 44.596L228.469 45.6385V50.3659H226.625V37.6145H228.469V43.2386C229.036 42.4387 229.58 41.6382 230.124 40.8874L232.512 37.6145H234.806L230.573 43.0933L235.396 50.366H233.197L229.368 44.5961V44.596ZM216.028 46.0022V41.9058C216.028 38.9721 217.636 37.2998 220.141 37.2998C222.719 37.2998 224.255 38.9721 224.35 41.9058H222.459C222.411 40.0384 221.584 39.1424 220.141 39.1424C218.746 39.1424 217.92 40.0384 217.92 41.9058V46.0022C217.92 47.8933 218.746 48.7657 220.141 48.7657C221.607 48.7657 222.435 47.8933 222.506 46.0022H224.374C224.303 48.9596 222.695 50.6319 220.141 50.6319C217.636 50.6319 216.029 48.9596 216.029 46.0022H216.028ZM207.228 41.9295V43.2145H211.884V41.9295C211.884 40.0147 211.011 39.1174 209.521 39.1174C208.078 39.1174 207.228 40.0147 207.228 41.9295ZM213.894 46.414C213.706 49.105 212.121 50.6319 209.473 50.6319C206.944 50.6319 205.336 48.936 205.336 45.9537V41.9539C205.336 38.996 206.967 37.2999 209.498 37.2999C212.074 37.2999 213.729 38.996 213.729 41.9539V44.7908H207.227V45.9536C207.227 47.8933 208.078 48.7657 209.521 48.7657C211.105 48.7657 211.837 48.0386 212.05 46.414H213.894H213.894ZM202.705 37.6146V50.3654H200.908V45.7358C200.175 46.1237 199.396 46.2208 198.615 46.2208C196.463 46.2208 194.761 44.6209 194.761 41.1537V37.6146H196.558V41.1537C196.558 43.5288 197.504 44.4022 198.781 44.4022C199.466 44.4022 200.222 44.3546 200.908 43.9171V37.6146H202.705ZM192.558 37.6146V50.3654H190.69V44.6927H186.6V50.3654H184.756V37.6146H186.6V42.8994H190.69V37.6146H192.558ZM175.648 41.9295V43.2145H180.305V41.9295C180.305 40.0147 179.431 39.1174 177.941 39.1174C176.499 39.1174 175.648 40.0147 175.648 41.9295ZM182.315 46.414C182.126 49.105 180.542 50.6319 177.894 50.6319C175.365 50.6319 173.757 48.936 173.757 45.9537V41.9539C173.757 38.996 175.387 37.2999 177.918 37.2999C180.495 37.2999 182.15 38.996 182.15 41.9539V44.7908H175.648V45.9536C175.648 47.8933 176.499 48.7657 177.941 48.7657C179.525 48.7657 180.258 48.0386 180.471 46.414H182.315H182.315ZM169.021 48.596V39.3838H165.783C165.759 40.8875 165.712 42.366 165.594 43.8686C165.428 45.9061 165.144 47.4573 164.695 48.596H169.021ZM161.692 48.596H162.615C163.3 47.4326 163.631 45.5901 163.773 43.5056C163.915 41.5179 163.986 39.5787 164.009 37.6147H170.866V48.596H172.26V53.1771H170.464V50.3655H163.489V53.1771H161.692V48.596H161.692ZM161.877 37.6147L157.811 51.6257C157.244 53.6382 156.439 54.9721 154.643 54.9721H153.626V53.129H154.335C155.351 53.129 155.682 52.3534 155.99 51.3108L156.652 49.0573L152.656 37.6147H154.619L157.456 46.2684L159.962 37.6147H161.877H161.877ZM152.11 39.3839H149.153V50.3657H147.31V39.3839H144.354V37.6149H152.109V39.3839H152.11ZM133.874 45.4686V38.2936C133.874 34.9474 135.718 33.0812 138.484 33.0812C141.322 33.0812 143.071 34.8761 143.236 38.1483H141.322C141.18 35.9661 140.187 34.9474 138.46 34.9474C136.877 34.9474 135.814 36.0148 135.814 38.2936V45.4686C135.814 47.7236 136.924 48.7895 138.532 48.7895C140.282 48.7895 141.251 47.7475 141.439 45.615H143.355C143.166 48.8387 141.416 50.6567 138.532 50.6567C135.743 50.6567 133.874 48.8142 133.874 45.4686H133.874ZM230.889 17.675V18.9599H235.545V17.675C235.545 15.7601 234.671 14.8629 233.181 14.8629C231.739 14.8629 230.889 15.7601 230.889 17.675ZM237.555 22.1592C237.366 24.8504 235.782 26.3774 233.135 26.3774C230.605 26.3774 228.997 24.6812 228.997 21.6992V17.6992C228.997 14.7413 230.627 13.0453 233.158 13.0453C235.735 13.0453 237.389 14.7413 237.389 17.6992V20.536H230.889V21.6991C230.889 23.6387 231.739 24.5111 233.181 24.5111C234.766 24.5111 235.498 23.7841 235.71 22.1592H237.555H237.555ZM218.4 13.3601H220.22V19.6626C220.22 20.6327 220.22 21.6989 220.172 22.8629L220.22 22.9116C220.432 22.3287 220.976 20.9239 221.308 20.1476L224.475 13.3601H226.367V26.1109H224.57V20.2448C224.57 18.984 224.593 17.6511 224.665 16.4876L224.618 16.4627C224.452 17.0201 223.861 18.6202 223.412 19.5902L220.291 26.111H218.4V13.3601L218.4 13.3601ZM210.923 20.3415L210.024 21.3841V26.1114H208.18V13.36H210.024V18.9841C210.591 18.1842 211.135 17.3836 211.679 16.6328L214.067 13.36H216.36L212.128 18.8383L216.952 26.1115H214.753L210.923 20.3415V20.3415ZM197.583 21.7476V17.6513C197.583 14.7176 199.191 13.0452 201.697 13.0452C204.274 13.0452 205.81 14.7175 205.906 17.6513H204.014C203.966 15.7838 203.139 14.8878 201.697 14.8878C200.302 14.8878 199.475 15.7838 199.475 17.6513V21.7476C199.475 23.6388 200.302 24.5112 201.697 24.5112C203.162 24.5112 203.99 23.6388 204.062 21.7476H205.929C205.858 24.705 204.25 26.3773 201.697 26.3773C199.191 26.3773 197.584 24.705 197.584 21.7476H197.583ZM188.238 8.51178H189.656C189.727 9.45761 190.153 9.9416 190.98 9.9416C191.831 9.9416 192.257 9.45761 192.304 8.51178H193.746C193.675 10.33 192.635 11.3724 191.004 11.3724C189.349 11.3724 188.308 10.3299 188.238 8.51178H188.238ZM186.985 13.3603H188.805V19.6628C188.805 20.6324 188.805 21.6991 188.758 22.8626L188.805 22.9113C189.017 22.329 189.562 20.9241 189.893 20.1479L193.06 13.3603H194.952V26.111H193.155V20.2451C193.155 18.9844 193.179 17.6513 193.25 16.4878L193.203 16.4629C193.037 17.0204 192.446 18.6203 191.997 19.5904L188.876 26.1111H186.985V13.3604L186.985 13.3603ZM176.079 13.3601H177.899V19.6626C177.899 20.6327 177.899 21.6989 177.852 22.8629L177.899 22.9116C178.112 22.3287 178.656 20.9239 178.987 20.1476L182.155 13.3601H184.046V26.1109H182.25V20.2448C182.25 18.984 182.273 17.6511 182.345 16.4876L182.297 16.4627C182.131 17.0201 181.54 18.6202 181.091 19.5902L177.971 26.111H176.079V13.3601V13.3601ZM165.482 21.7476V17.6513C165.482 14.7176 167.09 13.0452 169.596 13.0452C172.173 13.0452 173.709 14.7175 173.805 17.6513H171.913C171.865 15.7838 171.038 14.8878 169.596 14.8878C168.201 14.8878 167.374 15.7838 167.374 17.6513V21.7476C167.374 23.6388 168.201 24.5112 169.596 24.5112C171.061 24.5112 171.889 23.6388 171.961 21.7476H173.828C173.757 24.705 172.149 26.3773 169.596 26.3773C167.09 26.3773 165.482 24.705 165.482 21.7476H165.482ZM155.192 21.7476V17.6513C155.192 14.7176 156.799 13.0452 159.305 13.0452C161.882 13.0452 163.419 14.7175 163.514 17.6513H161.622C161.575 15.7838 160.748 14.8878 159.305 14.8878C157.91 14.8878 157.083 15.7838 157.083 17.6513V21.7476C157.083 23.6388 157.91 24.5112 159.305 24.5112C160.771 24.5112 161.599 23.6388 161.67 21.7476H163.537C163.466 24.705 161.859 26.3773 159.305 26.3773C156.8 26.3773 155.192 24.705 155.192 21.7476H155.192ZM150.977 21.6749V17.7723C150.977 15.784 150.079 14.9117 148.589 14.9117C147.1 14.9117 146.202 15.784 146.202 17.7723V21.6749C146.202 23.6626 147.1 24.5592 148.589 24.5592C150.079 24.5592 150.977 23.6626 150.977 21.6749ZM144.31 21.6749V17.7723C144.31 14.7177 145.988 13.0449 148.589 13.0449C151.189 13.0449 152.845 14.7177 152.845 17.7723V21.6749C152.845 24.7289 151.189 26.4022 148.589 26.4022C145.988 26.4022 144.31 24.7289 144.31 21.6749ZM141.017 14.4999C141.017 12.1962 140.048 11.0327 138.062 11.0327H135.816V18.0391H138.062C140.048 18.0391 141.017 16.9237 141.017 14.5V14.4999ZM142.98 14.4999C142.98 18.014 141.206 19.9302 138.062 19.9302H135.816V26.111H133.877V9.14158H138.062C141.206 9.14158 142.98 11.0812 142.98 14.4999H142.98Z" fill="white"/>
</svg>
