<svg width="297" height="88" viewBox="0 0 297 88" fill="none" xmlns="http://www.w3.org/2000/svg">
<path d="M68.7873 5.6253L64.8066 22.8674L90.3868 28.7731L94.3675 11.531L68.7873 5.6253Z" fill="#F5F5F5"/>
<path d="M230.942 9.95373L212.253 17.9834L217.666 30.5821L236.355 22.5525L230.942 9.95373Z" fill="#F5F5F5"/>
<path d="M154.267 86.1546C154.336 86.1546 154.365 86.4377 154.331 86.7745C154.296 87.1113 154.214 87.375 154.145 87.3701C154.077 87.3652 154.048 87.0821 154.082 86.7452C154.116 86.4084 154.194 86.1448 154.267 86.1546Z" fill="#263238"/>
<path d="M154.916 81.3999C154.98 81.7997 154.962 82.2083 154.863 82.6008C154.84 83.0064 154.735 83.4032 154.555 83.7675C154.505 82.9615 154.629 82.1543 154.916 81.3999Z" fill="#263238"/>
<path d="M155.873 76.6941C155.913 77.0992 155.868 77.5082 155.741 77.895C155.691 78.2979 155.56 78.6865 155.356 79.0372C155.317 78.6334 155.363 78.2259 155.492 77.8413C155.538 77.4366 155.668 77.0458 155.873 76.6941Z" fill="#263238"/>
<path d="M157.176 72.0811C157.112 72.8888 156.874 73.6731 156.478 74.3803C156.473 73.9734 156.551 73.5698 156.708 73.1941C156.783 72.794 156.943 72.4146 157.176 72.0811Z" fill="#263238"/>
<path d="M158.851 67.5801C158.822 67.9855 158.71 68.3808 158.524 68.7419C158.413 69.1334 158.222 69.4975 157.962 69.811C157.994 69.4106 158.105 69.0206 158.289 68.6638C158.397 68.2667 158.589 67.8972 158.851 67.5801Z" fill="#263238"/>
<path d="M160.93 63.2599C160.719 64.0395 160.346 64.7662 159.837 65.3931C159.902 64.9928 160.05 64.6105 160.271 64.2704C160.574 63.6797 160.867 63.2257 160.93 63.2599Z" fill="#263238"/>
<path d="M163.44 59.1693C163.327 59.5601 163.136 59.9239 162.878 60.2384C162.527 60.7949 162.19 61.2147 162.131 61.1805C162.229 60.7853 162.41 60.4156 162.663 60.0968C163.034 59.5452 163.381 59.1302 163.44 59.1693Z" fill="#263238"/>
<path d="M166.398 55.3909C166.245 55.7675 166.017 56.1094 165.729 56.3965C165.305 56.8847 164.919 57.2801 164.86 57.2362C164.802 57.1922 165.104 56.748 165.534 56.2354C165.964 55.7229 166.344 55.347 166.398 55.3909Z" fill="#263238"/>
<path d="M169.776 51.9884C169.825 52.0421 169.473 52.4522 168.995 52.9062C168.516 53.3602 168.087 53.6872 168.018 53.6384C167.95 53.5896 168.316 53.1795 168.8 52.7207C169.283 52.2618 169.732 51.9347 169.776 51.9884Z" fill="#263238"/>
<path d="M173.555 49.0303C173.594 49.0889 173.193 49.455 172.661 49.8455C172.36 50.1164 172.006 50.3224 171.621 50.4508C171.578 50.3971 171.978 50.031 172.515 49.6405C172.814 49.366 173.169 49.158 173.555 49.0303Z" fill="#263238"/>
<path d="M177.694 46.604C177.078 47.1303 176.358 47.5197 175.58 47.7463C175.546 47.6828 175.99 47.3802 176.556 47.0629C176.898 46.8302 177.286 46.6737 177.694 46.604Z" fill="#263238"/>
<path d="M182.136 44.7979C181.814 45.044 181.445 45.2233 181.052 45.3251C180.686 45.5023 180.287 45.6004 179.881 45.6131C180.202 45.3652 180.571 45.1858 180.965 45.0859C181.33 44.9064 181.729 44.8081 182.136 44.7979Z" fill="#263238"/>
<path d="M186.803 43.7093C186.442 43.8929 186.049 44.0024 185.646 44.0315C185.26 44.1544 184.853 44.196 184.45 44.1535C185.184 43.809 185.993 43.6562 186.803 43.7093Z" fill="#263238"/>
<path d="M191.592 43.4456C191.207 43.5724 190.799 43.6189 190.396 43.5823C189.992 43.6308 189.583 43.5925 189.195 43.47C189.58 43.3419 189.987 43.2937 190.391 43.3285C190.795 43.2814 191.204 43.3213 191.592 43.4456Z" fill="#263238"/>
<path d="M196.366 44.007C195.963 44.0672 195.553 44.044 195.16 43.9387C194.753 43.9161 194.355 43.8079 193.993 43.6214C194.802 43.5827 195.61 43.7141 196.366 44.007Z" fill="#263238"/>
<path d="M200.95 45.379C200.145 45.2807 199.371 45.011 198.68 44.5881C199.086 44.6009 199.486 44.6938 199.856 44.8615C200.253 44.9548 200.626 45.1311 200.95 45.379Z" fill="#263238"/>
<path d="M205.221 47.5561C204.824 47.4687 204.449 47.3027 204.118 47.0679C203.747 46.9015 203.415 46.6606 203.142 46.3601C203.539 46.4445 203.915 46.6108 204.245 46.8483C204.821 47.1851 205.26 47.4975 205.221 47.5561Z" fill="#263238"/>
<path d="M208.98 50.524C208.611 50.358 208.279 50.1208 208.003 49.8259C207.515 49.3963 207.144 48.9961 207.188 48.9424C207.232 48.8887 207.676 49.1962 208.164 49.6355C208.653 50.0749 209.028 50.4752 208.98 50.524Z" fill="#263238"/>
<path d="M211.352 53.2576C211.294 53.2966 211.084 53.116 210.864 52.8524C210.645 52.5888 210.537 52.3398 210.591 52.291C210.645 52.2422 210.854 52.4277 211.079 52.6962C211.304 52.9647 211.411 53.2136 211.352 53.2576Z" fill="#263238"/>
<path d="M233.925 82.6692C233.515 82.6169 233.122 82.4806 232.768 82.2689C232.153 81.9857 231.679 81.7026 231.713 81.6392C232.123 81.6959 232.517 81.8318 232.875 82.0394C233.264 82.1767 233.621 82.3908 233.925 82.6692Z" fill="#263238"/>
<path d="M238.533 84.285C237.714 84.2115 236.919 83.9688 236.199 83.5723C237.018 83.6434 237.813 83.8863 238.533 84.285Z" fill="#263238"/>
<path d="M243.351 85.0415C242.945 85.126 242.526 85.126 242.121 85.0415C241.708 85.039 241.301 84.9509 240.925 84.7828C241.329 84.7016 241.746 84.7016 242.15 84.7828C242.564 84.7872 242.972 84.8752 243.351 85.0415Z" fill="#263238"/>
<path d="M248.223 84.8902C247.839 85.0432 247.429 85.1163 247.017 85.105C246.609 85.1808 246.19 85.1692 245.787 85.0708C246.172 84.92 246.583 84.8454 246.997 84.8511C247.404 84.779 247.821 84.7923 248.223 84.8902Z" fill="#263238"/>
<path d="M253.016 83.992C252.662 84.2036 252.268 84.343 251.86 84.4021C251.464 84.5253 251.047 84.5668 250.634 84.5241C250.996 84.3244 251.395 84.1999 251.806 84.158C252.194 84.0196 252.606 83.963 253.016 83.992Z" fill="#263238"/>
<path d="M257.546 82.1907C257.58 82.2541 257.107 82.5324 256.492 82.8204C256.136 83.031 255.741 83.1641 255.33 83.2109C255.99 82.721 256.745 82.3736 257.546 82.1907Z" fill="#263238"/>
<path d="M261.593 79.4717C261.637 79.5254 261.257 79.9257 260.715 80.3357C260.41 80.6171 260.044 80.8243 259.646 80.941C259.607 80.8824 260.026 80.5359 260.563 80.1356C260.864 79.854 261.213 79.6291 261.593 79.4717Z" fill="#263238"/>
<path d="M264.913 75.9081C264.78 76.3031 264.557 76.6623 264.263 76.9576C263.829 77.48 263.409 77.8412 263.36 77.7924C263.311 77.7436 263.643 77.3042 264.068 76.8161C264.493 76.3279 264.854 75.869 264.913 75.9081Z" fill="#263238"/>
<path d="M267.197 71.5928C267.181 72.0094 267.066 72.4162 266.86 72.779C266.725 73.1728 266.501 73.5302 266.206 73.8237C266.279 73.4184 266.421 73.0288 266.626 72.6716C266.755 72.2829 266.948 71.9183 267.197 71.5928Z" fill="#263238"/>
<path d="M268.125 66.8381C268.242 67.2378 268.26 67.6599 268.178 68.0683C268.178 68.4858 268.074 68.8967 267.876 69.2643C267.826 68.8575 267.842 68.4454 267.924 68.0439C267.924 67.6337 267.992 67.2262 268.125 66.8381Z" fill="#263238"/>
<path d="M267.397 62.0249C267.632 62.3692 267.782 62.7638 267.836 63.177C267.968 63.5713 268.003 63.9915 267.939 64.4022C267.757 64.0359 267.638 63.6415 267.588 63.2355C267.457 62.8454 267.393 62.4362 267.397 62.0249Z" fill="#263238"/>
<path d="M265.274 57.6511C265.328 57.6072 265.699 58.027 266.04 58.6274C266.284 58.9633 266.442 59.3539 266.499 59.7648C266.436 59.799 266.153 59.3304 265.821 58.7543C265.579 58.419 265.394 58.0463 265.274 57.6511Z" fill="#263238"/>
<path d="M261.886 54.1655C262.282 54.2983 262.639 54.5263 262.926 54.8294C263.443 55.2736 263.78 55.713 263.731 55.7618C263.682 55.8106 263.243 55.4543 262.755 55.0198C262.267 54.5853 261.847 54.2241 261.886 54.1655Z" fill="#263238"/>
<path d="M257.458 52.1838C257.876 52.1446 258.296 52.2135 258.679 52.3839C259.086 52.4775 259.463 52.6704 259.777 52.9453C259.37 52.9017 258.973 52.7929 258.601 52.6231C258.2 52.5362 257.814 52.388 257.458 52.1838Z" fill="#263238"/>
<path d="M252.621 52.2666C252.976 52.0451 253.383 51.9221 253.802 51.9103C254.21 51.8171 254.635 51.8306 255.037 51.9493C254.235 52.1312 253.418 52.2374 252.596 52.2666H252.621Z" fill="#263238"/>
<path d="M248.413 54.6195C248.36 54.5756 248.696 54.1313 249.248 53.7066C249.558 53.4222 249.939 53.228 250.351 53.1453C250.385 53.2136 249.927 53.5114 249.375 53.9117C248.823 54.312 248.467 54.6683 248.413 54.6195Z" fill="#263238"/>
<path d="M246.48 59.0033C246.387 58.593 246.413 58.1648 246.553 57.7683C246.61 57.3504 246.788 56.9583 247.066 56.6406C247.022 57.045 246.932 57.4431 246.797 57.8268C246.743 58.2311 246.636 58.6266 246.48 59.0033Z" fill="#263238"/>
<path d="M247.432 63.7335C247.143 63.4307 246.939 63.0569 246.841 62.6498C246.663 62.2693 246.592 61.8473 246.636 61.4294C246.837 61.7861 246.986 62.1689 247.081 62.5668C247.254 62.9366 247.372 63.3297 247.432 63.7335Z" fill="#263238"/>
<path d="M250.625 67.3655C250.224 67.2411 249.863 67.0159 249.575 66.7113C249.058 66.2622 248.74 65.8034 248.794 65.7594C248.848 65.7155 249.243 66.0816 249.741 66.521C250.239 66.9603 250.664 67.3069 250.625 67.3655Z" fill="#263238"/>
<path d="M255.057 69.3521C254.64 69.3746 254.225 69.2959 253.846 69.1227C253.438 69.0314 253.06 68.8383 252.748 68.5613C253.154 68.6049 253.552 68.7137 253.924 68.8835C254.325 68.974 254.708 69.1325 255.057 69.3521Z" fill="#263238"/>
<path d="M259.899 69.8111C259.096 70.0182 258.252 69.9996 257.458 69.7574C257.86 69.6732 258.272 69.6534 258.679 69.6988C259.089 69.6653 259.502 69.7033 259.899 69.8111Z" fill="#263238"/>
<path d="M264.707 68.9226C263.989 69.3347 263.173 69.544 262.345 69.5279C262.705 69.3323 263.096 69.2017 263.502 69.1423C263.889 69.003 264.296 68.9287 264.707 68.9226Z" fill="#263238"/>
<path d="M269.101 66.8967C268.811 67.1911 268.463 67.4236 268.081 67.5801C267.737 67.8091 267.35 67.9653 266.943 68.039C267.576 67.5131 268.311 67.1241 269.101 66.8967Z" fill="#263238"/>
<path d="M273.006 63.9873C273.055 64.041 272.669 64.4315 272.147 64.8611C271.853 65.1521 271.505 65.3826 271.122 65.5396C271.078 65.4811 271.469 65.0905 271.986 64.6658C272.279 64.3763 272.626 64.1459 273.006 63.9873Z" fill="#263238"/>
<path d="M276.35 60.4189C276.404 60.4629 276.092 60.9071 275.652 61.4294C275.213 61.9517 274.813 62.3227 274.764 62.2739C274.715 62.2251 275.023 61.7858 275.457 61.2634C275.892 60.7411 276.292 60.3652 276.35 60.4189Z" fill="#263238"/>
<path d="M279.03 56.3476C278.936 56.7503 278.76 57.1292 278.513 57.4606C278.161 58.0415 277.834 58.4808 277.775 58.4369C277.87 58.0344 278.046 57.6556 278.293 57.3239C278.639 56.7527 278.966 56.3134 279.03 56.3476Z" fill="#263238"/>
<path d="M281.012 51.886C280.982 52.2991 280.871 52.7022 280.685 53.0722C280.577 53.4721 280.38 53.8424 280.109 54.1559C280.151 53.747 280.265 53.3487 280.446 52.9795C280.559 52.5805 280.751 52.2085 281.012 51.886Z" fill="#263238"/>
<path d="M282.374 47.1851C282.399 47.5968 282.337 48.0091 282.193 48.3957C282.13 48.8048 281.983 49.1968 281.764 49.5477C281.798 48.726 282.006 47.9208 282.374 47.1851Z" fill="#263238"/>
<path d="M283.228 42.4011C283.295 42.8091 283.275 43.2267 283.17 43.6264C283.148 44.0384 283.043 44.4418 282.862 44.8126C282.795 44.4046 282.815 43.9871 282.921 43.5873C282.944 43.1755 283.048 42.7723 283.228 42.4011Z" fill="#263238"/>
<path d="M283.677 37.5391C283.791 38.3563 283.729 39.1882 283.497 39.9798C283.405 39.576 283.393 39.158 283.463 38.7497C283.452 38.3358 283.525 37.9241 283.677 37.5391Z" fill="#263238"/>
<path d="M283.834 32.6624C283.954 33.0574 283.988 33.4733 283.936 33.8827C283.973 34.2957 283.921 34.7116 283.785 35.1031C283.672 34.7052 283.637 34.2891 283.682 33.8779C283.652 33.4667 283.703 33.0535 283.834 32.6624Z" fill="#263238"/>
<path d="M283.799 27.7808C283.93 28.1735 283.98 28.5886 283.946 29.0012C283.995 29.4113 283.957 29.8272 283.834 30.2215C283.703 29.8287 283.653 29.4137 283.687 29.0012C283.644 28.5909 283.682 28.1762 283.799 27.7808Z" fill="#263238"/>
<path d="M283.746 24.7786C283.814 24.7786 283.878 24.9006 283.883 25.0568C283.888 25.213 283.834 25.3351 283.761 25.3399C283.687 25.3448 283.629 25.2179 283.629 25.0617C283.629 24.9055 283.658 24.7786 283.746 24.7786Z" fill="#263238"/>
<path d="M294.423 10.2837L261.243 13.8882L263.673 36.2557L296.853 32.6512L294.423 10.2837Z" fill="#EEE8F3"/>
<path d="M263.658 36.2795L261.217 13.9024L294.412 10.2998L296.853 32.6818L263.658 36.2795ZM261.256 13.9122L263.697 36.2551L296.853 32.6525L294.412 10.3096L261.256 13.9122Z" fill="#263238"/>
<path d="M294.558 10.5732C294.476 10.6925 294.383 10.8036 294.28 10.9052L293.445 11.818L290.326 15.1277L279.933 25.9746L279.85 26.0673L279.743 25.999L279.489 25.8379L266.66 17.632L262.755 15.118L261.71 14.4199C261.585 14.3429 261.466 14.2564 261.354 14.1612C261.491 14.2163 261.622 14.2849 261.745 14.3662L262.818 15.0155L266.724 17.4562L279.616 25.5889L279.87 25.75H279.679L290.175 14.9666L293.362 11.7253L294.236 10.8564C294.335 10.7525 294.443 10.6577 294.558 10.5732Z" fill="#263238"/>
<path d="M263.804 36.5237C263.736 36.4797 265.898 33.1407 268.632 29.0744C271.366 25.0081 273.646 21.7521 273.714 21.7911C273.782 21.8302 271.625 25.174 268.886 29.2404C266.147 33.3067 263.873 36.5725 263.804 36.5237Z" fill="#263238"/>
<path d="M284.722 20.3364C284.785 20.2778 287.583 23.0554 290.97 26.5359C294.358 30.0165 297.058 32.882 296.999 32.9454C296.941 33.0089 294.143 30.2313 290.751 26.7458C287.358 23.2604 284.654 20.3705 284.722 20.3364Z" fill="#263238"/>
<path d="M142.898 78.1099C142.967 78.1099 143.069 78.3588 143.128 78.6908C143.186 79.0227 143.172 79.301 143.103 79.3156C143.035 79.3303 142.932 79.0666 142.874 78.7298C142.815 78.393 142.83 78.1196 142.898 78.1099Z" fill="#263238"/>
<path d="M142.117 73.3455C142.301 73.7106 142.409 74.1091 142.435 74.517C142.54 74.9116 142.563 75.3237 142.503 75.7277C142.316 75.3639 142.207 74.9646 142.186 74.5561C142.08 74.1615 142.057 73.7494 142.117 73.3455Z" fill="#263238"/>
<path d="M141.419 68.5713C141.598 68.9387 141.697 69.3395 141.712 69.7477C141.808 70.1441 141.823 70.556 141.756 70.9584C141.575 70.5918 141.475 70.1905 141.463 69.7819C141.366 69.3855 141.351 68.9736 141.419 68.5713Z" fill="#263238"/>
<path d="M140.872 63.7825C141.036 64.1568 141.122 64.5602 141.126 64.9687C141.212 65.3676 141.212 65.7804 141.126 66.1793C140.963 65.8051 140.878 65.4014 140.877 64.9931C140.791 64.5943 140.79 64.1819 140.872 63.7825Z" fill="#263238"/>
<path d="M140.535 58.9595C140.749 59.7448 140.796 60.5664 140.672 61.371C140.458 60.5857 140.411 59.764 140.535 58.9595Z" fill="#263238"/>
<path d="M140.487 54.1316C140.656 54.9364 140.656 55.7676 140.487 56.5724C140.36 56.1838 140.319 55.7726 140.365 55.3666C140.317 54.951 140.358 54.5298 140.487 54.1316Z" fill="#263238"/>
<path d="M140.789 49.3184C140.878 49.7179 140.886 50.1311 140.814 50.5339C140.821 50.9421 140.744 51.3474 140.589 51.725C140.494 51.328 140.484 50.9154 140.56 50.5143C140.553 50.1041 140.631 49.6968 140.789 49.3184Z" fill="#263238"/>
<path d="M141.512 44.5491C141.571 44.9539 141.543 45.3668 141.429 45.7597C141.399 46.1679 141.285 46.5653 141.092 46.9264C141.068 46.1136 141.211 45.3044 141.512 44.5491Z" fill="#263238"/>
<path d="M142.747 39.8872C142.752 40.2952 142.675 40.7002 142.522 41.0783C142.443 41.4795 142.285 41.8611 142.058 42.2011C142.047 41.7914 142.122 41.384 142.278 41.0051C142.353 40.6033 142.513 40.2222 142.747 39.8872Z" fill="#263238"/>
<path d="M144.548 35.4109C144.506 35.818 144.379 36.212 144.177 36.5678C144.05 36.9562 143.846 37.3148 143.577 37.6222C143.745 36.8253 144.077 36.0721 144.553 35.4109H144.548Z" fill="#263238"/>
<path d="M146.901 31.2029C146.806 31.5999 146.632 31.9736 146.388 32.3012C146.047 32.8675 145.72 33.2775 145.656 33.2775C145.753 32.8801 145.929 32.5065 146.174 32.1792C146.515 31.5983 146.842 31.1638 146.901 31.2029Z" fill="#263238"/>
<path d="M149.796 27.3415C149.85 27.3904 149.557 27.8297 149.142 28.3618C148.727 28.8939 148.341 29.2649 148.283 29.2209C148.432 28.8402 148.656 28.4933 148.942 28.2007C149.362 27.6833 149.747 27.2976 149.796 27.3415Z" fill="#263238"/>
<path d="M153.228 23.949C153.272 24.0075 152.91 24.4127 152.422 24.8618C151.934 25.3109 151.495 25.6282 151.446 25.5794C151.397 25.5306 151.758 25.1254 152.251 24.6714C152.744 24.2174 153.184 23.8953 153.228 23.949Z" fill="#263238"/>
<path d="M157.172 21.1763C157.206 21.2397 156.781 21.5766 156.22 21.9329C155.9 22.186 155.531 22.3705 155.136 22.4748C155.097 22.4211 155.522 22.0794 156.083 21.7181C156.407 21.4673 156.777 21.2831 157.172 21.1763Z" fill="#263238"/>
<path d="M161.565 19.1992C161.249 19.458 160.881 19.6476 160.487 19.7557C160.124 19.9425 159.727 20.0522 159.32 20.0779C159.637 19.8201 160.005 19.6306 160.399 19.5214C160.761 19.3339 161.158 19.2242 161.565 19.1992Z" fill="#263238"/>
<path d="M165.09 18.3302C165.09 18.3985 164.846 18.5059 164.518 18.5694C164.191 18.6329 163.908 18.628 163.894 18.5694C163.879 18.5108 164.138 18.3937 164.47 18.3302C164.802 18.2667 165.08 18.2619 165.09 18.3302Z" fill="#263238"/>
<path d="M139.122 0.00160784L130.3 22.8169L164.148 35.9046L172.97 13.0894L139.122 0.00160784Z" fill="#EEE8F3"/>
<path d="M164.148 35.9234L130.289 22.8262L139.12 0L172.978 13.0923L164.148 35.9234ZM130.318 22.8115L164.148 35.8892L172.964 13.0972L139.134 0.0195267L130.318 22.8115Z" fill="#263238"/>
<path d="M172.973 13.4097C172.836 13.4841 172.693 13.5447 172.544 13.5903L171.279 14.0492L166.617 15.6894L151.153 21.0006L151.026 21.0445L150.957 20.9273L150.791 20.6442L142.493 6.30706L140.008 1.94294L139.349 0.746959C139.264 0.611176 139.192 0.467288 139.134 0.317383C139.235 0.440988 139.325 0.573307 139.403 0.712788L140.12 1.87948L142.669 6.18014C144.836 9.86083 147.794 14.9035 151.06 20.4685L151.226 20.7516L151.031 20.6784L166.544 15.4551L171.24 13.9174L172.524 13.5122C172.67 13.462 172.82 13.4276 172.973 13.4097Z" fill="#263238"/>
<path d="M130.304 23.1338C130.26 23.0557 134.014 20.9127 138.69 18.3499C143.367 15.7871 147.189 13.771 147.233 13.8491C147.277 13.9272 143.523 16.0702 138.846 18.6379C134.17 21.2056 130.348 23.212 130.304 23.1338Z" fill="#263238"/>
<path d="M158.597 17.8959C158.685 17.8715 159.998 21.9476 161.526 27C163.054 32.0524 164.236 36.1773 164.148 36.2017C164.06 36.2261 162.747 32.1549 161.219 27.0976C159.691 22.0403 158.51 17.9398 158.597 17.8959Z" fill="#263238"/>
<path d="M128.683 83.4503C128.751 83.4503 128.785 83.7334 128.761 84.0702C128.736 84.407 128.653 84.6755 128.585 84.6707C128.517 84.6658 128.478 84.3875 128.507 84.0507C128.536 83.7139 128.614 83.4454 128.683 83.4503Z" fill="#263238"/>
<path d="M128.805 78.4856C128.932 78.8875 128.975 79.3111 128.932 79.7304C128.97 80.1483 128.925 80.5697 128.8 80.9703C128.677 80.5694 128.635 80.1477 128.678 79.7304C128.639 79.3112 128.682 78.8883 128.805 78.4856Z" fill="#263238"/>
<path d="M128.468 73.5454C128.71 74.3467 128.788 75.1883 128.697 76.0204C128.533 75.6331 128.451 75.2157 128.458 74.7951C128.38 74.3819 128.383 73.9574 128.468 73.5454Z" fill="#263238"/>
<path d="M127.643 68.6348C127.841 69.0056 127.964 69.4121 128.004 69.8307C128.125 70.234 128.163 70.6573 128.116 71.0755C127.919 70.7043 127.796 70.298 127.755 69.8796C127.632 69.4769 127.594 69.053 127.643 68.6348Z" fill="#263238"/>
<path d="M126.291 63.8557C126.703 64.5845 126.961 65.3905 127.048 66.2233C126.81 65.8774 126.644 65.4873 126.559 65.0761C126.388 64.6917 126.297 64.2765 126.291 63.8557Z" fill="#263238"/>
<path d="M124.392 59.2717C124.672 59.5851 124.884 59.9522 125.017 60.3506C125.226 60.716 125.36 61.1192 125.412 61.5368C125.135 61.2215 124.923 60.855 124.787 60.458C124.577 60.0931 124.443 59.6897 124.392 59.2717Z" fill="#263238"/>
<path d="M121.927 54.9614C121.985 54.9223 122.337 55.3617 122.708 55.9377C122.956 56.279 123.135 56.6653 123.235 57.0751C123.172 57.1093 122.84 56.6602 122.488 56.0695C122.229 55.7411 122.038 55.3644 121.927 54.9614Z" fill="#263238"/>
<path d="M118.886 51.0415C118.939 50.9927 119.34 51.3832 119.779 51.9104C120.078 52.2078 120.315 52.5611 120.477 52.9502C120.419 52.9892 120.023 52.5987 119.584 52.0764C119.285 51.7811 119.047 51.4293 118.886 51.0415Z" fill="#263238"/>
<path d="M115.332 47.5853C115.376 47.5316 115.82 47.8635 116.337 48.3224C116.855 48.7813 117.221 49.2011 117.172 49.2499C116.791 49.073 116.45 48.8225 116.166 48.5128C115.649 48.0539 115.273 47.639 115.332 47.5853Z" fill="#263238"/>
<path d="M111.294 44.6858C111.698 44.8026 112.073 45.0002 112.398 45.2667C112.969 45.6475 113.403 46.0038 113.374 46.0624C112.972 45.9407 112.597 45.7418 112.271 45.4766C111.69 45.1007 111.255 44.7444 111.294 44.6858Z" fill="#263238"/>
<path d="M106.872 42.4304C107.289 42.4839 107.691 42.6218 108.053 42.8356C108.45 42.9731 108.815 43.1889 109.127 43.4702C108.71 43.4167 108.308 43.2788 107.946 43.065C107.55 42.9259 107.185 42.7103 106.872 42.4304Z" fill="#263238"/>
<path d="M102.151 40.9317C102.572 40.9169 102.992 40.9849 103.386 41.1318C103.802 41.2014 104.198 41.3541 104.553 41.5809C104.132 41.5937 103.713 41.5257 103.318 41.3808C102.904 41.3087 102.507 41.1561 102.151 40.9317Z" fill="#263238"/>
<path d="M97.2163 40.3022C98.0451 40.1628 98.8956 40.2316 99.6912 40.5023C98.8609 40.5694 98.0251 40.5018 97.2163 40.3022Z" fill="#263238"/>
<path d="M92.2666 40.6438C93.0612 40.378 93.9019 40.2783 94.7367 40.3509C94.3527 40.5241 93.9374 40.6171 93.5163 40.6242C93.1049 40.7115 92.6805 40.7181 92.2666 40.6438Z" fill="#263238"/>
<path d="M87.4727 41.9229C87.8178 41.6838 88.2082 41.5177 88.6198 41.4348C89.0048 41.2671 89.4203 41.1806 89.8402 41.1809C89.4937 41.4175 89.1038 41.5834 88.693 41.6691C88.3065 41.8318 87.892 41.918 87.4727 41.9229Z" fill="#263238"/>
<path d="M83.0013 44.0756C82.9671 44.0122 83.426 43.6997 84.0362 43.3727C84.3828 43.133 84.7749 42.9668 85.1882 42.8845C84.5457 43.4219 83.8021 43.8252 83.0013 44.0707V44.0756Z" fill="#263238"/>
<path d="M79.0373 47.0533C78.9885 47.0045 79.379 46.6042 79.9062 46.16C80.2037 45.8613 80.557 45.6241 80.946 45.4619C80.9851 45.5205 80.5945 45.9208 80.0722 46.3552C79.7788 46.6564 79.4265 46.8941 79.0373 47.0533Z" fill="#263238"/>
<path d="M75.791 50.8023C75.9162 50.398 76.1316 50.0275 76.4207 49.7185C76.8454 49.1718 77.2604 48.7911 77.3092 48.835C77.358 48.8789 77.0407 49.3231 76.6209 49.8748C76.2011 50.4264 75.8496 50.8413 75.791 50.8023Z" fill="#263238"/>
<path d="M73.98 54.0194C73.9166 53.9901 73.98 53.7216 74.1313 53.414C74.2827 53.1065 74.4486 52.8868 74.5121 52.9259C74.5756 52.9649 74.5121 53.2285 74.3608 53.5312C74.2095 53.8339 74.0435 54.0535 73.98 54.0194Z" fill="#263238"/>
<path d="M42.9624 82.8204C42.9624 82.7521 43.2211 82.6642 43.5531 82.6203C43.885 82.5763 44.1633 82.6203 44.173 82.674C44.1828 82.7277 43.9241 82.835 43.5824 82.8741C43.2407 82.9132 42.9673 82.9034 42.9624 82.8204Z" fill="#263238"/>
<path d="M38.1299 82.2834C38.5405 82.2789 38.9491 82.3399 39.3405 82.4641C39.7492 82.5064 40.1482 82.6152 40.5218 82.7862C39.6937 82.865 38.8609 82.695 38.1299 82.2981V82.2834Z" fill="#263238"/>
<path d="M33.7559 80.1211C34.149 80.2441 34.5186 80.4322 34.8494 80.6776C35.4254 81.0193 35.8892 81.3073 35.8599 81.3757C35.4483 81.3024 35.0591 81.1353 34.7225 80.8875C34.1367 80.5458 33.7169 80.1797 33.7559 80.1211Z" fill="#263238"/>
<path d="M30.1241 76.8602C30.1778 76.8163 30.5781 77.1873 31.0516 77.6657C31.5252 78.1441 31.8913 78.5492 31.8473 78.6029C31.8034 78.6566 31.3592 78.3296 30.871 77.8463C30.3829 77.363 30.0705 76.909 30.1241 76.8602Z" fill="#263238"/>
<path d="M27.2539 72.906C27.3174 72.8718 27.664 73.2965 28.0301 73.8823C28.2887 74.2043 28.4812 74.5742 28.5963 74.9709C28.5378 75.0148 28.1912 74.5852 27.8202 74.019C27.5558 73.6915 27.363 73.3124 27.2539 72.906Z" fill="#263238"/>
<path d="M25.145 68.498C25.4139 68.8122 25.6165 69.1775 25.7406 69.572C25.9366 69.9372 26.0609 70.3365 26.1067 70.7484C25.8352 70.4353 25.6309 70.0698 25.5063 69.6745C25.3089 69.3102 25.1861 68.9103 25.145 68.498Z" fill="#263238"/>
<path d="M23.7439 63.8118C23.9642 64.1629 24.1119 64.5546 24.1784 64.9638C24.3227 65.352 24.3859 65.7657 24.3639 66.1793C24.1401 65.8299 23.9921 65.4374 23.9294 65.0273C23.7853 64.639 23.7222 64.2253 23.7439 63.8118Z" fill="#263238"/>
<path d="M22.8945 58.9937C23.0733 59.367 23.1777 59.7715 23.2021 60.1848C23.3045 60.5866 23.3244 61.0051 23.2607 61.4149C23.0776 61.0432 22.9729 60.6377 22.9531 60.2238C22.8478 59.8224 22.8278 59.4033 22.8945 58.9937Z" fill="#263238"/>
<path d="M22.4259 54.1267C22.6605 54.9178 22.727 55.7492 22.6212 56.5675C22.4648 56.1851 22.3884 55.7748 22.3966 55.3617C22.32 54.9525 22.3299 54.5318 22.4259 54.1267Z" fill="#263238"/>
<path d="M22.2206 50.4604C22.2938 50.4604 22.3621 50.7289 22.3768 51.0658C22.3914 51.4026 22.3475 51.676 22.2791 51.6808C22.2108 51.6857 22.1376 51.4124 22.1229 51.0755C22.1083 50.7387 22.1522 50.4653 22.2206 50.4604Z" fill="#263238"/>
<path d="M40.6041 20.8625L0.0151367 22.7766L1.3054 50.1366L41.8944 48.2225L40.6041 20.8625Z" fill="#EEE8F3"/>
<path d="M1.28873 50.148L0 22.7771L40.6048 20.8635L41.8936 48.2344L1.28873 50.148ZM0.0244093 22.7771L1.31314 50.1138L41.8789 48.2003L40.5902 20.8635L0.0244093 22.7771Z" fill="#263238"/>
<path d="M40.7464 21.1858C40.6388 21.3242 40.5178 21.4518 40.3852 21.5666L39.3015 22.6112L35.2742 26.4042L21.8304 38.8375L21.7181 38.94L21.5961 38.8522L21.3032 38.6374L6.30214 27.7124C4.41786 26.3163 2.88504 25.1789 1.78181 24.3686L0.566303 23.4411C0.418569 23.3411 0.2812 23.2267 0.15625 23.0994C0.314888 23.1815 0.466701 23.2762 0.610235 23.3825L1.86968 24.2416L6.45835 27.4928L21.518 38.3298L21.8157 38.5446H21.5814L35.0936 26.1943L39.2039 22.4892L40.3364 21.5129C40.4613 21.3898 40.5987 21.2802 40.7464 21.1858Z" fill="#263238"/>
<path d="M1.44491 50.4606C1.36681 50.3972 4.24205 46.5017 7.86905 41.7617C11.496 37.0217 14.5031 33.2287 14.5812 33.2873C14.6593 33.3459 11.7889 37.2462 8.16194 41.9862C4.53494 46.7262 1.5279 50.5192 1.44491 50.4606Z" fill="#263238"/>
<path d="M28.0591 32.311C28.1372 32.2427 31.3297 35.8257 35.1862 40.307C39.0426 44.7883 42.1131 48.4787 42.0204 48.5471C41.9276 48.6154 38.7546 45.0324 34.8933 40.5462C31.032 36.0601 27.981 32.3794 28.0591 32.311Z" fill="#263238"/>
</svg>
