<svg width="64" height="64" viewBox="0 0 64 64" fill="none" xmlns="http://www.w3.org/2000/svg">
<path d="M43 3H21.6667C19.8986 3 18.2029 3.70238 16.9526 4.95262C15.7024 6.20286 15 7.89856 15 9.66667V55C15 56.7681 15.7024 58.4638 16.9526 59.714C18.2029 60.9643 19.8986 61.6667 21.6667 61.6667H43C44.7681 61.6667 46.4638 60.9643 47.714 59.714C48.9643 58.4638 49.6667 56.7681 49.6667 55V9.66667C49.6667 7.89856 48.9643 6.20286 47.714 4.95262C46.4638 3.70238 44.7681 3 43 3ZM32.3333 59C30.12 59 28.3333 57.2133 28.3333 55C28.3333 52.7867 30.12 51 32.3333 51C34.5467 51 36.3333 52.7867 36.3333 55C36.3333 57.2133 34.5467 59 32.3333 59ZM44.3333 48.3333H20.3333V11H44.3333V48.3333Z" fill="url(#paint0_linear_1244_10072)"/>
<defs>
<linearGradient id="paint0_linear_1244_10072" x1="15" y1="3" x2="66.3895" y2="33.3665" gradientUnits="userSpaceOnUse">
<stop stop-color="#C800C8"/>
<stop offset="1" stop-color="#9600FF"/>
<stop offset="1" stop-color="#9600FF"/>
</linearGradient>
</defs>
</svg>
