<svg width="16" height="16" viewBox="0 0 16 16" fill="none" xmlns="http://www.w3.org/2000/svg">
<path d="M7.89139 15C8.94632 15 9.89576 14.8263 10.7397 14.4788C11.5999 14.1313 12.2815 13.6535 12.7846 13.0455C13.2878 12.42 13.5393 11.699 13.5393 10.8824C13.5393 9.84001 13.1255 9.01476 12.2978 8.40668C11.4863 7.7986 10.3502 7.49456 8.88951 7.49456L8.81648 7.98971C9.6442 7.98971 10.3826 7.85072 11.0318 7.57274C11.681 7.29476 12.2004 6.90386 12.5899 6.40002C12.9794 5.89618 13.1742 5.30548 13.1742 4.6279C13.1742 3.86346 12.9307 3.21195 12.4438 2.67336C11.9569 2.1174 11.2996 1.69175 10.4719 1.39639C9.66042 1.10104 8.74345 0.970739 7.72097 1.00549C6.97441 1.00549 6.22784 1.11842 5.48127 1.34427C4.75094 1.55276 4.01248 1.86548 3.26592 2.28245L3.75281 3.71578C4.41823 3.35093 5.09176 3.08164 5.77341 2.9079C6.45506 2.71679 7.11236 2.61255 7.74532 2.59518C8.4432 2.59518 9.06804 2.68205 9.61985 2.85578C10.1717 3.02952 10.6017 3.29013 10.9101 3.6376C11.2347 3.98508 11.397 4.40204 11.397 4.88851C11.397 5.34022 11.2591 5.73113 10.9831 6.06123C10.7235 6.39133 10.3502 6.64325 9.8633 6.81699C9.3764 6.99073 8.81648 7.07759 8.18352 7.07759H6.11423V8.43274H8.30524C9.3764 8.43274 10.2203 8.64123 10.8371 9.05819C11.4538 9.45779 11.7622 10.0224 11.7622 10.7521C11.7622 11.256 11.5999 11.7077 11.2753 12.1073C10.9507 12.5069 10.4963 12.8196 9.91198 13.0455C9.32772 13.2713 8.63795 13.3929 7.8427 13.4103C7.04744 13.4103 6.24407 13.2887 5.43258 13.0455C4.6211 12.7849 3.90699 12.4113 3.29026 11.9249L2.73034 13.3061C3.42821 13.8794 4.23159 14.3051 5.14045 14.583C6.04931 14.861 6.96629 15 7.89139 15Z" fill="#545454"/>
<path d="M2 6.76487H15V8.06789H2V6.76487Z" fill="#545454"/>
</svg>
