<svg width="1488" height="1414" viewBox="0 0 1488 1414" fill="none" xmlns="http://www.w3.org/2000/svg">
<g filter="url(#filter0_f_1832_15982)">
<path fill-rule="evenodd" clip-rule="evenodd" d="M530.179 626.755C564.42 540.887 666.278 514.75 758.397 522.602C849.779 530.392 943.278 574.215 963.412 663.684C983.098 751.164 915.51 828.353 836.918 871.523C769.269 908.681 689.189 895.594 628.856 847.45C559.215 791.879 497.181 709.503 530.179 626.755Z" fill="#881D95"/>
</g>
<g opacity="0.25" filter="url(#filter1_d_1832_15982)">
<path fill-rule="evenodd" clip-rule="evenodd" d="M450.114 503.354C484.704 472.964 532.887 468.929 577.584 457.816C627.675 445.361 685.844 403.798 727.493 434.384C771.951 467.034 728.709 548.491 761.479 592.867C798.51 643.013 898.071 630.888 916.556 690.406C933.315 744.367 881.578 801.394 836.984 835.98C796.799 867.148 736.264 843.676 690.452 865.77C642.75 888.777 620.455 981.604 570.233 964.632C515.159 946.02 541.398 853.609 509.871 804.743C490.751 775.108 446.52 771.885 426.949 742.545C403.356 707.176 384.89 665.799 388.985 623.512C393.409 577.837 415.664 533.621 450.114 503.354Z" fill="url(#paint0_linear_1832_15982)" shape-rendering="crispEdges"/>
</g>
<defs>
<filter id="filter0_f_1832_15982" x="0.0620117" y="0.277344" width="1487.8" height="1413.7" filterUnits="userSpaceOnUse" color-interpolation-filters="sRGB">
<feFlood flood-opacity="0" result="BackgroundImageFix"/>
<feBlend mode="normal" in="SourceGraphic" in2="BackgroundImageFix" result="shape"/>
<feGaussianBlur stdDeviation="260.5" result="effect1_foregroundBlur_1832_15982"/>
</filter>
<filter id="filter1_d_1832_15982" x="384.414" y="423.379" width="539.373" height="551.312" filterUnits="userSpaceOnUse" color-interpolation-filters="sRGB">
<feFlood flood-opacity="0" result="BackgroundImageFix"/>
<feColorMatrix in="SourceAlpha" type="matrix" values="0 0 0 0 0 0 0 0 0 0 0 0 0 0 0 0 0 0 127 0" result="hardAlpha"/>
<feOffset dy="4"/>
<feGaussianBlur stdDeviation="2"/>
<feComposite in2="hardAlpha" operator="out"/>
<feColorMatrix type="matrix" values="0 0 0 0 0 0 0 0 0 0 0 0 0 0 0 0 0 0 0.25 0"/>
<feBlend mode="normal" in2="BackgroundImageFix" result="effect1_dropShadow_1832_15982"/>
<feBlend mode="normal" in="SourceGraphic" in2="effect1_dropShadow_1832_15982" result="shape"/>
</filter>
<linearGradient id="paint0_linear_1832_15982" x1="766.5" y1="482" x2="630" y2="772" gradientUnits="userSpaceOnUse">
<stop stop-color="#C800C8"/>
<stop offset="1" stop-color="#9600FF" stop-opacity="0"/>
</linearGradient>
</defs>
</svg>
