<svg width="127" height="112" viewBox="0 0 127 112" fill="none" xmlns="http://www.w3.org/2000/svg">
<g filter="url(#filter0_f_796_8731)">
<path d="M123 23.0019C122.958 22.3004 122.747 21.6179 122.383 21.0092C122.018 20.4005 121.511 19.8825 120.901 19.4967L13.5369 -40.1971C12.8863 -40.5143 12.1672 -40.6796 11.4379 -40.6796C10.7086 -40.6796 9.9896 -40.5143 9.33895 -40.1971L6.97303 -38.8768C6.35982 -38.4945 5.84971 -37.9773 5.48478 -37.3678C5.11984 -36.7584 4.91051 -36.0742 4.87402 -35.3716V43.8813C4.9153 44.5829 5.12668 45.2653 5.49118 45.874C5.85569 46.4827 6.36319 47.0008 6.97303 47.3866L114.337 107.08C114.988 107.398 115.707 107.563 116.436 107.563C117.165 107.563 117.884 107.398 118.535 107.08L120.901 105.76C121.512 105.376 122.02 104.858 122.385 104.249C122.75 103.64 122.96 102.957 123 102.255V23.0019Z" fill="#BA68C8"/>
<path opacity="0.5" d="M123 23.0019C122.958 22.3004 122.747 21.6179 122.383 21.0092C122.018 20.4005 121.511 19.8825 120.901 19.4967L13.5369 -40.1971C12.8863 -40.5143 12.1672 -40.6796 11.4379 -40.6796C10.7086 -40.6796 9.9896 -40.5143 9.33895 -40.1971L6.97303 -38.8768C6.35982 -38.4945 5.84971 -37.9773 5.48478 -37.3678C5.11984 -36.7584 4.91051 -36.0742 4.87402 -35.3716V43.8813C4.9153 44.5829 5.12668 45.2653 5.49118 45.874C5.85569 46.4827 6.36319 47.0008 6.97303 47.3866L114.337 107.08C114.988 107.398 115.707 107.563 116.436 107.563C117.165 107.563 117.884 107.398 118.535 107.08L120.901 105.76C121.512 105.376 122.02 104.858 122.385 104.249C122.75 103.64 122.96 102.957 123 102.255V23.0019Z" fill="white"/>
<path d="M113.148 26.145L122.381 21.0157C122.759 21.6167 122.971 22.3001 123 23.002V102.255C122.96 102.957 122.75 103.64 122.385 104.249C122.02 104.858 121.512 105.376 120.901 105.76L118.535 107.08C117.884 107.398 117.165 107.563 116.436 107.563C115.707 107.563 114.987 107.398 114.337 107.08L113.124 106.426L113.148 26.145Z" fill="#BA68C8"/>
<path d="M4.87402 -35.3715V43.8814C4.90009 44.6069 5.12624 45.3126 5.52921 45.9261C5.83133 46.4445 6.245 46.8946 6.7425 47.2464H6.81529L6.96088 47.3282L114.325 107.022C114.53 107.163 114.769 107.251 115.019 107.28C115.269 107.308 115.523 107.276 115.756 107.186C115.982 107.043 116.163 106.843 116.279 106.608C116.394 106.373 116.44 106.112 116.412 105.854V26.6474C116.435 26.3559 116.383 26.0632 116.259 25.7961C116.135 25.529 115.944 25.296 115.703 25.1182C115.462 24.9405 115.178 24.8238 114.878 24.7786C114.578 24.7335 114.271 24.7614 113.985 24.8598L68.9235 35.2002L63.0148 36.5438C62.3173 36.6731 61.5962 36.6151 60.9306 36.376C60.2651 36.1369 59.6807 35.7261 59.2415 35.1885L52.3864 26.0048L6.28144 -35.8155C5.50494 -36.8554 4.87402 -36.6684 4.87402 -35.3715Z" fill="#BA68C8"/>
<path opacity="0.2" d="M4.87402 -35.3715V43.8814C4.90009 44.6069 5.12624 45.3126 5.52921 45.9261C5.83133 46.4445 6.245 46.8946 6.7425 47.2464H6.81529L6.96088 47.3282L114.325 107.022C114.53 107.163 114.769 107.251 115.019 107.28C115.269 107.308 115.523 107.276 115.756 107.186C115.982 107.043 116.163 106.843 116.279 106.608C116.394 106.373 116.44 106.112 116.412 105.854V26.6474C116.435 26.3559 116.383 26.0632 116.259 25.7961C116.135 25.529 115.944 25.296 115.703 25.1182C115.462 24.9405 115.178 24.8238 114.878 24.7786C114.578 24.7335 114.271 24.7614 113.985 24.8598L68.9235 35.2002L63.0148 36.5438C62.3173 36.6731 61.5962 36.6151 60.9306 36.376C60.2651 36.1369 59.6807 35.7261 59.2415 35.1885L52.3864 26.0048L6.28144 -35.8155C5.50494 -36.8554 4.87402 -36.6684 4.87402 -35.3715Z" fill="white"/>
<path d="M6.97303 47.3749L6.82744 47.2931H6.75464C6.21163 46.8977 5.76284 46.3949 5.43846 45.8185C5.11408 45.2421 4.9216 44.6055 4.87402 43.9515L52.3864 26.0515L20.574 54.9812L6.97303 47.3749Z" fill="#BA68C8"/>
<path d="M6.97303 47.3749L6.82744 47.2931H6.75464C6.21163 46.8977 5.76284 46.3949 5.43846 45.8185C5.11408 45.2421 4.9216 44.6055 4.87402 43.9515L52.3864 26.0515L20.574 54.9812L6.97303 47.3749Z" fill="#BA68C8"/>
<path opacity="0.2" d="M6.97303 47.3749L6.82744 47.2931H6.75464C6.21163 46.8977 5.76284 46.3949 5.43846 45.8185C5.11408 45.2421 4.9216 44.6055 4.87402 43.9515L52.3864 26.0515L20.574 54.9812L6.97303 47.3749Z" fill="black"/>
<path d="M116.436 105.9C116.464 106.159 116.418 106.42 116.303 106.655C116.187 106.89 116.006 107.09 115.781 107.232C115.547 107.323 115.293 107.355 115.043 107.326C114.793 107.298 114.554 107.209 114.349 107.069L77.4164 86.5281L68.9233 35.2118L116.436 104.592V105.9Z" fill="#BA68C8"/>
<path d="M116.436 105.9C116.464 106.159 116.418 106.42 116.303 106.655C116.187 106.89 116.006 107.09 115.781 107.232C115.547 107.323 115.293 107.355 115.043 107.326C114.793 107.298 114.554 107.209 114.349 107.069L77.4164 86.5281L68.9233 35.2118L116.436 104.592V105.9Z" fill="#BA68C8"/>
<path opacity="0.2" d="M116.436 105.9C116.464 106.159 116.418 106.42 116.303 106.655C116.187 106.89 116.006 107.09 115.781 107.232C115.547 107.323 115.293 107.355 115.043 107.326C114.793 107.298 114.554 107.209 114.349 107.069L77.4164 86.5281L68.9233 35.2118L116.436 104.592V105.9Z" fill="black"/>
<path d="M5.52881 45.9262C5.83093 46.4445 6.2446 46.8947 6.7421 47.2465H6.81489L114.324 107.022C114.53 107.163 114.768 107.251 115.019 107.28C115.269 107.308 115.522 107.276 115.756 107.186L64.3369 28.143C63.3047 26.5602 61.7162 25.3873 59.8609 24.8383C58.0057 24.2892 56.0073 24.4005 54.2302 25.1519L5.52881 45.9262Z" fill="#BA68C8"/>
<path opacity="0.2" d="M5.52881 45.9262C5.83093 46.4445 6.2446 46.8947 6.7421 47.2465H6.81489L114.324 107.022C114.53 107.163 114.768 107.251 115.019 107.28C115.269 107.308 115.522 107.276 115.756 107.186L64.3369 28.143C63.3047 26.5602 61.7162 25.3873 59.8609 24.8383C58.0057 24.2892 56.0073 24.4005 54.2302 25.1519L5.52881 45.9262Z" fill="white"/>
<path d="M115.563 24.7545L66.7156 45.5171C64.9573 46.2683 62.9765 46.3829 61.1374 45.8398C59.2983 45.2967 57.7247 44.1324 56.706 42.561L5.4082 -36.4933L115.563 24.7545Z" fill="#BA68C8"/>
<path opacity="0.2" d="M115.563 24.7545L66.7156 45.5171C64.9573 46.2683 62.9765 46.3829 61.1374 45.8398C59.2983 45.2967 57.7247 44.1324 56.706 42.561L5.4082 -36.4933L115.563 24.7545Z" fill="black"/>
<path d="M115.563 24.7545L66.3638 42.4558C64.663 43.0645 62.798 43.0989 61.0742 42.5534C59.3504 42.0078 57.8702 40.9147 56.8759 39.4531L5.4082 -36.4933L115.563 24.7545Z" fill="#BA68C8"/>
<path opacity="0.2" d="M115.563 24.7545L66.3638 42.4558C64.663 43.0645 62.798 43.0989 61.0742 42.5534C59.3504 42.0078 57.8702 40.9147 56.8759 39.4531L5.4082 -36.4933L115.563 24.7545Z" fill="white"/>
</g>
<defs>
<filter id="filter0_f_796_8731" x="0.874023" y="-44.6796" width="126.126" height="156.243" filterUnits="userSpaceOnUse" color-interpolation-filters="sRGB">
<feFlood flood-opacity="0" result="BackgroundImageFix"/>
<feBlend mode="normal" in="SourceGraphic" in2="BackgroundImageFix" result="shape"/>
<feGaussianBlur stdDeviation="2" result="effect1_foregroundBlur_796_8731"/>
</filter>
</defs>
</svg>
