<svg width="127" height="128" viewBox="0 0 127 128" fill="none" xmlns="http://www.w3.org/2000/svg">
<g filter="url(#filter0_f_796_8750)">
<path d="M53.5261 85.3149L50.9782 77.6735C49.6193 71.5044 75.7536 86.0393 77.1246 92.2085L68.6922 114.011C68.4085 114.67 67.916 115.226 67.2848 115.6C65.4406 116.687 58.6219 120.39 58.0274 120.741C57.5563 121.02 57.0256 121.191 56.4753 121.243C55.9251 121.295 55.37 121.225 54.8519 121.039C54.3339 120.853 53.8666 120.556 53.4855 120.17C53.1044 119.785 52.8195 119.321 52.6525 118.813L41.7329 82.7795C41.0171 79.765 47.0835 81.7747 53.5261 85.3149Z" fill="#BA68C8"/>
<path d="M20.2581 4.92865L119.638 60.1358C120.616 60.7482 121.43 61.5743 122.014 62.5468C122.598 63.5193 122.936 64.6107 122.999 65.7325V114.011C122.934 115.132 122.593 116.222 122.005 117.191C121.416 118.16 120.597 118.98 119.614 119.584L113.475 122.926C112.429 123.433 111.274 123.698 110.102 123.698C108.931 123.698 107.775 123.433 106.729 122.926L7.36083 67.7304C6.38263 67.1155 5.56861 66.2873 4.98472 65.3129C4.40083 64.3385 4.06347 63.2454 4 62.1221V13.8202C4.05912 12.698 4.39749 11.6059 4.98661 10.636C5.57573 9.66601 6.39833 8.84664 7.38508 8.24692L13.5243 4.8936C14.5732 4.39788 15.7271 4.14304 16.8955 4.14912C18.0638 4.15521 19.2148 4.42204 20.2581 4.92865Z" fill="#BA68C8"/>
<path d="M7.361 11.9506L106.741 67.1577C107.716 67.7729 108.526 68.5998 109.108 69.5719C109.69 70.544 110.026 71.6342 110.09 72.7544V121.021C110.09 123.078 108.586 123.919 106.741 122.879L66.4966 100.527L59.5202 119.222C59.2256 119.876 58.7307 120.429 58.1016 120.805C57.4724 121.181 56.739 121.364 55.9993 121.328C55.2596 121.293 54.5487 121.041 53.9616 120.606C53.3745 120.171 52.9392 119.574 52.7137 118.895L43.25 87.6516L7.42165 67.7887C6.44345 67.1737 5.62943 66.3455 5.04554 65.3711C4.46165 64.3968 4.12432 63.3037 4.06085 62.1803V13.8201C4.00019 11.752 5.50467 10.9224 7.361 11.9506Z" fill="#FAFAFA"/>
<path d="M5.83208 12.9087C6.10902 12.9223 6.37715 13.007 6.6086 13.1541L105.989 68.3612C106.743 68.8559 107.371 69.5077 107.826 70.2683C108.282 71.0289 108.554 71.8787 108.622 72.7545V121.021C108.622 121.232 108.622 121.933 108.209 121.933C107.932 121.912 107.665 121.824 107.433 121.676L67.1395 99.2889L65.6351 98.4594L65.0527 100.025L58.1005 118.684C57.9183 119.067 57.6212 119.388 57.2476 119.606C56.8739 119.824 56.4408 119.93 56.0044 119.908C55.568 119.887 55.1483 119.74 54.7995 119.486C54.4508 119.233 54.189 118.884 54.0481 118.486L44.5845 87.2427L44.4146 86.6935L43.9172 86.4131L8.08877 66.5502C7.3315 66.0594 6.70069 65.4084 6.24441 64.6471C5.78812 63.8857 5.51844 63.034 5.45596 62.157V13.8201C5.45596 13.5981 5.45594 12.9087 5.85633 12.9087M5.85633 11.5067C4.76437 11.5067 4 12.3479 4 13.8435V62.122C4.06347 63.2453 4.40083 64.3384 4.98472 65.3128C5.56861 66.2871 6.38263 67.1153 7.36083 67.7303L43.1892 87.5932L52.6529 118.836C52.8784 119.516 53.3137 120.113 53.9008 120.548C54.4879 120.982 55.1988 121.234 55.9385 121.27C56.6782 121.306 57.4116 121.123 58.0407 120.747C58.6699 120.37 59.1648 119.818 59.4594 119.164L66.4358 100.469L106.741 122.844C107.189 123.117 107.704 123.271 108.234 123.288C109.338 123.288 110.09 122.447 110.09 120.951V72.7545C110.026 71.6342 109.69 70.5441 109.108 69.5719C108.526 68.5998 107.716 67.7729 106.741 67.1578L7.36083 11.9506C6.90961 11.6757 6.39003 11.5224 5.85633 11.5067Z" fill="#E0E0E0"/>
<path opacity="0.2" d="M4.04883 13.2243C4.31575 11.6003 5.68676 11.016 7.37323 11.9391L106.729 67.1579C107.743 67.7467 108.58 68.5805 109.156 69.5765L121.993 62.4376C121.44 61.4806 120.642 60.6761 119.675 60.1008L20.3069 4.8936C19.2627 4.38624 18.1095 4.12192 16.94 4.12192C15.7705 4.12192 14.6173 4.38624 13.5731 4.8936L7.43391 8.23524C6.52921 8.78231 5.75821 9.5115 5.17388 10.3727C4.58955 11.2339 4.20574 12.2067 4.04883 13.2243Z" fill="white"/>
<path d="M13.4153 38.8122C13.3339 38.6114 13.2967 38.3965 13.3061 38.1812C13.3075 38.1044 13.3267 38.0288 13.3624 37.96C13.3981 37.8913 13.4493 37.8311 13.5124 37.7839L17.6861 35.2368C17.7848 35.1747 17.8907 35.1237 18.0015 35.0849C18.0557 35.0573 18.1161 35.0429 18.1775 35.0429C18.2388 35.0429 18.2992 35.0573 18.3534 35.0849L19.8579 35.9145C20.0173 36.0245 20.143 36.1738 20.2218 36.3468C20.3196 36.5442 20.3733 36.7592 20.3796 36.9778V55.3918C20.3901 55.5576 20.3336 55.721 20.2218 55.8475C20.1712 55.8894 20.1066 55.9125 20.0399 55.9125C19.9731 55.9125 19.9085 55.8894 19.8579 55.8475L18.2927 54.9829C18.1333 54.8729 18.0076 54.7235 17.9287 54.5506C17.8345 54.3525 17.7849 54.1375 17.7832 53.9196V39.8988L15.0533 41.5696C14.9989 41.6085 14.9329 41.6295 14.8652 41.6295C14.7975 41.6295 14.7315 41.6085 14.6771 41.5696C14.516 41.4348 14.3946 41.2615 14.3253 41.0672L13.4153 38.8122Z" fill="#455A64"/>
<path d="M30.2307 50.508C30.6032 50.2833 30.869 49.9266 30.9708 49.5148C31.0761 49.1334 31.1331 48.7411 31.1407 48.3464C31.1437 47.5704 30.9784 46.8023 30.6553 46.0914C30.3367 45.3717 29.7772 44.7753 29.0659 44.3972C28.3622 44.0116 27.8527 43.9766 27.5129 44.3037C27.1336 44.758 26.8903 45.3034 26.8092 45.8811C26.8092 46.1031 26.7 46.255 26.5787 46.3134C26.528 46.3446 26.469 46.3612 26.4088 46.3612C26.3486 46.3612 26.2897 46.3446 26.239 46.3134L24.7224 45.4721C24.5589 45.3682 24.4287 45.2226 24.3463 45.0515C24.2396 44.8535 24.1894 44.6317 24.2007 44.4089C24.2191 43.6661 24.3668 42.9315 24.6374 42.2357C24.8516 41.6847 25.2062 41.1945 25.6687 40.8102C26.0957 40.4803 26.6259 40.2992 27.1732 40.2961C27.8352 40.3083 28.4812 40.4941 29.0417 40.8336C29.8483 41.2872 30.5601 41.8815 31.1407 42.5862C31.723 43.3051 32.2119 44.0899 32.5966 44.923C32.9742 45.7331 33.2629 46.5789 33.458 47.4467C33.6284 48.2035 33.7219 48.9744 33.7371 49.7485C33.7371 50.2159 33.7371 50.6599 33.6765 51.0688C33.6438 51.4683 33.554 51.8615 33.4095 52.2372C33.2572 52.5968 33.0485 52.9317 32.7907 53.2303C32.4811 53.582 32.1168 53.8855 31.7109 54.13L28.156 56.9692L33.5066 59.937C33.666 60.047 33.7917 60.1963 33.8706 60.3693C33.9648 60.5674 34.0145 60.7824 34.0162 61.0003V63.0216C34.0314 63.186 33.9791 63.3496 33.8706 63.4773C33.8199 63.5192 33.7554 63.5423 33.6886 63.5423C33.6218 63.5423 33.5572 63.5192 33.5066 63.4773L24.5283 58.4882C24.3625 58.3847 24.2351 58.2334 24.1642 58.0559C24.0621 57.8642 24.0082 57.6521 24.0065 57.4366V55.7074C23.9843 55.448 24.0527 55.189 24.2007 54.9713C24.2836 54.8436 24.3956 54.7357 24.5283 54.6558L30.2307 50.508Z" fill="#455A64"/>
<path d="M46.5866 50.8235C46.7558 50.9263 46.8873 51.0774 46.9627 51.2558C47.0567 51.4498 47.1064 51.661 47.1083 51.8751V53.8964C47.1172 54.0783 47.0663 54.2582 46.9627 54.4105C46.8796 54.5234 46.7863 54.629 46.6837 54.726L43.881 57.5535C44.4642 57.9886 44.9898 58.4908 45.4461 59.0491C45.9262 59.6152 46.3335 60.2351 46.6594 60.8951C47.001 61.5815 47.2615 62.3027 47.4359 63.045C47.6081 63.8131 47.6976 64.5961 47.7029 65.3818C47.7326 66.2054 47.5966 67.0266 47.3025 67.8004C47.1088 68.3554 46.7234 68.8297 46.2105 69.1441C45.7113 69.4204 45.1303 69.5273 44.5605 69.4479C43.8248 69.3525 43.118 69.1097 42.4857 68.7352C41.6197 68.261 40.8341 67.6621 40.1562 66.9592C39.5234 66.3136 38.9697 65.6001 38.5061 64.8327C38.0753 64.128 37.737 63.3744 37.4991 62.5893C37.2803 61.9134 37.1419 61.2157 37.0866 60.5096C37.0698 60.4262 37.0743 60.34 37.0997 60.2587C37.125 60.1773 37.1705 60.103 37.2322 60.0422C37.2857 60.0015 37.352 59.9793 37.4202 59.9793C37.4885 59.9793 37.5548 60.0015 37.6083 60.0422L39.1249 60.8835C39.2634 60.9732 39.3728 61.0987 39.4404 61.2457C39.5422 61.4667 39.6314 61.6929 39.7073 61.9233C39.7868 62.1992 39.8882 62.4687 40.0106 62.7296C40.1531 63.0208 40.3237 63.2986 40.5202 63.5591C40.757 63.8612 41.0254 64.1392 41.321 64.3887C41.6966 64.6922 42.1031 64.9584 42.5343 65.1832C42.8027 65.3782 43.1141 65.5112 43.4443 65.5719C43.7746 65.6327 44.1149 65.6196 44.4391 65.5337C44.9123 65.3351 45.155 64.8093 45.155 63.9564C45.1691 63.1545 44.9185 62.3689 44.4391 61.713C43.9279 61.0566 43.2789 60.5111 42.5343 60.1123L40.9449 59.2243C40.7791 59.1209 40.6517 58.9696 40.5809 58.792C40.4774 58.5966 40.4233 58.3804 40.4231 58.1611V56.1397C40.4143 55.9616 40.4654 55.7854 40.5687 55.6373C40.6531 55.5253 40.7464 55.4199 40.8478 55.3219L43.5413 52.6229L38.1786 49.7486C38.0128 49.6451 37.8854 49.4938 37.8145 49.3163C37.711 49.1209 37.657 48.9047 37.6568 48.6853V46.664C37.6481 46.5816 37.6576 46.4984 37.6848 46.4198C37.712 46.3412 37.7562 46.2692 37.8145 46.2083C37.8652 46.1664 37.9298 46.1433 37.9966 46.1433C38.0634 46.1433 38.1279 46.1664 38.1786 46.2083L46.5866 50.8235Z" fill="#455A64"/>
<path d="M51.7182 66.7841C51.5588 66.6741 51.433 66.5248 51.3542 66.3518C51.26 66.1538 51.2104 65.9387 51.2086 65.7209V63.8397C51.1934 63.6753 51.2457 63.5118 51.3542 63.3841C51.4049 63.3421 51.4695 63.319 51.5363 63.319C51.603 63.319 51.6676 63.3421 51.7182 63.3841L57.5906 66.6439C57.75 66.7539 57.8757 66.9032 57.9545 67.0762C58.0488 67.2743 58.0984 67.4893 58.1001 67.7071V69.6117C58.1153 69.776 58.0631 69.9396 57.9545 70.0673C57.9029 70.1072 57.8387 70.1289 57.7725 70.1289C57.7064 70.1289 57.6422 70.1072 57.5906 70.0673L51.7182 66.7841Z" fill="#455A64"/>
<path d="M68.329 82.8612C68.1692 82.7516 68.0433 82.6021 67.965 82.4289C67.8673 82.2315 67.8135 82.0165 67.8073 81.7979V78.2927L61.8501 74.9744C61.6875 74.8677 61.5609 74.7174 61.4861 74.5421C61.3882 74.3489 61.3344 74.1378 61.3283 73.9229V71.9483C61.319 71.7306 61.3649 71.5141 61.4618 71.3173C61.5467 71.1654 61.6438 71.0019 61.753 70.8383L67.6374 63.2203C67.8922 62.8931 68.1591 62.7997 68.4261 62.9515L69.882 63.7578C70.0486 63.8633 70.1794 64.0136 70.2581 64.1901C70.3524 64.3881 70.402 64.6031 70.4037 64.821V76.2129L72.0659 77.136C72.2254 77.246 72.3511 77.3953 72.4299 77.5683C72.5242 77.7663 72.5738 77.9814 72.5755 78.1992V80.2206C72.5907 80.385 72.5385 80.5485 72.4299 80.6763C72.3793 80.7182 72.3147 80.7413 72.2479 80.7413C72.1811 80.7413 72.1166 80.7182 72.0659 80.6763L70.4037 79.7532V83.2C70.419 83.3644 70.3667 83.528 70.2581 83.6557C70.2056 83.6985 70.1389 83.722 70.0701 83.722C70.0012 83.722 69.9346 83.6985 69.882 83.6557L68.329 82.8612ZM67.8073 74.7875V68.6884L64.5314 72.9648L67.8073 74.7875Z" fill="#455A64"/>
<path d="M76.5418 68.2445C76.5284 68.0767 76.5803 67.9101 76.6874 67.7771C76.739 67.7373 76.8032 67.7156 76.8693 67.7156C76.9355 67.7156 76.9997 67.7373 77.0514 67.7771L84.3311 71.7964C84.4968 71.8998 84.6242 72.0512 84.6951 72.2287C84.7986 72.4241 84.8526 72.6403 84.8528 72.8597V74.881C84.8615 74.9634 84.852 75.0466 84.8248 75.1252C84.7976 75.2037 84.7534 75.2758 84.6951 75.3367C84.6444 75.3786 84.5799 75.4017 84.5131 75.4017C84.4463 75.4017 84.3817 75.3786 84.3311 75.3367L78.9319 72.3339L78.7257 75.8391C79.078 75.8299 79.4274 75.902 79.7449 76.0494C80.0308 76.1678 80.3102 76.3005 80.582 76.4467C81.3185 76.8714 81.992 77.3902 82.584 77.989C83.2137 78.6363 83.7484 79.3635 84.1734 80.1505C84.6339 80.9922 84.9921 81.8821 85.2411 82.8028C85.4981 83.7962 85.6244 84.8168 85.6172 85.8406C85.6483 86.8202 85.5173 87.7984 85.2289 88.7383C85.0409 89.3465 84.6641 89.8847 84.1491 90.2806C83.68 90.5866 83.1053 90.704 82.5476 90.6077C81.8514 90.4988 81.1839 90.2607 80.582 89.9067C79.7396 89.4436 78.9747 88.8606 78.3132 88.1774C77.6875 87.5468 77.1566 86.835 76.7359 86.0626C76.317 85.3263 75.9989 84.5408 75.7895 83.7258C75.5852 82.9614 75.4672 82.1779 75.4377 81.389C75.4209 81.3038 75.4254 81.2159 75.4507 81.1326C75.476 81.0494 75.5214 80.9731 75.5833 80.91C75.6349 80.8701 75.6991 80.8485 75.7653 80.8485C75.8314 80.8485 75.8956 80.8701 75.9473 80.91L77.5124 81.7746C77.6578 81.8683 77.775 81.9972 77.8521 82.1485C77.9591 82.3422 78.0329 82.5513 78.0705 82.7677C78.1321 83.206 78.2545 83.6344 78.4345 84.0413C78.5827 84.3858 78.7742 84.7115 79.0047 85.0111C79.209 85.2892 79.4542 85.5372 79.7327 85.7472C80.0022 85.9525 80.286 86.1399 80.582 86.308C80.8289 86.5023 81.1335 86.6161 81.4519 86.6329C81.7703 86.6497 82.086 86.5687 82.3534 86.4015C82.6144 86.1291 82.8095 85.8046 82.9249 85.4511C83.0403 85.0976 83.073 84.7239 83.0207 84.3568C83.017 83.4792 82.7878 82.6162 82.3534 81.8447C81.9497 81.0786 81.3374 80.4324 80.582 79.9752C80.3009 79.8055 79.9938 79.6793 79.672 79.6014C79.4924 79.5614 79.3057 79.5614 79.1261 79.6014L78.7378 79.6948C78.5826 79.7052 78.4285 79.6639 78.3011 79.578L76.5296 78.5848C76.3611 78.4898 76.2323 78.341 76.1657 78.1642C76.0621 77.9688 76.0081 77.7526 76.0079 77.5333L76.5418 68.2445Z" fill="#455A64"/>
<path d="M88.6522 87.3946C88.6281 86.5218 88.7636 85.6517 89.0526 84.8241C89.2938 84.2347 89.5903 83.6676 89.9383 83.1299L93.5782 77.5216C93.6318 77.4286 93.697 77.3423 93.7723 77.2645C93.8572 77.1711 93.9907 77.1827 94.1727 77.2645L95.8955 78.2343C96.0647 78.3371 96.1962 78.4882 96.2717 78.6666C96.3671 78.8601 96.4169 79.0716 96.4172 79.2859C96.4261 79.3557 96.4261 79.4263 96.4172 79.4962C96.3988 79.5347 96.3742 79.5701 96.3444 79.6013L93.9179 83.3519C94.7006 83.8136 95.4046 84.389 96.0047 85.0578C96.6467 85.7702 97.1966 86.5548 97.6427 87.3946C98.586 89.2079 99.0763 91.2085 99.0743 93.2366C99.0941 94.1351 98.963 95.0307 98.6861 95.8889C98.4909 96.5168 98.1168 97.0795 97.6063 97.513C97.1408 97.8743 96.5532 98.0573 95.9562 98.0271C95.2049 97.9825 94.4781 97.7532 93.8451 97.3611C93.0439 96.9195 92.3261 96.3506 91.7218 95.6786C91.071 94.9703 90.5165 94.185 90.0717 93.3418C89.1072 91.514 88.6082 89.4915 88.6158 87.4413L88.6522 87.3946ZM96.49 91.7527C96.486 90.7769 96.2538 89.8144 95.8106 88.9369C95.3938 88.0822 94.7223 87.3663 93.8815 86.8805C93.0443 86.4248 92.4013 86.3898 91.9402 86.7987C91.6868 87.0784 91.4957 87.4053 91.3788 87.759C91.262 88.1127 91.2218 88.4858 91.2608 88.8551C91.2661 89.8383 91.4981 90.8081 91.9402 91.6943C92.3496 92.5664 93.0273 93.2965 93.8815 93.7858C94.7065 94.2415 95.3495 94.2648 95.8106 93.8442C96.3032 93.2775 96.5469 92.5482 96.49 91.8112V91.7527Z" fill="#455A64"/>
</g>
<defs>
<filter id="filter0_f_796_8750" x="0" y="0.121918" width="127" height="127.576" filterUnits="userSpaceOnUse" color-interpolation-filters="sRGB">
<feFlood flood-opacity="0" result="BackgroundImageFix"/>
<feBlend mode="normal" in="SourceGraphic" in2="BackgroundImageFix" result="shape"/>
<feGaussianBlur stdDeviation="2" result="effect1_foregroundBlur_796_8750"/>
</filter>
</defs>
</svg>
