<svg width="28" height="24" viewBox="0 0 28 24" fill="none" xmlns="http://www.w3.org/2000/svg">
<path d="M25.199 0.948653C25.199 0.948653 27.6965 -0.0252716 27.4876 2.33979C27.4188 3.31371 26.7946 6.72277 26.3086 10.4095L24.6436 21.3316C24.6436 21.3316 24.5048 22.9317 23.2557 23.2101C22.0073 23.4878 20.1341 22.2361 19.7869 21.9578C19.5092 21.7488 14.5837 18.6181 12.8493 17.0882C12.3633 16.6703 11.8079 15.8359 12.9187 14.862L20.2028 7.90498C21.0353 7.07055 21.8678 5.12271 18.399 7.48777L8.68557 14.0963C8.68557 14.0963 7.57537 14.7925 5.49447 14.1664L0.984254 12.7746C0.984254 12.7746 -0.680723 11.7312 2.16388 10.6879C9.10214 7.41834 17.6359 4.07935 25.1978 0.948653H25.199Z" fill="white"/>
</svg>
