<svg width="36" height="22" viewBox="0 0 36 22" fill="none" xmlns="http://www.w3.org/2000/svg">
<path d="M19.743 21.491C20.6565 21.491 21.03 20.882 21.0195 20.1185C20.973 17.243 22.0905 15.695 24.108 17.7125C26.34 19.9445 26.802 21.491 29.5125 21.491H34.3125C35.5245 21.491 36.0015 21.101 36.0015 20.489C36.0015 19.1945 33.87 16.91 32.064 15.233C29.535 12.8855 29.4165 12.83 31.5945 10.004C34.296 6.4955 37.83 2 34.704 2H28.7325C27.5745 2 27.4905 2.6525 27.078 3.6245C25.5855 7.145 22.749 11.705 21.672 11.0075C20.5455 10.28 21.0615 7.3985 21.147 3.116C21.1695 1.985 21.1635 1.2095 19.4355 0.8075C18.492 0.59 17.574 0.5 16.722 0.5C13.3125 0.5 10.9605 1.9295 12.297 2.1785C14.6535 2.618 14.427 7.7165 13.878 9.9185C12.921 13.7525 9.324 6.8825 7.8255 3.461C7.464 2.639 7.353 2 6.063 2H1.1805C0.4425 2 0 2.24 0 2.774C0 3.677 4.44 12.854 8.679 17.429C12.813 21.8915 16.899 21.491 19.743 21.491Z" fill="white"/>
</svg>
