<svg width="33" height="24" viewBox="0 0 33 24" fill="none" xmlns="http://www.w3.org/2000/svg">
<path d="M31.564 3.81493C31.3837 3.11729 31.0325 2.48569 30.5477 1.98726C30.0492 1.47351 29.4383 1.10601 28.7725 0.919445C26.2809 0.207087 16.2984 0.207088 16.2984 0.207088C12.1369 0.15573 7.97634 0.381615 3.84031 0.883468C3.17453 1.08381 2.56472 1.45952 2.06512 1.97719C1.57423 2.48951 1.21866 3.12128 1.03291 3.81349C0.58672 6.42078 0.369929 9.06816 0.385462 11.7199C0.369541 14.3693 0.585801 17.0159 1.03291 19.6264C1.21468 20.3157 1.56892 20.9446 2.06114 21.4526C2.55336 21.9606 3.16632 22.3276 3.84031 22.5219C6.3651 23.2328 16.2984 23.2328 16.2984 23.2328C20.4653 23.2842 24.6311 23.0583 28.7725 22.5564C29.4383 22.3699 30.0492 22.0024 30.5477 21.4886C31.0323 20.9903 31.3831 20.3586 31.5626 19.6609C32.0205 17.0546 32.2431 14.4062 32.2273 11.753C32.2618 9.08869 32.0394 6.42772 31.564 3.81349V3.81493ZM13.1249 16.6474V6.79388L21.4303 11.7214L13.1249 16.6474Z" fill="white"/>
</svg>
