<svg width="24" height="24" viewBox="0 0 24 24" fill="none" xmlns="http://www.w3.org/2000/svg">
<path d="M13 15.5814L7.85718 16.5071L8.71432 11.2957L18.5372 1.50708C18.6965 1.34641 18.8861 1.21887 19.095 1.13184C19.3039 1.04481 19.528 1 19.7543 1C19.9806 1 20.2047 1.04481 20.4136 1.13184C20.6225 1.21887 20.8121 1.34641 20.9715 1.50708L22.7886 3.32423C22.9493 3.48359 23.0768 3.67319 23.1638 3.88209C23.2509 4.091 23.2957 4.31506 23.2957 4.54137C23.2957 4.76767 23.2509 4.99174 23.1638 5.20064C23.0768 5.40954 22.9493 5.59915 22.7886 5.75851L13 15.5814Z" stroke="#C2410C" stroke-width="1.6" stroke-linecap="round" stroke-linejoin="round"/>
<path d="M20.7143 16.4387V21.5815C20.7143 22.0362 20.5337 22.4722 20.2122 22.7937C19.8907 23.1152 19.4547 23.2958 19 23.2958H2.71429C2.25963 23.2958 1.82359 23.1152 1.5021 22.7937C1.18061 22.4722 1 22.0362 1 21.5815V5.29583C1 4.84117 1.18061 4.40514 1.5021 4.08365C1.82359 3.76215 2.25963 3.58154 2.71429 3.58154H7.85714" stroke="#C2410C" stroke-width="1.6" stroke-linecap="round" stroke-linejoin="round"/>
</svg>
