<svg width="32" height="32" viewBox="0 0 32 32" fill="none" xmlns="http://www.w3.org/2000/svg">
<circle cx="16.3333" cy="16.3333" r="12.3333" stroke="black" stroke-width="2"/>
<path d="M22.0475 17.2858H17.2856V22.0477C17.2856 22.3003 17.1852 22.5425 17.0066 22.7211C16.828 22.8997 16.5858 23.0001 16.3332 23.0001C16.0806 23.0001 15.8383 22.8997 15.6597 22.7211C15.4811 22.5425 15.3808 22.3003 15.3808 22.0477V17.2858H10.6189C10.3663 17.2858 10.1241 17.1855 9.94545 17.0068C9.76684 16.8282 9.6665 16.586 9.6665 16.3334C9.6665 16.0808 9.76684 15.8386 9.94545 15.66C10.1241 15.4814 10.3663 15.381 10.6189 15.381H15.3808V10.6191C15.3808 10.3665 15.4811 10.1243 15.6597 9.94569C15.8383 9.76709 16.0806 9.66675 16.3332 9.66675C16.5858 9.66675 16.828 9.76709 17.0066 9.94569C17.1852 10.1243 17.2856 10.3665 17.2856 10.6191V15.381H22.0475C22.3 15.381 22.5423 15.4814 22.7209 15.66C22.8995 15.8386 22.9998 16.0808 22.9998 16.3334C22.9998 16.586 22.8995 16.8282 22.7209 17.0068C22.5423 17.1855 22.3 17.2858 22.0475 17.2858Z" fill="black" stroke="black" stroke-width="0.5"/>
</svg>
