<svg width="40" height="40" viewBox="0 0 40 40" fill="none" xmlns="http://www.w3.org/2000/svg">
<circle cx="20" cy="20" r="19" fill="url(#paint0_linear_4865_74641)" stroke="white" stroke-width="2"/>
<mask id="path-2-inside-1_4865_74641" fill="white">
<path d="M26 21H21V26C21 26.2652 20.8946 26.5196 20.7071 26.7071C20.5196 26.8946 20.2652 27 20 27C19.7348 27 19.4804 26.8946 19.2929 26.7071C19.1054 26.5196 19 26.2652 19 26V21H14C13.7348 21 13.4804 20.8946 13.2929 20.7071C13.1054 20.5196 13 20.2652 13 20C13 19.7348 13.1054 19.4804 13.2929 19.2929C13.4804 19.1054 13.7348 19 14 19H19V14C19 13.7348 19.1054 13.4804 19.2929 13.2929C19.4804 13.1054 19.7348 13 20 13C20.2652 13 20.5196 13.1054 20.7071 13.2929C20.8946 13.4804 21 13.7348 21 14V19H26C26.2652 19 26.5196 19.1054 26.7071 19.2929C26.8946 19.4804 27 19.7348 27 20C27 20.2652 26.8946 20.5196 26.7071 20.7071C26.5196 20.8946 26.2652 21 26 21Z"/>
</mask>
<path d="M26 21H21V26C21 26.2652 20.8946 26.5196 20.7071 26.7071C20.5196 26.8946 20.2652 27 20 27C19.7348 27 19.4804 26.8946 19.2929 26.7071C19.1054 26.5196 19 26.2652 19 26V21H14C13.7348 21 13.4804 20.8946 13.2929 20.7071C13.1054 20.5196 13 20.2652 13 20C13 19.7348 13.1054 19.4804 13.2929 19.2929C13.4804 19.1054 13.7348 19 14 19H19V14C19 13.7348 19.1054 13.4804 19.2929 13.2929C19.4804 13.1054 19.7348 13 20 13C20.2652 13 20.5196 13.1054 20.7071 13.2929C20.8946 13.4804 21 13.7348 21 14V19H26C26.2652 19 26.5196 19.1054 26.7071 19.2929C26.8946 19.4804 27 19.7348 27 20C27 20.2652 26.8946 20.5196 26.7071 20.7071C26.5196 20.8946 26.2652 21 26 21Z" fill="white"/>
<path d="M21 21V18H18V21H21ZM19 21H22V18H19V21ZM19 19V22H22V19H19ZM20 13V16V13ZM21 19H18V22H21V19ZM26 18H21V24H26V18ZM18 21V26H24V21H18ZM18 26C18 25.4696 18.2107 24.9609 18.5858 24.5858L22.8284 28.8284C23.5786 28.0783 24 27.0609 24 26H18ZM18.5858 24.5858C18.9609 24.2107 19.4696 24 20 24V30C21.0609 30 22.0783 29.5786 22.8284 28.8284L18.5858 24.5858ZM20 24C20.5304 24 21.0391 24.2107 21.4142 24.5858L17.1716 28.8284C17.9217 29.5786 18.9391 30 20 30V24ZM21.4142 24.5858C21.7893 24.9609 22 25.4696 22 26H16C16 27.0609 16.4214 28.0783 17.1716 28.8284L21.4142 24.5858ZM22 26V21H16V26H22ZM19 18H14V24H19V18ZM14 18C14.5304 18 15.0391 18.2107 15.4142 18.5858L11.1716 22.8284C11.9217 23.5786 12.9391 24 14 24V18ZM15.4142 18.5858C15.7893 18.9609 16 19.4696 16 20H10C10 21.0609 10.4214 22.0783 11.1716 22.8284L15.4142 18.5858ZM16 20C16 20.5304 15.7893 21.0391 15.4142 21.4142L11.1716 17.1716C10.4214 17.9217 10 18.9391 10 20H16ZM15.4142 21.4142C15.0391 21.7893 14.5304 22 14 22V16C12.9391 16 11.9217 16.4214 11.1716 17.1716L15.4142 21.4142ZM14 22H19V16H14V22ZM22 19V14H16V19H22ZM22 14C22 14.5304 21.7893 15.0391 21.4142 15.4142L17.1716 11.1716C16.4214 11.9217 16 12.9391 16 14H22ZM21.4142 15.4142C21.0391 15.7893 20.5304 16 20 16V10C18.9391 10 17.9217 10.4214 17.1716 11.1716L21.4142 15.4142ZM20 16C19.4696 16 18.9609 15.7893 18.5858 15.4142L22.8284 11.1716C22.0783 10.4214 21.0609 10 20 10V16ZM18.5858 15.4142C18.2107 15.0391 18 14.5304 18 14H24C24 12.9391 23.5786 11.9217 22.8284 11.1716L18.5858 15.4142ZM18 14V19H24V14H18ZM21 22H26V16H21V22ZM26 22C25.4696 22 24.9609 21.7893 24.5858 21.4142L28.8284 17.1716C28.0783 16.4214 27.0609 16 26 16V22ZM24.5858 21.4142C24.2107 21.0391 24 20.5304 24 20H30C30 18.9391 29.5786 17.9217 28.8284 17.1716L24.5858 21.4142ZM24 20C24 19.4696 24.2107 18.9609 24.5858 18.5858L28.8284 22.8284C29.5786 22.0783 30 21.0609 30 20H24ZM24.5858 18.5858C24.9609 18.2107 25.4696 18 26 18V24C27.0609 24 28.0783 23.5786 28.8284 22.8284L24.5858 18.5858Z" fill="white" mask="url(#path-2-inside-1_4865_74641)"/>
<defs>
<linearGradient id="paint0_linear_4865_74641" x1="1.42857" y1="3" x2="44.3653" y2="11.929" gradientUnits="userSpaceOnUse">
<stop stop-color="#4C1D95"/>
<stop offset="1" stop-color="#881D95"/>
</linearGradient>
</defs>
</svg>
