<svg width="24" height="24" viewBox="0 0 24 24" fill="none" xmlns="http://www.w3.org/2000/svg">
<mask id="path-1-inside-1_2019_19689" fill="white">
<path d="M16.2857 12.7143H12.7143V16.2857C12.7143 16.4752 12.639 16.6568 12.5051 16.7908C12.3711 16.9247 12.1894 17 12 17C11.8106 17 11.6289 16.9247 11.4949 16.7908C11.361 16.6568 11.2857 16.4752 11.2857 16.2857V12.7143H7.71429C7.52485 12.7143 7.34316 12.639 7.20921 12.5051C7.07526 12.3711 7 12.1894 7 12C7 11.8106 7.07526 11.6289 7.20921 11.4949C7.34316 11.361 7.52485 11.2857 7.71429 11.2857H11.2857V7.71429C11.2857 7.52485 11.361 7.34316 11.4949 7.20921C11.6289 7.07525 11.8106 7 12 7C12.1894 7 12.3711 7.07525 12.5051 7.20921C12.639 7.34316 12.7143 7.52485 12.7143 7.71429V11.2857H16.2857C16.4752 11.2857 16.6568 11.361 16.7908 11.4949C16.9247 11.6289 17 11.8106 17 12C17 12.1894 16.9247 12.3711 16.7908 12.5051C16.6568 12.639 16.4752 12.7143 16.2857 12.7143Z"/>
</mask>
<path d="M12.7143 12.7143V9.51429H9.51429V12.7143H12.7143ZM11.2857 12.7143H14.4857V9.51429H11.2857V12.7143ZM11.2857 11.2857V14.4857H14.4857V11.2857H11.2857ZM12 7V10.2V7ZM12.7143 11.2857H9.51429V14.4857H12.7143V11.2857ZM16.2857 9.51429H12.7143V15.9143H16.2857V9.51429ZM9.51429 12.7143V16.2857H15.9143V12.7143H9.51429ZM9.51429 16.2857C9.51429 15.6265 9.77617 14.9942 10.2423 14.528L14.7678 19.0535C15.5019 18.3195 15.9143 17.3238 15.9143 16.2857H9.51429ZM10.2423 14.528C10.7085 14.0619 11.3408 13.8 12 13.8V20.2C13.0381 20.2 14.0337 19.7876 14.7678 19.0535L10.2423 14.528ZM12 13.8C12.6592 13.8 13.2915 14.0619 13.7577 14.528L9.23218 19.0535C9.96626 19.7876 10.9619 20.2 12 20.2V13.8ZM13.7577 14.528C14.2238 14.9942 14.4857 15.6265 14.4857 16.2857H8.08571C8.08571 17.3238 8.49811 18.3195 9.23218 19.0535L13.7577 14.528ZM14.4857 16.2857V12.7143H8.08571V16.2857H14.4857ZM11.2857 9.51429H7.71429V15.9143H11.2857V9.51429ZM7.71429 9.51429C8.37354 9.51429 9.00579 9.77618 9.47195 10.2423L4.94647 14.7678C5.68054 15.5019 6.67615 15.9143 7.71429 15.9143V9.51429ZM9.47195 10.2423C9.93811 10.7085 10.2 11.3407 10.2 12H3.8C3.8 13.0381 4.2124 14.0337 4.94647 14.7678L9.47195 10.2423ZM10.2 12C10.2 12.6593 9.93811 13.2915 9.47195 13.7577L4.94647 9.23218C4.2124 9.96625 3.8 10.9619 3.8 12H10.2ZM9.47195 13.7577C9.00579 14.2238 8.37354 14.4857 7.71429 14.4857V8.08571C6.67615 8.08571 5.68054 8.49812 4.94647 9.23218L9.47195 13.7577ZM7.71429 14.4857H11.2857V8.08571H7.71429V14.4857ZM14.4857 11.2857V7.71429H8.08571V11.2857H14.4857ZM14.4857 7.71429C14.4857 8.37354 14.2238 9.00579 13.7577 9.47195L9.23218 4.94647C8.49811 5.68054 8.08571 6.67615 8.08571 7.71429H14.4857ZM13.7577 9.47195C13.2915 9.93811 12.6593 10.2 12 10.2V3.8C10.9619 3.8 9.96625 4.2124 9.23218 4.94647L13.7577 9.47195ZM12 10.2C11.3407 10.2 10.7085 9.93811 10.2423 9.47195L14.7678 4.94647C14.0337 4.2124 13.0381 3.8 12 3.8V10.2ZM10.2423 9.47195C9.77617 9.00579 9.51429 8.37354 9.51429 7.71429H15.9143C15.9143 6.67615 15.5019 5.68054 14.7678 4.94647L10.2423 9.47195ZM9.51429 7.71429V11.2857H15.9143V7.71429H9.51429ZM12.7143 14.4857H16.2857V8.08571H12.7143V14.4857ZM16.2857 14.4857C15.6265 14.4857 14.9942 14.2238 14.528 13.7577L19.0535 9.23218C18.3195 8.49811 17.3238 8.08571 16.2857 8.08571V14.4857ZM14.528 13.7577C14.0619 13.2915 13.8 12.6592 13.8 12H20.2C20.2 10.9619 19.7876 9.96626 19.0535 9.23218L14.528 13.7577ZM13.8 12C13.8 11.3408 14.0619 10.7085 14.528 10.2423L19.0535 14.7678C19.7876 14.0337 20.2 13.0381 20.2 12H13.8ZM14.528 10.2423C14.9942 9.77617 15.6265 9.51429 16.2857 9.51429V15.9143C17.3238 15.9143 18.3195 15.5019 19.0535 14.7678L14.528 10.2423Z" fill="white" mask="url(#path-1-inside-1_2019_19689)"/>
<circle cx="12" cy="12" r="9.2" stroke="white" stroke-width="1.6"/>
</svg>
