<svg width="14" height="14" viewBox="0 0 14 14" fill="none" xmlns="http://www.w3.org/2000/svg">
<mask id="path-1-inside-1_3972_29033" fill="white">
<path d="M13 8H8V13C8 13.2652 7.89464 13.5196 7.70711 13.7071C7.51957 13.8946 7.26522 14 7 14C6.73478 14 6.48043 13.8946 6.29289 13.7071C6.10536 13.5196 6 13.2652 6 13V8H1C0.734784 8 0.48043 7.89464 0.292893 7.70711C0.105357 7.51957 0 7.26522 0 7C0 6.73478 0.105357 6.48043 0.292893 6.29289C0.48043 6.10536 0.734784 6 1 6H6V1C6 0.734784 6.10536 0.480429 6.29289 0.292893C6.48043 0.105357 6.73478 0 7 0C7.26522 0 7.51957 0.105357 7.70711 0.292893C7.89464 0.480429 8 0.734784 8 1V6H13C13.2652 6 13.5196 6.10536 13.7071 6.29289C13.8946 6.48043 14 6.73478 14 7C14 7.26522 13.8946 7.51957 13.7071 7.70711C13.5196 7.89464 13.2652 8 13 8Z"/>
</mask>
<path d="M13 8H8V13C8 13.2652 7.89464 13.5196 7.70711 13.7071C7.51957 13.8946 7.26522 14 7 14C6.73478 14 6.48043 13.8946 6.29289 13.7071C6.10536 13.5196 6 13.2652 6 13V8H1C0.734784 8 0.48043 7.89464 0.292893 7.70711C0.105357 7.51957 0 7.26522 0 7C0 6.73478 0.105357 6.48043 0.292893 6.29289C0.48043 6.10536 0.734784 6 1 6H6V1C6 0.734784 6.10536 0.480429 6.29289 0.292893C6.48043 0.105357 6.73478 0 7 0C7.26522 0 7.51957 0.105357 7.70711 0.292893C7.89464 0.480429 8 0.734784 8 1V6H13C13.2652 6 13.5196 6.10536 13.7071 6.29289C13.8946 6.48043 14 6.73478 14 7C14 7.26522 13.8946 7.51957 13.7071 7.70711C13.5196 7.89464 13.2652 8 13 8Z" fill="url(#paint0_linear_3972_29033)"/>
<path d="M8 8V5H5V8H8ZM6 8H9V5H6V8ZM6 6V9H9V6H6ZM7 0V3V0ZM8 6H5V9H8V6ZM13 5H8V11H13V5ZM5 8V13H11V8H5ZM5 13C5 12.4696 5.21071 11.9609 5.58579 11.5858L9.82843 15.8284C10.5786 15.0783 11 14.0609 11 13H5ZM5.58579 11.5858C5.96086 11.2107 6.46957 11 7 11V17C8.06086 17 9.07828 16.5786 9.82843 15.8284L5.58579 11.5858ZM7 11C7.53043 11 8.03914 11.2107 8.41421 11.5858L4.17157 15.8284C4.92172 16.5786 5.93914 17 7 17V11ZM8.41421 11.5858C8.78929 11.9609 9 12.4696 9 13H3C3 14.0609 3.42143 15.0783 4.17157 15.8284L8.41421 11.5858ZM9 13V8H3V13H9ZM6 5H1V11H6V5ZM1 5C1.53044 5 2.03914 5.21072 2.41421 5.58579L-1.82843 9.82843C-1.07828 10.5786 -0.0608706 11 1 11V5ZM2.41421 5.58579C2.78928 5.96086 3 6.46956 3 7H-3C-3 8.06087 -2.57857 9.07828 -1.82843 9.82843L2.41421 5.58579ZM3 7C3 7.53044 2.78928 8.03914 2.41421 8.41422L-1.82843 4.17157C-2.57857 4.92172 -3 5.93913 -3 7H3ZM2.41421 8.41422C2.03914 8.78928 1.53044 9 1 9V3C-0.0608706 3 -1.07828 3.42143 -1.82843 4.17157L2.41421 8.41422ZM1 9H6V3H1V9ZM9 6V1H3V6H9ZM9 1C9 1.53044 8.78928 2.03914 8.41421 2.41421L4.17157 -1.82843C3.42143 -1.07828 3 -0.0608688 3 1H9ZM8.41421 2.41421C8.03914 2.78929 7.53043 3 7 3V-3C5.93913 -3 4.92172 -2.57857 4.17157 -1.82843L8.41421 2.41421ZM7 3C6.46957 3 5.96086 2.78929 5.58579 2.41421L9.82843 -1.82843C9.07828 -2.57857 8.06087 -3 7 -3V3ZM5.58579 2.41421C5.21072 2.03914 5 1.53044 5 1H11C11 -0.0608688 10.5786 -1.07828 9.82843 -1.82843L5.58579 2.41421ZM5 1V6H11V1H5ZM8 9H13V3H8V9ZM13 9C12.4696 9 11.9609 8.78929 11.5858 8.41422L15.8284 4.17157C15.0783 3.42143 14.0609 3 13 3V9ZM11.5858 8.41422C11.2107 8.03914 11 7.53043 11 7H17C17 5.93914 16.5786 4.92172 15.8284 4.17157L11.5858 8.41422ZM11 7C11 6.46957 11.2107 5.96086 11.5858 5.58579L15.8284 9.82843C16.5786 9.07828 17 8.06086 17 7H11ZM11.5858 5.58579C11.9609 5.21072 12.4696 5 13 5V11C14.0609 11 15.0783 10.5786 15.8284 9.82843L11.5858 5.58579Z" fill="url(#paint1_linear_3972_29033)" mask="url(#path-1-inside-1_3972_29033)"/>
<defs>
<linearGradient id="paint0_linear_3972_29033" x1="0.5" y1="1.05" x2="15.5278" y2="4.17514" gradientUnits="userSpaceOnUse">
<stop stop-color="#4C1D95"/>
<stop offset="1" stop-color="#881D95"/>
</linearGradient>
<linearGradient id="paint1_linear_3972_29033" x1="0.5" y1="1.05" x2="15.5278" y2="4.17514" gradientUnits="userSpaceOnUse">
<stop stop-color="#4C1D95"/>
<stop offset="1" stop-color="#881D95"/>
</linearGradient>
</defs>
</svg>
