<svg width="24" height="24" viewBox="0 0 24 24" fill="none" xmlns="http://www.w3.org/2000/svg">
<mask id="path-1-inside-1_5060_62562" fill="white">
<path d="M18 13H13V18C13 18.2652 12.8946 18.5196 12.7071 18.7071C12.5196 18.8946 12.2652 19 12 19C11.7348 19 11.4804 18.8946 11.2929 18.7071C11.1054 18.5196 11 18.2652 11 18V13H6C5.73478 13 5.48043 12.8946 5.29289 12.7071C5.10536 12.5196 5 12.2652 5 12C5 11.7348 5.10536 11.4804 5.29289 11.2929C5.48043 11.1054 5.73478 11 6 11H11V6C11 5.73478 11.1054 5.48043 11.2929 5.29289C11.4804 5.10536 11.7348 5 12 5C12.2652 5 12.5196 5.10536 12.7071 5.29289C12.8946 5.48043 13 5.73478 13 6V11H18C18.2652 11 18.5196 11.1054 18.7071 11.2929C18.8946 11.4804 19 11.7348 19 12C19 12.2652 18.8946 12.5196 18.7071 12.7071C18.5196 12.8946 18.2652 13 18 13Z"/>
</mask>
<path d="M18 13H13V18C13 18.2652 12.8946 18.5196 12.7071 18.7071C12.5196 18.8946 12.2652 19 12 19C11.7348 19 11.4804 18.8946 11.2929 18.7071C11.1054 18.5196 11 18.2652 11 18V13H6C5.73478 13 5.48043 12.8946 5.29289 12.7071C5.10536 12.5196 5 12.2652 5 12C5 11.7348 5.10536 11.4804 5.29289 11.2929C5.48043 11.1054 5.73478 11 6 11H11V6C11 5.73478 11.1054 5.48043 11.2929 5.29289C11.4804 5.10536 11.7348 5 12 5C12.2652 5 12.5196 5.10536 12.7071 5.29289C12.8946 5.48043 13 5.73478 13 6V11H18C18.2652 11 18.5196 11.1054 18.7071 11.2929C18.8946 11.4804 19 11.7348 19 12C19 12.2652 18.8946 12.5196 18.7071 12.7071C18.5196 12.8946 18.2652 13 18 13Z" fill="url(#paint0_linear_5060_62562)"/>
<path d="M13 13V10H10V13H13ZM11 13H14V10H11V13ZM11 11V14H14V11H11ZM12 5V8V5ZM13 11H10V14H13V11ZM18 10H13V16H18V10ZM10 13V18H16V13H10ZM10 18C10 17.4696 10.2107 16.9609 10.5858 16.5858L14.8284 20.8284C15.5786 20.0783 16 19.0609 16 18H10ZM10.5858 16.5858C10.9609 16.2107 11.4696 16 12 16V22C13.0609 22 14.0783 21.5786 14.8284 20.8284L10.5858 16.5858ZM12 16C12.5304 16 13.0391 16.2107 13.4142 16.5858L9.17157 20.8284C9.92172 21.5786 10.9391 22 12 22V16ZM13.4142 16.5858C13.7893 16.9609 14 17.4696 14 18H8C8 19.0609 8.42143 20.0783 9.17157 20.8284L13.4142 16.5858ZM14 18V13H8V18H14ZM11 10H6V16H11V10ZM6 10C6.53044 10 7.03914 10.2107 7.41421 10.5858L3.17157 14.8284C3.92172 15.5786 4.93913 16 6 16V10ZM7.41421 10.5858C7.78928 10.9609 8 11.4696 8 12H2C2 13.0609 2.42143 14.0783 3.17157 14.8284L7.41421 10.5858ZM8 12C8 12.5304 7.78928 13.0391 7.41421 13.4142L3.17157 9.17157C2.42143 9.92172 2 10.9391 2 12H8ZM7.41421 13.4142C7.03914 13.7893 6.53044 14 6 14V8C4.93913 8 3.92172 8.42143 3.17157 9.17157L7.41421 13.4142ZM6 14H11V8H6V14ZM14 11V6H8V11H14ZM14 6C14 6.53044 13.7893 7.03914 13.4142 7.41421L9.17157 3.17157C8.42143 3.92172 8 4.93913 8 6H14ZM13.4142 7.41421C13.0391 7.78929 12.5304 8 12 8V2C10.9391 2 9.92172 2.42143 9.17157 3.17157L13.4142 7.41421ZM12 8C11.4696 8 10.9609 7.78929 10.5858 7.41421L14.8284 3.17157C14.0783 2.42143 13.0609 2 12 2V8ZM10.5858 7.41421C10.2107 7.03914 10 6.53044 10 6H16C16 4.93913 15.5786 3.92172 14.8284 3.17157L10.5858 7.41421ZM10 6V11H16V6H10ZM13 14H18V8H13V14ZM18 14C17.4696 14 16.9609 13.7893 16.5858 13.4142L20.8284 9.17157C20.0783 8.42143 19.0609 8 18 8V14ZM16.5858 13.4142C16.2107 13.0391 16 12.5304 16 12H22C22 10.9391 21.5786 9.92172 20.8284 9.17157L16.5858 13.4142ZM16 12C16 11.4696 16.2107 10.9609 16.5858 10.5858L20.8284 14.8284C21.5786 14.0783 22 13.0609 22 12H16ZM16.5858 10.5858C16.9609 10.2107 17.4696 10 18 10V16C19.0609 16 20.0783 15.5786 20.8284 14.8284L16.5858 10.5858Z" fill="url(#paint1_linear_5060_62562)" mask="url(#path-1-inside-1_5060_62562)"/>
<defs>
<linearGradient id="paint0_linear_5060_62562" x1="5.5" y1="6.05" x2="20.5278" y2="9.17514" gradientUnits="userSpaceOnUse">
<stop stop-color="#4C1D95"/>
<stop offset="1" stop-color="#881D95"/>
</linearGradient>
<linearGradient id="paint1_linear_5060_62562" x1="5.5" y1="6.05" x2="20.5278" y2="9.17514" gradientUnits="userSpaceOnUse">
<stop stop-color="#4C1D95"/>
<stop offset="1" stop-color="#881D95"/>
</linearGradient>
</defs>
</svg>
