<svg width="24" height="24" viewBox="0 0 24 24" fill="none" xmlns="http://www.w3.org/2000/svg">
<mask id="path-1-inside-1_1823_15993" fill="white">
<path d="M18 13H13V18C13 18.2652 12.8946 18.5196 12.7071 18.7071C12.5196 18.8946 12.2652 19 12 19C11.7348 19 11.4804 18.8946 11.2929 18.7071C11.1054 18.5196 11 18.2652 11 18V13H6C5.73478 13 5.48043 12.8946 5.29289 12.7071C5.10536 12.5196 5 12.2652 5 12C5 11.7348 5.10536 11.4804 5.29289 11.2929C5.48043 11.1054 5.73478 11 6 11H11V6C11 5.73478 11.1054 5.48043 11.2929 5.29289C11.4804 5.10536 11.7348 5 12 5C12.2652 5 12.5196 5.10536 12.7071 5.29289C12.8946 5.48043 13 5.73478 13 6V11H18C18.2652 11 18.5196 11.1054 18.7071 11.2929C18.8946 11.4804 19 11.7348 19 12C19 12.2652 18.8946 12.5196 18.7071 12.7071C18.5196 12.8946 18.2652 13 18 13Z"/>
</mask>
<path d="M13 13V9.8H9.8V13H13ZM11 13H14.2V9.8H11V13ZM11 11V14.2H14.2V11H11ZM12 5V8.2V5ZM13 11H9.8V14.2H13V11ZM18 9.8H13V16.2H18V9.8ZM9.8 13V18H16.2V13H9.8ZM9.8 18C9.8 17.4165 10.0318 16.8569 10.4444 16.4444L14.9698 20.9698C15.7575 20.1822 16.2 19.1139 16.2 18H9.8ZM10.4444 16.4444C10.8569 16.0318 11.4165 15.8 12 15.8V22.2C13.1139 22.2 14.1822 21.7575 14.9698 20.9698L10.4444 16.4444ZM12 15.8C12.5835 15.8 13.1431 16.0318 13.5556 16.4444L9.03015 20.9698C9.81781 21.7575 10.8861 22.2 12 22.2V15.8ZM13.5556 16.4444C13.9682 16.8569 14.2 17.4165 14.2 18H7.8C7.8 19.1139 8.2425 20.1822 9.03015 20.9698L13.5556 16.4444ZM14.2 18V13H7.8V18H14.2ZM11 9.8H6V16.2H11V9.8ZM6 9.8C6.58348 9.8 7.14306 10.0318 7.55564 10.4444L3.03015 14.9698C3.8178 15.7575 4.88609 16.2 6 16.2V9.8ZM7.55564 10.4444C7.96821 10.8569 8.2 11.4165 8.2 12H1.8C1.8 13.1139 2.2425 14.1822 3.03015 14.9698L7.55564 10.4444ZM8.2 12C8.2 12.5835 7.96821 13.1431 7.55564 13.5556L3.03015 9.03015C2.2425 9.8178 1.8 10.8861 1.8 12H8.2ZM7.55564 13.5556C7.14306 13.9682 6.58348 14.2 6 14.2V7.8C4.88609 7.8 3.8178 8.2425 3.03015 9.03015L7.55564 13.5556ZM6 14.2H11V7.8H6V14.2ZM14.2 11V6H7.8V11H14.2ZM14.2 6C14.2 6.58348 13.9682 7.14306 13.5556 7.55563L9.03015 3.03015C8.2425 3.8178 7.8 4.88609 7.8 6H14.2ZM13.5556 7.55563C13.1431 7.96821 12.5835 8.2 12 8.2V1.8C10.8861 1.8 9.81781 2.2425 9.03015 3.03015L13.5556 7.55563ZM12 8.2C11.4165 8.2 10.8569 7.96821 10.4444 7.55563L14.9698 3.03015C14.1822 2.2425 13.1139 1.8 12 1.8V8.2ZM10.4444 7.55563C10.0318 7.14306 9.8 6.58348 9.8 6H16.2C16.2 4.88609 15.7575 3.8178 14.9698 3.03015L10.4444 7.55563ZM9.8 6V11H16.2V6H9.8ZM13 14.2H18V7.8H13V14.2ZM18 14.2C17.4165 14.2 16.8569 13.9682 16.4444 13.5556L20.9698 9.03015C20.1822 8.2425 19.1139 7.8 18 7.8V14.2ZM16.4444 13.5556C16.0318 13.1431 15.8 12.5835 15.8 12H22.2C22.2 10.8861 21.7575 9.81781 20.9698 9.03015L16.4444 13.5556ZM15.8 12C15.8 11.4165 16.0318 10.8569 16.4444 10.4444L20.9698 14.9698C21.7575 14.1822 22.2 13.1139 22.2 12H15.8ZM16.4444 10.4444C16.8569 10.0318 17.4165 9.8 18 9.8V16.2C19.1139 16.2 20.1822 15.7575 20.9698 14.9698L16.4444 10.4444Z" fill="white" mask="url(#path-1-inside-1_1823_15993)"/>
</svg>
