<svg width="6" height="10" viewBox="0 0 6 10" fill="none" xmlns="http://www.w3.org/2000/svg">
<path d="M5.41984 0.773938C5.53993 0.88988 5.59997 1.02716 5.59997 1.18576C5.59997 1.34437 5.53993 1.48149 5.41984 1.59713L1.90113 4.99423L5.43185 8.40292C5.54393 8.51114 5.59998 8.6464 5.59998 8.80872C5.59998 8.97104 5.53993 9.11017 5.41984 9.22611C5.29975 9.34205 5.15756 9.40002 4.99327 9.40002C4.82898 9.40002 4.68695 9.34205 4.56718 9.22611L0.532083 5.31887C0.484046 5.27249 0.449941 5.22225 0.429765 5.16814C0.40959 5.11404 0.399662 5.05606 0.399982 4.99423C0.399982 4.93239 0.410069 4.87442 0.430245 4.82032C0.45042 4.76621 0.484366 4.71597 0.532083 4.66959L4.57919 0.762343C4.69128 0.654131 4.82946 0.600025 4.99375 0.600025C5.15804 0.600025 5.30006 0.657996 5.41984 0.773938Z" fill="white" stroke="white" stroke-width="0.4"/>
</svg>
