<svg width="7" height="10" viewBox="0 0 7 10" fill="none" xmlns="http://www.w3.org/2000/svg">
<path d="M1.74244e-05 5C1.74296e-05 4.88042 0.0267356 4.76442 0.0801704 4.65202C0.133605 4.53961 0.204852 4.44634 0.29391 4.3722L5.20993 0.246636C5.40586 0.0822118 5.65522 -5.87822e-08 5.95802 -4.55465e-08C6.26082 -3.23107e-08 6.51018 0.0822119 6.70611 0.246636C6.90204 0.411061 7 0.620329 7 0.874439C7 1.12855 6.90204 1.33782 6.70611 1.50224L2.53818 5L6.70611 8.49776C6.90204 8.66218 7 8.87145 7 9.12556C7 9.37967 6.90204 9.58894 6.70611 9.75336C6.51018 9.91779 6.26082 10 5.95802 10C5.65522 10 5.40586 9.91779 5.20993 9.75336L0.29391 5.6278C0.18704 5.53812 0.111162 5.44096 0.0662768 5.33632C0.0213916 5.23169 -0.000695452 5.11958 1.74244e-05 5Z" fill="#0F0421"/>
</svg>
