<svg width="32" height="32" viewBox="0 0 32 32" fill="none" xmlns="http://www.w3.org/2000/svg">
<rect width="32" height="32" rx="6" fill="#7493FE"/>
<path d="M24.7992 15.9188C24.8005 15.7309 24.7626 15.5448 24.688 15.3723C24.6134 15.1998 24.5037 15.0447 24.366 14.917L15.9992 7.20007L7.63248 14.917C7.49469 15.0447 7.38501 15.1998 7.31043 15.3723C7.23584 15.5448 7.19798 15.7309 7.19925 15.9188V23.4462C7.19925 23.8052 7.34189 24.1496 7.59578 24.4035C7.84968 24.6574 8.19403 24.8 8.55309 24.8H23.4453C23.8044 24.8 24.1488 24.6574 24.4027 24.4035C24.6566 24.1496 24.7992 23.8052 24.7992 23.4462V15.9188Z" stroke="white" stroke-width="1.6" stroke-linecap="round" stroke-linejoin="round"/>
</svg>
