<svg width="10" height="6" viewBox="0 0 10 6" fill="none" xmlns="http://www.w3.org/2000/svg">
<path d="M0.774304 0.580162C0.890246 0.46007 1.02752 0.400024 1.18613 0.400024C1.34474 0.400024 1.48186 0.46007 1.59749 0.580162L4.99459 4.09886L8.40329 0.568153C8.5115 0.456067 8.64677 0.400024 8.80909 0.400024C8.97141 0.400024 9.11054 0.460071 9.22648 0.580163C9.34242 0.700255 9.40039 0.842444 9.40039 1.00673C9.40039 1.17102 9.34242 1.31305 9.22648 1.43282L5.31923 5.46792C5.27285 5.51595 5.22261 5.55006 5.16851 5.57023C5.1144 5.59041 5.05643 5.60034 4.99459 5.60002C4.93276 5.60002 4.87479 5.58993 4.82068 5.56975C4.76657 5.54958 4.71633 5.51563 4.66996 5.46792L0.76271 1.42081C0.654497 1.30872 0.600391 1.17054 0.600391 1.00625C0.600391 0.841963 0.658362 0.699934 0.774304 0.580162Z" fill="#545454" stroke="#545454" stroke-width="0.3"/>
</svg>
