<svg width="24" height="24" viewBox="0 0 24 24" fill="none" xmlns="http://www.w3.org/2000/svg">
<g clip-path="url(#clip0_6638_28723)">
<path d="M22.2858 11.6744L12.0858 21.9601C11.69 22.3633 11.2178 22.6837 10.6969 22.9023C10.1759 23.121 9.61651 23.2336 9.05149 23.2336C8.48647 23.2336 7.92712 23.121 7.40613 22.9023C6.88514 22.6837 6.41297 22.3633 6.01721 21.9601L2.96578 18.8572C2.16697 18.0459 1.71924 16.953 1.71924 15.8144C1.71924 14.6758 2.16697 13.5829 2.96578 12.7715L13.8343 1.86866C14.1531 1.5473 14.5323 1.29224 14.9501 1.11817C15.3679 0.944109 15.816 0.854492 16.2686 0.854492C16.7212 0.854492 17.1694 0.944109 17.5872 1.11817C18.005 1.29224 18.3842 1.5473 18.7029 1.86866L19.9201 3.0858C20.2414 3.40453 20.4965 3.78374 20.6705 4.20154C20.8446 4.61934 20.9342 5.06747 20.9342 5.52009C20.9342 5.9727 20.8446 6.42083 20.6705 6.83864C20.4965 7.25644 20.2414 7.63564 19.9201 7.95437L10.2858 17.6229C10.1264 17.7836 9.93681 17.9112 9.72791 17.9982C9.51901 18.0852 9.29494 18.13 9.06863 18.13C8.84233 18.13 8.61826 18.0852 8.40936 17.9982C8.20046 17.9112 8.01086 17.7836 7.85149 17.6229L7.25149 17.0058C7.09081 16.8464 6.96328 16.6568 6.87625 16.4479C6.78922 16.239 6.74441 16.015 6.74441 15.7887C6.74441 15.5624 6.78922 15.3383 6.87625 15.1294C6.96328 14.9205 7.09081 14.7309 7.25149 14.5715L13.7143 8.16009" stroke="#B79DCB" stroke-width="1.71429" stroke-linecap="round" stroke-linejoin="round"/>
</g>
<defs>
<clipPath id="clip0_6638_28723">
<rect width="24" height="24" fill="white"/>
</clipPath>
</defs>
</svg>
