<svg width="24" height="24" viewBox="0 0 24 24" fill="none" xmlns="http://www.w3.org/2000/svg">
<path d="M9.5726 5.48569L10.1623 3.96341C10.2618 3.70567 10.4367 3.48397 10.6643 3.32736C10.8919 3.17074 11.1615 3.08651 11.4377 3.08569H12.5623C12.8386 3.08651 13.1082 3.17074 13.3357 3.32736C13.5633 3.48397 13.7383 3.70567 13.8377 3.96341L14.4275 5.48569L16.4297 6.63769L18.048 6.39084C18.3175 6.35426 18.5917 6.39862 18.8359 6.51827C19.0801 6.63793 19.2832 6.82748 19.4195 7.06284L19.968 8.02284C20.1086 8.26194 20.1734 8.53805 20.1538 8.81473C20.1342 9.0914 20.0312 9.35563 19.8583 9.57255L18.8572 10.848V13.152L19.8857 14.4274C20.0586 14.6443 20.1616 14.9086 20.1812 15.1852C20.2008 15.4619 20.136 15.738 19.9955 15.9771L19.4469 16.9371C19.3107 17.1725 19.1076 17.362 18.8634 17.4817C18.6192 17.6013 18.3449 17.6457 18.0755 17.6091L16.4572 17.3623L14.4549 18.5143L13.8652 20.0366C13.7657 20.2943 13.5907 20.516 13.3632 20.6726C13.1356 20.8292 12.866 20.9134 12.5897 20.9143H11.4377C11.1615 20.9134 10.8919 20.8292 10.6643 20.6726C10.4367 20.516 10.2618 20.2943 10.1623 20.0366L9.5726 18.5143L7.57032 17.3623L5.95203 17.6091C5.68257 17.6457 5.40831 17.6013 5.16412 17.4817C4.91993 17.362 4.71682 17.1725 4.5806 16.9371L4.03203 15.9771C3.89146 15.738 3.8267 15.4619 3.84628 15.1852C3.86587 14.9086 3.96889 14.6443 4.14174 14.4274L5.14289 13.152V10.848L4.11432 9.57255C3.94146 9.35563 3.83844 9.0914 3.81885 8.81473C3.79927 8.53805 3.86403 8.26194 4.0046 8.02284L4.55317 7.06284C4.68939 6.82748 4.8925 6.63793 5.13669 6.51827C5.38088 6.39862 5.65514 6.35426 5.9246 6.39084L7.54289 6.63769L9.5726 5.48569ZM9.25717 12C9.25717 12.5425 9.41804 13.0728 9.71943 13.5238C10.0208 13.9749 10.4492 14.3264 10.9504 14.534C11.4516 14.7416 12.0031 14.796 12.5351 14.6901C13.0672 14.5843 13.5559 14.3231 13.9395 13.9395C14.3231 13.5559 14.5844 13.0671 14.6902 12.5351C14.796 12.003 14.7417 11.4515 14.5341 10.9503C14.3265 10.4491 13.9749 10.0208 13.5239 9.71938C13.0728 9.41799 12.5425 9.25712 12 9.25712C11.2726 9.25712 10.5749 9.5461 10.0605 10.0605C9.54615 10.5749 9.25717 11.2725 9.25717 12Z" stroke="white" stroke-width="1.6" stroke-linecap="round" stroke-linejoin="round"/>
</svg>
