<svg width="408" height="388" viewBox="0 0 408 388" fill="none" xmlns="http://www.w3.org/2000/svg">
<path d="M59.7503 329.231C139.413 378.276 268.578 378.276 348.25 329.231C427.921 280.187 427.912 200.608 348.25 151.606C268.587 102.603 139.413 102.562 59.7503 151.606C-19.9123 200.65 -19.9212 280.156 59.7503 329.231Z" fill="url(#paint0_linear_5812_101865)"/>
<path d="M128.625 200.357L196.599 249.1L228.859 259.352L271.84 240.533L310.228 240.654L329.408 212.18L310.228 135.499L296.401 127.761L283.086 53.7476L231.177 55.898L221.547 96.0136L206.082 101.498L191.173 136.328L156.389 146.406L128.625 200.357Z" fill="#37474F"/>
<path d="M270.166 199.901L225.043 218.754L171.679 188.683L226.22 205.929L270.166 199.901Z" fill="#455A64"/>
<path d="M228.858 259.353L225.042 218.754L270.164 199.901L271.839 240.535L228.858 259.353Z" fill="#263238"/>
<path d="M299.355 163.636L310.228 240.654L329.407 212.181L310.228 135.499L299.355 163.636Z" fill="#263238"/>
<path d="M231.177 55.898L276.11 71.1842L283.086 53.7476L231.177 55.898Z" fill="#BA68C8"/>
<path opacity="0.35" d="M231.177 55.898L276.11 71.1842L283.086 53.7476L231.177 55.898Z" fill="white"/>
<path d="M296.4 127.762L284.957 156.59L220.443 170.572L299.355 163.637L310.228 135.5L296.4 127.762Z" fill="#455A64"/>
<path d="M296.401 127.761L284.957 156.589L276.11 71.1842L283.086 53.7476L296.401 127.761Z" fill="#263238"/>
<path d="M156.389 146.404L191.172 136.326L205.723 161.293L156.389 146.404Z" fill="#455A64"/>
<path d="M221.546 96.0132L232.887 116.352L274.749 121.309L223.733 127.078L206.081 101.497L221.546 96.0132Z" fill="#455A64"/>
<path d="M104.182 244.118L153.297 268.153L196.599 249.102L195.787 221.103L173.822 202.777L154.591 194.779L135.258 187.438L117.819 192.56L104.182 244.118Z" fill="#37474F"/>
<path d="M173.822 202.777L165.91 225.232L140.383 229.723L111.925 220.931L155.278 243.377L187.064 234.084L195.787 221.104L173.822 202.777Z" fill="#455A64"/>
<path d="M153.297 268.153L155.278 243.375L187.064 234.082L195.787 221.102L196.599 249.101L153.297 268.153Z" fill="#263238"/>
<path d="M135.258 187.438L117.818 192.56L137.247 201.015L154.591 194.779L135.258 187.438Z" fill="#455A64"/>
<path d="M270.092 273.945L287.093 283.497V267.33L275.898 259.497L270.092 273.945Z" fill="#263238"/>
<path d="M294.559 262.192L287.093 267.331V283.498L298.288 277.133L294.559 262.192Z" fill="#37474F"/>
<path d="M275.898 259.497L286.062 258.271L294.559 262.192L287.093 267.33L275.898 259.497Z" fill="#455A64"/>
<path d="M293.938 271.96L297.133 274.413L302.405 273.187L298.859 271.244H296.439L293.938 271.96Z" fill="#455A64"/>
<path d="M296.27 282.574L297.132 274.412L302.404 273.186L303.786 277.271L296.27 282.574Z" fill="#37474F"/>
<path d="M293.937 271.96L291.253 281.149L296.269 282.574L297.132 274.413L293.937 271.96Z" fill="#263238"/>
<path d="M270.092 273.945L287.093 283.497V267.33L275.898 259.497L270.092 273.945Z" fill="#263238"/>
<path d="M294.559 262.192L287.093 267.331V283.498L298.288 277.133L294.559 262.192Z" fill="#37474F"/>
<path d="M275.898 259.497L286.062 258.271L294.559 262.192L287.093 267.33L275.898 259.497Z" fill="#455A64"/>
<path d="M293.938 271.96L297.133 274.413L302.405 273.187L298.859 271.244H296.439L293.938 271.96Z" fill="#455A64"/>
<path d="M296.27 282.574L297.132 274.412L302.404 273.186L303.786 277.271L296.27 282.574Z" fill="#37474F"/>
<path d="M293.937 271.96L291.253 281.149L296.269 282.574L297.132 274.413L293.937 271.96Z" fill="#263238"/>
<path d="M275.936 61.479C257.122 69.6144 253.78 76.1607 252.15 116.052C251.99 121.396 251.303 126.7 250.102 131.856C246.746 145.605 239.397 153.741 227.713 161.297C202.632 177.542 201.806 197.164 201.616 210.68C201.192 240.656 201.323 264.907 165.86 296.74C135.88 323.642 102.077 343.929 88.4761 388C63.3445 381.22 39.7923 370.857 19.4574 357.039C12.685 352.453 6.18417 347.328 0 341.701C16.0866 304.651 69.3989 282.154 94.8449 273.103C121.337 263.672 159.564 250.441 166.452 211.103C171.512 182.188 170.949 167.481 211.67 143.394C220.795 137.997 226.791 132.374 230.879 126.623C241.847 111.233 239.032 94.9101 245.912 79.3302C252.603 64.1822 264.39 61.5222 264.39 61.5222L275.936 61.479Z" fill="#BA68C8"/>
<path opacity="0.35" d="M275.936 61.479C257.122 69.6144 253.78 76.1607 252.15 116.052C251.99 121.396 251.303 126.7 250.102 131.856C246.746 145.605 239.397 153.741 227.713 161.297C202.632 177.542 201.806 197.164 201.616 210.68C201.192 240.656 201.323 264.907 165.86 296.74C135.88 323.642 102.077 343.929 88.4761 388C63.3445 381.22 39.7923 370.857 19.4574 357.039C12.685 352.453 6.18417 347.328 0 341.701C16.0866 304.651 69.3989 282.154 94.8449 273.103C121.337 263.672 159.564 250.441 166.452 211.103C171.512 182.188 170.949 167.481 211.67 143.394C220.795 137.997 226.791 132.374 230.879 126.623C241.847 111.233 239.032 94.9101 245.912 79.3302C252.603 64.1822 264.39 61.5222 264.39 61.5222L275.936 61.479Z" fill="white"/>
<path d="M239.616 17.5049V57.2318C239.616 57.6464 240.515 57.6636 240.53 57.2318V17.6258L239.616 17.5049Z" fill="#455A64"/>
<path d="M240.684 17.7115C240.658 17.8516 240.598 17.9795 240.511 18.0792C240.424 18.1789 240.314 18.2459 240.195 18.2718C240.075 18.2977 239.952 18.2813 239.841 18.2246C239.73 18.168 239.635 18.0737 239.569 17.9536C239.503 17.8335 239.468 17.6929 239.47 17.5497C239.471 17.4064 239.508 17.2668 239.577 17.1486C239.645 17.0303 239.742 16.9386 239.854 16.8851C239.967 16.8316 240.09 16.8185 240.209 16.8477C240.288 16.8672 240.363 16.9051 240.43 16.9591C240.497 17.0132 240.554 17.0824 240.599 17.1627C240.643 17.243 240.673 17.3328 240.688 17.427C240.702 17.5212 240.701 17.6179 240.684 17.7115Z" fill="#37474F"/>
<path d="M239.616 18.02C236.794 22.0013 232.787 20.2223 229.482 19.9891C225.906 19.7386 223.727 21.1032 222.638 22.96C223.676 22.6318 226.572 22.96 227.486 23.8236C227.486 23.8236 223.83 26.639 223.83 31.2595C224.89 29.299 226.754 27.8049 230.308 28.6686C233.445 29.4372 237.415 31.1385 239.594 28.2886L239.616 18.02Z" fill="#BA68C8"/>
<path opacity="0.1" d="M236.128 28.3256C233.247 29.3619 225.387 24.8711 223.837 31.2706C224.897 29.3101 226.761 27.816 230.315 28.6797C233.452 29.4483 237.423 31.1497 239.602 28.2997V17.9966C239.602 22.0815 239.009 27.2979 236.128 28.3256Z" fill="black"/>
<path d="M233.767 21.9498L234.264 23.7289L235.836 23.9794C235.856 23.984 235.875 23.9953 235.89 24.0118C235.905 24.0283 235.915 24.0494 235.921 24.0728C235.926 24.0962 235.926 24.1209 235.92 24.144C235.914 24.1672 235.903 24.188 235.887 24.2039L234.608 25.3094L234.885 27.1575C234.889 27.1814 234.887 27.2061 234.879 27.2285C234.871 27.2508 234.857 27.2698 234.84 27.2828C234.823 27.2959 234.802 27.3025 234.782 27.3017C234.761 27.3009 234.741 27.2928 234.725 27.2784L233.438 26.1816L232.041 27.0453C232.022 27.0557 232.002 27.0596 231.981 27.0567C231.961 27.0538 231.941 27.0441 231.925 27.0288C231.909 27.0134 231.897 26.9931 231.89 26.97C231.884 26.947 231.883 26.9222 231.887 26.8984L232.37 25.1107L231.222 23.8153C231.208 23.7973 231.199 23.7751 231.196 23.7513C231.192 23.7275 231.194 23.7029 231.202 23.6804C231.209 23.658 231.222 23.6384 231.239 23.6241C231.255 23.6098 231.275 23.6012 231.295 23.5994H232.882L233.569 21.8721C233.578 21.8412 233.597 21.8156 233.621 21.8011C233.646 21.7865 233.675 21.7841 233.701 21.7944C233.727 21.8047 233.749 21.8269 233.761 21.856C233.773 21.8852 233.775 21.9189 233.767 21.9498Z" fill="white"/>
<path d="M208.949 49.8623L208.898 102.181C208.898 102.734 210.09 102.76 210.112 102.181L210.126 50.0091L208.949 49.8623Z" fill="#37474F"/>
<path d="M210.353 50.1375C210.32 50.3253 210.241 50.4974 210.126 50.632C210.01 50.7665 209.863 50.8575 209.703 50.8932C209.544 50.9289 209.379 50.9078 209.23 50.8326C209.08 50.7574 208.953 50.6315 208.865 50.4709C208.776 50.3102 208.73 50.1221 208.732 49.9303C208.734 49.7386 208.784 49.5519 208.877 49.394C208.969 49.2361 209.098 49.1141 209.249 49.0435C209.4 48.9729 209.566 48.9569 209.724 48.9975C209.935 49.0514 210.119 49.2014 210.237 49.4148C210.355 49.6283 210.396 49.888 210.353 50.1375Z" fill="#37474F"/>
<path d="M208.942 50.5435C205.22 55.7857 199.941 53.4453 195.59 53.1343C190.874 52.7975 188 54.5939 186.574 57.0379C187.935 56.6148 191.751 57.0379 192.958 58.1952C192.958 58.1952 188.154 61.9088 188.147 67.9888C189.543 65.3979 191.978 63.472 196.687 64.612C200.818 65.6224 206.054 67.8679 208.927 64.1024L208.942 50.5435Z" fill="#BA68C8"/>
<path opacity="0.1" d="M204.343 64.1197C200.548 65.4842 190.187 59.5166 188.147 67.9974C189.544 65.4065 191.979 63.4806 196.688 64.6206C200.819 65.6311 206.054 67.8765 208.928 64.1111V50.5435C208.928 55.8893 208.146 62.7638 204.343 64.1197Z" fill="black"/>
<path d="M167.591 82.2236L167.533 147.177C167.533 147.859 168.995 147.885 169.032 147.177L169.098 82.405L167.591 82.2236Z" fill="#37474F"/>
<path d="M169.339 82.5612C169.314 82.7168 169.262 82.8649 169.188 82.9968C169.114 83.1287 169.018 83.2418 168.906 83.3295C168.795 83.4172 168.669 83.4778 168.538 83.5076C168.406 83.5374 168.27 83.5359 168.139 83.5032C168.008 83.4705 167.884 83.4072 167.773 83.317C167.663 83.2269 167.569 83.1117 167.497 82.9781C167.425 82.8446 167.376 82.6954 167.353 82.5393C167.331 82.3832 167.334 82.2233 167.364 82.069C167.391 81.9162 167.444 81.7712 167.518 81.6423C167.593 81.5135 167.688 81.4033 167.799 81.3182C167.91 81.2331 168.034 81.1748 168.164 81.1465C168.294 81.1182 168.427 81.1206 168.556 81.1535C168.818 81.2179 169.047 81.4023 169.194 81.6663C169.341 81.9302 169.393 82.2521 169.339 82.5612Z" fill="#37474F"/>
<path d="M167.584 83.0703C162.97 89.5821 156.419 86.6716 151.015 86.2917C145.165 85.8771 141.597 88.1139 139.828 91.1452C141.517 90.6098 146.255 91.1452 147.754 92.5789C147.754 92.5789 141.787 97.182 141.78 104.73C143.513 101.535 146.533 99.1252 152.375 100.542C157.494 101.794 164.009 104.575 167.57 99.9111L167.584 83.0703Z" fill="#BA68C8"/>
<path opacity="0.1" d="M161.867 99.9197C157.15 101.647 144.318 94.2111 141.766 104.73C143.499 101.535 146.518 99.1252 152.361 100.542C157.479 101.794 163.994 104.575 167.555 99.9111V83.0703C167.57 89.703 166.597 98.2356 161.867 99.9197Z" fill="black"/>
<path d="M124.386 115.406L124.312 192.96C124.312 193.763 126.082 193.824 126.104 192.96L126.177 115.605L124.386 115.406Z" fill="#37474F"/>
<path d="M126.462 115.812C126.407 116.084 126.285 116.331 126.112 116.522C125.938 116.713 125.721 116.84 125.487 116.886C125.254 116.932 125.013 116.896 124.797 116.781C124.581 116.667 124.397 116.48 124.27 116.244C124.143 116.008 124.078 115.732 124.083 115.452C124.087 115.173 124.161 114.9 124.296 114.67C124.431 114.44 124.62 114.261 124.84 114.157C125.06 114.053 125.301 114.028 125.533 114.085C125.692 114.123 125.842 114.199 125.975 114.308C126.108 114.416 126.221 114.555 126.307 114.716C126.394 114.877 126.452 115.057 126.479 115.246C126.505 115.434 126.5 115.626 126.462 115.812Z" fill="#37474F"/>
<path d="M124.378 116.416C118.858 124.189 111.034 120.734 104.584 120.259C97.5941 119.767 93.3385 122.436 91.218 126.054C93.2362 125.424 98.903 126.054 100.724 127.781C100.724 127.781 93.6018 133.283 93.5944 142.29C95.6638 138.473 99.2686 135.597 106.244 137.29C112.379 138.784 120.137 142.109 124.393 136.539L124.378 116.416Z" fill="#BA68C8"/>
<path opacity="0.1" d="M117.564 136.539C111.934 138.559 96.5782 129.716 93.5583 142.282C95.6277 138.464 99.2325 135.589 106.208 137.281C112.343 138.775 120.101 142.1 124.357 136.53V116.416C124.349 124.335 123.194 134.526 117.564 136.539Z" fill="black"/>
<path d="M261.053 4.84797L260.322 3.01707L263.561 0.814819C263.943 0.548391 264.353 0.344986 264.782 0.210278L265.235 0.0893705C265.993 -0.0518674 266.767 -0.025511 267.517 0.167097C267.787 0.236188 268.058 0.32255 268.336 0.426185C268.624 0.538319 268.907 0.668038 269.184 0.814819C269.56 1.00766 269.926 1.22683 270.281 1.47118C270.661 1.7389 271.012 2.03254 271.414 2.33481C271.816 2.63708 271.977 2.83571 272.248 3.11207C276.269 7.11931 279.435 14.2702 280.232 21.136C280.291 21.6139 280.335 22.0802 280.364 22.5351C280.415 23.2001 280.437 23.8651 280.437 24.5128C280.437 25.1605 280.437 25.5578 280.379 26.0587C280.32 26.5596 280.313 26.9223 280.262 27.311C280.21 27.6996 280.145 28.0969 280.064 28.4769C279.871 29.5151 279.553 30.5155 279.121 31.4477C279.033 31.6291 278.945 31.8105 278.85 31.9832C278.46 32.6918 277.964 33.312 277.388 33.8141C277.22 33.9623 277.044 34.0979 276.862 34.22L273.798 36.31L273.125 34.6345C272.94 34.592 272.757 34.5373 272.577 34.4704C271.833 34.1992 271.119 33.8252 270.449 33.3564C270.017 33.0564 269.599 32.7276 269.198 32.3718C268.659 31.8931 268.143 31.3769 267.656 30.8259C264.077 26.5044 261.654 21.0353 260.687 15.0992C260.548 14.2356 260.439 13.372 260.373 12.4652C260.322 11.7311 260.292 11.0143 260.292 10.2975C260.289 9.26737 260.36 8.23881 260.504 7.22295C260.624 6.41276 260.807 5.6176 261.053 4.84797Z" fill="#BA68C8"/>
<path opacity="0.25" d="M279.487 17.0946L272.906 21.5768L272.036 18.6232L278.617 14.1323C278.949 15.1016 279.24 16.0903 279.487 17.0946Z" fill="white"/>
<path opacity="0.25" d="M263.554 0.814819C263.936 0.548391 264.347 0.344986 264.775 0.210278L265.229 0.0893705C265.987 -0.0518674 266.76 -0.025511 267.51 0.167097L267.81 0.253459L261.046 4.86524L260.315 3.03434L263.554 0.814819Z" fill="white"/>
<path opacity="0.25" d="M264.234 12.1459L263.372 10.9195L273.228 4.21777C273.535 4.5805 273.842 4.96913 274.142 5.37504L264.234 12.1459Z" fill="white"/>
<path opacity="0.25" d="M276.255 8.66468L267.722 14.4855L266.779 11.5837L274.734 6.16016C275.279 6.96188 275.787 7.79795 276.255 8.66468Z" fill="white"/>
<path opacity="0.4" d="M263.554 0.814819C263.935 0.548391 264.346 0.344986 264.775 0.210278L265.228 0.0893705C265.986 -0.0518674 266.76 -0.025511 267.509 0.167097C267.78 0.236188 268.05 0.32255 268.328 0.426185C268.617 0.538319 268.9 0.668038 269.177 0.814819C269.553 1.00766 269.919 1.22683 270.273 1.47118C270.654 1.7389 271.005 2.03254 271.407 2.33481C271.809 2.63708 271.97 2.83571 272.24 3.11207C275.984 6.84295 278.989 13.3029 280.028 19.7197L266.318 29.09C263.495 25.0447 261.567 20.234 260.709 15.0906C260.57 14.227 260.461 13.3633 260.395 12.4565C260.344 11.7225 260.314 11.0056 260.314 10.2888C260.311 9.25874 260.382 8.23018 260.526 7.21431C260.639 6.4079 260.815 5.61568 261.053 4.84797L260.322 3.01707L263.554 0.814819Z" fill="white"/>
<path opacity="0.1" d="M273.821 36.3007L273.148 34.6253C272.963 34.5828 272.78 34.528 272.6 34.4612C271.856 34.1899 271.142 33.816 270.472 33.3471C270.04 33.0471 269.622 32.7184 269.221 32.3626C268.682 31.8839 268.167 31.3677 267.679 30.8167C267.211 30.2812 266.757 29.7026 266.319 29.0894L280.029 19.7363C280.109 20.2113 280.175 20.6863 280.226 21.1527C280.277 21.619 280.329 22.094 280.358 22.5518C280.409 23.2168 280.431 23.8818 280.431 24.5295C280.431 25.1772 280.431 25.5745 280.372 26.0754C280.314 26.5763 280.307 26.939 280.255 27.3276C280.204 27.7163 280.138 28.1135 280.058 28.4935C279.866 29.5254 279.551 30.5199 279.122 31.4471C279.034 31.6285 278.947 31.8099 278.851 31.9826C278.461 32.6912 277.965 33.3114 277.389 33.8135C277.221 33.9617 277.045 34.0973 276.863 34.2194L273.821 36.3007Z" fill="black"/>
<path opacity="0.1" d="M279.121 31.4484C279.033 31.6298 278.945 31.8112 278.85 31.9839C278.459 32.6926 277.964 33.3127 277.388 33.8148C277.219 33.963 277.044 34.0986 276.861 34.2207L273.797 36.3107L273.125 34.6352L273.073 33.953L279.888 29.3066C279.697 30.0504 279.439 30.7683 279.121 31.4484Z" fill="black"/>
<path d="M256.849 12.6474C256.849 13.3642 256.849 14.0897 256.929 14.8151C256.998 15.702 257.106 16.584 257.251 17.4578C258.219 23.3945 260.648 28.862 264.234 33.1759C264.716 33.7316 265.229 34.2481 265.77 34.7218C266.17 35.0776 266.588 35.4063 267.02 35.7063C267.692 36.1769 268.408 36.5509 269.155 36.8204C269.885 37.0928 270.65 37.2126 271.415 37.1745C272.441 37.1197 273.429 36.7014 274.252 35.974C274.826 35.47 275.321 34.8502 275.714 34.1432C275.809 33.9704 275.897 33.7891 275.985 33.6077C276.412 32.6818 276.729 31.6909 276.928 30.6627C277.001 30.2914 277.067 29.9027 277.118 29.4968C277.169 29.0909 277.213 28.6332 277.242 28.2446C277.272 27.8559 277.293 27.2341 277.293 26.6987C277.293 26.1632 277.293 25.386 277.228 24.721C277.194 24.2604 277.15 23.794 277.096 23.3219C276.292 16.4128 273.126 9.30518 269.104 5.29794C268.833 5.02158 268.556 4.77113 268.27 4.52068C267.985 4.27022 267.539 3.9075 267.137 3.65705C266.785 3.41281 266.421 3.19363 266.047 3.00069C265.771 2.85391 265.488 2.72419 265.199 2.61206C264.921 2.50842 264.644 2.42206 264.373 2.35297C263.623 2.15871 262.849 2.13526 262.092 2.28388C261.938 2.28388 261.792 2.35297 261.638 2.39615C260.991 2.59998 260.383 2.94888 259.847 3.42387C258.972 4.24554 258.288 5.31506 257.858 6.53293C257.51 7.50997 257.264 8.53383 257.127 9.58154C256.967 10.5935 256.874 11.6185 256.849 12.6474Z" fill="#BA68C8"/>
<path opacity="0.1" d="M256.849 12.6474C256.849 13.3642 256.849 14.0897 256.929 14.8151C256.998 15.702 257.106 16.584 257.251 17.4578C258.219 23.3945 260.648 28.862 264.234 33.1759C264.716 33.7316 265.229 34.2481 265.77 34.7218C266.17 35.0776 266.588 35.4063 267.02 35.7063C267.692 36.1769 268.408 36.5509 269.155 36.8204C269.885 37.0928 270.65 37.2126 271.415 37.1745C272.441 37.1197 273.429 36.7014 274.252 35.974C274.826 35.47 275.321 34.8502 275.714 34.1432C275.809 33.9704 275.897 33.7891 275.985 33.6077C276.412 32.6818 276.729 31.6909 276.928 30.6627C277.001 30.2914 277.067 29.9027 277.118 29.4968C277.169 29.0909 277.213 28.6332 277.242 28.2446C277.272 27.8559 277.293 27.2341 277.293 26.6987C277.293 26.1632 277.293 25.386 277.228 24.721C277.194 24.2604 277.15 23.794 277.096 23.3219C276.292 16.4128 273.126 9.30518 269.104 5.29794C268.833 5.02158 268.556 4.77113 268.27 4.52068C267.985 4.27022 267.539 3.9075 267.137 3.65705C266.785 3.41281 266.421 3.19363 266.047 3.00069C265.771 2.85391 265.488 2.72419 265.199 2.61206C264.921 2.50842 264.644 2.42206 264.373 2.35297C263.623 2.15871 262.849 2.13526 262.092 2.28388C261.938 2.28388 261.792 2.35297 261.638 2.39615C260.991 2.59998 260.383 2.94888 259.847 3.42387C258.972 4.24554 258.288 5.31506 257.858 6.53293C257.51 7.50997 257.264 8.53383 257.127 9.58154C256.967 10.5935 256.874 11.6185 256.849 12.6474Z" fill="white"/>
<path opacity="0.05" d="M276.847 21.8945C276.927 22.3695 276.993 22.8445 277.051 23.3195C277.11 23.7945 277.147 24.2609 277.183 24.7186C277.227 25.3836 277.249 26.0486 277.249 26.6963C277.249 27.344 277.249 27.7413 277.198 28.2422C277.147 28.7431 277.125 29.1058 277.073 29.4945C277.022 29.8831 276.956 30.289 276.883 30.6604C276.683 31.6889 276.363 32.6799 275.933 33.6053C275.845 33.7867 275.757 33.9681 275.662 34.1408C275.27 34.8479 274.775 35.4676 274.2 35.9717C273.377 36.699 272.389 37.1173 271.363 37.1721C270.598 37.2102 269.833 37.0904 269.103 36.818C268.356 36.5486 267.64 36.1746 266.968 35.704C266.586 35.4383 266.215 35.1501 265.857 34.8403L276.847 21.8945Z" fill="black"/>
<path opacity="0.05" d="M276.665 31.4917C276.486 32.2257 276.241 32.935 275.934 33.6076C275.846 33.7889 275.759 33.9703 275.663 34.143C275.271 34.8501 274.776 35.4699 274.201 35.9739C273.526 36.5683 272.737 36.9569 271.905 37.1053L276.665 31.4917Z" fill="black"/>
<path opacity="0.15" d="M275.458 16.3091C275.779 17.2763 276.065 18.2695 276.313 19.2627L264.38 33.3571L264.234 33.1758C263.715 32.5894 263.226 31.9664 262.771 31.3103L275.458 16.3091Z" fill="white"/>
<path opacity="0.15" d="M271.546 8.32861C272.094 9.13023 272.604 9.9663 273.075 10.8331L259.913 26.3785C259.48 25.4271 259.09 24.4499 258.743 23.4508L271.546 8.32861Z" fill="white"/>
<path opacity="0.15" d="M270.085 6.4043C270.399 6.76702 270.714 7.15565 271.013 7.56156L258.437 22.3814C258.261 21.8201 258.093 21.2674 257.947 20.6542L270.085 6.4043Z" fill="white"/>
<path opacity="0.15" d="M256.879 11.5831C256.879 11.2981 256.915 11.0217 256.937 10.7195V10.4431C256.937 10.3481 256.937 10.2531 256.937 10.1667C256.937 10.0804 256.988 9.76083 257.01 9.56219C257.147 8.51448 257.393 7.49062 257.741 6.51358C258.172 5.29571 258.856 4.22619 259.73 3.40452C260.261 2.92158 260.868 2.56653 261.515 2.35953C261.668 2.31634 261.814 2.27316 261.968 2.24725C262.725 2.09864 263.499 2.12208 264.249 2.31635L264.556 2.40271L256.879 11.5831Z" fill="white"/>
<path d="M259.452 14.4956C259.452 20.8346 262.582 28.1582 266.538 31.2672L267.05 31.6472C271.247 34.5058 274.647 31.4659 274.647 24.8591C274.647 18.2523 271.247 10.566 267.05 7.70744C266.884 7.59086 266.713 7.48421 266.538 7.3879C262.582 5.09928 259.452 8.13062 259.452 14.4956Z" fill="#BA68C8"/>
<path opacity="0.4" d="M259.452 14.4956C259.452 20.8346 262.582 28.1582 266.538 31.2672L267.05 31.6472C271.247 34.5058 274.647 31.4659 274.647 24.8591C274.647 18.2523 271.247 10.566 267.05 7.70744C266.884 7.59086 266.713 7.48421 266.538 7.3879C262.582 5.09928 259.452 8.13062 259.452 14.4956Z" fill="black"/>
<path d="M259.788 14.718C259.788 14.9253 259.788 15.1326 259.788 15.3398C259.986 21.2471 262.896 27.8711 266.559 30.747L266.655 30.8247C266.786 30.9284 266.91 31.0234 267.042 31.1097C267.751 31.6111 268.536 31.9454 269.353 32.0943C270.152 32.2384 270.969 32.0825 271.69 31.6487C272.41 31.2148 272.996 30.5249 273.367 29.6761C273.94 28.4172 274.26 27.0195 274.303 25.5911C274.303 25.2802 274.303 24.9607 274.303 24.6239C274.303 24.287 274.303 24.0193 274.303 23.7084C274.271 23.0574 274.21 22.4088 274.12 21.7653C273.475 17.1888 271.607 12.9762 268.79 9.74353C268.427 9.35138 268.041 8.9906 267.634 8.664C267.444 8.50854 267.254 8.37036 267.064 8.24082L266.581 7.92991L266.442 7.85218C265.516 7.29366 264.464 7.09709 263.437 7.29082C261.909 7.63628 260.732 9.07854 260.169 11.3758C259.908 12.4629 259.78 13.5883 259.788 14.718Z" fill="#BA68C8"/>
<path opacity="0.5" d="M259.788 14.718C259.788 14.9253 259.788 15.1326 259.788 15.3398C259.986 21.2471 262.896 27.8711 266.559 30.747L266.655 30.8247C266.786 30.9284 266.91 31.0234 267.042 31.1097C267.751 31.6111 268.536 31.9454 269.353 32.0943C270.152 32.2384 270.969 32.0825 271.69 31.6487C272.41 31.2148 272.996 30.5249 273.367 29.6761C273.94 28.4172 274.26 27.0195 274.303 25.5911C274.303 25.2802 274.303 24.9607 274.303 24.6239C274.303 24.287 274.303 24.0193 274.303 23.7084C274.271 23.0574 274.21 22.4088 274.12 21.7653C273.475 17.1888 271.607 12.9762 268.79 9.74353C268.427 9.35138 268.041 8.9906 267.634 8.664C267.444 8.50854 267.254 8.37036 267.064 8.24082L266.581 7.92991L266.442 7.85218C265.516 7.29366 264.464 7.09709 263.437 7.29082C261.909 7.63628 260.732 9.07854 260.169 11.3758C259.908 12.4629 259.78 13.5883 259.788 14.718Z" fill="black"/>
<path d="M261.002 14.5108C261.002 14.3035 261.002 14.0962 261.002 13.8976C260.988 12.7658 261.112 11.6375 261.368 10.5467C261.622 9.3597 262.163 8.2856 262.925 7.45492C263.089 7.38424 263.258 7.32936 263.43 7.29082C264.456 7.09709 265.509 7.29366 266.435 7.85218L266.574 7.92991L267.056 8.24082C267.246 8.37036 267.437 8.50854 267.627 8.664C268.033 8.9906 268.419 9.35138 268.782 9.74353C271.6 12.9762 273.467 17.1888 274.113 21.7652C274.202 22.4088 274.263 23.0574 274.295 23.7084C274.295 24.0193 274.295 24.3216 274.295 24.6239C274.295 24.9261 274.295 25.2802 274.295 25.5911C274.254 27.0356 273.928 28.4489 273.345 29.7193C273.094 30.2431 272.77 30.7132 272.387 31.1097C271.792 31.3478 271.158 31.4158 270.537 31.3083C269.73 31.1552 268.956 30.821 268.256 30.3238L267.868 30.0475L267.766 29.9697C264.11 27.0507 261.192 20.418 261.002 14.5108Z" fill="#BA68C8"/>
<path opacity="0.25" d="M261.002 14.5108C261.002 14.3035 261.002 14.0962 261.002 13.8976C260.988 12.7658 261.112 11.6375 261.368 10.5467C261.622 9.3597 262.163 8.2856 262.925 7.45492C263.089 7.38424 263.258 7.32936 263.43 7.29082C264.456 7.09709 265.509 7.29366 266.435 7.85218L266.574 7.92991L267.056 8.24082C267.246 8.37036 267.437 8.50854 267.627 8.664C268.033 8.9906 268.419 9.35138 268.782 9.74353C271.6 12.9762 273.467 17.1888 274.113 21.7652C274.202 22.4088 274.263 23.0574 274.295 23.7084C274.295 24.0193 274.295 24.3216 274.295 24.6239C274.295 24.9261 274.295 25.2802 274.295 25.5911C274.254 27.0356 273.928 28.4489 273.345 29.7193C273.094 30.2431 272.77 30.7132 272.387 31.1097C271.792 31.3478 271.158 31.4158 270.537 31.3083C269.73 31.1552 268.956 30.821 268.256 30.3238L267.868 30.0475L267.766 29.9697C264.11 27.0507 261.192 20.418 261.002 14.5108Z" fill="black"/>
<path d="M262.04 2.26389C266.427 1.67662 270.003 5.96886 272.387 9.82928C275.823 15.8229 278.01 23.4055 276.818 30.66C276.503 32.7363 275.588 34.6194 274.229 35.9886C275.629 34.6471 276.584 32.7669 276.927 30.6773C278.024 24.7442 276.65 18.5001 274.346 13.1888C271.889 7.9293 267.714 1.54708 262.04 2.26389Z" fill="#F5F5F5"/>
<path d="M272.482 24.7105C272.424 23.697 272.192 22.7082 271.798 21.8051C271.404 20.9021 270.858 20.1038 270.193 19.4596L270.771 19.6323L272.431 18.4923C272.357 18.0668 272.257 17.6482 272.131 17.2401C271.916 16.5482 271.626 15.8921 271.268 15.2883C270.683 14.3211 269.963 13.4773 269.14 12.7924L269.075 10.7628L267.02 9.36377L265.36 10.4951V11.0047V11.1169C265.216 11.1701 265.078 11.2456 264.951 11.3415L264.826 11.4451C264.629 11.6092 263.678 12.1965 263.291 12.4728L263.167 12.5765C262.91 12.8583 262.718 13.2115 262.607 13.6037C262.496 13.9959 262.469 14.4147 262.53 14.8219C262.572 15.9348 262.86 17.0154 263.364 17.9569C263.408 18.0346 263.452 18.1123 263.488 18.1901L263.627 18.4232L263.759 18.6219L263.81 18.6996L263.912 18.855C264.202 19.2592 264.51 19.6454 264.834 20.0123L265.272 20.4787L264.541 20.2541L262.881 21.3855C263.363 23.5336 264.471 25.4118 266.011 26.6882L266.077 28.7177L268.153 30.0736L269.813 28.9422V28.3032C269.933 28.2719 270.046 28.2164 270.15 28.1391C270.405 27.9491 271.517 27.2323 271.802 27.0163C272.277 26.6709 272.519 25.9109 272.482 24.7105Z" fill="#BA68C8"/>
<path opacity="0.15" d="M263.393 12.4489C263.817 12.1552 264.665 11.6283 264.855 11.4728L264.98 11.3691C265.107 11.2732 265.245 11.1977 265.389 11.1445L265.433 12.6044C265.137 12.3636 264.79 12.2221 264.431 12.1947C264.072 12.1673 263.713 12.2552 263.393 12.4489Z" fill="black"/>
<path opacity="0.45" d="M268.109 24.2608C268.109 24.874 267.831 25.1762 266.975 24.6235C266.568 24.3798 266.212 24.0315 265.934 23.6041C265.655 23.1767 265.462 22.681 265.367 22.1535L262.881 21.4194L264.54 20.2881L265.272 20.5126H265.316C265.542 20.7544 265.769 20.9876 265.988 21.2035L266.251 21.4626C266.753 21.9091 267.215 22.4124 267.633 22.9653C267.806 23.2008 267.937 23.4736 268.021 23.7685C268.073 23.9257 268.103 24.0921 268.109 24.2608Z" fill="black"/>
<path opacity="0.2" d="M269.791 28.3473V28.9778L268.131 30.1091L268.065 28.0796C268.602 28.3819 269.206 28.4756 269.791 28.3473Z" fill="black"/>
<path opacity="0.15" d="M267.414 11.9045L265.36 10.5054L267.019 9.37402L269.081 10.7731L269.14 12.8026C269.966 13.486 270.686 14.3334 271.268 15.3072C271.627 15.9069 271.917 16.5604 272.131 17.2503C272.256 17.6585 272.357 18.077 272.43 18.5026L270.771 19.6339C270.697 19.2084 270.597 18.7898 270.471 18.3817C270.257 17.6917 269.967 17.0383 269.608 16.4385C269.027 15.4647 268.307 14.6174 267.48 13.934L267.414 11.9045Z" fill="black"/>
<path opacity="0.2" d="M269.141 12.8008C269.855 13.2845 270.487 13.9199 271.005 14.6749C271.536 15.431 271.921 16.3154 272.132 17.2657C271.774 16.3991 271.333 15.5846 270.815 14.8389C270.56 14.4715 270.289 14.1199 270.004 13.7853C269.748 13.4399 269.441 13.1203 269.141 12.8008Z" fill="black"/>
<path opacity="0.35" d="M271.796 27.0344C271.511 27.2503 270.399 27.9671 270.143 28.1571C270.626 27.7944 270.874 27.043 270.831 25.8339C270.743 23.1653 269.368 21.4208 267.964 19.9612C266.56 18.5017 265.456 17.7676 265.412 16.5067C265.412 15.6949 265.829 15.6431 266.509 16.0663C266.94 16.359 267.311 16.7597 267.597 17.2401C267.882 17.7206 268.075 18.2692 268.162 18.8472L270.202 19.469C270.864 20.115 271.408 20.9138 271.801 21.8167C272.193 22.7195 272.425 23.7074 272.483 24.7198C272.52 25.9116 272.278 26.6716 271.796 27.0344Z" fill="black"/>
<path d="M267.027 21.0222L265.367 22.1535L262.881 21.4194L264.54 20.2881L267.027 21.0222Z" fill="#BA68C8"/>
<path opacity="0.15" d="M267.027 21.0222L265.367 22.1535L262.881 21.4194L264.54 20.2881L267.027 21.0222Z" fill="black"/>
<path d="M268.153 30.1091L268.087 28.0796L269.791 28.3387L269.813 28.9778L268.153 30.1091Z" fill="#BA68C8"/>
<path opacity="0.45" d="M268.153 30.1091L268.087 28.0796L269.791 28.3387L269.813 28.9778L268.153 30.1091Z" fill="black"/>
<path d="M265.374 11.0142L265.425 12.586C265.117 12.3358 264.755 12.1933 264.381 12.175C264.007 12.1566 263.637 12.2632 263.312 12.4824L263.188 12.586C262.932 12.8679 262.739 13.221 262.628 13.6132C262.517 14.0054 262.491 14.4242 262.552 14.8315C262.594 15.9443 262.881 17.025 263.385 17.9665C263.429 18.0442 263.473 18.1219 263.509 18.1996L263.648 18.4328L263.78 18.6314L263.831 18.7092L263.934 18.8646C264.224 19.2688 264.531 19.655 264.855 20.0219L265.33 20.5314L266.01 21.2223L266.273 21.4814C266.775 21.9279 267.237 22.4312 267.655 22.9841C267.832 23.216 267.964 23.4899 268.043 23.7873C268.08 23.9335 268.102 24.0842 268.109 24.2364C268.109 24.8496 267.831 25.1605 266.968 24.5905C266.56 24.3497 266.204 24.0034 265.925 23.5772C265.647 23.151 265.453 22.656 265.359 22.1291L262.873 21.3951C263.355 23.5432 264.463 25.4213 266.003 26.6977L266.069 28.7273L268.145 30.0832L268.08 28.0536C268.39 28.2549 268.736 28.3682 269.09 28.3847C269.444 28.4012 269.797 28.3204 270.12 28.1486C270.602 27.7859 270.851 27.0259 270.807 25.8255C270.719 23.1569 269.345 21.4123 267.941 19.9528C266.537 18.4933 265.433 17.7678 265.389 16.4983C265.389 15.6951 265.813 15.6347 266.485 16.0665C266.916 16.3592 267.288 16.7599 267.573 17.2403C267.859 17.7208 268.051 18.2694 268.138 18.8474L270.756 19.6505C270.682 19.225 270.582 18.8064 270.456 18.3983C270.241 17.7064 269.951 17.0503 269.593 16.4465C269.006 15.4812 268.287 14.6378 267.465 13.9506L267.4 11.9211L265.345 10.522L265.374 11.0142Z" fill="#BA68C8"/>
<path opacity="0.1" d="M265.374 11.0142L265.425 12.586C265.117 12.3358 264.755 12.1933 264.381 12.175C264.007 12.1566 263.637 12.2632 263.312 12.4824L263.188 12.586C262.932 12.8679 262.739 13.221 262.628 13.6132C262.517 14.0054 262.491 14.4242 262.552 14.8315C262.594 15.9443 262.881 17.025 263.385 17.9665C263.429 18.0442 263.473 18.1219 263.509 18.1996L263.648 18.4328L263.78 18.6314L263.831 18.7092L263.934 18.8646C264.224 19.2688 264.531 19.655 264.855 20.0219L265.33 20.5314L266.01 21.2223L266.273 21.4814C266.775 21.9279 267.237 22.4312 267.655 22.9841C267.832 23.216 267.964 23.4899 268.043 23.7873C268.08 23.9335 268.102 24.0842 268.109 24.2364C268.109 24.8496 267.831 25.1605 266.968 24.5905C266.56 24.3497 266.204 24.0034 265.925 23.5772C265.647 23.151 265.453 22.656 265.359 22.1291L262.873 21.3951C263.355 23.5432 264.463 25.4213 266.003 26.6977L266.069 28.7273L268.145 30.0832L268.08 28.0536C268.39 28.2549 268.736 28.3682 269.09 28.3847C269.444 28.4012 269.797 28.3204 270.12 28.1486C270.602 27.7859 270.851 27.0259 270.807 25.8255C270.719 23.1569 269.345 21.4123 267.941 19.9528C266.537 18.4933 265.433 17.7678 265.389 16.4983C265.389 15.6951 265.813 15.6347 266.485 16.0665C266.916 16.3592 267.288 16.7599 267.573 17.2403C267.859 17.7208 268.051 18.2694 268.138 18.8474L270.756 19.6505C270.682 19.225 270.582 18.8064 270.456 18.3983C270.241 17.7064 269.951 17.0503 269.593 16.4465C269.006 15.4812 268.287 14.6378 267.465 13.9506L267.4 11.9211L265.345 10.522L265.374 11.0142Z" fill="white"/>
<path d="M270.815 25.8417C270.761 24.8677 270.529 23.919 270.135 23.0608C269.734 22.2126 269.223 21.4434 268.622 20.7809C268.037 20.0986 267.379 19.494 266.75 18.8636C266.426 18.5516 266.127 18.2046 265.858 17.8272C265.586 17.449 265.426 16.9756 265.404 16.48C265.443 16.9695 265.621 17.4292 265.909 17.7841C266.18 18.1499 266.481 18.4827 266.808 18.7772C267.452 19.3904 268.11 19.995 268.702 20.6772C269.311 21.3536 269.825 22.1408 270.223 23.009C270.414 23.4458 270.564 23.9063 270.669 24.3822C270.757 24.862 270.806 25.3508 270.815 25.8417Z" fill="white"/>
<path d="M267.422 11.9048L269.082 10.7734L269.141 12.803L267.481 13.9343L267.422 11.9048Z" fill="#BA68C8"/>
<path opacity="0.35" d="M267.422 11.9048L269.082 10.7734L269.141 12.803L267.481 13.9343L267.422 11.9048Z" fill="black"/>
<path d="M265.36 10.5049L267.232 12.0249L267.48 13.9335L267.422 11.904L265.36 10.5049Z" fill="#FAFAFA"/>
<path d="M266.011 26.7236L266.245 28.6236L268.153 30.1091L266.077 28.7532L266.011 26.7236Z" fill="#FAFAFA"/>
<path opacity="0.15" d="M262.881 21.4233C262.963 21.7964 263.066 22.1628 263.188 22.5204L263.868 21.717L262.881 21.4233Z" fill="white"/>
<path opacity="0.15" d="M270.814 25.7563C270.771 24.682 270.502 23.6373 270.032 22.7163L266.032 27.4317L266.076 28.7531L267.495 29.7203L268.116 28.9863V28.1226C268.301 28.2116 268.492 28.2838 268.687 28.3385L270.814 25.7563Z" fill="white"/>
<path opacity="0.15" d="M262.575 15.2281C262.625 15.8468 262.756 16.4527 262.962 17.0244L267.349 11.8426L266.143 10.979L265.412 11.8426V12.5422C265.285 12.4425 265.151 12.3585 265.01 12.2917L262.575 15.2281Z" fill="white"/>
<path opacity="0.15" d="M263.503 18.225L263.642 18.4582L263.774 18.6568L263.825 18.7345L263.927 18.89C264.217 19.2941 264.525 19.6804 264.849 20.0472L265.068 20.2804L266.53 18.5532C266.23 18.3165 265.975 18.0084 265.781 17.6485C265.587 17.2886 265.459 16.8849 265.404 16.4632C265.404 15.66 265.829 15.5996 266.501 16.0314C266.953 16.331 267.336 16.7546 267.62 17.2664L269.046 15.5391C268.579 14.9154 268.054 14.3563 267.481 13.8723V13.1123L263.408 17.9141L263.525 18.1386L263.503 18.225Z" fill="white"/>
<path opacity="0.6" d="M62.1226 362.967C83.4653 362.967 100.767 351.166 100.767 336.609C100.767 322.052 83.4653 310.251 62.1226 310.251C40.7799 310.251 23.4783 322.052 23.4783 336.609C23.4783 351.166 40.7799 362.967 62.1226 362.967Z" fill="#BA68C8"/>
<path d="M34.6877 209.359L40.4862 191.991L39.5941 170.677C35.9381 171.031 33.3643 172.603 31.4339 177.957C29.5035 183.312 25.6208 200.541 24.853 204.557C24.193 208.043 23.9688 211.625 24.1876 215.188C24.3631 219.731 26.0522 227.944 26.6883 232.418C26.9881 234.49 27.1417 236.485 27.3172 238.593C27.6119 240.759 28.0371 242.897 28.5895 244.992C28.8179 246.007 29.2724 246.932 29.9056 247.669C30.3005 248.144 30.8781 248.248 31.2511 248.697C31.624 249.146 31.6825 249.854 32.2236 250.243C32.7647 250.632 33.5617 250.511 34.0808 250.942C34.5875 251.472 35.1224 251.962 35.6822 252.411C36.2087 252.647 36.6782 253.033 37.0495 253.533C37.3786 254.034 37.6491 255.105 38.2999 255.088C38.9507 255.071 39.2066 254.224 39.2943 253.551C39.3669 252.151 39.0567 250.762 38.4096 249.587C37.8571 248.296 37.2419 247.045 36.5669 245.838C35.9037 244.713 35.4615 243.426 35.2727 242.073C35.1045 241.166 35.2727 240.043 36.1867 240.648C37.2835 241.373 38.3803 242.764 39.7769 242.626C40.7348 242.522 40.8518 241.65 40.3473 240.898C39.5335 239.598 38.8004 238.23 38.1537 236.805C37.4883 235.354 36.9618 233.825 36.2598 232.4C35.8801 231.658 35.46 230.945 35.0022 230.267C33.7445 228.35 33.9712 225.949 33.9712 223.66C33.9565 220.456 34.4464 213.375 34.6877 209.359Z" fill="#C8856A"/>
<path d="M39.6751 169.476C34.3446 170.028 31.6976 174.027 29.8915 180.331C28.0416 186.791 25.3288 198.381 24.7731 201.456C23.9785 205.166 23.6072 208.986 23.669 212.812C23.9293 216.87 24.3858 220.907 25.0363 224.903C25.0363 224.903 26.4329 225.896 29.4236 225.845C33.5695 225.767 34.3958 224.281 34.3958 224.281L35.127 209.41L40.9767 192.224L39.6751 169.476Z" fill="#37474F"/>
<path d="M35.4919 332.592C35.4919 333.706 35.3165 334.138 36.4718 335.14C37.6271 336.142 40.1278 336.608 42.0289 336.004C43.2445 335.732 44.3369 334.953 45.1073 333.81C45.7569 332.795 46.3527 331.734 46.8915 330.632C47.2205 330.131 48.7707 329.172 50.2623 328.387C51.754 327.601 54.8543 325.917 55.9292 322.902C56.5869 321.286 56.7069 319.437 56.2656 317.721L35.4919 332.592Z" fill="#263238"/>
<path d="M45.5395 317.313C42.4977 319.662 39.9311 325.561 35.7706 323.764C35.5585 326.658 34.9077 329.767 35.4927 332.608C37.2695 335.199 41.1523 335.7 43.3897 333.834C44.5231 332.703 45.152 331.364 46.2415 330.172C47.134 329.264 48.1468 328.534 49.2394 328.013C50.5011 327.321 51.7224 326.531 52.8954 325.647C59.5933 319.766 56.2517 309.031 45.5395 317.313Z" fill="#455A64"/>
<path d="M56.2803 346.116C56.2803 347.316 56.3461 348.223 56.9676 348.707C57.5891 349.19 62.2616 350.132 63.5046 350.296C64.7477 350.46 64.967 349.501 65.8006 349.847C66.6342 350.192 68.7254 351.945 71.7453 352.74C74.7652 353.534 77.2806 354.381 81.5069 352.74C85.7333 351.099 86.1501 349.156 86.0916 347.472C86.0331 345.787 56.2803 346.116 56.2803 346.116Z" fill="#263238"/>
<path d="M56.8872 334.845C56.2072 338.299 55.4833 343.481 56.2803 346.115C57.1285 347.108 59.9875 347.695 62.4736 348.093C64.7726 348.424 67.0019 349.244 69.0545 350.511C73.8805 352.894 82.3771 353.758 85.7626 348.395C89.1408 341.218 71.5552 342.989 69.3982 334.689C68.6231 331.666 60.0826 335.665 56.8872 334.845Z" fill="#455A64"/>
<path d="M34.1397 294.065C36.4942 264.633 35.2804 241.038 37.5618 217.306C37.5618 217.306 72.6086 216.269 73.4714 230.329C73.4714 230.329 74.0052 280.463 73.7273 286.655C73.603 292.925 70.4222 332.065 70.4222 336.486C61.7136 341.591 56.3173 337.739 56.3173 337.739C56.3684 332.022 52.5881 309.835 54.6428 295.913L53.2096 272.276C53.2096 272.276 47.2357 314.593 46.2266 326.028C43.6527 330.527 36.3626 329.482 35.1415 326.753C35.1415 326.753 33.3135 302.744 34.1397 294.065Z" fill="#37474F"/>
<path d="M53.2096 272.274L51.6668 249.509C51.6668 249.509 45.0859 248.076 41.2471 242.436C42.2854 246.953 46.4313 250.865 49.0637 251.936L51.6814 271.255L50.5992 289.115L53.2096 272.274Z" fill="#263238"/>
<path d="M48.53 267.81C48.3193 273.23 47.8457 278.631 47.1114 283.986C46.2121 289.928 43.6675 321.217 43.0679 328.619C43.269 328.548 43.4668 328.464 43.6601 328.368C44.2963 320.44 46.7824 289.945 47.6672 284.107C48.4185 278.727 48.9068 273.3 49.1296 267.854C49.444 261.964 49.7365 256.402 50.0582 253.509L49.5025 253.422C49.1588 256.333 48.8663 261.912 48.53 267.81Z" fill="#263238"/>
<path d="M65.9619 338.467C66.6931 325.115 68.5212 294.81 68.3749 281.303C68.1994 265.179 67.7388 240.091 66.6346 229.675L66.0789 229.753C67.1757 240.117 67.6364 265.205 67.8119 281.312C67.9581 294.862 66.1301 325.434 65.3843 338.631L65.9619 338.467Z" fill="#263238"/>
<path d="M67.1831 246.245C70.2688 242.575 69.8374 234.888 69.5668 230.095C69.5376 229.692 69.5157 229.312 69.501 228.955L70.0641 228.912C70.0641 229.266 70.0641 229.646 70.1299 230.043C70.415 235.156 70.8611 243.482 67.205 247.178L67.1831 246.245Z" fill="#263238"/>
<path d="M60.0402 165.401L58.629 175.401L46.1765 175.531L48.1508 164.753L60.0402 165.401Z" fill="#C8856A"/>
<path d="M63.8062 147.611C64.7275 148.915 67.5938 152.87 67.7108 153.656L65.5172 155.384L63.8062 147.611Z" fill="#AF6152"/>
<path d="M57.1232 137.677C60.6988 137.107 63.0972 140.043 64.3329 149.017C64.3841 149.371 64.8374 149.88 65.203 151.253C66.7678 156.988 66.0878 162.524 65.2908 164.018C63.258 166.056 60.9693 166.859 57.6131 166.609C55.0612 166.436 48.5315 165.745 45.1826 161.755C41.1975 157.091 39.077 149.941 41.7532 146.115C45.4751 140.734 55.1562 137.971 57.1232 137.677Z" fill="#C8856A"/>
<path d="M65.29 164.003C64.8513 164.867 62.314 166.646 59.8499 166.723L60.04 165.134C61.8278 165.066 63.5971 164.685 65.29 164.003Z" fill="#AF6152"/>
<path d="M58.088 153.733C58.059 153.876 57.9956 154.007 57.9054 154.109C57.8153 154.211 57.7022 154.28 57.5796 154.309C57.4571 154.337 57.3302 154.323 57.2142 154.268C57.0982 154.214 56.9979 154.121 56.9254 154.001C56.5445 153.367 56.1029 152.787 55.6092 152.273C54.9862 151.697 54.2055 151.411 53.4156 151.47C50.4908 151.833 51.3024 156.384 52.7794 157.93C55.1997 160.461 56.4355 158.172 56.4355 158.172C56.4355 158.172 58.2269 162.542 55.814 165.202C55.814 165.202 51.4267 166.696 48.0193 165.573C45.4454 162.464 43.9245 161.316 42.1696 158.664C38.031 152.291 37.329 144.147 39.8444 142.255C39.6543 139.958 40.6341 136.452 44.5972 134.327C48.3776 132.298 50.9368 132.41 53.7081 132.505C56.4794 132.6 59.9087 133.982 62.4168 131.374C62.7505 132.278 62.8974 133.264 62.8453 134.249C62.7931 135.234 62.5435 136.19 62.117 137.039C62.5227 136.833 62.9796 136.817 63.395 136.994C63.8104 137.171 64.1532 137.528 64.3541 137.993C64.5549 138.457 64.5987 138.994 64.4766 139.496C64.3545 139.997 64.0755 140.425 63.6964 140.692C63.9763 140.867 64.1959 141.151 64.3174 141.496C64.4388 141.842 64.4545 142.226 64.3618 142.583C64.2586 142.936 64.0711 143.246 63.822 143.476C63.5729 143.706 63.2728 143.846 62.9579 143.879C62.3773 143.939 61.7926 143.913 61.2176 143.801C60.4864 146.496 57.9418 147.506 56.4282 147.437C58.1904 149.769 58.4536 152.472 58.088 153.733Z" fill="#263238"/>
<path d="M62.1392 175.755C59.5434 172.991 60.3331 172.844 58.644 171.212C56.5528 169.174 47.3834 166.643 46.6449 167.524C45.8616 168.486 44.947 169.286 43.9395 169.891C43.9395 169.891 44.3709 171.557 49.9061 173.138C55.1927 174.649 57.3059 174.442 62.1392 175.755Z" fill="#F0F0F0"/>
<path d="M45.6064 168.629C48.6556 169.234 54.1542 170.978 57.0425 171.911C59.9308 172.844 63.8866 175.936 63.8866 175.936C63.8866 175.936 69.4438 178.794 70.1238 179.692C70.8038 180.591 72.2078 184.727 72.7635 193.718C73.3192 202.708 73.7725 236.804 73.7725 236.804C72.5695 237.227 71.3493 237.579 70.1165 237.858L69.0636 227.633L67.8863 238.359C67.8863 238.359 57.4374 239.222 48.6848 237.037C39.9323 234.852 36.0495 228.228 36.0495 228.228C36.0495 228.228 37.3584 210.092 37.0074 206.387C36.6564 202.682 33.9217 187.154 34.2288 181.04C34.5359 174.925 36.5029 170.037 39.6983 169.476C43.5664 168.768 45.6064 168.629 45.6064 168.629Z" fill="#455A64"/>
<path d="M44.1438 170.498C44.9335 170.861 45.7451 171.146 46.5568 171.422C47.3684 171.698 48.1874 171.983 49.0063 172.286C50.6442 172.813 52.2748 173.339 53.92 173.814C55.5653 174.289 57.2105 174.678 58.8849 175.015L63.8864 175.939C62.19 175.844 60.4936 175.654 58.8118 175.403C57.1168 175.173 55.4364 174.813 53.7811 174.324C52.1286 173.832 50.4907 173.288 48.8747 172.666C47.2535 172.086 45.672 171.361 44.1438 170.498Z" fill="#37474F"/>
<path d="M47.2734 182.967C48.0046 187.009 48.5238 191.094 48.8894 195.204C49.289 199.329 49.4137 203.484 49.2623 207.632L48.6774 219.991L48.341 226.174L47.9535 232.349L48.107 226.157L48.3044 219.973L48.787 207.606C48.9515 203.485 48.8659 199.355 48.5311 195.248C48.3922 193.192 48.2021 191.145 47.99 189.099C47.778 187.052 47.522 185.005 47.2734 182.967Z" fill="#37474F"/>
<path d="M69.4509 223.963C72.4562 223.393 73.4726 222.235 73.4726 222.235V224.826C72.2175 225.597 70.8552 226.094 69.4509 226.294V223.963Z" fill="#37474F"/>
<path d="M59.3163 262.845L59.2285 294.687C59.2285 296.233 60.1425 297.132 61.2759 297.917L64.1057 299.869C64.4191 300.135 64.7769 300.318 65.1552 300.408C65.5334 300.497 65.9235 300.49 66.2993 300.387C66.8326 300.231 67.3446 299.987 67.8202 299.662H67.8787L68.0323 299.558L97.0685 279.911C98.1109 279.206 98.9776 278.189 99.581 276.962C100.184 275.736 100.503 274.343 100.505 272.924L100.593 243.932C100.576 243.571 100.488 243.22 100.336 242.906C100.183 242.593 99.9709 242.326 99.7155 242.127L94.8822 238.811C94.6105 238.647 94.3098 238.562 94.0047 238.562C93.6997 238.562 93.399 238.647 93.1273 238.811L60.223 261.101C59.9596 261.287 59.7427 261.552 59.5941 261.87C59.4349 262.163 59.3394 262.498 59.3163 262.845Z" fill="#37474F"/>
<path d="M59.3163 262.845L59.2285 294.687C59.2285 296.233 60.1425 297.131 61.2759 297.917L64.1057 299.869C64.4191 300.135 64.7769 300.318 65.1552 300.408C65.5334 300.497 65.9235 300.49 66.2993 300.387C66.8326 300.231 67.3446 299.987 67.8202 299.662C66.6868 300.275 65.7948 299.584 65.8021 298.004L65.8898 268.001C65.904 267.451 66.0401 266.915 66.2847 266.447L59.5649 261.835C59.4113 262.142 59.3258 262.489 59.3163 262.845Z" fill="#263238"/>
<path d="M65.9046 267.993C65.9294 267.447 66.0636 266.916 66.2962 266.443C66.5289 265.97 66.8533 265.569 67.2427 265.273L98.3702 244.209C99.5987 243.345 100.608 244.062 100.6 245.738L100.527 272.89C100.522 274.309 100.201 275.702 99.597 276.928C98.9925 278.154 98.1256 279.171 97.0833 279.877L68.0471 299.525C66.8113 300.388 65.8096 299.671 65.8534 297.996L65.9046 267.993Z" fill="#455A64"/>
<path d="M96.4611 239.848L63.469 262.398C63.004 262.718 62.6173 263.175 62.3469 263.724C62.0764 264.274 61.9314 264.897 61.9261 265.532L61.8384 298.316L62.3356 298.661L62.4307 265.55C62.4368 265.023 62.5587 264.508 62.7843 264.053C63.0098 263.599 63.3315 263.222 63.7176 262.959L96.9656 240.237L96.4611 239.848Z" fill="#BA68C8"/>
<path d="M84.7551 243.906V248.838L86.3857 249.961V243.414C86.3857 243.069 86.1883 242.939 85.9397 243.103L84.7551 243.906Z" fill="#BA68C8"/>
<path opacity="0.3" d="M84.7551 243.906V248.838L86.3857 249.961V243.414C86.3857 243.069 86.1883 242.939 85.9397 243.103L84.7551 243.906Z" fill="black"/>
<path d="M73.2673 248.702V256.682L74.8175 257.762L75.8704 257.045V250.498C75.8791 250.315 75.924 250.137 76.0014 249.978C76.0789 249.819 76.1868 249.684 76.3165 249.583L84.2866 244.194L85.9392 243.071C86.1878 242.907 86.3925 243.071 86.3852 243.382V249.928L87.4381 249.212V241.232C87.4417 241.197 87.4417 241.162 87.4381 241.128C87.4182 240.964 87.3687 240.806 87.2931 240.666C87.2174 240.526 87.1173 240.407 86.9994 240.316L86.334 239.859C86.1963 239.774 86.0433 239.729 85.888 239.729C85.7327 239.729 85.5797 239.774 85.4419 239.859L73.7426 247.787C73.6071 247.883 73.4931 248.017 73.4104 248.176C73.3277 248.335 73.2786 248.516 73.2673 248.702Z" fill="#BA68C8"/>
<path opacity="0.2" d="M74.8535 249.77V257.758L75.9065 257.042V250.495C75.9151 250.312 75.96 250.134 76.0374 249.975C76.1149 249.816 76.2228 249.681 76.3525 249.58L84.3227 244.191L85.9752 243.068C86.2238 242.904 86.4285 243.068 86.4212 243.379V249.925L87.4742 249.208V241.229C87.4777 241.194 87.4777 241.159 87.4742 241.125C87.4376 240.866 87.2548 240.771 87.0354 240.926L75.3361 248.854C75.1992 248.95 75.0838 249.083 74.9998 249.242C74.9158 249.402 74.8656 249.583 74.8535 249.77Z" fill="black"/>
<path d="M85.3978 242.179C84.7758 239.687 84.2874 237.151 83.9354 234.587C83.5405 231.901 83.6575 229.181 83.4382 224.146L73.6912 227.091C74.3105 229.522 74.823 231.99 75.2267 234.484C75.6435 237.17 74.8245 239.605 74.8392 242.256C74.8159 243.454 75.0904 244.634 75.6289 245.65C75.936 246.186 76.3601 246.635 76.6306 247.162C77.2229 248.207 77.201 248.949 76.3162 249.545C76.1516 249.683 76.0227 249.873 75.9439 250.092C75.8652 250.312 75.8396 250.553 75.8702 250.789C76.1475 251.172 76.5134 251.451 76.9231 251.592C77.097 251.65 77.2763 251.682 77.4569 251.687C77.6397 251.687 77.8517 251.575 78.0272 251.592C78.2027 251.609 78.3782 251.765 78.5829 251.782C78.787 251.782 78.9905 251.756 79.1898 251.704C79.5798 251.664 79.9498 251.483 80.2501 251.186C80.528 250.867 80.6376 250.323 80.9813 250.115C81.4273 249.77 82.0196 250.046 82.5461 250.012C82.8081 249.986 83.0602 249.882 83.2779 249.708C83.4957 249.534 83.6718 249.296 83.7891 249.019C83.8595 248.697 83.995 248.401 84.184 248.155C84.4033 247.948 84.7178 247.965 84.981 247.835C85.1329 247.752 85.2685 247.632 85.3793 247.483C85.49 247.334 85.5735 247.16 85.6245 246.972C86.1071 245.495 85.7561 243.742 85.3978 242.179Z" fill="#C8856A"/>
<path d="M72.822 180.81C75.3958 182.339 76.0393 182.969 77.4505 186.355C78.8617 189.74 80.7263 199.041 81.2747 204.638C81.8231 210.234 83.2124 215.597 83.5488 221.288C83.8851 226.98 83.8559 231.574 83.8559 231.574C82.4648 232.408 80.9501 232.915 79.3955 233.068C77.8475 233.356 76.2711 233.356 74.7231 233.068C74.7231 233.068 71.1182 217.359 70.1823 213.067C69.2463 208.774 65.8755 197.115 65.8755 197.115C64.7421 189.533 66.3142 181 68.0691 178.245C68.0764 178.271 70.2481 179.273 72.822 180.81Z" fill="#37474F"/>
<path d="M68.3465 94.839C68.3524 99.6888 66.7972 104.36 63.9958 107.906L62.6504 109.417C59.5602 112.534 55.5901 114.162 51.5296 113.979C47.4692 113.795 43.6159 111.814 40.7362 108.428C37.8565 105.042 36.1613 100.5 35.9879 95.7046C35.8145 90.9097 37.1754 86.2133 39.8001 82.5496L41.0797 80.9605C43.3769 78.4039 46.2571 76.697 49.3655 76.0501C52.474 75.4032 55.6747 75.8446 58.5733 77.32C61.472 78.7954 63.9417 81.2402 65.6783 84.3531C67.4149 87.4661 68.3424 91.1111 68.3465 94.839Z" fill="white"/>
<path d="M52.1138 74.1384C47.6921 74.1125 43.4251 76.0591 40.1662 79.5888C36.9072 83.1185 34.8965 87.9711 34.5362 93.1763C34.1759 98.3814 35.4925 103.555 38.2227 107.663C40.953 111.771 44.8956 114.511 49.2621 115.334L51.251 121.379C51.324 121.607 51.4541 121.803 51.6239 121.942C51.7937 122.08 51.9952 122.154 52.2016 122.154C52.4079 122.154 52.6094 122.08 52.7792 121.942C52.949 121.803 53.0791 121.607 53.1521 121.379L55.1118 115.334C59.4728 114.485 63.4022 111.724 66.1148 107.603C68.8274 103.481 70.1234 98.3029 69.7438 93.102C69.3642 87.901 67.337 83.0607 64.0673 79.5484C60.7976 76.036 56.5261 74.1102 52.1065 74.1557L52.1138 74.1384ZM68.3466 94.8655C68.3526 99.7153 66.7973 104.386 63.9959 107.932L62.6505 109.444C59.5603 112.56 55.5902 114.189 51.5298 114.005C47.4693 113.822 43.6161 111.84 40.7364 108.454C37.8566 105.068 36.1615 100.526 35.988 95.7311C35.8146 90.9362 37.1756 86.2398 39.8003 82.5761L41.0799 80.987C43.3756 78.4319 46.2539 76.7254 49.3603 76.0777C52.4667 75.4299 55.6657 75.8691 58.5634 77.3413C61.4612 78.8135 63.9312 81.2543 65.6695 84.3634C67.4077 87.4724 68.3383 91.1139 68.3466 94.8396V94.8655Z" fill="#455A64"/>
<path opacity="0.7" d="M68.3465 94.839C68.3524 99.6888 66.7972 104.36 63.9958 107.906L62.6504 109.417C59.5602 112.534 55.5901 114.162 51.5296 113.979C47.4692 113.795 43.6159 111.814 40.7362 108.428C37.8565 105.042 36.1613 100.5 35.9879 95.7046C35.8145 90.9097 37.1754 86.2133 39.8001 82.5496L41.0797 80.9605C43.3769 78.4039 46.2571 76.697 49.3655 76.0501C52.474 75.4032 55.6747 75.8446 58.5733 77.32C61.472 78.7954 63.9417 81.2402 65.6783 84.3531C67.4149 87.4661 68.3424 91.1111 68.3465 94.839Z" fill="white"/>
<path d="M52.5233 84.4838L54.7534 91.0214L60.6982 91.505C60.7859 91.4996 60.8726 91.5289 60.9447 91.5882C61.0168 91.6475 61.07 91.7336 61.096 91.8327C61.1221 91.9318 61.1193 92.0383 61.0883 92.1354C61.0573 92.2325 60.9998 92.3146 60.9248 92.3687L56.3548 96.8855L57.8172 103.717C57.8365 103.807 57.8325 103.902 57.8057 103.99C57.7789 104.077 57.7305 104.153 57.6668 104.208C57.6031 104.263 57.527 104.294 57.4483 104.297C57.3695 104.3 57.2917 104.276 57.2249 104.226L52.1869 100.452L47.1342 104.192C47.0669 104.239 46.9891 104.263 46.9106 104.259C46.8321 104.255 46.7563 104.224 46.6925 104.17C46.6288 104.116 46.5798 104.041 46.5518 103.954C46.5237 103.867 46.5178 103.773 46.5347 103.682L47.9971 96.8509L43.4124 92.3341C43.3423 92.2759 43.2897 92.1928 43.2624 92.0968C43.2351 92.0009 43.2345 91.8971 43.2606 91.8007C43.2867 91.7043 43.3382 91.6203 43.4076 91.5609C43.477 91.5015 43.5607 91.4698 43.6464 91.4705L49.5911 90.9869L51.7847 84.4492C51.8186 84.3653 51.8725 84.2951 51.9399 84.247C52.0072 84.199 52.085 84.1754 52.1636 84.1791C52.2422 84.1828 52.3182 84.2136 52.3821 84.2677C52.446 84.3219 52.4951 84.397 52.5233 84.4838Z" fill="#BA68C8"/>
<defs>
<linearGradient id="paint0_linear_5812_101865" x1="240.287" y1="119.025" x2="157.199" y2="313.321" gradientUnits="userSpaceOnUse">
<stop stop-color="#4C1D95" stop-opacity="0"/>
<stop offset="1" stop-color="#881D95" stop-opacity="0.39"/>
</linearGradient>
</defs>
</svg>
