<svg width="24" height="24" viewBox="0 0 24 24" fill="none" xmlns="http://www.w3.org/2000/svg">
<path d="M12.3536 13.0606L12 12.7071L11.6464 13.0606L8.11091 16.5962C8.01714 16.6899 7.88997 16.7426 7.75736 16.7426C7.62475 16.7426 7.49757 16.6899 7.40381 16.5962C7.31004 16.5024 7.25736 16.3752 7.25736 16.2426C7.25736 16.11 7.31004 15.9828 7.40381 15.889L10.9393 12.3535L11.2929 12L10.9393 11.6464L7.40381 8.11087C7.31004 8.0171 7.25736 7.88993 7.25736 7.75732C7.25736 7.62471 7.31004 7.49753 7.40381 7.40377C7.49757 7.31 7.62475 7.25732 7.75736 7.25732C7.88997 7.25732 8.01714 7.31 8.11091 7.40377L11.6464 10.9393L12 11.2929L12.3536 10.9393L15.8891 7.40376C15.9829 7.31 16.11 7.25732 16.2426 7.25732C16.3752 7.25732 16.5024 7.31 16.5962 7.40376C16.69 7.49753 16.7426 7.62471 16.7426 7.75732C16.7426 7.88993 16.69 8.0171 16.5962 8.11087L13.0607 11.6464L12.7071 12L13.0607 12.3535L16.5962 15.889C16.69 15.9828 16.7426 16.11 16.7426 16.2426C16.7426 16.3752 16.69 16.5024 16.5962 16.5962C16.5024 16.6899 16.3752 16.7426 16.2426 16.7426C16.11 16.7426 15.9829 16.6899 15.8891 16.5962L12.3536 13.0606Z" fill="white" stroke="white"/>
</svg>
