<svg width="24" height="24" viewBox="0 0 24 24" fill="none" xmlns="http://www.w3.org/2000/svg">
<path d="M12.3536 13.0607L12 12.7072L11.6464 13.0607L8.11091 16.5963C8.01714 16.69 7.88997 16.7427 7.75736 16.7427C7.62475 16.7427 7.49757 16.69 7.40381 16.5963C7.31004 16.5025 7.25736 16.3753 7.25736 16.2427C7.25736 16.1101 7.31004 15.9829 7.40381 15.8892L10.9393 12.3536L11.2929 12.0001L10.9393 11.6465L7.40381 8.11099C7.31004 8.01723 7.25736 7.89005 7.25736 7.75744C7.25736 7.62483 7.31004 7.49766 7.40381 7.40389C7.49757 7.31012 7.62475 7.25744 7.75736 7.25744C7.88997 7.25744 8.01714 7.31012 8.11091 7.40389L11.6464 10.9394L12 11.293L12.3536 10.9394L15.8891 7.40389C15.9829 7.31012 16.11 7.25744 16.2426 7.25744C16.3752 7.25744 16.5024 7.31012 16.5962 7.40389C16.69 7.49766 16.7426 7.62483 16.7426 7.75744C16.7426 7.89005 16.69 8.01723 16.5962 8.11099L13.0607 11.6465L12.7071 12.0001L13.0607 12.3536L16.5962 15.8892C16.69 15.9829 16.7426 16.1101 16.7426 16.2427C16.7426 16.3753 16.69 16.5025 16.5962 16.5963C16.5024 16.69 16.3752 16.7427 16.2426 16.7427C16.11 16.7427 15.9829 16.69 15.8891 16.5963L12.3536 13.0607Z" fill="black" stroke="black"/>
</svg>
