<svg width="32" height="32" viewBox="0 0 32 32" fill="none" xmlns="http://www.w3.org/2000/svg">
<rect width="32" height="32" rx="6" fill="#B79DCB"/>
<path fill-rule="evenodd" clip-rule="evenodd" d="M7 8.34043C7 7.60013 7.60013 7 8.34043 7H13.4468C14.1871 7 14.7872 7.60013 14.7872 8.34043V16C14.7872 16.7403 14.1871 17.3404 13.4468 17.3404H8.34043C7.60013 17.3404 7 16.7403 7 16V8.34043ZM8.40426 8.40426V15.9362H13.383V8.40426H8.40426Z" fill="white"/>
<path fill-rule="evenodd" clip-rule="evenodd" d="M18.5532 7C17.8129 7 17.2128 7.60013 17.2128 8.34043V10.9064C17.2128 11.6467 17.8129 12.2468 18.5532 12.2468H23.6596C24.3999 12.2468 25 11.6467 25 10.9064V8.34043C25 7.60013 24.3999 7 23.6596 7H18.5532ZM18.617 10.8426V8.40426H23.5957V10.8426H18.617Z" fill="white"/>
<path fill-rule="evenodd" clip-rule="evenodd" d="M18.5532 14.6595C17.8129 14.6595 17.2128 15.2597 17.2128 16V23.6595C17.2128 24.3998 17.8129 25 18.5532 25H23.6596C24.3999 25 25 24.3998 25 23.6595V16C25 15.2597 24.3999 14.6595 23.6596 14.6595H18.5532ZM18.617 23.5957V16.0638H23.5957V23.5957H18.617Z" fill="white"/>
<path fill-rule="evenodd" clip-rule="evenodd" d="M8.34043 19.7532C7.60013 19.7532 7 20.3533 7 21.0936V23.6596C7 24.3999 7.60013 25 8.34043 25H13.4468C14.1871 25 14.7872 24.3999 14.7872 23.6596V21.0936C14.7872 20.3533 14.1871 19.7532 13.4468 19.7532H8.34043ZM8.40426 23.5957V21.1574H13.383V23.5957H8.40426Z" fill="white"/>
</svg>
