<svg width="24" height="24" viewBox="0 0 24 24" fill="none" xmlns="http://www.w3.org/2000/svg">
<path d="M9.18014 16.6261C9.06005 16.5101 9 16.3729 9 16.2143C9 16.0557 9.06005 15.9185 9.18014 15.8029L12.6988 12.4058L9.16813 8.9971C9.05604 8.88889 9 8.75362 9 8.5913C9 8.42899 9.06005 8.28986 9.18014 8.17391C9.30023 8.05797 9.44242 8 9.60671 8C9.77099 8 9.91302 8.05797 10.0328 8.17391L14.0679 12.0812C14.1159 12.1275 14.15 12.1778 14.1702 12.2319C14.1904 12.286 14.2003 12.344 14.2 12.4058C14.2 12.4676 14.1899 12.5256 14.1697 12.5797C14.1496 12.6338 14.1156 12.6841 14.0679 12.7304L10.0208 16.6377C9.9087 16.7459 9.77051 16.8 9.60623 16.8C9.44194 16.8 9.29991 16.742 9.18014 16.6261Z" fill="#52525B" stroke="#52525B" stroke-width="0.3"/>
</svg>
