<svg width="32" height="32" viewBox="0 0 32 32" fill="none" xmlns="http://www.w3.org/2000/svg">
<rect width="32" height="32" rx="6" fill="#B79DCB"/>
<path d="M16.9487 11.8461C16.6448 10.9344 15.3552 10.9344 15.0513 11.846L14.4779 13.5662C14.3418 13.9746 13.9597 14.25 13.5292 14.25H11.8508C10.9055 14.25 10.4879 15.4404 11.2261 16.0309L12.8305 17.3144C13.1577 17.5761 13.287 18.014 13.1545 18.4115L12.6958 19.7875C12.3807 20.7329 13.4911 21.5072 14.2692 20.8846L15.3753 19.9998C15.7405 19.7076 16.2595 19.7076 16.6247 19.9998L17.7308 20.8846C18.5089 21.5072 19.6193 20.7329 19.3042 19.7875L18.8455 18.4115C18.713 18.014 18.8423 17.5761 19.1695 17.3144L20.7739 16.0309C21.5121 15.4404 21.0945 14.25 20.1492 14.25H18.4708C18.0403 14.25 17.6582 13.9746 17.5221 13.5662L16.9487 11.8461Z" fill="white"/>
</svg>
