<svg width="32" height="32" viewBox="0 0 32 32" fill="none" xmlns="http://www.w3.org/2000/svg">
<rect width="32" height="32" rx="6" fill="#B79DCB"/>
<path d="M18.7428 7.77148C19.5612 7.77148 20.3461 8.09659 20.9248 8.67527C21.5034 9.25395 21.8286 10.0388 21.8286 10.8572C21.8286 11.6756 21.5034 12.4604 20.9248 13.0391C20.3461 13.6178 19.5612 13.9429 18.7428 13.9429M20.9371 16.9463C22.1054 17.3908 23.1111 18.1794 23.8213 19.208C24.5315 20.2365 24.9126 21.4564 24.9143 22.7063V24.2286H22.8571M16.3428 10.8572C16.3428 12.5614 14.9613 13.9429 13.2571 13.9429C11.5529 13.9429 10.1714 12.5614 10.1714 10.8572C10.1714 9.15301 11.5529 7.77148 13.2571 7.77148C14.9613 7.77148 16.3428 9.15301 16.3428 10.8572ZM19.4286 24.2286H7.08569V22.8572C7.08569 21.2204 7.7359 19.6507 8.89326 18.4933C10.0506 17.336 11.6204 16.6858 13.2571 16.6858C14.8939 16.6858 16.4636 17.336 17.621 18.4933C18.7783 19.6507 19.4286 21.2204 19.4286 22.8572V24.2286Z" stroke="white" stroke-width="1.6" stroke-linecap="round" stroke-linejoin="round"/>
</svg>
