<svg width="32" height="32" viewBox="0 0 32 32" fill="none" xmlns="http://www.w3.org/2000/svg">
<rect width="32" height="32" rx="6" fill="#581C87"/>
<path d="M18.7431 7.77148C19.5615 7.77148 20.3463 8.09659 20.925 8.67527C21.5037 9.25395 21.8288 10.0388 21.8288 10.8572C21.8288 11.6756 21.5037 12.4604 20.925 13.0391C20.3463 13.6178 19.5615 13.9429 18.7431 13.9429M20.9374 16.9463C22.1056 17.3908 23.1114 18.1794 23.8215 19.208C24.5317 20.2365 24.9129 21.4564 24.9145 22.7063V24.2286H22.8574M16.3431 10.8572C16.3431 12.5614 14.9616 13.9429 13.2574 13.9429C11.5532 13.9429 10.1717 12.5614 10.1717 10.8572C10.1717 9.15301 11.5532 7.77148 13.2574 7.77148C14.9616 7.77148 16.3431 9.15301 16.3431 10.8572ZM19.4288 24.2286H7.08594V22.8572C7.08594 21.2204 7.73614 19.6507 8.89351 18.4933C10.0509 17.336 11.6206 16.6858 13.2574 16.6858C14.8941 16.6858 16.4639 17.336 17.6212 18.4933C18.7786 19.6507 19.4288 21.2204 19.4288 22.8572V24.2286Z" stroke="white" stroke-width="1.6" stroke-linecap="round" stroke-linejoin="round"/>
</svg>
