<svg width="24" height="24" viewBox="0 0 24 24" fill="none" xmlns="http://www.w3.org/2000/svg">
<path d="M14.7428 3.77148C15.5612 3.77148 16.3461 4.09659 16.9248 4.67527C17.5034 5.25395 17.8286 6.03882 17.8286 6.8572C17.8286 7.67558 17.5034 8.46044 16.9248 9.03913C16.3461 9.61781 15.5612 9.94291 14.7428 9.94291M16.9371 12.9463C18.1054 13.3908 19.1111 14.1794 19.8213 15.208C20.5315 16.2365 20.9126 17.4564 20.9143 18.7063V20.2286H18.8571M12.3428 6.8572C12.3428 8.56139 10.9613 9.94291 9.25712 9.94291C7.55293 9.94291 6.17141 8.56139 6.17141 6.8572C6.17141 5.15301 7.55293 3.77148 9.25712 3.77148C10.9613 3.77148 12.3428 5.15301 12.3428 6.8572ZM15.4286 20.2286H3.08569V18.8572C3.08569 17.2204 3.7359 15.6507 4.89326 14.4933C6.05063 13.336 7.62036 12.6858 9.25712 12.6858C10.8939 12.6858 12.4636 13.336 13.621 14.4933C14.7783 15.6507 15.4286 17.2204 15.4286 18.8572V20.2286Z" stroke="white" stroke-width="1.6" stroke-linecap="round" stroke-linejoin="round"/>
</svg>
