<svg width="212" height="176" viewBox="0 0 212 176" fill="none" xmlns="http://www.w3.org/2000/svg">
<path d="M111.007 176C166.72 176 211.884 174.329 211.884 172.268C211.884 170.208 166.72 168.537 111.007 168.537C55.2941 168.537 10.1299 170.208 10.1299 172.268C10.1299 174.329 55.2941 176 111.007 176Z" fill="#581C87"/>
<path opacity="0.8" d="M111.007 176C166.72 176 211.884 174.329 211.884 172.268C211.884 170.208 166.72 168.537 111.007 168.537C55.2941 168.537 10.1299 170.208 10.1299 172.268C10.1299 174.329 55.2941 176 111.007 176Z" fill="white"/>
<path d="M159.49 32.0166C159.292 32.0166 159.102 32.095 158.962 32.2346C158.821 32.3742 158.743 32.5635 158.743 32.7609V36.5764H145.076V32.7609C145.076 32.5635 144.997 32.3742 144.857 32.2346C144.717 32.095 144.526 32.0166 144.328 32.0166C144.13 32.0166 143.939 32.095 143.799 32.2346C143.659 32.3742 143.58 32.5635 143.58 32.7609V128.869C143.58 129.066 143.659 129.255 143.799 129.395C143.939 129.535 144.13 129.613 144.328 129.613C144.526 129.613 144.717 129.535 144.857 129.395C144.997 129.255 145.076 129.066 145.076 128.869V107.37H158.743V128.869C158.743 129.066 158.821 129.255 158.962 129.395C159.102 129.535 159.292 129.613 159.49 129.613C159.689 129.613 159.879 129.535 160.019 129.395C160.16 129.255 160.238 129.066 160.238 128.869V32.746C160.234 32.5512 160.154 32.3657 160.014 32.2293C159.874 32.0929 159.686 32.0166 159.49 32.0166ZM158.743 105.896H145.076V101.073H158.743V105.896ZM158.743 99.5799H145.076V94.7621H158.743V99.5799ZM158.743 93.2686H145.076V88.4657H158.743V93.2686ZM158.743 86.9623H145.076V82.1793H158.743V86.9623ZM158.743 80.661H145.076V75.9325H158.743V80.661ZM158.743 74.3795H145.076V69.6212H158.743V74.3795ZM158.743 68.1278H145.076V63.3248H158.743V68.1278ZM158.743 61.8165H145.076V57.0136H158.743V61.8165ZM158.743 55.5201H145.076V50.7023H158.743V55.5201ZM158.743 49.2088H145.076V44.3811H158.743V49.2088ZM158.743 42.8926H145.076V38.0649H158.743V42.8926Z" fill="white"/>
<path d="M30.0335 109.499C30.0335 109.499 41.2272 94.2514 35.7675 90.6442C30.0884 86.918 27.4209 98.2059 26.2192 103.748C23.6564 115.577 24.3794 118.087 26.0996 115.487L30.0335 109.499Z" fill="#581C87"/>
<path opacity="0.5" d="M30.0335 109.499C30.0335 109.499 41.2272 94.2514 35.7675 90.6442C30.0884 86.918 27.4209 98.2059 26.2192 103.748C23.6564 115.577 24.3794 118.087 26.0996 115.487L30.0335 109.499Z" fill="white"/>
<path d="M34.2316 118.876C34.2316 118.876 49.793 108.07 45.7992 102.919C41.6459 97.5558 35.4383 107.385 32.4915 112.227C26.2041 122.587 26.0745 125.197 28.5476 123.292L34.2316 118.876Z" fill="#581C87"/>
<path opacity="0.5" d="M34.2316 118.876C34.2316 118.876 49.793 108.07 45.7992 102.919C41.6459 97.5558 35.4383 107.385 32.4915 112.227C26.2041 122.587 26.0745 125.197 28.5476 123.292L34.2316 118.876Z" fill="white"/>
<path d="M34.5708 131.41C34.5708 131.41 48.0331 125.391 45.7345 120.876C43.3413 116.177 37.1636 122.786 34.2069 126.071C27.8896 133.087 27.4109 135.062 29.5798 133.965L34.5708 131.41Z" fill="#581C87"/>
<path opacity="0.5" d="M34.5708 131.41C34.5708 131.41 48.0331 125.391 45.7345 120.876C43.3413 116.177 37.1636 122.786 34.2069 126.071C27.8896 133.087 27.4109 135.062 29.5798 133.965L34.5708 131.41Z" fill="white"/>
<path d="M35.369 143.998C35.369 143.998 48.8313 137.979 46.5377 133.464C44.1395 128.77 37.9668 135.374 35.0051 138.664C28.6928 145.68 28.2091 147.655 30.383 146.554L35.369 143.998Z" fill="#581C87"/>
<path opacity="0.5" d="M35.369 143.998C35.369 143.998 48.8313 137.979 46.5377 133.464C44.1395 128.77 37.9668 135.374 35.0051 138.664C28.6928 145.68 28.2091 147.655 30.383 146.554L35.369 143.998Z" fill="white"/>
<path d="M19.5778 115.87C19.5778 115.87 4.77933 104.046 0.935105 109.305C-3.05371 114.764 8.14489 117.954 13.6544 119.403C25.4115 122.494 27.9643 121.884 25.4314 120.058L19.5778 115.87Z" fill="#581C87"/>
<path opacity="0.5" d="M19.5778 115.87C19.5778 115.87 4.77933 104.046 0.935105 109.305C-3.05371 114.764 8.14489 117.954 13.6544 119.403C25.4115 122.494 27.9643 121.884 25.4314 120.058L19.5778 115.87Z" fill="white"/>
<path d="M20.0165 125.748C20.0165 125.748 3.15379 117.085 0.436405 123.004C-2.39067 129.162 9.22676 130.055 14.8959 130.383C27.0368 131.087 29.4201 129.986 26.5731 128.696L20.0165 125.748Z" fill="#581C87"/>
<path opacity="0.5" d="M20.0165 125.748C20.0165 125.748 3.15379 117.085 0.436405 123.004C-2.39067 129.162 9.22676 130.055 14.8959 130.383C27.0368 131.087 29.4201 129.986 26.5731 128.696L20.0165 125.748Z" fill="white"/>
<path d="M22.0553 136.823C22.0553 136.823 7.59585 129.876 5.4369 134.952C3.1882 140.227 13.0306 140.713 17.8521 140.857C28.1333 141.175 30.1227 140.182 27.6845 139.19L22.0553 136.823Z" fill="#581C87"/>
<path opacity="0.5" d="M22.0553 136.823C22.0553 136.823 7.59585 129.876 5.4369 134.952C3.1882 140.227 13.0306 140.713 17.8521 140.857C28.1333 141.175 30.1227 140.182 27.6845 139.19L22.0553 136.823Z" fill="white"/>
<path d="M22.764 145.769C22.764 145.769 9.12225 137.334 6.43479 142.152C3.63763 147.158 13.3753 148.682 18.1519 149.336C28.3434 150.736 30.4225 149.967 28.124 148.691L22.764 145.769Z" fill="#581C87"/>
<path opacity="0.5" d="M22.764 145.769C22.764 145.769 9.12225 137.334 6.43479 142.152C3.63763 147.158 13.3753 148.682 18.1519 149.336C28.3434 150.736 30.4225 149.967 28.124 148.691L22.764 145.769Z" fill="white"/>
<path d="M21.4725 100.89C21.4725 100.89 18.9097 78.7459 10.5033 81.0085C1.77275 83.3702 9.08225 94.5737 12.7919 99.9919C20.6747 111.523 23.5766 112.793 22.9534 109.191L21.4725 100.89Z" fill="#581C87"/>
<path opacity="0.5" d="M21.4725 100.89C21.4725 100.89 18.9097 78.7459 10.5033 81.0085C1.77275 83.3702 9.08225 94.5737 12.7919 99.9919C20.6747 111.523 23.5766 112.793 22.9534 109.191L21.4725 100.89Z" fill="white"/>
<path d="M12.2231 89.0762C12.2231 89.0762 25.0173 112.932 27.0017 124.006C29.2853 136.728 29.6543 150.938 28.0787 162.073" stroke="#581C87" stroke-width="1.25197" stroke-linecap="round" stroke-linejoin="round"/>
<path d="M24.9824 116.639L31.2498 97.5361" stroke="#581C87" stroke-width="1.25197" stroke-linecap="round" stroke-linejoin="round"/>
<path d="M27.002 124.007L38.7989 109.246" stroke="#581C87" stroke-width="1.25197" stroke-linecap="round" stroke-linejoin="round"/>
<path d="M26.2491 121.322L9.16699 114.182" stroke="#581C87" stroke-width="1.25197" stroke-linecap="round" stroke-linejoin="round"/>
<path d="M28.4829 134.005L41.3269 124.21" stroke="#581C87" stroke-width="1.25197" stroke-linecap="round" stroke-linejoin="round"/>
<path d="M27.8002 129.802L14.3828 127.023" stroke="#581C87" stroke-width="1.25197" stroke-linecap="round" stroke-linejoin="round"/>
<path d="M28.4431 140.028L18.0522 138.391" stroke="#581C87" stroke-width="1.25197" stroke-linecap="round" stroke-linejoin="round"/>
<path d="M29.3208 146.647L36.3112 140.415" stroke="#581C87" stroke-width="1.25197" stroke-linecap="round" stroke-linejoin="round"/>
<path d="M29.1808 149.45L17.2393 146.463" stroke="#581C87" stroke-width="1.25197" stroke-linecap="round" stroke-linejoin="round"/>
<path d="M20.3354 153.087H34.4509V155.995H33.2193L30.6715 171.857H24.1149L21.567 155.995H20.3354V153.087Z" fill="#581C87"/>
<path opacity="0.5" d="M20.3354 153.087H34.4509V155.995H33.2193L30.6715 171.857H24.1149L21.567 155.995H20.3354V153.087Z" fill="white"/>
<path d="M43.5803 3.29806C42.9683 2.7539 42.221 2.38271 41.4162 2.22304C40.6113 2.06337 39.7781 2.12104 39.0032 2.39007C36.2609 3.29805 33.6332 7.2426 34.2964 10.5818C34.7601 12.894 36.914 16.3026 37.5672 17.6026C38.2204 18.9026 37.3029 21.1006 35.2287 25.6653C33.1546 30.2301 32.3518 34.512 38.365 38.2829C44.3781 42.0538 51.184 36.07 54.6742 31.7781C58.1644 27.4863 52.0566 17.6026 51.533 13.4199C51.0095 9.23719 50.112 1.21911 43.5803 3.29806Z" fill="#263238"/>
<path d="M57.716 32.0659C56.2198 33.5556 54.4119 34.6988 52.4212 35.414C50.4304 36.1292 48.3057 36.3989 46.1983 36.204L44.7573 42.1828L47.4996 55.8324L65.4044 46.5987L61.3508 36.1792L57.716 32.0659Z" fill="#581C87" stroke="#263238" stroke-linecap="round" stroke-linejoin="round"/>
<path opacity="0.3" d="M57.716 32.0659C56.2198 33.5556 54.4119 34.6988 52.4212 35.414C50.4304 36.1292 48.3057 36.3989 46.1983 36.204L44.7573 42.1828L47.4996 55.8324L65.4044 46.5987L61.3508 36.1792L57.716 32.0659Z" fill="#263238"/>
<path d="M57.7157 32.0662L54.9733 13.9858L46.8461 15.643L42.7925 18.243C42.7925 18.243 37.9561 22.0188 37.9561 22.4058C37.9561 22.7928 46.1381 36.4176 46.1381 36.4176C48.2669 36.543 50.3982 36.2202 52.3932 35.4704C54.3881 34.7206 56.2017 33.5607 57.7157 32.0662Z" fill="white"/>
<path d="M57.7157 32.0662L54.9733 13.9858L46.8461 15.643L42.7925 18.243C42.7925 18.243 37.9561 22.0188 37.9561 22.4058C37.9561 22.7928 46.1381 36.4176 46.1381 36.4176C48.2669 36.543 50.3982 36.2202 52.3932 35.4704C54.3881 34.7206 56.2017 33.5607 57.7157 32.0662Z" stroke="#263238" stroke-linecap="round" stroke-linejoin="round"/>
<path opacity="0.5" d="M46.8113 31.2919C46.8113 31.2919 52.5402 27.0644 52.0117 28.3148C51.4832 29.5652 47.5243 32.6862 46.4623 32.7805C45.4003 32.8748 46.8113 31.2919 46.8113 31.2919Z" fill="#581C87"/>
<path d="M46.9858 23.2635L47.2102 23.4967L48.6063 24.9655L48.9653 30.6072L50.6755 30.3392L49.3243 25.0548L51.4882 29.5304L53.2882 27.7392L49.419 24.246L49.3243 21.4723L47.3448 20.4849" fill="#263238"/>
<path d="M43.8394 16.566C43.8394 16.566 42.1392 17.345 42.1392 18.9031C42.1392 20.4611 43.979 24.1677 45.1308 24.9467C46.2825 25.7257 48.257 22.1581 48.257 22.1581C48.257 22.1581 51.2486 23.5871 52.0464 22.2871C52.8441 20.9871 50.2165 16.695 48.5213 15.524C46.826 14.353 43.8394 16.566 43.8394 16.566Z" fill="white" stroke="#263238" stroke-linecap="round" stroke-linejoin="round"/>
<path d="M42.4033 15.0028C42.8708 16.1914 43.2638 17.4078 43.58 18.6448C43.8393 19.9448 47.3694 22.1579 47.7583 22.2869C48.1472 22.4159 48.4115 18.1238 48.4115 18.1238L47.3694 13.0527L42.4033 15.0028Z" fill="white"/>
<mask id="mask0_2832_28020" style="mask-type:luminance" maskUnits="userSpaceOnUse" x="42" y="13" width="7" height="10">
<path d="M42.4033 15.0028C42.8708 16.1914 43.2638 17.4078 43.58 18.6448C43.8393 19.9448 47.3694 22.1579 47.7583 22.2869C48.1472 22.4159 48.4115 18.1238 48.4115 18.1238L47.3694 13.0527L42.4033 15.0028Z" fill="white"/>
</mask>
<g mask="url(#mask0_2832_28020)">
<g style="mix-blend-mode:multiply" opacity="0.5">
<path d="M47.4801 13.5935C47.2608 13.5323 47.0376 13.4859 46.812 13.4546L43.2071 14.7199L42.7334 15.9504C42.9727 16.6153 43.2769 17.5085 43.4614 18.2329C44.0524 18.7071 44.7664 19.0048 45.5206 19.0913C46.6025 19.1658 47.5549 18.3322 48.228 17.31L47.4801 13.5935Z" fill="#581C87"/>
</g>
</g>
<path d="M42.4033 15.0028C42.8708 16.1914 43.2638 17.4078 43.58 18.6448C43.8393 19.9448 47.3694 22.1579 47.7583 22.2869C48.1472 22.4159 48.4115 18.1238 48.4115 18.1238L47.3694 13.0527L42.4033 15.0028Z" stroke="#263238" stroke-linecap="round" stroke-linejoin="round"/>
<path d="M40.0503 12.7897C40.0503 12.7897 38.6094 11.6237 38.6094 12.7897C38.6094 13.9558 39.9207 14.6108 40.9628 14.6108" fill="white"/>
<path d="M40.0503 12.7897C40.0503 12.7897 38.6094 11.6237 38.6094 12.7897C38.6094 13.9558 39.9207 14.6108 40.9628 14.6108" stroke="#263238" stroke-linecap="round" stroke-linejoin="round"/>
<path d="M47.7593 9.01909C47.7593 9.01909 48.6767 7.59006 48.936 9.15306C49.0554 10.1706 48.7749 11.1947 48.1532 12.0111L47.7593 9.01909Z" fill="white" stroke="#263238" stroke-linecap="round" stroke-linejoin="round"/>
<g opacity="0.5">
<path d="M40.0503 12.7897C40.0503 12.7897 38.6094 11.6237 38.6094 12.7897C38.6094 13.9558 39.9207 14.6108 40.9628 14.6108" fill="#581C87"/>
<path d="M40.0503 12.7897C40.0503 12.7897 38.6094 11.6237 38.6094 12.7897C38.6094 13.9558 39.9207 14.6108 40.9628 14.6108" stroke="#263238" stroke-linecap="round" stroke-linejoin="round"/>
</g>
<path opacity="0.5" d="M47.7593 9.01909C47.7593 9.01909 48.6767 7.59006 48.936 9.15306C49.0554 10.1706 48.7749 11.1947 48.1532 12.0111L47.7593 9.01909Z" fill="#581C87" stroke="#263238" stroke-linecap="round" stroke-linejoin="round"/>
<path d="M38.4297 9.02937C38.4297 9.02937 39.5515 13.6787 41.9598 15.9761C44.368 18.2734 46.9458 18.2933 47.8383 14.1997C48.5712 10.8256 46.7514 6.32512 46.7514 6.32512C46.7514 6.32512 40.8778 1.51205 38.4297 9.02937Z" fill="white"/>
<mask id="mask1_2832_28020" style="mask-type:luminance" maskUnits="userSpaceOnUse" x="38" y="4" width="11" height="14">
<path d="M38.4297 9.02937C38.4297 9.02937 39.5515 13.6787 41.9598 15.9761C44.368 18.2734 46.9458 18.2933 47.8383 14.1997C48.5712 10.8256 46.7514 6.32512 46.7514 6.32512C46.7514 6.32512 40.8778 1.51205 38.4297 9.02937Z" fill="white"/>
</mask>
<g mask="url(#mask1_2832_28020)">
<g style="mix-blend-mode:multiply" opacity="0.5">
<path d="M42.6128 4.81191L43.5252 7.0944C43.5252 7.0944 44.9612 6.77684 45.7689 8.50358C46.5767 10.2303 47.3894 12.7609 46.9257 14.7209C46.4819 16.5866 45.4299 17.2018 43.8094 17.2465C45.5745 17.9957 47.175 17.2465 47.8381 14.1899C48.5711 10.8158 46.7512 6.31537 46.7512 6.31537C46.7512 6.31537 44.7618 4.69283 42.6128 4.81191Z" fill="#581C87"/>
</g>
</g>
<path d="M38.4297 9.02937C38.4297 9.02937 39.5515 13.6787 41.9598 15.9761C44.368 18.2734 46.9458 18.2933 47.8383 14.1997C48.5712 10.8256 46.7514 6.32512 46.7514 6.32512C46.7514 6.32512 40.8778 1.51205 38.4297 9.02937Z" stroke="#263238" stroke-linecap="round" stroke-linejoin="round"/>
<path d="M42.8871 11.4847C43.0267 11.7477 43.0018 12.0305 42.8322 12.1198C42.6627 12.2091 42.4134 12.0652 42.2788 11.8022C42.1442 11.5393 42.1641 11.2614 42.3336 11.1721C42.5032 11.0828 42.7525 11.2266 42.8871 11.4847Z" fill="#263238"/>
<path d="M45.4903 10.6817C45.59 10.9596 45.5252 11.2374 45.3457 11.297C45.1662 11.3565 44.9368 11.1878 44.8471 10.91C44.7573 10.6321 44.8122 10.3542 44.9917 10.2947C45.1712 10.2351 45.3906 10.4138 45.4903 10.6817Z" fill="#263238"/>
<path d="M45.6696 9.19269C45.4659 9.0565 45.223 8.99052 44.9781 9.00486C44.7331 9.0192 44.4996 9.11307 44.3134 9.27208C43.5954 9.82781 44.9516 12.6114 44.9516 12.6114C44.9516 12.6114 44.9766 13.4897 43.8447 13.0828" stroke="#263238" stroke-width="0.5" stroke-linecap="round" stroke-linejoin="round"/>
<path d="M45.6702 13.9858C45.5925 14.1686 45.4733 14.3308 45.3218 14.4598C45.1703 14.5888 44.9908 14.681 44.7974 14.7291C44.604 14.7773 44.402 14.78 44.2073 14.7371C44.0127 14.6942 43.8307 14.6069 43.6758 14.482" stroke="#263238" stroke-width="0.5" stroke-linecap="round" stroke-linejoin="round"/>
<path d="M42.6332 9.93185C42.6332 9.93185 41.3568 8.73603 40.7983 11.0433" stroke="#263238" stroke-width="0.5" stroke-linecap="round" stroke-linejoin="round"/>
<path d="M46.8263 4.85139C45.4252 3.64068 44.2934 3.65556 43.7998 3.81435C43.3377 3.52743 42.8123 3.3571 42.2691 3.31815C38.3501 2.79715 37.8265 5.79912 37.8265 8.65222C37.8265 11.5053 35.3335 14.8943 37.0437 15.2863C37.5118 15.3981 38.0044 15.3419 38.4349 15.1277C38.8654 14.9135 39.2062 14.555 39.3971 14.1153C39.3971 14.1153 41.227 11.1381 41.227 9.03925C41.227 6.94036 43.5056 7.13883 43.5056 7.13883C43.604 6.9943 43.7326 6.87266 43.8827 6.78223C44.0327 6.6918 44.2006 6.63473 44.3749 6.61494C44.5492 6.59514 44.7257 6.61309 44.8924 6.66755C45.059 6.722 45.2119 6.81168 45.3405 6.93043C46.3776 7.81366 46.4972 8.8507 47.3349 9.11864C48.1725 9.38658 49.5736 8.04687 49.5736 8.04687C48.7755 6.88687 47.8544 5.81557 46.8263 4.85139Z" fill="#263238"/>
<path d="M43.6153 5.63C43.6153 5.63 42.0397 4.36967 40.6237 5.78382C39.2077 7.19797 39.3622 9.87245 38.8886 11.6042C38.4149 13.3359 37.1484 13.6485 37.1484 13.6485" stroke="white" stroke-width="0.5" stroke-linecap="round" stroke-linejoin="round"/>
<path d="M42.5139 5.15909C42.5139 5.15909 40.8137 3.48196 38.6747 5.60566C37.0443 7.23317 37.7722 8.29998 37.4531 10.9745" stroke="white" stroke-width="0.5" stroke-linecap="round" stroke-linejoin="round"/>
<path d="M44.4082 4.84114C44.4082 4.84114 47.3998 3.42698 48.6762 7.04423" stroke="white" stroke-width="0.5" stroke-linecap="round" stroke-linejoin="round"/>
<path d="M37.9559 22.4155L33.4336 40.5257L46.6964 44.2668L47.3496 41.9249L38.639 37.9258L41.5957 27.5062C41.5957 27.5062 41.2068 25.5563 39.1027 23.3483" fill="white"/>
<mask id="mask2_2832_28020" style="mask-type:luminance" maskUnits="userSpaceOnUse" x="33" y="22" width="15" height="23">
<path d="M37.9559 22.4155L33.4336 40.5257L46.6964 44.2668L47.3496 41.9249L38.639 37.9258L41.5957 27.5062C41.5957 27.5062 41.2068 25.5563 39.1027 23.3483" fill="white"/>
</mask>
<g mask="url(#mask2_2832_28020)">
<g style="mix-blend-mode:multiply" opacity="0.5">
<path d="M47.37 41.9409L38.6594 37.9416L41.6161 27.5216C41.3846 26.6566 41.0087 25.8364 40.5043 25.0952L40.2201 24.8818V27.7597C40.2201 29.6006 37.9065 35.4706 37.0938 36.85C36.2811 38.2294 35.0146 39.9562 35.0146 39.9562L37.5575 38.805L47.1955 42.6455L47.37 41.9409Z" fill="#581C87"/>
</g>
</g>
<path d="M37.9559 22.4155L33.4336 40.5257L46.6964 44.2668L47.3496 41.9249L38.639 37.9258L41.5957 27.5062C41.5957 27.5062 41.2068 25.5563 39.1027 23.3483" stroke="#263238" stroke-linecap="round" stroke-linejoin="round"/>
<path d="M75.2468 27.8543L65.205 25.7554L54.9487 13.9609L56.4645 23.4481L62.7568 29.4124L75.4014 29.9879L75.2468 27.8543Z" fill="white"/>
<mask id="mask3_2832_28020" style="mask-type:luminance" maskUnits="userSpaceOnUse" x="54" y="13" width="22" height="17">
<path d="M75.2468 27.8543L65.205 25.7554L54.9487 13.9609L56.4645 23.4481L62.7568 29.4124L75.4014 29.9879L75.2468 27.8543Z" fill="white"/>
</mask>
<g mask="url(#mask3_2832_28020)">
<g style="mix-blend-mode:multiply" opacity="0.5">
<path d="M54.9487 13.9609L56.1703 21.5328L56.9481 23.8997L57.0478 23.989C57.342 23.6863 59.0024 21.9695 59.4262 21.9695C59.85 21.9695 64.6316 26.1127 63.9385 26.4352L63.2405 26.7776L75.1521 28.7326L75.2369 27.8246L65.2149 25.7306L54.9487 13.9609Z" fill="#581C87"/>
</g>
</g>
<path d="M75.2468 27.8543L65.205 25.7554L54.9487 13.9609L56.4645 23.4481L62.7568 29.4124L75.4014 29.9879L75.2468 27.8543Z" stroke="#263238" stroke-linecap="round" stroke-linejoin="round"/>
<path d="M168.989 128.273L41.113 109.627C40.7064 109.567 40.3405 109.349 40.0955 109.02C39.8506 108.692 39.7467 108.28 39.8066 107.875L50.4568 35.5786C50.4861 35.3785 50.5547 35.1861 50.6588 35.0125C50.7629 34.8388 50.9004 34.6872 51.0634 34.5665C51.2264 34.4457 51.4118 34.3582 51.6088 34.3088C51.8059 34.2594 52.0108 34.2492 52.2119 34.2787L54.6351 34.631C54.942 34.6768 55.2557 34.6293 55.5351 34.4948C55.8144 34.3602 56.0464 34.1448 56.2007 33.8768L59.4167 28.3445C59.5143 28.1708 59.6467 28.0189 59.8056 27.898C60.5584 27.3562 61.4941 27.1283 62.4133 27.2629L94.6479 31.9665C95.371 32.0699 96.0447 32.3921 96.5775 32.8894C96.7196 33.0311 96.8315 33.1999 96.9065 33.3856L99.7735 40.451C99.8741 40.7009 100.039 40.9201 100.252 41.0864C100.464 41.2528 100.717 41.3605 100.985 41.3987L180.088 52.9396C180.495 52.9985 180.861 53.2155 181.107 53.543C181.353 53.8704 181.458 54.2815 181.4 54.6861L170.75 126.978C170.688 127.382 170.468 127.744 170.138 127.987C169.808 128.23 169.395 128.333 168.989 128.273Z" fill="#263238" stroke="#263238" stroke-miterlimit="10"/>
<path d="M170.35 127.921H43.6005C43.2325 127.921 42.8681 127.848 42.5281 127.708C42.1882 127.568 41.8793 127.363 41.6191 127.104C41.3589 126.845 41.1525 126.538 41.0116 126.199C40.8708 125.861 40.7983 125.498 40.7983 125.132V54.5571C40.7983 53.8175 41.0936 53.1083 41.6191 52.5853C42.1446 52.0624 42.8573 51.7686 43.6005 51.7686H43.9445C44.5055 51.7675 45.0534 51.5997 45.518 51.2868C45.9826 50.9739 46.3427 50.5301 46.5522 50.0122L48.4818 45.1845C48.6975 44.6273 49.0918 44.1564 49.6037 43.8448C50.1535 43.5217 50.78 43.3505 51.4186 43.3486H83.9972C84.4351 43.3482 84.8693 43.4272 85.2786 43.5818C85.8473 43.8099 86.3217 44.2225 86.6249 44.7528L89.9406 50.3744C90.1877 50.7943 90.5409 51.1425 90.9651 51.3845C91.3893 51.6265 91.8698 51.7538 92.3588 51.7537H170.35C171.093 51.7537 171.806 52.0475 172.332 52.5705C172.857 53.0934 173.152 53.8027 173.152 54.5422V125.132C173.152 125.498 173.08 125.861 172.939 126.199C172.798 126.538 172.592 126.845 172.332 127.104C172.071 127.363 171.762 127.568 171.422 127.708C171.083 127.848 170.718 127.921 170.35 127.921Z" fill="#581C87"/>
<mask id="mask4_2832_28020" style="mask-type:luminance" maskUnits="userSpaceOnUse" x="40" y="43" width="134" height="85">
<path d="M170.35 127.921H43.6005C43.2325 127.921 42.8681 127.848 42.5281 127.708C42.1882 127.568 41.8793 127.363 41.6191 127.104C41.3589 126.845 41.1525 126.538 41.0116 126.199C40.8708 125.861 40.7983 125.498 40.7983 125.132V54.5571C40.7983 53.8175 41.0936 53.1083 41.6191 52.5853C42.1446 52.0624 42.8573 51.7686 43.6005 51.7686H43.9445C44.5055 51.7675 45.0534 51.5997 45.518 51.2868C45.9826 50.9739 46.3427 50.5301 46.5522 50.0122L48.4818 45.1845C48.6975 44.6273 49.0918 44.1564 49.6037 43.8448C50.1535 43.5217 50.78 43.3505 51.4186 43.3486H83.9972C84.4351 43.3482 84.8693 43.4272 85.2786 43.5818C85.8473 43.8099 86.3217 44.2225 86.6249 44.7528L89.9406 50.3744C90.1877 50.7943 90.5409 51.1425 90.9651 51.3845C91.3893 51.6265 91.8698 51.7538 92.3588 51.7537H170.35C171.093 51.7537 171.806 52.0475 172.332 52.5705C172.857 53.0934 173.152 53.8027 173.152 54.5422V125.132C173.152 125.498 173.08 125.861 172.939 126.199C172.798 126.538 172.592 126.845 172.332 127.104C172.071 127.363 171.762 127.568 171.422 127.708C171.083 127.848 170.718 127.921 170.35 127.921Z" fill="white"/>
</mask>
<g mask="url(#mask4_2832_28020)">
<path opacity="0.1" d="M170.35 127.921H43.6005C43.2325 127.921 42.8681 127.848 42.5281 127.708C42.1882 127.568 41.8793 127.363 41.6191 127.104C41.3589 126.845 41.1525 126.538 41.0116 126.199C40.8708 125.861 40.7983 125.498 40.7983 125.132V54.5571C40.7983 53.8175 41.0936 53.1083 41.6191 52.5853C42.1446 52.0624 42.8573 51.7686 43.6005 51.7686H43.9445C44.5055 51.7675 45.0534 51.5997 45.518 51.2868C45.9826 50.9739 46.3427 50.5301 46.5522 50.0122L48.4818 45.1845C48.6975 44.6273 49.0918 44.1564 49.6037 43.8448C50.1535 43.5217 50.78 43.3505 51.4186 43.3486H83.9972C84.4351 43.3482 84.8693 43.4272 85.2786 43.5818C85.8473 43.8099 86.3217 44.2225 86.6249 44.7528L89.9406 50.3744C90.1877 50.7943 90.5409 51.1425 90.9651 51.3845C91.3893 51.6265 91.8698 51.7538 92.3588 51.7537H170.35C171.093 51.7537 171.806 52.0475 172.332 52.5705C172.857 53.0934 173.152 53.8027 173.152 54.5422V125.132C173.152 125.498 173.08 125.861 172.939 126.199C172.798 126.538 172.592 126.845 172.332 127.104C172.071 127.363 171.762 127.568 171.422 127.708C171.083 127.848 170.718 127.921 170.35 127.921Z" fill="#263238"/>
</g>
<path d="M170.35 127.921H43.6005C43.2325 127.921 42.8681 127.848 42.5281 127.708C42.1882 127.568 41.8793 127.363 41.6191 127.104C41.3589 126.845 41.1525 126.538 41.0116 126.199C40.8708 125.861 40.7983 125.498 40.7983 125.132V54.5571C40.7983 53.8175 41.0936 53.1083 41.6191 52.5853C42.1446 52.0624 42.8573 51.7686 43.6005 51.7686H43.9445C44.5055 51.7675 45.0534 51.5997 45.518 51.2868C45.9826 50.9739 46.3427 50.5301 46.5522 50.0122L48.4818 45.1845C48.6975 44.6273 49.0918 44.1564 49.6037 43.8448C50.1535 43.5217 50.78 43.3505 51.4186 43.3486H83.9972C84.4351 43.3482 84.8693 43.4272 85.2786 43.5818C85.8473 43.8099 86.3217 44.2225 86.6249 44.7528L89.9406 50.3744C90.1877 50.7943 90.5409 51.1425 90.9651 51.3845C91.3893 51.6265 91.8698 51.7538 92.3588 51.7537H170.35C171.093 51.7537 171.806 52.0475 172.332 52.5705C172.857 53.0934 173.152 53.8027 173.152 54.5422V125.132C173.152 125.498 173.08 125.861 172.939 126.199C172.798 126.538 172.592 126.845 172.332 127.104C172.071 127.363 171.762 127.568 171.422 127.708C171.082 127.848 170.718 127.921 170.35 127.921Z" stroke="#263238" stroke-miterlimit="10"/>
<path d="M76.6134 51.5311H56.3303C55.8463 51.5311 55.3821 51.3398 55.0399 50.9992C54.6976 50.6586 54.5054 50.1967 54.5054 49.7151C54.5047 49.4762 54.5514 49.2395 54.6429 49.0186C54.7343 48.7977 54.8686 48.5969 55.0381 48.4277C55.2076 48.2585 55.409 48.1243 55.6308 48.0328C55.8525 47.9412 56.0902 47.894 56.3303 47.894H76.6134C77.0987 47.894 77.5641 48.0859 77.9073 48.4274C78.2505 48.7689 78.4433 49.2321 78.4433 49.7151C78.4433 49.954 78.3959 50.1905 78.3039 50.4112C78.2119 50.6319 78.077 50.8323 77.907 51.001C77.737 51.1697 77.5353 51.3033 77.3133 51.3943C77.0913 51.4853 76.8535 51.5318 76.6134 51.5311Z" fill="white"/>
<path d="M170.35 140.235H43.6005C42.8573 140.235 42.1446 139.942 41.6191 139.419C41.0936 138.896 40.7983 138.187 40.7983 137.447V66.8719C40.7983 66.1324 41.0936 65.4231 41.6191 64.9002C42.1446 64.3773 42.8573 64.0835 43.6005 64.0835H43.9445C44.5057 64.083 45.0539 63.9155 45.5186 63.6025C45.9833 63.2895 46.3433 62.8453 46.5522 62.327L48.4818 57.5043C48.6962 56.9463 49.0908 56.4751 49.6037 56.1646C50.1526 55.8395 50.7797 55.6681 51.4186 55.6685H83.9972C84.4351 55.668 84.8693 55.747 85.2786 55.9017C85.8487 56.1299 86.3235 56.5447 86.6249 57.0776L89.9406 62.7041C90.1877 63.124 90.5409 63.4723 90.9651 63.7142C91.3893 63.9562 91.8698 64.0835 92.3588 64.0835H170.35C171.093 64.0835 171.806 64.3773 172.332 64.9002C172.857 65.4231 173.152 66.1324 173.152 66.8719V137.447C173.152 138.187 172.857 138.896 172.332 139.419C171.806 139.942 171.093 140.235 170.35 140.235Z" fill="#263238" stroke="#263238" stroke-miterlimit="10"/>
<path d="M86.3308 36.9781L66.2072 34.4971C65.7265 34.4364 65.2895 34.1889 64.9916 33.8087C64.6936 33.4285 64.5588 32.9464 64.6166 32.4677C64.6776 31.9887 64.9272 31.5535 65.3105 31.2576C65.6939 30.9617 66.1796 30.8294 66.6609 30.8898L86.7795 33.3708C87.2607 33.4303 87.6985 33.6774 87.9967 34.0579C88.295 34.4385 88.4292 34.9212 88.37 35.4002C88.3405 35.6371 88.2642 35.866 88.1457 36.0735C88.0271 36.2811 87.8686 36.4634 87.6792 36.61C87.4898 36.7565 87.2732 36.8645 87.0418 36.9277C86.8104 36.9908 86.5688 37.008 86.3308 36.9781Z" fill="#581C87"/>
<path opacity="0.5" d="M86.3308 36.9781L66.2072 34.4971C65.7265 34.4364 65.2895 34.1889 64.9916 33.8087C64.6936 33.4285 64.5588 32.9464 64.6166 32.4677C64.6776 31.9887 64.9272 31.5535 65.3105 31.2576C65.6939 30.9617 66.1796 30.8294 66.6609 30.8898L86.7795 33.3708C87.2607 33.4303 87.6985 33.6774 87.9967 34.0579C88.295 34.4385 88.4292 34.9212 88.37 35.4002C88.3405 35.6371 88.2642 35.866 88.1457 36.0735C88.0271 36.2811 87.8686 36.4634 87.6792 36.61C87.4898 36.7565 87.2732 36.8645 87.0418 36.9277C86.8104 36.9908 86.5688 37.008 86.3308 36.9781Z" fill="white"/>
<path d="M76.6134 63.8505H56.3303C56.0902 63.8505 55.8525 63.8034 55.6308 63.7118C55.409 63.6203 55.2076 63.486 55.0381 63.3169C54.8686 63.1477 54.7343 62.9469 54.6429 62.726C54.5514 62.5051 54.5047 62.2684 54.5054 62.0295C54.5054 61.5474 54.6975 61.085 55.0396 60.7436C55.3817 60.4022 55.8458 60.2098 56.3303 60.2085H76.6134C77.0987 60.2085 77.5641 60.4003 77.9073 60.7419C78.2505 61.0834 78.4433 61.5466 78.4433 62.0295C78.4433 62.5125 78.2505 62.9757 77.9073 63.3172C77.5641 63.6587 77.0987 63.8505 76.6134 63.8505Z" fill="#581C87"/>
<path opacity="0.5" d="M76.6134 63.8505H56.3303C56.0902 63.8505 55.8525 63.8034 55.6308 63.7118C55.409 63.6203 55.2076 63.486 55.0381 63.3169C54.8686 63.1477 54.7343 62.9469 54.6429 62.726C54.5514 62.5051 54.5047 62.2684 54.5054 62.0295C54.5054 61.5474 54.6975 61.085 55.0396 60.7436C55.3817 60.4022 55.8458 60.2098 56.3303 60.2085H76.6134C77.0987 60.2085 77.5641 60.4003 77.9073 60.7419C78.2505 61.0834 78.4433 61.5466 78.4433 62.0295C78.4433 62.5125 78.2505 62.9757 77.9073 63.3172C77.5641 63.6587 77.0987 63.8505 76.6134 63.8505Z" fill="white"/>
<path d="M174.494 85.3101H39.4523C38.0011 85.3101 36.8247 86.4807 36.8247 87.9249V169.242C36.8247 170.686 38.0011 171.857 39.4523 171.857H174.494C175.945 171.857 177.121 170.686 177.121 169.242V87.9249C177.121 86.4807 175.945 85.3101 174.494 85.3101Z" fill="white"/>
<mask id="mask5_2832_28020" style="mask-type:luminance" maskUnits="userSpaceOnUse" x="36" y="85" width="142" height="87">
<path d="M174.494 85.3101H39.4523C38.0011 85.3101 36.8247 86.4807 36.8247 87.9249V169.242C36.8247 170.686 38.0011 171.857 39.4523 171.857H174.494C175.945 171.857 177.121 170.686 177.121 169.242V87.9249C177.121 86.4807 175.945 85.3101 174.494 85.3101Z" fill="white"/>
</mask>
<g mask="url(#mask5_2832_28020)">
<g style="mix-blend-mode:multiply">
<path d="M177.121 108.605C161.57 123.069 143.9 135.097 124.718 144.28C96.3724 157.77 63.9733 167.069 45.0962 171.857H174.488C174.834 171.857 175.176 171.79 175.496 171.659C175.815 171.528 176.105 171.335 176.35 171.092C176.594 170.85 176.788 170.561 176.921 170.244C177.053 169.926 177.121 169.586 177.121 169.242V108.605Z" fill="#581C87"/>
</g>
<path opacity="0.2" d="M177.121 108.605C161.57 123.069 143.9 135.097 124.718 144.28C96.3724 157.77 63.9733 167.069 45.0962 171.857H174.488C174.834 171.857 175.176 171.79 175.496 171.659C175.815 171.528 176.105 171.335 176.35 171.092C176.594 170.85 176.788 170.561 176.921 170.244C177.053 169.926 177.121 169.586 177.121 169.242V108.605Z" fill="white"/>
</g>
<path d="M174.494 85.3101H39.4523C38.0011 85.3101 36.8247 86.4807 36.8247 87.9249V169.242C36.8247 170.686 38.0011 171.857 39.4523 171.857H174.494C175.945 171.857 177.121 170.686 177.121 169.242V87.9249C177.121 86.4807 175.945 85.3101 174.494 85.3101Z" stroke="#263238" stroke-miterlimit="10"/>
<path d="M38.854 92.911V89.4377C38.8553 88.7437 39.1333 88.0786 39.6268 87.5883C40.1204 87.0981 40.7893 86.8228 41.4866 86.8228H47.1956" stroke="#263238" stroke-miterlimit="10"/>
<path d="M38.854 145.659V97.1436" stroke="#263238" stroke-miterlimit="10"/>
<path d="M175.087 162.211V167.704C175.088 168.048 175.02 168.388 174.889 168.706C174.757 169.024 174.563 169.313 174.319 169.556C174.075 169.799 173.785 169.992 173.466 170.124C173.147 170.256 172.805 170.324 172.46 170.324H167.857" stroke="#263238" stroke-miterlimit="10"/>
<path d="M175.087 91.6904V158.127" stroke="#263238" stroke-miterlimit="10"/>
<path d="M127.83 116.956H86.1117C85.3599 116.956 84.7505 117.562 84.7505 118.31V139.492C84.7505 140.24 85.3599 140.846 86.1117 140.846H127.83C128.581 140.846 129.191 140.24 129.191 139.492V118.31C129.191 117.562 128.581 116.956 127.83 116.956Z" fill="#263238" stroke="#263238" stroke-miterlimit="10"/>
<path d="M127.83 116.956H86.1117C85.3599 116.956 84.7505 117.562 84.7505 118.31V122.865C84.7505 123.613 85.3599 124.22 86.1117 124.22H127.83C128.581 124.22 129.191 123.613 129.191 122.865V118.31C129.191 117.562 128.581 116.956 127.83 116.956Z" fill="white" stroke="#263238" stroke-miterlimit="10"/>
<path d="M46.6968 44.2668L47.6092 45.9588L49.5488 47.3481C49.6707 47.4373 49.8168 47.4878 49.968 47.4931C50.1192 47.4984 50.2685 47.4583 50.3964 47.3779L50.5659 47.2687C50.6892 47.1942 50.781 47.0776 50.8242 46.9406C50.8673 46.8036 50.8588 46.6556 50.8003 46.5244L49.6984 44.0038L50.4413 44.5794C50.5592 44.6698 50.7079 44.7111 50.8558 44.6944C51.0038 44.6777 51.1394 44.6045 51.2341 44.49C51.3162 44.388 51.3609 44.2611 51.3609 44.1303C51.3609 43.9995 51.3162 43.8727 51.2341 43.7706L49.5039 41.5923L47.34 41.9247L46.6968 44.2668Z" fill="white" stroke="#263238" stroke-miterlimit="10"/>
<path d="M50.5857 47.2686L48.8506 45.001" stroke="#263238" stroke-width="0.5" stroke-linecap="round" stroke-linejoin="round"/>
<path d="M49.5687 47.348L48.2075 45.5518" stroke="#263238" stroke-width="0.5" stroke-linecap="round" stroke-linejoin="round"/>
<path d="M75.2466 27.853L77.959 28.0118L81.2597 30.1107C81.2597 30.1107 81.4442 30.7508 80.9855 30.8401C80.5268 30.9294 78.0487 30.0214 78.0487 30.0214L75.4012 29.9867L75.2466 27.853Z" fill="white" stroke="#263238" stroke-miterlimit="10"/>
<path d="M75.3862 29.6543L78.2333 30.9344C78.2333 30.9344 78.692 30.2943 78.0488 30.0214L77.1114 29.3813" fill="white"/>
<path d="M75.3862 29.6543L78.2333 30.9344C78.2333 30.9344 78.692 30.2943 78.0488 30.0214L77.1114 29.3813" stroke="#263238" stroke-linejoin="round"/>
<path d="M175.969 78.0409L174.793 74.5378L173.472 72.7366C173.45 72.7038 173.418 72.679 173.38 72.6661C173.343 72.6532 173.302 72.653 173.265 72.6654C173.227 72.6779 173.195 72.7023 173.173 72.7349C173.151 72.7675 173.14 72.8065 173.142 72.8458V78.036L174.14 79.341L175.969 78.0409Z" fill="white"/>
<path d="M195.145 93.3577L185.273 93.7051C184.909 93.7177 184.548 93.627 184.234 93.4433C183.92 93.2597 183.664 92.9908 183.498 92.6681L175.969 78.041C175.969 78.041 174.274 78.954 174.144 79.341C174.015 79.728 179.719 93.9631 181.469 98.3343C181.616 98.7013 181.874 99.0138 182.207 99.2289C182.54 99.4439 182.932 99.5509 183.329 99.535L194.363 99.0687" fill="white"/>
<path d="M195.145 93.3577L185.273 93.7051C184.909 93.7177 184.548 93.627 184.234 93.4433C183.92 93.2597 183.664 92.9908 183.498 92.6681L175.969 78.041C175.969 78.041 174.274 78.954 174.144 79.341C174.015 79.728 179.719 93.9631 181.469 98.3343C181.616 98.7013 181.874 99.0138 182.207 99.2289C182.54 99.4439 182.932 99.5509 183.329 99.535L194.363 99.0687" stroke="#263238" stroke-miterlimit="10"/>
<path d="M176.693 79.8618L175.147 80.4969" stroke="#263238" stroke-width="0.75" stroke-miterlimit="10"/>
<g opacity="0.5">
<path d="M195.145 93.3577L185.273 93.7051C184.909 93.7177 184.548 93.627 184.234 93.4433C183.92 93.2597 183.664 92.9908 183.498 92.6681L175.969 78.041C175.969 78.041 174.274 78.954 174.144 79.341C174.015 79.728 179.719 93.9631 181.469 98.3343C181.616 98.7013 181.874 99.0138 182.207 99.2289C182.54 99.4439 182.932 99.5509 183.329 99.535L194.363 99.0687" fill="#581C87"/>
<path d="M195.145 93.3577L185.273 93.7051C184.909 93.7177 184.548 93.627 184.234 93.4433C183.92 93.2597 183.664 92.9908 183.498 92.6681L175.969 78.041C175.969 78.041 174.274 78.954 174.144 79.341C174.015 79.728 179.719 93.9631 181.469 98.3343C181.616 98.7013 181.874 99.0138 182.207 99.2289C182.54 99.4439 182.932 99.5509 183.329 99.535L194.363 99.0687" stroke="#263238" stroke-miterlimit="10"/>
<path d="M176.693 79.8618L175.147 80.4969" stroke="#263238" stroke-width="0.75" stroke-miterlimit="10"/>
</g>
<path d="M175.969 78.0409L174.793 74.5378L173.472 72.7366C173.45 72.7038 173.418 72.679 173.38 72.6661C173.343 72.6532 173.302 72.653 173.265 72.6654C173.227 72.6779 173.195 72.7023 173.173 72.7349C173.151 72.7675 173.14 72.8065 173.142 72.8458V78.036L174.14 79.341L175.969 78.0409Z" fill="#581C87"/>
<mask id="mask6_2832_28020" style="mask-type:luminance" maskUnits="userSpaceOnUse" x="173" y="72" width="3" height="8">
<path d="M175.969 78.0409L174.793 74.5378L173.472 72.7366C173.45 72.7038 173.418 72.679 173.38 72.6661C173.343 72.6532 173.302 72.653 173.265 72.6654C173.227 72.6779 173.195 72.7023 173.173 72.7349C173.151 72.7675 173.14 72.8065 173.142 72.8458V78.036L174.14 79.341L175.969 78.0409Z" fill="white"/>
</mask>
<g mask="url(#mask6_2832_28020)">
<path opacity="0.5" d="M175.969 78.0409L174.793 74.5378L173.472 72.7366C173.45 72.7038 173.418 72.679 173.38 72.6661C173.343 72.6532 173.302 72.653 173.265 72.6654C173.227 72.6779 173.195 72.7023 173.173 72.7349C173.151 72.7675 173.14 72.8065 173.142 72.8458V78.036L174.14 79.341L175.969 78.0409Z" fill="white"/>
</g>
<path d="M175.969 78.0409L174.793 74.5378L173.472 72.7366C173.45 72.7038 173.418 72.679 173.38 72.6661C173.343 72.6532 173.302 72.653 173.265 72.6654C173.227 72.6779 173.195 72.7023 173.173 72.7349C173.151 72.7675 173.14 72.8065 173.142 72.8458V78.036L174.14 79.341L175.969 78.0409Z" stroke="#263238" stroke-miterlimit="10"/>
<path d="M198.202 84.1139C197.728 84.7119 197.388 85.4038 197.205 86.1433C197.06 87.096 197.289 90.7629 197.289 90.7629L192.154 91.3385C192.154 91.3385 192.543 87.6121 192.563 86.9918C192.727 86.2227 193.055 85.4973 193.523 84.8641C193.992 84.2309 194.591 83.7045 195.28 83.32C197.045 82.4566 198.546 82.8784 198.202 84.1139Z" fill="white"/>
<mask id="mask7_2832_28020" style="mask-type:luminance" maskUnits="userSpaceOnUse" x="192" y="82" width="7" height="10">
<path d="M198.202 84.1139C197.728 84.7119 197.388 85.4038 197.205 86.1433C197.06 87.096 197.289 90.7629 197.289 90.7629L192.154 91.3385C192.154 91.3385 192.543 87.6121 192.563 86.9918C192.727 86.2227 193.055 85.4973 193.523 84.8641C193.992 84.2309 194.591 83.7045 195.28 83.32C197.045 82.4566 198.546 82.8784 198.202 84.1139Z" fill="white"/>
</mask>
<g mask="url(#mask7_2832_28020)">
<g style="mix-blend-mode:multiply" opacity="0.5">
<path d="M198.167 84.1533C197.235 83.9002 196.103 83.6174 195.146 83.3892C194.487 83.779 193.917 84.2997 193.47 84.9186C193.023 85.5376 192.709 86.2415 192.548 86.9866C192.548 87.2247 192.478 87.9194 192.408 88.6835C192.907 88.5694 193.7 88.3957 194.288 88.2915C194.754 88.2167 195.213 88.1021 195.659 87.9492L195.485 90.9263H195.599L197.275 90.7378C197.275 90.7378 197.045 87.0709 197.19 86.1182C197.372 85.4017 197.705 84.732 198.167 84.1533Z" fill="#581C87"/>
</g>
</g>
<path d="M198.202 84.1139C197.728 84.7119 197.388 85.4038 197.205 86.1433C197.06 87.096 197.289 90.7629 197.289 90.7629L192.154 91.3385C192.154 91.3385 192.543 87.6121 192.563 86.9918C192.727 86.2227 193.055 85.4973 193.523 84.8641C193.992 84.2309 194.591 83.7045 195.28 83.32C197.045 82.4566 198.546 82.8784 198.202 84.1139Z" stroke="#263238" stroke-width="1.00396" stroke-miterlimit="10"/>
<path d="M199.269 84.7445C203.527 79.1474 193.261 73.3321 190.564 78.8944C190.188 79.5803 189.89 80.306 189.676 81.0578C189.267 81.3059 188.18 81.9708 187.981 82.1544C187.781 82.3379 188.48 82.8093 188.863 83.0425C188.131 84.8338 188.24 86.7193 188.45 87.1461C188.814 87.8804 190.609 87.8903 191.79 87.672C192.972 87.4537 193.441 86.3273 193.785 86.0197C194.129 85.7121 195.844 86.104 196.447 86.2827C197.05 86.4613 198.442 85.851 199.269 84.7445Z" fill="white"/>
<mask id="mask8_2832_28020" style="mask-type:luminance" maskUnits="userSpaceOnUse" x="187" y="76" width="14" height="12">
<path d="M199.269 84.7445C203.527 79.1474 193.261 73.3321 190.564 78.8944C190.188 79.5803 189.89 80.306 189.676 81.0578C189.267 81.3059 188.18 81.9708 187.981 82.1544C187.781 82.3379 188.48 82.8093 188.863 83.0425C188.131 84.8338 188.24 86.7193 188.45 87.1461C188.814 87.8804 190.609 87.8903 191.79 87.672C192.972 87.4537 193.441 86.3273 193.785 86.0197C194.129 85.7121 195.844 86.104 196.447 86.2827C197.05 86.4613 198.442 85.851 199.269 84.7445Z" fill="white"/>
</mask>
<g mask="url(#mask8_2832_28020)">
<g style="mix-blend-mode:multiply" opacity="0.5">
<path d="M195.055 84.208C195.055 84.208 195.145 84.6298 194.288 84.9721C193.43 85.3145 193.26 85.0565 193.006 85.6519C192.898 86.0434 192.68 86.3959 192.377 86.6677C192.074 86.9394 191.699 87.119 191.296 87.1852C190.484 87.3386 189.663 87.443 188.838 87.4978C189.516 87.8749 190.862 87.8451 191.83 87.6714C193.006 87.4581 193.48 86.3267 193.824 86.0191C194.168 85.7115 195.883 86.1035 196.486 86.2821C196.628 86.3102 196.774 86.3102 196.915 86.2821C197.14 85.7835 197.275 85.2494 197.314 84.7042L195.055 84.208Z" fill="#581C87"/>
</g>
</g>
<path d="M199.269 84.7445C203.527 79.1474 193.261 73.3321 190.564 78.8944C190.188 79.5803 189.89 80.306 189.676 81.0578C189.267 81.3059 188.18 81.9708 187.981 82.1544C187.781 82.3379 188.48 82.8093 188.863 83.0425C188.131 84.8338 188.24 86.7193 188.45 87.1461C188.814 87.8804 190.609 87.8903 191.79 87.672C192.972 87.4537 193.441 86.3273 193.785 86.0197C194.129 85.7121 195.844 86.104 196.447 86.2827C197.05 86.4613 198.442 85.851 199.269 84.7445Z" stroke="#263238" stroke-miterlimit="10"/>
<path d="M190.953 81.5486C190.843 81.7867 190.659 81.9356 190.539 81.881C190.419 81.8264 190.409 81.5882 190.539 81.3501C190.668 81.1119 190.833 80.963 190.953 81.0176C191.072 81.0722 191.062 81.3104 190.953 81.5486Z" fill="#263238"/>
<path d="M190.853 80.0207C190.853 80.0207 191.351 79.6088 191.451 80.5566" stroke="#263238" stroke-width="0.5" stroke-linecap="round" stroke-linejoin="round"/>
<path d="M188.764 84.0049C188.764 84.0049 188.764 84.5011 189.661 84.5011" stroke="#263238" stroke-width="0.5" stroke-linecap="round" stroke-linejoin="round"/>
<path d="M187.547 116.474L187.153 121.327C187.153 121.327 184.426 140.647 184.555 142.865C184.685 145.083 184.979 167.996 184.979 167.996L188.265 168.517L191.955 143.104L197.135 117.278L187.547 116.474Z" fill="#581C87" stroke="#263238" stroke-miterlimit="10"/>
<path opacity="0.2" d="M187.547 116.474L187.153 121.327C187.153 121.327 184.426 140.647 184.555 142.865C184.685 145.083 184.979 167.996 184.979 167.996L188.265 168.517L191.955 143.104L197.135 117.278L187.547 116.474Z" fill="#263238"/>
<path d="M191.705 134.123C191.705 134.123 190.444 141.511 189.491 145.133C188.539 148.755 188.544 152.367 188.544 156.296C188.544 160.226 187.123 167.47 187.123 167.47" stroke="#263238" stroke-width="0.75" stroke-miterlimit="10"/>
<path d="M194.213 115.283C196.377 114.152 198.701 113.403 199.364 114.906C200.68 117.913 199.105 122.482 199.105 122.482L200.306 143.56L202.505 168.988L199.219 168.462C199.219 168.462 194.173 147.003 193.386 145.693C192.598 144.383 191.356 126.01 191.356 126.01L188.863 123.753" fill="#581C87"/>
<path d="M194.213 115.283C196.377 114.152 198.701 113.403 199.364 114.906C200.68 117.913 199.105 122.482 199.105 122.482L200.306 143.56L202.505 168.988L199.219 168.462C199.219 168.462 194.173 147.003 193.386 145.693C192.598 144.383 191.356 126.01 191.356 126.01L188.863 123.753" stroke="#263238" stroke-miterlimit="10"/>
<g opacity="0.2">
<path d="M194.213 115.283C196.377 114.152 198.701 113.403 199.364 114.906C200.68 117.913 199.105 122.482 199.105 122.482L200.306 143.56L202.505 168.988L199.219 168.462C199.219 168.462 194.173 147.003 193.386 145.693C192.598 144.383 191.356 126.01 191.356 126.01L188.863 123.753" fill="#263238"/>
</g>
<path d="M196.776 131.25C196.851 136.137 197.349 138.489 197.738 139.779C198.212 141.352 198.052 144.339 198.052 145.733C198.052 147.127 197.419 145.421 198.845 151.871C200.271 158.321 201.213 167.282 201.213 167.282" stroke="#263238" stroke-width="0.75" stroke-miterlimit="10"/>
<path d="M196.776 120.597C196.776 120.597 196.93 120.28 196.776 127.673C196.776 128.07 196.776 128.452 196.776 128.824" stroke="#263238" stroke-width="0.75" stroke-miterlimit="10"/>
<path d="M189.482 119.193L189.377 121.406L188.863 122.945L189.631 123.838" stroke="#263238" stroke-width="0.75" stroke-linecap="round" stroke-linejoin="round"/>
<path d="M188.474 120.513C188.474 120.513 189.761 121.793 193.101 121.406" stroke="#263238" stroke-width="0.75" stroke-linecap="round" stroke-linejoin="round"/>
<path d="M196.367 119.407C198.86 118.911 199.02 118.226 199.882 117.65C199.898 116.712 199.729 115.78 199.384 114.906C198.73 113.418 196.392 114.152 194.233 115.284L193.186 116.931L187.567 116.474L187.387 118.668C190.272 119.653 193.359 119.907 196.367 119.407Z" fill="#263238"/>
<path d="M188.11 117.993L188.055 118.866L189.481 119.193L189.591 118.047L188.11 117.993Z" fill="white" stroke="#263238" stroke-width="0.75" stroke-miterlimit="10"/>
<path d="M198.063 119.287L197.823 117.114L198.546 116.876L198.91 118.806" fill="#581C87"/>
<path d="M198.063 119.287L197.823 117.114L198.546 116.876L198.91 118.806" stroke="#263238" stroke-miterlimit="10"/>
<path d="M192.488 120.012L192.004 117.476H193.216L193.7 119.649" fill="#581C87"/>
<path d="M192.488 120.012L192.004 117.476H193.216L193.7 119.649" stroke="#263238" stroke-miterlimit="10"/>
<g opacity="0.2">
<path d="M198.063 119.287L197.823 117.114L198.546 116.876L198.91 118.806" fill="#263238"/>
<path d="M192.488 120.012L192.004 117.476H193.216L193.7 119.649" fill="#263238"/>
</g>
<path d="M186.904 97.2427C186.904 97.2427 186.49 99.9964 185.248 104.685C184.007 109.374 182.755 114.996 182.755 114.996L183.448 117.883L185.518 114.857L186.904 97.2427Z" fill="#263238" stroke="#263238" stroke-miterlimit="10"/>
<path d="M190.359 93.2585C190.359 93.2585 187.457 93.9433 187.183 95.3177C187.035 95.9504 186.941 96.5945 186.903 97.243L191.326 93.6704L196.855 91.4673L190.359 93.2585Z" fill="#263238" stroke="#263238" stroke-miterlimit="10"/>
<path d="M191.151 92.1961C191.151 92.1961 188.793 94.8506 187.855 95.9422C186.918 97.0337 186.913 108.748 186.913 110.47C186.913 112.192 185.976 116.866 187.541 117.803C189.107 118.741 198.685 118.429 199.627 116.866C200.57 115.303 201.193 96.5673 201.039 94.8506C200.921 94.0804 200.616 93.3504 200.15 92.7243C199.685 92.0982 199.072 91.5949 198.366 91.2583C197.274 90.7572 191.151 92.1961 191.151 92.1961Z" fill="white"/>
<mask id="mask9_2832_28020" style="mask-type:luminance" maskUnits="userSpaceOnUse" x="186" y="91" width="16" height="28">
<path d="M191.151 92.1961C191.151 92.1961 188.793 94.8506 187.855 95.9422C186.918 97.0337 186.913 108.748 186.913 110.47C186.913 112.192 185.976 116.866 187.541 117.803C189.107 118.741 198.685 118.429 199.627 116.866C200.57 115.303 201.193 96.5673 201.039 94.8506C200.921 94.0804 200.616 93.3504 200.15 92.7243C199.685 92.0982 199.072 91.5949 198.366 91.2583C197.274 90.7572 191.151 92.1961 191.151 92.1961Z" fill="white"/>
</mask>
<g mask="url(#mask9_2832_28020)">
<g style="mix-blend-mode:multiply" opacity="0.5">
<path d="M198.367 91.2583C198.236 91.2059 198.098 91.1757 197.958 91.1689L197.28 91.5212C198.421 92.4518 199.206 93.7447 199.503 95.1829C199.819 97.2724 199.79 99.399 199.419 101.479C199.08 103.777 193.605 101.479 194.632 102.333C195.659 103.186 199.503 104.63 199.678 105.394C199.852 106.158 197.773 107.433 197.025 107.523C196.277 107.612 197.524 109.309 198.307 110.753C199.089 112.197 198.805 114.226 197.025 115.605C195.245 116.985 191.112 117.664 189.327 117.734C188.748 117.734 188.389 117.883 188.28 118.051C191.022 118.662 198.785 118.265 199.628 116.866C200.57 115.303 201.194 96.5673 201.039 94.8505C200.922 94.0803 200.617 93.3504 200.151 92.7243C199.685 92.0981 199.072 91.5949 198.367 91.2583Z" fill="#581C87"/>
</g>
</g>
<path d="M191.151 92.1961C191.151 92.1961 188.793 94.8506 187.855 95.9422C186.918 97.0337 186.913 108.748 186.913 110.47C186.913 112.192 185.976 116.866 187.541 117.803C189.107 118.741 198.685 118.429 199.627 116.866C200.57 115.303 201.193 96.5673 201.039 94.8506C200.921 94.0804 200.616 93.3504 200.15 92.7243C199.685 92.0982 199.072 91.5949 198.366 91.2583C197.274 90.7572 191.151 92.1961 191.151 92.1961Z" stroke="#263238" stroke-miterlimit="10"/>
<path d="M195.973 104.08C193.445 103.296 191.231 101.103 191.231 101.103C191.792 103.709 193.315 106.011 195.499 107.554" fill="white"/>
<path d="M195.973 104.08C193.445 103.296 191.231 101.103 191.231 101.103C191.792 103.709 193.315 106.011 195.499 107.554" stroke="#263238" stroke-width="0.75" stroke-linecap="round" stroke-linejoin="round"/>
<path d="M197.898 89.5415L190.364 91.2583L189.896 93.4465L198.367 91.2583L197.898 89.5415Z" fill="white" stroke="#263238" stroke-miterlimit="10"/>
<path d="M188.704 171.792L188.265 168.498L184.979 167.977L182.242 169.917L179.789 171.256V171.792H188.704Z" fill="#263238" stroke="#263238" stroke-miterlimit="10"/>
<path d="M202.913 172.05L202.505 168.988L199.219 168.462L196.481 170.403L194.028 171.747V172.05H202.913Z" fill="#263238" stroke="#263238" stroke-miterlimit="10"/>
<path d="M174.533 75.1832L172.509 74.0171C172.509 74.0171 171.721 73.9229 172.06 74.7962L174.084 76.3492" fill="white"/>
<path d="M174.533 75.1832L172.509 74.0171C172.509 74.0171 171.721 73.9229 172.06 74.7962L174.084 76.3492" stroke="#263238" stroke-linecap="round" stroke-linejoin="round"/>
<path d="M174.234 78.2149C174.139 77.9755 173.998 77.7565 173.82 77.5698L173.441 77.1629L171.382 74.6224C171.382 74.6224 170.744 74.1957 170.884 75.1186L172.16 77.5996L169.891 75.4808C169.891 75.4808 169.462 75.1285 169.462 75.6247C169.462 76.1209 171.522 78.3091 171.522 78.3091L169.248 77.2473C169.248 77.2473 168.749 77.5996 169.108 77.9519C169.467 78.3042 171.377 79.0137 171.377 79.0137L169.677 78.9443C169.677 78.9443 169.178 79.366 169.532 79.5099C169.886 79.6538 171.876 80.0706 171.876 80.0706C172.129 80.2844 172.417 80.4524 172.728 80.5668L173.227 81.4848L175.137 80.5271L174.234 78.2149Z" fill="white" stroke="#263238" stroke-linecap="round" stroke-linejoin="round"/>
<path d="M194.622 100.239L183.244 102.894C182.662 102.996 182.062 102.894 181.546 102.606C181.031 102.317 180.632 101.86 180.417 101.311L173.237 81.4644L175.147 80.5068L183.08 95.1289C183.26 95.4634 183.543 95.7313 183.888 95.893C184.233 96.0548 184.621 96.1017 184.994 96.027L193.695 93.5809" fill="white"/>
<path d="M194.622 100.239L183.244 102.894C182.662 102.996 182.062 102.894 181.546 102.606C181.031 102.317 180.632 101.86 180.417 101.311L173.237 81.4644L175.147 80.5068L183.08 95.1289C183.26 95.4634 183.543 95.7313 183.888 95.893C184.233 96.0548 184.621 96.1017 184.994 96.027L193.695 93.5809" stroke="#263238" stroke-miterlimit="10"/>
<path d="M176.218 82.3774L174.004 83.479" stroke="#263238" stroke-width="0.75" stroke-miterlimit="10"/>
<path d="M193.206 78.9541C193.206 78.9541 191.994 80.1599 192.598 81.063C192.955 81.5845 193.228 82.1589 193.405 82.7649C193.405 82.7649 192.907 83.9706 193.306 83.9706C193.705 83.9706 193.505 83.0676 194.213 83.271C194.921 83.4744 195.624 84.6752 195.021 85.0771C194.569 85.3282 194.091 85.528 193.595 85.6726C193.532 85.6918 193.475 85.729 193.433 85.7796C193.391 85.8302 193.364 85.892 193.357 85.9574C193.35 86.0228 193.361 86.0889 193.391 86.1476C193.421 86.2063 193.468 86.2551 193.525 86.2879C194.181 86.7288 194.936 87.0016 195.724 87.0818C196.368 87.0955 197.011 87.0288 197.638 86.8833C197.638 86.8833 199.633 84.1741 201.069 83.4695C202.505 82.7649 201.877 79.5545 201.877 79.1526C201.877 78.7507 200.466 77.8476 200.466 77.8476C200.466 77.8476 200.869 76.9446 199.055 74.9399C197.24 72.9353 193.809 72.5284 193.709 73.233C193.674 73.4196 193.694 73.6122 193.765 73.7881C193.837 73.964 193.958 74.1158 194.113 74.2254C194.113 74.2254 191.087 72.9204 189.676 74.3247C188.265 75.7289 193.206 78.9541 193.206 78.9541Z" fill="#263238" stroke="#263238" stroke-miterlimit="10"/>
<path d="M193.206 78.9536C193.206 78.9536 195.659 81.9308 199.293 82.2186" stroke="white" stroke-width="0.5" stroke-linecap="round" stroke-linejoin="round"/>
<path d="M192.338 79.8618C192.338 79.8618 193.48 83.1665 198.202 84.1092" stroke="white" stroke-width="0.5" stroke-linecap="round" stroke-linejoin="round"/>
</svg>
