<svg width="344" height="264" viewBox="0 0 344 264" fill="none" xmlns="http://www.w3.org/2000/svg">
<path d="M344 231.999H0V232.176H344V231.999Z" fill="#EBEBEB"/>
<path d="M309.531 243.4H286.744V243.578H309.531V243.4Z" fill="#EBEBEB"/>
<path d="M227.879 245.328H221.9V245.505H227.879V245.328Z" fill="#EBEBEB"/>
<path d="M286.056 236.825H272.854V237.002H286.056V236.825Z" fill="#EBEBEB"/>
<path d="M65.8065 238.016H36.0918V238.193H65.8065V238.016Z" fill="#EBEBEB"/>
<path d="M76.2925 238.016H71.9375V238.193H76.2925V238.016Z" fill="#EBEBEB"/>
<path d="M154.903 241.006H90.4512V241.183H154.903V241.006Z" fill="#EBEBEB"/>
<path d="M163.056 200.395H30.2097C29.169 200.393 28.1715 199.966 27.4363 199.208C26.701 198.449 26.2881 197.421 26.2881 196.349V4.01074C26.2971 2.94501 26.7141 1.92599 27.4484 1.17503C28.1826 0.424074 29.1749 0.00182566 30.2097 0H163.056C164.098 0 165.097 0.426292 165.833 1.1851C166.57 1.9439 166.984 2.97306 166.984 4.04617V196.349C166.984 197.422 166.57 198.451 165.833 199.21C165.097 199.969 164.098 200.395 163.056 200.395ZM30.2097 0.141723C29.2146 0.1436 28.2609 0.552054 27.5579 1.27743C26.8549 2.00281 26.4601 2.98584 26.4601 4.01074V196.349C26.4601 197.374 26.8549 198.357 27.5579 199.082C28.2609 199.808 29.2146 200.216 30.2097 200.218H163.056C164.051 200.216 165.006 199.808 165.71 199.083C166.414 198.358 166.81 197.375 166.812 196.349V4.01074C166.81 2.98519 166.414 2.00218 165.71 1.277C165.006 0.551824 164.051 0.143596 163.056 0.141723H30.2097Z" fill="#EBEBEB"/>
<path d="M311.877 200.395H179.024C177.983 200.393 176.985 199.966 176.248 199.208C175.512 198.45 175.098 197.422 175.096 196.349V4.01074C175.107 2.94436 175.525 1.92535 176.26 1.17459C176.996 0.423826 177.989 0.00180575 179.024 0H311.877C312.911 0.00368796 313.901 0.42676 314.634 1.17752C315.367 1.92828 315.783 2.94623 315.792 4.01074V196.349C315.792 197.42 315.38 198.447 314.646 199.205C313.912 199.964 312.917 200.391 311.877 200.395ZM179.024 0.141723C178.028 0.143596 177.074 0.551824 176.37 1.277C175.666 2.00218 175.27 2.98519 175.268 4.01074V196.349C175.27 197.375 175.666 198.358 176.37 199.083C177.074 199.808 178.028 200.216 179.024 200.218H311.877C312.873 200.216 313.827 199.808 314.531 199.083C315.235 198.358 315.632 197.375 315.633 196.349V4.01074C315.632 2.98519 315.235 2.00218 314.531 1.277C313.827 0.551824 312.873 0.143596 311.877 0.141723H179.024Z" fill="#EBEBEB"/>
<path d="M107.686 168.309L98.1569 176.515L111.731 196.838L122.574 190.602C128.386 196.352 135.2 200.919 142.657 204.066L141.556 216.771L165.12 221.243L168.498 208.969C176.542 208.78 184.479 207.025 191.89 203.797L199.857 213.611L219.589 199.63L213.548 188.491C219.132 182.508 223.567 175.493 226.62 167.813L238.949 168.947L243.304 144.691L231.388 141.205C231.2 132.92 229.496 124.746 226.366 117.112L235.895 108.906L222.32 88.5906L211.471 94.8193C205.661 89.0706 198.849 84.5028 191.395 81.3557L192.495 68.6503L168.945 64.1719L165.567 76.4379C157.524 76.6349 149.588 78.3898 142.175 81.6108L134.16 71.754L114.442 85.742L120.489 96.9097C114.908 102.896 110.473 109.914 107.417 117.594L95.0816 116.46L90.7334 140.716L102.643 144.195C102.834 152.489 104.545 160.67 107.686 168.309ZM135.144 136.613C136.309 130.119 139.318 124.127 143.79 119.395C148.262 114.662 153.996 111.402 160.267 110.026C166.538 108.65 173.065 109.22 179.021 111.664C184.977 114.108 190.096 118.317 193.731 123.757C197.365 129.198 199.351 135.626 199.438 142.23C199.525 148.833 197.709 155.314 194.219 160.855C190.73 166.395 185.723 170.745 179.833 173.354C173.944 175.964 167.435 176.716 161.13 175.516C152.675 173.906 145.187 168.903 140.314 161.608C135.441 154.312 133.581 145.321 135.144 136.613Z" fill="#F0F0F0"/>
<path d="M266.518 155.774L273.962 157.191L275.028 153.315C277.574 153.252 280.085 152.696 282.431 151.678L284.949 154.782L291.19 150.36L289.277 146.817C291.042 144.927 292.442 142.711 293.405 140.284L297.306 140.638L298.682 132.978L294.912 131.872C294.856 129.25 294.316 126.663 293.322 124.248L296.336 121.654L292.043 115.234L288.603 117.204C286.765 115.391 284.613 113.948 282.259 112.952L282.603 108.942L275.159 107.524L274.093 111.401C271.547 111.464 269.036 112.02 266.69 113.037L264.192 109.934L257.952 114.355L259.865 117.898C258.1 119.788 256.699 122.005 255.737 124.432L251.836 124.078L250.46 131.738L254.223 132.843C254.283 135.465 254.822 138.052 255.813 140.468L252.799 143.061L257.092 149.481L260.532 147.511C262.369 149.329 264.524 150.772 266.883 151.763L266.518 155.774ZM264.488 130.441C264.856 128.387 265.806 126.491 267.22 124.993C268.634 123.496 270.447 122.464 272.43 122.028C274.413 121.592 276.477 121.771 278.362 122.544C280.246 123.317 281.865 124.647 283.015 126.368C284.164 128.089 284.793 130.122 284.82 132.21C284.848 134.299 284.273 136.349 283.169 138.101C282.065 139.853 280.482 141.228 278.619 142.053C276.756 142.878 274.697 143.116 272.703 142.735C270.032 142.224 267.668 140.642 266.127 138.338C264.587 136.033 263.998 133.193 264.488 130.441Z" fill="#F0F0F0"/>
<path d="M57.586 177.606L63.2551 178.69L64.0739 175.735C66.0111 175.685 67.9221 175.262 69.7086 174.488L71.6281 176.848L76.3822 173.482L74.9236 170.775C76.2654 169.34 77.3321 167.657 78.0678 165.815L81.0399 166.084L82.0857 160.245L79.2167 159.437C79.1741 157.439 78.7631 155.467 78.0059 153.627L80.3038 151.65L77.0289 146.76L74.4214 148.263C73.0267 146.881 71.3933 145.78 69.6054 145.017L69.8737 141.963L64.1977 140.879L63.3859 143.834C61.4464 143.885 59.5332 144.308 57.7443 145.081L55.8316 142.721L51.0775 146.087L52.5361 148.78C51.1937 150.214 50.1269 151.897 49.3919 153.74L46.4198 153.471L45.374 159.31L48.2223 160.146C48.265 162.144 48.6759 164.116 49.4332 165.957L47.1353 167.941L50.4033 172.83L53.0177 171.335C54.4132 172.714 56.0466 173.812 57.8337 174.573L57.586 177.606ZM56.0449 158.311C56.3263 156.748 57.0512 155.307 58.1279 154.169C59.2045 153.031 60.5846 152.247 62.0937 151.917C63.6028 151.586 65.1731 151.724 66.6062 152.313C68.0392 152.901 69.2706 153.914 70.1447 155.224C71.0189 156.533 71.4965 158.08 71.5171 159.669C71.5378 161.258 71.1006 162.817 70.2609 164.15C69.4212 165.483 68.2166 166.53 66.7994 167.158C65.3821 167.786 63.816 167.967 62.2988 167.679C60.2639 167.29 58.4621 166.084 57.2894 164.328C56.1168 162.571 55.6691 160.407 56.0449 158.311Z" fill="#F0F0F0"/>
<path d="M158.826 47.4768L163.119 48.2917L163.745 46.0596C165.214 46.0293 166.665 45.7094 168.017 45.1171L169.469 46.9099L173.06 44.3589L171.96 42.3252C172.976 41.2336 173.783 39.9547 174.34 38.5554L176.583 38.7609L177.374 34.3462L175.207 33.7085C175.171 32.198 174.861 30.7079 174.292 29.3151L176.026 27.8199L173.556 24.121L171.581 25.2548C170.521 24.2081 169.28 23.3764 167.921 22.803L168.121 20.4929L163.828 19.6709L163.215 21.9101C161.748 21.9397 160.3 22.2597 158.95 22.8526L157.498 21.0598L153.9 23.6108L155.007 25.6445C153.989 26.7345 153.181 28.0137 152.627 29.4143L150.377 29.2088L149.586 33.6234L151.753 34.2612C151.788 35.7718 152.098 37.2622 152.668 38.6546L150.934 40.1498L153.411 43.8487L155.386 42.7149C156.442 43.7626 157.682 44.5945 159.039 45.1667L158.826 47.4768ZM157.663 32.8723C157.876 31.6901 158.424 30.5994 159.238 29.738C160.052 28.8765 161.097 28.2832 162.238 28.0328C163.38 27.7825 164.568 27.8864 165.653 28.3315C166.737 28.7766 167.669 29.5428 168.331 30.5333C168.992 31.5238 169.354 32.6942 169.37 33.8964C169.386 35.0986 169.055 36.2786 168.42 37.2874C167.785 38.2962 166.874 39.0884 165.802 39.5638C164.729 40.0392 163.544 40.1766 162.396 39.9584C160.859 39.6656 159.497 38.7565 158.61 37.4307C157.722 36.1049 157.382 34.4706 157.663 32.8865V32.8723Z" fill="#F0F0F0"/>
<path d="M230.128 83.0427L232.99 83.5812L233.396 82.0931C234.376 82.0691 235.342 81.8552 236.245 81.4625L237.215 82.66L239.609 80.9593L238.873 79.5988C239.551 78.8732 240.09 78.0221 240.462 77.0903L241.962 77.225L242.492 74.2771L241.04 73.852C241.018 72.846 240.813 71.8531 240.435 70.9254L241.59 69.9263L239.939 67.4603L238.625 68.2185C237.917 67.5212 237.089 66.9661 236.183 66.5816L236.314 65.0368L233.451 64.4912L233.046 65.9864C232.066 66.008 231.1 66.2195 230.197 66.61L229.227 65.4195L226.833 67.1202L227.569 68.4736C226.892 69.203 226.353 70.0562 225.98 70.9892L224.48 70.8545L223.957 73.7953L225.402 74.2205C225.422 75.2297 225.63 76.2256 226.014 77.1541L224.851 78.1462L226.503 80.6192L227.824 79.861C228.528 80.5597 229.354 81.115 230.259 81.4979L230.128 83.0427ZM229.351 73.2993C229.492 72.5092 229.857 71.7799 230.401 71.2038C230.945 70.6277 231.642 70.2306 232.405 70.0628C233.167 69.8949 233.961 69.9639 234.686 70.261C235.411 70.5581 236.034 71.0699 236.476 71.7317C236.918 72.3935 237.16 73.1755 237.17 73.9788C237.181 74.7821 236.96 75.5705 236.535 76.2443C236.11 76.9181 235.501 77.4471 234.784 77.7642C234.068 78.0813 233.276 78.1723 232.509 78.0257C231.482 77.8294 230.573 77.2215 229.981 76.3353C229.389 75.4491 229.162 74.3572 229.351 73.2993Z" fill="#F0F0F0"/>
<path d="M98.2122 47.5268L101.074 48.0724L101.48 46.5843C102.459 46.5569 103.425 46.343 104.329 45.9537L105.299 47.1441L107.693 45.4435L106.957 44.09C107.635 43.3617 108.174 42.5083 108.546 41.5744L110.046 41.7162L110.576 38.7683L109.124 38.3432C109.102 37.3349 108.897 36.3397 108.518 35.4095L109.674 34.4175L108.023 31.9444L106.702 32.7026C105.999 32.0038 105.172 31.4505 104.267 31.0728L104.397 29.5281L101.535 28.9824L101.136 30.4705C100.157 30.4945 99.1904 30.7084 98.2879 31.1012L97.3178 29.9107L94.9442 31.6043L95.6804 32.9648C95.0019 33.6931 94.4627 34.5465 94.0911 35.4804L92.5912 35.3387L92.0684 38.2865L93.5132 38.7117C93.5331 39.7186 93.741 40.7122 94.1255 41.6382L92.9628 42.6374L94.614 45.1104L95.9349 44.3522C96.6398 45.0486 97.4662 45.6016 98.3704 45.982L98.2122 47.5268ZM97.4348 37.7905C97.5758 37.0004 97.9412 36.2711 98.4848 35.695C99.0284 35.1189 99.7257 34.7218 100.488 34.554C101.251 34.3861 102.045 34.4551 102.77 34.7522C103.495 35.0493 104.117 35.5611 104.56 36.2229C105.002 36.8847 105.243 37.6667 105.254 38.47C105.264 39.2733 105.043 40.0617 104.619 40.7355C104.194 41.4093 103.585 41.9383 102.868 42.2554C102.151 42.5725 101.36 42.6635 100.593 42.5169C99.5658 42.3206 98.6565 41.7127 98.0644 40.8265C97.4723 39.9404 97.2459 38.8484 97.4348 37.7905Z" fill="#F0F0F0"/>
<path d="M225.403 204.619C225.439 206.378 225.801 208.115 226.469 209.735L224.446 211.478L227.329 215.779L229.627 214.461C230.861 215.673 232.306 216.634 233.886 217.296L233.652 219.988L238.647 220.938L239.335 218.337C241.04 218.292 242.722 217.92 244.295 217.239L245.988 219.315L250.171 216.353L248.919 214.001C250.096 212.73 251.03 211.242 251.671 209.614L254.285 209.855L255.248 204.718L252.723 204.009C252.687 202.25 252.325 200.513 251.657 198.893L253.679 197.157L250.804 192.849L248.471 194.16C247.241 192.946 245.798 191.984 244.219 191.325L244.447 188.625L239.459 187.676L238.771 190.276C237.063 190.322 235.378 190.694 233.803 191.375L232.111 189.299L227.928 192.26L229.214 194.627C228.037 195.898 227.103 197.386 226.462 199.014L223.848 198.773L222.912 203.882L225.403 204.619ZM232.283 203.017C232.528 201.637 233.165 200.364 234.114 199.357C235.062 198.351 236.279 197.657 237.611 197.363C238.943 197.07 240.329 197.19 241.594 197.709C242.859 198.227 243.947 199.121 244.719 200.277C245.49 201.432 245.912 202.798 245.93 204.2C245.947 205.603 245.561 206.979 244.818 208.155C244.076 209.331 243.012 210.254 241.76 210.806C240.508 211.359 239.125 211.516 237.787 211.258C235.999 210.912 234.416 209.851 233.386 208.307C232.356 206.762 231.962 204.86 232.29 203.017H232.283Z" fill="#F0F0F0"/>
<path d="M268.616 174.106L260.931 177.004L268.616 179.881V182.822L257.608 178.521V175.431L268.616 171.13V174.106Z" fill="#E0E0E0"/>
<path d="M276.886 165.305H280.099L272.482 187.704H269.27L276.886 165.305Z" fill="#E0E0E0"/>
<path d="M291.505 175.46V178.57L280.497 182.872V179.903L288.182 177.026L280.497 174.128V171.18L291.505 175.46Z" fill="#E0E0E0"/>
<path d="M77.6338 211.931C78.7346 212.272 79.2437 212.987 79.2437 214.695V218.642C79.2116 218.887 79.2344 219.137 79.3104 219.372C79.3865 219.607 79.5137 219.821 79.6824 219.997C79.851 220.174 80.0567 220.308 80.2835 220.39C80.5104 220.472 80.7525 220.499 80.9912 220.47H81.4247V223.482H80.0487C77.049 223.482 75.5147 221.902 75.5147 219.06V214.596C75.5147 213.802 75.1088 213.434 74.4621 213.434H73.6709V210.458H74.4621C75.1088 210.458 75.5147 210.089 75.5147 209.295V204.789C75.5147 201.954 77.049 200.374 80.0487 200.374H81.4247V203.371H80.9912C80.7525 203.342 80.5104 203.37 80.2835 203.452C80.0567 203.534 79.851 203.668 79.6824 203.844C79.5137 204.021 79.3865 204.235 79.3104 204.47C79.2344 204.705 79.2116 204.954 79.2437 205.2V209.147C79.2437 210.869 78.7346 211.584 77.6338 211.931Z" fill="#E0E0E0"/>
<path d="M96.706 210.458V213.47H95.9148C95.7663 213.456 95.6167 213.477 95.4774 213.532C95.3381 213.587 95.2127 213.673 95.1107 213.785C95.0086 213.897 94.9326 214.032 94.8883 214.178C94.8441 214.325 94.8328 214.48 94.8553 214.632V219.096C94.8553 221.93 93.321 223.518 90.3282 223.518H88.9522V220.506H89.3857C89.6244 220.535 89.8665 220.508 90.0934 220.426C90.3202 220.344 90.5259 220.21 90.6945 220.033C90.8632 219.857 90.9904 219.643 91.0665 219.408C91.1425 219.173 91.1653 218.923 91.1332 218.678V214.71C91.1332 213.002 91.6354 212.286 92.7362 211.946C91.6354 211.599 91.1332 210.883 91.1332 209.175V205.214C91.1681 204.967 91.1469 204.714 91.0711 204.476C90.9954 204.238 90.8672 204.021 90.6967 203.843C90.5261 203.664 90.3177 203.529 90.0879 203.447C89.8581 203.366 89.613 203.34 89.3719 203.372H88.9385V200.36H90.3145C93.3073 200.36 94.8415 201.941 94.8415 204.775V209.246C94.819 209.398 94.8303 209.553 94.8746 209.7C94.9188 209.846 94.9949 209.981 95.0969 210.093C95.199 210.205 95.3244 210.291 95.4637 210.346C95.603 210.401 95.7525 210.422 95.901 210.408L96.706 210.458Z" fill="#E0E0E0"/>
<path d="M67.7617 68.1188C67.7617 63.2578 71.3806 59.7856 76.2516 59.7856C77.4617 59.73 78.6684 59.956 79.7821 60.4467C80.8957 60.9374 81.8878 61.6803 82.6844 62.62L80.359 64.8238C79.882 64.2279 79.2817 63.7493 78.602 63.4232C77.9223 63.097 77.1803 62.9316 76.4305 62.9389C75.7576 62.9132 75.0866 63.0275 74.4576 63.275C73.8285 63.5225 73.2544 63.8981 72.7695 64.3793C72.2846 64.8606 71.8989 65.4376 71.6355 66.0758C71.3721 66.7141 71.2363 67.4005 71.2363 68.094C71.2363 68.7876 71.3721 69.474 71.6355 70.1123C71.8989 70.7505 72.2846 71.3275 72.7695 71.8088C73.2544 72.29 73.8285 72.6656 74.4576 72.9131C75.0866 73.1606 75.7576 73.2749 76.4305 73.2492C77.1833 73.2577 77.9281 73.0899 78.6087 72.7585C79.2892 72.427 79.8878 71.9406 80.359 71.3359L82.6844 73.5468C81.8912 74.4992 80.8979 75.2532 79.7798 75.7517C78.6617 76.2501 77.4481 76.48 76.231 76.4238C71.3806 76.445 67.7617 72.987 67.7617 68.1188Z" fill="#E0E0E0"/>
<path d="M95.1579 69.5226H91.2707V73.4341H88.388V69.5226H84.5283V66.6881H88.388V62.7695H91.2707V66.6881H95.1579V69.5226Z" fill="#E0E0E0"/>
<path d="M108.705 69.5226H104.818V73.4341H101.935V69.5226H98.0684V66.6881H101.935V62.7695H104.818V66.6881H108.705V69.5226Z" fill="#E0E0E0"/>
<path d="M125.257 149.255L127.513 146.463C128.47 147.781 129.529 148.454 130.781 148.454C132.419 148.454 133.272 147.441 133.272 145.449V136.833H127.08V133.467H137.311V145.216C137.311 149.694 135.123 151.898 130.974 151.898C129.888 151.94 128.807 151.723 127.815 151.265C126.824 150.806 125.948 150.118 125.257 149.255Z" fill="#E0E0E0"/>
<path d="M139.761 150.289L141.04 147.391C142.462 148.263 144.085 148.728 145.739 148.738C147.549 148.738 148.23 148.249 148.23 147.469C148.23 145.195 140.063 147.519 140.063 141.956C140.063 139.313 142.375 137.449 146.317 137.449C148.124 137.413 149.912 137.832 151.526 138.668L150.218 141.545C149.03 140.851 147.684 140.492 146.317 140.504C144.563 140.504 143.806 141.077 143.806 141.8C143.806 144.181 151.973 141.878 151.973 147.363C151.973 149.956 149.64 151.792 145.588 151.792C143.551 151.827 141.541 151.309 139.761 150.289Z" fill="#E0E0E0"/>
<path d="M172 264C245.673 264 305.396 260.409 305.396 255.978C305.396 251.548 245.673 247.957 172 247.957C98.3271 247.957 38.6035 251.548 38.6035 255.978C38.6035 260.409 98.3271 264 172 264Z" fill="#F5F5F5"/>
<path d="M224.24 26.9346H203.717C202.855 26.9346 202.155 27.6547 202.155 28.5431V49.681C202.155 50.5694 202.855 51.2895 203.717 51.2895H224.24C225.103 51.2895 225.802 50.5694 225.802 49.681V28.5431C225.802 27.6547 225.103 26.9346 224.24 26.9346Z" fill="#BD69CB"/>
<g opacity="0.4">
<path d="M224.24 26.9346H203.717C202.855 26.9346 202.155 27.6547 202.155 28.5431V49.681C202.155 50.5694 202.855 51.2895 203.717 51.2895H224.24C225.103 51.2895 225.802 50.5694 225.802 49.681V28.5431C225.802 27.6547 225.103 26.9346 224.24 26.9346Z" fill="white"/>
</g>
<path d="M210.804 37.8255L206.676 39.3774L210.804 40.9151V42.5166L204.942 40.2136V38.5696L210.804 36.2666V37.8255Z" fill="white"/>
<path d="M215.22 33.1348H216.934L212.861 45.089H211.147L215.22 33.1348Z" fill="white"/>
<path d="M223.015 38.5554V40.1994L217.153 42.5166V40.9293L221.281 39.3916L217.153 37.8397V36.2666L223.015 38.5554Z" fill="white"/>
<path d="M207.364 55.7395V61.6493H206.036V59.2188H203.422V61.6493H202.094V55.7324H203.422V58.1063H206.036V55.7749L207.364 55.7395Z" fill="#263238"/>
<path d="M209.924 56.8518H208.08V55.7393H213.089V56.8518H211.252V61.6491H209.924V56.8518Z" fill="#263238"/>
<path d="M219.039 61.6493V58.1063L217.347 61.0328H216.721L215.035 58.1984V61.6493H213.79V55.7324H214.891L217.037 59.4101L219.156 55.7324H220.25V61.6493H219.039Z" fill="#263238"/>
<path d="M221.654 55.7393H222.982V60.5365H225.865V61.6491H221.654V55.7393Z" fill="#263238"/>
<g opacity="0.6">
<path d="M207.364 55.7395V61.6493H206.036V59.2188H203.422V61.6493H202.094V55.7324H203.422V58.1063H206.036V55.7749L207.364 55.7395Z" fill="white"/>
<path d="M209.924 56.8518H208.08V55.7393H213.089V56.8518H211.252V61.6491H209.924V56.8518Z" fill="white"/>
<path d="M219.039 61.6493V58.1063L217.347 61.0328H216.721L215.035 58.1984V61.6493H213.79V55.7324H214.891L217.037 59.4101L219.156 55.7324H220.25V61.6493H219.039Z" fill="white"/>
<path d="M221.654 55.7393H222.982V60.5365H225.865V61.6491H221.654V55.7393Z" fill="white"/>
</g>
<path d="M274.815 39.916H254.292C253.43 39.916 252.73 40.6362 252.73 41.5246V62.6624C252.73 63.5508 253.43 64.271 254.292 64.271H274.815C275.678 64.271 276.377 63.5508 276.377 62.6624V41.5246C276.377 40.6362 275.678 39.916 274.815 39.916Z" fill="#BD69CB"/>
<g opacity="0.4">
<path d="M274.816 39.917H254.293C253.431 39.917 252.731 40.6372 252.731 41.5255V62.6634C252.731 63.5518 253.431 64.272 254.293 64.272H274.816C275.679 64.272 276.378 63.5518 276.378 62.6634V41.5255C276.378 40.6372 275.679 39.917 274.816 39.917Z" fill="white"/>
</g>
<path d="M260.678 52.0898C261.242 52.2669 261.504 52.6354 261.504 53.507V55.5407C261.488 55.6667 261.501 55.7947 261.54 55.915C261.58 56.0353 261.646 56.1446 261.733 56.2348C261.82 56.3249 261.925 56.3935 262.042 56.4353C262.158 56.4771 262.282 56.4911 262.405 56.4761H262.625V58.0279H261.937C260.396 58.0279 259.612 57.213 259.612 55.7533V53.4574C259.622 53.3798 259.616 53.3007 259.592 53.226C259.569 53.1513 259.53 53.0828 259.478 53.0257C259.426 52.9686 259.362 52.9243 259.291 52.896C259.22 52.8677 259.144 52.8561 259.068 52.8622H258.662V51.3103H259.068C259.144 51.3164 259.22 51.3048 259.291 51.2765C259.362 51.2482 259.426 51.2038 259.478 51.1467C259.53 51.0896 259.569 51.0212 259.592 50.9465C259.616 50.8718 259.622 50.7927 259.612 50.7151V48.4192C259.612 46.9594 260.396 46.1445 261.937 46.1445H262.625V47.6964H262.405C262.282 47.6814 262.158 47.6953 262.042 47.7371C261.925 47.7789 261.82 47.8475 261.733 47.9377C261.646 48.0279 261.58 48.1372 261.54 48.2575C261.501 48.3777 261.488 48.5057 261.504 48.6318V50.6655C261.504 51.5441 261.242 51.9126 260.678 52.0898Z" fill="white"/>
<path d="M270.474 51.3179V52.8697H270.068C269.992 52.8637 269.916 52.8752 269.845 52.9035C269.774 52.9318 269.71 52.9762 269.658 53.0333C269.605 53.0904 269.566 53.1588 269.543 53.2335C269.52 53.3082 269.514 53.3873 269.524 53.465V55.7609C269.524 57.2206 268.733 58.0355 267.199 58.0355H266.511V56.4836H266.731C266.853 56.4986 266.978 56.4847 267.094 56.4429C267.21 56.4011 267.316 56.3325 267.403 56.2423C267.49 56.1522 267.556 56.0428 267.595 55.9226C267.635 55.8023 267.648 55.6743 267.632 55.5483V53.5146C267.632 52.6359 267.887 52.2674 268.458 52.0973C267.887 51.9202 267.632 51.5517 267.632 50.6801V48.6464C267.648 48.5204 267.635 48.3924 267.595 48.2721C267.556 48.1519 267.49 48.0425 267.403 47.9523C267.316 47.8622 267.21 47.7936 267.094 47.7518C266.978 47.71 266.853 47.696 266.731 47.711H266.511V46.1592H267.199C268.733 46.1592 269.524 46.9741 269.524 48.4338V50.7297C269.514 50.8074 269.52 50.8865 269.543 50.9612C269.566 51.0359 269.605 51.1043 269.658 51.1614C269.71 51.2185 269.774 51.2628 269.845 51.2911C269.916 51.3195 269.992 51.331 270.068 51.325L270.474 51.3179Z" fill="white"/>
<path d="M256.625 71.7674C256.659 71.1253 256.877 70.508 257.251 69.993C257.625 69.478 258.138 69.0885 258.726 68.8734C259.315 68.6582 259.952 68.6272 260.557 68.784C261.163 68.9409 261.709 69.2787 262.129 69.7549L261.276 70.5698C261.102 70.3475 260.882 70.1684 260.632 70.0457C260.382 69.923 260.108 69.86 259.831 69.8612C259.58 69.8454 259.328 69.8827 259.092 69.9708C258.855 70.0589 258.638 70.196 258.455 70.3735C258.272 70.5511 258.126 70.7654 258.026 71.0033C257.926 71.2412 257.875 71.4976 257.875 71.7568C257.875 72.0159 257.926 72.2723 258.026 72.5102C258.126 72.7481 258.272 72.9624 258.455 73.14C258.638 73.3176 258.855 73.4546 259.092 73.5427C259.328 73.6308 259.58 73.6681 259.831 73.6523C260.108 73.6531 260.382 73.5898 260.632 73.4672C260.882 73.3445 261.102 73.1656 261.276 72.9437L262.129 73.7515C261.711 74.2308 261.165 74.5716 260.559 74.7308C259.953 74.8899 259.315 74.8602 258.726 74.6454C258.136 74.4307 257.622 74.0405 257.248 73.5243C256.874 73.0082 256.657 72.3893 256.625 71.7461V71.7674Z" fill="#263238"/>
<path d="M262.485 74.1487L262.933 73.1142C263.493 73.508 264.153 73.7224 264.831 73.7307C265.616 73.7307 265.939 73.4614 265.939 73.1C265.939 71.9875 262.595 72.7528 262.595 70.5561C262.595 69.5499 263.387 68.7066 265.017 68.7066C265.716 68.6946 266.405 68.8756 267.012 69.231L266.606 70.2726C266.122 69.9804 265.572 69.8217 265.01 69.8121C264.226 69.8121 263.916 70.1097 263.916 70.4852C263.916 71.5765 267.26 70.8254 267.26 72.9937C267.26 73.9858 266.462 74.829 264.825 74.829C263.996 74.8492 263.181 74.6122 262.485 74.1487Z" fill="#263238"/>
<path d="M267.722 74.1487L268.176 73.1141C268.734 73.511 269.396 73.7258 270.075 73.7306C270.859 73.7306 271.182 73.4613 271.182 73.0999C271.182 71.9874 267.839 72.7527 267.839 70.556C267.839 69.5498 268.63 68.7065 270.26 68.7065C270.959 68.6955 271.648 68.8765 272.256 69.2309L271.843 70.2726C271.361 69.9797 270.813 69.8209 270.254 69.812C269.462 69.812 269.16 70.1096 269.16 70.4851C269.16 71.5764 272.503 70.8253 272.503 72.9936C272.503 73.9857 271.705 74.8289 270.061 74.8289C269.233 74.8491 268.417 74.6121 267.722 74.1487Z" fill="#263238"/>
<g opacity="0.6">
<path d="M256.624 71.7684C256.658 71.1263 256.876 70.5089 257.25 69.994C257.624 69.479 258.137 69.0895 258.725 68.8743C259.314 68.6592 259.951 68.6281 260.556 68.785C261.162 68.9419 261.709 69.2797 262.128 69.7559L261.275 70.5708C261.101 70.3485 260.881 70.1694 260.631 70.0467C260.381 69.924 260.107 69.8609 259.83 69.8622C259.579 69.8464 259.327 69.8837 259.091 69.9718C258.854 70.0599 258.637 70.1969 258.454 70.3745C258.271 70.5521 258.125 70.7664 258.025 71.0043C257.925 71.2422 257.874 71.4986 257.874 71.7577C257.874 72.0169 257.925 72.2733 258.025 72.5112C258.125 72.7491 258.271 72.9634 258.454 73.141C258.637 73.3186 258.854 73.4556 259.091 73.5437C259.327 73.6318 259.579 73.6691 259.83 73.6533C260.107 73.654 260.381 73.5908 260.631 73.4681C260.881 73.3455 261.101 73.1666 261.275 72.9447L262.128 73.7525C261.71 74.2318 261.164 74.5726 260.558 74.7317C259.952 74.8909 259.314 74.8612 258.725 74.6464C258.135 74.4316 257.621 74.0414 257.247 73.5253C256.873 73.0092 256.656 72.3903 256.624 71.7471V71.7684Z" fill="white"/>
<path d="M262.485 74.1497L262.933 73.1151C263.493 73.5089 264.153 73.7234 264.831 73.7316C265.616 73.7316 265.939 73.4624 265.939 73.101C265.939 71.9885 262.595 72.7538 262.595 70.5571C262.595 69.5508 263.387 68.7076 265.017 68.7076C265.716 68.6955 266.405 68.8766 267.012 69.232L266.606 70.2736C266.122 69.9814 265.572 69.8227 265.01 69.813C264.226 69.813 263.916 70.1106 263.916 70.4862C263.916 71.5775 267.26 70.8263 267.26 72.9947C267.26 73.9867 266.462 74.83 264.825 74.83C263.996 74.8502 263.181 74.6131 262.485 74.1497Z" fill="white"/>
<path d="M267.721 74.1496L268.175 73.1151C268.733 73.512 269.395 73.7268 270.074 73.7316C270.858 73.7316 271.181 73.4623 271.181 73.1009C271.181 71.9884 267.838 72.7537 267.838 70.557C267.838 69.5508 268.629 68.7075 270.259 68.7075C270.958 68.6965 271.647 68.8775 272.255 69.2319L271.842 70.2735C271.36 69.9806 270.812 69.8219 270.253 69.8129C269.461 69.8129 269.159 70.1106 269.159 70.4861C269.159 71.5774 272.502 70.8262 272.502 72.9946C272.502 73.9867 271.704 74.8299 270.06 74.8299C269.232 74.8501 268.416 74.613 267.721 74.1496Z" fill="white"/>
</g>
<path d="M186.49 37.541H102.203V100.381H186.49V37.541Z" fill="black"/>
<path opacity="0.9" d="M186.49 37.541H102.203V100.381H186.49V37.541Z" fill="white"/>
<path opacity="0.1" d="M113.94 37.541H102.203V100.381H113.94V37.541Z" fill="black"/>
<path d="M186.49 37.541H102.203V43.4154H186.49V37.541Z" fill="#BD69CB"/>
<g opacity="0.2">
<path d="M136.026 52.2805H120.676C120.494 52.2805 120.319 52.2058 120.19 52.073C120.061 51.9401 119.988 51.7598 119.988 51.5719C119.988 51.384 120.061 51.2037 120.19 51.0708C120.319 50.9379 120.494 50.8633 120.676 50.8633H136.026C136.208 50.8633 136.383 50.9379 136.512 51.0708C136.641 51.2037 136.714 51.384 136.714 51.5719C136.714 51.7598 136.641 51.9401 136.512 52.073C136.383 52.2058 136.208 52.2805 136.026 52.2805Z" fill="black"/>
<path d="M169.938 52.2805H140.113C139.93 52.2805 139.755 52.2058 139.626 52.073C139.497 51.9401 139.425 51.7598 139.425 51.5719C139.425 51.384 139.497 51.2037 139.626 51.0708C139.755 50.9379 139.93 50.8633 140.113 50.8633H169.938C170.12 50.8633 170.295 50.9379 170.424 51.0708C170.553 51.2037 170.626 51.384 170.626 51.5719C170.626 51.7598 170.553 51.9401 170.424 52.073C170.295 52.2058 170.12 52.2805 169.938 52.2805Z" fill="black"/>
<path d="M162.837 56.9075H122.741C122.558 56.9075 122.383 56.8328 122.254 56.6999C122.125 56.567 122.053 56.3868 122.053 56.1988C122.053 56.0109 122.125 55.8307 122.254 55.6978C122.383 55.5649 122.558 55.4902 122.741 55.4902H162.837C163.02 55.4902 163.195 55.5649 163.324 55.6978C163.453 55.8307 163.525 56.0109 163.525 56.1988C163.525 56.3868 163.453 56.567 163.324 56.6999C163.195 56.8328 163.02 56.9075 162.837 56.9075Z" fill="black"/>
<path d="M146.504 61.5276H120.676C120.494 61.5276 120.319 61.4529 120.19 61.32C120.061 61.1871 119.988 61.0069 119.988 60.819C119.988 60.631 120.061 60.4508 120.19 60.3179C120.319 60.185 120.494 60.1104 120.676 60.1104H146.504C146.686 60.1104 146.861 60.185 146.99 60.3179C147.119 60.4508 147.192 60.631 147.192 60.819C147.192 61.0069 147.119 61.1871 146.99 61.32C146.861 61.4529 146.686 61.5276 146.504 61.5276Z" fill="black"/>
<path d="M169.936 61.5276H151.429C151.247 61.5276 151.072 61.4529 150.943 61.32C150.814 61.1871 150.741 61.0069 150.741 60.819C150.741 60.631 150.814 60.4508 150.943 60.3179C151.072 60.185 151.247 60.1104 151.429 60.1104H169.936C170.119 60.1104 170.294 60.185 170.423 60.3179C170.552 60.4508 170.624 60.631 170.624 60.819C170.624 61.0069 170.552 61.1871 170.423 61.32C170.294 61.4529 170.119 61.5276 169.936 61.5276Z" fill="black"/>
<path d="M134.939 66.1555H120.676C120.494 66.1555 120.319 66.0808 120.19 65.948C120.061 65.8151 119.988 65.6348 119.988 65.4469C119.988 65.259 120.061 65.0787 120.19 64.9458C120.319 64.8129 120.494 64.7383 120.676 64.7383H134.939C135.121 64.7383 135.296 64.8129 135.425 64.9458C135.554 65.0787 135.627 65.259 135.627 65.4469C135.627 65.6348 135.554 65.8151 135.425 65.948C135.296 66.0808 135.121 66.1555 134.939 66.1555Z" fill="black"/>
<path d="M162.018 66.1555H139.562C139.38 66.1555 139.205 66.0808 139.076 65.948C138.947 65.8151 138.874 65.6348 138.874 65.4469C138.874 65.259 138.947 65.0787 139.076 64.9458C139.205 64.8129 139.38 64.7383 139.562 64.7383H162.018C162.201 64.7383 162.376 64.8129 162.505 64.9458C162.634 65.0787 162.706 65.259 162.706 65.4469C162.706 65.6348 162.634 65.8151 162.505 65.948C162.376 66.0808 162.201 66.1555 162.018 66.1555Z" fill="black"/>
<path d="M141.929 70.7825H122.741C122.558 70.7825 122.383 70.7078 122.254 70.5749C122.125 70.442 122.053 70.2618 122.053 70.0738C122.053 69.8859 122.125 69.7057 122.254 69.5728C122.383 69.4399 122.558 69.3652 122.741 69.3652H141.929C142.112 69.3652 142.287 69.4399 142.416 69.5728C142.545 69.7057 142.617 69.8859 142.617 70.0738C142.617 70.2618 142.545 70.442 142.416 70.5749C142.287 70.7078 142.112 70.7825 141.929 70.7825Z" fill="black"/>
<path d="M144.33 75.4094H122.741C122.558 75.4094 122.383 75.3348 122.254 75.2019C122.125 75.069 122.053 74.8887 122.053 74.7008C122.053 74.5129 122.125 74.3326 122.254 74.1997C122.383 74.0668 122.558 73.9922 122.741 73.9922H144.33C144.513 73.9922 144.688 74.0668 144.817 74.1997C144.946 74.3326 145.018 74.5129 145.018 74.7008C145.018 74.8887 144.946 75.069 144.817 75.2019C144.688 75.3348 144.513 75.4094 144.33 75.4094Z" fill="black"/>
<path d="M169.936 75.4094H147.92C147.738 75.4094 147.563 75.3348 147.434 75.2019C147.305 75.069 147.232 74.8887 147.232 74.7008C147.232 74.5129 147.305 74.3326 147.434 74.1997C147.563 74.0668 147.738 73.9922 147.92 73.9922H169.936C170.119 73.9922 170.294 74.0668 170.423 74.1997C170.552 74.3326 170.624 74.5129 170.624 74.7008C170.624 74.8887 170.552 75.069 170.423 75.2019C170.294 75.3348 170.119 75.4094 169.936 75.4094Z" fill="black"/>
<path d="M133.032 80.0295H120.648C120.465 80.0295 120.29 79.9549 120.161 79.822C120.032 79.6891 119.96 79.5089 119.96 79.3209C119.96 79.133 120.032 78.9527 120.161 78.8199C120.29 78.687 120.465 78.6123 120.648 78.6123H133.032C133.214 78.6123 133.389 78.687 133.518 78.8199C133.647 78.9527 133.72 79.133 133.72 79.3209C133.72 79.5089 133.647 79.6891 133.518 79.822C133.389 79.9549 133.214 80.0295 133.032 80.0295Z" fill="black"/>
<path d="M169.937 80.0295H137.25C137.068 80.0295 136.893 79.9549 136.764 79.822C136.635 79.6891 136.562 79.5089 136.562 79.3209C136.562 79.133 136.635 78.9527 136.764 78.8199C136.893 78.687 137.068 78.6123 137.25 78.6123H169.937C170.12 78.6123 170.295 78.687 170.424 78.8199C170.553 78.9527 170.625 79.133 170.625 79.3209C170.625 79.5089 170.553 79.6891 170.424 79.822C170.295 79.9549 170.12 80.0295 169.937 80.0295Z" fill="black"/>
<path d="M144.193 84.6575H122.741C122.558 84.6575 122.383 84.5828 122.254 84.4499C122.125 84.317 122.053 84.1368 122.053 83.9488C122.053 83.7609 122.125 83.5807 122.254 83.4478C122.383 83.3149 122.558 83.2402 122.741 83.2402H144.193C144.375 83.2402 144.55 83.3149 144.679 83.4478C144.808 83.5807 144.881 83.7609 144.881 83.9488C144.881 84.1368 144.808 84.317 144.679 84.4499C144.55 84.5828 144.375 84.6575 144.193 84.6575Z" fill="black"/>
<path d="M161.069 84.6575H147.185C147.003 84.6575 146.828 84.5828 146.699 84.4499C146.57 84.317 146.497 84.1368 146.497 83.9488C146.497 83.7609 146.57 83.5807 146.699 83.4478C146.828 83.3149 147.003 83.2402 147.185 83.2402H161.069C161.251 83.2402 161.426 83.3149 161.555 83.4478C161.684 83.5807 161.757 83.7609 161.757 83.9488C161.757 84.1368 161.684 84.317 161.555 84.4499C161.426 84.5828 161.251 84.6575 161.069 84.6575Z" fill="black"/>
<path d="M147.433 89.2844H122.741C122.558 89.2844 122.383 89.2098 122.254 89.0769C122.125 88.944 122.053 88.7637 122.053 88.5758C122.053 88.3879 122.125 88.2076 122.254 88.0747C122.383 87.9418 122.558 87.8672 122.741 87.8672H147.433C147.616 87.8672 147.791 87.9418 147.92 88.0747C148.049 88.2076 148.121 88.3879 148.121 88.5758C148.121 88.7637 148.049 88.944 147.92 89.0769C147.791 89.2098 147.616 89.2844 147.433 89.2844Z" fill="black"/>
</g>
<path opacity="0.4" d="M182.864 41.7291C183.514 41.7291 184.04 41.1866 184.04 40.5174C184.04 39.8482 183.514 39.3057 182.864 39.3057C182.214 39.3057 181.688 39.8482 181.688 40.5174C181.688 41.1866 182.214 41.7291 182.864 41.7291Z" fill="white"/>
<path opacity="0.4" d="M178.729 41.7291C179.379 41.7291 179.906 41.1866 179.906 40.5174C179.906 39.8482 179.379 39.3057 178.729 39.3057C178.079 39.3057 177.553 39.8482 177.553 40.5174C177.553 41.1866 178.079 41.7291 178.729 41.7291Z" fill="white"/>
<path opacity="0.4" d="M174.6 41.7291C175.25 41.7291 175.777 41.1866 175.777 40.5174C175.777 39.8482 175.25 39.3057 174.6 39.3057C173.951 39.3057 173.424 39.8482 173.424 40.5174C173.424 41.1866 173.951 41.7291 174.6 41.7291Z" fill="white"/>
<g opacity="0.2">
<path d="M108.278 52.2805C108.095 52.2805 107.92 52.2058 107.791 52.073C107.662 51.9401 107.59 51.7598 107.59 51.5719C107.59 51.384 107.662 51.2037 107.791 51.0708C107.92 50.9379 108.095 50.8633 108.278 50.8633C108.46 50.8633 108.635 50.9379 108.764 51.0708C108.893 51.2037 108.966 51.384 108.966 51.5719C108.966 51.7598 108.893 51.9401 108.764 52.073C108.635 52.2058 108.46 52.2805 108.278 52.2805Z" fill="black"/>
<path d="M108.278 56.9075C108.095 56.9075 107.92 56.8328 107.791 56.6999C107.662 56.567 107.59 56.3868 107.59 56.1988C107.59 56.0109 107.662 55.8307 107.791 55.6978C107.92 55.5649 108.095 55.4902 108.278 55.4902C108.46 55.4902 108.635 55.5649 108.764 55.6978C108.893 55.8307 108.966 56.0109 108.966 56.1988C108.966 56.3868 108.893 56.567 108.764 56.6999C108.635 56.8328 108.46 56.9075 108.278 56.9075Z" fill="black"/>
<path d="M108.278 61.5276C108.095 61.5276 107.92 61.4529 107.791 61.32C107.662 61.1871 107.59 61.0069 107.59 60.819C107.59 60.631 107.662 60.4508 107.791 60.3179C107.92 60.185 108.095 60.1104 108.278 60.1104C108.46 60.1104 108.635 60.185 108.764 60.3179C108.893 60.4508 108.966 60.631 108.966 60.819C108.966 61.0069 108.893 61.1871 108.764 61.32C108.635 61.4529 108.46 61.5276 108.278 61.5276Z" fill="black"/>
<path d="M108.278 66.1555C108.095 66.1555 107.92 66.0808 107.791 65.948C107.662 65.8151 107.59 65.6348 107.59 65.4469C107.59 65.259 107.662 65.0787 107.791 64.9458C107.92 64.8129 108.095 64.7383 108.278 64.7383C108.46 64.7383 108.635 64.8129 108.764 64.9458C108.893 65.0787 108.966 65.259 108.966 65.4469C108.966 65.6348 108.893 65.8151 108.764 65.948C108.635 66.0808 108.46 66.1555 108.278 66.1555Z" fill="black"/>
<path d="M108.278 70.7825C108.095 70.7825 107.92 70.7078 107.791 70.5749C107.662 70.442 107.59 70.2618 107.59 70.0738C107.59 69.8859 107.662 69.7057 107.791 69.5728C107.92 69.4399 108.095 69.3652 108.278 69.3652C108.46 69.3652 108.635 69.4399 108.764 69.5728C108.893 69.7057 108.966 69.8859 108.966 70.0738C108.966 70.2618 108.893 70.442 108.764 70.5749C108.635 70.7078 108.46 70.7825 108.278 70.7825Z" fill="black"/>
<path d="M108.278 75.4094C108.095 75.4094 107.92 75.3348 107.791 75.2019C107.662 75.069 107.59 74.8887 107.59 74.7008C107.59 74.5129 107.662 74.3326 107.791 74.1997C107.92 74.0668 108.095 73.9922 108.278 73.9922C108.46 73.9922 108.635 74.0668 108.764 74.1997C108.893 74.3326 108.966 74.5129 108.966 74.7008C108.966 74.8887 108.893 75.069 108.764 75.2019C108.635 75.3348 108.46 75.4094 108.278 75.4094Z" fill="black"/>
<path d="M108.278 80.0295C108.095 80.0295 107.92 79.9549 107.791 79.822C107.662 79.6891 107.59 79.5089 107.59 79.3209C107.59 79.133 107.662 78.9527 107.791 78.8199C107.92 78.687 108.095 78.6123 108.278 78.6123C108.46 78.6123 108.635 78.687 108.764 78.8199C108.893 78.9527 108.966 79.133 108.966 79.3209C108.966 79.5089 108.893 79.6891 108.764 79.822C108.635 79.9549 108.46 80.0295 108.278 80.0295Z" fill="black"/>
<path d="M108.278 84.6575C108.095 84.6575 107.92 84.5828 107.791 84.4499C107.662 84.317 107.59 84.1368 107.59 83.9488C107.59 83.7609 107.662 83.5807 107.791 83.4478C107.92 83.3149 108.095 83.2402 108.278 83.2402C108.46 83.2402 108.635 83.3149 108.764 83.4478C108.893 83.5807 108.966 83.7609 108.966 83.9488C108.966 84.1368 108.893 84.317 108.764 84.4499C108.635 84.5828 108.46 84.6575 108.278 84.6575Z" fill="black"/>
<path d="M108.278 89.2844C108.095 89.2844 107.92 89.2098 107.791 89.0769C107.662 88.944 107.59 88.7637 107.59 88.5758C107.59 88.3879 107.662 88.2076 107.791 88.0747C107.92 87.9418 108.095 87.8672 108.278 87.8672C108.46 87.8672 108.635 87.9418 108.764 88.0747C108.893 88.2076 108.966 88.3879 108.966 88.5758C108.966 88.7637 108.893 88.944 108.764 89.0769C108.635 89.2098 108.46 89.2844 108.278 89.2844Z" fill="black"/>
</g>
<path d="M262.83 88.8164H152.386V161.655H262.83V88.8164Z" fill="#263238"/>
<path opacity="0.9" d="M262.83 88.8164H152.386V161.655H262.83V88.8164Z" fill="white"/>
<path opacity="0.1" d="M169.613 88.8164H152.386V161.655H169.613V88.8164Z" fill="black"/>
<path d="M262.83 88.8164H152.386V94.6908H262.83V88.8164Z" fill="#BD69CB"/>
<path d="M160.188 101.132L158.358 101.84L160.188 102.549V103.257L157.573 102.23V101.521L160.188 100.501V101.132Z" fill="white"/>
<path d="M162.161 99.0342H162.925L161.108 104.37H160.345L162.161 99.0342Z" fill="white"/>
<path d="M165.644 101.451V102.159L163.029 103.187V102.478L164.859 101.77L163.029 101.061V100.353L165.644 101.451Z" fill="white"/>
<g opacity="0.2">
<path d="M165.257 109.232H157.772C157.59 109.232 157.415 109.157 157.285 109.024C157.156 108.891 157.084 108.711 157.084 108.523C157.084 108.335 157.156 108.155 157.285 108.022C157.415 107.889 157.59 107.814 157.772 107.814H165.257C165.44 107.814 165.615 107.889 165.744 108.022C165.873 108.155 165.945 108.335 165.945 108.523C165.945 108.711 165.873 108.891 165.744 109.024C165.615 109.157 165.44 109.232 165.257 109.232Z" fill="black"/>
<path d="M165.257 113.852H157.772C157.59 113.852 157.415 113.777 157.285 113.644C157.156 113.511 157.084 113.331 157.084 113.143C157.084 112.955 157.156 112.775 157.285 112.642C157.415 112.509 157.59 112.435 157.772 112.435H165.257C165.44 112.435 165.615 112.509 165.744 112.642C165.873 112.775 165.945 112.955 165.945 113.143C165.945 113.331 165.873 113.511 165.744 113.644C165.615 113.777 165.44 113.852 165.257 113.852Z" fill="black"/>
<path d="M165.257 118.479H157.772C157.59 118.479 157.415 118.404 157.285 118.271C157.156 118.138 157.084 117.958 157.084 117.77C157.084 117.582 157.156 117.402 157.285 117.269C157.415 117.136 157.59 117.062 157.772 117.062H165.257C165.44 117.062 165.615 117.136 165.744 117.269C165.873 117.402 165.945 117.582 165.945 117.77C165.945 117.958 165.873 118.138 165.744 118.271C165.615 118.404 165.44 118.479 165.257 118.479Z" fill="black"/>
<path d="M165.257 123.107H157.772C157.59 123.107 157.415 123.032 157.285 122.899C157.156 122.766 157.084 122.586 157.084 122.398C157.084 122.21 157.156 122.03 157.285 121.897C157.415 121.764 157.59 121.689 157.772 121.689H165.257C165.44 121.689 165.615 121.764 165.744 121.897C165.873 122.03 165.945 122.21 165.945 122.398C165.945 122.586 165.873 122.766 165.744 122.899C165.615 123.032 165.44 123.107 165.257 123.107Z" fill="black"/>
<path d="M165.257 127.734H157.772C157.59 127.734 157.415 127.659 157.285 127.526C157.156 127.393 157.084 127.213 157.084 127.025C157.084 126.837 157.156 126.657 157.285 126.524C157.415 126.391 157.59 126.316 157.772 126.316H165.257C165.44 126.316 165.615 126.391 165.744 126.524C165.873 126.657 165.945 126.837 165.945 127.025C165.945 127.213 165.873 127.393 165.744 127.526C165.615 127.659 165.44 127.734 165.257 127.734Z" fill="black"/>
<path d="M165.257 132.354H157.772C157.59 132.354 157.415 132.279 157.285 132.146C157.156 132.013 157.084 131.833 157.084 131.645C157.084 131.457 157.156 131.277 157.285 131.144C157.415 131.011 157.59 130.937 157.772 130.937H165.257C165.44 130.937 165.615 131.011 165.744 131.144C165.873 131.277 165.945 131.457 165.945 131.645C165.945 131.833 165.873 132.013 165.744 132.146C165.615 132.279 165.44 132.354 165.257 132.354Z" fill="black"/>
<path d="M165.257 136.981H157.772C157.59 136.981 157.415 136.906 157.285 136.773C157.156 136.64 157.084 136.46 157.084 136.272C157.084 136.084 157.156 135.904 157.285 135.771C157.415 135.638 157.59 135.563 157.772 135.563H165.257C165.44 135.563 165.615 135.638 165.744 135.771C165.873 135.904 165.945 136.084 165.945 136.272C165.945 136.46 165.873 136.64 165.744 136.773C165.615 136.906 165.44 136.981 165.257 136.981Z" fill="black"/>
<path d="M165.257 141.609H157.772C157.59 141.609 157.415 141.534 157.285 141.401C157.156 141.268 157.084 141.088 157.084 140.9C157.084 140.712 157.156 140.532 157.285 140.399C157.415 140.266 157.59 140.191 157.772 140.191H165.257C165.44 140.191 165.615 140.266 165.744 140.399C165.873 140.532 165.945 140.712 165.945 140.9C165.945 141.088 165.873 141.268 165.744 141.401C165.615 141.534 165.44 141.609 165.257 141.609Z" fill="black"/>
<path d="M165.257 146.236H157.772C157.59 146.236 157.415 146.161 157.285 146.028C157.156 145.895 157.084 145.715 157.084 145.527C157.084 145.339 157.156 145.159 157.285 145.026C157.415 144.893 157.59 144.818 157.772 144.818H165.257C165.44 144.818 165.615 144.893 165.744 145.026C165.873 145.159 165.945 145.339 165.945 145.527C165.945 145.715 165.873 145.895 165.744 146.028C165.615 146.161 165.44 146.236 165.257 146.236Z" fill="black"/>
</g>
<path d="M186.896 109.232H171.546C171.364 109.232 171.189 109.157 171.06 109.024C170.931 108.891 170.858 108.711 170.858 108.523C170.858 108.335 170.931 108.155 171.06 108.022C171.189 107.889 171.364 107.814 171.546 107.814H186.896C187.078 107.814 187.253 107.889 187.382 108.022C187.511 108.155 187.584 108.335 187.584 108.523C187.584 108.711 187.511 108.891 187.382 109.024C187.253 109.157 187.078 109.232 186.896 109.232Z" fill="#BD69CB"/>
<path d="M230.99 109.232H190.983C190.8 109.232 190.625 109.157 190.496 109.024C190.367 108.891 190.295 108.711 190.295 108.523C190.295 108.335 190.367 108.155 190.496 108.022C190.625 107.889 190.8 107.814 190.983 107.814H230.99C231.173 107.814 231.348 107.889 231.477 108.022C231.606 108.155 231.678 108.335 231.678 108.523C231.678 108.711 231.606 108.891 231.477 109.024C231.348 109.157 231.173 109.232 230.99 109.232Z" fill="#263238"/>
<g opacity="0.2">
<path d="M249.249 109.232H237.656C237.473 109.232 237.298 109.157 237.169 109.024C237.04 108.891 236.968 108.711 236.968 108.523C236.968 108.335 237.04 108.155 237.169 108.022C237.298 107.889 237.473 107.814 237.656 107.814H249.249C249.431 107.814 249.606 107.889 249.735 108.022C249.864 108.155 249.937 108.335 249.937 108.523C249.937 108.711 249.864 108.891 249.735 109.024C249.606 109.157 249.431 109.232 249.249 109.232Z" fill="#263238"/>
</g>
<g opacity="0.2">
<path d="M213.706 113.852H173.609C173.426 113.852 173.251 113.777 173.122 113.644C172.993 113.511 172.921 113.331 172.921 113.143C172.921 112.955 172.993 112.775 173.122 112.642C173.251 112.509 173.426 112.435 173.609 112.435H213.706C213.888 112.435 214.063 112.509 214.192 112.642C214.321 112.775 214.394 112.955 214.394 113.143C214.394 113.331 214.321 113.511 214.192 113.644C214.063 113.777 213.888 113.852 213.706 113.852Z" fill="#263238"/>
</g>
<path d="M254.753 113.852H217.409C217.226 113.852 217.051 113.777 216.922 113.644C216.793 113.511 216.721 113.331 216.721 113.143C216.721 112.955 216.793 112.775 216.922 112.642C217.051 112.509 217.226 112.435 217.409 112.435H254.781C254.963 112.435 255.138 112.509 255.267 112.642C255.396 112.775 255.469 112.955 255.469 113.143C255.469 113.331 255.396 113.511 255.267 113.644C255.138 113.777 254.963 113.852 254.781 113.852H254.753Z" fill="#BD69CB"/>
<path d="M197.374 118.479H173.611C173.428 118.479 173.253 118.404 173.124 118.271C172.995 118.138 172.923 117.958 172.923 117.77C172.923 117.582 172.995 117.402 173.124 117.269C173.253 117.136 173.428 117.062 173.611 117.062H197.374C197.557 117.062 197.732 117.136 197.861 117.269C197.99 117.402 198.062 117.582 198.062 117.77C198.062 117.958 197.99 118.138 197.861 118.271C197.732 118.404 197.557 118.479 197.374 118.479Z" fill="#263238"/>
<path d="M225.664 118.479H202.272C202.09 118.479 201.915 118.404 201.786 118.271C201.656 118.138 201.584 117.958 201.584 117.77C201.584 117.582 201.656 117.402 201.786 117.269C201.915 117.136 202.09 117.062 202.272 117.062H225.664C225.846 117.062 226.021 117.136 226.15 117.269C226.279 117.402 226.352 117.582 226.352 117.77C226.352 117.958 226.279 118.138 226.15 118.271C226.021 118.404 225.846 118.479 225.664 118.479Z" fill="#BD69CB"/>
<path d="M254.753 118.479H229.49C229.307 118.479 229.132 118.404 229.003 118.271C228.874 118.138 228.802 117.958 228.802 117.77C228.802 117.582 228.874 117.402 229.003 117.269C229.132 117.136 229.307 117.062 229.49 117.062H254.753C254.936 117.062 255.111 117.136 255.24 117.269C255.369 117.402 255.441 117.582 255.441 117.77C255.441 117.958 255.369 118.138 255.24 118.271C255.111 118.404 254.936 118.479 254.753 118.479Z" fill="#263238"/>
<path d="M199.576 123.106H185.314C185.132 123.106 184.957 123.031 184.827 122.898C184.698 122.765 184.626 122.585 184.626 122.397C184.626 122.209 184.698 122.029 184.827 121.896C184.957 121.763 185.132 121.688 185.314 121.688H199.576C199.759 121.688 199.934 121.763 200.063 121.896C200.192 122.029 200.264 122.209 200.264 122.397C200.264 122.585 200.192 122.765 200.063 122.898C199.934 123.031 199.759 123.106 199.576 123.106Z" fill="#263238"/>
<path d="M219.775 123.106H204.206C204.023 123.106 203.848 123.031 203.719 122.898C203.59 122.765 203.518 122.585 203.518 122.397C203.518 122.209 203.59 122.029 203.719 121.896C203.848 121.763 204.023 121.688 204.206 121.688H219.775C219.957 121.688 220.132 121.763 220.262 121.896C220.391 122.029 220.463 122.209 220.463 122.397C220.463 122.585 220.391 122.765 220.262 122.898C220.132 123.031 219.957 123.106 219.775 123.106Z" fill="#263238"/>
<g opacity="0.2">
<path d="M248.56 123.106H223.31C223.128 123.106 222.953 123.031 222.824 122.898C222.695 122.765 222.622 122.585 222.622 122.397C222.622 122.209 222.695 122.029 222.824 121.896C222.953 121.763 223.128 121.688 223.31 121.688H248.56C248.742 121.688 248.917 121.763 249.046 121.896C249.175 122.029 249.248 122.209 249.248 122.397C249.248 122.585 249.175 122.765 249.046 122.898C248.917 123.031 248.742 123.106 248.56 123.106Z" fill="#263238"/>
</g>
<g opacity="0.2">
<path d="M192.797 127.734H173.609C173.426 127.734 173.251 127.659 173.122 127.526C172.993 127.393 172.921 127.213 172.921 127.025C172.921 126.837 172.993 126.657 173.122 126.524C173.251 126.391 173.426 126.316 173.609 126.316H192.797C192.98 126.316 193.155 126.391 193.284 126.524C193.413 126.657 193.485 126.837 193.485 127.025C193.485 127.213 193.413 127.393 193.284 127.526C193.155 127.659 192.98 127.734 192.797 127.734Z" fill="#263238"/>
</g>
<path d="M195.2 132.354H173.611C173.428 132.354 173.253 132.279 173.124 132.146C172.995 132.013 172.923 131.833 172.923 131.645C172.923 131.457 172.995 131.277 173.124 131.144C173.253 131.011 173.428 130.937 173.611 130.937H195.2C195.383 130.937 195.558 131.011 195.687 131.144C195.816 131.277 195.888 131.457 195.888 131.645C195.888 131.833 195.816 132.013 195.687 132.146C195.558 132.279 195.383 132.354 195.2 132.354Z" fill="#BD69CB"/>
<path d="M231.264 132.354H198.735C198.552 132.354 198.377 132.279 198.248 132.146C198.119 132.013 198.047 131.833 198.047 131.645C198.047 131.457 198.119 131.277 198.248 131.144C198.377 131.011 198.552 130.937 198.735 130.937H231.264C231.446 130.937 231.621 131.011 231.75 131.144C231.879 131.277 231.952 131.457 231.952 131.645C231.952 131.833 231.879 132.013 231.75 132.146C231.621 132.279 231.446 132.354 231.264 132.354Z" fill="#263238"/>
<path d="M254.753 132.354H235.207C235.024 132.354 234.849 132.279 234.72 132.146C234.591 132.013 234.519 131.833 234.519 131.645C234.519 131.457 234.591 131.277 234.72 131.144C234.849 131.011 235.024 130.937 235.207 130.937H254.753C254.935 130.937 255.11 131.011 255.239 131.144C255.368 131.277 255.441 131.457 255.441 131.645C255.441 131.833 255.368 132.013 255.239 132.146C255.11 132.279 254.935 132.354 254.753 132.354Z" fill="#263238"/>
<g opacity="0.2">
<path d="M192.853 136.981H180.469C180.287 136.981 180.112 136.906 179.983 136.773C179.854 136.64 179.781 136.46 179.781 136.272C179.781 136.084 179.854 135.904 179.983 135.771C180.112 135.638 180.287 135.563 180.469 135.563H192.853C193.036 135.563 193.211 135.638 193.34 135.771C193.469 135.904 193.541 136.084 193.541 136.272C193.541 136.46 193.469 136.64 193.34 136.773C193.211 136.906 193.036 136.981 192.853 136.981Z" fill="#263238"/>
</g>
<g opacity="0.2">
<path d="M220.779 136.981H197.071C196.888 136.981 196.713 136.906 196.584 136.773C196.455 136.64 196.383 136.46 196.383 136.272C196.383 136.084 196.455 135.904 196.584 135.771C196.713 135.638 196.888 135.563 197.071 135.563H220.779C220.962 135.563 221.137 135.638 221.266 135.771C221.395 135.904 221.467 136.084 221.467 136.272C221.467 136.46 221.395 136.64 221.266 136.773C221.137 136.906 220.962 136.981 220.779 136.981Z" fill="#263238"/>
</g>
<path d="M248.562 136.981H225.411C225.228 136.981 225.053 136.906 224.924 136.773C224.795 136.64 224.723 136.46 224.723 136.272C224.723 136.084 224.795 135.904 224.924 135.771C225.053 135.638 225.228 135.563 225.411 135.563H248.562C248.744 135.563 248.919 135.638 249.048 135.771C249.177 135.904 249.25 136.084 249.25 136.272C249.25 136.46 249.177 136.64 249.048 136.773C248.919 136.906 248.744 136.981 248.562 136.981Z" fill="#263238"/>
<path d="M201.949 141.608H187.377C187.195 141.608 187.02 141.533 186.891 141.4C186.762 141.267 186.689 141.087 186.689 140.899C186.689 140.711 186.762 140.531 186.891 140.398C187.02 140.265 187.195 140.19 187.377 140.19H201.949C202.132 140.19 202.307 140.265 202.436 140.398C202.565 140.531 202.637 140.711 202.637 140.899C202.637 141.087 202.565 141.267 202.436 141.4C202.307 141.533 202.132 141.608 201.949 141.608Z" fill="#263238"/>
<g opacity="0.2">
<path d="M218.82 141.608H204.943C204.76 141.608 204.585 141.533 204.456 141.4C204.327 141.267 204.255 141.087 204.255 140.899C204.255 140.711 204.327 140.531 204.456 140.398C204.585 140.265 204.76 140.19 204.943 140.19H218.82C219.002 140.19 219.177 140.265 219.306 140.398C219.435 140.531 219.508 140.711 219.508 140.899C219.508 141.087 219.435 141.267 219.306 141.4C219.177 141.533 219.002 141.608 218.82 141.608Z" fill="#263238"/>
</g>
<path d="M248.561 141.608H223.173C222.991 141.608 222.816 141.533 222.687 141.4C222.558 141.267 222.485 141.087 222.485 140.899C222.485 140.711 222.558 140.531 222.687 140.398C222.816 140.265 222.991 140.19 223.173 140.19H248.561C248.743 140.19 248.918 140.265 249.047 140.398C249.176 140.531 249.249 140.711 249.249 140.899C249.249 141.087 249.176 141.267 249.047 141.4C248.918 141.533 248.743 141.608 248.561 141.608Z" fill="#BD69CB"/>
<g opacity="0.2">
<path d="M205.189 146.234H187.376C187.194 146.234 187.019 146.159 186.89 146.026C186.761 145.893 186.688 145.713 186.688 145.525C186.688 145.337 186.761 145.157 186.89 145.024C187.019 144.891 187.194 144.816 187.376 144.816H205.189C205.371 144.816 205.546 144.891 205.675 145.024C205.804 145.157 205.877 145.337 205.877 145.525C205.877 145.713 205.804 145.893 205.675 146.026C205.546 146.159 205.371 146.234 205.189 146.234Z" fill="#263238"/>
</g>
<path opacity="0.4" d="M258 91.7989C258 92.0403 258.07 92.2762 258.2 92.4768C258.33 92.6774 258.516 92.8336 258.732 92.9256C258.949 93.0176 259.187 93.0414 259.417 92.9938C259.647 92.9461 259.857 92.8294 260.023 92.6582C260.188 92.487 260.3 92.2692 260.345 92.0323C260.39 91.7954 260.365 91.5501 260.275 91.3276C260.184 91.105 260.031 90.9151 259.836 90.7821C259.64 90.649 259.411 90.5787 259.176 90.5801C259.021 90.5801 258.868 90.6117 258.725 90.673C258.581 90.7343 258.451 90.8242 258.342 90.9375C258.233 91.0508 258.146 91.1852 258.088 91.333C258.029 91.4809 257.999 91.6392 258 91.7989Z" fill="white"/>
<path opacity="0.4" d="M255.077 93.0113C255.727 93.0113 256.253 92.4688 256.253 91.7996C256.253 91.1304 255.727 90.5879 255.077 90.5879C254.427 90.5879 253.9 91.1304 253.9 91.7996C253.9 92.4688 254.427 93.0113 255.077 93.0113Z" fill="white"/>
<path opacity="0.4" d="M250.941 93.0113C251.591 93.0113 252.118 92.4688 252.118 91.7996C252.118 91.1304 251.591 90.5879 250.941 90.5879C250.291 90.5879 249.765 91.1304 249.765 91.7996C249.765 92.4688 250.291 93.0113 250.941 93.0113Z" fill="white"/>
<path d="M77.9234 93.125H58.164C57.3647 93.1241 56.5731 93.2854 55.8344 93.5998C55.0957 93.9142 54.4245 94.3754 53.859 94.9572C53.2935 95.539 52.8449 96.2299 52.5388 96.9903C52.2327 97.7508 52.0752 98.5659 52.0752 99.3891V117.104C52.0743 117.928 52.2309 118.743 52.5362 119.504C52.8414 120.265 53.2893 120.956 53.8541 121.538C54.419 122.121 55.0897 122.583 55.8281 122.898C56.5664 123.213 57.3578 123.376 58.1571 123.376H72.1717L76.2997 128.967V123.376H77.9165C79.5313 123.376 81.08 122.715 82.2219 121.539C83.3638 120.363 84.0053 118.768 84.0053 117.104V99.3891C84.0053 97.7278 83.3645 96.1345 82.2239 94.9597C81.0833 93.785 79.5364 93.125 77.9234 93.125Z" fill="#BD69CB"/>
<path opacity="0.7" d="M77.9234 93.125H58.164C57.3647 93.1241 56.5731 93.2854 55.8344 93.5998C55.0957 93.9142 54.4245 94.3754 53.859 94.9572C53.2935 95.539 52.8449 96.2299 52.5388 96.9903C52.2327 97.7508 52.0752 98.5659 52.0752 99.3891V117.104C52.0743 117.928 52.2309 118.743 52.5362 119.504C52.8414 120.265 53.2893 120.956 53.8541 121.538C54.419 122.121 55.0897 122.583 55.8281 122.898C56.5664 123.213 57.3578 123.376 58.1571 123.376H72.1717L76.2997 128.967V123.376H77.9165C79.5313 123.376 81.08 122.715 82.2219 121.539C83.3638 120.363 84.0053 118.768 84.0053 117.104V99.3891C84.0053 97.7278 83.3645 96.1345 82.2239 94.9597C81.0833 93.785 79.5364 93.125 77.9234 93.125Z" fill="white"/>
<path d="M67.0116 112.668C66.881 112.668 66.752 112.638 66.6333 112.582C66.5146 112.526 66.409 112.444 66.3236 112.342L62.4777 107.708C62.4009 107.615 62.3426 107.507 62.3062 107.391C62.2699 107.275 62.2561 107.152 62.2656 107.03C62.2752 106.909 62.308 106.79 62.3621 106.681C62.4162 106.573 62.4905 106.476 62.5809 106.397C62.6712 106.318 62.7758 106.258 62.8887 106.22C63.0015 106.183 63.1204 106.169 63.2386 106.179C63.3568 106.188 63.472 106.222 63.5775 106.278C63.683 106.334 63.7769 106.41 63.8537 106.503L67.0116 110.344L72.2335 104.009C72.3904 103.831 72.6084 103.722 72.8414 103.706C73.0745 103.69 73.3045 103.768 73.483 103.923C73.6614 104.079 73.7743 104.299 73.7979 104.539C73.8215 104.778 73.754 105.017 73.6095 105.207L67.6996 112.356C67.6134 112.456 67.5074 112.536 67.3886 112.59C67.2699 112.643 67.1413 112.67 67.0116 112.668Z" fill="white"/>
<path d="M74.9761 115.313C78.8075 111.367 78.8075 104.969 74.9761 101.023C71.1447 97.0766 64.9328 97.0766 61.1014 101.023C57.27 104.969 57.27 111.367 61.1014 115.313C64.9328 119.259 71.1447 119.259 74.9761 115.313Z" fill="#BD69CB"/>
<path d="M140.848 218.592L155.62 217.848L154.182 231.077C154.182 231.077 143.931 233.09 139.355 225.579L140.848 218.592Z" fill="#EBB376"/>
<path d="M165.141 222.461L161.777 232.055L154.182 231.077L155.62 217.848L165.141 222.461Z" fill="#EBB376"/>
<path d="M126.669 240.063C132.293 237.038 137.42 233.118 141.86 228.449L140.848 218.592C126.889 220.718 118.832 223.758 118.832 223.758C118.832 223.758 124.006 204.661 119.273 197.702L106.276 200.126C106.276 200.126 92.4682 229.689 101.756 240.063H126.669Z" fill="#BD69CB"/>
<path opacity="0.7" d="M126.648 240.063C132.276 237.039 137.407 233.122 141.853 228.456L140.848 218.585C127.336 220.626 119.348 223.545 118.832 223.737C119.004 223.028 123.896 204.526 119.259 197.695L106.263 200.119C103.591 206.055 101.469 212.238 99.9261 218.585C98.0685 226.656 97.525 235.351 101.749 240.063H126.648Z" fill="white"/>
<path opacity="0.2" d="M115.963 240.062C120.552 210.116 116.486 202.506 116.486 202.506L99.974 218.57C98.1164 226.641 97.5729 235.336 101.797 240.048L115.963 240.062Z" fill="black"/>
<path d="M113.094 240.063C116.19 224.927 119.664 201.231 119.286 197.702C118.735 192.572 91.642 170.591 68.1262 186.591C63.3102 189.858 60.854 225.097 60.0146 240.063H113.094Z" fill="#BD69CB"/>
<path opacity="0.7" d="M113.094 240.063C116.19 224.927 119.664 201.224 119.286 197.695C118.735 192.572 91.6351 170.591 68.1193 186.598C66.3786 187.796 64.9476 193.203 63.7642 200.345C62.1956 210.068 61.1086 222.978 60.4618 232.715C60.283 235.471 60.1316 237.966 60.0146 240.063H113.094Z" fill="white"/>
<path d="M101.487 121.562C93.3347 118.168 74.1119 130.349 72.4263 152.068C70.7407 173.787 81.4323 167.77 81.4323 167.77C81.4323 167.77 83.338 176.054 91.1262 173.496C91.1262 173.496 97.559 181 103.545 177.946C103.545 177.946 110.996 185.939 114.993 181.723C114.993 181.723 119.341 186.832 123.311 182.963C127.281 179.094 138.626 139.596 120.827 130.462C103.029 121.328 101.487 121.562 101.487 121.562Z" fill="#263238"/>
<path d="M101.502 210.457L100.718 210.386C101.626 199.927 99.39 195.3 99.3418 195.257L100.03 194.882C100.161 195.045 102.431 199.7 101.502 210.457Z" fill="#263238"/>
<path d="M105.19 210.549C99.7891 197.447 105.878 194.393 106.126 194.251L106.449 194.96C106.394 194.96 100.835 197.858 105.912 210.188L105.19 210.549Z" fill="#263238"/>
<path d="M99.9113 197.377C99.9113 197.377 89.4881 188.873 73.3063 184.083L68.1119 186.592C68.1119 186.592 59.4019 175.488 73.9187 171.852C88.4355 168.217 108.181 178.23 113.135 186.804C118.088 195.378 104.521 198.142 104.521 198.142C104.521 198.142 103.276 196.399 99.9113 197.377Z" fill="#BD69CB"/>
<path opacity="0.6" d="M99.9113 197.377C99.9113 197.377 89.4881 188.873 73.3063 184.083L68.1119 186.592C68.1119 186.592 59.4019 175.488 73.9187 171.852C88.4355 168.217 108.181 178.23 113.135 186.804C118.088 195.378 104.521 198.142 104.521 198.142C104.521 198.142 103.276 196.399 99.9113 197.377Z" fill="white"/>
<path d="M106.2 210.393C106.2 210.533 106.16 210.67 106.084 210.787C106.009 210.903 105.901 210.994 105.776 211.048C105.65 211.101 105.511 211.116 105.378 211.088C105.245 211.061 105.122 210.993 105.026 210.894C104.93 210.795 104.864 210.669 104.837 210.531C104.811 210.394 104.825 210.251 104.877 210.122C104.929 209.993 105.017 209.882 105.13 209.804C105.243 209.726 105.376 209.685 105.512 209.685C105.695 209.685 105.87 209.759 105.999 209.892C106.128 210.025 106.2 210.205 106.2 210.393Z" fill="white"/>
<path d="M101.735 210.393C101.735 210.533 101.695 210.67 101.619 210.787C101.544 210.903 101.436 210.994 101.311 211.048C101.185 211.101 101.047 211.116 100.913 211.088C100.78 211.061 100.657 210.993 100.561 210.894C100.465 210.795 100.399 210.669 100.373 210.531C100.346 210.394 100.36 210.251 100.412 210.122C100.464 209.993 100.552 209.882 100.665 209.804C100.778 209.726 100.911 209.685 101.047 209.685C101.23 209.685 101.405 209.759 101.534 209.892C101.663 210.025 101.735 210.205 101.735 210.393Z" fill="white"/>
<path d="M94.3734 157.312C93.7405 164.915 91.4769 178.449 85.4707 181.404C85.4707 181.404 92.1856 182.822 102.671 196.505C108.636 192.196 106.379 189.256 106.379 189.256C99.4027 184.543 101.212 178.733 104.033 173.666L94.3734 157.312Z" fill="#EBB376"/>
<path opacity="0.2" d="M98.3017 163.979L104.019 173.687C103.336 174.859 102.758 176.093 102.292 177.372C99.54 175.856 96.5266 171.051 97.0977 167.763C97.2757 166.438 97.6835 165.156 98.3017 163.979Z" fill="black"/>
<path d="M93.5684 141.233C91.6489 153.18 90.5893 158.183 94.8893 165.871C101.35 177.443 115.667 177.988 120.93 167.048C125.664 157.198 128.01 139.313 118.13 131.419C108.381 123.638 95.4741 129.279 93.5684 141.233Z" fill="#EBB376"/>
<path d="M117.326 124.765C124.846 129.06 132.008 142.481 121.309 139.129C119.693 142.353 113.934 139.398 110.583 135.529C110.019 138.215 103.855 140.908 99.314 136.748C101.509 140.008 97.7728 148.235 93.8856 146.817C89.9984 145.4 81.2746 143.536 89.0008 130.852C96.7271 118.168 109.297 120.166 117.326 124.765Z" fill="#263238"/>
<path d="M114.588 152.507C114.588 152.507 115.276 157.247 116.584 159.82C115.118 160.691 113.144 159.529 113.144 159.529L114.588 152.507Z" fill="#D58745"/>
<path d="M107.088 161.656C107.576 161.901 108.085 162.1 108.608 162.251C108.643 162.261 108.681 162.264 108.717 162.259C108.753 162.254 108.788 162.241 108.819 162.22C108.851 162.2 108.877 162.174 108.898 162.142C108.918 162.111 108.932 162.076 108.938 162.038C108.957 161.96 108.945 161.878 108.905 161.809C108.865 161.74 108.801 161.69 108.725 161.67C107.541 161.328 106.447 160.717 105.523 159.882C104.599 159.047 103.869 158.009 103.386 156.844C103.376 156.806 103.359 156.771 103.335 156.741C103.311 156.71 103.282 156.685 103.248 156.667C103.215 156.648 103.178 156.637 103.14 156.633C103.103 156.629 103.065 156.634 103.028 156.646C102.959 156.676 102.903 156.732 102.874 156.804C102.844 156.875 102.843 156.956 102.87 157.028C103.676 159.053 105.177 160.7 107.088 161.656Z" fill="#263238"/>
<path d="M87.7139 149.821C88.3625 152.305 89.941 154.423 92.1033 155.71C94.9035 157.29 96.9193 154.583 96.7129 151.217C96.4996 148.177 94.7796 143.699 91.7111 143.521C88.6427 143.344 86.8814 146.682 87.7139 149.821Z" fill="#EBB376"/>
<path d="M106.296 141.558C106.365 141.591 106.44 141.608 106.516 141.608C106.592 141.608 106.667 141.591 106.736 141.558C107.347 141.209 108.032 141.02 108.73 141.008C109.428 140.995 110.119 141.16 110.741 141.487C110.802 141.528 110.872 141.555 110.944 141.566C111.017 141.578 111.091 141.573 111.161 141.553C111.232 141.533 111.298 141.498 111.355 141.45C111.411 141.402 111.458 141.342 111.49 141.275C111.558 141.132 111.573 140.969 111.531 140.816C111.489 140.662 111.394 140.531 111.263 140.446C110.487 140.008 109.617 139.778 108.732 139.778C107.847 139.778 106.976 140.008 106.2 140.446C106.07 140.526 105.974 140.654 105.933 140.804C105.892 140.955 105.909 141.115 105.98 141.254C106.046 141.391 106.159 141.499 106.296 141.558Z" fill="#263238"/>
<path d="M124.783 146.221C124.845 146.258 124.914 146.28 124.985 146.288C125.056 146.295 125.128 146.287 125.195 146.264C125.267 146.239 125.333 146.2 125.39 146.148C125.446 146.097 125.492 146.035 125.525 145.964C125.558 145.894 125.577 145.818 125.58 145.741C125.584 145.663 125.572 145.586 125.546 145.513C125.295 144.592 124.841 143.743 124.219 143.033C123.598 142.322 122.825 141.769 121.962 141.417C121.891 141.391 121.816 141.381 121.741 141.388C121.666 141.395 121.593 141.418 121.528 141.456C121.463 141.495 121.406 141.547 121.362 141.61C121.319 141.673 121.288 141.745 121.274 141.821C121.238 141.975 121.259 142.137 121.333 142.275C121.407 142.414 121.528 142.52 121.673 142.572C122.353 142.861 122.96 143.308 123.446 143.876C123.933 144.445 124.287 145.121 124.48 145.853C124.504 145.932 124.543 146.005 124.595 146.068C124.647 146.132 124.711 146.184 124.783 146.221Z" fill="#263238"/>
<path d="M109.998 149.375C109.661 150.324 108.891 150.898 108.278 150.665C107.666 150.431 107.446 149.481 107.783 148.539C108.12 147.596 108.891 147.015 109.496 147.249C110.101 147.483 110.328 148.432 109.998 149.375Z" fill="#263238"/>
<path d="M109.228 147.199L111.512 147.149C111.512 147.149 109.902 148.496 109.228 147.199Z" fill="#263238"/>
<path d="M121.55 153.151C121.213 154.094 120.442 154.668 119.837 154.441C119.231 154.214 118.997 153.251 119.335 152.315C119.672 151.38 120.442 150.799 121.055 151.026C121.667 151.252 121.887 152.202 121.55 153.151Z" fill="#263238"/>
<path d="M120.786 150.969L123.063 150.919C123.063 150.919 121.453 152.272 120.786 150.969Z" fill="#263238"/>
<path d="M108.912 156.071C108.201 156.073 107.498 155.921 106.848 155.625C106.16 155.3 105.55 154.825 105.058 154.233C104.566 153.64 104.205 152.945 104 152.195C103.556 150.578 103.678 148.852 104.343 147.318C105.008 145.783 106.174 144.538 107.639 143.798C108.318 143.449 109.063 143.259 109.822 143.241C110.58 143.224 111.333 143.381 112.026 143.699C112.719 144.018 113.335 144.491 113.829 145.084C114.323 145.676 114.683 146.375 114.884 147.129C115.341 148.744 115.217 150.475 114.533 152.004C113.888 153.557 112.717 154.816 111.238 155.547C110.509 155.894 109.715 156.073 108.912 156.071ZM109.992 144.06C109.307 144.079 108.634 144.248 108.018 144.556C106.726 145.215 105.697 146.317 105.109 147.672C104.522 149.028 104.411 150.552 104.798 151.983C104.963 152.626 105.267 153.224 105.686 153.731C106.105 154.239 106.629 154.643 107.219 154.915C107.81 155.187 108.452 155.319 109.098 155.302C109.745 155.285 110.379 155.119 110.955 154.817C112.258 154.175 113.291 153.07 113.866 151.706C114.471 150.353 114.581 148.821 114.175 147.391C114.003 146.751 113.697 146.157 113.278 145.652C112.86 145.146 112.34 144.741 111.754 144.464C111.203 144.197 110.601 144.059 109.992 144.06Z" fill="#263238"/>
<path d="M120.359 159.686C119.648 159.692 118.944 159.54 118.295 159.239C117.607 158.913 116.996 158.438 116.503 157.846C116.01 157.254 115.647 156.56 115.44 155.81C114.999 154.192 115.123 152.466 115.789 150.932C116.455 149.398 117.622 148.153 119.086 147.413C119.764 147.062 120.509 146.871 121.268 146.853C122.026 146.835 122.779 146.991 123.472 147.31C124.164 147.629 124.78 148.102 125.273 148.696C125.766 149.29 126.125 149.989 126.324 150.743C126.787 152.357 126.665 154.09 125.98 155.618C125.515 156.777 124.74 157.774 123.744 158.495C122.749 159.215 121.574 159.628 120.359 159.686ZM121.453 147.639C120.758 147.644 120.073 147.804 119.444 148.107C118.143 148.754 117.11 149.86 116.534 151.225C115.925 152.574 115.815 154.106 116.224 155.533C116.397 156.174 116.703 156.768 117.121 157.275C117.539 157.782 118.059 158.188 118.646 158.467C121.054 159.579 124.04 158.134 125.292 155.257C125.894 153.903 126.004 152.372 125.601 150.941C125.428 150.302 125.121 149.709 124.703 149.204C124.285 148.699 123.765 148.293 123.18 148.015C122.633 147.78 122.045 147.664 121.453 147.675V147.639Z" fill="#263238"/>
<path d="M115.448 152.294C115.433 152.244 115.407 152.197 115.372 152.158C115.338 152.119 115.295 152.088 115.248 152.067C114.946 152.013 114.635 152.06 114.361 152.202L114.017 151.493C114.484 151.247 115.024 151.189 115.53 151.33C115.689 151.388 115.833 151.482 115.952 151.604C116.071 151.727 116.162 151.876 116.218 152.039L115.448 152.294Z" fill="#263238"/>
<path d="M96.6318 144.711L96.3965 145.486L105.709 148.484L105.945 147.708L96.6318 144.711Z" fill="#263238"/>
<path opacity="0.2" d="M94.4491 219.286C94.4491 219.286 76.3478 233.571 60.4619 232.749C61.1086 223.013 62.1957 210.074 63.7643 200.38C65.388 198.538 66.4544 197.418 66.4544 197.418L76.0864 204.837L73.7403 207.87C73.7403 207.87 88.319 207.105 93.3965 207.87L94.4491 219.286Z" fill="black"/>
<path d="M96.3213 207.835L110.811 204.788L111.327 218.096C111.327 218.096 101.495 221.681 95.8672 214.971L96.3213 207.835Z" fill="#EBB376"/>
<path d="M120.896 207.877L118.983 217.883L111.326 218.103L110.81 204.795L120.896 207.877Z" fill="#EBB376"/>
<path d="M96.3204 207.835L97.029 218.103L93.4239 219.768L91.8828 207.835H96.3204Z" fill="#BD69CB"/>
<path opacity="0.6" d="M96.3204 207.835L97.029 218.103L93.4239 219.768L91.8828 207.835H96.3204Z" fill="white"/>
<path d="M73.3071 184.083C69.4192 184.79 65.8984 186.888 63.3655 190.007C58.9967 195.293 43.5992 210.996 47.0186 223.815C50.438 236.634 83.3656 227.096 93.4242 219.769L91.8831 207.836L69.0759 209.558L76.1072 204.789C80.9301 190.971 73.3071 184.083 73.3071 184.083Z" fill="#BD69CB"/>
<path opacity="0.7" d="M73.3071 184.083C69.4192 184.79 65.8984 186.888 63.3655 190.007C58.9967 195.293 43.5992 210.996 47.0186 223.815C50.438 236.634 83.3656 227.096 93.4242 219.769L91.8831 207.836L69.0759 209.558L76.1072 204.789C80.9301 190.971 73.3071 184.083 73.3071 184.083Z" fill="white"/>
<path d="M139.361 218.819L143.51 218.104V229.555L140.221 230.107L139.361 218.819Z" fill="#BD69CB"/>
<path opacity="0.6" d="M139.361 218.819L143.51 218.104V229.555L140.221 230.107L139.361 218.819Z" fill="white"/>
<path d="M130.977 229.441C130.965 228.814 130.995 228.186 131.066 227.563L131.19 226.621L130.302 227.159L129.773 227.485C129.598 227.566 129.419 227.635 129.236 227.691C128.923 227.793 128.586 227.793 128.273 227.691C127.97 227.575 127.703 227.377 127.502 227.117C127.27 226.829 127.086 226.503 126.959 226.153L126.181 223.921L125.631 226.288C125.576 226.521 125.541 226.762 125.5 226.996C125.459 227.23 125.363 227.436 125.301 227.655C125.169 228.009 124.948 228.319 124.661 228.555C124.34 228.725 123.967 228.758 123.622 228.647C123.188 228.53 122.775 228.344 122.397 228.095L121.2 227.322L121.682 228.576C121.89 229.11 122.056 229.659 122.177 230.22C122.237 230.5 122.274 230.785 122.287 231.071C122.318 231.362 122.255 231.656 122.108 231.907C122.35 231.707 122.515 231.426 122.576 231.113C122.655 230.808 122.697 230.494 122.7 230.178C122.714 229.93 122.714 229.682 122.7 229.434C122.9 229.551 123.107 229.655 123.319 229.746C123.632 229.877 123.967 229.941 124.305 229.933C124.642 229.924 124.974 229.843 125.28 229.696C125.862 229.36 126.315 228.83 126.567 228.194V228.102C126.939 228.538 127.438 228.839 127.989 228.961C128.541 229.082 129.115 229.017 129.628 228.775C129.83 228.681 130.026 228.572 130.213 228.449C130.213 228.449 130.213 228.499 130.213 228.527C130.262 228.861 130.329 229.192 130.413 229.519C130.496 229.849 130.612 230.169 130.757 230.476C130.894 230.784 131.099 231.056 131.355 231.269C131.201 230.992 131.1 230.686 131.059 230.369C131.012 230.062 130.984 229.752 130.977 229.441Z" fill="#BD69CB"/>
<path d="M155.586 213.455C155.05 213.508 154.509 213.448 153.996 213.278C153.469 213.116 152.966 212.877 152.504 212.569C152.065 212.233 151.689 211.818 151.396 211.343C151.085 210.871 150.838 210.359 150.66 209.82L150.206 208.402L149.435 209.657C149.106 210.183 148.707 210.66 148.252 211.074C147.882 211.451 147.394 211.682 146.876 211.726H146.711L146.504 211.683C146.36 211.683 146.222 211.612 146.078 211.577C145.79 211.48 145.512 211.356 145.245 211.208C144.707 210.898 144.209 210.517 143.766 210.075L142.569 208.891L142.816 210.514C142.955 211.38 143.008 212.259 142.975 213.136C142.961 213.549 142.88 213.956 142.734 214.341C142.669 214.509 142.551 214.649 142.398 214.739C142.246 214.83 142.068 214.864 141.895 214.837H141.585L141.681 215.099C141.883 215.633 142.09 216.164 142.3 216.693C142.239 216.218 142.163 215.744 142.08 215.276H142.211C142.348 215.265 142.484 215.242 142.617 215.205C142.743 215.138 142.865 215.062 142.982 214.978C143.071 214.879 143.167 214.773 143.25 214.666C143.514 214.235 143.69 213.753 143.766 213.249C143.853 212.782 143.903 212.308 143.917 211.832C144.137 212.02 144.367 212.195 144.605 212.356C144.928 212.561 145.269 212.734 145.624 212.874C146.002 213.036 146.405 213.129 146.814 213.15C147.665 213.137 148.482 212.805 149.112 212.215C149.382 211.981 149.633 211.725 149.862 211.449C149.996 211.693 150.143 211.93 150.302 212.158C150.714 212.743 151.227 213.246 151.816 213.639C152.403 214.006 153.048 214.265 153.721 214.404C154.154 214.491 154.595 214.524 155.035 214.503C154.98 214.645 154.918 214.787 154.87 214.936C154.749 215.345 154.655 215.761 154.588 216.183C154.515 216.606 154.496 217.037 154.533 217.465C154.554 217.892 154.68 218.307 154.898 218.67C154.779 218.283 154.749 217.874 154.808 217.473C154.86 217.075 154.95 216.683 155.077 216.303C155.341 215.563 155.675 214.851 156.074 214.178L156.508 213.419L155.586 213.455Z" fill="#BD69CB"/>
<path d="M293.226 255.334L51.944 255.334C51.1338 255.334 50.3568 255.003 49.7839 254.412C49.2111 253.822 48.8892 253.022 48.8892 252.188V244.535L296.28 244.535V252.188C296.28 253.022 295.958 253.822 295.386 254.412C294.813 255.003 294.036 255.334 293.226 255.334Z" fill="#BD69CB"/>
<path opacity="0.2" d="M48.8824 249.927L296.28 249.927V244.527L48.8824 244.527V249.927Z" fill="black"/>
<path d="M43.7006 245.938H301.467C302.25 245.938 303.002 245.617 303.556 245.048C304.111 244.478 304.423 243.704 304.425 242.898C304.425 242.089 304.113 241.314 303.559 240.743C303.004 240.172 302.251 239.851 301.467 239.851H43.7006C42.916 239.851 42.1635 240.172 41.6087 240.743C41.0539 241.314 40.7422 242.089 40.7422 242.898C40.744 243.704 41.0565 244.478 41.6111 245.048C42.1657 245.617 42.9172 245.938 43.7006 245.938Z" fill="#BD69CB"/>
<path d="M284.001 202.661L276.474 237.823C276.336 238.386 276.023 238.887 275.581 239.248C275.14 239.609 274.595 239.81 274.032 239.821H232.917C232.661 239.814 232.41 239.746 232.184 239.623C231.958 239.499 231.762 239.324 231.613 239.11C231.464 238.895 231.365 238.649 231.323 238.388C231.282 238.128 231.3 237.862 231.376 237.61L238.888 202.718C239.043 202.186 239.369 201.725 239.814 201.412C240.258 201.099 240.794 200.952 241.331 200.996H282.446C283.547 201.024 284.241 201.542 284.001 202.661Z" fill="#263238"/>
<path opacity="0.4" d="M284 202.662L276.474 237.823C276.336 238.386 276.023 238.887 275.581 239.248C275.14 239.609 274.595 239.811 274.031 239.821H234.313C234.057 239.815 233.805 239.748 233.578 239.625C233.351 239.503 233.155 239.327 233.005 239.113C232.855 238.899 232.755 238.651 232.713 238.391C232.672 238.13 232.689 237.863 232.765 237.61L240.292 202.718C240.443 202.185 240.768 201.721 241.214 201.407C241.659 201.093 242.197 200.948 242.734 200.996H282.446C283.546 201.025 284.241 201.542 284 202.662Z" fill="white"/>
<path d="M277.443 238.736L284.928 203.759C285.176 202.611 284.481 202.094 283.373 202.094H243.662C243.125 202.048 242.589 202.195 242.144 202.508C241.699 202.822 241.373 203.284 241.22 203.816L233.617 239.197L277.443 238.736Z" fill="#BD69CB"/>
<path opacity="0.4" d="M284.929 203.753L280.98 222.233L277.437 238.737L253.976 238.985L233.625 239.19L241.193 203.816C241.344 203.284 241.668 202.821 242.112 202.508C242.556 202.194 243.092 202.048 243.629 202.094H283.388C284.489 202.094 285.177 202.619 284.929 203.753Z" fill="white"/>
<path opacity="0.2" d="M280.979 222.234L277.436 238.738L253.975 238.986H234.491L237.677 223.893C237.779 223.425 238.032 223.007 238.394 222.706C238.756 222.405 239.206 222.239 239.672 222.234H280.979Z" fill="black"/>
<path d="M281.653 224.53C281.501 223.997 281.175 223.536 280.73 223.223C280.284 222.91 279.748 222.766 279.211 222.815H239.5C238.399 222.815 237.704 223.325 237.945 224.473L240.958 238.546H234.25C234.082 238.546 233.921 238.615 233.803 238.737C233.684 238.859 233.617 239.025 233.617 239.198C233.617 239.371 233.684 239.537 233.803 239.659C233.921 239.781 234.082 239.85 234.25 239.85H283.167C283.38 239.846 283.59 239.793 283.781 239.695C283.973 239.597 284.14 239.456 284.272 239.283C284.404 239.11 284.496 238.909 284.543 238.695C284.59 238.48 284.59 238.257 284.543 238.043L281.653 224.53Z" fill="#BD69CB"/>
<path opacity="0.4" d="M281.653 224.53C281.501 223.997 281.175 223.536 280.73 223.223C280.284 222.91 279.748 222.766 279.211 222.815H239.5C238.399 222.815 237.704 223.325 237.945 224.473L240.958 238.546H234.25C234.082 238.546 233.921 238.615 233.803 238.737C233.684 238.859 233.617 239.025 233.617 239.198C233.617 239.371 233.684 239.537 233.803 239.659C233.921 239.781 234.082 239.85 234.25 239.85H283.167C283.38 239.846 283.59 239.793 283.781 239.695C283.973 239.597 284.14 239.456 284.272 239.283C284.404 239.11 284.496 238.909 284.543 238.695C284.59 238.48 284.59 238.257 284.543 238.043L281.653 224.53Z" fill="white"/>
<path d="M233.061 233.068H230.756L230.467 234.351H232.71L233.061 233.068Z" fill="black"/>
<path d="M218.495 240.012H211.856C211.804 240.013 211.753 240.004 211.705 239.984C211.657 239.964 211.613 239.934 211.577 239.896C211.54 239.858 211.511 239.814 211.492 239.764C211.473 239.715 211.463 239.662 211.464 239.608C211.464 239.501 211.505 239.399 211.579 239.323C211.652 239.247 211.752 239.205 211.856 239.205H218.495C219.585 239.207 220.661 238.956 221.643 238.472C222.626 237.987 223.49 237.281 224.171 236.406C224.927 235.434 225.885 234.65 226.975 234.113C228.065 233.576 229.258 233.298 230.467 233.302H231.636C231.74 233.304 231.838 233.347 231.911 233.422C231.985 233.497 232.026 233.599 232.028 233.706C232.028 233.813 231.987 233.916 231.913 233.991C231.84 234.067 231.74 234.11 231.636 234.11H230.48C229.391 234.108 228.315 234.358 227.332 234.843C226.35 235.327 225.486 236.033 224.804 236.909C224.047 237.882 223.087 238.666 221.994 239.204C220.902 239.741 219.706 240.017 218.495 240.012Z" fill="black"/>
<path d="M107.865 235.011V237.966C107.865 239.298 109.427 239.851 110.72 239.851H211.567C212.847 239.851 214.368 239.298 214.368 237.966V235.011H107.865Z" fill="#263238"/>
<path opacity="0.4" d="M107.865 235.011V237.966C107.865 239.298 109.427 239.851 110.72 239.851H211.567C212.847 239.851 214.368 239.298 214.368 237.966V235.011H107.865Z" fill="white"/>
<path opacity="0.2" d="M142.224 235.011V237.966C142.224 239.298 143.758 239.851 145.051 239.851H211.567C212.847 239.851 214.367 239.298 214.367 237.966V235.011H142.224Z" fill="black"/>
<path d="M231.244 178.804L219.238 234.89C219.023 235.792 218.524 236.595 217.82 237.174C217.115 237.753 216.245 238.076 215.344 238.093H149.757C148.016 238.093 146.888 236.414 147.294 234.55L159.286 178.889C159.692 177.061 161.425 176.146 163.187 176.146H228.767C230.528 176.154 231.636 176.976 231.244 178.804Z" fill="#263238"/>
<path opacity="0.4" d="M231.245 178.804L219.239 234.89C219.024 235.792 218.525 236.595 217.821 237.174C217.117 237.753 216.246 238.076 215.345 238.093H151.987C150.226 238.093 149.118 236.414 149.511 234.55L161.516 178.889C161.908 177.061 163.656 176.146 165.417 176.146H228.768C230.529 176.154 231.637 176.976 231.245 178.804Z" fill="white"/>
<path opacity="0.2" d="M198.908 207.312C198.908 212.116 193.913 216.02 190.246 216.02C186.579 216.02 184.412 212.116 185.43 207.312C186.448 202.507 190.115 198.773 193.686 198.624C192.64 203.428 194.876 207.312 198.502 207.312C198.637 207.325 198.773 207.325 198.908 207.312Z" fill="black"/>
</svg>
