<svg width="352" height="344" viewBox="0 0 352 344" fill="none" xmlns="http://www.w3.org/2000/svg">
<path d="M51.55 312.668C120.279 354.443 231.721 354.443 300.45 312.668C369.179 270.893 369.187 203.163 300.45 161.388C231.713 119.613 120.287 119.622 51.55 161.37C-17.1873 203.118 -17.1794 270.902 51.55 312.668Z" fill="#F5F5F5"/>
<path d="M280.818 243.747C292.347 243.747 301.693 238.562 301.693 232.167C301.693 225.771 292.347 220.587 280.818 220.587C269.289 220.587 259.942 225.771 259.942 232.167C259.942 238.562 269.289 243.747 280.818 243.747Z" fill="#E6E6E6"/>
<path d="M282.796 30.6558L285.789 31.9933V24.3345C285.789 18.2606 289.954 16.804 294.451 19.8455C298.971 22.8779 302.632 30.2619 302.632 36.3358V37.4443C303.268 37.2163 303.941 37.1597 304.598 37.2787C305.256 37.3978 305.881 37.6894 306.428 38.1314C308.148 39.4351 309.578 41.1938 310.602 43.2637C311.625 45.3336 312.213 47.656 312.318 50.041V50.5174L316.492 53.3208C317.62 54.1772 318.559 55.3311 319.232 56.6889C319.905 58.0467 320.294 59.5701 320.366 61.1353C320.366 64.012 318.633 65.1846 316.492 63.7371L282.796 41.0813C281.668 40.2249 280.729 39.071 280.056 37.7132C279.382 36.3554 278.994 34.832 278.922 33.2668C278.922 30.3626 280.654 29.2175 282.796 30.6558Z" fill="#F0F0F0"/>
<path d="M47.047 268.556L52.5592 264.891C52.5592 264.891 55.213 247.906 53.2286 233.312C50.441 212.791 38.4322 205.709 34.0697 207.752C29.7072 209.795 28.715 215.851 36.5896 227.715C41.2198 234.705 47.1966 249.5 47.047 268.556Z" fill="#BD69CB"/>
<g opacity="0.1">
<path d="M47.047 268.555L52.5592 264.89C52.5592 264.89 55.213 247.905 53.2286 233.311C50.441 212.79 38.4322 205.708 34.0697 207.751C29.7072 209.794 28.715 215.85 36.5896 227.714C41.2198 234.704 47.1966 249.499 47.047 268.555Z" fill="black"/>
</g>
<path d="M49.5511 262.198C49.4062 262.186 49.2712 262.109 49.1753 261.982C49.0795 261.855 49.0306 261.689 49.0392 261.52C50.3149 235.96 46.1178 220.826 35.0067 210.932C34.9452 210.882 34.8934 210.818 34.8545 210.744C34.8156 210.669 34.7905 210.586 34.7808 210.5C34.7712 210.414 34.7772 210.326 34.7985 210.243C34.8198 210.159 34.8558 210.082 34.9044 210.016C34.9471 209.945 35.0021 209.884 35.0657 209.839C35.1293 209.794 35.2002 209.764 35.2741 209.752C35.348 209.74 35.4232 209.746 35.4951 209.769C35.5669 209.792 35.6339 209.833 35.6918 209.887C47.1336 220.075 51.441 235.539 50.1574 261.575C50.1569 261.664 50.1402 261.752 50.1085 261.832C50.0769 261.913 50.031 261.985 49.9738 262.044C49.9166 262.103 49.8494 262.147 49.7765 262.174C49.7037 262.2 49.6269 262.209 49.5511 262.198Z" fill="white"/>
<path d="M31.7231 278.844C30.849 279.421 29.0536 278.148 28.3685 277.616C27.1903 276.691 26.2359 275.429 25.5967 273.952C24.874 272.25 24.6315 270.327 24.9037 268.455C25.0417 267.472 25.2391 266.502 25.4943 265.551C25.7305 264.635 25.9589 263.673 26.1873 262.738C26.4723 261.83 26.5929 260.863 26.5416 259.899C26.3369 257.975 24.8643 256.628 23.5256 255.464C22.0531 254.182 20.5175 252.478 20.5254 250.16C20.634 248.363 21.2515 246.659 22.2815 245.314C23.2343 243.912 24.3603 242.666 25.2187 241.191C25.8993 240.157 26.255 238.883 26.2266 237.582C26.1334 236.788 25.903 236.024 25.5494 235.337C24.7426 233.899 24.0344 232.388 23.4311 230.821C22.9508 229.208 23.0217 227.156 24.1084 226.029C24.5931 225.606 25.1462 225.3 25.7346 225.13C26.3231 224.96 26.935 224.929 27.5338 225.04C28.6521 225.204 29.7266 225.648 30.6836 226.341C33.8335 228.384 35.6446 232.754 39.0071 234.32C40.3369 234.803 41.6914 235.188 43.0625 235.475C43.7504 235.623 44.4041 235.936 44.9817 236.395C45.5594 236.855 46.0483 237.449 46.4171 238.14C47.6455 241.008 45.3619 244.553 46.2281 247.567C47.0155 250.261 49.2362 251.287 50.4961 253.706C51.0132 254.777 51.2203 256.014 51.0867 257.233C50.9793 259.289 50.5468 261.304 49.811 263.178C49.0069 265.049 48.083 266.847 47.047 268.556C46.9919 268.602 31.8648 278.752 31.7231 278.844Z" fill="#BD69CB"/>
<path d="M40.7631 273.402H40.6922C40.5485 273.379 40.4183 273.291 40.3298 273.158C40.2414 273.024 40.2018 272.855 40.2197 272.687C41.7946 257.956 35.7785 238.104 26.7621 228.42C26.6846 228.299 26.6465 228.15 26.6543 227.999C26.6622 227.848 26.7155 227.706 26.8049 227.596C26.8943 227.487 27.0141 227.417 27.1431 227.4C27.2721 227.384 27.4021 227.42 27.5101 227.504C36.9124 237.581 42.9758 257.526 41.3064 272.871C41.2857 273.02 41.2194 273.156 41.1196 273.254C41.0199 273.351 40.8934 273.404 40.7631 273.402Z" fill="white"/>
<path d="M39.1883 254.192C39.0717 254.19 38.9586 254.145 38.8654 254.063C34.054 249.868 26.3527 250.628 26.3527 250.637C26.2805 250.647 26.2072 250.64 26.1374 250.616C26.0676 250.592 26.0028 250.552 25.9468 250.498C25.8908 250.444 25.8448 250.378 25.8117 250.302C25.7786 250.227 25.759 250.144 25.7542 250.06C25.7411 249.891 25.7858 249.723 25.8788 249.593C25.9718 249.462 26.1053 249.38 26.2503 249.364C26.581 249.364 34.4163 248.548 39.5584 253.028C39.6185 253.079 39.6693 253.143 39.7076 253.217C39.7459 253.291 39.771 253.373 39.7813 253.459C39.7916 253.545 39.7869 253.632 39.7675 253.715C39.7482 253.798 39.7145 253.876 39.6686 253.944C39.6116 254.028 39.5382 254.094 39.4545 254.137C39.3709 254.18 39.2795 254.199 39.1883 254.192Z" fill="white"/>
<path d="M38.4246 250.509C38.3526 250.506 38.2816 250.487 38.2159 250.453C38.1503 250.418 38.0912 250.369 38.0421 250.307C37.993 250.246 37.9548 250.174 37.9299 250.095C37.905 250.016 37.8938 249.933 37.897 249.849C38.0127 247.576 38.5231 245.353 39.3974 243.316C40.2717 241.278 41.4918 239.468 42.984 237.994C43.0401 237.935 43.1061 237.89 43.1779 237.862C43.2497 237.834 43.3257 237.823 43.4012 237.83C43.4767 237.838 43.5501 237.864 43.6167 237.906C43.6833 237.947 43.7418 238.005 43.7885 238.074C43.8352 238.144 43.869 238.224 43.888 238.309C43.9069 238.394 43.9105 238.483 43.8986 238.571C43.8866 238.658 43.8594 238.741 43.8185 238.815C43.7777 238.889 43.7241 238.953 43.6612 239.002C42.2954 240.364 41.1757 242.029 40.3674 243.899C39.559 245.769 39.078 247.807 38.9522 249.895C38.9447 250.055 38.8866 250.206 38.7893 250.319C38.6919 250.432 38.5621 250.5 38.4246 250.509Z" fill="white"/>
<path d="M292.963 218.169C293.191 214.953 295.325 209.475 298.475 205.572C301.625 201.669 306.673 199.791 309.783 201.367C312.681 202.833 312.043 207.349 308.208 210.024C304.373 212.7 298.688 215.97 296.735 221.018L292.955 227.092L292.963 218.169Z" fill="#BD69CB"/>
<path opacity="0.1" d="M292.963 218.169C293.191 214.953 295.325 209.475 298.475 205.572C301.625 201.669 306.673 199.791 309.783 201.367C312.681 202.833 312.043 207.349 308.208 210.024C304.373 212.7 298.688 215.97 296.735 221.018L292.955 227.092L292.963 218.169Z" fill="black"/>
<path d="M292.961 224.003H292.914C292.815 223.987 292.725 223.926 292.665 223.833C292.604 223.741 292.578 223.624 292.591 223.508C293.969 211.599 304.356 203.354 308.482 202.437C308.533 202.421 308.585 202.418 308.637 202.426C308.688 202.435 308.738 202.456 308.782 202.488C308.826 202.52 308.864 202.563 308.894 202.613C308.923 202.663 308.943 202.719 308.953 202.779C308.963 202.838 308.962 202.9 308.951 202.959C308.939 203.018 308.917 203.074 308.886 203.123C308.855 203.171 308.816 203.212 308.771 203.242C308.726 203.273 308.676 203.292 308.624 203.299C304.773 204.151 294.647 212.332 293.339 223.627C293.326 223.733 293.28 223.829 293.211 223.898C293.141 223.967 293.053 224.004 292.961 224.003Z" fill="white"/>
<path d="M293.379 231.408C293.946 229.64 296.049 226.827 299.285 224.665C302.86 222.265 307.239 221.413 308.372 219.388C309.743 216.952 308.065 214.377 304.545 214.551C301.025 214.725 294.521 219.682 292.962 227.918L293.379 231.408Z" fill="#BD69CB"/>
<path d="M293.129 229.702H293.058C292.959 229.678 292.873 229.61 292.817 229.512C292.761 229.414 292.74 229.295 292.759 229.18C293.798 223.088 301.421 216.776 306.303 216.51C306.402 216.507 306.499 216.548 306.573 216.624C306.648 216.701 306.695 216.807 306.705 216.922C306.708 216.981 306.701 217.039 306.684 217.095C306.668 217.15 306.642 217.201 306.608 217.245C306.574 217.288 306.533 217.323 306.488 217.348C306.442 217.373 306.393 217.387 306.342 217.389C301.783 217.637 294.467 223.711 293.499 229.354C293.482 229.453 293.436 229.543 293.368 229.606C293.301 229.67 293.216 229.704 293.129 229.702Z" fill="white"/>
<path d="M159.141 268.454V268.829C159.156 269.148 159.235 269.458 159.372 269.735C159.508 270.012 159.699 270.248 159.928 270.423L206.735 301.856C206.978 302.003 207.248 302.081 207.522 302.081C207.796 302.081 208.066 302.003 208.31 301.856L277.441 255.426C277.671 255.25 277.862 255.013 277.999 254.734C278.136 254.456 278.214 254.144 278.228 253.823V253.457C278.213 253.137 278.134 252.825 277.997 252.547C277.861 252.268 277.67 252.031 277.441 251.853L230.642 220.421C230.398 220.278 230.128 220.203 229.854 220.203C229.581 220.203 229.311 220.278 229.067 220.421L159.928 266.86C159.699 267.035 159.508 267.271 159.372 267.548C159.235 267.825 159.156 268.135 159.141 268.454Z" fill="#E0E0E0"/>
<path d="M159.141 268.453V268.829C159.156 269.148 159.235 269.458 159.372 269.735C159.508 270.012 159.699 270.247 159.928 270.423L206.735 301.855C206.976 302.007 207.248 302.083 207.522 302.075V294.893L162.857 264.89L159.928 266.859C159.699 267.035 159.508 267.271 159.372 267.547C159.235 267.824 159.156 268.135 159.141 268.453Z" fill="#E6E6E6"/>
<path d="M159.928 267.922L206.735 299.355C206.978 299.502 207.248 299.579 207.522 299.579C207.796 299.579 208.067 299.502 208.31 299.355L277.441 252.925C277.882 252.632 277.882 252.156 277.441 251.853L230.642 220.421C230.398 220.278 230.128 220.203 229.855 220.203C229.581 220.203 229.311 220.278 229.067 220.421L159.928 266.86C159.832 266.896 159.748 266.967 159.688 267.063C159.629 267.158 159.597 267.273 159.597 267.391C159.597 267.509 159.629 267.624 159.688 267.719C159.748 267.815 159.832 267.886 159.928 267.922Z" fill="white"/>
<path d="M219.563 280.465L188.065 259.293C187.513 258.926 187.49 258.377 188.002 258.001C188.303 257.835 188.633 257.752 188.967 257.76C189.3 257.768 189.628 257.866 189.923 258.047L221.421 279.209C221.973 279.585 221.996 280.126 221.484 280.501C221.184 280.672 220.854 280.757 220.52 280.751C220.186 280.745 219.858 280.646 219.563 280.465Z" fill="#EBEBEB"/>
<path d="M197.23 282.938L181.686 272.503C181.134 272.137 181.111 271.587 181.623 271.211C181.92 271.035 182.249 270.943 182.583 270.943C182.917 270.943 183.246 271.035 183.544 271.211L199.089 281.655C199.64 282.022 199.663 282.571 199.152 282.947C198.854 283.124 198.524 283.215 198.19 283.214C197.856 283.212 197.527 283.118 197.23 282.938Z" fill="#E0E0E0"/>
<path d="M201.648 280.162L190.718 272.833C190.332 272.567 190.316 272.164 190.67 271.917C190.88 271.79 191.112 271.725 191.348 271.725C191.583 271.725 191.816 271.79 192.025 271.917L202.963 279.246C203.349 279.511 203.364 279.914 203.002 280.162C202.792 280.286 202.56 280.35 202.325 280.35C202.09 280.35 201.857 280.286 201.648 280.162Z" fill="#EBEBEB"/>
<path d="M225.152 276.68L193.653 255.518C193.102 255.142 193.079 254.602 193.59 254.226C193.888 254.05 194.217 253.958 194.551 253.958C194.885 253.958 195.214 254.05 195.512 254.226L227.01 275.398C227.561 275.764 227.585 276.314 227.073 276.689C226.774 276.861 226.445 276.95 226.112 276.949C225.778 276.947 225.45 276.855 225.152 276.68Z" fill="#EBEBEB"/>
<path d="M230.744 272.942L199.245 251.771C198.694 251.404 198.67 250.855 199.182 250.479C199.48 250.303 199.809 250.211 200.143 250.211C200.477 250.211 200.806 250.303 201.104 250.479L232.602 271.651C233.145 272.017 233.177 272.567 232.657 272.942C232.361 273.117 232.033 273.208 231.7 273.208C231.368 273.208 231.04 273.117 230.744 272.942Z" fill="#EBEBEB"/>
<path d="M236.335 269.197L219.696 257.983C219.145 257.617 219.122 257.067 219.633 256.691C219.935 256.525 220.265 256.443 220.599 256.451C220.932 256.459 221.26 256.557 221.555 256.737L238.178 267.942C238.721 268.317 238.753 268.858 238.241 269.233C237.943 269.399 237.615 269.483 237.285 269.476C236.954 269.47 236.629 269.374 236.335 269.197Z" fill="#EBEBEB"/>
<path d="M252.124 258.551L220.625 237.388C220.082 237.022 220.05 236.472 220.562 236.096C220.861 235.92 221.192 235.828 221.527 235.828C221.862 235.828 222.193 235.92 222.492 236.096L253.99 257.268C254.533 257.634 254.565 258.184 254.045 258.56C253.747 258.737 253.418 258.828 253.083 258.827C252.749 258.825 252.42 258.73 252.124 258.551Z" fill="#EBEBEB"/>
<path d="M257.722 254.813L226.224 233.641C225.68 233.275 225.649 232.725 226.169 232.35C226.466 232.171 226.795 232.078 227.129 232.078C227.464 232.078 227.793 232.171 228.09 232.35L259.588 253.512C260.132 253.879 260.163 254.428 259.651 254.804C259.353 254.983 259.023 255.077 258.688 255.079C258.352 255.08 258.021 254.989 257.722 254.813Z" fill="#EBEBEB"/>
<path d="M246.533 262.298L215.034 241.126C214.483 240.759 214.459 240.21 214.971 239.834C215.273 239.668 215.603 239.585 215.937 239.593C216.27 239.601 216.597 239.699 216.893 239.88L248.391 261.052C248.942 261.418 248.974 261.968 248.454 262.334C248.154 262.505 247.824 262.59 247.49 262.584C247.156 262.578 246.828 262.479 246.533 262.298Z" fill="#EBEBEB"/>
<path d="M263.313 251.066L231.815 229.894C231.263 229.528 231.24 228.978 231.752 228.612C232.049 228.436 232.378 228.344 232.712 228.344C233.046 228.344 233.375 228.436 233.673 228.612L265.171 249.783C265.723 250.15 265.746 250.7 265.234 251.075C264.935 251.247 264.606 251.336 264.273 251.334C263.939 251.333 263.611 251.241 263.313 251.066Z" fill="#EBEBEB"/>
<path d="M209.404 283.605C208.249 282.928 206.973 282.575 205.679 282.575C204.386 282.575 203.11 282.928 201.955 283.605C199.899 284.989 199.899 287.27 201.955 288.607C203.109 289.29 204.385 289.645 205.679 289.645C206.974 289.645 208.25 289.29 209.404 288.607C211.459 287.233 211.459 284.989 209.404 283.605Z" fill="#E0E0E0"/>
<path d="M159.952 166.206L130.423 186.04C129.228 186.958 128.382 188.375 128.06 189.998L120.721 239.295C120.637 240.06 120.739 240.838 121.018 241.538C121.297 242.238 121.74 242.832 122.296 243.252L141.337 256.078C141.948 256.434 142.622 256.619 143.305 256.619C143.989 256.619 144.663 256.434 145.274 256.078L185.97 228.741C186.568 228.371 187.068 227.819 187.417 227.143C187.766 226.468 187.95 225.695 187.95 224.907C187.95 224.119 187.766 223.346 187.417 222.671C187.068 221.995 186.568 221.443 185.97 221.073L171.323 211.243C170.736 210.795 170.235 210.209 169.854 209.523C169.473 208.836 169.22 208.065 169.111 207.258L165.85 170.054C165.755 169.27 165.52 168.519 165.159 167.848C164.798 167.177 164.32 166.602 163.756 166.16C163.163 165.821 162.51 165.649 161.849 165.657C161.189 165.664 160.539 165.853 159.952 166.206Z" fill="#263238"/>
<path d="M143.328 247.375V256.591C144.019 256.606 144.702 256.417 145.313 256.042L186.008 228.704C186.574 228.292 187.048 227.73 187.393 227.065C187.738 226.4 187.943 225.65 187.993 224.875C187.949 223.969 187.675 223.099 187.205 222.374H180.536L143.328 247.375Z" fill="#37474F"/>
<path d="M163.676 168.699L134.138 188.543C132.938 189.455 132.091 190.874 131.776 192.5L125.114 237.244C125.028 238.011 125.13 238.79 125.408 239.492C125.687 240.194 126.131 240.79 126.689 241.211L141.32 251.041C141.931 251.397 142.605 251.582 143.288 251.582C143.972 251.582 144.646 251.397 145.257 251.041L186.008 223.667C187.102 222.934 187.102 221.743 186.008 221.001L171.361 211.171C170.774 210.723 170.273 210.137 169.892 209.451C169.511 208.765 169.258 207.993 169.148 207.186L165.888 169.982C165.892 169.681 165.823 169.385 165.689 169.128C165.555 168.871 165.361 168.664 165.129 168.53C164.898 168.395 164.639 168.34 164.381 168.37C164.124 168.4 163.879 168.514 163.676 168.699Z" fill="#263238"/>
<path d="M186.009 221.037L171.363 211.207C170.775 210.777 170.28 210.197 169.914 209.512L125.383 239.423C125.655 240.16 126.114 240.783 126.698 241.21L141.321 251.04C141.932 251.395 142.606 251.58 143.29 251.58C143.973 251.58 144.647 251.395 145.258 251.04L186.009 223.666C187.104 222.97 187.104 221.779 186.009 221.037Z" fill="#455A64"/>
<path d="M66.1101 264.251L64.2123 262.977C63.4049 262.363 62.7332 261.536 62.2516 260.564C61.7701 259.591 61.4922 258.5 61.4404 257.38V109.883C61.4924 108.763 61.7713 107.673 62.2544 106.701C62.7374 105.73 63.411 104.906 64.2202 104.295L219.153 0.772549C220.014 0.26466 220.967 0 221.932 0C222.898 0 223.851 0.26466 224.712 0.772549L226.153 1.68868C226.962 2.30188 227.635 3.12828 228.118 4.10083C228.601 5.07338 228.88 6.16469 228.933 7.28621V154.874C228.881 155.996 228.602 157.088 228.119 158.06C227.636 159.033 226.963 159.859 226.153 160.472L71.6616 264.251C70.8009 264.756 69.8501 265.02 68.8859 265.02C67.9216 265.02 66.9708 264.756 66.1101 264.251Z" fill="#455A64"/>
<path d="M72.6064 113.602L62.2513 106.648C61.7597 107.616 61.4886 108.713 61.4639 109.837V257.379C61.5156 258.499 61.7935 259.59 62.2751 260.563C62.7566 261.535 63.4283 262.362 64.2357 262.976L66.1335 264.25C66.9942 264.755 67.945 265.019 68.9093 265.019C69.8736 265.019 70.8243 264.755 71.6851 264.25L72.63 263.608L72.6064 113.602Z" fill="#263238"/>
<path d="M68.874 262.382V114.885C68.926 113.764 69.2048 112.672 69.6879 111.699C70.1709 110.727 70.8444 109.901 71.6538 109.288L226.153 5.46322C227.689 4.43715 228.933 5.27083 228.933 7.29547V154.874C228.881 155.996 228.602 157.088 228.119 158.06C227.636 159.033 226.962 159.859 226.153 160.472L71.6616 264.251C70.1261 265.277 68.874 264.443 68.874 262.382Z" fill="#37474F"/>
<path d="M141.432 207.386L156.071 197.546C157.173 196.813 158.055 197.336 158.055 198.719C158.008 199.494 157.804 200.246 157.459 200.912C157.114 201.577 156.638 202.138 156.071 202.548L141.432 212.388C140.337 213.121 139.447 212.598 139.447 211.215C139.497 210.44 139.702 209.69 140.047 209.025C140.392 208.36 140.866 207.798 141.432 207.386Z" fill="#263238"/>
<path d="M76.0017 113.733L221.5 15.707C222.382 15.1206 223.075 15.597 223.075 16.7697V145.403C223.048 146.043 222.891 146.665 222.617 147.221C222.343 147.777 221.961 148.249 221.5 148.6L76.0017 246.333C75.1276 246.919 74.4268 246.443 74.4268 245.261V117.003C74.4471 116.352 74.6006 115.715 74.8745 115.146C75.1484 114.578 75.5348 114.093 76.0017 113.733Z" fill="white"/>
<path d="M85.5147 152.275L84.0264 151.295C83.4488 150.857 82.968 150.268 82.6232 149.574C82.2784 148.88 82.0792 148.101 82.042 147.3V122.611C82.0792 121.81 82.2784 121.031 82.6232 120.337C82.968 119.643 83.4488 119.054 84.0264 118.616L139.613 81.2751C140.224 80.9195 140.898 80.7344 141.582 80.7344C142.265 80.7344 142.939 80.9195 143.55 81.2751L145.031 82.2736C145.608 82.7113 146.088 83.301 146.433 83.995C146.778 84.689 146.977 85.4676 147.015 86.268V110.985C146.977 111.787 146.778 112.567 146.433 113.262C146.089 113.957 145.608 114.549 145.031 114.989L89.4441 152.321C88.8322 152.673 88.1575 152.853 87.4747 152.845C86.7919 152.837 86.1204 152.642 85.5147 152.275Z" fill="#BD69CB"/>
<path opacity="0.4" d="M85.5147 152.275L84.0264 151.295C83.4488 150.857 82.968 150.268 82.6232 149.574C82.2784 148.88 82.0792 148.101 82.042 147.3V122.611C82.0792 121.81 82.2784 121.031 82.6232 120.337C82.968 119.643 83.4488 119.054 84.0264 118.616L139.613 81.2751C140.224 80.9195 140.898 80.7344 141.582 80.7344C142.265 80.7344 142.939 80.9195 143.55 81.2751L145.031 82.2736C145.608 82.7113 146.088 83.301 146.433 83.995C146.778 84.689 146.977 85.4676 147.015 86.268V110.985C146.977 111.787 146.778 112.567 146.433 113.262C146.089 113.957 145.608 114.549 145.031 114.989L89.4441 152.321C88.8322 152.673 88.1575 152.853 87.4747 152.845C86.7919 152.837 86.1204 152.642 85.5147 152.275Z" fill="#BD69CB"/>
<path opacity="0.3" d="M85.5147 152.275L84.0264 151.295C83.4488 150.857 82.968 150.268 82.6232 149.574C82.2784 148.88 82.0792 148.101 82.042 147.3V122.611C82.0792 121.81 82.2784 121.031 82.6232 120.337C82.968 119.643 83.4488 119.054 84.0264 118.616L139.613 81.2751C140.224 80.9195 140.898 80.7344 141.582 80.7344C142.265 80.7344 142.939 80.9195 143.55 81.2751L145.031 82.2736C145.608 82.7113 146.088 83.301 146.433 83.995C146.778 84.689 146.977 85.4676 147.015 86.268V110.985C146.977 111.787 146.778 112.567 146.433 113.262C146.089 113.957 145.608 114.549 145.031 114.989L89.4441 152.321C88.8322 152.673 88.1575 152.853 87.4747 152.845C86.7919 152.837 86.1204 152.642 85.5147 152.275Z" fill="white"/>
<path d="M91.2159 126.109L82.6247 120.338C82.2696 121.026 82.0692 121.808 82.042 122.61V147.281C82.0792 148.082 82.2784 148.861 82.6232 149.555C82.968 150.249 83.4488 150.838 84.0264 151.275L85.5147 152.274C86.1245 152.635 86.7991 152.824 87.4833 152.824C88.1676 152.824 88.8422 152.635 89.452 152.274L91.1923 151.111L91.2159 126.109Z" fill="#BD69CB"/>
<path opacity="0.2" d="M91.2159 126.109L82.6247 120.338C82.2696 121.026 82.0692 121.808 82.042 122.61V147.281C82.0792 148.082 82.2784 148.861 82.6232 149.555C82.968 150.249 83.4488 150.838 84.0264 151.275L85.5147 152.274C86.1245 152.635 86.7991 152.824 87.4833 152.824C88.1676 152.824 88.8422 152.635 89.452 152.274L91.1923 151.111L91.2159 126.109Z" fill="black"/>
<path d="M87.4912 126.274V150.945C87.4912 152.411 88.381 153.016 89.4756 152.274L145.062 114.942C145.64 114.502 146.12 113.91 146.465 113.215C146.809 112.52 147.009 111.74 147.047 110.938V86.2485C147.047 84.7827 146.157 84.1872 145.062 84.9201L89.4756 122.252C88.8962 122.694 88.4145 123.288 88.0697 123.987C87.7249 124.686 87.5267 125.469 87.4912 126.274Z" fill="#BD69CB"/>
<path d="M111.241 112.66L130.463 99.7427C131.25 99.2205 131.872 99.4587 131.872 100.274C131.815 100.778 131.658 101.26 131.413 101.681C131.169 102.103 130.843 102.452 130.463 102.702L111.241 115.619C110.453 116.141 109.823 115.903 109.823 115.088C109.881 114.583 110.039 114.101 110.286 113.679C110.532 113.258 110.859 112.909 111.241 112.66Z" fill="white"/>
<path d="M111.019 120.312L142.108 99.4057C142.77 98.966 143.305 99.1675 143.305 99.8546C143.258 100.282 143.125 100.69 142.917 101.047C142.709 101.403 142.432 101.698 142.108 101.907L110.996 122.813C110.334 123.252 109.799 123.051 109.799 122.364C109.849 121.934 109.985 121.524 110.197 121.167C110.41 120.811 110.691 120.517 111.019 120.312Z" fill="white"/>
<path d="M111.019 125.313L142.108 104.407C142.77 103.967 143.305 104.168 143.305 104.856C143.258 105.283 143.125 105.691 142.917 106.048C142.709 106.404 142.432 106.699 142.108 106.908L110.996 127.805C110.334 128.253 109.799 128.052 109.799 127.356C109.85 126.927 109.987 126.519 110.199 126.164C110.411 125.809 110.692 125.518 111.019 125.313Z" fill="white"/>
<path d="M111.019 130.305L142.108 109.409C142.77 108.969 143.305 109.17 143.305 109.858C143.257 110.283 143.123 110.69 142.915 111.044C142.707 111.399 142.431 111.692 142.108 111.901L110.996 132.797C110.334 133.237 109.799 133.036 109.799 132.348C109.85 131.92 109.987 131.512 110.199 131.157C110.411 130.802 110.692 130.51 111.019 130.305Z" fill="white"/>
<path d="M92.8054 125.037L104.515 117.177C105.397 116.581 106.09 117.057 106.09 118.239V133.978C106.062 134.618 105.905 135.241 105.631 135.796C105.358 136.352 104.975 136.824 104.515 137.176L92.8054 145.045C91.9234 145.631 91.2305 145.155 91.2305 143.973V128.243C91.2582 127.603 91.4152 126.978 91.6888 126.421C91.9624 125.864 92.3449 125.39 92.8054 125.037Z" fill="#BD69CB"/>
<path opacity="0.3" d="M92.8054 125.037L104.515 117.177C105.397 116.581 106.09 117.057 106.09 118.239V133.978C106.062 134.618 105.905 135.241 105.631 135.796C105.358 136.352 104.975 136.824 104.515 137.176L92.8054 145.045C91.9234 145.631 91.2305 145.155 91.2305 143.973V128.243C91.2582 127.603 91.4152 126.978 91.6888 126.421C91.9624 125.864 92.3449 125.39 92.8054 125.037Z" fill="white"/>
<path d="M93.8067 131.936C93.5589 131.937 93.315 131.864 93.098 131.725C92.8385 131.529 92.6288 131.256 92.4904 130.933C92.352 130.611 92.2899 130.252 92.3105 129.893C92.3451 129.047 92.5534 128.223 92.9178 127.49C93.2822 126.757 93.7922 126.136 94.4052 125.679C94.6529 125.447 94.9553 125.307 95.2725 125.279C95.5897 125.25 95.9068 125.335 96.1822 125.52C96.4575 125.705 96.6781 125.984 96.8149 126.318C96.9517 126.652 96.9983 127.026 96.9487 127.392C96.9156 128.237 96.7088 129.061 96.3457 129.794C95.9827 130.527 95.4738 131.149 94.8619 131.606C94.5411 131.822 94.1772 131.936 93.8067 131.936ZM94.8619 126.558C94.3914 126.924 93.9996 127.411 93.7169 127.981C93.4342 128.552 93.2683 129.19 93.2318 129.847C93.1834 130.023 93.1881 130.212 93.2451 130.384C93.3021 130.556 93.408 130.7 93.5452 130.792C93.6824 130.884 93.8425 130.919 93.999 130.89C94.1555 130.862 94.2988 130.772 94.4052 130.635C94.8765 130.27 95.2689 129.783 95.5517 129.213C95.8345 128.642 96 128.003 96.0352 127.346C96.0837 127.171 96.079 126.981 96.022 126.809C95.965 126.637 95.859 126.493 95.7219 126.401C95.5847 126.309 95.4245 126.274 95.268 126.303C95.1116 126.332 94.9682 126.422 94.8619 126.558Z" fill="white"/>
<path d="M106.106 128.391L103.869 125.643C103.759 125.513 103.624 125.417 103.474 125.361C103.325 125.305 103.167 125.292 103.012 125.323C102.858 125.353 102.712 125.427 102.587 125.536C102.462 125.646 102.362 125.79 102.294 125.954L99.0816 134.199L97.5066 132.55C97.4003 132.441 97.275 132.359 97.1392 132.31C97.0035 132.261 96.8603 132.246 96.7192 132.266C96.5787 132.289 96.4441 132.346 96.3245 132.435C96.2049 132.523 96.1032 132.641 96.0262 132.779L91.2148 141.473V143.452L96.8846 133.375L102.058 138.826L102.885 138.267L99.7745 134.987L103.105 126.421H103.208L106.106 130.003V128.391Z" fill="white"/>
<path d="M85.5147 193.5L84.0264 192.52C83.4488 192.083 82.968 191.493 82.6232 190.799C82.2784 190.105 82.0792 189.326 82.042 188.526V163.836C82.0792 163.036 82.2784 162.257 82.6232 161.563C82.968 160.869 83.4488 160.279 84.0264 159.842L139.613 122.501C140.224 122.145 140.898 121.96 141.582 121.96C142.265 121.96 142.939 122.145 143.55 122.501L145.031 123.499C145.608 123.937 146.088 124.527 146.433 125.221C146.778 125.915 146.977 126.693 147.015 127.494V152.211C146.977 153.012 146.778 153.792 146.433 154.488C146.089 155.183 145.608 155.774 145.031 156.214L89.4441 193.546C88.8322 193.899 88.1575 194.079 87.4747 194.071C86.7919 194.063 86.1204 193.867 85.5147 193.5Z" fill="#BD69CB"/>
<path opacity="0.4" d="M85.5147 193.5L84.0264 192.52C83.4488 192.083 82.968 191.493 82.6232 190.799C82.2784 190.105 82.0792 189.326 82.042 188.526V163.836C82.0792 163.036 82.2784 162.257 82.6232 161.563C82.968 160.869 83.4488 160.279 84.0264 159.842L139.613 122.501C140.224 122.145 140.898 121.96 141.582 121.96C142.265 121.96 142.939 122.145 143.55 122.501L145.031 123.499C145.608 123.937 146.088 124.527 146.433 125.221C146.778 125.915 146.977 126.693 147.015 127.494V152.211C146.977 153.012 146.778 153.792 146.433 154.488C146.089 155.183 145.608 155.774 145.031 156.214L89.4441 193.546C88.8322 193.899 88.1575 194.079 87.4747 194.071C86.7919 194.063 86.1204 193.867 85.5147 193.5Z" fill="#BD69CB"/>
<path opacity="0.3" d="M85.5147 193.5L84.0264 192.52C83.4488 192.083 82.968 191.493 82.6232 190.799C82.2784 190.105 82.0792 189.326 82.042 188.526V163.836C82.0792 163.036 82.2784 162.257 82.6232 161.563C82.968 160.869 83.4488 160.279 84.0264 159.842L139.613 122.501C140.224 122.145 140.898 121.96 141.582 121.96C142.265 121.96 142.939 122.145 143.55 122.501L145.031 123.499C145.608 123.937 146.088 124.527 146.433 125.221C146.778 125.915 146.977 126.693 147.015 127.494V152.211C146.977 153.012 146.778 153.792 146.433 154.488C146.089 155.183 145.608 155.774 145.031 156.214L89.4441 193.546C88.8322 193.899 88.1575 194.079 87.4747 194.071C86.7919 194.063 86.1204 193.867 85.5147 193.5Z" fill="white"/>
<path d="M91.2159 167.335L82.6247 161.563C82.2696 162.252 82.0692 163.033 82.042 163.835V188.507C82.0792 189.307 82.2784 190.086 82.6232 190.78C82.968 191.474 83.4488 192.064 84.0264 192.501L85.5147 193.5C86.1245 193.861 86.7991 194.049 87.4833 194.049C88.1676 194.049 88.8422 193.861 89.452 193.5L91.1923 192.336L91.2159 167.335Z" fill="#BD69CB"/>
<path opacity="0.2" d="M91.2159 167.335L82.6247 161.563C82.2696 162.252 82.0692 163.033 82.042 163.835V188.507C82.0792 189.307 82.2784 190.086 82.6232 190.78C82.968 191.474 83.4488 192.064 84.0264 192.501L85.5147 193.5C86.1245 193.861 86.7991 194.049 87.4833 194.049C88.1676 194.049 88.8422 193.861 89.452 193.5L91.1923 192.336L91.2159 167.335Z" fill="black"/>
<path d="M87.4912 167.499V192.17C87.4912 193.636 88.381 194.24 89.4756 193.498L145.062 156.166C145.64 155.727 146.12 155.135 146.465 154.44C146.809 153.744 147.009 152.964 147.047 152.163V127.473C147.047 126.007 146.157 125.412 145.062 126.145L89.4756 163.477C88.8962 163.918 88.4145 164.513 88.0697 165.211C87.7249 165.91 87.5267 166.694 87.4912 167.499Z" fill="#BD69CB"/>
<path d="M111.241 153.887L130.463 140.969C131.25 140.447 131.872 140.685 131.872 141.501C131.815 142.005 131.658 142.486 131.413 142.908C131.169 143.329 130.843 143.679 130.463 143.928L111.241 156.846C110.453 157.368 109.823 157.13 109.823 156.314C109.881 155.809 110.039 155.327 110.286 154.906C110.532 154.484 110.859 154.135 111.241 153.887Z" fill="white"/>
<path d="M111.019 161.536L142.108 140.63C142.77 140.191 143.305 140.392 143.305 141.079C143.258 141.506 143.125 141.915 142.917 142.271C142.709 142.628 142.432 142.922 142.108 143.131L110.996 164.037C110.334 164.477 109.799 164.276 109.799 163.588C109.849 163.159 109.985 162.749 110.197 162.392C110.41 162.035 110.691 161.742 111.019 161.536Z" fill="white"/>
<path d="M111.019 166.538L142.108 145.632C142.77 145.193 143.305 145.394 143.305 146.081C143.258 146.508 143.125 146.917 142.917 147.273C142.709 147.63 142.432 147.924 142.108 148.133L110.996 169.03C110.334 169.479 109.799 169.277 109.799 168.581C109.85 168.153 109.987 167.745 110.199 167.39C110.411 167.035 110.692 166.743 111.019 166.538Z" fill="white"/>
<path d="M111.019 171.532L142.108 150.635C142.77 150.195 143.305 150.397 143.305 151.084C143.257 151.51 143.123 151.916 142.915 152.271C142.707 152.626 142.431 152.919 142.108 153.127L110.996 174.024C110.334 174.464 109.799 174.262 109.799 173.575C109.85 173.147 109.987 172.739 110.199 172.384C110.411 172.029 110.692 171.737 111.019 171.532Z" fill="white"/>
<path d="M92.8054 166.261L104.515 158.401C105.397 157.806 106.09 158.282 106.09 159.464V175.203C106.062 175.842 105.905 176.465 105.631 177.021C105.358 177.577 104.975 178.049 104.515 178.4L92.8054 186.27C91.9234 186.856 91.2305 186.38 91.2305 185.198V169.468C91.2582 168.827 91.4152 168.203 91.6888 167.646C91.9624 167.089 92.3449 166.615 92.8054 166.261Z" fill="#BD69CB"/>
<path opacity="0.3" d="M92.8054 166.261L104.515 158.401C105.397 157.806 106.09 158.282 106.09 159.464V175.203C106.062 175.842 105.905 176.465 105.631 177.021C105.358 177.577 104.975 178.049 104.515 178.4L92.8054 186.27C91.9234 186.856 91.2305 186.38 91.2305 185.198V169.468C91.2582 168.827 91.4152 168.203 91.6888 167.646C91.9624 167.089 92.3449 166.615 92.8054 166.261Z" fill="white"/>
<path d="M93.8067 173.162C93.5589 173.163 93.315 173.091 93.098 172.952C92.8385 172.755 92.6288 172.482 92.4904 172.16C92.352 171.838 92.2899 171.479 92.3105 171.119C92.3451 170.274 92.5534 169.449 92.9178 168.716C93.2822 167.983 93.7922 167.362 94.4052 166.905C94.6529 166.673 94.9553 166.534 95.2725 166.505C95.5897 166.477 95.9068 166.561 96.1822 166.747C96.4575 166.932 96.6781 167.21 96.8149 167.544C96.9517 167.878 96.9983 168.253 96.9487 168.618C96.9156 169.464 96.7088 170.288 96.3457 171.021C95.9827 171.754 95.4738 172.375 94.8619 172.833C94.5411 173.048 94.1772 173.162 93.8067 173.162ZM94.8619 167.785C94.3914 168.151 93.9996 168.638 93.7169 169.208C93.4342 169.778 93.2683 170.417 93.2318 171.074C93.1834 171.249 93.1881 171.439 93.2451 171.61C93.3021 171.782 93.408 171.926 93.5452 172.019C93.6824 172.111 93.8425 172.145 93.999 172.117C94.1555 172.088 94.2988 171.998 94.4052 171.862C94.8765 171.497 95.2689 171.01 95.5517 170.439C95.8345 169.869 96 169.23 96.0352 168.573C96.0837 168.397 96.079 168.208 96.022 168.036C95.965 167.864 95.859 167.72 95.7219 167.628C95.5847 167.536 95.4245 167.501 95.268 167.53C95.1116 167.558 94.9682 167.648 94.8619 167.785Z" fill="white"/>
<path d="M106.106 169.617L103.869 166.868C103.759 166.739 103.624 166.642 103.474 166.587C103.325 166.531 103.167 166.518 103.012 166.548C102.858 166.579 102.712 166.652 102.587 166.762C102.462 166.872 102.362 167.015 102.294 167.18L99.0816 175.425L97.5066 173.776C97.4003 173.666 97.275 173.584 97.1392 173.535C97.0035 173.486 96.8603 173.471 96.7192 173.492C96.5787 173.514 96.4441 173.572 96.3245 173.66C96.2049 173.749 96.1032 173.866 96.0262 174.005L91.2148 182.699V184.687L96.8846 174.564L102.058 180.015L102.885 179.456L99.7745 176.176L103.105 167.61H103.208L106.106 171.192V169.617Z" fill="white"/>
<path d="M85.5147 233.809L84.0264 232.829C83.4488 232.392 82.968 231.802 82.6232 231.108C82.2784 230.414 82.0792 229.635 82.042 228.835V204.145C82.0792 203.344 82.2784 202.565 82.6232 201.871C82.968 201.177 83.4488 200.588 84.0264 200.151L139.613 162.809C140.224 162.454 140.898 162.269 141.582 162.269C142.265 162.269 142.939 162.454 143.55 162.809L145.031 163.808C145.608 164.246 146.088 164.835 146.433 165.529C146.778 166.223 146.977 167.002 147.015 167.802V192.519C146.977 193.321 146.778 194.101 146.433 194.796C146.089 195.492 145.608 196.083 145.031 196.523L89.4441 233.855C88.8322 234.207 88.1575 234.387 87.4747 234.379C86.7919 234.371 86.1204 234.176 85.5147 233.809Z" fill="#BD69CB"/>
<path opacity="0.4" d="M85.5147 233.809L84.0264 232.829C83.4488 232.392 82.968 231.802 82.6232 231.108C82.2784 230.414 82.0792 229.635 82.042 228.835V204.145C82.0792 203.344 82.2784 202.565 82.6232 201.871C82.968 201.177 83.4488 200.588 84.0264 200.151L139.613 162.809C140.224 162.454 140.898 162.269 141.582 162.269C142.265 162.269 142.939 162.454 143.55 162.809L145.031 163.808C145.608 164.246 146.088 164.835 146.433 165.529C146.778 166.223 146.977 167.002 147.015 167.802V192.519C146.977 193.321 146.778 194.101 146.433 194.796C146.089 195.492 145.608 196.083 145.031 196.523L89.4441 233.855C88.8322 234.207 88.1575 234.387 87.4747 234.379C86.7919 234.371 86.1204 234.176 85.5147 233.809Z" fill="#BD69CB"/>
<path opacity="0.3" d="M85.5147 233.809L84.0264 232.829C83.4488 232.392 82.968 231.802 82.6232 231.108C82.2784 230.414 82.0792 229.635 82.042 228.835V204.145C82.0792 203.344 82.2784 202.565 82.6232 201.871C82.968 201.177 83.4488 200.588 84.0264 200.151L139.613 162.809C140.224 162.454 140.898 162.269 141.582 162.269C142.265 162.269 142.939 162.454 143.55 162.809L145.031 163.808C145.608 164.246 146.088 164.835 146.433 165.529C146.778 166.223 146.977 167.002 147.015 167.802V192.519C146.977 193.321 146.778 194.101 146.433 194.796C146.089 195.492 145.608 196.083 145.031 196.523L89.4441 233.855C88.8322 234.207 88.1575 234.387 87.4747 234.379C86.7919 234.371 86.1204 234.176 85.5147 233.809Z" fill="white"/>
<path d="M91.2159 207.645L82.6247 201.873C82.2696 202.561 82.0692 203.343 82.042 204.145V228.816C82.0792 229.617 82.2784 230.396 82.6232 231.09C82.968 231.784 83.4488 232.374 84.0264 232.811L85.5147 233.809C86.1245 234.17 86.7991 234.359 87.4833 234.359C88.1676 234.359 88.8422 234.17 89.452 233.809L91.1923 232.646L91.2159 207.645Z" fill="#BD69CB"/>
<path opacity="0.2" d="M91.2159 207.645L82.6247 201.873C82.2696 202.561 82.0692 203.343 82.042 204.145V228.816C82.0792 229.617 82.2784 230.396 82.6232 231.09C82.968 231.784 83.4488 232.374 84.0264 232.811L85.5147 233.809C86.1245 234.17 86.7991 234.359 87.4833 234.359C88.1676 234.359 88.8422 234.17 89.452 233.809L91.1923 232.646L91.2159 207.645Z" fill="black"/>
<path d="M87.4912 207.81V232.481C87.4912 233.947 88.381 234.552 89.4756 233.81L145.062 196.478C145.64 196.038 146.12 195.447 146.465 194.751C146.809 194.056 147.009 193.276 147.047 192.474V167.785C147.047 166.319 146.157 165.723 145.062 166.456L89.4756 203.788C88.8962 204.23 88.4145 204.824 88.0697 205.523C87.7249 206.222 87.5267 207.005 87.4912 207.81Z" fill="#BD69CB"/>
<path d="M111.241 194.196L130.463 181.279C131.25 180.757 131.872 180.995 131.872 181.81C131.815 182.314 131.658 182.796 131.413 183.217C131.169 183.639 130.843 183.988 130.463 184.238L111.241 197.155C110.453 197.677 109.823 197.439 109.823 196.624C109.881 196.119 110.039 195.637 110.286 195.215C110.532 194.794 110.859 194.445 111.241 194.196Z" fill="white"/>
<path d="M111.019 201.846L142.108 180.94C142.77 180.5 143.305 180.702 143.305 181.389C143.258 181.816 143.125 182.224 142.917 182.581C142.709 182.937 142.432 183.232 142.108 183.441L110.996 204.347C110.334 204.787 109.799 204.585 109.799 203.898C109.849 203.468 109.985 203.058 110.197 202.701C110.41 202.345 110.691 202.052 111.019 201.846Z" fill="white"/>
<path d="M111.019 206.847L142.108 185.941C142.77 185.501 143.305 185.703 143.305 186.39C143.258 186.817 143.125 187.225 142.917 187.582C142.709 187.938 142.432 188.233 142.108 188.442L110.996 209.339C110.334 209.788 109.799 209.586 109.799 208.89C109.85 208.462 109.987 208.053 110.199 207.698C110.411 207.344 110.692 207.052 111.019 206.847Z" fill="white"/>
<path d="M111.019 211.84L142.108 190.943C142.77 190.503 143.305 190.705 143.305 191.392C143.257 191.817 143.123 192.224 142.915 192.579C142.707 192.933 142.431 193.227 142.108 193.435L110.996 214.332C110.334 214.771 109.799 214.57 109.799 213.883C109.85 213.454 109.987 213.046 110.199 212.691C110.411 212.336 110.692 212.045 111.019 211.84Z" fill="white"/>
<path d="M92.8054 206.573L104.515 198.713C105.397 198.117 106.09 198.594 106.09 199.775V215.514C106.062 216.154 105.905 216.777 105.631 217.332C105.358 217.888 104.975 218.361 104.515 218.712L92.8054 226.581C91.9234 227.168 91.2305 226.691 91.2305 225.509V209.779C91.2582 209.139 91.4152 208.514 91.6888 207.957C91.9624 207.4 92.3449 206.926 92.8054 206.573Z" fill="#BD69CB"/>
<path opacity="0.3" d="M92.8054 206.573L104.515 198.713C105.397 198.117 106.09 198.594 106.09 199.775V215.514C106.062 216.154 105.905 216.777 105.631 217.332C105.358 217.888 104.975 218.361 104.515 218.712L92.8054 226.581C91.9234 227.168 91.2305 226.691 91.2305 225.509V209.779C91.2582 209.139 91.4152 208.514 91.6888 207.957C91.9624 207.4 92.3449 206.926 92.8054 206.573Z" fill="white"/>
<path d="M93.8067 213.471C93.5589 213.472 93.315 213.4 93.098 213.26C92.8385 213.064 92.6288 212.791 92.4904 212.469C92.352 212.147 92.2899 211.787 92.3105 211.428C92.3451 210.582 92.5534 209.758 92.9178 209.025C93.2822 208.292 93.7922 207.671 94.4052 207.214C94.6529 206.982 94.9553 206.842 95.2725 206.814C95.5897 206.786 95.9068 206.87 96.1822 207.055C96.4575 207.241 96.6781 207.519 96.8149 207.853C96.9517 208.187 96.9983 208.561 96.9487 208.927C96.9156 209.772 96.7088 210.596 96.3457 211.329C95.9827 212.063 95.4738 212.684 94.8619 213.141C94.5411 213.357 94.1772 213.471 93.8067 213.471ZM94.8619 208.093C94.3914 208.459 93.9996 208.946 93.7169 209.517C93.4342 210.087 93.2683 210.725 93.2318 211.382C93.1834 211.558 93.1881 211.747 93.2451 211.919C93.3021 212.091 93.408 212.235 93.5452 212.327C93.6824 212.419 93.8425 212.454 93.999 212.425C94.1555 212.397 94.2988 212.307 94.4052 212.17C94.8765 211.805 95.2689 211.319 95.5517 210.748C95.8345 210.178 96 209.539 96.0352 208.881C96.0837 208.706 96.079 208.516 96.022 208.344C95.965 208.173 95.859 208.029 95.7219 207.936C95.5847 207.844 95.4245 207.81 95.268 207.838C95.1116 207.867 94.9682 207.957 94.8619 208.093Z" fill="white"/>
<path d="M106.106 209.926L103.869 207.178C103.759 207.048 103.624 206.952 103.474 206.896C103.325 206.84 103.167 206.827 103.012 206.858C102.858 206.888 102.712 206.962 102.587 207.072C102.462 207.182 102.362 207.325 102.294 207.489L99.0816 215.734L97.5066 214.085C97.4003 213.976 97.275 213.894 97.1392 213.845C97.0035 213.796 96.8603 213.781 96.7192 213.801C96.5787 213.824 96.4441 213.881 96.3245 213.97C96.2049 214.058 96.1032 214.176 96.0262 214.315L91.2148 223.009V224.997L96.8846 214.873L102.058 220.324L102.885 219.765L99.7745 216.486L103.105 207.92H103.208L106.106 211.502V209.926Z" fill="white"/>
<path d="M156.228 184.769L154.748 183.77C154.17 183.333 153.69 182.744 153.345 182.05C153 181.355 152.801 180.576 152.764 179.776V75.1085C152.802 74.3082 153.001 73.5295 153.346 72.8356C153.69 72.1416 154.171 71.5519 154.748 71.1142L240.109 13.7738C240.719 13.414 241.393 13.2266 242.077 13.2266C242.761 13.2266 243.436 13.414 244.046 13.7738L245.558 14.7907C246.135 15.2304 246.616 15.8218 246.96 16.5172C247.305 17.2127 247.504 17.9926 247.542 18.7942V123.434C247.504 124.235 247.305 125.013 246.96 125.707C246.615 126.401 246.135 126.991 245.558 127.429L160.221 184.769C159.604 185.139 158.919 185.333 158.225 185.333C157.53 185.333 156.846 185.139 156.228 184.769Z" fill="#BD69CB"/>
<path d="M161.938 78.6075L153.346 72.8359C152.988 73.5225 152.787 74.305 152.764 75.1079V179.775C152.801 180.576 153 181.355 153.345 182.049C153.69 182.743 154.17 183.333 154.748 183.77L156.228 184.768C156.839 185.128 157.513 185.316 158.197 185.316C158.881 185.316 159.556 185.128 160.166 184.768L161.906 183.605L161.938 78.6075Z" fill="#E6E6E6"/>
<path d="M161.938 78.6075L153.346 72.8359C152.988 73.5225 152.787 74.305 152.764 75.1079V79.9451L158.213 83.6096L161.938 78.6075Z" fill="#BD69CB"/>
<g opacity="0.2">
<path d="M161.938 78.6085L153.346 72.8369C152.988 73.5235 152.787 74.3059 152.764 75.1089V79.9461L158.213 83.6106L161.938 78.6085Z" fill="black"/>
</g>
<path d="M158.212 78.7725V183.44C158.212 184.906 159.102 185.51 160.196 184.768L245.557 127.474C246.134 127.036 246.614 126.446 246.959 125.752C247.304 125.058 247.503 124.28 247.541 123.479V18.7662C247.541 17.2912 246.651 16.6958 245.557 17.4287L160.22 74.7782C159.638 75.2123 159.153 75.8005 158.804 76.4948C158.455 77.189 158.252 77.9696 158.212 78.7725Z" fill="#F5F5F5"/>
<path d="M167.521 82.7222C170.6 80.6517 173.104 82.3283 173.104 86.4691C172.999 88.7229 172.439 90.9162 171.468 92.8709C170.498 94.8256 169.146 96.4866 167.521 97.7192C164.434 99.7988 161.938 98.1131 161.938 93.9722C162.042 91.7182 162.602 89.5247 163.572 87.5699C164.542 85.6151 165.895 83.9542 167.521 82.7222Z" fill="#BD69CB"/>
<path d="M178.812 77.4912L197.175 65.1785C198.27 64.4456 199.159 64.9678 199.159 66.342C199.11 67.1179 198.905 67.8696 198.56 68.5364C198.216 69.2031 197.741 69.7663 197.175 70.1805L178.812 82.4933C177.709 83.2262 176.827 82.704 176.827 81.3298C176.875 80.5535 177.08 79.8012 177.425 79.1342C177.769 78.4672 178.245 77.9043 178.812 77.4912Z" fill="#BD69CB"/>
<path d="M177.819 86.3674L190.718 77.7008C191.269 77.3344 191.71 77.5909 191.71 78.2872C191.686 78.6747 191.584 79.0502 191.411 79.3829C191.239 79.7157 191.001 79.9963 190.718 80.2019L177.819 88.8684C177.268 89.2349 176.827 88.9784 176.827 88.2821C176.851 87.8946 176.953 87.5191 177.126 87.1863C177.298 86.8536 177.536 86.573 177.819 86.3674Z" fill="#BD69CB"/>
<path d="M163.922 105.14L241.841 52.8017C242.936 52.0688 243.825 52.6643 243.825 54.1392V118.809C243.788 119.609 243.589 120.388 243.244 121.082C242.899 121.776 242.419 122.366 241.841 122.803L163.883 175.169C162.788 175.902 161.938 175.306 161.938 173.84V109.153C161.973 108.349 162.171 107.567 162.516 106.869C162.861 106.172 163.343 105.58 163.922 105.14Z" fill="#BD69CB"/>
<path d="M182.569 147.877C182.307 147.88 182.048 147.801 181.821 147.647C181.551 147.432 181.336 147.137 181.198 146.792C181.059 146.447 181.003 146.066 181.034 145.687V110.984C181.071 110.089 181.291 109.218 181.676 108.442C182.061 107.666 182.599 107.008 183.246 106.523L222.068 80.4496C222.336 80.2292 222.651 80.0983 222.979 80.0709C223.306 80.0434 223.634 80.1205 223.926 80.2938C224.195 80.5079 224.41 80.8017 224.549 81.1448C224.687 81.4879 224.744 81.8678 224.714 82.2452V116.921C224.678 117.815 224.459 118.686 224.074 119.461C223.689 120.235 223.149 120.891 222.501 121.373L183.679 147.446C183.35 147.704 182.966 147.852 182.569 147.877ZM223.155 81.1642C222.922 81.1782 222.696 81.2635 222.501 81.4115L183.679 107.484C183.173 107.877 182.752 108.4 182.448 109.014C182.145 109.627 181.968 110.314 181.931 111.021V145.687C181.887 145.879 181.897 146.082 181.96 146.266C182.023 146.45 182.136 146.606 182.281 146.709C182.427 146.813 182.597 146.858 182.767 146.839C182.937 146.82 183.097 146.737 183.223 146.603L222.044 120.521C222.551 120.131 222.974 119.609 223.278 118.997C223.583 118.385 223.762 117.7 223.8 116.994V82.2818C223.82 82.0886 223.798 81.8929 223.736 81.7121C223.674 81.5314 223.574 81.3714 223.446 81.2466C223.357 81.1904 223.256 81.162 223.155 81.1642Z" fill="white"/>
<path d="M187.908 118.762C187.488 118.766 187.075 118.64 186.711 118.396C186.26 118.04 185.899 117.549 185.666 116.975C185.434 116.402 185.338 115.766 185.388 115.134C185.45 113.538 185.84 111.982 186.525 110.597C187.21 109.212 188.17 108.038 189.325 107.173C189.752 106.763 190.277 106.514 190.829 106.46C191.381 106.406 191.933 106.55 192.413 106.872C192.893 107.194 193.277 107.679 193.513 108.261C193.749 108.844 193.827 109.497 193.735 110.132C193.668 111.727 193.276 113.281 192.591 114.665C191.907 116.049 190.949 117.224 189.798 118.094C189.228 118.503 188.577 118.734 187.908 118.762ZM189.798 108.089C188.781 108.862 187.934 109.903 187.327 111.126C186.72 112.35 186.368 113.723 186.302 115.134C186.209 115.581 186.243 116.051 186.399 116.473C186.555 116.895 186.824 117.247 187.167 117.476C187.509 117.705 187.906 117.799 188.298 117.743C188.69 117.688 189.056 117.486 189.341 117.168C190.356 116.395 191.2 115.356 191.806 114.134C192.412 112.912 192.762 111.541 192.83 110.132C192.922 109.687 192.888 109.218 192.733 108.797C192.578 108.375 192.31 108.023 191.969 107.794C191.629 107.564 191.233 107.469 190.841 107.522C190.45 107.575 190.084 107.774 189.798 108.089Z" fill="white"/>
<path d="M181.853 142.333L181.065 141.747L194.555 118.056C194.749 117.719 195.049 117.484 195.391 117.401C195.732 117.319 196.088 117.396 196.382 117.616L210.556 128.527L210.044 129.443L195.87 118.541C195.826 118.507 195.776 118.483 195.725 118.471C195.673 118.458 195.619 118.458 195.567 118.47C195.515 118.482 195.466 118.506 195.422 118.54C195.378 118.574 195.34 118.618 195.311 118.67L181.853 142.333Z" fill="white"/>
<path d="M202.933 123.223L202.146 122.729L212.713 99.6698C212.815 99.4486 212.961 99.2595 213.139 99.119C213.318 98.9785 213.523 98.8909 213.737 98.8636C213.952 98.8415 214.168 98.8789 214.368 98.9729C214.568 99.0668 214.745 99.2146 214.887 99.4041L224.62 112.99L223.919 113.668L214.162 100.091C214.121 100.032 214.068 99.9863 214.008 99.9571C213.948 99.9278 213.883 99.9163 213.818 99.9236C213.754 99.9309 213.692 99.9567 213.637 99.9987C213.583 100.041 213.539 100.098 213.509 100.165L202.933 123.223Z" fill="white"/>
<path d="M247.542 18.7662C247.542 17.2912 246.652 16.6958 245.558 17.4287L160.221 74.7782C159.643 75.2153 159.162 75.8049 158.818 76.499C158.473 77.1931 158.274 77.972 158.236 78.7725V83.6005L247.542 23.6034V18.7662Z" fill="#BD69CB"/>
<path opacity="0.1" d="M247.542 18.7662C247.542 17.2912 246.652 16.6958 245.558 17.4287L160.221 74.7782C159.643 75.2153 159.162 75.8049 158.818 76.499C158.473 77.1931 158.274 77.972 158.236 78.7725V83.6005L247.542 23.6034V18.7662Z" fill="black"/>
<path d="M273.983 131.495C271.675 134.702 267.47 140.821 265.321 143.973C264.176 145.621 263.558 147.68 263.572 149.799C263.572 151.375 263.958 152.685 265.273 152.016C266.401 151.371 267.405 150.467 268.226 149.36C269.478 147.921 273.912 141.719 273.912 141.719C273.912 141.719 277.314 131.312 279.188 130.652C280.203 130.264 281.271 130.099 282.338 130.167C280.086 129.306 276.904 127.473 273.983 131.495Z" fill="#F28F8F"/>
<path d="M283.463 128.078C281.148 126.053 277.242 126.584 275.076 129.626C273.501 131.852 269.722 137.294 269.722 137.294C270.182 138.487 270.853 139.554 271.689 140.426C272.526 141.299 273.511 141.958 274.58 142.36L283.463 128.078Z" fill="#BD69CB"/>
<path opacity="0.1" d="M283.463 128.078C281.148 126.053 277.242 126.584 275.076 129.626C273.501 131.852 269.722 137.294 269.722 137.294C270.182 138.487 270.853 139.554 271.689 140.426C272.526 141.299 273.511 141.958 274.58 142.36L283.463 128.078Z" fill="black"/>
<path d="M247.925 210.987L234.153 229.309C234.065 229.426 233.948 229.509 233.819 229.545C233.689 229.581 233.553 229.568 233.43 229.51C233.307 229.451 233.202 229.349 233.131 229.218C233.06 229.087 233.026 228.933 233.034 228.778L234.412 204.363L247.925 210.987Z" fill="#455A64"/>
<path d="M233.034 228.751C233.026 228.906 233.06 229.059 233.131 229.191C233.202 229.322 233.307 229.424 233.43 229.483C233.553 229.541 233.689 229.553 233.819 229.517C233.948 229.481 234.065 229.399 234.153 229.282L236.838 225.718C236.195 225.795 235.547 225.664 234.964 225.341C234.38 225.018 233.885 224.515 233.53 223.886L233.334 223.538L233.034 228.751Z" fill="#263238"/>
<path d="M268.1 109.525L267.359 111.605L266.462 114.106L234.412 204.335C235.255 206.898 236.905 208.992 239.027 210.189C242.176 212.159 245.972 212.507 247.917 210.986L279.746 121.426L281.455 116.625C280.203 119.658 266.895 112.585 268.1 109.525Z" fill="#37474F"/>
<path d="M265.281 117.396L263.635 122.041C263.123 123.379 265.281 125.422 268.029 127.089C271.659 129.315 276.321 130.854 277.006 129.095L278.211 125.669L278.644 124.442C277.959 126.2 273.297 124.661 269.659 122.435C267.029 120.832 264.934 118.871 265.242 117.543C265.242 117.491 265.256 117.44 265.281 117.396Z" fill="#455A64"/>
<path d="M264.878 118.597C263.674 121.684 277.037 128.729 278.265 125.642L279.927 120.997C278.722 124.084 265.359 117.039 266.54 113.952L264.878 118.597Z" fill="#37474F"/>
<path d="M268.099 109.525L266.461 114.106C265.264 117.129 278.108 124.073 279.73 121.435C279.765 121.385 279.794 121.329 279.817 121.27L281.439 116.635C280.203 119.658 266.895 112.585 268.099 109.525Z" fill="#455A64"/>
<path d="M275.061 90.0497L268.1 109.527C267.58 110.837 269.675 112.88 272.423 114.547C276.053 116.782 280.723 118.367 281.44 116.627L288.117 97.8917C289.984 93.6775 283.55 88.364 278.92 88.0525C277.219 87.9059 275.754 88.4739 275.061 90.0497Z" fill="#263238"/>
<path d="M280.196 118.707C283.292 118.707 285.802 115.786 285.802 112.184C285.802 108.581 283.292 105.661 280.196 105.661C277.099 105.661 274.589 108.581 274.589 112.184C274.589 115.786 277.099 118.707 280.196 118.707Z" fill="#263238"/>
<path d="M293.613 222.531H289.668V230.392H293.613V222.531Z" fill="#FFA8A7"/>
<path d="M279.927 222.119L275.982 222.274L275.785 213.947L279.73 213.791L279.927 222.119Z" fill="#FFA8A7"/>
<path d="M293.36 160.198C293.36 164.586 293.849 191.163 293.849 191.163C293.935 192.428 294.959 194.755 294.738 199.601C294.439 206.188 293.951 223.31 293.951 223.31C293.951 223.31 292.093 225.445 289.478 223.31C289.478 223.31 285.903 199.628 285.202 193.078C284.58 187.389 283.533 171.916 283.533 171.916L279.911 190.146C279.911 190.146 280.556 194.425 280.698 197.475C280.84 200.526 280.029 216.311 280.029 216.311C279.39 216.779 278.656 217.043 277.901 217.076C277.147 217.11 276.398 216.913 275.729 216.503C275.729 216.503 272.579 192.684 272.154 189.936C271.729 187.187 274.926 160.253 274.926 160.253L293.36 160.198Z" fill="#37474F"/>
<path d="M289.566 128.462C290.408 128.633 291.188 129.09 291.806 129.777C292.424 130.464 292.853 131.348 293.039 132.319C293.252 133.466 293.36 134.636 293.361 135.81V160.197C290.59 163.696 280.935 165.327 274.888 160.197C274.888 160.197 275.014 138.65 275.463 135.113C276.25 128.966 278.778 126.767 281.321 127.006L287.416 128.013L289.566 128.462Z" fill="#BD69CB"/>
<path d="M289.888 116.818C289.55 118.77 289.124 120.699 288.612 122.599C288.369 123.102 287.969 123.476 287.494 123.644L287.557 120.153L289.888 116.818Z" fill="#263238"/>
<path d="M288.747 109.709C289.064 109.664 289.386 109.704 289.687 109.827C289.989 109.949 290.263 110.15 290.487 110.415C291.235 111.331 290.818 114.079 289.889 116.828L288.172 117.057L288.747 109.709Z" fill="#263238"/>
<path d="M287.66 117.047C288.007 117.285 288.495 116.525 288.92 116.003C289.086 115.781 289.298 115.611 289.536 115.512C289.774 115.412 290.03 115.384 290.279 115.432C290.529 115.48 290.763 115.601 290.961 115.784C291.159 115.968 291.313 116.207 291.409 116.479C292.11 118.201 290.802 120.473 289.716 120.867C287.842 121.555 287.558 120.153 287.558 120.153L287.416 128.022C287.002 129.077 286.369 129.995 285.575 130.695C284.78 131.395 283.849 131.856 282.865 132.035C279.542 132.557 280.227 129.369 281.29 127.812V125.421C280.457 125.573 279.612 125.622 278.77 125.567C277.384 125.32 276.518 124.056 276.101 122.324C275.431 119.576 275.179 117.285 275.746 111.798C276.368 105.788 282.377 105.724 285.621 108.133C288.865 110.543 287.66 117.047 287.66 117.047Z" fill="#FFA8A7"/>
<path d="M287.66 117.716C287.833 117.716 288.487 116.461 288.92 116.003C289.511 115.38 288.747 109.709 288.747 109.709C288.896 109.216 288.921 108.683 288.82 108.173C288.718 107.664 288.493 107.199 288.172 106.832C287.384 105.797 286.006 105.687 283.691 105.257C282.479 105.037 280.644 104.643 279.431 104.341C277.982 104.029 276.785 103.699 275.761 104.734C275.362 105.139 275.08 105.678 274.953 106.276C274.826 106.875 274.861 107.504 275.053 108.078C275.156 108.34 275.294 108.581 275.462 108.793C275.737 109.175 276.097 109.464 276.502 109.627C276.502 109.627 277.14 110.277 279.329 110.589C281.357 110.769 283.395 110.723 285.416 110.451C286.054 110.35 286.203 111.074 286.526 113.035C286.833 114.794 287.077 117.707 287.66 117.716Z" fill="#263238"/>
<path d="M288.739 110.149L290.818 108.848C290.751 108.685 290.656 108.54 290.54 108.421C290.424 108.302 290.288 108.212 290.141 108.155C289.994 108.099 289.839 108.077 289.684 108.093C289.53 108.108 289.38 108.159 289.243 108.243C288.966 108.427 288.76 108.726 288.667 109.08C288.573 109.434 288.599 109.816 288.739 110.149Z" fill="#263238"/>
<path d="M281.32 125.422C282.74 125.107 284.132 124.641 285.478 124.029C286.109 123.649 286.625 123.055 286.959 122.325C286.798 123.056 286.511 123.742 286.116 124.341C285.328 125.513 281.32 126.374 281.32 126.374V125.422Z" fill="#F28F8F"/>
<path d="M282.062 116.16C282.052 116.261 282.06 116.364 282.087 116.461C282.114 116.558 282.157 116.647 282.216 116.723C282.274 116.799 282.346 116.86 282.426 116.902C282.506 116.944 282.592 116.965 282.68 116.965C282.767 116.965 282.854 116.944 282.934 116.902C283.014 116.86 283.085 116.799 283.144 116.723C283.202 116.647 283.246 116.558 283.272 116.461C283.299 116.364 283.308 116.261 283.298 116.16C283.3 116.064 283.286 115.969 283.256 115.88C283.226 115.79 283.181 115.709 283.124 115.64C283.067 115.571 282.999 115.515 282.923 115.477C282.847 115.439 282.766 115.419 282.684 115.418C282.601 115.419 282.519 115.439 282.443 115.477C282.367 115.515 282.298 115.57 282.24 115.639C282.183 115.708 282.137 115.789 282.106 115.879C282.076 115.968 282.061 116.064 282.062 116.16Z" fill="#263238"/>
<path d="M282.715 113.447L284.038 114.29C284.132 114.08 284.152 113.836 284.095 113.609C284.038 113.382 283.907 113.189 283.731 113.072C283.643 113.016 283.547 112.982 283.448 112.972C283.349 112.961 283.249 112.973 283.154 113.008C283.059 113.043 282.972 113.1 282.896 113.176C282.821 113.251 282.759 113.343 282.715 113.447Z" fill="#263238"/>
<path d="M281.605 121.106L280.195 121.72C280.225 121.83 280.274 121.932 280.339 122.02C280.404 122.107 280.483 122.179 280.572 122.23C280.661 122.281 280.757 122.311 280.856 122.318C280.955 122.325 281.055 122.309 281.148 122.27C281.34 122.184 281.495 122.014 281.58 121.796C281.665 121.579 281.674 121.331 281.605 121.106Z" fill="#F28F8F"/>
<path d="M276.566 114.043L277.771 112.962C277.651 112.793 277.479 112.683 277.292 112.656C277.104 112.629 276.915 112.686 276.763 112.816C276.603 112.953 276.493 113.157 276.457 113.384C276.42 113.612 276.459 113.848 276.566 114.043Z" fill="#263238"/>
<path d="M276.935 115.948C276.938 116.091 276.977 116.229 277.048 116.346C277.118 116.463 277.217 116.553 277.331 116.604C277.446 116.656 277.571 116.667 277.691 116.637C277.81 116.606 277.92 116.535 278.005 116.432C278.09 116.329 278.147 116.199 278.169 116.059C278.191 115.918 278.176 115.773 278.128 115.642C278.079 115.511 277.998 115.4 277.895 115.322C277.792 115.245 277.672 115.204 277.549 115.206C277.467 115.207 277.385 115.227 277.31 115.266C277.234 115.304 277.166 115.359 277.109 115.428C277.051 115.497 277.007 115.578 276.977 115.668C276.947 115.757 276.933 115.852 276.935 115.948Z" fill="#263238"/>
<path d="M280.076 115.271L279.872 119.585L277.935 118.816L280.076 115.271Z" fill="#F28F8F"/>
<path d="M289.668 228.128V227.468C289.29 227.66 288.416 231.563 286.849 233.221C285.605 234.541 283.904 236.071 283.471 237.545C283.038 239.02 285.833 239.927 286.999 239.68C288.353 239.405 290.7 238.297 291.283 237.271C291.865 236.245 292.149 234.733 292.629 233.973C293.109 233.212 294.204 232.388 294.464 231.517C294.544 230.701 294.466 229.875 294.236 229.099C294.054 228.293 293.858 227.395 293.621 227.468V227.972C293.058 228.485 292.361 228.76 291.645 228.751C291.07 228.778 289.668 228.641 289.668 228.128Z" fill="#263238"/>
<path d="M275.975 220.854C275.77 220.854 275.597 221.202 275.187 221.77C274.5 222.568 273.701 223.225 272.825 223.712C271.344 224.574 268.47 225.902 267.171 226.58C266.383 227.011 266.383 228.147 267.234 228.797C268.084 229.447 270.108 229.915 272.541 229.283C273.864 228.934 275.597 227.514 276.691 227.588C277.786 227.661 279.841 227.652 280.629 227.001C281.416 226.351 281.109 224.977 280.881 223.786C280.652 222.595 280.274 220.506 279.904 220.598V221.001C279.432 221.834 277.014 222.183 275.967 221.56L275.975 220.854Z" fill="#263238"/>
<path d="M283.535 171.932C281.488 171.197 279.606 169.945 278.022 168.268C279.078 170.147 280.528 171.683 282.235 172.729L281.054 184.474L283.535 171.932Z" fill="#263238"/>
<path d="M261.43 154.792C262.409 154.946 263.379 155.166 264.336 155.452C265.134 155.856 266.004 156.029 266.872 155.956C267.998 155.873 270.943 154.252 273.549 152.41C276.405 150.241 278.922 147.521 280.991 144.367C283.353 140.473 285.967 134.335 287.219 131.99C288.472 129.645 289.653 129.397 291.039 129.471C292.677 129.544 293.716 131.303 292.283 134.903C290.228 139.829 287.711 144.474 284.778 148.755C282.523 151.858 279.844 154.508 276.849 156.597C274.251 158.357 271.48 159.744 268.596 160.729C267.761 161.05 267.21 161.535 265.682 162.369C265.068 162.759 264.407 163.043 263.722 163.212C262.863 163.358 261.99 163.358 261.131 163.212C260.042 163.039 259.013 162.526 258.154 161.727C257.68 161.295 257.302 160.735 257.052 160.097C256.804 159.451 256.757 158.726 256.918 158.045C256.951 157.909 257.01 157.783 257.091 157.678C257.275 157.53 257.501 157.471 257.721 157.513C258.95 157.513 260.265 157.825 261.485 157.724C262.517 157.642 263.241 157.413 263.06 157.238C262.879 157.064 262.273 157.174 261.485 156.762C260.698 156.35 260.123 155.425 260.343 154.93C260.564 154.435 260.564 154.536 261.43 154.792Z" fill="#FFA8A7"/>
<path d="M290.512 128.792C290.898 128.783 291.282 128.868 291.639 129.041C291.996 129.213 292.318 129.469 292.586 129.794C292.854 130.118 293.061 130.503 293.195 130.925C293.328 131.347 293.385 131.797 293.362 132.246C293.362 134.747 290.039 141.993 287.496 146.125C287.496 146.125 283.559 145.832 281.456 142.36C281.456 142.36 285.157 135.507 286.181 133.327C287.063 131.366 288.677 128.691 290.512 128.792Z" fill="#BD69CB"/>
<path d="M257.548 139.246C258.742 138.642 260.06 138.452 261.344 138.696C262.383 138.889 262.383 142.911 259.053 144.193C256.887 145.018 255.588 144.651 254.887 146.722C254.887 146.722 253.485 146.511 253.808 144.193C254.157 141.812 255.071 139.591 256.446 137.78C257.399 136.47 257.462 135.371 257.934 135.737C258.407 136.104 258.218 137.386 258.218 137.386L257.548 139.246Z" fill="#FFA8A7"/>
</svg>
