<svg width="24" height="24" viewBox="0 0 24 24" fill="none" xmlns="http://www.w3.org/2000/svg">
<path d="M6.56944 4.91667C6.1311 4.91667 5.71071 5.0908 5.40075 5.40075C5.0908 5.71071 4.91667 6.1311 4.91667 6.56944V17.4306C4.91667 18.3429 5.65617 19.0833 6.56944 19.0833H17.4306C17.8689 19.0833 18.2893 18.9092 18.5992 18.5992C18.9092 18.2893 19.0833 17.8689 19.0833 17.4306V13.6528C19.0833 13.4649 19.158 13.2847 19.2908 13.1519C19.4236 13.0191 19.6038 12.9444 19.7917 12.9444C19.9795 12.9444 20.1597 13.0191 20.2925 13.1519C20.4254 13.2847 20.5 13.4649 20.5 13.6528V17.4306C20.5 18.2446 20.1766 19.0253 19.601 19.601C19.0253 20.1766 18.2446 20.5 17.4306 20.5H6.56944C5.75538 20.5 4.97465 20.1766 4.39902 19.601C3.82339 19.0253 3.5 18.2446 3.5 17.4306V6.56944C3.5 5.75538 3.82339 4.97465 4.39902 4.39902C4.97465 3.82339 5.75538 3.5 6.56944 3.5H10.3472C10.5351 3.5 10.7153 3.57463 10.8481 3.70747C10.9809 3.8403 11.0556 4.02047 11.0556 4.20833C11.0556 4.39619 10.9809 4.57636 10.8481 4.7092C10.7153 4.84204 10.5351 4.91667 10.3472 4.91667H6.56944ZM12.9444 4.20833C12.9444 4.02047 13.0191 3.8403 13.1519 3.70747C13.2847 3.57463 13.4649 3.5 13.6528 3.5H19.7917C19.9795 3.5 20.1597 3.57463 20.2925 3.70747C20.4254 3.8403 20.5 4.02047 20.5 4.20833V10.3472C20.5 10.5351 20.4254 10.7153 20.2925 10.8481C20.1597 10.9809 19.9795 11.0556 19.7917 11.0556C19.6038 11.0556 19.4236 10.9809 19.2908 10.8481C19.158 10.7153 19.0833 10.5351 19.0833 10.3472V5.91778L14.1533 10.8478C14.0191 10.9729 13.8415 11.041 13.658 11.0378C13.4744 11.0345 13.2994 10.9602 13.1696 10.8304C13.0398 10.7006 12.9655 10.5256 12.9622 10.342C12.959 10.1585 13.0271 9.98094 13.1522 9.84667L18.0822 4.91667H13.6528C13.4649 4.91667 13.2847 4.84204 13.1519 4.7092C13.0191 4.57636 12.9444 4.39619 12.9444 4.20833Z" fill="white"/>
</svg>
