<svg width="24" height="24" viewBox="0 0 24 24" fill="none" xmlns="http://www.w3.org/2000/svg">
<path d="M19.5 16.1667C19.5 16.5203 19.3513 16.8594 19.0865 17.1095C18.8217 17.3595 18.4627 17.5 18.0882 17.5H8.91176C8.53734 17.5 8.17825 17.3595 7.9135 17.1095C7.64874 16.8594 7.5 16.5203 7.5 16.1667V4.83333C7.5 4.47971 7.64874 4.14057 7.9135 3.89052C8.17825 3.64048 8.53734 3.5 8.91176 3.5H15.2647L19.5 7.5V16.1667Z" stroke="white" stroke-width="1.6" stroke-linecap="round" stroke-linejoin="round"/>
<path d="M13.5 20.5H5.625C5.32663 20.5 5.04048 20.3736 4.8295 20.1485C4.61853 19.9235 4.5 19.6183 4.5 19.3V8.5" stroke="white" stroke-width="1.6" stroke-linecap="round" stroke-linejoin="round"/>
</svg>
