<svg width="24" height="24" viewBox="0 0 24 24" fill="none" xmlns="http://www.w3.org/2000/svg">
<path d="M9 9V6.75C9 5.75544 9.31607 4.80161 9.87868 4.09835C10.4413 3.39509 11.2044 3 12 3C12.7956 3 13.5587 3.39509 14.1213 4.09835C14.6839 4.80161 15 5.75544 15 6.75V9M19.9915 18.6433C20.0129 18.8148 19.9937 18.9884 19.9351 19.1527C19.8766 19.317 19.78 19.4683 19.6517 19.5966C19.5231 19.7248 19.3658 19.827 19.1901 19.8965C19.0144 19.966 18.8244 20.0013 18.6324 20H5.36758C5.17564 20.0013 4.98557 19.966 4.80988 19.8965C4.63418 19.827 4.47686 19.7248 4.34826 19.5966C4.22 19.4683 4.12342 19.317 4.06485 19.1527C4.00629 18.9884 3.98708 18.8148 4.00848 18.6433L5.20449 9H18.7955L19.9915 18.6433Z" stroke="white" stroke-width="1.5" stroke-linecap="round" stroke-linejoin="round"/>
</svg>
