<svg width="24" height="25" viewBox="0 0 24 25" fill="none" xmlns="http://www.w3.org/2000/svg">
<path d="M8.05435 14.0727L10.6563 16.1542C10.7262 16.2118 10.808 16.253 10.8958 16.275C10.9836 16.2969 11.0752 16.299 11.164 16.2811C11.2535 16.2643 11.3385 16.2284 11.4129 16.1759C11.4874 16.1233 11.5497 16.0553 11.5955 15.9765L15.6697 8.99575M7.55769 4.69141H16.4423C18.5452 4.69141 20.25 6.39617 20.25 8.4991V17.3837C20.25 19.4866 18.5452 21.1914 16.4423 21.1914H7.55769C5.45476 21.1914 3.75 19.4866 3.75 17.3837V8.4991C3.75 6.39617 5.45476 4.69141 7.55769 4.69141Z" stroke="#166534" stroke-width="1.6" stroke-linecap="round" stroke-linejoin="round"/>
</svg>
