<svg width="16" height="16" viewBox="0 0 16 16" fill="none" xmlns="http://www.w3.org/2000/svg">
<g clip-path="url(#clip0_3385_53048)">
<path d="M10.8572 11.9999V14.2856C10.8572 14.5887 10.7368 14.8794 10.5225 15.0937C10.3082 15.308 10.0175 15.4284 9.71439 15.4284H1.71439C1.41129 15.4284 1.1206 15.308 0.906268 15.0937C0.691941 14.8794 0.571533 14.5887 0.571533 14.2856V1.71415C0.571533 1.41104 0.691941 1.12035 0.906268 0.906024C1.1206 0.691697 1.41129 0.571289 1.71439 0.571289H9.71439C10.0175 0.571289 10.3082 0.691697 10.5225 0.906024C10.7368 1.12035 10.8572 1.41104 10.8572 1.71415V3.99986M7.42868 7.99986H15.4287M15.4287 7.99986L13.143 5.71415M15.4287 7.99986L13.143 10.2856" stroke="#71717A" stroke-width="1.71429" stroke-linecap="round" stroke-linejoin="round"/>
</g>
<defs>
<clipPath id="clip0_3385_53048">
<rect width="16" height="16" fill="white"/>
</clipPath>
</defs>
</svg>
