<svg width="160" height="160" viewBox="0 0 160 160" fill="none" xmlns="http://www.w3.org/2000/svg">
<g filter="url(#filter0_b_1454_845)">
<rect width="160" height="160" rx="10" fill="#260F4A"/>
<mask id="path-2-inside-1_1454_845" fill="white">
<path d="M120 84C122.75 84 125.333 84.5208 127.75 85.5625C130.167 86.6042 132.292 88.0208 134.125 89.8125C135.958 91.6042 137.396 93.7292 138.438 96.1875C139.479 98.6458 140 101.25 140 104C140 106.167 139.667 108.271 139 110.312C138.333 112.354 137.333 114.25 136 116V136.028C136 139.001 132.871 140.935 130.211 139.606L120 134.5L109.789 139.606C107.129 140.935 104 139.001 104 136.028V116C102.708 114.25 101.729 112.354 101.062 110.312C100.396 108.271 100.042 106.167 100 104C100 101.25 100.521 98.6667 101.562 96.25C102.604 93.8333 104.021 91.7083 105.812 89.875C107.604 88.0417 109.729 86.6042 112.188 85.5625C114.646 84.5208 117.25 84 120 84ZM120 92C118.333 92 116.771 92.3125 115.312 92.9375C113.854 93.5625 112.583 94.4167 111.5 95.5C110.417 96.5833 109.562 97.8542 108.938 99.3125C108.312 100.771 108 102.333 108 104C108 105.667 108.312 107.229 108.938 108.688C109.562 110.146 110.417 111.417 111.5 112.5C112.583 113.583 113.854 114.438 115.312 115.062C116.771 115.688 118.333 116 120 116C121.667 116 123.229 115.688 124.688 115.062C126.146 114.438 127.417 113.583 128.5 112.5C129.583 111.417 130.438 110.146 131.062 108.688C131.688 107.229 132 105.667 132 104C132 102.333 131.688 100.771 131.062 99.3125C130.438 97.8542 129.583 96.5833 128.5 95.5C127.417 94.4167 126.146 93.5625 124.688 92.9375C123.229 92.3125 121.667 92 120 92ZM128 129.5V122.312C125.5 123.438 122.833 124 120 124C117.167 124 114.5 123.438 112 122.312V129.5L120 125.5L128 129.5ZM120 48C117.792 48 115.729 48.4167 113.812 49.25C111.896 50.0833 110.188 51.2292 108.688 52.6875C107.188 54.1458 106.042 55.8333 105.25 57.75C104.458 59.6667 104.042 61.75 104 64C104 67.8333 103.146 71.4375 101.438 74.8125C99.7292 78.1875 97.3125 81.0417 94.1875 83.375C94.9792 83.75 95.7292 84.1667 96.4375 84.625C97.6379 85.4017 97.9303 87.0259 97.0939 88.1856L96.2328 89.3796C94.9635 91.1398 92.5211 91.5093 90.5799 90.5391C89.5282 90.0136 88.4391 89.563 87.3125 89.1875C84.9375 88.3958 82.5 88 80 88C76.6667 88 73.5625 88.625 70.6875 89.875C67.8125 91.125 65.2708 92.8333 63.0625 95C60.8542 97.1667 59.125 99.7292 57.875 102.688C57.1453 104.415 56.6285 106.191 56.3248 108.018C55.9624 110.197 54.2091 112 52 112C49.7909 112 47.9714 110.202 48.2464 108.01C48.4521 106.37 48.7867 104.763 49.25 103.188C50.0833 100.354 51.2708 97.6875 52.8125 95.1875C54.3542 92.6875 56.2083 90.4375 58.375 88.4375C60.5417 86.4375 63 84.7292 65.75 83.3125C62.6667 81.0208 60.2708 78.1875 58.5625 74.8125C56.8542 71.4375 56 67.8333 56 64C56 61.7917 55.5833 59.7292 54.75 57.8125C53.9167 55.8958 52.7708 54.1875 51.3125 52.6875C49.8542 51.1875 48.1667 50.0417 46.25 49.25C44.3333 48.4583 42.25 48.0417 40 48C37.7917 48 35.7292 48.4167 33.8125 49.25C31.8958 50.0833 30.1875 51.2292 28.6875 52.6875C27.1875 54.1458 26.0417 55.8333 25.25 57.75C24.9358 58.5108 24.6806 59.2979 24.4845 60.1112C23.9735 62.2307 22.2173 64 20.037 64C17.8279 64 15.9612 62.1959 16.3403 60.0195C16.4772 59.2333 16.6554 58.456 16.875 57.6875C17.4583 55.6458 18.2708 53.7083 19.3125 51.875C20.3542 50.0417 21.6458 48.375 23.1875 46.875C24.7292 45.375 26.4583 44.0833 28.375 43C27 41.5417 25.9375 39.8542 25.1875 37.9375C24.4375 36.0208 24.0417 34.0417 24 32C24 29.7917 24.4167 27.7292 25.25 25.8125C26.0833 23.8958 27.2292 22.1875 28.6875 20.6875C30.1458 19.1875 31.8333 18.0417 33.75 17.25C35.6667 16.4583 37.75 16.0417 40 16C42.2083 16 44.2708 16.4167 46.1875 17.25C48.1042 18.0833 49.8125 19.2292 51.3125 20.6875C52.8125 22.1458 53.9583 23.8333 54.75 25.75C55.5417 27.6667 55.9583 29.75 56 32C56 34.0417 55.625 36.0208 54.875 37.9375C54.125 39.8542 53.0417 41.5417 51.625 43C55.0417 44.875 57.8333 47.4583 60 50.75C61.125 49.0833 62.4167 47.5833 63.875 46.25C65.3333 44.9167 66.9167 43.7917 68.625 42.875C70.3333 41.9583 72.1458 41.25 74.0625 40.75C75.9792 40.25 77.9583 40 80 40C82 40 83.9583 40.25 85.875 40.75C87.7917 41.25 89.6042 41.9583 91.3125 42.875C93.0208 43.7917 94.625 44.9167 96.125 46.25C97.625 47.5833 98.9167 49.0833 100 50.75C102.167 47.4583 104.958 44.875 108.375 43C107 41.5417 105.938 39.8542 105.188 37.9375C104.438 36.0208 104.042 34.0417 104 32C104 29.7917 104.417 27.7292 105.25 25.8125C106.083 23.8958 107.229 22.1875 108.688 20.6875C110.146 19.1875 111.833 18.0417 113.75 17.25C115.667 16.4583 117.75 16.0417 120 16C122.208 16 124.271 16.4167 126.188 17.25C128.104 18.0833 129.812 19.2292 131.312 20.6875C132.812 22.1458 133.958 23.8333 134.75 25.75C135.542 27.6667 135.958 29.75 136 32C136 34.0417 135.625 36.0208 134.875 37.9375C134.125 39.8542 133.042 41.5417 131.625 43C133.542 44.0833 135.25 45.375 136.75 46.875C138.25 48.375 139.542 50.0208 140.625 51.8125C141.708 53.6042 142.542 55.5417 143.125 57.625C143.347 58.417 143.526 59.2149 143.664 60.019C144.036 62.1965 142.209 64 140 64C137.791 64 136.063 62.1801 135.514 60.0402C135.319 59.2769 135.064 58.5344 134.75 57.8125C133.917 55.8958 132.771 54.1875 131.312 52.6875C129.854 51.1875 128.167 50.0417 126.25 49.25C124.333 48.4583 122.25 48.0417 120 48ZM112 32C112 33.125 112.208 34.1667 112.625 35.125C113.042 36.0833 113.604 36.9167 114.312 37.625C115.021 38.3333 115.875 38.9167 116.875 39.375C117.875 39.8333 118.917 40.0417 120 40C121.125 40 122.167 39.7917 123.125 39.375C124.083 38.9583 124.917 38.3958 125.625 37.6875C126.333 36.9792 126.917 36.125 127.375 35.125C127.833 34.125 128.042 33.0833 128 32C128 30.875 127.792 29.8333 127.375 28.875C126.958 27.9167 126.396 27.0833 125.688 26.375C124.979 25.6667 124.125 25.0833 123.125 24.625C122.125 24.1667 121.083 23.9583 120 24C118.875 24 117.833 24.2083 116.875 24.625C115.917 25.0417 115.083 25.6042 114.375 26.3125C113.667 27.0208 113.083 27.875 112.625 28.875C112.167 29.875 111.958 30.9167 112 32ZM32 32C32 33.125 32.2083 34.1667 32.625 35.125C33.0417 36.0833 33.6042 36.9167 34.3125 37.625C35.0208 38.3333 35.875 38.9167 36.875 39.375C37.875 39.8333 38.9167 40.0417 40 40C41.125 40 42.1667 39.7917 43.125 39.375C44.0833 38.9583 44.9167 38.3958 45.625 37.6875C46.3333 36.9792 46.9167 36.125 47.375 35.125C47.8333 34.125 48.0417 33.0833 48 32C48 30.875 47.7917 29.8333 47.375 28.875C46.9583 27.9167 46.3958 27.0833 45.6875 26.375C44.9792 25.6667 44.125 25.0833 43.125 24.625C42.125 24.1667 41.0833 23.9583 40 24C38.875 24 37.8333 24.2083 36.875 24.625C35.9167 25.0417 35.0833 25.6042 34.375 26.3125C33.6667 27.0208 33.0833 27.875 32.625 28.875C32.1667 29.875 31.9583 30.9167 32 32ZM64 64C64 66.2083 64.4167 68.2708 65.25 70.1875C66.0833 72.1042 67.2292 73.8125 68.6875 75.3125C70.1458 76.8125 71.8333 77.9583 73.75 78.75C75.6667 79.5417 77.75 79.9583 80 80C82.2083 80 84.2708 79.5833 86.1875 78.75C88.1042 77.9167 89.8125 76.7708 91.3125 75.3125C92.8125 73.8542 93.9583 72.1667 94.75 70.25C95.5417 68.3333 95.9583 66.25 96 64C96 61.7917 95.5833 59.7292 94.75 57.8125C93.9167 55.8958 92.7708 54.1875 91.3125 52.6875C89.8542 51.1875 88.1667 50.0417 86.25 49.25C84.3333 48.4583 82.25 48.0417 80 48C77.7917 48 75.7292 48.4167 73.8125 49.25C71.8958 50.0833 70.1875 51.2292 68.6875 52.6875C67.1875 54.1458 66.0417 55.8333 65.25 57.75C64.4583 59.6667 64.0417 61.75 64 64Z"/>
</mask>
<path d="M120 84C122.75 84 125.333 84.5208 127.75 85.5625C130.167 86.6042 132.292 88.0208 134.125 89.8125C135.958 91.6042 137.396 93.7292 138.438 96.1875C139.479 98.6458 140 101.25 140 104C140 106.167 139.667 108.271 139 110.312C138.333 112.354 137.333 114.25 136 116V136.028C136 139.001 132.871 140.935 130.211 139.606L120 134.5L109.789 139.606C107.129 140.935 104 139.001 104 136.028V116C102.708 114.25 101.729 112.354 101.062 110.312C100.396 108.271 100.042 106.167 100 104C100 101.25 100.521 98.6667 101.562 96.25C102.604 93.8333 104.021 91.7083 105.812 89.875C107.604 88.0417 109.729 86.6042 112.188 85.5625C114.646 84.5208 117.25 84 120 84ZM120 92C118.333 92 116.771 92.3125 115.312 92.9375C113.854 93.5625 112.583 94.4167 111.5 95.5C110.417 96.5833 109.562 97.8542 108.938 99.3125C108.312 100.771 108 102.333 108 104C108 105.667 108.312 107.229 108.938 108.688C109.562 110.146 110.417 111.417 111.5 112.5C112.583 113.583 113.854 114.438 115.312 115.062C116.771 115.688 118.333 116 120 116C121.667 116 123.229 115.688 124.688 115.062C126.146 114.438 127.417 113.583 128.5 112.5C129.583 111.417 130.438 110.146 131.062 108.688C131.688 107.229 132 105.667 132 104C132 102.333 131.688 100.771 131.062 99.3125C130.438 97.8542 129.583 96.5833 128.5 95.5C127.417 94.4167 126.146 93.5625 124.688 92.9375C123.229 92.3125 121.667 92 120 92ZM128 129.5V122.312C125.5 123.438 122.833 124 120 124C117.167 124 114.5 123.438 112 122.312V129.5L120 125.5L128 129.5ZM120 48C117.792 48 115.729 48.4167 113.812 49.25C111.896 50.0833 110.188 51.2292 108.688 52.6875C107.188 54.1458 106.042 55.8333 105.25 57.75C104.458 59.6667 104.042 61.75 104 64C104 67.8333 103.146 71.4375 101.438 74.8125C99.7292 78.1875 97.3125 81.0417 94.1875 83.375C94.9792 83.75 95.7292 84.1667 96.4375 84.625C97.6379 85.4017 97.9303 87.0259 97.0939 88.1856L96.2328 89.3796C94.9635 91.1398 92.5211 91.5093 90.5799 90.5391C89.5282 90.0136 88.4391 89.563 87.3125 89.1875C84.9375 88.3958 82.5 88 80 88C76.6667 88 73.5625 88.625 70.6875 89.875C67.8125 91.125 65.2708 92.8333 63.0625 95C60.8542 97.1667 59.125 99.7292 57.875 102.688C57.1453 104.415 56.6285 106.191 56.3248 108.018C55.9624 110.197 54.2091 112 52 112C49.7909 112 47.9714 110.202 48.2464 108.01C48.4521 106.37 48.7867 104.763 49.25 103.188C50.0833 100.354 51.2708 97.6875 52.8125 95.1875C54.3542 92.6875 56.2083 90.4375 58.375 88.4375C60.5417 86.4375 63 84.7292 65.75 83.3125C62.6667 81.0208 60.2708 78.1875 58.5625 74.8125C56.8542 71.4375 56 67.8333 56 64C56 61.7917 55.5833 59.7292 54.75 57.8125C53.9167 55.8958 52.7708 54.1875 51.3125 52.6875C49.8542 51.1875 48.1667 50.0417 46.25 49.25C44.3333 48.4583 42.25 48.0417 40 48C37.7917 48 35.7292 48.4167 33.8125 49.25C31.8958 50.0833 30.1875 51.2292 28.6875 52.6875C27.1875 54.1458 26.0417 55.8333 25.25 57.75C24.9358 58.5108 24.6806 59.2979 24.4845 60.1112C23.9735 62.2307 22.2173 64 20.037 64C17.8279 64 15.9612 62.1959 16.3403 60.0195C16.4772 59.2333 16.6554 58.456 16.875 57.6875C17.4583 55.6458 18.2708 53.7083 19.3125 51.875C20.3542 50.0417 21.6458 48.375 23.1875 46.875C24.7292 45.375 26.4583 44.0833 28.375 43C27 41.5417 25.9375 39.8542 25.1875 37.9375C24.4375 36.0208 24.0417 34.0417 24 32C24 29.7917 24.4167 27.7292 25.25 25.8125C26.0833 23.8958 27.2292 22.1875 28.6875 20.6875C30.1458 19.1875 31.8333 18.0417 33.75 17.25C35.6667 16.4583 37.75 16.0417 40 16C42.2083 16 44.2708 16.4167 46.1875 17.25C48.1042 18.0833 49.8125 19.2292 51.3125 20.6875C52.8125 22.1458 53.9583 23.8333 54.75 25.75C55.5417 27.6667 55.9583 29.75 56 32C56 34.0417 55.625 36.0208 54.875 37.9375C54.125 39.8542 53.0417 41.5417 51.625 43C55.0417 44.875 57.8333 47.4583 60 50.75C61.125 49.0833 62.4167 47.5833 63.875 46.25C65.3333 44.9167 66.9167 43.7917 68.625 42.875C70.3333 41.9583 72.1458 41.25 74.0625 40.75C75.9792 40.25 77.9583 40 80 40C82 40 83.9583 40.25 85.875 40.75C87.7917 41.25 89.6042 41.9583 91.3125 42.875C93.0208 43.7917 94.625 44.9167 96.125 46.25C97.625 47.5833 98.9167 49.0833 100 50.75C102.167 47.4583 104.958 44.875 108.375 43C107 41.5417 105.938 39.8542 105.188 37.9375C104.438 36.0208 104.042 34.0417 104 32C104 29.7917 104.417 27.7292 105.25 25.8125C106.083 23.8958 107.229 22.1875 108.688 20.6875C110.146 19.1875 111.833 18.0417 113.75 17.25C115.667 16.4583 117.75 16.0417 120 16C122.208 16 124.271 16.4167 126.188 17.25C128.104 18.0833 129.812 19.2292 131.312 20.6875C132.812 22.1458 133.958 23.8333 134.75 25.75C135.542 27.6667 135.958 29.75 136 32C136 34.0417 135.625 36.0208 134.875 37.9375C134.125 39.8542 133.042 41.5417 131.625 43C133.542 44.0833 135.25 45.375 136.75 46.875C138.25 48.375 139.542 50.0208 140.625 51.8125C141.708 53.6042 142.542 55.5417 143.125 57.625C143.347 58.417 143.526 59.2149 143.664 60.019C144.036 62.1965 142.209 64 140 64C137.791 64 136.063 62.1801 135.514 60.0402C135.319 59.2769 135.064 58.5344 134.75 57.8125C133.917 55.8958 132.771 54.1875 131.312 52.6875C129.854 51.1875 128.167 50.0417 126.25 49.25C124.333 48.4583 122.25 48.0417 120 48ZM112 32C112 33.125 112.208 34.1667 112.625 35.125C113.042 36.0833 113.604 36.9167 114.312 37.625C115.021 38.3333 115.875 38.9167 116.875 39.375C117.875 39.8333 118.917 40.0417 120 40C121.125 40 122.167 39.7917 123.125 39.375C124.083 38.9583 124.917 38.3958 125.625 37.6875C126.333 36.9792 126.917 36.125 127.375 35.125C127.833 34.125 128.042 33.0833 128 32C128 30.875 127.792 29.8333 127.375 28.875C126.958 27.9167 126.396 27.0833 125.688 26.375C124.979 25.6667 124.125 25.0833 123.125 24.625C122.125 24.1667 121.083 23.9583 120 24C118.875 24 117.833 24.2083 116.875 24.625C115.917 25.0417 115.083 25.6042 114.375 26.3125C113.667 27.0208 113.083 27.875 112.625 28.875C112.167 29.875 111.958 30.9167 112 32ZM32 32C32 33.125 32.2083 34.1667 32.625 35.125C33.0417 36.0833 33.6042 36.9167 34.3125 37.625C35.0208 38.3333 35.875 38.9167 36.875 39.375C37.875 39.8333 38.9167 40.0417 40 40C41.125 40 42.1667 39.7917 43.125 39.375C44.0833 38.9583 44.9167 38.3958 45.625 37.6875C46.3333 36.9792 46.9167 36.125 47.375 35.125C47.8333 34.125 48.0417 33.0833 48 32C48 30.875 47.7917 29.8333 47.375 28.875C46.9583 27.9167 46.3958 27.0833 45.6875 26.375C44.9792 25.6667 44.125 25.0833 43.125 24.625C42.125 24.1667 41.0833 23.9583 40 24C38.875 24 37.8333 24.2083 36.875 24.625C35.9167 25.0417 35.0833 25.6042 34.375 26.3125C33.6667 27.0208 33.0833 27.875 32.625 28.875C32.1667 29.875 31.9583 30.9167 32 32ZM64 64C64 66.2083 64.4167 68.2708 65.25 70.1875C66.0833 72.1042 67.2292 73.8125 68.6875 75.3125C70.1458 76.8125 71.8333 77.9583 73.75 78.75C75.6667 79.5417 77.75 79.9583 80 80C82.2083 80 84.2708 79.5833 86.1875 78.75C88.1042 77.9167 89.8125 76.7708 91.3125 75.3125C92.8125 73.8542 93.9583 72.1667 94.75 70.25C95.5417 68.3333 95.9583 66.25 96 64C96 61.7917 95.5833 59.7292 94.75 57.8125C93.9167 55.8958 92.7708 54.1875 91.3125 52.6875C89.8542 51.1875 88.1667 50.0417 86.25 49.25C84.3333 48.4583 82.25 48.0417 80 48C77.7917 48 75.7292 48.4167 73.8125 49.25C71.8958 50.0833 70.1875 51.2292 68.6875 52.6875C67.1875 54.1458 66.0417 55.8333 65.25 57.75C64.4583 59.6667 64.0417 61.75 64 64Z" fill="url(#paint0_linear_1454_845)" stroke="url(#paint1_linear_1454_845)" stroke-width="8" mask="url(#path-2-inside-1_1454_845)"/>
</g>
<defs>
<filter id="filter0_b_1454_845" x="-20" y="-20" width="200" height="200" filterUnits="userSpaceOnUse" color-interpolation-filters="sRGB">
<feFlood flood-opacity="0" result="BackgroundImageFix"/>
<feGaussianBlur in="BackgroundImageFix" stdDeviation="10"/>
<feComposite in2="SourceAlpha" operator="in" result="effect1_backgroundBlur_1454_845"/>
<feBlend mode="normal" in="SourceGraphic" in2="effect1_backgroundBlur_1454_845" result="shape"/>
</filter>
<linearGradient id="paint0_linear_1454_845" x1="16" y1="16" x2="142.491" y2="143.991" gradientUnits="userSpaceOnUse">
<stop stop-color="#C800C8"/>
<stop offset="1" stop-color="#9600FF"/>
<stop offset="1" stop-color="#9600FF"/>
</linearGradient>
<linearGradient id="paint1_linear_1454_845" x1="16" y1="16" x2="142.491" y2="143.991" gradientUnits="userSpaceOnUse">
<stop stop-color="#C800C8"/>
<stop offset="1" stop-color="#9600FF"/>
<stop offset="1" stop-color="#9600FF"/>
</linearGradient>
</defs>
</svg>
