<svg width="160" height="160" viewBox="0 0 160 160" fill="none" xmlns="http://www.w3.org/2000/svg">
<g filter="url(#filter0_b_1454_1255)">
<rect width="160" height="160" rx="10" fill="#260F4A"/>
<path d="M84.7999 104C84.7999 101.791 83.009 99.9998 80.7999 99.9998C78.5907 99.9998 76.7999 101.791 76.7999 104H84.7999ZM76.7999 115.2C76.7999 117.409 78.5907 119.2 80.7999 119.2C83.009 119.2 84.7999 117.409 84.7999 115.2H76.7999ZM54.1332 133.333H50.1332V137.333H54.1332V133.333ZM107.467 133.333V137.333H111.467V133.333H107.467ZM48.7999 129.333C46.5907 129.333 44.7999 131.124 44.7999 133.333C44.7999 135.542 46.5907 137.333 48.7999 137.333V129.333ZM112.8 137.333C115.009 137.333 116.8 135.542 116.8 133.333C116.8 131.124 115.009 129.333 112.8 129.333V137.333ZM45.1732 78.1332L43.9541 81.9429C45.447 82.4206 47.0813 81.9823 48.1349 80.8217C49.1884 79.6612 49.4671 77.9922 48.8476 76.5523L45.1732 78.1332ZM34.8799 71.7332L31.9067 74.409C31.9536 74.4611 32.0019 74.512 32.0515 74.5616L34.8799 71.7332ZM43.6799 39.1998L47.3482 40.7947C47.8858 39.5583 47.7643 38.1342 47.025 37.0066C46.2857 35.8791 45.0282 35.1998 43.6799 35.1998V39.1998ZM114.827 78.1332L111.152 76.5523C110.533 77.9922 110.811 79.6612 111.865 80.8217C112.918 81.9823 114.553 82.4206 116.046 81.9429L114.827 78.1332ZM125.12 71.7332L127.948 74.5616C127.998 74.512 128.046 74.4611 128.093 74.409L125.12 71.7332ZM116.32 39.1998V35.1998C114.972 35.1998 113.714 35.8791 112.975 37.0066C112.235 38.1342 112.114 39.5583 112.652 40.7947L116.32 39.1998ZM76.7999 104V115.2H84.7999V104H76.7999ZM54.1332 137.333H107.467V129.333H54.1332V137.333ZM111.467 133.333V128H103.467V133.333H111.467ZM111.467 128C111.467 119.924 104.876 113.333 96.7999 113.333V121.333C100.457 121.333 103.467 124.342 103.467 128H111.467ZM96.7999 113.333H64.7999V121.333H96.7999V113.333ZM64.7999 113.333C56.7241 113.333 50.1332 119.924 50.1332 128H58.1332C58.1332 124.342 61.1424 121.333 64.7999 121.333V113.333ZM50.1332 128V133.333H58.1332V128H50.1332ZM48.7999 137.333H112.8V129.333H48.7999V137.333ZM79.9999 97.3332C61.569 97.3332 46.6665 82.4307 46.6665 63.9998H38.6665C38.6665 86.849 57.1507 105.333 79.9999 105.333V97.3332ZM46.6665 63.9998V47.9998H38.6665V63.9998H46.6665ZM46.6665 47.9998C46.6665 38.4223 54.4224 30.6665 63.9999 30.6665V22.6665C50.0041 22.6665 38.6665 34.004 38.6665 47.9998H46.6665ZM63.9999 30.6665H95.9999V22.6665H63.9999V30.6665ZM95.9999 30.6665C105.577 30.6665 113.333 38.4223 113.333 47.9998H121.333C121.333 34.004 109.996 22.6665 95.9999 22.6665V30.6665ZM113.333 47.9998V63.9998H121.333V47.9998H113.333ZM113.333 63.9998C113.333 82.4307 98.4307 97.3332 79.9999 97.3332V105.333C102.849 105.333 121.333 86.849 121.333 63.9998H113.333ZM46.3923 74.3235C43.0846 73.265 40.099 71.2954 37.7083 68.9047L32.0515 74.5616C35.2074 77.7176 39.2618 80.4413 43.9541 81.9429L46.3923 74.3235ZM37.8531 69.0573C33.5278 64.2515 30.8799 58.7647 30.8799 52.5332H22.8799C22.8799 61.235 26.6319 68.5482 31.9067 74.409L37.8531 69.0573ZM30.8799 52.5332C30.8799 47.2756 34.9557 43.1998 40.2132 43.1998V35.1998C30.5374 35.1998 22.8799 42.8574 22.8799 52.5332H30.8799ZM40.2132 43.1998H43.6799V35.1998H40.2132V43.1998ZM40.0116 37.6049C38.7078 40.6037 38.0799 43.8724 38.0799 47.1998H46.0799C46.0799 44.874 46.5186 42.7026 47.3482 40.7947L40.0116 37.6049ZM38.0799 47.1998V63.1998H46.0799V47.1998H38.0799ZM38.0799 63.1998C38.0799 69.1038 39.3216 74.6534 41.4988 79.714L48.8476 76.5523C47.0781 72.4396 46.0799 67.9626 46.0799 63.1998H38.0799ZM116.046 81.9429C120.738 80.4413 124.792 77.7176 127.948 74.5616L122.291 68.9047C119.901 71.2954 116.915 73.265 113.607 74.3235L116.046 81.9429ZM128.093 74.409C133.368 68.5482 137.12 61.235 137.12 52.5332H129.12C129.12 58.7647 126.472 64.2515 122.147 69.0573L128.093 74.409ZM137.12 52.5332C137.12 42.8574 129.462 35.1998 119.787 35.1998V43.1998C125.044 43.1998 129.12 47.2756 129.12 52.5332H137.12ZM119.787 35.1998H116.32V43.1998H119.787V35.1998ZM112.652 40.7947C113.481 42.7026 113.92 44.874 113.92 47.1998H121.92C121.92 43.8724 121.292 40.6037 119.988 37.6049L112.652 40.7947ZM113.92 47.1998V63.1998H121.92V47.1998H113.92ZM113.92 63.1998C113.92 67.9626 112.922 72.4396 111.152 76.5523L118.501 79.714C120.678 74.6534 121.92 69.1038 121.92 63.1998H113.92Z" fill="url(#paint0_linear_1454_1255)"/>
</g>
<defs>
<filter id="filter0_b_1454_1255" x="-20" y="-20" width="200" height="200" filterUnits="userSpaceOnUse" color-interpolation-filters="sRGB">
<feFlood flood-opacity="0" result="BackgroundImageFix"/>
<feGaussianBlur in="BackgroundImageFix" stdDeviation="10"/>
<feComposite in2="SourceAlpha" operator="in" result="effect1_backgroundBlur_1454_1255"/>
<feBlend mode="normal" in="SourceGraphic" in2="effect1_backgroundBlur_1454_1255" result="shape"/>
</filter>
<linearGradient id="paint0_linear_1454_1255" x1="26.8799" y1="26.6665" x2="133.546" y2="132.906" gradientUnits="userSpaceOnUse">
<stop stop-color="#C800C8"/>
<stop offset="1" stop-color="#9600FF"/>
<stop offset="1" stop-color="#9600FF"/>
</linearGradient>
</defs>
</svg>
