<svg width="101" height="100" viewBox="0 0 101 100" fill="none" xmlns="http://www.w3.org/2000/svg">
<circle cx="50.5" cy="50" r="50" fill="#260E4B"/>
<path d="M29.929 54.5731L21.7919 66.2302C21.4248 66.9451 21.2527 67.7441 21.2928 68.5466C21.3329 69.3492 21.5839 70.127 22.0204 70.8017C22.4322 71.4605 23.005 72.0035 23.6849 72.3794C24.3648 72.7553 25.1293 72.9518 25.9062 72.9502H75.0947C75.8716 72.9518 76.6361 72.7553 77.316 72.3794C77.9958 72.0035 78.5687 71.4605 78.9804 70.8017C79.3817 70.1067 79.5929 69.3184 79.5929 68.516C79.5929 67.7135 79.3817 66.9252 78.9804 66.2302L71.0719 54.5731M29.929 54.5731V31.716C29.929 30.5035 30.4106 29.3408 31.2679 28.4835C32.1253 27.6262 33.288 27.1445 34.5004 27.1445H66.5004C67.7129 27.1445 68.8756 27.6262 69.7329 28.4835C70.5902 29.3408 71.0719 30.5035 71.0719 31.716V54.5731M29.929 54.5731H71.0719" stroke="url(#paint0_linear_1244_10115)" stroke-width="4" stroke-linecap="round" stroke-linejoin="round"/>
<defs>
<linearGradient id="paint0_linear_1244_10115" x1="21.2871" y1="27.1445" x2="65.791" y2="83.7932" gradientUnits="userSpaceOnUse">
<stop stop-color="#C800C8"/>
<stop offset="1" stop-color="#9600FF"/>
<stop offset="1" stop-color="#9600FF"/>
</linearGradient>
</defs>
</svg>
