<svg width="76" height="63" viewBox="0 0 76 63" fill="none" xmlns="http://www.w3.org/2000/svg">
<path fill-rule="evenodd" clip-rule="evenodd" d="M12.2218 14.918L0.483968 22.7936C0.181448 22.9966 0 23.3359 0 23.6989V37.9994C0 38.6024 0.491542 39.0914 1.09782 39.0914C1.31661 39.0914 1.53034 39.0264 1.71172 38.9047L13.4495 31.0291C13.7521 30.826 13.9334 30.4868 13.9334 30.1238V15.8233C13.9334 15.2202 13.4419 14.7313 12.8356 14.7313C12.6169 14.7313 12.4031 14.7963 12.2218 14.918ZM18.1556 11.5172V61.908C18.1556 62.5111 18.6471 63 19.2534 63C19.4721 63 19.6859 62.935 19.8673 62.8134L35.4051 52.3881C35.7075 52.1851 35.8889 51.8458 35.8889 51.4828V1.09199C35.8889 0.488914 35.3975 0 34.7912 0C34.5724 0 34.3586 0.0650517 34.1773 0.186724L18.6395 10.6119C18.337 10.8149 18.1556 11.1542 18.1556 11.5172ZM40.1111 11.5172V61.908C40.1111 62.5111 40.6026 63 41.2089 63C41.4277 63 41.6414 62.935 41.8228 62.8134L57.3605 52.3881C57.6631 52.1851 57.8445 51.8458 57.8445 51.4828V1.09199C57.8445 0.488914 57.353 0 56.7466 0C56.5279 0 56.3141 0.0650517 56.1328 0.186724L40.595 10.6119C40.2925 10.8149 40.1111 11.1542 40.1111 11.5172ZM74.2883 14.918L62.5505 22.7936C62.248 22.9966 62.0666 23.3359 62.0666 23.6989V37.9994C62.0666 38.6024 62.5582 39.0914 63.1644 39.0914C63.3832 39.0914 63.597 39.0264 63.7783 38.9047L75.5161 31.0291C75.8186 30.826 76 30.4868 76 30.1238V15.8233C76 15.2202 75.5086 14.7313 74.9022 14.7313C74.6835 14.7313 74.4697 14.7963 74.2883 14.918Z" fill="#9043B4"/>
</svg>
