<svg width="256" height="91" viewBox="0 0 256 91" fill="none" xmlns="http://www.w3.org/2000/svg">
<path fill-rule="evenodd" clip-rule="evenodd" d="M248.069 68.1703V59.8473H249.23V66.458L254.97 59.8473H256V68.1703H254.839V61.5436L249.116 68.1703H248.069ZM251.961 58.6426C251.242 58.6426 250.661 58.4655 250.22 58.1116C249.778 57.7575 249.546 57.2475 249.524 56.5816H250.358C250.369 57.0045 250.522 57.3373 250.816 57.5804C251.111 57.8234 251.492 57.945 251.961 57.945C252.43 57.945 252.814 57.8234 253.114 57.5804C253.414 57.3373 253.569 57.0044 253.58 56.5816H254.414C254.403 57.2475 254.174 57.7575 253.727 58.1116C253.28 58.4655 252.691 58.6426 251.961 58.6426H251.961ZM243.605 68.1703V59.8473H244.766V68.1703H243.605ZM238.634 68.186L235.233 68.1703V59.8473H236.394V62.7485L238.846 62.7803C239.926 62.7908 240.749 63.0232 241.316 63.4778C241.883 63.9324 242.166 64.5875 242.166 65.4435C242.166 66.3314 241.861 67.0131 241.25 67.4886C240.64 67.9642 239.768 68.1967 238.634 68.1861L238.634 68.186ZM194.401 80.5054V79.5224H202.07V80.5054H198.816V87.8453H197.655V80.5054H194.401ZM185.456 83.676C185.456 82.8516 185.639 82.1224 186.004 81.4882C186.369 80.8542 186.871 80.3548 187.509 79.9902C188.146 79.6255 188.863 79.4433 189.659 79.4433C190.465 79.4433 191.182 79.6203 191.809 79.9742C192.436 80.3284 192.929 80.8251 193.289 81.4644C193.649 82.1039 193.829 82.841 193.829 83.676C193.829 83.7288 193.826 83.7843 193.821 83.8423C193.815 83.9005 193.812 83.9612 193.812 84.0246H186.596C186.635 84.5356 186.776 84.9927 187.018 85.3959C187.307 85.8769 187.71 86.2519 188.228 86.5214C188.746 86.7908 189.337 86.9257 190.002 86.9257C190.526 86.9257 191.014 86.8359 191.466 86.6562C191.918 86.4766 192.308 86.2018 192.635 85.832L193.289 86.5611C192.908 87.005 192.431 87.3432 191.858 87.5757C191.286 87.8082 190.656 87.9245 189.969 87.9245C189.076 87.9245 188.291 87.7421 187.615 87.3776C186.939 87.0129 186.41 86.5109 186.029 85.8716C185.647 85.2321 185.456 84.5003 185.456 83.6759L185.456 83.676ZM225.29 68.1703V59.8473H229.084C230.054 59.8473 230.82 60.027 231.382 60.3864C231.943 60.7459 232.224 61.2742 232.224 61.9717C232.224 62.6482 231.957 63.1685 231.422 63.5331C231.226 63.6669 231.008 63.7761 230.766 63.8609C231.192 63.9526 231.536 64.0996 231.799 64.302C232.278 64.6719 232.518 65.2056 232.518 65.9031C232.518 66.6216 232.248 67.1792 231.709 67.5754C231.169 67.9719 230.332 68.1702 229.199 68.1702H225.29V68.1703ZM218.423 68.2495C217.594 68.2495 216.85 68.0671 216.19 67.7025C215.531 67.3379 215.01 66.836 214.629 66.1965C214.247 65.557 214.056 64.8252 214.056 64.0009C214.056 63.1659 214.247 62.4314 214.629 61.7972C215.01 61.1632 215.528 60.6665 216.182 60.3072C216.836 59.9478 217.583 59.7682 218.423 59.7682C219.273 59.7682 220.028 59.9478 220.687 60.3072C221.347 60.6665 221.865 61.1632 222.241 61.7972C222.617 62.4314 222.805 63.1659 222.805 64.0009C222.805 64.8252 222.617 65.557 222.241 66.1965C221.865 66.836 221.344 67.3379 220.679 67.7025C220.014 68.0671 219.262 68.2495 218.423 68.2495ZM180.583 80.5055H177.329V79.5225H184.998V80.5055H181.744V87.8454H180.583V80.5055ZM167.698 87.8454V79.5226H168.858V86.1333L174.598 79.5226H175.628V87.8454H174.467V81.2189L168.744 87.8454H167.698ZM203.853 68.1703V59.8474H205.014V63.5254H210.426V59.8474H211.587V68.1703H210.426V64.4924H205.014V68.1703H203.853ZM157.657 83.6761C157.657 82.8411 157.848 82.1066 158.23 81.4725C158.611 80.8383 159.137 80.3416 159.808 79.9824C160.478 79.6229 161.238 79.4433 162.089 79.4433C162.819 79.4433 163.479 79.5808 164.067 79.8555C164.656 80.1303 165.119 80.5424 165.457 81.0922L164.591 81.6628C164.296 81.24 163.931 80.9283 163.495 80.7274C163.059 80.5267 162.585 80.4262 162.072 80.4262C161.462 80.4262 160.911 80.561 160.421 80.8305C159.93 81.1 159.543 81.4779 159.26 81.964C158.976 82.4502 158.835 83.0209 158.835 83.6762C158.835 84.3314 158.976 84.9021 159.26 85.3883C159.543 85.8745 159.93 86.2521 160.421 86.5217C160.911 86.7911 161.462 86.926 162.072 86.926C162.585 86.926 163.059 86.8256 163.495 86.6248C163.931 86.424 164.296 86.1175 164.591 85.7052L165.457 86.276C165.119 86.8149 164.656 87.2245 164.067 87.5047C163.479 87.7847 162.819 87.9248 162.089 87.9248C161.238 87.9248 160.478 87.7424 159.808 87.3779C159.137 87.0132 158.611 86.5112 158.23 85.8719C157.848 85.2324 157.657 84.5006 157.657 83.6762V83.6761ZM147.273 90.9208V79.5225H148.385V81.1497C148.719 80.6281 149.149 80.223 149.677 79.9345C150.277 79.607 150.953 79.4433 151.705 79.4433C152.523 79.4433 153.256 79.6203 153.904 79.9742C154.553 80.3284 155.063 80.8251 155.433 81.4644C155.804 82.1039 155.989 82.841 155.989 83.676C155.989 84.5214 155.804 85.2613 155.433 85.8953C155.063 86.5296 154.553 87.0263 153.904 87.3855C153.256 87.7449 152.523 87.9245 151.705 87.9245C150.964 87.9245 150.293 87.7581 149.694 87.4251C149.186 87.1433 148.766 86.7555 148.435 86.2615V90.9207H147.273V90.9208ZM192.21 58.6426C191.49 58.6426 190.91 58.4655 190.468 58.1116C190.027 57.7575 189.795 57.2475 189.773 56.5816H190.607C190.618 57.0045 190.771 57.3373 191.065 57.5804C191.359 57.8234 191.741 57.945 192.21 57.945C192.679 57.945 193.063 57.8234 193.362 57.5804C193.662 57.3373 193.818 57.0044 193.828 56.5816H194.662C194.651 57.2475 194.423 57.7575 193.976 58.1116C193.529 58.4655 192.94 58.6426 192.21 58.6426H192.21ZM188.318 68.1703V59.8473H189.479V66.458L195.219 59.8473H196.249V68.1703H195.088V61.5436L189.364 68.1703H188.318ZM161.958 68.2495C161.108 68.2495 160.347 68.0671 159.677 67.7025C159.007 67.3379 158.48 66.836 158.099 66.1965C157.717 65.557 157.526 64.8252 157.526 64.0009C157.526 63.1659 157.717 62.4314 158.099 61.7972C158.48 61.1632 159.007 60.6665 159.677 60.3072C160.347 59.9478 161.108 59.7682 161.958 59.7682C162.688 59.7682 163.348 59.9057 163.937 60.1803C164.525 60.4551 164.989 60.8673 165.327 61.4169L164.46 61.9876C164.166 61.5648 163.8 61.2531 163.364 61.0522C162.928 60.8515 162.454 60.7511 161.942 60.7511C161.331 60.7511 160.781 60.8857 160.29 61.1553C159.799 61.4248 159.412 61.8027 159.129 62.2888C158.846 62.7751 158.704 63.3457 158.704 64.001C158.704 64.6562 158.846 65.2269 159.129 65.713C159.412 66.1993 159.799 66.577 160.29 66.8465C160.781 67.1159 161.331 67.2509 161.942 67.2509C162.454 67.2509 162.928 67.1504 163.364 66.9497C163.8 66.7488 164.166 66.4423 164.46 66.0301L165.327 66.6009C164.989 67.1398 164.525 67.5494 163.937 67.8295C163.348 68.1095 162.688 68.2497 161.958 68.2497V68.2495ZM130.251 68.2495C129.4 68.2495 128.64 68.0671 127.97 67.7025C127.299 67.3379 126.773 66.836 126.392 66.1965C126.01 65.557 125.819 64.8252 125.819 64.0009C125.819 63.1659 126.01 62.4314 126.392 61.7972C126.773 61.1632 127.299 60.6665 127.97 60.3072C128.64 59.9478 129.4 59.7682 130.251 59.7682C130.981 59.7682 131.641 59.9057 132.229 60.1803C132.818 60.4551 133.281 60.8673 133.619 61.4169L132.753 61.9876C132.458 61.5648 132.093 61.2531 131.657 61.0522C131.221 60.8515 130.747 60.7511 130.234 60.7511C129.624 60.7511 129.073 60.8857 128.583 61.1553C128.092 61.4248 127.705 61.8027 127.422 62.2888C127.138 62.7751 126.997 63.3457 126.997 64.001C126.997 64.6562 127.138 65.2269 127.422 65.713C127.705 66.1993 128.092 66.577 128.583 66.8465C129.073 67.1159 129.624 67.2509 130.234 67.2509C130.747 67.2509 131.221 67.1504 131.657 66.9497C132.093 66.7488 132.458 66.4423 132.753 66.0301L133.619 66.6009C133.281 67.1398 132.818 67.5494 132.229 67.8295C131.641 68.1095 130.981 68.2497 130.251 68.2497V68.2495ZM121.192 68.2495C120.341 68.2495 119.581 68.0671 118.911 67.7025C118.24 67.3379 117.714 66.836 117.332 66.1965C116.951 65.557 116.76 64.8252 116.76 64.0009C116.76 63.1659 116.951 62.4314 117.332 61.7972C117.714 61.1632 118.24 60.6665 118.911 60.3072C119.581 59.9478 120.341 59.7682 121.192 59.7682C121.922 59.7682 122.582 59.9057 123.17 60.1803C123.759 60.4551 124.222 60.8673 124.56 61.4169L123.693 61.9876C123.399 61.5648 123.034 61.2531 122.598 61.0522C122.162 60.8515 121.688 60.7511 121.175 60.7511C120.565 60.7511 120.014 60.8857 119.524 61.1553C119.033 61.4248 118.646 61.8027 118.363 62.2888C118.079 62.7751 117.937 63.3457 117.937 64.001C117.937 64.6562 118.079 65.2269 118.363 65.713C118.646 66.1993 119.033 66.577 119.524 66.8465C120.014 67.1159 120.565 67.2509 121.175 67.2509C121.688 67.2509 122.162 67.1504 122.598 66.9497C123.034 66.7488 123.399 66.4423 123.693 66.0301L124.56 66.6009C124.222 67.1398 123.759 67.5494 123.17 67.8295C122.582 68.1095 121.922 68.2497 121.192 68.2497V68.2495ZM103.929 41.0124L100.119 41.0128V46.6002H93.8668V25.2919H103.928C109.985 25.2919 113.697 28.3225 113.697 33.1521C113.697 37.9822 109.887 41.0124 103.928 41.0124H103.929ZM96.0908 68.1703V57.0733H100.375C101.345 57.0733 102.179 57.2236 102.877 57.5249C103.575 57.8261 104.112 58.2594 104.488 58.8249C104.864 59.3902 105.052 60.0745 105.052 60.8779C105.052 61.6599 104.864 62.3337 104.488 62.8991C104.112 63.4645 103.575 63.9004 102.877 64.2069C102.179 64.5134 101.345 64.6665 100.375 64.6665H97.3008V68.1703H96.0908V68.1703ZM141.832 35.8986C141.832 29.4587 146.911 24.8182 153.945 24.8182C157.95 24.8182 161.271 26.239 163.421 28.7959L159.513 32.3003C158.146 30.6903 156.485 29.8379 154.336 29.8379C150.721 29.8379 148.181 32.3003 148.181 35.899C148.181 39.5925 150.721 41.96 154.336 41.96C156.387 41.96 158.146 41.1078 159.513 39.4978L163.421 43.0021C161.271 45.5591 158.048 46.9798 153.945 46.9798C146.911 46.9796 141.832 42.4337 141.832 35.8988V35.8986ZM139.878 35.8986C139.878 42.3383 134.701 46.979 127.667 46.979C120.633 46.979 115.456 42.3386 115.456 35.8986C115.456 29.4587 120.633 24.8182 127.667 24.8182C134.701 24.8182 139.878 29.4589 139.878 35.8986ZM112.983 67.7025C112.318 68.0671 111.565 68.2495 110.726 68.2495C109.897 68.2495 109.154 68.0671 108.494 67.7025C107.834 67.3379 107.314 66.836 106.932 66.1965C106.551 65.557 106.36 64.8252 106.36 64.0009C106.36 63.1659 106.551 62.4314 106.932 61.7972C107.314 61.1632 107.832 60.6665 108.486 60.3072C109.14 59.9478 109.887 59.7682 110.726 59.7682C111.576 59.7682 112.331 59.9478 112.991 60.3072C113.65 60.6665 114.168 61.1632 114.544 61.7972C114.921 62.4314 115.109 63.1659 115.109 64.0009C115.109 64.8252 114.921 65.557 114.544 66.1965C114.168 66.836 113.648 67.3379 112.983 67.7025ZM98.1295 87.8239L94.2919 79.5225H95.5021L98.7415 86.5959L101.978 79.5225H103.122L98.8216 88.844C98.5818 89.383 98.3173 89.8112 98.0286 90.1281C97.7397 90.4452 97.4263 90.6697 97.0882 90.8018C96.7502 90.9341 96.3741 91 95.96 91C95.5565 91 95.1724 90.9365 94.8072 90.8098C94.4419 90.6829 94.1284 90.4927 93.8668 90.2391L94.4065 89.3988C94.6244 89.5997 94.8617 89.7557 95.118 89.8666C95.3739 89.9776 95.6603 90.0329 95.9763 90.0329C96.3579 90.0329 96.6878 89.9299 96.9659 89.7239C97.2438 89.5179 97.5081 89.1559 97.7588 88.6379L98.1296 87.8238L98.1295 87.8239ZM172.31 46.6002H166.058V25.2919H172.31V33.2469H180.809V25.2919H187.061V46.6002H180.809V38.2663H172.31V46.6002ZM152.768 58.1116C152.321 58.4655 151.732 58.6426 151.002 58.6426C150.282 58.6426 149.702 58.4655 149.26 58.1116C148.819 57.7575 148.587 57.2475 148.565 56.5816H149.399C149.41 57.0045 149.563 57.3373 149.857 57.5804C150.151 57.8234 150.533 57.945 151.002 57.945C151.471 57.945 151.855 57.8234 152.155 57.5804C152.454 57.3373 152.61 57.0044 152.621 56.5816H153.455C153.444 57.2475 153.215 57.7575 152.768 58.1116H152.768ZM147.11 68.1703V59.8473H148.271V66.458L154.011 59.8473H155.041V68.1703H153.88V61.5436L148.156 68.1703H147.11ZM142.629 68.1703V61.5436L136.906 68.1703H135.86V59.8473H137.021V66.458L142.76 59.8473H143.79V68.1703H142.629ZM115.975 87.8453V79.5225H117.136V86.1332L122.876 79.5225H123.906V87.8453H122.745V81.2188L117.022 87.8453H115.975ZM111.511 87.8453V84.1673H106.098V87.8453H104.937V79.5225H106.098V83.2004H111.511V79.5225H112.672V87.8453H111.511ZM224.379 40.7286L215.88 25.3861L222.424 25.3864L227.504 35.7095L232.779 25.3864L238.934 25.2918L229.849 41.7705C227.895 45.3691 225.062 47.1686 221.741 47.1686C220.471 47.1686 219.201 46.8844 217.833 46.4108L219.299 41.9599C220.178 42.2442 220.862 42.3386 221.448 42.3386C222.62 42.3386 223.499 41.8651 224.379 40.7287L224.379 40.7286ZM214.707 35.8985C214.707 42.3382 209.529 46.9789 202.496 46.9789C195.462 46.9789 190.285 42.3385 190.285 35.8985C190.285 29.4586 195.462 24.8181 202.496 24.8181C209.529 24.8181 214.707 29.4588 214.707 35.8985ZM177.067 68.1703V59.8473H178.228V66.458L183.968 59.8473H184.998V68.1703H183.837V61.5436L178.114 68.1703H177.067ZM167.567 68.1703V59.8473H168.728V63.4935H170.708L173.731 59.8473H174.991L171.611 63.8685L175.236 68.1703H173.862L170.684 64.4607H168.728V68.1703H167.567L167.567 68.1703ZM136.334 83.676C136.334 82.8516 136.516 82.1224 136.882 81.4882C137.247 80.8542 137.748 80.3548 138.386 79.9902C139.024 79.6255 139.74 79.4433 140.536 79.4433C141.343 79.4433 142.06 79.6203 142.687 79.9742C143.314 80.3284 143.807 80.8251 144.167 81.4644C144.526 82.1039 144.706 82.841 144.706 83.676C144.706 83.7288 144.703 83.7843 144.698 83.8423C144.693 83.9005 144.69 83.9612 144.69 84.0246H137.473C137.512 84.5356 137.653 84.9927 137.896 85.3959C138.184 85.8769 138.588 86.2519 139.106 86.5214C139.623 86.7908 140.215 86.9257 140.88 86.9257C141.403 86.9257 141.891 86.8359 142.343 86.6562C142.796 86.4766 143.185 86.2018 143.512 85.832L144.167 86.5611C143.785 87.005 143.308 87.3432 142.736 87.5757C142.164 87.8082 141.534 87.9245 140.847 87.9245C139.953 87.9245 139.168 87.7421 138.492 87.3776C137.816 87.0129 137.288 86.5109 136.906 85.8716C136.525 85.2321 136.334 84.5003 136.334 83.6759L136.334 83.676ZM127.225 87.8453V79.5225H131.019C131.989 79.5225 132.755 79.7021 133.317 80.0616C133.878 80.4209 134.159 80.9493 134.159 81.6468C134.159 82.3233 133.892 82.8437 133.357 83.2082C133.161 83.342 132.943 83.4512 132.701 83.5359C133.127 83.6277 133.471 83.7747 133.734 83.977C134.213 84.3469 134.453 84.8808 134.453 85.5783C134.453 86.2967 134.183 86.8542 133.644 87.2505C133.104 87.647 132.267 87.8452 131.134 87.8452H127.225V87.8453ZM83.3363 88.5182H54.8849L33.9802 62.403H23.0033V88.5182H0V42.4496H18.0079L0 19.9531V0H52.766C70.4673 0 84.9507 14.0405 84.9507 31.2013C84.9507 45.4333 74.9892 57.5184 61.4925 61.2295L83.3364 88.5182H83.3363ZM52.6177 42.9669C58.981 42.9669 64.1878 37.9193 64.1878 31.7502C64.1878 25.5812 58.981 20.5336 52.6177 20.5336H28.3718L46.329 42.9669H52.6176H52.6177ZM100.119 30.0269V36.2775H103.538C106.175 36.2775 107.445 35.1412 107.445 33.152C107.445 31.1633 106.175 30.0269 103.538 30.0269H100.119ZM121.61 35.8985C121.61 39.5917 124.247 41.9594 127.569 41.9594C130.988 42.0545 133.528 39.5921 133.528 35.8985C133.528 32.2049 130.89 29.8375 127.569 29.8375C124.247 29.8375 121.61 32.2054 121.61 35.8985ZM196.536 35.8985C196.536 39.5917 199.174 41.9594 202.496 41.9594C205.915 42.0545 208.455 39.5921 208.455 35.8985C208.455 32.2049 205.817 29.8375 202.496 29.8375C199.174 29.8375 196.536 32.2054 196.536 35.8985ZM238.552 63.6204L236.394 63.5885V67.2983L238.552 67.3301C239.359 67.3405 239.967 67.1846 240.376 66.8623C240.784 66.54 240.989 66.067 240.989 65.4434C240.989 64.82 240.787 64.3629 240.384 64.0722C239.98 63.7815 239.37 63.631 238.552 63.6205V63.6204ZM231.374 65.8398C231.374 65.3325 231.205 64.9626 230.867 64.7301C230.529 64.4977 229.995 64.3812 229.264 64.3812H226.419V67.2825H229.15C229.88 67.2825 230.433 67.1688 230.81 66.9415C231.186 66.7142 231.374 66.347 231.374 65.8398H231.374ZM229.003 63.541C229.667 63.541 230.177 63.4195 230.531 63.1764C230.886 62.9335 231.063 62.5792 231.063 62.1142C231.063 61.6494 230.886 61.3005 230.531 61.068C230.177 60.8355 229.667 60.7192 229.003 60.7192H226.419V63.541H229.003ZM221.627 64.0008C221.627 63.3455 221.489 62.7749 221.21 62.2886C220.932 61.8025 220.554 61.4246 220.074 61.1552C219.594 60.8855 219.049 60.7509 218.439 60.7509C217.828 60.7509 217.283 60.8855 216.804 61.1552C216.324 61.4246 215.942 61.8025 215.659 62.2886C215.376 62.7749 215.234 63.3455 215.234 64.0008C215.234 64.6455 215.376 65.2135 215.659 65.7049C215.942 66.1964 216.324 66.5768 216.804 66.8463C217.283 67.1158 217.823 67.2507 218.423 67.2507C219.044 67.2507 219.594 67.1158 220.074 66.8463C220.554 66.5768 220.932 66.1964 221.21 65.7049C221.489 65.2135 221.627 64.6455 221.627 64.0008ZM191.245 80.8065C190.787 80.5422 190.258 80.4101 189.659 80.4101C189.07 80.4101 188.541 80.5422 188.072 80.8065C187.604 81.0707 187.238 81.4406 186.977 81.9161C186.768 82.2953 186.643 82.718 186.6 83.1844H192.719C192.678 82.7155 192.549 82.2901 192.332 81.9083C192.065 81.4381 191.703 81.0708 191.245 80.8066L191.245 80.8065ZM154.403 85.3801C154.687 84.8886 154.828 84.3205 154.828 83.6759C154.828 83.031 154.687 82.4658 154.403 81.9797C154.12 81.4933 153.738 81.1128 153.258 80.8381C152.779 80.5634 152.234 80.4259 151.623 80.4259C151.013 80.4259 150.465 80.5634 149.98 80.8381C149.495 81.1128 149.113 81.4933 148.835 81.9797C148.557 82.4658 148.418 83.031 148.418 83.6759C148.418 84.3205 148.557 84.8886 148.835 85.3801C149.113 85.8716 149.495 86.2519 149.98 86.5214C150.465 86.7908 151.013 86.9257 151.623 86.9257C152.234 86.9257 152.779 86.7908 153.258 86.5214C153.738 86.2519 154.12 85.8716 154.403 85.3801ZM143.596 83.1844C143.556 82.7155 143.427 82.2901 143.21 81.9083C142.943 81.4381 142.58 81.0708 142.123 80.8066C141.665 80.5423 141.136 80.4102 140.536 80.4102C139.948 80.4102 139.419 80.5423 138.95 80.8066C138.481 81.0708 138.116 81.4407 137.855 81.9162C137.646 82.2954 137.521 82.7181 137.478 83.1845H143.596L143.596 83.1844ZM132.998 81.7893C132.998 81.3245 132.821 80.9756 132.466 80.7431C132.112 80.5107 131.602 80.3944 130.937 80.3944H128.354V83.2161H130.937C131.602 83.2161 132.112 83.0945 132.466 82.8515C132.821 82.6085 132.998 82.2543 132.998 81.7893ZM131.199 84.0563H128.354V86.9576H131.085C131.815 86.9576 132.368 86.844 132.744 86.6165C133.121 86.3893 133.308 86.0221 133.308 85.5148C133.308 85.0076 133.14 84.6377 132.802 84.4051C132.464 84.1727 131.93 84.0563 131.199 84.0563H131.199ZM110.726 67.2507C111.347 67.2507 111.898 67.1158 112.377 66.8463C112.857 66.5768 113.236 66.1964 113.514 65.7049C113.792 65.2135 113.931 64.6455 113.931 64.0008C113.931 63.3455 113.792 62.7749 113.514 62.2886C113.236 61.8025 112.857 61.4246 112.377 61.1552C111.898 60.8855 111.353 60.7509 110.742 60.7509C110.132 60.7509 109.587 60.8855 109.107 61.1552C108.627 61.4246 108.246 61.8025 107.962 62.2886C107.679 62.7749 107.537 63.3455 107.537 64.0008C107.537 64.6455 107.679 65.2135 107.962 65.7049C108.246 66.1964 108.627 66.5768 109.107 66.8463C109.587 67.1158 110.126 67.2507 110.726 67.2507ZM100.342 63.6363C101.487 63.6363 102.356 63.3957 102.95 62.915C103.545 62.4341 103.842 61.7549 103.842 60.8779C103.842 59.9901 103.545 59.3031 102.95 58.817C102.356 58.3308 101.487 58.0877 100.342 58.0877H97.3006V63.6363H100.342Z" fill="white"/>
</svg>
