<svg width="56" height="47" viewBox="0 0 56 47" fill="none" xmlns="http://www.w3.org/2000/svg">
<path fill-rule="evenodd" clip-rule="evenodd" d="M9.00554 11.1293L0.356608 17.0048C0.133699 17.1562 0 17.4093 0 17.6802V28.3487C0 28.7986 0.362189 29.1634 0.808919 29.1634C0.970137 29.1634 1.12762 29.1149 1.26127 29.0241L9.91017 23.1487C10.1331 22.9972 10.2667 22.7442 10.2667 22.4733V11.8047C10.2667 11.3548 9.90455 10.99 9.45782 10.99C9.29663 10.99 9.13914 11.0385 9.00554 11.1293ZM13.3778 8.59219V46.1853C13.3778 46.6353 13.74 47 14.1867 47C14.3479 47 14.5054 46.9515 14.639 46.8608L26.0879 39.0832C26.3108 38.9317 26.4445 38.6786 26.4445 38.4078V0.81466C26.4445 0.364745 26.0823 0 25.6356 0C25.4744 0 25.3169 0.0485307 25.1833 0.139302L13.7344 7.9168C13.5115 8.06823 13.3778 8.32141 13.3778 8.59219ZM29.5555 8.59219V46.1853C29.5555 46.6353 29.9177 47 30.3645 47C30.5256 47 30.6831 46.9515 30.8168 46.8608L42.2656 39.0832C42.4886 38.9317 42.6222 38.6786 42.6222 38.4078V0.81466C42.6222 0.364745 42.2601 0 41.8133 0C41.6522 0 41.4946 0.0485307 41.361 0.139302L29.9121 7.9168C29.6892 8.06823 29.5555 8.32141 29.5555 8.59219ZM54.7388 11.1293L46.0899 17.0048C45.8669 17.1562 45.7333 17.4093 45.7333 17.6802V28.3487C45.7333 28.7986 46.0955 29.1634 46.5422 29.1634C46.7034 29.1634 46.8609 29.1149 46.9945 29.0241L55.6434 23.1487C55.8663 22.9972 56 22.7442 56 22.4733V11.8047C56 11.3548 55.6379 10.99 55.1911 10.99C55.0299 10.99 54.8724 11.0385 54.7388 11.1293Z" fill="#DFDFDF"/>
</svg>
