<svg width="40" height="34" viewBox="0 0 40 34" fill="none" xmlns="http://www.w3.org/2000/svg">
<path fill-rule="evenodd" clip-rule="evenodd" d="M6.43253 8.3142L0.25472 12.4395C0.0954991 12.5458 0 12.7236 0 12.9137V20.4044C0 20.7203 0.258706 20.9764 0.577799 20.9764C0.692955 20.9764 0.805441 20.9424 0.900905 20.8786L7.07869 16.7533C7.23794 16.647 7.33336 16.4693 7.33336 16.2791V8.78841C7.33336 8.47249 7.07468 8.21641 6.75558 8.21641C6.64045 8.21641 6.52796 8.25046 6.43253 8.3142ZM9.5556 6.53282V32.928C9.5556 33.2439 9.81426 33.5 10.1334 33.5C10.2485 33.5 10.361 33.466 10.4565 33.4022L18.6342 27.9414C18.7934 27.8351 18.8889 27.6573 18.8889 27.4672V1.072C18.8889 0.756098 18.6302 0.5 18.3111 0.5C18.196 0.5 18.0835 0.534075 17.9881 0.597808L9.81027 6.0586C9.65105 6.16493 9.5556 6.34269 9.5556 6.53282ZM21.1111 6.53282V32.928C21.1111 33.2439 21.3698 33.5 21.6889 33.5C21.804 33.5 21.9165 33.466 22.012 33.4022L30.1897 27.9414C30.349 27.8351 30.4445 27.6573 30.4445 27.4672V1.072C30.4445 0.756098 30.1858 0.5 29.8667 0.5C29.7515 0.5 29.639 0.534075 29.5436 0.597808L21.3658 6.0586C21.2066 6.16493 21.1111 6.34269 21.1111 6.53282ZM39.0991 8.3142L32.9213 12.4395C32.7621 12.5458 32.6666 12.7236 32.6666 12.9137V20.4044C32.6666 20.7203 32.9254 20.9764 33.2444 20.9764C33.3596 20.9764 33.4721 20.9424 33.5675 20.8786L39.7453 16.7533C39.9045 16.647 40 16.4693 40 16.2791V8.78841C40 8.47249 39.7413 8.21641 39.4222 8.21641C39.3071 8.21641 39.1946 8.25046 39.0991 8.3142Z" fill="#F6F4FF"/>
</svg>
