<svg width="256" height="92" viewBox="0 0 256 92" fill="none" xmlns="http://www.w3.org/2000/svg">
<path d="M255.411 55.6642C254.891 54.8006 253.918 54.2809 252.897 54.2414V54.1229C253.486 53.9649 254.069 53.6814 254.506 53.253C255.521 52.2593 255.605 51.0804 255.605 49.8551C255.605 48.4322 255.497 46.9203 254.427 45.8243C253.222 44.5896 251.64 44.6384 250.383 44.6384H240.253V47.5631H249.559C250.147 47.5631 250.786 47.5918 251.247 47.9589C251.925 48.4996 251.876 49.4205 251.876 50.1316C251.876 50.7249 251.915 51.6327 251.404 52.147C250.973 52.5807 250.107 52.7395 248.892 52.7395H240.568V55.6642H249.362C250.895 55.6642 251.412 56.05 251.562 56.1778C252.237 56.7602 252.268 57.7586 252.268 58.3512C252.268 59.1412 252.233 60.2178 251.325 60.7221C250.742 61.0458 249.362 61.0776 249.048 61.0776H240.214V64.0023H250.147C251.483 64.0023 253.17 63.9187 254.271 63.2115C255.878 62.1806 256.017 60.2078 255.999 58.8252C255.978 57.2443 255.793 56.3009 255.41 55.6642H255.411ZM43.7333 22.6085L51.4131 27.0808L59.0928 31.5531L53.1195 35.0316L48.4264 32.299L43.7333 29.5663V22.6101V22.6085ZM22.3996 31.5523L30.0794 27.08L37.7592 22.6077V29.564L33.0661 32.2967L28.373 35.0293L22.3996 31.5508V31.5523ZM19.413 54.6581V45.7143V36.7705L25.3863 40.249V45.7151V51.1811L19.413 54.6596V54.6581ZM37.7599 68.8193L30.0802 64.347L22.4004 59.8747L28.3737 56.3962L33.0668 59.1288L37.7599 61.8614V68.8177V68.8193ZM59.0936 59.8755L51.4138 64.3478L43.734 68.8201V61.8638L48.4272 59.1311L53.1203 56.3985L59.0936 59.877V59.8755ZM2.98667 20.2484L20.3737 10.1242L37.7607 0V6.95628L23.3604 15.3416L8.96 23.727L2.98667 20.2484ZM0 65.9627V45.7143V25.4658L5.97333 28.9444V45.7143V62.4842L0 65.9627ZM37.7599 91.4286L20.3729 81.3043L2.9859 71.1801L8.95923 67.7016L23.3596 76.0869L37.7599 84.4723V91.4286ZM78.5066 71.1801L61.1195 81.3043L43.7325 91.4286V84.4723L58.1329 76.0869L72.5332 67.7016L78.5066 71.1801ZM81.4932 25.4658V45.7143V65.9627L75.5199 62.4842V45.7143V28.9444L81.4932 25.4658ZM43.7333 0L61.1203 10.1242L78.5073 20.2484L72.534 23.727L58.1336 15.3416L43.7333 6.95628V0ZM158.654 22.6565C159.338 22.5024 160.231 22.4249 161.334 22.4249C162.437 22.4249 163.33 22.5024 164.014 22.6565C164.698 22.8107 165.277 23.0942 165.752 23.5062C166.227 23.9183 166.558 24.4791 166.747 25.1901C166.936 25.9004 167.031 26.8221 167.031 27.9545C167.031 29.0869 166.936 30.0086 166.747 30.7189C166.558 31.4292 166.227 31.993 165.752 32.4105C165.277 32.8272 164.698 33.1107 164.014 33.2602C163.33 33.4097 162.437 33.484 161.334 33.484C160.231 33.484 159.338 33.4097 158.654 33.2602C157.969 33.1107 157.39 32.828 156.916 32.4105C156.441 31.9938 156.109 31.4299 155.92 30.7189C155.731 30.0086 155.637 29.0869 155.637 27.9545C155.637 26.8221 155.731 25.9004 155.92 25.1901C156.109 24.4798 156.441 23.9183 156.916 23.5062C157.39 23.0942 157.97 22.8114 158.654 22.6565ZM159.059 25.3055C158.656 25.7842 158.454 26.6672 158.454 27.9545C158.454 29.2418 158.656 30.1248 159.059 30.6035C159.462 31.0821 160.22 31.3215 161.333 31.3215C162.446 31.3215 163.204 31.0821 163.607 30.6035C164.01 30.1248 164.212 29.2418 164.212 27.9545C164.212 26.6672 164.01 25.7842 163.607 25.3055C163.204 24.8268 162.446 24.5875 161.333 24.5875C160.22 24.5875 159.462 24.8268 159.059 25.3055ZM143.531 33.3601V31.1976H149.472C149.697 31.1976 149.87 31.1488 149.993 31.0512C150.116 30.9536 150.187 30.8606 150.207 30.7731C150.228 30.6856 150.238 30.5802 150.238 30.4563C150.238 30.0442 149.962 29.7507 149.411 29.5756L145.215 28.3092C144.551 28.1133 144.084 27.7632 143.813 27.2589C143.543 26.7547 143.408 26.0956 143.408 25.2815C143.408 23.459 144.235 22.5473 145.888 22.5473H152.504V24.7099H146.96C146.46 24.7099 146.21 24.9469 146.21 25.4201C146.21 25.8523 146.496 26.156 147.068 26.331L150.835 27.4433C151.641 27.6803 152.213 28.025 152.55 28.4781C152.887 28.9312 153.055 29.6004 153.055 30.4857C153.055 32.4012 152.239 33.3586 150.604 33.3586H143.529L143.531 33.3601ZM140.521 33.3601H138.07V30.9815H140.521V33.3601ZM124.754 33.3601V24.2165C124.754 23.1042 125.296 22.5481 126.378 22.5481H132.105C133.167 22.5481 133.91 22.8417 134.333 23.4288C134.757 24.0159 134.969 24.9066 134.969 26.101C134.969 28.5827 134.157 29.8235 132.534 29.8235H131.768V29.901L135.183 33.3609H131.799L129.379 30.55C129.338 30.4981 129.256 30.4083 129.134 30.2797C129.012 30.1511 128.92 30.0504 128.858 29.9784C128.797 29.9064 128.725 29.8134 128.644 29.7003C128.563 29.5873 128.503 29.4742 128.468 29.3603C128.432 29.2472 128.414 29.1341 128.414 29.0203V28.7732C128.414 28.4022 128.542 28.1474 128.798 28.0087C129.053 27.8701 129.451 27.8004 129.992 27.8004H130.896C131.386 27.8004 131.717 27.6764 131.891 27.4293C132.065 27.1823 132.151 26.7702 132.151 26.1939C132.151 25.6378 132.055 25.2521 131.86 25.0352C131.666 24.8191 131.309 24.7107 130.788 24.7107H128.231C127.965 24.7107 127.779 24.7649 127.672 24.8725C127.564 24.981 127.511 25.1684 127.511 25.4364V33.3601H124.755H124.754ZM114.394 28.9118V30.4873C114.394 30.7963 114.445 31.0024 114.547 31.1054C114.649 31.2084 114.853 31.2595 115.16 31.2595H117.717C118.136 31.2595 118.437 31.1697 118.62 30.9892C118.804 30.8087 118.896 30.5082 118.896 30.0861C118.896 29.6639 118.807 29.3626 118.628 29.1822C118.449 29.0017 118.166 28.9118 117.778 28.9118H114.393H114.394ZM114.394 25.3442V26.9042H117.702C118.08 26.9042 118.35 26.819 118.514 26.6494C118.677 26.4797 118.759 26.1831 118.759 25.761C118.759 25.3698 118.674 25.0863 118.506 24.9113C118.338 24.7362 118.064 24.6487 117.687 24.6487H115.083C114.817 24.6487 114.636 24.6975 114.539 24.7951C114.443 24.8927 114.394 25.0755 114.394 25.3435V25.3442ZM119.954 27.877C120.607 27.97 121.064 28.2217 121.324 28.6338C121.585 29.0458 121.715 29.6221 121.715 30.3634C121.715 31.3618 121.521 32.1115 121.133 32.6103C120.745 33.1099 120.041 33.3593 119.02 33.3593H113.261C112.179 33.3593 111.638 32.8086 111.638 31.7064V24.2157C111.638 23.1035 112.179 22.5473 113.261 22.5473H118.866C119.785 22.5473 120.457 22.789 120.88 23.2731C121.304 23.7572 121.516 24.5139 121.516 25.5433C121.516 26.8817 120.995 27.6385 119.954 27.8135V27.8755V27.877ZM100.297 22.6565C100.981 22.5024 101.875 22.4249 102.977 22.4249C104.08 22.4249 104.973 22.5024 105.658 22.6565C106.342 22.8107 106.921 23.0942 107.396 23.5062C107.87 23.9183 108.202 24.4791 108.391 25.1901C108.58 25.9004 108.674 26.8221 108.674 27.9545C108.674 29.0869 108.58 30.0086 108.391 30.7189C108.202 31.4292 107.87 31.993 107.396 32.4105C106.921 32.8272 106.341 33.1107 105.658 33.2602C104.973 33.4097 104.08 33.484 102.977 33.484C101.875 33.484 100.981 33.4097 100.297 33.2602C99.6129 33.1107 99.0338 32.828 98.5592 32.4105C98.0846 31.9938 97.7529 31.4299 97.5639 30.7189C97.375 30.0086 97.2805 29.0869 97.2805 27.9545C97.2805 26.8221 97.375 25.9004 97.5639 25.1901C97.7529 24.4798 98.0846 23.9183 98.5592 23.5062C99.0338 23.0942 99.6137 22.8114 100.297 22.6565ZM100.703 25.3055C100.299 25.7842 100.097 26.6672 100.097 27.9545C100.097 29.2418 100.299 30.1248 100.703 30.6035C101.106 31.0821 101.864 31.3215 102.977 31.3215C104.089 31.3215 104.847 31.0821 105.251 30.6035C105.654 30.1248 105.856 29.2418 105.856 27.9545C105.856 26.6672 105.654 25.7842 105.251 25.3055C104.847 24.8268 104.089 24.5875 102.977 24.5875C101.864 24.5875 101.106 24.8268 100.703 25.3055ZM230.518 59.6346C229.393 61.1001 227.787 61.2945 225.641 61.2945C223.651 61.2945 221.896 61.1736 220.762 59.6346C220.063 58.685 219.552 57.146 219.552 54.301C219.552 51.3778 220.018 49.8729 220.762 48.9271C222.007 47.3447 224.002 47.3075 225.641 47.3075C227.318 47.3075 229.24 47.3393 230.518 48.9271C231.307 49.907 231.787 51.3383 231.767 54.301C231.748 57.0669 231.303 58.613 230.518 59.6346ZM225.641 44.4231C223.339 44.4231 220.144 44.4301 218.031 46.4772C216.515 47.9466 215.807 50.5072 215.846 52.6806H213.427V44.6198H209.836V63.9806H213.427V55.5643H215.846C215.808 57.7377 216.425 60.5881 218.031 62.1628C220.132 64.2223 223.377 64.2169 225.641 64.2169C227.904 64.2169 231.134 64.206 233.25 62.1628C235.308 60.1768 235.435 56.9082 235.435 54.3002C235.435 50.9418 235.087 48.1712 233.25 46.4377C231.108 44.4177 227.982 44.4223 225.641 44.4223V44.4231ZM196.611 44.4231V47.347C197.901 47.4261 199.271 47.7816 200.17 48.9271C200.913 49.8752 201.382 51.3778 201.382 54.301C201.382 57.146 200.874 58.7253 200.17 59.6346C198.917 61.2534 196.885 61.2945 195.283 61.2945C193.133 61.2945 191.523 61.1001 190.396 59.6346C189.608 58.6122 189.144 57.0669 189.144 54.301C189.144 51.3376 189.615 49.9147 190.396 48.9271C191.333 47.7421 192.624 47.4261 193.954 47.347V44.4231C191.842 44.4634 189.413 44.774 187.659 46.4385C185.583 48.409 185.431 51.6544 185.431 54.301C185.431 56.4744 185.43 59.9917 187.659 62.1635C189.769 64.2184 193.015 64.2177 195.283 64.2177C197.433 64.2177 200.875 64.2176 202.908 62.1635C204.979 60.0699 205.057 56.3954 205.057 54.301C205.057 51.7721 204.822 48.3741 202.908 46.4385C201.265 44.7786 198.684 44.4634 196.611 44.4231ZM169.579 59.3C168.892 58.2536 168.676 57.4821 168.676 54.5977C168.676 51.7132 168.912 50.6459 169.736 49.381C170.56 48.1162 172.641 47.5631 174.8 47.5631H180.807V44.6384H173.074C171.699 44.6384 168.559 44.9947 166.793 47.0883C165.026 49.182 164.909 52.147 164.909 54.5969C164.909 57.0468 165.046 59.7144 166.872 61.7491C168.697 63.7839 171.151 64.0023 172.996 64.0023H181.123V61.1566H174.606C172.329 61.1566 170.268 60.3456 169.581 59.2992L169.579 59.3ZM156.874 50.8697C156.874 51.6195 156.836 52.8433 156.253 53.5125C155.634 54.2228 154.701 54.222 153.926 54.222H147.099V48.701C147.099 48.3757 147.129 47.9597 147.37 47.715C147.642 47.4392 147.953 47.3989 148.224 47.3989H154.003C154.586 47.3989 155.613 47.4586 156.214 48.1092C156.816 48.7598 156.874 49.9627 156.874 50.8697ZM155.361 44.6384H146.324C145.665 44.6384 144.811 44.7577 144.191 45.3882C143.531 46.059 143.531 46.8087 143.531 47.5577V64.0039H147.1V57.1421H156.021C157.146 57.1421 158.23 56.7827 158.93 56.1956C160.44 54.9299 160.599 52.4483 160.599 50.9108C160.599 49.2935 160.474 47.0938 159.163 45.8227C157.954 44.6493 156.37 44.64 155.362 44.64L155.361 44.6384ZM135.021 58.5603C135.021 59.1505 134.982 60.1373 134.438 60.6895C133.894 61.241 133.193 61.32 132.572 61.32H126.819C126.43 61.32 125.715 61.2906 125.458 60.8863C125.276 60.6005 125.302 59.8522 125.302 59.7028V55.6797H132.572C133.155 55.6797 133.905 55.7076 134.438 56.1925C135.031 56.7331 135.021 57.5743 135.021 58.283V58.5595V58.5603ZM134.359 52.8015H125.301V48.7792C125.301 48.5422 125.291 48.0573 125.574 47.7932C125.796 47.5848 126.235 47.5562 126.584 47.5562H137.741V44.6384H124.29C123.28 44.6384 122.685 45.0195 122.347 45.3479C121.751 45.9265 121.685 46.7685 121.685 47.4384V61.3998C121.685 61.9513 121.718 62.667 122.191 63.2146C122.535 63.6135 123.124 64.0031 124.096 64.0031H134.437C136.303 64.0031 137.308 63.2084 137.702 62.7413C138.24 62.1047 138.752 60.8878 138.752 58.4031C138.752 56.6285 138.489 55.1213 137.78 54.222C136.779 52.9525 135.329 52.8022 134.359 52.8022L134.359 52.8015ZM108.462 44.4231V47.347C109.753 47.4261 111.122 47.7816 112.02 48.9271C112.763 49.8752 113.231 51.3778 113.231 54.301C113.231 57.146 112.722 58.726 112.02 59.6346C110.769 61.2534 108.736 61.2945 107.132 61.2945C104.983 61.2945 103.374 61.1008 102.246 59.6346C101.459 58.6122 100.994 57.0669 100.994 54.301C100.994 51.3376 101.464 49.9147 102.246 48.9271C103.183 47.7421 104.474 47.4261 105.804 47.347V44.4231C103.692 44.4634 101.263 44.7732 99.5085 46.4385C97.4326 48.4082 97.2805 51.6544 97.2805 54.301C97.2805 56.4744 97.2798 59.9924 99.5085 62.1635C101.619 64.2192 104.865 64.2177 107.132 64.2177C109.283 64.2177 112.724 64.2176 114.757 62.1635C116.829 60.0699 116.906 56.3954 116.906 54.301C116.906 51.7721 116.671 48.3741 114.757 46.4385C113.115 44.7786 110.534 44.4634 108.462 44.4231Z" fill="white"/>
</svg>
