<svg width="101" height="100" viewBox="0 0 101 100" fill="none" xmlns="http://www.w3.org/2000/svg">
<circle cx="50.5" cy="50" r="50" fill="#260E4B"/>
<path d="M72.8093 42.7551L72.8292 42.5409L73.5225 35.0476L73.5228 35.0439C73.6307 33.9655 72.8941 32.9659 71.8558 32.7278L72.8093 42.7551ZM72.8093 42.7551L72.9512 42.9167L77.9095 48.5682C77.9097 48.5684 77.9099 48.5686 77.9101 48.5688C78.6302 49.3987 78.6174 50.6008 77.8969 51.3637L77.8906 51.3703L77.8845 51.3772L72.9245 57.0306L72.7827 57.1922L72.8025 57.4064L73.4958 64.8997L73.4962 64.9034C73.6045 65.9868 72.8893 66.9815 71.8309 67.2191L71.8291 67.2195L64.4691 68.8995L64.2597 68.9473L64.1502 69.1321L60.3102 75.6121L60.3081 75.6157C59.7683 76.5441 58.5993 76.9335 57.6064 76.5018L57.604 76.5007L50.6973 73.5407L50.4986 73.4556L50.3004 73.542L43.3979 76.5536C43.3973 76.5538 43.3967 76.5541 43.396 76.5544C42.3777 76.9866 41.2298 76.5997 40.6625 75.6631C40.6622 75.6626 40.6619 75.6621 40.6616 75.6616L36.8234 69.2113L36.7138 69.0272L36.505 68.9795L29.1454 67.2996C28.1069 67.0616 27.37 66.0619 27.4779 64.9834L27.4783 64.9796L28.1716 57.4596L28.1913 57.2455L28.0496 57.0839L23.0912 51.4325C23.0909 51.4321 23.0907 51.4318 23.0904 51.4315C22.3747 50.6064 22.3748 49.3937 23.0907 48.5687C23.0909 48.5685 23.0911 48.5683 23.0912 48.5682L28.0503 42.8892L28.1914 42.7276L28.1716 42.5141L27.4782 35.0474L27.478 35.0449C27.3701 33.9439 28.1017 32.968 29.1699 32.7282L29.1703 32.7281L36.5037 31.0747L36.7126 31.0276L36.8226 30.844L40.6893 24.3906L40.6893 24.3907L40.6926 24.385C41.2324 23.4565 42.4014 23.0671 43.3943 23.4989L43.3967 23.4999L50.3034 26.4599L50.5018 26.5449L50.6997 26.4589L57.63 23.4468C57.6305 23.4466 57.6309 23.4464 57.6314 23.4462C58.1131 23.241 58.6529 23.2178 59.1505 23.381C59.6485 23.5443 60.07 23.8832 60.3365 24.3345L60.3369 24.3352L64.1769 30.8152L64.2864 31L64.4958 31.0478L71.8554 32.7277L72.8093 42.7551ZM53.167 63.8336H53.667V63.3336V58.0003V57.5003H53.167H47.8337H47.3337V58.0003V63.3336V63.8336H47.8337H53.167ZM47.3337 50.0003C47.3337 51.7431 48.7576 53.167 50.5004 53.167C52.2432 53.167 53.667 51.7431 53.667 50.0003V39.3336C53.667 37.5908 52.2432 36.167 50.5004 36.167C48.7576 36.167 47.3337 37.5908 47.3337 39.3336V50.0003Z" fill="url(#paint0_linear_1244_10147)" stroke="url(#paint1_linear_1244_10147)"/>
<defs>
<linearGradient id="paint0_linear_1244_10147" x1="22.0537" y1="22.7734" x2="76.4593" y2="79.6092" gradientUnits="userSpaceOnUse">
<stop stop-color="#C800C8"/>
<stop offset="1" stop-color="#9600FF"/>
<stop offset="1" stop-color="#9600FF"/>
</linearGradient>
<linearGradient id="paint1_linear_1244_10147" x1="22.0537" y1="22.7734" x2="76.4593" y2="79.6092" gradientUnits="userSpaceOnUse">
<stop stop-color="#C800C8"/>
<stop offset="1" stop-color="#9600FF"/>
<stop offset="1" stop-color="#9600FF"/>
</linearGradient>
</defs>
</svg>
