<svg width="160" height="160" viewBox="0 0 160 160" fill="none" xmlns="http://www.w3.org/2000/svg">
<g filter="url(#filter0_b_1454_1032)">
<rect width="160" height="160" rx="10" fill="#260F4A"/>
<g clip-path="url(#clip0_1454_1032)">
<path d="M75.4403 63.7228L82.9443 56.1975M75.4403 63.7228L52.9283 26.0908C53.9123 25.1029 55.0818 24.3191 56.3695 23.7843C57.6572 23.2494 59.0379 22.9741 60.4323 22.9741C61.8266 22.9741 63.2073 23.2494 64.495 23.7843C65.7827 24.3191 66.9522 25.1029 67.9363 26.0908L82.9443 41.1468C84.9342 43.1458 86.0514 45.8515 86.0514 48.6721C86.0514 51.4927 84.9342 54.1985 82.9443 56.1975M75.4403 63.7228L95.6309 83.9734V85.4291L96.3572 84.7018L75.4403 63.7228ZM82.9443 56.1975L80.4659 53.7261C80.4652 53.7268 80.4645 53.7275 80.4638 53.7282L72.9619 61.2514L70.4977 63.7226L72.9617 66.194L116.107 109.467L82.9443 56.1975ZM47.8727 113.308L50.3516 115.796L52.8312 113.308L64.0846 102.018L64.087 102.015C64.2539 101.847 64.4523 101.714 64.6708 101.623C64.8893 101.533 65.1236 101.486 65.3603 101.486C65.5969 101.486 65.8312 101.533 66.0497 101.623C66.2683 101.714 66.4667 101.847 66.6336 102.015L66.6344 102.016C66.9765 102.36 67.1685 102.825 67.1685 103.309C67.1685 103.794 66.977 104.258 66.636 104.601C66.6359 104.601 66.6357 104.602 66.6356 104.602C66.6352 104.602 66.6348 104.602 66.6344 104.603L55.3826 115.892L52.9215 118.361L55.3811 120.832C55.7231 121.176 55.9151 121.641 55.9151 122.125C55.9151 122.609 55.7239 123.073 55.3832 123.417C55.3825 123.418 55.3818 123.418 55.3811 123.419L47.8703 130.94L47.8673 130.943C47.7005 131.111 47.5021 131.244 47.2838 131.334C47.0655 131.425 46.8314 131.472 46.5949 131.472C46.3585 131.472 46.1244 131.425 45.906 131.334C45.6877 131.244 45.4894 131.111 45.3225 130.943L45.3204 130.941L37.8177 123.422C37.8174 123.422 37.8172 123.422 37.8169 123.422C37.4748 123.078 37.2827 122.613 37.2827 122.128C37.2827 121.643 37.475 121.178 37.8173 120.834C37.8174 120.834 37.8176 120.834 37.8177 120.834L45.3213 113.309L45.3225 113.308C45.4894 113.14 45.6877 113.007 45.906 112.917C46.1244 112.826 46.3585 112.779 46.5949 112.779C46.8314 112.779 47.0655 112.826 47.2838 112.917C47.5116 113.011 47.7129 113.147 47.8727 113.308ZM65.4574 28.5617L80.4638 43.616L116.108 109.469C117.942 111.311 118.972 113.806 118.972 116.405C118.972 119.006 117.942 121.501 116.107 123.344C115.202 124.252 114.127 124.973 112.943 125.464C111.76 125.956 110.49 126.209 109.208 126.209C107.926 126.209 106.657 125.956 105.473 125.464C104.289 124.972 103.214 124.252 102.309 123.343L102.308 123.342L59.1615 80.0676L56.684 77.5827L54.2054 80.0666L46.6961 87.5919L46.694 87.594C43.9179 90.3808 39.4213 90.3808 36.6452 87.594L36.644 87.5928L21.6372 72.5433C20.2991 71.2001 19.5479 69.3814 19.5479 67.4855C19.5479 65.5895 20.2991 63.7708 21.6372 62.4276L29.459 54.5898L29.8589 54.1891L30.1121 53.6827L30.1174 53.672L30.8819 52.1432L30.1461 50.6003C29.7465 49.7623 29.6159 48.8211 29.7722 47.9059C29.9284 46.9912 30.3635 46.1472 31.018 45.4895C31.0184 45.4891 31.0188 45.4887 31.0191 45.4883L38.5204 37.971L38.5236 37.9679C39.1738 37.3146 40.0111 36.8795 40.9194 36.7229C41.8278 36.5662 42.7624 36.6957 43.5939 37.0935L45.8312 38.1637L47.5825 36.4076L55.4065 28.5623L55.4079 28.5609C56.0668 27.8995 56.8498 27.3747 57.712 27.0166C58.5742 26.6585 59.4986 26.4741 60.4323 26.4741C61.3659 26.4741 62.2903 26.6585 63.1525 27.0166C64.0147 27.3747 64.7978 27.8995 65.4567 28.5609L65.4574 28.5617ZM101.932 79.1188C105.664 81.2524 109.955 81.163 112.528 78.5815L101.932 79.1188ZM104.513 76.5302L134.671 46.2811C136.422 44.5253 136.422 41.684 134.672 39.9276L128.58 33.8137L126.1 36.2841L128.58 33.8137C126.821 32.0491 123.964 32.0487 122.205 33.8128L92.0698 64.0387C91.0398 61.6409 91.5153 59.4573 92.4957 58.4704C92.4962 58.4699 92.4967 58.4694 92.4972 58.4689L121.977 28.9034L121.978 28.903C123.339 27.5373 127.05 27.1384 130.417 30.5182L130.419 30.5204L137.922 38.0398C137.922 38.04 137.923 38.0402 137.923 38.0404C141.298 41.4247 140.905 45.1643 139.536 46.5333L139.532 46.5371L110.05 76.1104L110.049 76.1106C109.076 77.0869 106.903 77.5691 104.513 76.5302Z" stroke="url(#paint0_linear_1454_1032)" stroke-width="7"/>
</g>
</g>
<defs>
<filter id="filter0_b_1454_1032" x="-20" y="-20" width="200" height="200" filterUnits="userSpaceOnUse" color-interpolation-filters="sRGB">
<feFlood flood-opacity="0" result="BackgroundImageFix"/>
<feGaussianBlur in="BackgroundImageFix" stdDeviation="10"/>
<feComposite in2="SourceAlpha" operator="in" result="effect1_backgroundBlur_1454_1032"/>
<feBlend mode="normal" in="SourceGraphic" in2="effect1_backgroundBlur_1454_1032" result="shape"/>
</filter>
<linearGradient id="paint0_linear_1454_1032" x1="16.0479" y1="22.9741" x2="127.054" y2="149.845" gradientUnits="userSpaceOnUse">
<stop stop-color="#C800C8"/>
<stop offset="1" stop-color="#9600FF"/>
<stop offset="1" stop-color="#9600FF"/>
</linearGradient>
<clipPath id="clip0_1454_1032">
<rect width="128" height="128" fill="white" transform="translate(16 16)"/>
</clipPath>
</defs>
</svg>
