<svg width="217" height="533" viewBox="0 0 217 533" fill="none" xmlns="http://www.w3.org/2000/svg">
<g opacity="0.2" filter="url(#filter0_d_1244_12552)">
<path fill-rule="evenodd" clip-rule="evenodd" d="M-259.591 452.926C-287.265 416.126 -287.626 367.776 -295.311 322.364C-303.923 271.471 -340.944 210.311 -307.281 171.108C-271.347 129.259 -193.412 178.567 -146.674 149.264C-93.8589 116.151 -98.3823 15.9567 -37.6311 2.04858C17.4473 -10.5609 70.3773 45.361 101.474 92.4539C129.498 134.892 101.494 193.468 120.042 240.826C139.357 290.139 230.221 319.424 209.481 368.211C186.737 421.711 96.5884 388.525 45.4675 416.247C14.4648 433.059 7.88993 476.918 -22.8524 494.202C-59.913 515.039 -102.573 530.307 -144.426 523.01C-189.634 515.128 -232.03 489.577 -259.591 452.926Z" fill="url(#paint0_linear_1244_12552)" shape-rendering="crispEdges"/>
</g>
<defs>
<filter id="filter0_d_1244_12552" x="-325.169" y="0.24292" width="541.708" height="532.616" filterUnits="userSpaceOnUse" color-interpolation-filters="sRGB">
<feFlood flood-opacity="0" result="BackgroundImageFix"/>
<feColorMatrix in="SourceAlpha" type="matrix" values="0 0 0 0 0 0 0 0 0 0 0 0 0 0 0 0 0 0 127 0" result="hardAlpha"/>
<feOffset dy="4"/>
<feGaussianBlur stdDeviation="2"/>
<feComposite in2="hardAlpha" operator="out"/>
<feColorMatrix type="matrix" values="0 0 0 0 0 0 0 0 0 0 0 0 0 0 0 0 0 0 0.25 0"/>
<feBlend mode="normal" in2="BackgroundImageFix" result="effect1_dropShadow_1244_12552"/>
<feBlend mode="normal" in="SourceGraphic" in2="effect1_dropShadow_1244_12552" result="shape"/>
</filter>
<linearGradient id="paint0_linear_1244_12552" x1="98.5" y1="-35.5" x2="-114.021" y2="448.055" gradientUnits="userSpaceOnUse">
<stop stop-color="#C800C8"/>
<stop offset="1" stop-color="#9600FF" stop-opacity="0"/>
</linearGradient>
</defs>
</svg>
