<svg width="18" height="16" viewBox="0 0 18 16" fill="none" xmlns="http://www.w3.org/2000/svg">
<path d="M12 13.9999L10 15.9999L18 15.9999L18 13.9999H12ZM9.06 3.1899L0 12.2499L0 15.9999H3.75L12.81 6.93989L9.06 3.1899ZM3 14.9999L1.01727 14.9826L1 12.9999L8.91421 5.08566L10.9142 7.08566L3 14.9999ZM15.71 4.0399C16.1 3.6499 16.1 2.9999 15.71 2.6299L13.37 0.289895C13.1825 0.103887 12.9291 -0.000488281 12.665 -0.000488281C12.4009 -0.000488281 12.1475 0.103887 11.96 0.289895L10.941 1.30886L14.691 5.05886L15.71 4.0399Z" fill="white"/>
</svg>
