<svg width="24" height="24" viewBox="0 0 24 24" fill="none" xmlns="http://www.w3.org/2000/svg">
<path d="M21.0686 9.25713C21.72 9.83998 22.2686 10.4057 22.68 10.8514C22.9643 11.1664 23.1217 11.5757 23.1217 12C23.1217 12.4243 22.9643 12.8336 22.68 13.1486C20.88 15.0857 16.7829 18.8571 12 18.8571H11.3143M6.63431 17.3657C4.64854 16.2535 2.85427 14.8297 1.32002 13.1486C1.03573 12.8336 0.878357 12.4243 0.878357 12C0.878357 11.5757 1.03573 11.1664 1.32002 10.8514C3.12002 8.91427 7.21717 5.14284 12 5.14284C13.8854 5.18224 15.7305 5.69511 17.3657 6.63427M21.4286 2.57141L2.57145 21.4286M9.58288 14.4171C8.93902 13.7771 8.57528 12.9078 8.57145 12C8.57145 11.0907 8.93268 10.2186 9.57566 9.57562C10.2186 8.93263 11.0907 8.57141 12 8.57141C12.9079 8.57524 13.7771 8.93898 14.4172 9.58284M14.9829 13.7143C14.6777 14.2359 14.2401 14.6677 13.7143 14.9657" stroke="white" stroke-width="1.6" stroke-linecap="round" stroke-linejoin="round"/>
</svg>
