<svg width="24" height="22" viewBox="0 0 24 22" fill="none" xmlns="http://www.w3.org/2000/svg">
<path d="M21.0687 8.25713C21.7201 8.83998 22.2687 9.4057 22.6801 9.85141C22.9644 10.1664 23.1217 10.5757 23.1217 11C23.1217 11.4243 22.9644 11.8336 22.6801 12.1486C20.8801 14.0857 16.7829 17.8571 12.0001 17.8571H11.3144M6.63437 16.3657C4.6486 15.2535 2.85433 13.8297 1.32008 12.1486C1.03579 11.8336 0.878418 11.4243 0.878418 11C0.878418 10.5757 1.03579 10.1664 1.32008 9.85141C3.12008 7.91427 7.21723 4.14284 12.0001 4.14284C13.8854 4.18224 15.7306 4.69511 17.3658 5.63427M21.4287 1.57141L2.57151 20.4286M9.58294 13.4171C8.93908 12.7771 8.57534 11.9078 8.57151 11C8.57151 10.0907 8.93274 9.2186 9.57572 8.57562C10.2187 7.93263 11.0908 7.57141 12.0001 7.57141C12.9079 7.57524 13.7772 7.93898 14.4172 8.58284M14.9829 12.7143C14.6778 13.2359 14.2401 13.6677 13.7144 13.9657" stroke="#696969" stroke-width="1.6" stroke-linecap="round" stroke-linejoin="round"/>
</svg>
