<svg width="16" height="13" viewBox="0 0 16 13" fill="none" xmlns="http://www.w3.org/2000/svg">
<path fill-rule="evenodd" clip-rule="evenodd" d="M2.57301 3.07832L0.101888 4.70345C0.0381996 4.74533 0 4.81534 0 4.89026V7.84114C0 7.96558 0.103482 8.06647 0.23112 8.06647C0.277182 8.06647 0.322176 8.05306 0.360362 8.02795L2.83148 6.40282C2.89517 6.36093 2.93334 6.29094 2.93334 6.21602V3.26513C2.93334 3.14068 2.82987 3.0398 2.70223 3.0398C2.65618 3.0398 2.61118 3.05321 2.57301 3.07832ZM3.82224 2.37656V12.7747C3.82224 12.8991 3.9257 13 4.05335 13C4.09939 13 4.1444 12.9866 4.18258 12.9615L7.4537 10.8102C7.51738 10.7684 7.55556 10.6983 7.55556 10.6234V0.225331C7.55556 0.100887 7.4521 0 7.32445 0C7.27841 0 7.23339 0.0134234 7.19522 0.0385303L3.92411 2.18975C3.86042 2.23164 3.82224 2.30167 3.82224 2.37656ZM8.44444 2.37656V12.7747C8.44444 12.8991 8.54792 13 8.67556 13C8.72161 13 8.76661 12.9866 8.80479 12.9615L12.0759 10.8102C12.1396 10.7684 12.1778 10.6983 12.1778 10.6234V0.225331C12.1778 0.100887 12.0743 0 11.9467 0C11.9006 0 11.8556 0.0134234 11.8174 0.0385303L8.54632 2.18975C8.48264 2.23164 8.44444 2.30167 8.44444 2.37656ZM15.6396 3.07832L13.1685 4.70345C13.1048 4.74533 13.0667 4.81534 13.0667 4.89026V7.84114C13.0667 7.96558 13.1701 8.06647 13.2978 8.06647C13.3438 8.06647 13.3888 8.05306 13.427 8.02795L15.8981 6.40282C15.9618 6.36093 16 6.29094 16 6.21602V3.26513C16 3.14068 15.8965 3.0398 15.7689 3.0398C15.7228 3.0398 15.6778 3.05321 15.6396 3.07832Z" fill="url(#paint0_linear_8528_154914)"/>
<defs>
<linearGradient id="paint0_linear_8528_154914" x1="0" y1="0" x2="12.7247" y2="15.6612" gradientUnits="userSpaceOnUse">
<stop stop-color="#C800C8"/>
<stop offset="1" stop-color="#9600FF"/>
<stop offset="1" stop-color="#9600FF"/>
</linearGradient>
</defs>
</svg>
