<svg width="18" height="18" viewBox="0 0 20 20" fill="none" xmlns="http://www.w3.org/2000/svg">
<path d="M7.92308 17.3933C8.04276 17.8534 8.3116 18.2607 8.68746 18.5515C9.06332 18.8423 9.52494 19 10 19C10.4751 19 10.9367 18.8423 11.3125 18.5515C11.6884 18.2607 11.9572 17.8534 12.0769 17.3933M10 1C11.5754 1 13.0862 1.62633 14.2002 2.74119C15.3142 3.85606 15.94 5.36815 15.94 6.94481C15.94 13.5548 18.3492 14.8574 19 14.8574H1C1.66462 14.8574 4.06 13.5409 4.06 6.94481C4.06 5.36815 4.68582 3.85606 5.79979 2.74119C6.91375 1.62633 8.42461 1 10 1Z" stroke="white" stroke-width="1.6" stroke-linecap="round" stroke-linejoin="round"/>
</svg>
