<svg width="24" height="24" viewBox="0 0 24 24" fill="none" xmlns="http://www.w3.org/2000/svg">
<path d="M4.55386 5.90764C4.1948 5.90764 3.85044 6.05028 3.59654 6.30418C3.34265 6.55807 3.20001 6.90243 3.20001 7.26149V19.4461C3.20001 19.8052 3.34265 20.1495 3.59654 20.4034C3.85044 20.6573 4.1948 20.8 4.55386 20.8H19.4462C19.8052 20.8 20.1496 20.6573 20.4035 20.4034C20.6574 20.1495 20.8 19.8052 20.8 19.4461V7.26149C20.8 6.90243 20.6574 6.55807 20.4035 6.30418C20.1496 6.05028 19.8052 5.90764 19.4462 5.90764H16.7385M3.20001 11.323H20.8M7.26155 3.19995V8.61534M16.7385 3.19995V8.61534M7.26155 5.90764H14.0308" stroke="white" stroke-width="1.6" stroke-linecap="round" stroke-linejoin="round"/>
</svg>
