<svg width="225" height="254" viewBox="0 0 225 254" fill="none" xmlns="http://www.w3.org/2000/svg">
<path d="M223.777 222.579C224.24 222.276 224.599 221.838 224.805 221.327C225.011 220.815 225.055 220.253 224.931 219.715L197.203 97.8711C196.863 96.6958 196.111 95.68 195.083 95.0068L30.0452 0.48735C29.5374 0.233051 28.9765 0.100586 28.4078 0.100586C27.839 0.100586 27.2782 0.233051 26.7703 0.48735C26.3074 0.792196 25.9481 1.22883 25.7396 1.73997C25.5311 2.2511 25.483 2.81286 25.6018 3.35158L53.387 125.081C53.7164 126.262 54.4711 127.281 55.5077 127.945L220.502 222.465C221.001 222.737 221.557 222.889 222.126 222.909C222.694 222.929 223.26 222.816 223.777 222.579Z" fill="#BA68C8"/>
<path opacity="0.8" d="M223.777 222.579C224.24 222.276 224.599 221.838 224.805 221.327C225.011 220.815 225.055 220.253 224.931 219.715L197.203 97.8711C196.863 96.6958 196.111 95.68 195.083 95.0068L30.0452 0.48735C29.5374 0.233051 28.9765 0.100586 28.4078 0.100586C27.839 0.100586 27.2782 0.233051 26.7703 0.48735C26.3074 0.792196 25.9481 1.22883 25.7396 1.73997C25.5311 2.2511 25.483 2.81286 25.6018 3.35158L53.387 125.081C53.7164 126.262 54.4711 127.281 55.5077 127.945L220.502 222.465C221.001 222.737 221.557 222.889 222.126 222.909C222.694 222.929 223.26 222.816 223.777 222.579Z" fill="white"/>
<path d="M194.029 99.7181L221.757 221.591C222.002 222.636 221.425 223.023 220.502 222.522L55.4643 127.945C54.4278 127.281 53.6731 126.261 53.3436 125.081L25.6017 3.20799C25.3709 2.16255 25.9336 1.77588 26.8713 2.29144L191.88 96.8539C192.922 97.5191 193.685 98.5367 194.029 99.7181Z" fill="#BA68C8"/>
<path opacity="0.6" d="M194.029 99.7181L221.757 221.591C222.002 222.636 221.425 223.023 220.502 222.522L55.4643 127.945C54.4278 127.281 53.6731 126.261 53.3436 125.081L25.6017 3.20799C25.3709 2.16255 25.9336 1.77588 26.8713 2.29144L191.88 96.8539C192.922 97.5191 193.685 98.5367 194.029 99.7181Z" fill="white"/>
<path opacity="0.05" d="M194.029 99.7181L221.757 221.591C222.002 222.636 221.425 223.023 220.502 222.522L55.4643 127.945C54.4278 127.281 53.6731 126.261 53.3436 125.081L25.6017 3.20799C25.3709 2.16255 25.9336 1.77588 26.8713 2.29144L191.88 96.8539C192.922 97.5191 193.685 98.5367 194.029 99.7181Z" fill="black"/>
<path d="M23.5823 2.20593C24.0973 1.95919 24.6638 1.83705 25.2355 1.8495C25.8072 1.86194 26.3679 2.00862 26.8715 2.27754L191.88 96.8543C192.362 97.1544 192.752 97.5804 193.006 98.0856C193.26 98.5908 193.37 99.1557 193.323 99.7185L171.683 250.678C171.578 251.253 171.36 251.803 171.041 252.294C170.721 252.786 170.307 253.21 169.822 253.542C169.312 253.796 168.749 253.929 168.178 253.929C167.607 253.929 167.043 253.796 166.533 253.542L1.45223 158.893C0.972525 158.591 0.584818 158.165 0.330672 157.66C0.076525 157.155 -0.0344745 156.592 0.00959196 156.029L21.6491 5.04151C21.7662 4.46536 21.9974 3.91804 22.3292 3.43128C22.6611 2.94452 23.087 2.52801 23.5823 2.20593Z" fill="#BA68C8"/>
<path opacity="0.8" d="M23.5823 2.20593C24.0973 1.95919 24.6638 1.83705 25.2355 1.8495C25.8072 1.86194 26.3679 2.00862 26.8715 2.27754L191.88 96.8543C192.362 97.1544 192.752 97.5804 193.006 98.0856C193.26 98.5908 193.37 99.1557 193.323 99.7185L171.683 250.678C171.578 251.253 171.36 251.803 171.041 252.294C170.721 252.786 170.307 253.21 169.822 253.542C169.312 253.796 168.749 253.929 168.178 253.929C167.607 253.929 167.043 253.796 166.533 253.542L1.45223 158.893C0.972525 158.591 0.584818 158.165 0.330672 157.66C0.076525 157.155 -0.0344745 156.592 0.00959196 156.029L21.6491 5.04151C21.7662 4.46536 21.9974 3.91804 22.3292 3.43128C22.6611 2.94452 23.087 2.52801 23.5823 2.20593Z" fill="white"/>
<path d="M190.134 101.565L168.495 252.524C168.489 252.75 168.421 252.969 168.298 253.158C168.176 253.348 168.003 253.5 167.8 253.599C167.596 253.698 167.369 253.74 167.143 253.719C166.917 253.699 166.701 253.618 166.518 253.484L1.45198 158.893C0.972275 158.59 0.584568 158.164 0.330421 157.659C0.0762746 157.155 -0.0347249 156.591 0.00934158 156.029L21.6489 5.04096C21.6522 4.81488 21.7188 4.59418 21.8414 4.4036C21.964 4.21301 22.1376 4.06007 22.3428 3.96194C22.548 3.8638 22.7767 3.82434 23.0032 3.84798C23.2297 3.87162 23.4451 3.95743 23.6253 4.09579L188.648 98.6153C189.151 98.9178 189.558 99.3553 189.82 99.8773C190.083 100.399 190.192 100.985 190.134 101.565Z" fill="#BA68C8"/>
<path opacity="0.95" d="M190.134 101.565L168.495 252.524C168.489 252.75 168.421 252.969 168.298 253.158C168.176 253.348 168.003 253.5 167.8 253.599C167.596 253.698 167.369 253.74 167.143 253.719C166.917 253.699 166.701 253.618 166.518 253.484L1.45198 158.893C0.972275 158.59 0.584568 158.164 0.330421 157.659C0.0762746 157.155 -0.0347249 156.591 0.00934158 156.029L21.6489 5.04096C21.6522 4.81488 21.7188 4.59418 21.8414 4.4036C21.964 4.21301 22.1376 4.06007 22.3428 3.96194C22.548 3.8638 22.7767 3.82434 23.0032 3.84798C23.2297 3.87162 23.4451 3.95743 23.6253 4.09579L188.648 98.6153C189.151 98.9178 189.558 99.3553 189.82 99.8773C190.083 100.399 190.192 100.985 190.134 101.565Z" fill="white"/>
<path d="M178.118 205.523L197.492 216.622C197.887 216.538 198.295 216.538 198.69 216.622L221.556 220.989L179.373 196.687L178.118 205.523Z" fill="#BA68C8"/>
<path opacity="0.5" d="M178.118 205.523L197.492 216.622C197.887 216.538 198.295 216.538 198.69 216.622L221.556 220.989L179.373 196.687L178.118 205.523Z" fill="white"/>
<path opacity="0.2" d="M178.118 205.523L197.492 216.622C197.887 216.538 198.295 216.538 198.69 216.622L221.556 220.989L179.373 196.687L178.118 205.523Z" fill="black"/>
<path d="M171.798 249.531L195.602 217.681C196.06 217.119 196.695 216.726 197.405 216.564L178.117 205.522L171.798 249.531Z" fill="#BA68C8"/>
<path opacity="0.6" d="M171.798 249.531L195.602 217.681C196.06 217.119 196.695 216.726 197.405 216.564L178.117 205.522L171.798 249.531Z" fill="white"/>
<path opacity="0.1" d="M171.798 249.531L195.602 217.681C196.06 217.119 196.695 216.726 197.405 216.564L178.117 205.522L171.798 249.531Z" fill="black"/>
<path d="M172.534 251.021L195.616 221.305C196.002 220.866 196.486 220.522 197.03 220.303C197.574 220.085 198.162 219.996 198.747 220.045L220.3 223.138C221.51 223.267 222.731 223.049 223.82 222.508C224.7 222.007 224.555 221.434 223.488 221.233L198.732 216.493C198.157 216.413 197.57 216.481 197.03 216.692C196.489 216.903 196.012 217.249 195.645 217.696L169.375 252.811C168.74 253.685 168.927 253.971 169.807 253.47C170.842 252.804 171.763 251.977 172.534 251.021Z" fill="#BA68C8"/>
<path opacity="0.8" d="M172.534 251.021L195.616 221.305C196.002 220.866 196.486 220.522 197.03 220.303C197.574 220.085 198.162 219.996 198.747 220.045L220.3 223.138C221.51 223.267 222.731 223.049 223.82 222.508C224.7 222.007 224.555 221.434 223.488 221.233L198.732 216.493C198.157 216.413 197.57 216.481 197.03 216.692C196.489 216.903 196.012 217.249 195.645 217.696L169.375 252.811C168.74 253.685 168.927 253.971 169.807 253.47C170.842 252.804 171.763 251.977 172.534 251.021Z" fill="white"/>
<path d="M25.5585 2.59241C25.5605 2.1555 25.6709 1.72581 25.8797 1.34121C26.0885 0.956603 26.3894 0.628878 26.7559 0.386939C27.2662 0.132494 27.8294 0 28.4005 0C28.9715 0 29.5347 0.132494 30.0451 0.386939L195.083 95.0067C196.108 95.6826 196.86 96.6973 197.203 97.8709L201.113 115.056L197.939 116.875L29.5257 20.3506L25.6017 3.16524C25.5818 2.96524 25.5818 2.76376 25.6017 2.56376L25.5585 2.59241Z" fill="#BA68C8"/>
<path opacity="0.6" d="M25.6015 3.19383C25.3706 2.14839 25.9333 1.76172 26.871 2.27728L191.88 96.8541C192.916 97.5218 193.674 98.5391 194.015 99.7183L197.924 116.904L29.511 20.3792L25.6015 3.19383Z" fill="black"/>
<path opacity="0.5" d="M193.193 98.0569C193.58 98.5478 193.86 99.1136 194.015 99.7181L197.939 116.904L201.113 115.056L197.203 97.8707C197.04 97.2667 196.755 96.7016 196.367 96.2095L193.193 98.0569Z" fill="black"/>
<path opacity="0.2" d="M25.5584 2.59227C25.6305 2.0051 26.1499 1.84757 26.8712 2.2772L191.88 96.854C192.39 97.1641 192.831 97.5733 193.178 98.057L196.352 96.2382C196.007 95.7584 195.571 95.3499 195.068 95.0352L30.045 0.487059C29.5347 0.232613 28.9715 0.100098 28.4004 0.100098C27.8293 0.100098 27.2662 0.232613 26.7558 0.487059C26.4031 0.719346 26.1108 1.03118 25.9027 1.39705C25.6946 1.76293 25.5766 2.17248 25.5584 2.59227Z" fill="black"/>
<path d="M21.5192 6.48766L21.7211 5.05554V4.84071C21.9928 3.79906 22.6328 2.88918 23.5244 2.27724C24.0394 2.0305 24.606 1.90834 25.1777 1.92079C25.7494 1.93323 26.31 2.07993 26.8136 2.34885L191.88 96.854C192.384 97.158 192.781 97.6078 193.02 98.1429C193.27 98.6386 193.37 99.1958 193.308 99.7469L190.192 121.372L187.018 123.205L18.5906 26.6804L21.5192 6.48766Z" fill="#BA68C8"/>
<path opacity="0.4" d="M18.6052 26.6803L187.033 123.205L190.135 101.566C190.201 101.016 190.106 100.459 189.86 99.9616C189.61 99.4343 189.215 98.9877 188.721 98.6727L23.6833 4.15317C23.5283 4.03306 23.346 3.95267 23.1523 3.91909C22.9587 3.88552 22.7596 3.89979 22.5729 3.96066C22.3861 4.02152 22.2173 4.1271 22.0814 4.26807C21.9454 4.40905 21.8465 4.58109 21.7934 4.76899V4.78331V4.99812L21.5914 6.43023L18.6052 26.6803Z" fill="black"/>
<path opacity="0.5" d="M187.032 123.205L190.206 121.372L193.322 99.747C193.385 99.1959 193.284 98.6387 193.034 98.1431L189.846 99.9619C190.096 100.458 190.196 101.015 190.134 101.566L187.032 123.205Z" fill="black"/>
<path opacity="0.3" d="M21.7789 4.78359C21.8237 4.58846 21.9173 4.4077 22.0512 4.25808C22.1851 4.10846 22.3549 3.99482 22.5448 3.9277C22.7347 3.86057 22.9386 3.84212 23.1376 3.87407C23.3366 3.90603 23.5243 3.98735 23.6832 4.11049L188.721 98.63C189.219 98.9362 189.611 99.3858 189.846 99.9189L193.034 98.1001C192.796 97.565 192.398 97.1152 191.894 96.8112L26.8714 2.2917C26.3678 2.02278 25.8072 1.8761 25.2355 1.86366C24.6638 1.85121 24.0972 1.97337 23.5822 2.22011C22.6781 2.81944 22.0344 3.73458 21.7789 4.78359Z" fill="black"/>
<g opacity="0.2">
<path d="M175.001 101.737C175.071 100.712 174.859 99.6879 174.386 98.7743C173.913 97.8607 173.198 97.0926 172.318 96.5528C170.558 95.5503 168.927 96.2377 168.653 98.0994C168.583 99.1258 168.797 100.152 169.273 101.066C169.748 101.98 170.467 102.747 171.351 103.284C171.666 103.547 172.048 103.719 172.455 103.779C172.862 103.84 173.278 103.787 173.656 103.626C174.034 103.466 174.361 103.204 174.598 102.871C174.836 102.537 174.975 102.145 175.001 101.737Z" fill="black"/>
<path d="M152.741 88.9914C152.815 87.9646 152.602 86.9374 152.126 86.0228C151.65 85.1082 150.93 84.3416 150.043 83.8071C148.298 82.7903 146.653 83.492 146.393 85.3395C146.32 86.3666 146.532 87.3939 147.005 88.3103C147.478 89.2266 148.194 89.997 149.077 90.538C150.837 91.5405 152.481 90.8531 152.741 88.9914Z" fill="black"/>
<path d="M130.51 76.2458C130.584 75.2206 130.372 74.1951 129.899 73.2809C129.426 72.3667 128.709 71.5991 127.827 71.0616C126.067 70.0591 124.437 70.7465 124.163 72.6082C124.103 73.633 124.322 74.6549 124.797 75.5669C125.271 76.4789 125.984 77.2476 126.86 77.7925C128.606 78.795 130.25 78.1075 130.51 76.2458Z" fill="black"/>
<path d="M86.0335 50.7541C86.1072 49.7289 85.8959 48.7034 85.4227 47.7892C84.9496 46.875 84.2327 46.1074 83.3502 45.5699C81.5902 44.5674 79.96 45.2548 79.6859 47.1165C79.617 48.1427 79.8319 49.168 80.3073 50.0817C80.7828 50.9954 81.5008 51.7628 82.3837 52.3008C84.1293 53.3033 85.7739 52.6159 86.0335 50.7541Z" fill="black"/>
<path d="M63.7738 37.9938C63.8476 36.967 63.6348 35.9399 63.1589 35.0253C62.683 34.1107 61.9623 33.3441 61.076 32.8096C59.3304 31.8071 57.6858 32.4945 57.4261 34.3563C57.3525 35.3814 57.5638 36.407 58.037 37.3212C58.5101 38.2354 59.227 39.003 60.1095 39.5405C61.8695 40.586 63.4852 39.8556 63.7738 37.9938Z" fill="black"/>
<path d="M41.5425 25.2482C41.6129 24.2235 41.4002 23.1991 40.9274 22.2855C40.4545 21.372 39.7394 20.6038 38.8592 20.064C37.0991 19.0615 35.469 19.7489 35.1949 21.6107C35.1243 22.637 35.3385 23.663 35.8141 24.577C36.2897 25.491 37.0086 26.2581 37.8926 26.7949C39.6382 27.7974 41.2828 27.11 41.5425 25.2482Z" fill="black"/>
</g>
<path d="M168.264 95.0926C168.263 95.7315 168.321 96.3691 168.437 96.9973C168.502 97.3212 168.584 97.6415 168.683 97.9569C169.071 99.4296 170.024 100.694 171.337 101.48C172.192 101.97 173.163 102.222 174.15 102.21H174.929L175.016 101.795C175.102 100.928 174.958 100.054 174.597 99.2601C173.989 99.3503 173.367 99.2449 172.823 98.9593C172.395 98.6334 172.044 98.2184 171.794 97.7433C171.545 97.2683 171.404 96.7448 171.38 96.2097C171.374 96.1621 171.374 96.114 171.38 96.0665C171.364 95.7564 171.364 95.4457 171.38 95.1356C171.514 92.1126 172.549 89.1971 174.352 86.7577C174.972 85.8843 175.678 85.0737 176.458 84.3375C177.104 83.7359 177.815 83.2076 178.579 82.7621C179.164 82.3321 179.849 82.0555 180.57 81.9579C181.291 81.8603 182.025 81.9448 182.705 82.2036C183.281 82.6497 183.73 83.2368 184.008 83.9071C184.286 84.5775 184.384 85.3081 184.292 86.0273C184.282 86.9059 184.171 87.7805 183.96 88.6338L186.629 90.1662V89.9943C187.005 88.7045 187.204 87.3701 187.22 86.0273C187.332 84.7855 187.104 83.5367 186.561 82.4126C186.018 81.2885 185.179 80.3307 184.133 79.6401C182.157 78.5088 179.647 78.7093 177.021 80.1987C175.808 80.9111 174.705 81.7938 173.746 82.8194C173.005 83.5848 172.334 84.4139 171.741 85.297C169.657 88.1623 168.45 91.5634 168.264 95.0926Z" fill="#37474F"/>
<path d="M146.004 82.3324C146.002 82.9712 146.06 83.6089 146.177 84.2371C146.231 84.5715 146.308 84.9017 146.408 85.2252C146.813 86.6871 147.768 87.9384 149.077 88.7196C149.932 89.2093 150.904 89.4616 151.89 89.45H152.655C152.699 89.3151 152.728 89.1758 152.741 89.0347C152.84 88.169 152.7 87.2931 152.338 86.4998C151.729 86.59 151.107 86.4846 150.563 86.1991C150.131 85.8767 149.777 85.4624 149.528 84.9866C149.278 84.5108 149.139 83.9856 149.12 83.4494C149.114 83.4067 149.114 83.3633 149.12 83.3205C149.097 83.0059 149.097 82.69 149.12 82.3753C149.395 78.2725 151.206 74.4203 154.199 71.5772C154.842 70.9724 155.553 70.4437 156.319 70.0019C156.905 69.5742 157.591 69.3002 158.312 69.2051C159.033 69.11 159.767 69.1968 160.445 69.4577C161.02 69.9016 161.468 70.4861 161.746 71.154C162.025 71.8218 162.123 72.5501 162.032 73.2671C162.022 74.1457 161.911 75.0202 161.7 75.8736L164.369 77.4059V77.2341C164.741 75.9437 164.935 74.6093 164.946 73.2671C165.059 72.0266 164.834 70.7788 164.293 69.6548C163.752 68.5308 162.916 67.5722 161.873 66.8799C159.897 65.7485 157.372 65.949 154.761 67.4384C153.548 68.1508 152.445 69.0335 151.486 70.0592C150.752 70.8304 150.082 71.659 149.481 72.5367C147.391 75.399 146.184 78.8019 146.004 82.3324Z" fill="#37474F"/>
<path d="M123.788 69.5866C123.789 70.2294 123.842 70.8712 123.946 71.5056C124.006 71.8353 124.088 72.1607 124.192 72.4795C124.576 73.9471 125.53 75.2037 126.846 75.9738C127.7 76.4679 128.671 76.7251 129.659 76.7185C129.914 76.7398 130.169 76.7398 130.424 76.7185C130.468 76.5836 130.497 76.4443 130.51 76.3032C130.609 75.4375 130.469 74.5616 130.106 73.7683C129.502 73.8682 128.882 73.7622 128.346 73.4676C127.914 73.1459 127.559 72.7318 127.31 72.2558C127.06 71.7799 126.921 71.2543 126.904 70.7179C126.897 70.6753 126.897 70.6317 126.904 70.5891C126.879 70.2744 126.879 69.9585 126.904 69.6439C127.045 66.6267 128.078 63.7176 129.876 61.2803C130.492 60.404 131.198 59.593 131.982 58.86C132.627 58.2541 133.339 57.721 134.102 57.2704C134.689 56.8428 135.374 56.5687 136.095 56.4736C136.816 56.3785 137.55 56.4654 138.228 56.7262C138.805 57.1714 139.255 57.7583 139.533 58.4289C139.812 59.0995 139.909 59.8306 139.815 60.5499C139.806 61.4285 139.694 62.3031 139.483 63.1564L142.167 64.6888V64.5026C142.542 63.2175 142.741 61.8879 142.758 60.5499C142.758 57.5568 141.662 55.2941 139.685 54.1627C137.709 53.0313 135.184 53.2175 132.573 54.7212C131.359 55.4317 130.251 56.3092 129.284 57.3277C128.55 58.099 127.879 58.9275 127.279 59.8052C125.192 62.6646 123.98 66.0607 123.788 69.5866Z" fill="#37474F"/>
<path d="M79.3543 44.138C79.3481 44.7764 79.4012 45.414 79.513 46.0427C79.5779 46.376 79.6597 46.7058 79.7583 47.0308C80.1627 48.4927 81.1184 49.744 82.4272 50.5252C83.2787 51.0099 84.2444 51.2619 85.2259 51.2556C85.4803 51.2774 85.7361 51.2774 85.9905 51.2556C86.0394 51.1114 86.0732 50.9626 86.0915 50.8116C86.1862 49.9567 86.0518 49.0922 85.7019 48.3054C85.0901 48.4031 84.4629 48.3027 83.9131 48.019C83.4559 47.6892 83.0815 47.2592 82.8188 46.7625C82.5561 46.2657 82.4122 45.7156 82.3983 45.1548C82.4062 45.1218 82.4062 45.0875 82.3983 45.0545C82.3818 44.7444 82.3818 44.4337 82.3983 44.1236C82.5377 41.0906 83.5766 38.1661 85.3846 35.7171C86.0056 34.84 86.7163 34.029 87.5052 33.2969C88.1426 32.7059 88.8442 32.1871 89.5971 31.7502C90.182 31.3202 90.8667 31.0436 91.5879 30.946C92.3091 30.8483 93.0434 30.9328 93.723 31.1917C94.2939 31.6412 94.7385 32.2292 95.0139 32.899C95.2894 33.5687 95.3863 34.2976 95.2954 35.0154C95.2906 35.8793 95.1841 36.7396 94.9781 37.5789L97.5316 39.1542V39.011C97.9072 37.7259 98.1062 36.3963 98.123 35.0584C98.123 32.0652 97.0266 29.8025 95.0502 28.6711C93.9237 28.1208 92.6685 27.8823 91.4168 27.9806C90.1652 28.0789 88.9634 28.5104 87.938 29.2297C86.727 29.9273 85.628 30.801 84.6777 31.8218C83.9397 32.5935 83.2644 33.4219 82.658 34.2993C80.6309 37.1974 79.4843 40.6121 79.3543 44.138Z" fill="#37474F"/>
<path d="M57.0227 31.3776C57.0211 32.0212 57.0791 32.6636 57.1959 33.2966C57.268 33.6403 57.3401 33.9554 57.4411 34.2848C57.8286 35.7471 58.7827 36.998 60.0955 37.7648C60.9713 38.2672 61.9697 38.5199 62.9808 38.4952C63.2355 38.5094 63.4907 38.5094 63.7454 38.4952C63.7943 38.3461 63.8281 38.1926 63.8464 38.0369C63.9434 37.1867 63.8089 36.3261 63.4569 35.545C62.8435 35.6459 62.2138 35.54 61.668 35.2443C61.2084 34.9168 60.8322 34.4874 60.5693 33.9901C60.3063 33.4929 60.1638 32.9416 60.1533 32.3801C60.1453 32.3471 60.1453 32.3128 60.1533 32.2798C60.1363 31.9698 60.1363 31.659 60.1533 31.349C60.2885 28.3172 61.3334 25.3947 63.1539 22.9568C63.7707 22.0762 64.4765 21.2604 65.2602 20.5222C65.9002 19.9344 66.6014 19.4159 67.352 18.9755C67.9382 18.5479 68.6236 18.2738 69.3447 18.1787C70.0659 18.0836 70.7996 18.1704 71.478 18.4313C72.057 18.8745 72.5084 19.4611 72.787 20.1323C73.0655 20.8034 73.1614 21.5355 73.0649 22.255C73.052 23.1136 72.9456 23.9683 72.7475 24.8042L75.4163 26.3509V26.2077C75.792 24.9226 75.9909 23.593 76.0078 22.255C76.0078 19.2619 74.9114 16.9849 72.9206 15.8678C70.9298 14.7508 68.4196 14.9226 65.8228 16.412C64.5777 17.1381 63.4495 18.0457 62.4759 19.1044C61.7371 19.8754 61.0617 20.7039 60.4562 21.5819C58.3871 24.4517 57.1951 27.8527 57.0227 31.3776Z" fill="#37474F"/>
<path d="M34.8057 18.632C34.8041 19.2756 34.8621 19.9179 34.9788 20.551C35.0388 20.8746 35.1159 21.1949 35.2097 21.5105C35.606 22.9837 36.5628 24.2467 37.8785 25.0335C38.7365 25.5137 39.7069 25.7607 40.6917 25.7496H41.4419C41.4907 25.6005 41.5246 25.447 41.5428 25.2913C41.6378 24.4411 41.5033 23.5811 41.1533 22.7994C40.54 22.8927 39.9127 22.7873 39.3645 22.4987C38.919 22.1629 38.5572 21.73 38.3071 21.2333C38.0569 20.7367 37.9251 20.1897 37.9218 19.6344C37.9151 19.6062 37.9151 19.5768 37.9218 19.5485C37.898 19.2339 37.898 18.9179 37.9218 18.6033C38.0546 15.5734 39.0943 12.6516 40.9081 10.2111C41.5297 9.33447 42.2403 8.52348 43.0288 7.79088C43.6596 7.19437 44.3566 6.67068 45.1062 6.22986C45.6924 5.80222 46.3777 5.52817 47.0989 5.43305C47.82 5.33794 48.5537 5.42483 49.2321 5.68567C49.8111 6.12891 50.2626 6.71553 50.5411 7.38667C50.8196 8.05782 50.9155 8.78988 50.819 9.50941C50.8142 10.3733 50.7077 11.2336 50.5016 12.0729L53.1849 13.6053V13.462C53.5605 12.177 53.7595 10.8474 53.7764 9.50941C53.7764 6.51629 52.68 4.25354 50.7036 3.12217C49.5775 2.57284 48.3235 2.33356 47.0725 2.42928C45.8215 2.525 44.6193 2.95222 43.5914 3.66638C42.3888 4.36998 41.2954 5.24312 40.3454 6.2585C39.5989 7.02785 38.923 7.86179 38.3258 8.75039C36.2079 11.6336 34.9844 15.068 34.8057 18.632Z" fill="#37474F"/>
<path d="M183.354 148.625L14.9551 52.1866L18.605 26.6807L187.033 123.134L183.354 148.625Z" fill="#BA68C8"/>
<g opacity="0.65">
<path d="M183.354 148.625L14.9551 52.1866L18.605 26.6807L187.033 123.134L183.354 148.625Z" fill="white"/>
</g>
<path d="M170.082 154.812C169.865 156.244 168.552 156.702 167.196 155.886L154.559 148.726C153.86 148.316 153.286 147.724 152.9 147.015C152.514 146.306 152.329 145.506 152.366 144.701C152.568 143.269 153.881 142.811 155.251 143.627L167.889 150.788C168.587 151.199 169.159 151.79 169.546 152.499C169.932 153.208 170.117 154.007 170.082 154.812Z" fill="#BA68C8"/>
<path d="M148.76 142.596C148.558 144.028 147.245 144.486 145.874 143.67L133.237 136.509C132.534 136.102 131.957 135.512 131.568 134.803C131.179 134.093 130.992 133.292 131.03 132.485C131.232 131.053 132.472 130.595 133.915 131.411L146.552 138.571C147.255 138.978 147.832 139.569 148.221 140.278C148.611 140.987 148.797 141.789 148.76 142.596Z" fill="#BA68C8"/>
<path d="M127.438 130.38C127.236 131.812 125.923 132.27 124.553 131.454L111.915 124.293C111.214 123.886 110.639 123.295 110.252 122.586C109.865 121.876 109.682 121.075 109.722 120.269C109.924 118.837 111.237 118.379 112.608 119.195L125.245 126.356C125.945 126.764 126.52 127.355 126.906 128.065C127.292 128.774 127.476 129.574 127.438 130.38Z" fill="#BA68C8"/>
<path d="M106.129 118.164C105.927 119.596 104.615 120.054 103.244 119.238L90.6066 111.991C89.9065 111.586 89.3318 110.998 88.9452 110.291C88.5585 109.584 88.3747 108.785 88.4138 107.981C88.6158 106.549 89.9286 106.091 91.2991 106.893L103.879 114.14C104.591 114.54 105.178 115.127 105.575 115.837C105.972 116.547 106.164 117.352 106.129 118.164Z" fill="#BA68C8"/>
<path d="M84.8076 105.934C84.6057 107.366 83.365 107.824 81.9224 107.022L69.2849 99.7755C68.5843 99.3697 68.0085 98.7819 67.6195 98.0753C67.2306 97.3687 67.0432 96.5701 67.0776 95.7656C67.2796 94.3335 68.5924 93.8752 69.9629 94.6772L82.6004 101.924C83.3021 102.328 83.8788 102.916 84.2679 103.623C84.657 104.33 84.8436 105.129 84.8076 105.934Z" fill="#BA68C8"/>
<path d="M63.4855 93.7176C63.2835 95.1497 61.9707 95.608 60.6002 94.806L47.9627 87.5595C47.2626 87.1507 46.6882 86.5598 46.3018 85.8505C45.9153 85.1413 45.7314 84.3407 45.7699 83.5353C45.9719 82.1031 47.2847 81.6449 48.6552 82.4612L61.2927 89.7077C61.9917 90.1141 62.5654 90.7025 62.9519 91.4093C63.3384 92.1161 63.5229 92.9143 63.4855 93.7176Z" fill="#BA68C8"/>
<path d="M42.1776 81.502C41.9757 82.9341 40.6629 83.3923 39.2924 82.576L26.6549 75.4155C25.9509 75.0097 25.3728 74.4198 24.9836 73.7102C24.5943 73.0005 24.4089 72.1983 24.4476 71.3912C24.6496 69.9591 25.8903 69.5008 27.3329 70.3171L39.9704 77.5636C40.6621 77.9613 41.2324 78.5373 41.621 79.2307C42.0096 79.9241 42.2019 80.7089 42.1776 81.502Z" fill="#BA68C8"/>
<g opacity="0.17">
<path d="M10.3967 154.955C10.5575 154.969 10.718 154.924 10.8481 154.83C10.9783 154.735 11.0691 154.596 11.1035 154.439L21.4039 83.0627C21.4103 82.9871 21.4002 82.9111 21.3743 82.8397C21.3485 82.7683 21.3075 82.7033 21.2542 82.649C21.2009 82.5947 21.1364 82.5524 21.0652 82.5249C20.9939 82.4975 20.9176 82.4855 20.8413 82.4899C20.6798 82.4809 20.5201 82.5272 20.3888 82.621C20.2576 82.7148 20.1627 82.8505 20.12 83.0054L9.83401 154.382C9.82769 154.458 9.8378 154.534 9.86364 154.605C9.88947 154.676 9.93044 154.741 9.98378 154.796C10.0371 154.85 10.1016 154.892 10.1728 154.92C10.244 154.947 10.3204 154.959 10.3967 154.955Z" fill="#BA68C8"/>
<path d="M31.7477 167.185C31.9085 167.199 32.0691 167.154 32.1992 167.059C32.3293 166.965 32.4201 166.826 32.4546 166.669L42.755 95.2927C42.7613 95.2171 42.7512 95.141 42.7254 95.0697C42.6995 94.9983 42.6586 94.9333 42.6052 94.8789C42.5519 94.8246 42.4875 94.7823 42.4162 94.7549C42.345 94.7274 42.2686 94.7155 42.1924 94.7199C42.0315 94.7057 41.871 94.7503 41.7409 94.8452C41.6107 94.9401 41.52 95.0788 41.4855 95.2354L31.1562 166.612C31.1493 166.69 31.16 166.769 31.1875 166.843C31.215 166.916 31.2586 166.983 31.3152 167.038C31.3718 167.092 31.44 167.134 31.5148 167.159C31.5895 167.185 31.6691 167.194 31.7477 167.185Z" fill="#BA68C8"/>
<path d="M53.0407 179.401C53.2028 179.413 53.3638 179.367 53.4957 179.273C53.6275 179.179 53.7218 179.042 53.762 178.885L64.048 107.509C64.0542 107.434 64.0444 107.36 64.0194 107.289C63.9944 107.219 63.9548 107.155 63.903 107.101C63.8513 107.046 63.7886 107.004 63.7191 106.975C63.6496 106.947 63.5749 106.934 63.4998 106.936C63.3372 106.921 63.1747 106.965 63.0422 107.06C62.9097 107.155 62.816 107.294 62.7785 107.451L52.4781 178.828C52.4717 178.904 52.4819 178.98 52.5077 179.051C52.5335 179.122 52.5745 179.187 52.6278 179.242C52.6812 179.296 52.7456 179.338 52.8168 179.366C52.8881 179.393 52.9644 179.405 53.0407 179.401Z" fill="#BA68C8"/>
<path d="M74.3627 191.631C74.5267 191.642 74.6894 191.595 74.8215 191.498C74.9537 191.401 75.0467 191.26 75.084 191.101L85.3844 119.725C85.3886 119.65 85.3769 119.576 85.3501 119.506C85.3233 119.437 85.282 119.373 85.2289 119.321C85.1758 119.268 85.1121 119.227 85.042 119.2C84.9718 119.174 84.8968 119.162 84.8218 119.166C84.6592 119.152 84.4967 119.196 84.3642 119.29C84.2317 119.385 84.138 119.524 84.1005 119.682L73.8145 191.058C73.8084 191.133 73.8181 191.208 73.8431 191.278C73.8681 191.348 73.9078 191.413 73.9595 191.467C74.0113 191.521 74.0739 191.563 74.1434 191.592C74.2129 191.62 74.2876 191.634 74.3627 191.631Z" fill="#BA68C8"/>
<path d="M95.6853 203.847C95.848 203.861 96.0104 203.817 96.1429 203.723C96.2755 203.628 96.3691 203.489 96.4067 203.331L106.765 131.955C106.771 131.879 106.761 131.803 106.735 131.732C106.709 131.66 106.668 131.595 106.615 131.541C106.562 131.487 106.497 131.444 106.426 131.417C106.355 131.389 106.278 131.377 106.202 131.382C106.04 131.37 105.879 131.415 105.747 131.509C105.615 131.604 105.521 131.741 105.481 131.897L95.1949 203.274C95.1889 203.343 95.1969 203.414 95.2184 203.48C95.2399 203.547 95.2744 203.608 95.32 203.662C95.3656 203.715 95.4214 203.759 95.4841 203.79C95.5468 203.822 95.6152 203.841 95.6853 203.847Z" fill="#BA68C8"/>
<path d="M117.021 216.077C117.184 216.088 117.344 216.04 117.474 215.943C117.604 215.846 117.694 215.705 117.728 215.548L128.029 144.171C128.029 143.87 127.827 143.627 127.466 143.612C127.305 143.598 127.145 143.643 127.015 143.738C126.885 143.833 126.794 143.971 126.759 144.128L116.459 215.505C116.453 215.58 116.463 215.656 116.489 215.728C116.514 215.799 116.555 215.864 116.609 215.918C116.662 215.973 116.726 216.015 116.798 216.042C116.869 216.07 116.945 216.082 117.021 216.077Z" fill="#BA68C8"/>
<path d="M138.343 228.293C138.505 228.305 138.667 228.26 138.798 228.165C138.93 228.071 139.025 227.934 139.065 227.778L149.351 156.401C149.357 156.326 149.347 156.249 149.321 156.178C149.295 156.107 149.254 156.042 149.201 155.987C149.148 155.933 149.083 155.891 149.012 155.863C148.941 155.836 148.864 155.824 148.788 155.828C148.627 155.814 148.467 155.859 148.337 155.954C148.206 156.048 148.116 156.187 148.081 156.344L137.781 227.72C137.774 227.796 137.785 227.872 137.81 227.943C137.836 228.015 137.877 228.08 137.931 228.134C137.984 228.188 138.048 228.231 138.12 228.258C138.191 228.286 138.267 228.298 138.343 228.293Z" fill="#BA68C8"/>
<path d="M159.666 240.509C159.828 240.524 159.991 240.48 160.123 240.385C160.256 240.29 160.349 240.151 160.387 239.993L170.687 168.617C170.691 168.542 170.68 168.467 170.653 168.396C170.626 168.326 170.585 168.262 170.532 168.208C170.479 168.154 170.416 168.112 170.346 168.084C170.276 168.055 170.2 168.042 170.125 168.044C169.961 168.033 169.798 168.08 169.666 168.177C169.534 168.274 169.441 168.415 169.403 168.574L159.103 239.95C159.099 240.025 159.11 240.099 159.137 240.169C159.164 240.239 159.205 240.302 159.258 240.355C159.311 240.407 159.375 240.448 159.445 240.475C159.515 240.502 159.591 240.513 159.666 240.509Z" fill="#BA68C8"/>
<path d="M167.355 186.977C167.466 186.988 167.579 186.971 167.682 186.929C167.785 186.886 167.876 186.819 167.947 186.733C167.998 186.681 168.036 186.617 168.059 186.548C168.081 186.478 168.087 186.405 168.076 186.332C168.064 186.26 168.036 186.192 167.994 186.132C167.952 186.072 167.896 186.023 167.831 185.988L18.5474 100.42C18.4006 100.344 18.2325 100.321 18.0702 100.352C17.9079 100.383 17.761 100.467 17.653 100.592C17.6024 100.645 17.5649 100.709 17.5437 100.78C17.5224 100.85 17.5179 100.924 17.5305 100.996C17.5431 101.068 17.5725 101.137 17.6162 101.196C17.66 101.255 17.7171 101.303 17.7828 101.336L167.081 186.891C167.164 186.941 167.258 186.97 167.355 186.977Z" fill="#BA68C8"/>
<path d="M164.816 204.821C164.926 204.828 165.038 204.81 165.14 204.768C165.243 204.726 165.334 204.661 165.407 204.578C165.458 204.524 165.495 204.46 165.516 204.39C165.538 204.319 165.542 204.245 165.53 204.173C165.517 204.101 165.488 204.032 165.444 203.973C165.4 203.914 165.343 203.866 165.277 203.833L16.0078 118.264C15.8588 118.188 15.6883 118.163 15.5235 118.194C15.3588 118.225 15.2093 118.311 15.099 118.436C15.051 118.49 15.016 118.555 14.9963 118.625C14.9767 118.694 14.9729 118.768 14.9854 118.839C14.9978 118.91 15.0261 118.978 15.0682 119.037C15.1103 119.096 15.1652 119.145 15.2288 119.181L164.469 204.735C164.572 204.8 164.694 204.83 164.816 204.821Z" fill="#BA68C8"/>
<path d="M162.248 222.665C162.359 222.672 162.47 222.654 162.573 222.612C162.675 222.569 162.767 222.504 162.84 222.421C162.89 222.366 162.928 222.301 162.949 222.23C162.97 222.158 162.975 222.083 162.962 222.01C162.95 221.937 162.921 221.867 162.877 221.807C162.833 221.747 162.776 221.697 162.71 221.662L13.426 136.108C13.2792 136.032 13.1111 136.009 12.9488 136.04C12.7866 136.071 12.6396 136.155 12.5316 136.28C12.481 136.333 12.4436 136.397 12.4223 136.468C12.4011 136.538 12.3966 136.612 12.4092 136.684C12.4218 136.756 12.4511 136.825 12.4949 136.884C12.5387 136.943 12.5957 136.991 12.6614 137.024L161.931 222.579C162.027 222.635 162.137 222.665 162.248 222.665Z" fill="#BA68C8"/>
<path d="M159.666 240.509C159.774 240.538 159.889 240.538 159.997 240.509C160.098 240.475 160.187 240.414 160.256 240.333C160.324 240.253 160.37 240.155 160.387 240.051L170.687 168.674C170.695 168.577 170.675 168.48 170.629 168.394C170.583 168.307 170.513 168.236 170.428 168.188L21.1583 82.633C21.0573 82.5837 20.9462 82.5581 20.8337 82.5581C20.7211 82.5581 20.6101 82.5837 20.5091 82.633C20.4127 82.67 20.3268 82.7297 20.2589 82.8071C20.191 82.8844 20.1432 82.9771 20.1196 83.077L9.83359 154.454C9.82096 154.55 9.83757 154.647 9.88127 154.734C9.92496 154.821 9.99377 154.893 10.0789 154.94L159.363 240.423C159.453 240.482 159.558 240.512 159.666 240.509ZM169.36 168.904L159.262 239.077L11.1608 154.196L21.2593 84.0222L169.36 168.904Z" fill="#BA68C8"/>
</g>
<g opacity="0.17">
<path d="M10.3967 154.955C10.5575 154.969 10.718 154.924 10.8481 154.83C10.9783 154.735 11.0691 154.596 11.1035 154.439L21.4039 83.0627C21.4103 82.9871 21.4002 82.9111 21.3743 82.8397C21.3485 82.7683 21.3075 82.7033 21.2542 82.649C21.2009 82.5947 21.1364 82.5524 21.0652 82.5249C20.9939 82.4975 20.9176 82.4855 20.8413 82.4899C20.6798 82.4809 20.5201 82.5272 20.3888 82.621C20.2576 82.7148 20.1627 82.8505 20.12 83.0054L9.83401 154.382C9.82769 154.458 9.8378 154.534 9.86364 154.605C9.88947 154.676 9.93044 154.741 9.98378 154.796C10.0371 154.85 10.1016 154.892 10.1728 154.92C10.244 154.947 10.3204 154.959 10.3967 154.955Z" fill="black"/>
<path d="M31.7477 167.185C31.9085 167.199 32.0691 167.154 32.1992 167.059C32.3293 166.965 32.4201 166.826 32.4546 166.669L42.755 95.2927C42.7613 95.2171 42.7512 95.141 42.7254 95.0697C42.6995 94.9983 42.6586 94.9333 42.6052 94.8789C42.5519 94.8246 42.4875 94.7823 42.4162 94.7549C42.345 94.7274 42.2686 94.7155 42.1924 94.7199C42.0315 94.7057 41.871 94.7503 41.7409 94.8452C41.6107 94.9401 41.52 95.0788 41.4855 95.2354L31.1562 166.612C31.1493 166.69 31.16 166.769 31.1875 166.843C31.215 166.916 31.2586 166.983 31.3152 167.038C31.3718 167.092 31.44 167.134 31.5148 167.159C31.5895 167.185 31.6691 167.194 31.7477 167.185Z" fill="black"/>
<path d="M53.0407 179.401C53.2028 179.413 53.3638 179.367 53.4957 179.273C53.6275 179.179 53.7218 179.042 53.762 178.885L64.048 107.509C64.0542 107.434 64.0444 107.36 64.0194 107.289C63.9944 107.219 63.9548 107.155 63.903 107.101C63.8513 107.046 63.7886 107.004 63.7191 106.975C63.6496 106.947 63.5749 106.934 63.4998 106.936C63.3372 106.921 63.1747 106.965 63.0422 107.06C62.9097 107.155 62.816 107.294 62.7785 107.451L52.4781 178.828C52.4717 178.904 52.4819 178.98 52.5077 179.051C52.5335 179.122 52.5745 179.187 52.6278 179.242C52.6812 179.296 52.7456 179.338 52.8168 179.366C52.8881 179.393 52.9644 179.405 53.0407 179.401Z" fill="black"/>
<path d="M74.3627 191.631C74.5267 191.642 74.6894 191.595 74.8215 191.498C74.9537 191.401 75.0467 191.26 75.084 191.101L85.3844 119.725C85.3886 119.65 85.3769 119.576 85.3501 119.506C85.3233 119.437 85.282 119.373 85.2289 119.321C85.1758 119.268 85.1121 119.227 85.042 119.2C84.9718 119.174 84.8968 119.162 84.8218 119.166C84.6592 119.152 84.4967 119.196 84.3642 119.29C84.2317 119.385 84.138 119.524 84.1005 119.682L73.8145 191.058C73.8084 191.133 73.8181 191.208 73.8431 191.278C73.8681 191.348 73.9078 191.413 73.9595 191.467C74.0113 191.521 74.0739 191.563 74.1434 191.592C74.2129 191.62 74.2876 191.634 74.3627 191.631Z" fill="black"/>
<path d="M95.6853 203.847C95.848 203.861 96.0104 203.817 96.1429 203.723C96.2755 203.628 96.3691 203.489 96.4067 203.331L106.765 131.955C106.771 131.879 106.761 131.803 106.735 131.732C106.709 131.66 106.668 131.595 106.615 131.541C106.562 131.487 106.497 131.444 106.426 131.417C106.355 131.389 106.278 131.377 106.202 131.382C106.04 131.37 105.879 131.415 105.747 131.509C105.615 131.604 105.521 131.741 105.481 131.897L95.1949 203.274C95.1889 203.343 95.1969 203.414 95.2184 203.48C95.2399 203.547 95.2744 203.608 95.32 203.662C95.3656 203.715 95.4214 203.759 95.4841 203.79C95.5468 203.822 95.6152 203.841 95.6853 203.847Z" fill="black"/>
<path d="M117.021 216.077C117.184 216.088 117.344 216.04 117.474 215.943C117.604 215.846 117.694 215.705 117.728 215.548L128.029 144.171C128.029 143.87 127.827 143.627 127.466 143.612C127.305 143.598 127.145 143.643 127.015 143.738C126.885 143.833 126.794 143.971 126.759 144.128L116.459 215.505C116.453 215.58 116.463 215.656 116.489 215.728C116.514 215.799 116.555 215.864 116.609 215.918C116.662 215.973 116.726 216.015 116.798 216.042C116.869 216.07 116.945 216.082 117.021 216.077Z" fill="black"/>
<path d="M138.343 228.293C138.505 228.305 138.667 228.26 138.798 228.165C138.93 228.071 139.025 227.934 139.065 227.778L149.351 156.401C149.357 156.326 149.347 156.249 149.321 156.178C149.295 156.107 149.254 156.042 149.201 155.987C149.148 155.933 149.083 155.891 149.012 155.863C148.941 155.836 148.864 155.824 148.788 155.828C148.627 155.814 148.467 155.859 148.337 155.954C148.206 156.048 148.116 156.187 148.081 156.344L137.781 227.72C137.774 227.796 137.785 227.872 137.81 227.943C137.836 228.015 137.877 228.08 137.931 228.134C137.984 228.188 138.048 228.231 138.12 228.258C138.191 228.286 138.267 228.298 138.343 228.293Z" fill="black"/>
<path d="M159.666 240.509C159.828 240.524 159.991 240.48 160.123 240.385C160.256 240.29 160.349 240.151 160.387 239.993L170.687 168.617C170.691 168.542 170.68 168.467 170.653 168.396C170.626 168.326 170.585 168.262 170.532 168.208C170.479 168.154 170.416 168.112 170.346 168.084C170.276 168.055 170.2 168.042 170.125 168.044C169.961 168.033 169.798 168.08 169.666 168.177C169.534 168.274 169.441 168.415 169.403 168.574L159.103 239.95C159.099 240.025 159.11 240.099 159.137 240.169C159.164 240.239 159.205 240.302 159.258 240.355C159.311 240.407 159.375 240.448 159.445 240.475C159.515 240.502 159.591 240.513 159.666 240.509Z" fill="black"/>
<path d="M167.355 186.977C167.466 186.988 167.579 186.971 167.682 186.929C167.785 186.886 167.876 186.819 167.947 186.733C167.998 186.681 168.036 186.617 168.059 186.548C168.081 186.478 168.087 186.405 168.076 186.332C168.064 186.26 168.036 186.192 167.994 186.132C167.952 186.072 167.896 186.023 167.831 185.988L18.5474 100.42C18.4006 100.344 18.2325 100.321 18.0702 100.352C17.9079 100.383 17.761 100.467 17.653 100.592C17.6024 100.645 17.5649 100.709 17.5437 100.78C17.5224 100.85 17.5179 100.924 17.5305 100.996C17.5431 101.068 17.5725 101.137 17.6162 101.196C17.66 101.255 17.7171 101.303 17.7828 101.336L167.081 186.891C167.164 186.941 167.258 186.97 167.355 186.977Z" fill="black"/>
<path d="M164.816 204.821C164.926 204.828 165.038 204.81 165.14 204.768C165.243 204.726 165.334 204.661 165.407 204.578C165.458 204.524 165.495 204.46 165.516 204.39C165.538 204.319 165.542 204.245 165.53 204.173C165.517 204.101 165.488 204.032 165.444 203.973C165.4 203.914 165.343 203.866 165.277 203.833L16.0078 118.264C15.8588 118.188 15.6883 118.163 15.5235 118.194C15.3588 118.225 15.2093 118.311 15.099 118.436C15.051 118.49 15.016 118.555 14.9963 118.625C14.9767 118.694 14.9729 118.768 14.9854 118.839C14.9978 118.91 15.0261 118.978 15.0682 119.037C15.1103 119.096 15.1652 119.145 15.2288 119.181L164.469 204.735C164.572 204.8 164.694 204.83 164.816 204.821Z" fill="black"/>
<path d="M162.248 222.665C162.359 222.672 162.47 222.654 162.573 222.612C162.675 222.569 162.767 222.504 162.84 222.421C162.89 222.366 162.928 222.301 162.949 222.23C162.97 222.158 162.975 222.083 162.962 222.01C162.95 221.937 162.921 221.867 162.877 221.807C162.833 221.747 162.776 221.697 162.71 221.662L13.426 136.108C13.2792 136.032 13.1111 136.009 12.9488 136.04C12.7866 136.071 12.6396 136.155 12.5316 136.28C12.481 136.333 12.4436 136.397 12.4223 136.468C12.4011 136.538 12.3966 136.612 12.4092 136.684C12.4218 136.756 12.4511 136.825 12.4949 136.884C12.5387 136.943 12.5957 136.991 12.6614 137.024L161.931 222.579C162.027 222.635 162.137 222.665 162.248 222.665Z" fill="black"/>
<path d="M159.666 240.509C159.774 240.538 159.889 240.538 159.997 240.509C160.098 240.475 160.187 240.414 160.256 240.333C160.324 240.253 160.37 240.155 160.387 240.051L170.687 168.674C170.695 168.577 170.675 168.48 170.629 168.394C170.583 168.307 170.513 168.236 170.428 168.188L21.1583 82.633C21.0573 82.5837 20.9462 82.5581 20.8337 82.5581C20.7211 82.5581 20.6101 82.5837 20.5091 82.633C20.4127 82.67 20.3268 82.7297 20.2589 82.8071C20.191 82.8844 20.1432 82.9771 20.1196 83.077L9.83359 154.454C9.82096 154.55 9.83757 154.647 9.88127 154.734C9.92496 154.821 9.99377 154.893 10.0789 154.94L159.363 240.423C159.453 240.482 159.558 240.512 159.666 240.509ZM169.36 168.904L159.262 239.077L11.1608 154.196L21.2593 84.0222L169.36 168.904Z" fill="black"/>
</g>
<path d="M77.0126 75.1814C76.4013 75.7852 75.7376 76.2906 75.0374 76.6853C74.3926 77.0531 73.7183 77.314 73.0315 77.4613C72.4029 77.6104 71.7664 77.6489 71.1396 77.5758C70.5796 77.5089 70.0335 77.344 69.516 77.0855C69.0609 76.8703 68.6527 76.5277 68.3194 76.0811C68.0674 75.7381 67.9115 75.2934 67.8746 74.812C67.86 74.2995 67.9766 73.7854 68.2065 73.3489C68.5099 72.7481 68.8959 72.2211 69.3437 71.7961C69.4357 71.707 69.5402 71.6432 69.6502 71.6088C69.7435 71.5699 69.8425 71.5731 69.9305 71.6178L71.4936 72.4328C71.6452 72.5114 71.7103 72.5991 71.7085 72.6767C71.6688 72.8306 71.6031 72.9729 71.5164 73.0928C71.416 73.2222 71.3371 73.3766 71.2851 73.5454C71.2332 73.7142 71.2093 73.8934 71.2152 74.0709C71.2471 74.3428 71.4914 74.5578 71.8527 74.7905C72.3117 75.0254 72.8228 75.0717 73.3193 74.9233C73.8772 74.7353 74.4034 74.3932 74.8606 73.9212L78.9449 69.9098L74.791 67.7349C74.7509 67.7234 74.716 67.6941 74.6921 67.6519C74.6682 67.6098 74.6568 67.5574 74.6598 67.5036C74.6891 67.3727 74.7563 67.259 74.8471 67.187L76.3984 65.6635C76.5063 65.5558 76.6302 65.4794 76.7609 65.4401C76.8799 65.396 77.0045 65.3993 77.1179 65.4495L83.2159 68.6529C83.2541 68.6632 83.2875 68.6908 83.3102 68.7308C83.3329 68.7709 83.3436 68.8209 83.3402 68.872C83.3305 68.9395 83.3093 69.0041 83.278 69.0611C83.2468 69.118 83.2064 69.1658 83.1598 69.2008L77.0126 75.1814Z" fill="#455A64"/>
<path d="M77.3203 78.0766C77.9543 77.4565 78.693 77.0493 79.4689 76.8922C80.4275 76.7214 81.3974 76.7883 82.3273 77.0893L84.0061 77.5758C84.1898 77.4309 84.3295 77.2065 84.4002 76.943C84.4495 76.7435 84.3367 76.5708 84.1042 76.4212C83.943 76.3243 83.7674 76.2717 83.5883 76.2666C83.4602 76.2743 83.3324 76.2926 83.2057 76.3211C83.0916 76.3475 82.9756 76.3533 82.8611 76.3383C82.7726 76.3241 82.6863 76.2945 82.6044 76.2503L81.0844 75.419C81.0536 75.404 81.0269 75.3778 81.0074 75.3434C80.9879 75.3091 80.9764 75.2679 80.9742 75.2248C80.995 75.1757 81.0235 75.1328 81.0579 75.099C81.0923 75.0652 81.1317 75.0414 81.1734 75.0292C81.4538 74.7902 81.7604 74.6102 82.0818 74.4961C82.4996 74.3271 82.9278 74.2103 83.3605 74.1472C83.823 74.0887 84.2874 74.0881 84.7476 74.1454C85.2047 74.2077 85.651 74.3547 86.0732 74.5819C86.4672 74.7643 86.8224 75.0613 87.1124 75.4507C87.3166 75.7355 87.4263 76.1154 87.4184 76.5107C87.3874 76.9359 87.2565 77.3417 87.0438 77.6723C86.7662 78.1327 86.441 78.5411 86.078 78.8853L81.8012 83.0858C81.6944 83.1877 81.5717 83.2565 81.4427 83.2868C81.33 83.3308 81.2107 83.3294 81.1006 83.2826L79.597 82.4541C79.5595 82.4432 79.5266 82.4154 79.5039 82.3754C79.4813 82.3355 79.4703 82.286 79.473 82.2357C79.4845 82.1706 79.5057 82.1088 79.5353 82.0538C79.5649 81.9988 79.6024 81.9516 79.6456 81.9151L80.0344 81.5332C79.5921 81.6766 79.1398 81.753 78.6868 81.7608C78.2177 81.7542 77.7562 81.6301 77.3276 81.3951C77.0401 81.2555 76.7842 81.0275 76.5811 80.73C76.4383 80.4998 76.3668 80.207 76.38 79.9071C76.4099 79.5725 76.5094 79.2526 76.6675 78.9822C76.8562 78.6471 77.0754 78.3429 77.3203 78.0766ZM79.7262 79.8707C79.9132 79.981 80.1168 80.0385 80.324 80.0394C80.5528 80.0526 80.7828 80.0298 81.0089 79.9714C81.2437 79.912 81.4734 79.8195 81.6941 79.6953C81.9145 79.5731 82.1239 79.4181 82.3181 79.2336L81.0226 78.8242C80.7759 78.7567 80.5218 78.7387 80.2689 78.7709C80.0375 78.8005 79.8154 78.9139 79.6276 79.0983C79.4475 79.2753 79.3526 79.3684 79.4068 79.5419C79.461 79.7155 79.5376 79.7725 79.7262 79.8707Z" fill="#455A64"/>
<path d="M89.881 87.6973C89.7723 87.8079 89.6452 87.8825 89.5119 87.9137C89.3993 87.96 89.2807 87.9618 89.172 87.9189L87.6902 87.1463C87.6532 87.1366 87.6209 87.1101 87.599 87.0715C87.5771 87.0329 87.567 86.9846 87.5705 86.9352C87.5829 86.871 87.6049 86.8097 87.6352 86.7549C87.6655 86.7 87.7034 86.6528 87.747 86.6157L91.4038 83.0241C91.7239 82.7567 91.9809 82.3771 92.1419 81.934C92.221 81.6006 92.0813 81.3543 91.7161 81.1835C91.3573 81.0008 90.9512 80.9922 90.5694 81.1592C90.1273 81.333 89.7109 81.6177 89.345 81.9965L85.7456 85.5316C85.6342 85.636 85.5084 85.7098 85.3765 85.748C85.2639 85.7943 85.1453 85.7961 85.0366 85.7532L83.5548 84.9805C83.516 84.9697 83.4822 84.9416 83.4591 84.901C83.4361 84.8604 83.4252 84.8097 83.4284 84.7577C83.4574 84.6308 83.5231 84.5203 83.6116 84.45L90.2551 77.925C90.3634 77.8169 90.4871 77.739 90.6176 77.6969C90.7311 77.6614 90.8478 77.6669 90.9546 77.7128L92.384 78.4457C92.421 78.4553 92.4533 78.4818 92.4752 78.5204C92.4971 78.559 92.5072 78.6073 92.5037 78.6567C92.4935 78.7192 92.4734 78.779 92.4446 78.8324C92.4159 78.8858 92.3791 78.9316 92.3368 78.9668L92.0017 79.2959C92.1594 79.2323 92.34 79.1827 92.5398 79.1144C92.7444 79.0639 92.9507 79.0322 93.1568 79.0197C93.38 79.0116 93.6021 79.0255 93.8213 79.0611C94.0609 79.1096 94.2935 79.1935 94.5148 79.3113C94.8412 79.4587 95.1302 79.707 95.3579 80.0355C95.4498 80.1674 95.5174 80.3249 95.5563 80.4977C95.5952 80.6704 95.6045 80.8545 95.5835 81.0375C95.5047 81.4993 95.3362 81.9352 95.0942 82.3033C94.72 82.8741 94.2935 83.3851 93.8251 83.8237L89.881 87.6973Z" fill="#455A64"/>
<path d="M98.5987 82.3423C98.7083 82.243 98.8343 82.178 98.9684 82.1517C99.0855 82.1127 99.2117 82.1241 99.3304 82.1843L100.96 83.2146C101 83.2296 101.036 83.2628 101.062 83.3084C101.088 83.3539 101.102 83.409 101.102 83.4638C101.093 83.5341 101.073 83.6001 101.044 83.6579C101.016 83.7157 100.978 83.7642 100.934 83.8007L97.319 87.3515C96.9968 87.6187 96.7411 88.0038 96.5781 88.4673C96.498 88.8263 96.6456 89.1126 97.0573 89.312C97.4358 89.5566 97.8554 89.6125 98.2366 89.4693C98.6834 89.3003 99.0979 89.0246 99.4617 88.6542L103.077 85.1035C103.185 84.9949 103.312 84.9219 103.449 84.8896C103.567 84.8567 103.693 84.8762 103.809 84.9455L105.448 85.9663C105.488 85.9813 105.524 86.0145 105.55 86.0601C105.576 86.1057 105.59 86.1608 105.59 86.2156C105.573 86.3525 105.516 86.4702 105.432 86.543L98.7381 93.1172C98.6262 93.2212 98.4969 93.2894 98.3588 93.3172C98.2412 93.3514 98.116 93.3401 97.9969 93.2846L96.4953 92.3224C96.4552 92.3074 96.4191 92.2742 96.3932 92.2286C96.3673 92.1831 96.3534 92.128 96.3539 92.0732C96.363 92.0029 96.3824 91.9369 96.4111 91.8791C96.4398 91.8213 96.4772 91.7728 96.5212 91.7363L96.8473 91.4161C96.6642 91.4826 96.4764 91.53 96.2856 91.5579C96.0776 91.5999 95.8653 91.6135 95.6516 91.5985C95.4143 91.5823 95.1766 91.5417 94.9406 91.4772C94.6766 91.3933 94.4174 91.2718 94.1677 91.115C93.3275 90.5816 92.9234 89.9218 92.9971 89.0515C93.2476 87.7862 93.8639 86.7477 94.7148 86.1568L98.5987 82.3423Z" fill="#455A64"/>
<path d="M101.926 91.5567C102.553 90.9517 103.281 90.5541 104.047 90.3988C104.999 90.2416 105.962 90.3141 106.889 90.6127L108.606 91.0615C108.784 90.9164 108.923 90.7003 109.002 90.4455C109.043 90.2348 108.937 90.0742 108.699 89.9116C108.541 89.8136 108.368 89.764 108.193 89.7665C108.063 89.7704 107.934 89.7837 107.806 89.8063C107.695 89.8348 107.582 89.8439 107.47 89.8335C107.38 89.8144 107.292 89.7803 107.208 89.7321L105.694 88.8944C105.664 88.8793 105.637 88.853 105.618 88.8187C105.598 88.7843 105.587 88.7433 105.584 88.7003C105.63 88.6071 105.7 88.5383 105.781 88.5066C106.065 88.2713 106.375 88.0949 106.699 87.9837C107.11 87.8092 107.533 87.6912 107.961 87.6317C108.423 87.5864 108.887 87.5927 109.347 87.6505C109.799 87.7068 110.241 87.8521 110.659 88.0814C111.049 88.2693 111.403 88.5669 111.695 88.9536C111.898 89.2386 112.009 89.6179 112.002 90.0118C111.973 90.4353 111.844 90.8389 111.634 91.1671C111.36 91.6242 111.038 92.0292 110.679 92.37L106.443 96.5299C106.337 96.6308 106.216 96.6986 106.088 96.7279C105.973 96.7736 105.851 96.7671 105.741 96.7095L104.25 95.8869C104.195 95.7898 104.154 95.717 104.12 95.6563C104.131 95.5915 104.152 95.5301 104.181 95.4754C104.21 95.4208 104.247 95.3741 104.29 95.3379L104.59 95.0427C104.155 95.1931 103.707 95.2706 103.259 95.2734C102.789 95.2666 102.327 95.1357 101.9 94.8886C101.613 94.7499 101.357 94.5208 101.156 94.2212C101.017 93.9883 100.945 93.6979 100.953 93.3999C100.99 93.0714 101.089 92.7591 101.242 92.4922C101.434 92.1391 101.665 91.8239 101.926 91.5567ZM104.32 93.3807C104.506 93.4828 104.705 93.537 104.908 93.5404C105.135 93.5614 105.365 93.54 105.589 93.4767C105.822 93.4164 106.052 93.3298 106.275 93.2179C106.496 93.0911 106.704 92.9307 106.896 92.7402L105.598 92.3336C105.353 92.2648 105.1 92.2453 104.849 92.2759C104.62 92.3112 104.401 92.4222 104.213 92.5982C104.044 92.7642 103.94 92.8657 103.995 93.039C104.027 93.1265 104.073 93.2036 104.13 93.2647C104.188 93.3258 104.255 93.3696 104.327 93.3928L104.32 93.3807Z" fill="#455A64"/>
<path d="M119.975 93.6787C120.015 93.6922 120.05 93.7236 120.075 93.7676C120.1 93.8116 120.113 93.8652 120.111 93.9191C120.157 93.9993 120.055 94.1408 119.948 94.2461L118.476 95.6911C118.37 95.8026 118.241 95.8715 118.104 95.8904C117.987 95.9326 117.861 95.9255 117.744 95.8701L116.58 95.1829C116.151 94.9665 115.691 94.9089 115.249 95.0166C114.807 95.1243 114.4 95.393 114.074 95.7933L110.508 99.2957C110.398 99.406 110.27 99.4818 110.133 99.518C110.012 99.5504 109.885 99.5388 109.765 99.4844L108.159 98.5248C108.119 98.5114 108.084 98.48 108.059 98.436C108.034 98.392 108.021 98.3384 108.022 98.2845C108.033 98.2151 108.053 98.1496 108.083 98.0919C108.113 98.0342 108.151 97.9852 108.196 97.9479L114.957 91.3068C115.071 91.2009 115.201 91.1297 115.34 91.0979C115.455 91.0584 115.577 91.0688 115.69 91.1277L117.172 92.0015C117.233 92.1083 117.278 92.1885 117.316 92.2553C117.306 92.3246 117.285 92.3901 117.255 92.4478C117.226 92.5056 117.188 92.5545 117.143 92.5918L116.763 92.965C117.163 92.8671 117.573 92.8349 117.983 92.869C118.392 92.8956 118.797 93.0278 119.175 93.2582L119.975 93.6787Z" fill="#455A64"/>
<path d="M115.394 106.028C115.284 106.093 115.171 106.147 115.055 106.188C114.938 106.23 114.815 106.223 114.703 106.169L113.124 105.295C113.088 105.285 113.057 105.258 113.035 105.219C113.013 105.181 113.002 105.133 113.005 105.085C113.029 104.965 113.087 104.861 113.166 104.793C113.166 104.793 113.232 104.727 113.271 104.69L116.732 102.714L120.924 94.8646C120.952 94.827 120.984 94.7954 121.019 94.7711C121.114 94.6785 121.223 94.6115 121.337 94.574C121.441 94.5446 121.548 94.5525 121.647 94.597L123.225 95.4707C123.266 95.4804 123.302 95.5099 123.327 95.5534C123.352 95.5969 123.363 95.6512 123.358 95.7055C123.334 95.8126 123.296 95.9142 123.247 96.0067L120.902 100.368L125.921 97.4782C126.032 97.4106 126.148 97.361 126.267 97.3305C126.381 97.2859 126.501 97.2884 126.612 97.3378L128.205 98.2363C128.239 98.245 128.269 98.2701 128.29 98.3065C128.311 98.343 128.32 98.3883 128.317 98.4339C128.307 98.4942 128.287 98.5512 128.259 98.6014C128.232 98.6517 128.197 98.6942 128.156 98.7262C128.125 98.7664 128.09 98.801 128.052 98.8291L115.394 106.028Z" fill="#455A64"/>
<path d="M27.5496 111.633L26.2945 113.395C26.2594 113.447 26.2071 113.486 26.1467 113.504C26.0862 113.522 26.0212 113.519 25.9627 113.495L23.842 112.679C23.5102 112.55 23.3083 112.965 23.4958 113.381L24.7365 116.016C24.7987 116.177 24.7987 116.356 24.7365 116.517L24.0152 118.823C23.8998 119.195 24.2027 119.696 24.5201 119.682L26.5398 119.553C26.6158 119.553 26.6905 119.573 26.7563 119.611C26.8222 119.648 26.8769 119.703 26.9149 119.768L28.5883 122.002C28.8624 122.36 29.2375 122.26 29.2519 121.83V119.109C29.2459 119.036 29.2602 118.963 29.2932 118.897C29.3263 118.831 29.3769 118.776 29.4395 118.737L31.1851 117.82C31.4592 117.677 31.4015 117.104 31.0841 116.861L29.0644 115.3C28.9346 115.187 28.8438 115.037 28.8047 114.87L28.2132 112.006C28.1844 111.605 27.7516 111.361 27.5496 111.633Z" fill="#F28F8F"/>
<path d="M15.2436 110.946C15.4518 109.529 16.0759 108.204 17.0381 107.137C18.0002 106.069 19.2576 105.307 20.6535 104.945C24.6928 103.928 27.5493 106.678 29.6411 108.969C30.1893 109.585 29.0063 109.814 28.5591 109.385C26.3663 107.28 22.0528 105.088 18.9944 107.666C15.936 110.244 16.7584 114.211 17.6961 117.175C18.5901 119.974 20.3581 122.418 22.7441 124.153C25.1302 125.889 28.0105 126.825 30.9683 126.828C45.5389 126.498 33.0457 104.243 24.6784 102.668C24.0004 102.539 23.6541 101.608 24.5919 101.522C28.9198 101.093 31.5742 104.487 33.9113 107.065C36.4827 109.814 38.3873 113.111 39.4798 116.703C41.3985 123.348 36.0031 131.181 27.0299 128.26C19.1676 125.697 13.6711 118.493 15.2436 110.946Z" fill="#F28F8F"/>
<path d="M118.435 189.612C118.644 188.195 119.268 186.87 120.23 185.803C121.192 184.736 122.449 183.973 123.845 183.611C127.885 182.595 130.741 185.33 132.833 187.636C133.381 188.237 132.198 188.466 131.751 188.051C129.558 185.946 125.245 183.755 122.186 186.332C119.128 188.91 119.95 192.877 120.888 195.842C121.782 198.641 123.55 201.085 125.936 202.82C128.322 204.555 131.202 205.492 134.16 205.494C148.731 205.165 136.238 182.91 127.87 181.334C127.192 181.206 126.846 180.275 127.784 180.174C132.112 179.759 134.766 183.153 137.103 185.731C139.677 188.479 141.582 191.776 142.672 195.369C144.59 202 139.195 209.848 130.222 206.926C122.359 204.363 116.863 197.145 118.435 189.612Z" fill="#F28F8F"/>
</svg>
