<svg width="160" height="160" viewBox="0 0 160 160" fill="none" xmlns="http://www.w3.org/2000/svg">
<path d="M148.677 91.2334C154.897 53.2878 129.179 17.484 91.2334 11.2634C53.2879 5.04276 17.4841 30.7609 11.2634 68.7065C5.04281 106.652 30.761 142.456 68.7065 148.677C106.652 154.897 142.456 129.179 148.677 91.2334Z" fill="#76459D"/>
<path d="M120.505 124.913H39.3667V56.2713L79.9359 30.5195L120.505 56.2713V124.913Z" fill="#A6A6A6"/>
<path d="M115.931 124.221H43.9639V34.0454H97.409L115.931 51.6745V124.221Z" fill="white"/>
<path d="M97.4092 34.0454L115.931 51.6745H97.4092V34.0454Z" fill="#EBEBEB"/>
<path d="M50.9931 51.9419L91.0044 51.9419V49.5765L50.9931 49.5765V51.9419Z" fill="#DBDBDB"/>
<path d="M50.9931 57.9224L91.0044 57.9224V55.5569L50.9931 55.5569V57.9224Z" fill="#DBDBDB"/>
<path d="M50.9931 63.9033L91.0044 63.9033V61.5379L50.9931 61.5379V63.9033Z" fill="#DBDBDB"/>
<path d="M50.9707 69.9058L109.615 69.9058V67.5403H50.9707V69.9058Z" fill="#DBDBDB"/>
<path d="M50.9707 75.8862L109.615 75.8862V73.5208H50.9707V75.8862Z" fill="#DBDBDB"/>
<path d="M50.9707 81.8892L109.615 81.8892V79.5237H50.9707V81.8892Z" fill="#DBDBDB"/>
<path d="M50.9707 87.8696L109.615 87.8696V85.5042H50.9707V87.8696Z" fill="#DBDBDB"/>
<path d="M50.9707 93.8501L109.615 93.8501V91.4847H50.9707V93.8501Z" fill="#DBDBDB"/>
<path d="M50.9707 99.853L109.615 99.853V97.4876H50.9707V99.853Z" fill="#DBDBDB"/>
<path d="M50.9707 105.833L109.615 105.833V103.468H50.9707V105.833Z" fill="#DBDBDB"/>
<path d="M50.9707 111.836L109.615 111.836V109.471H50.9707V111.836Z" fill="#DBDBDB"/>
<path d="M50.9707 117.817L109.615 117.817V115.451H50.9707V117.817Z" fill="#DBDBDB"/>
<path d="M120.505 73.4316V124.891H39.3892V73.4316C42.8703 75.3954 46.2846 77.4707 49.7434 79.5014C53.2023 81.5321 56.6166 83.6074 60.0085 85.705C63.817 88.0258 67.618 90.3764 71.4116 92.7567L79.936 98.09L88.4381 92.7567H88.3266H88.4605L99.8412 85.7273C103.255 83.6297 106.692 81.5767 110.129 79.5237C113.565 77.4707 117.024 75.4177 120.505 73.4316Z" fill="#EBEBEB"/>
<path d="M120.505 73.4316C117.247 75.6632 113.811 77.8947 110.597 80.1262C107.384 82.3578 103.903 84.5893 100.578 86.8208C97.2527 89.0523 93.5707 91.3954 90.0672 93.6493L89.7548 93.8724L80.4046 99.8306L79.936 100.098L79.4897 99.8306L70.1619 93.8501L69.8272 93.6493C66.3014 91.4029 62.7904 89.1267 59.2944 86.8208C55.9694 84.5893 52.5998 82.3578 49.2971 80.1262C45.9945 77.8947 42.6026 75.6632 39.3892 73.4316C42.8703 75.3954 46.2846 77.4707 49.7434 79.5014C53.2023 81.5321 56.6166 83.6074 60.0085 85.705C63.817 88.0258 67.618 90.3764 71.4116 92.7567L79.936 98.09L88.4381 92.7567L99.8189 85.7273C103.233 83.6297 106.67 81.5767 110.106 79.5237C113.543 77.4707 117.024 75.4177 120.505 73.4316Z" fill="#DBDBDB"/>
<path d="M71.5234 92.7119L70.2515 93.8054C68.2208 95.5237 66.1231 97.175 64.0032 98.7594C61.4146 100.745 58.7814 102.62 56.1259 104.494C53.4704 106.369 50.7702 108.176 48.0255 109.917C45.2807 111.658 42.5359 113.398 39.6572 114.96C42.1342 112.729 44.6781 110.81 47.2667 108.846C49.8553 106.882 52.5108 104.985 55.144 103.111C57.7772 101.236 60.4997 99.4288 63.2445 97.6659C65.476 96.26 67.7075 94.8988 69.939 93.6045C70.4523 93.2921 70.9879 93.002 71.5234 92.7119Z" fill="#DBDBDB"/>
<path d="M120.394 115.028C117.515 113.466 114.748 111.747 112.026 109.984C109.303 108.221 106.603 106.414 103.903 104.562C101.203 102.71 98.6141 100.813 96.0255 98.8268C93.9279 97.2424 91.8303 95.6133 89.8219 93.8951L88.5276 92.7793H88.416H88.5499L90.1343 93.6942C92.3658 94.9885 94.5974 96.3497 96.8289 97.7556C99.5513 99.5185 102.251 101.348 104.907 103.201C107.563 105.053 110.218 106.95 112.784 108.936C115.351 110.922 117.85 112.885 120.394 115.028Z" fill="#DBDBDB"/>
<path d="M96.5715 68.7962C98.7453 59.6221 93.0703 50.4228 83.8962 48.249C74.722 46.0753 65.5228 51.7503 63.349 60.9244C61.1753 70.0985 66.8502 79.2978 76.0243 81.4716C85.1985 83.6453 94.3978 77.9704 96.5715 68.7962Z" fill="#76459D"/>
<path d="M71.3003 66.2687C73.739 68.3032 76.0493 70.4869 78.218 72.8071L76.6559 72.9186C77.5039 71.4235 78.4189 69.973 79.3561 68.4556C80.2934 66.9381 81.2306 65.5769 82.2348 64.1934C84.1995 61.358 86.3541 58.6591 88.6839 56.1152C87.3188 59.2884 85.7305 62.3607 83.9307 65.3091C83.0828 66.7819 82.1232 68.2324 81.2083 69.7722C80.2934 71.3119 79.3115 72.6285 78.285 74.0344L77.5039 75.1278L76.7229 74.146C74.7474 71.6399 72.9361 69.0086 71.3003 66.2687Z" fill="white"/>
</svg>
