<svg width="75" height="77" viewBox="0 0 75 77" fill="none" xmlns="http://www.w3.org/2000/svg">
<path d="M65.4818 13.4241C71.4696 20.6857 74.5941 29.9985 74.2371 39.5199C73.8801 49.0414 70.0677 58.078 63.554 64.842C57.0403 71.606 48.3 75.6048 39.062 76.0471C29.8239 76.4894 20.7613 73.3432 13.6668 67.2308L2.85447 71.1227C2.44571 71.2692 2.00357 71.285 1.5859 71.1682C1.16823 71.0514 0.794538 70.8074 0.513765 70.468C0.232992 70.1287 0.0582107 69.7099 0.0123448 69.2665C-0.0335211 68.8231 0.0516391 68.3758 0.256691 67.9831L5.705 57.595C0.934203 49.4086 -0.672329 39.6723 1.20468 30.3214C3.08169 20.9704 8.30481 12.6895 15.8359 7.12457C23.367 1.5596 32.6547 -0.881949 41.8528 0.285203C51.051 1.45236 59.4862 6.14275 65.4818 13.4241ZM11.5324 60.8648C15.9056 66.136 21.6979 69.9524 28.1765 71.8312C34.6552 73.71 41.5291 73.5669 47.9288 71.42C54.3284 69.273 59.9663 65.2186 64.1293 59.7698C68.2923 54.3209 70.7933 47.7223 71.3159 40.8087C71.8386 33.8951 70.3594 26.977 67.0655 20.9297C63.7716 14.8824 58.811 9.97745 52.8112 6.83537C46.8114 3.69328 40.0419 2.45522 33.359 3.27779C26.6762 4.10035 20.3802 6.9466 15.2676 11.4565C11.8725 14.4469 9.08241 18.097 7.05657 22.1985C5.03073 26.3 3.80886 30.7725 3.46071 35.3605C3.11256 39.9486 3.64495 44.5624 5.02749 48.9384C6.41004 53.3145 8.61567 57.3671 11.5184 60.8648H11.5324Z" fill="#455A64"/>
<path d="M34.7279 73.0052C15.9935 71.5064 1.98551 54.6433 3.4402 35.3405C4.8949 16.0377 21.2614 1.60469 39.9958 3.10352C58.7303 4.60234 72.7382 21.4654 71.2835 40.7682C69.8288 60.0711 53.4624 74.5041 34.7279 73.0052Z" fill="white"/>
<path d="M25 18.3881C25.7305 17.6298 26.5039 16.9302 27.3147 16.294C28.1795 15.6249 29.0944 15.0497 30.0481 14.5754C31.0774 14.0723 32.1452 13.6854 33.237 13.42C34.4532 13.1353 35.6907 12.995 36.9308 13.0012C38.6024 12.9784 40.2659 13.276 41.8558 13.8822C43.2599 14.4084 44.5583 15.2633 45.6726 16.3951C46.7258 17.4804 47.5659 18.8206 48.1351 20.3233C48.7271 21.9572 49.0207 23.7185 48.997 25.4936C49.0295 27.1322 48.7998 28.7634 48.3198 30.3027C47.9005 31.5773 47.3193 32.7702 46.5961 33.841C45.9321 34.8106 45.1715 35.6833 44.3306 36.4406L42.0158 38.5058C41.3462 39.088 40.7126 39.725 40.1197 40.4122C39.6154 40.9743 39.2823 41.715 39.1717 42.5207L38.4575 47.8642H33.1755L32.646 41.8852C32.5055 40.8525 32.6523 39.7941 33.0646 38.8669C33.4871 37.9743 34.0368 37.1732 34.6899 36.4984C35.4172 35.7355 36.1908 35.0356 37.0047 34.4043C37.8296 33.7414 38.6116 33.0076 39.344 32.2091C40.0694 31.4184 40.688 30.5029 41.1786 29.494C41.6905 28.4134 41.9456 27.1914 41.9173 25.9557C41.9316 25.1439 41.7885 24.339 41.4987 23.6017C41.2208 22.9105 40.8223 22.2955 40.329 21.7964C39.7952 21.2854 39.1858 20.8938 38.5314 20.641C37.7978 20.3751 37.0337 20.2436 36.2659 20.2511C35.247 20.2231 34.2302 20.374 33.2494 20.6988C32.5241 20.9572 31.8228 21.3008 31.1562 21.7242C30.5899 22.0997 30.1097 22.4463 29.7034 22.7496C29.3961 23.0208 29.0282 23.1814 28.6445 23.2117C28.3116 23.236 27.9801 23.1449 27.6911 22.9498C27.4021 22.7546 27.1684 22.464 27.0193 22.1141L25 18.3881ZM30.8484 57.5115C30.8493 56.7741 30.9705 56.0436 31.2055 55.3596C31.4263 54.6987 31.7617 54.0987 32.1905 53.5977C33.093 52.5647 34.303 51.9846 35.5641 51.9802C36.2039 51.9721 36.8379 52.1247 37.4233 52.4279C37.9782 52.7044 38.4837 53.1013 38.9131 53.5977C39.5796 54.3801 40.0327 55.3773 40.2147 56.4626C40.3967 57.5478 40.2994 58.6721 39.935 59.6923C39.4574 60.9875 38.5768 62.0204 37.4725 62.5807C36.8836 62.8674 36.2509 63.0099 35.6133 62.9995C34.9718 63.0099 34.3351 62.8674 33.7419 62.5807C33.1784 62.3217 32.6668 61.9282 32.2397 61.4253C31.8113 60.9352 31.4756 60.3447 31.2547 59.6923C30.9979 59.0039 30.8598 58.2628 30.8484 57.5115Z" fill="#BA68C8"/>
</svg>
