<svg width="16" height="20" viewBox="0 0 16 20" fill="none" xmlns="http://www.w3.org/2000/svg">
<path d="M9.57714 11.4293C11.2365 11.4677 12.8443 10.8879 14.0483 9.81681C15.2523 8.74576 15.9541 7.27091 16 5.71557C15.9541 4.16022 15.2523 2.68538 14.0483 1.61432C12.8443 0.543267 11.2365 -0.0366129 9.57714 0.00179307H3.04762C2.84555 0.00179307 2.65176 0.0770414 2.50887 0.210984C2.36599 0.344926 2.28571 0.526591 2.28571 0.716015V10.0009H0.761905C0.559835 10.0009 0.366042 10.0761 0.223157 10.2101C0.080272 10.344 0 10.5257 0 10.7151C0 10.9045 0.080272 11.0862 0.223157 11.2201C0.366042 11.3541 0.559835 11.4293 0.761905 11.4293H2.28571V12.8578H0.761905C0.559835 12.8578 0.366042 12.933 0.223157 13.067C0.080272 13.2009 0 13.3826 0 13.572C0 13.7614 0.080272 13.9431 0.223157 14.077C0.366042 14.211 0.559835 14.2862 0.761905 14.2862H2.28571V19.2858C2.28571 19.4752 2.36599 19.6569 2.50887 19.7908C2.65176 19.9248 2.84555 20 3.04762 20C3.24969 20 3.44348 19.9248 3.58637 19.7908C3.72925 19.6569 3.80952 19.4752 3.80952 19.2858V14.2862H10.6667C10.8687 14.2862 11.0625 14.211 11.2054 14.077C11.3483 13.9431 11.4286 13.7614 11.4286 13.572C11.4286 13.3826 11.3483 13.2009 11.2054 13.067C11.0625 12.933 10.8687 12.8578 10.6667 12.8578H3.80952V11.4293H9.57714ZM3.80952 1.43024H9.57714C10.8318 1.39356 12.0511 1.82353 12.9689 2.62635C13.8867 3.42917 14.4285 4.53967 14.4762 5.71557C14.4305 6.89211 13.8893 8.00372 12.971 8.80693C12.0528 9.61014 10.8324 10.0395 9.57714 10.0009H3.80952V1.43024Z" fill="#581C87"/>
</svg>
