<svg width="185" height="184" viewBox="0 0 185 184" fill="none" xmlns="http://www.w3.org/2000/svg">
<path d="M114.354 72.295V90.7718H107.687V72.295C107.687 63.3253 100.877 56.0332 92.4996 56.0332C84.122 56.0332 77.3125 63.3253 77.3125 72.295V90.7718H70.6455V72.295C70.6455 59.4435 80.4486 49.0044 92.4996 49.0044C104.551 49.0044 114.354 59.3996 114.354 72.295Z" fill="#455A64"/>
<path d="M70.6455 73.271L77.3015 73.5342V90.728H70.6455V73.271Z" fill="#263238"/>
<path d="M114.354 75.0476V90.7282H107.698V74.7734L114.354 75.0476Z" fill="#263238"/>
<path d="M122.907 76.8677H62.1035V132.024H122.907V76.8677Z" fill="#B79DCB"/>
<path opacity="0.1" d="M122.896 76.8677H92.5V132.024H122.896V76.8677Z" fill="black"/>
<path d="M95.0656 106.463L97.6205 118.525H86.8196L89.3636 106.463C88.365 105.844 87.5956 104.915 87.172 103.819C86.7484 102.723 86.6935 101.518 87.0158 100.388C87.3381 99.2578 88.0199 98.2633 88.9579 97.5553C89.896 96.8473 91.0393 96.4644 92.2145 96.4644C93.3898 96.4644 94.5331 96.8473 95.4712 97.5553C96.4093 98.2633 97.0911 99.2578 97.4133 100.388C97.7356 101.518 97.6807 102.723 97.2571 103.819C96.8335 104.915 96.0641 105.844 95.0656 106.463Z" fill="#263238"/>
<path d="M92.6868 0L95.0115 5.53753L100.999 6.04195L96.448 9.96758L97.8186 15.8122L92.6868 12.698L87.544 15.8122L88.9147 9.96758L84.375 6.04195L90.3512 5.53753L92.6868 0Z" fill="#B79DCB"/>
<path d="M46.6642 12.2373L51.4451 15.8669L56.873 13.3119L54.8992 18.9811L59.0112 23.3563L53.0131 23.2356L50.1183 28.499L48.3748 22.7422L42.4863 21.6237L47.4098 18.1915L46.6642 12.2373Z" fill="#B79DCB"/>
<path d="M12.9238 45.8465L18.8781 46.5922L22.2993 41.6687L23.4287 47.5571L29.1746 49.3006L23.9222 52.1955L24.0428 58.1936L19.6676 54.0816L13.9985 56.0553L16.5424 50.6275L12.9238 45.8465Z" fill="#B79DCB"/>
<path d="M0.5 91.8135L6.03753 89.4888L6.54193 83.5017L10.4676 88.0524L16.3121 86.6817L13.198 91.8135L16.3121 96.9563L10.4676 95.5856L6.54193 100.125L6.03753 94.1491L0.5 91.8135Z" fill="#B79DCB"/>
<path d="M12.7373 137.835L16.3669 133.054L13.8119 127.627L19.481 129.589L23.8562 125.488L23.7356 131.486L28.9881 134.381L23.2532 136.125L22.1237 142.013L18.6915 137.09L12.7373 137.835Z" fill="#B79DCB"/>
<path d="M46.3468 171.576L47.0924 165.622L42.1689 162.201L48.0574 161.071L49.8009 155.325L52.6958 160.578L58.6939 160.457L54.5928 164.832L56.5556 170.501L51.1277 167.957L46.3468 171.576Z" fill="#B79DCB"/>
<path d="M92.3137 184L89.9891 178.463L84.002 177.958L88.5526 174.033L87.1819 168.188L92.3137 171.302L97.4565 168.188L96.0859 174.033L100.626 177.958L94.6494 178.463L92.3137 184Z" fill="#B79DCB"/>
<path d="M138.335 171.762L133.554 168.133L128.127 170.688L130.1 165.019L125.988 160.644L131.986 160.764L134.881 155.501L136.625 161.258L142.513 162.376L137.59 165.808L138.335 171.762Z" fill="#B79DCB"/>
<path d="M172.076 138.153L166.122 137.408L162.701 142.331L161.571 136.443L155.825 134.699L161.078 131.804L160.957 125.806L165.332 129.918L171.001 127.945L168.457 133.373L172.076 138.153Z" fill="#B79DCB"/>
<path d="M184.5 92.1863L178.962 94.511L178.458 100.487L174.532 95.9475L168.688 97.3181L171.802 92.1863L168.688 87.0435L174.532 88.4142L178.458 83.8745L178.962 89.8507L184.5 92.1863Z" fill="#B79DCB"/>
<path d="M172.262 46.1644L168.633 50.9453L171.188 56.3732L165.519 54.3994L161.144 58.5115L161.264 52.5134L156.012 49.6185L161.747 47.875L162.876 41.9866L166.308 46.9101L172.262 46.1644Z" fill="#B79DCB"/>
<path d="M138.654 12.4238L137.908 18.3781L142.832 21.7993L136.943 22.9287L135.2 28.6746L132.305 23.4222L126.307 23.5428L130.408 19.1676L128.445 13.4985L133.873 16.0424L138.654 12.4238Z" fill="#B79DCB"/>
</svg>
