<svg width="421" height="403" viewBox="0 0 421 403" fill="none" xmlns="http://www.w3.org/2000/svg">
<path d="M61.6592 367.089C143.856 414.733 277.139 414.733 359.345 367.089C441.552 319.445 441.552 242.197 359.345 194.562C277.139 146.927 143.856 146.918 61.65 194.562C-20.5561 242.206 -20.547 319.471 61.6592 367.089Z" fill="#F5F5F5"/>
<path d="M337.494 357.101C359.734 357.101 377.763 346.881 377.763 334.273C377.763 321.665 359.734 311.444 337.494 311.444C315.254 311.444 297.225 321.665 297.225 334.273C297.225 346.881 315.254 357.101 337.494 357.101Z" fill="#E0E0E0"/>
<path d="M312.233 40.3888L319.223 44.3532C319.185 44.0563 319.163 43.7576 319.159 43.4583V41.4538C319.159 37.8742 321.692 36.4781 324.809 38.25C326.151 39.0598 327.301 40.1432 328.181 41.4269C328.691 36.9524 332.245 35.3237 336.564 37.7668C341.23 40.4515 345.012 46.85 345.012 52.1478V55.1188C345.043 56.3052 344.8 57.4831 344.301 58.5642L350.097 61.8574C351.015 62.4451 351.777 63.2382 352.322 64.1716C352.867 65.105 353.179 66.1521 353.232 67.2268C353.232 69.1866 351.828 69.983 350.097 69.0166L312.233 47.539C311.316 46.9514 310.553 46.1582 310.008 45.2248C309.463 44.2914 309.151 43.2444 309.099 42.1697C309.117 40.2009 310.502 39.3687 312.233 40.3888Z" fill="#EBEBEB"/>
<path d="M282.324 60.3809L287.601 63.3699C287.572 63.1442 287.557 62.9171 287.555 62.6898V61.1863C287.555 58.5017 289.469 57.4367 291.82 58.7701C292.834 59.3791 293.702 60.1975 294.362 61.1684C294.745 57.8126 297.424 56.5597 300.687 58.4032C302.544 59.5929 304.089 61.1958 305.198 63.0818C306.306 64.9679 306.946 67.0839 307.066 69.2583V71.5045C307.09 72.3985 306.906 73.2861 306.528 74.0997L310.902 76.5875C311.591 77.027 312.165 77.6199 312.576 78.3181C312.988 79.0163 313.226 79.8 313.271 80.6056C313.271 82.0911 312.214 82.6907 310.902 81.9479L282.324 65.7414C281.638 65.3036 281.066 64.7135 280.654 64.0187C280.243 63.3238 280.003 62.5437 279.955 61.7412C279.955 60.2378 281.021 59.6382 282.324 60.3809Z" fill="#EBEBEB"/>
<path d="M48.3824 229.64C47.863 229.918 38.3584 232.575 34.8044 227.994C31.2504 223.412 37.1282 216.279 33.8202 213.675C30.5123 211.071 21.2355 213.675 19.0029 208.154C16.7703 202.632 23.3861 200.234 19.6681 194.659C17.3261 191.151 11.5669 189.182 11.0566 185.933C10.2182 180.51 19.3674 178.014 27.2044 183.141C35.0413 188.269 39.7709 185.916 42.2586 185.566C44.7464 185.217 50.0956 185.987 49.9225 194.515C49.7493 203.044 48.3824 229.64 48.3824 229.64Z" fill="#BA68C8"/>
<path d="M49.01 217.452C48.8864 217.453 48.7665 217.41 48.6726 217.331C48.5788 217.252 48.5173 217.143 48.4997 217.022C45.7659 200.771 26.5288 187.536 16.523 184.699C16.3901 184.662 16.2775 184.575 16.21 184.457C16.1425 184.338 16.1256 184.199 16.1631 184.068C16.2005 183.937 16.2893 183.827 16.4098 183.761C16.5302 183.694 16.6726 183.678 16.8055 183.714C27.0391 186.623 46.7227 200.181 49.5203 216.826C49.5414 216.958 49.5082 217.094 49.428 217.203C49.3478 217.312 49.227 217.385 49.092 217.407L49.01 217.452Z" fill="white"/>
<path d="M26.3201 203.849C26.2054 203.853 26.0928 203.819 26.0003 203.752C25.9079 203.686 25.8409 203.59 25.8104 203.482C25.7799 203.373 25.7875 203.258 25.832 203.154C25.8765 203.05 25.9554 202.964 26.0558 202.909C26.3656 202.722 33.7652 198.435 41.0645 200.457C41.1968 200.497 41.3085 200.585 41.3764 200.703C41.4443 200.822 41.4631 200.961 41.429 201.093C41.3909 201.222 41.3025 201.331 41.1831 201.396C41.0637 201.461 40.9228 201.478 40.7911 201.442C33.911 199.554 26.6208 203.742 26.6208 203.786C26.5289 203.836 26.4244 203.857 26.3201 203.849Z" fill="white"/>
<path d="M52.0742 235.887C52.1716 237.189 52.5795 238.449 53.265 239.567C53.9505 240.685 54.8943 241.628 56.02 242.322L166.585 304.964C167.808 305.574 169.16 305.891 170.531 305.891C171.902 305.891 173.254 305.574 174.477 304.964L325.748 219.189C326.941 218.571 327.939 217.645 328.635 216.511C329.331 215.377 329.699 214.078 329.699 212.754C329.699 211.43 329.331 210.131 328.635 208.998C327.939 207.864 326.941 206.938 325.748 206.32L215.192 143.677C213.97 143.068 212.618 142.75 211.247 142.75C209.875 142.75 208.524 143.068 207.301 143.677L56.0291 229.453C54.9017 230.145 53.9561 231.088 53.269 232.206C52.5819 233.324 52.1726 234.585 52.0742 235.887Z" fill="#37474F"/>
<path d="M170.533 297.545V305.931C169.162 305.967 167.803 305.659 166.587 305.036L56.0223 242.393C54.8664 241.795 53.8926 240.906 53.2002 239.818C52.5078 238.73 52.1215 237.481 52.0807 236.199C52.04 234.916 52.3462 233.646 52.9682 232.517C53.5902 231.389 54.5056 230.443 55.6214 229.775C53.8535 231.019 53.9902 232.844 56.0223 233.999L166.587 296.642C167.803 297.268 169.161 297.58 170.533 297.545Z" fill="#263238"/>
<path d="M48.3765 229.587C47.2764 228.856 46.3679 227.88 45.7249 226.738C45.0819 225.597 44.7228 224.322 44.6768 223.019V93.4466C44.7516 92.1022 45.1478 90.794 45.8333 89.6279C46.5188 88.4619 47.4744 87.4707 48.6226 86.7349L199.894 0.968077C201.068 0.357478 202.372 0.0263848 203.7 0.00151316C205.028 -0.0233585 206.343 0.258688 207.54 0.824894C208.641 1.55802 209.55 2.5356 210.195 3.67837C210.839 4.82115 211.2 6.09696 211.249 7.40238V136.965C211.175 138.31 210.78 139.619 210.094 140.785C209.408 141.951 208.452 142.942 207.303 143.677L56.0312 229.453C54.8562 230.066 53.5505 230.397 52.2203 230.42C50.8901 230.444 49.5731 230.158 48.3765 229.587Z" fill="#455A64"/>
<path d="M55.5574 229.686C54.4261 230.187 53.1966 230.438 51.9558 230.421C50.715 230.404 49.4931 230.119 48.3765 229.587C47.278 228.855 46.3706 227.878 45.7278 226.737C45.085 225.596 44.725 224.322 44.6768 223.019V93.447C44.7215 92.0996 45.1202 90.7863 45.8341 89.6348L53.2336 93.8229C52.525 94.9767 52.1267 96.2886 52.0763 97.6351V227.216C52.0763 229.507 53.5981 230.536 55.5574 229.686Z" fill="#263238"/>
<path d="M52.0742 97.6435V227.215C52.0742 229.685 53.8421 230.688 56.02 229.453L207.292 143.677C208.441 142.942 209.397 141.951 210.083 140.785C210.769 139.619 211.164 138.31 211.238 136.965V7.4022C211.238 4.93229 209.47 3.93 207.292 5.16496L56.02 90.9318C54.8723 91.6682 53.9172 92.6594 53.2317 93.8253C52.5463 94.9913 52.1497 96.2992 52.0742 97.6435Z" fill="#37474F"/>
<path d="M56.023 233.927L166.588 296.57C167.811 297.179 169.163 297.497 170.534 297.497C171.905 297.497 173.257 297.179 174.48 296.57L325.751 210.794C327.929 209.559 327.929 207.555 325.751 206.32L215.195 143.677C213.973 143.068 212.621 142.75 211.25 142.75C209.878 142.75 208.527 143.068 207.304 143.677L56.0321 229.453C53.845 230.688 53.845 232.666 56.023 233.927Z" fill="#455A64"/>
<path d="M58.1467 98.1268L203.951 15.4564C205.263 14.7136 206.32 15.3132 206.32 16.7987V128.956C206.276 129.763 206.039 130.549 205.627 131.248C205.215 131.948 204.641 132.543 203.951 132.983L58.1467 215.662C56.8344 216.405 55.7773 215.806 55.7773 214.32V102.154C55.8211 101.347 56.0586 100.561 56.4704 99.8614C56.8821 99.1615 57.4565 98.5672 58.1467 98.1268Z" fill="white"/>
<path opacity="0.6" d="M58.1467 98.1268L203.951 15.4564C205.263 14.7136 206.32 15.3132 206.32 16.7987V128.956C206.276 129.763 206.039 130.549 205.627 131.248C205.215 131.948 204.641 132.543 203.951 132.983L58.1467 215.662C56.8344 216.405 55.7773 215.806 55.7773 214.32V102.154C55.8211 101.347 56.0586 100.561 56.4704 99.8614C56.8821 99.1615 57.4565 98.5672 58.1467 98.1268Z" fill="#BA68C8"/>
<path d="M130.756 91.0298C134.638 88.8283 137.791 90.6181 137.791 95.021C137.658 97.4165 136.951 99.7474 135.729 101.825C134.507 103.902 132.803 105.667 130.756 106.977C126.874 109.178 123.73 107.397 123.73 102.995C123.862 100.598 124.566 98.2661 125.787 96.1873C127.008 94.1085 128.71 92.3415 130.756 91.0298Z" fill="#F0F0F0"/>
<path d="M144.617 114.584C144.617 107.353 139.441 104.14 133.062 107.756L129.079 110.065C122.7 113.644 117.524 122.477 117.524 129.752V131.703L144.617 116.347V114.584Z" fill="#F0F0F0"/>
<path d="M158.314 118.119C158.059 117.537 157.403 117.394 156.665 117.806L109.351 144.653C108.843 144.981 108.42 145.421 108.117 145.939C107.813 146.456 107.636 147.036 107.602 147.633V153.091C107.602 153.986 108.167 154.479 108.932 154.273L109.06 154.228C109.159 154.189 109.257 154.144 109.351 154.094L156.665 127.247C157.175 126.921 157.599 126.481 157.903 125.963C158.207 125.445 158.382 124.864 158.414 124.267V118.835C158.423 118.592 158.389 118.35 158.314 118.119Z" fill="#F0F0F0"/>
<path d="M113.622 145.333C114.534 144.805 115.29 145.234 115.29 146.272C115.261 146.84 115.094 147.392 114.804 147.884C114.514 148.376 114.109 148.793 113.622 149.1C112.711 149.619 111.964 149.199 111.964 148.152C111.994 147.586 112.16 147.036 112.448 146.546C112.736 146.056 113.139 145.64 113.622 145.333Z" fill="#BA68C8"/>
<path d="M119.13 142.209C120.041 141.69 120.788 142.111 120.788 143.158C120.758 143.723 120.592 144.273 120.304 144.763C120.016 145.253 119.613 145.669 119.13 145.977C118.218 146.505 117.462 146.075 117.462 145.082C117.484 144.507 117.647 143.945 117.938 143.445C118.228 142.945 118.637 142.521 119.13 142.209Z" fill="#BA68C8"/>
<path d="M124.622 139.096C125.533 138.577 126.28 138.997 126.28 140.036C126.252 140.602 126.087 141.154 125.798 141.646C125.51 142.138 125.107 142.555 124.622 142.863C123.71 143.382 122.954 142.962 122.954 141.924C122.984 141.356 123.15 140.804 123.44 140.312C123.73 139.82 124.135 139.403 124.622 139.096Z" fill="#BA68C8"/>
<path d="M130.117 136.017C131.028 135.489 131.784 135.919 131.784 136.912C131.755 137.479 131.588 138.032 131.298 138.524C131.008 139.015 130.603 139.432 130.117 139.74C129.205 140.259 128.458 139.838 128.458 138.845C128.486 138.278 128.652 137.726 128.94 137.234C129.228 136.743 129.632 136.325 130.117 136.017Z" fill="#BA68C8"/>
<path d="M135.615 132.858C136.526 132.339 137.282 132.759 137.282 133.806C137.249 134.373 137.081 134.924 136.791 135.415C136.502 135.907 136.099 136.324 135.615 136.634C134.703 137.153 133.956 136.733 133.956 135.686C133.988 135.12 134.155 134.569 134.443 134.078C134.731 133.587 135.132 133.169 135.615 132.858Z" fill="#BA68C8"/>
<path d="M141.116 129.752C142.027 129.233 142.774 129.654 142.774 130.647C142.746 131.214 142.581 131.766 142.292 132.258C142.004 132.749 141.601 133.166 141.116 133.475C140.205 133.994 139.448 133.573 139.448 132.58C139.478 132.013 139.644 131.46 139.934 130.968C140.224 130.477 140.629 130.06 141.116 129.752Z" fill="#BA68C8"/>
<path d="M146.611 126.629C147.522 126.11 148.269 126.531 148.269 127.569C148.241 128.135 148.076 128.687 147.787 129.179C147.499 129.671 147.096 130.088 146.611 130.397C145.699 130.916 144.952 130.495 144.952 129.457C144.981 128.89 145.146 128.338 145.434 127.847C145.723 127.355 146.126 126.938 146.611 126.629Z" fill="#BA68C8"/>
<path d="M152.106 123.488C153.017 122.969 153.773 123.389 153.773 124.436C153.74 125.003 153.572 125.554 153.283 126.045C152.993 126.537 152.59 126.954 152.106 127.264C151.195 127.783 150.447 127.363 150.447 126.316C150.481 125.75 150.648 125.2 150.936 124.709C151.224 124.218 151.624 123.8 152.106 123.488Z" fill="#BA68C8"/>
<path d="M68.8535 230.572L209.272 150.926C209.883 150.622 210.559 150.463 211.245 150.463C211.93 150.463 212.606 150.622 213.218 150.926L220.399 154.998C220.637 155.077 220.843 155.228 220.99 155.428C221.136 155.629 221.215 155.87 221.215 156.117C221.215 156.363 221.136 156.604 220.99 156.805C220.843 157.005 220.637 157.156 220.399 157.235L79.9619 236.872C79.3504 237.176 78.6745 237.335 77.989 237.335C77.3035 237.335 76.6276 237.176 76.0161 236.872L68.8535 232.809C68.6154 232.73 68.4087 232.579 68.2623 232.379C68.1159 232.178 68.0371 231.937 68.0371 231.691C68.0371 231.444 68.1159 231.203 68.2623 231.002C68.4087 230.802 68.6154 230.651 68.8535 230.572Z" fill="#37474F"/>
<path d="M87.3599 241.069L227.778 161.423C228.39 161.119 229.066 160.96 229.751 160.96C230.437 160.96 231.113 161.119 231.724 161.423L275.903 186.48C276.141 186.559 276.347 186.71 276.494 186.91C276.64 187.111 276.719 187.352 276.719 187.598C276.719 187.845 276.64 188.086 276.494 188.287C276.347 188.487 276.141 188.638 275.903 188.717L135.648 268.238C135.035 268.54 134.358 268.697 133.671 268.697C132.984 268.697 132.307 268.54 131.693 268.238L87.369 243.288C87.1328 243.21 86.9274 243.061 86.7815 242.863C86.6356 242.664 86.5567 242.426 86.5557 242.181C86.5547 241.937 86.6317 241.698 86.7759 241.498C86.9201 241.299 87.1243 241.148 87.3599 241.069Z" fill="#263238"/>
<path d="M213.234 197.273L217.636 194.776C217.818 194.669 217.809 194.49 217.636 194.382L212.523 191.501C212.415 191.446 212.295 191.417 212.173 191.417C212.051 191.417 211.93 191.446 211.822 191.501L207.42 193.998C207.238 194.096 207.247 194.275 207.42 194.391L212.505 197.273C212.617 197.332 212.742 197.364 212.87 197.364C212.997 197.364 213.122 197.332 213.234 197.273ZM204.559 187.366L200.167 189.854C199.975 189.962 199.984 190.141 200.167 190.257L205.251 193.138C205.361 193.191 205.481 193.219 205.602 193.219C205.724 193.219 205.844 193.191 205.953 193.138L210.355 190.642C210.537 190.534 210.528 190.355 210.355 190.248L205.233 187.384C205.13 187.331 205.015 187.302 204.898 187.298C204.781 187.295 204.665 187.319 204.559 187.366ZM190.352 195.42L182.916 199.635C182.725 199.743 182.743 199.922 182.916 200.038L187.992 202.92C188.101 202.973 188.221 203 188.343 203C188.464 203 188.584 202.973 188.694 202.92L196.139 198.705C196.321 198.597 196.312 198.418 196.139 198.311L191.054 195.42C190.945 195.368 190.825 195.34 190.703 195.34C190.581 195.34 190.461 195.368 190.352 195.42ZM198.134 191.009L193.733 193.505C193.551 193.604 193.56 193.783 193.733 193.899L198.854 196.781C198.963 196.834 199.083 196.861 199.205 196.861C199.327 196.861 199.447 196.834 199.556 196.781L203.948 194.284C204.14 194.177 204.131 193.998 203.948 193.89L198.854 191.026C198.745 190.966 198.622 190.932 198.497 190.929C198.371 190.926 198.247 190.953 198.134 191.009ZM180.884 200.79L176.492 203.278C176.3 203.385 176.309 203.564 176.492 203.68L181.576 206.562C181.685 206.617 181.805 206.645 181.927 206.645C182.049 206.645 182.17 206.617 182.278 206.562L186.68 204.074C186.862 203.967 186.853 203.788 186.68 203.671L181.595 200.79C181.484 200.735 181.363 200.707 181.239 200.707C181.116 200.707 180.994 200.735 180.884 200.79ZM174.459 204.432L170.067 206.92C169.876 207.027 169.885 207.206 170.067 207.323L175.161 210.204C175.27 210.257 175.39 210.284 175.512 210.284C175.634 210.284 175.754 210.257 175.863 210.204L180.264 207.707C180.447 207.6 180.437 207.421 180.264 207.314L175.161 204.45C175.054 204.392 174.935 204.36 174.812 204.357C174.69 204.354 174.569 204.38 174.459 204.432ZM194.453 216.155L198.854 213.658C199.037 213.551 199.027 213.372 198.854 213.265L193.769 210.383C193.661 210.328 193.541 210.299 193.419 210.299C193.296 210.299 193.176 210.328 193.068 210.383L188.675 212.88C188.484 212.978 188.502 213.157 188.675 213.274L193.751 216.155C193.86 216.21 193.98 216.239 194.102 216.239C194.224 216.239 194.344 216.21 194.453 216.155ZM188.074 219.797L192.475 217.301C192.658 217.193 192.648 217.023 192.475 216.907L187.39 214.025C187.282 213.97 187.162 213.942 187.04 213.942C186.918 213.942 186.797 213.97 186.689 214.025L182.296 216.522C182.105 216.629 182.114 216.799 182.296 216.916L187.381 219.797C187.483 219.844 187.593 219.868 187.705 219.868C187.817 219.868 187.927 219.844 188.028 219.797H188.074ZM181.649 223.44L186.051 220.943C186.233 220.844 186.224 220.665 186.051 220.549L180.966 217.668C180.857 217.613 180.737 217.584 180.615 217.584C180.493 217.584 180.373 217.613 180.264 217.668L175.799 220.137C175.608 220.245 175.617 220.424 175.799 220.531L180.884 223.413C180.992 223.475 181.115 223.51 181.24 223.515C181.366 223.519 181.491 223.493 181.604 223.44H181.649ZM175.27 227.082L179.672 224.585C179.854 224.487 179.845 224.308 179.672 224.191L174.587 221.31C174.478 221.257 174.358 221.229 174.236 221.229C174.114 221.229 173.994 221.257 173.885 221.31L169.484 223.807C169.302 223.914 169.311 224.093 169.484 224.2L174.569 227.082C174.663 227.12 174.763 227.14 174.865 227.14C174.967 227.14 175.067 227.12 175.161 227.082H175.27ZM206.901 200.915L211.293 198.418C211.485 198.311 211.475 198.141 211.293 198.025L206.144 195.143C206.036 195.088 205.916 195.059 205.794 195.059C205.672 195.059 205.551 195.088 205.443 195.143L201.041 197.64C200.859 197.747 200.868 197.917 201.041 198.034L206.144 200.897C206.247 200.949 206.36 200.978 206.475 200.981C206.59 200.984 206.705 200.961 206.81 200.915H206.901ZM200.978 212.549L210.701 206.947C210.883 206.839 210.874 206.66 210.701 206.553L198.317 199.555C198.208 199.5 198.088 199.471 197.966 199.471C197.844 199.471 197.723 199.5 197.615 199.555L192.548 202.427C192.357 202.535 192.366 202.714 192.548 202.83L199.091 206.535C199.292 206.651 199.301 206.83 199.091 206.929L195.036 209.229C194.845 209.336 194.863 209.515 195.036 209.631L200.121 212.513C200.238 212.576 200.37 212.61 200.504 212.61C200.638 212.61 200.769 212.576 200.886 212.513L200.978 212.549ZM168.172 208.074L163.77 210.571C163.588 210.669 163.597 210.848 163.77 210.965L168.782 213.873C168.891 213.926 169.011 213.954 169.133 213.954C169.255 213.954 169.375 213.926 169.484 213.873L173.876 211.376C174.068 211.269 174.058 211.09 173.876 210.983L168.782 208.092C168.67 208.027 168.542 207.991 168.411 207.988C168.28 207.984 168.151 208.014 168.035 208.074H168.172ZM161.747 211.716L157.346 214.213C157.163 214.321 157.173 214.491 157.346 214.607L162.431 217.489C162.539 217.543 162.659 217.572 162.781 217.572C162.903 217.572 163.024 217.543 163.132 217.489L167.525 214.992C167.716 214.884 167.707 214.705 167.525 214.598L162.44 211.716C162.316 211.638 162.172 211.597 162.025 211.597C161.878 211.597 161.734 211.638 161.61 211.716H161.747ZM129.634 252.568C129.742 252.623 129.863 252.652 129.985 252.652C130.107 252.652 130.227 252.623 130.335 252.568L134.737 250.072C134.919 249.964 134.91 249.785 134.737 249.678L129.652 246.796C129.544 246.741 129.423 246.713 129.301 246.713C129.179 246.713 129.059 246.741 128.95 246.796L124.558 249.293C124.367 249.392 124.376 249.571 124.558 249.687L129.634 252.568ZM110.342 240.863L105.804 243.405C105.622 243.503 105.631 243.682 105.804 243.798L110.889 246.68C110.998 246.733 111.118 246.76 111.24 246.76C111.361 246.76 111.481 246.733 111.591 246.68L115.983 244.183C116.174 244.076 116.165 243.897 115.983 243.79L110.898 240.908C110.794 240.847 110.678 240.812 110.557 240.804C110.437 240.796 110.316 240.817 110.205 240.863H110.342ZM120.685 249.409C120.794 249.464 120.914 249.493 121.036 249.493C121.158 249.493 121.278 249.464 121.387 249.409L125.779 246.913C125.97 246.805 125.952 246.626 125.779 246.519L120.694 243.637C120.586 243.582 120.465 243.554 120.343 243.554C120.221 243.554 120.101 243.582 119.993 243.637L115.6 246.134C115.418 246.242 115.427 246.412 115.6 246.528L120.685 249.409ZM140.979 254.779L145.381 252.282C145.563 252.175 145.554 251.996 145.381 251.888L140.296 249.007C140.187 248.952 140.067 248.923 139.945 248.923C139.823 248.923 139.703 248.952 139.594 249.007L135.065 251.459C134.874 251.557 134.883 251.736 135.065 251.853L140.15 254.734C140.254 254.794 140.37 254.83 140.49 254.839C140.61 254.849 140.73 254.831 140.842 254.788L140.979 254.779ZM133.853 258.358C133.961 258.413 134.082 258.442 134.204 258.442C134.326 258.442 134.446 258.413 134.555 258.358L138.956 255.862C139.138 255.754 139.129 255.575 138.956 255.468L133.871 252.586C133.763 252.531 133.642 252.503 133.52 252.503C133.398 252.503 133.278 252.531 133.17 252.586L128.768 255.083C128.586 255.182 128.595 255.361 128.768 255.477L133.853 258.358ZM116.767 237.167L112.365 239.655C112.183 239.763 112.192 239.941 112.365 240.058L117.45 242.939C117.559 242.992 117.679 243.02 117.801 243.02C117.923 243.02 118.043 242.992 118.152 242.939L122.544 240.443C122.735 240.335 122.726 240.156 122.544 240.049L117.459 237.158C117.329 237.092 117.182 237.063 117.036 237.074C116.889 237.085 116.749 237.136 116.63 237.221L116.767 237.167ZM148.734 219.001L144.333 221.498C144.15 221.605 144.16 221.784 144.333 221.891L149.418 224.773C149.526 224.828 149.646 224.857 149.768 224.857C149.89 224.857 150.011 224.828 150.119 224.773L154.512 222.276C154.703 222.178 154.685 221.999 154.512 221.882L149.427 219.001C149.319 218.948 149.201 218.921 149.08 218.921C148.96 218.921 148.842 218.948 148.734 219.001ZM123.054 233.561L118.662 236.067C118.471 236.174 118.48 236.353 118.662 236.469L123.747 239.351C123.855 239.406 123.976 239.434 124.098 239.434C124.22 239.434 124.34 239.406 124.449 239.351L128.85 236.863C129.032 236.756 129.023 236.577 128.85 236.46L123.756 233.561C123.647 233.508 123.527 233.48 123.405 233.48C123.284 233.48 123.164 233.508 123.054 233.561ZM155.186 215.341L150.785 217.838C150.602 217.945 150.611 218.124 150.785 218.231L155.869 221.113C155.978 221.168 156.098 221.196 156.22 221.196C156.342 221.196 156.463 221.168 156.571 221.113L160.963 218.616C161.155 218.509 161.137 218.339 160.963 218.222L155.879 215.341C155.77 215.29 155.65 215.265 155.53 215.268C155.41 215.272 155.292 215.302 155.186 215.359V215.341ZM142.355 222.643L137.963 225.14C137.771 225.247 137.79 225.426 137.963 225.534L143.048 228.415C143.156 228.47 143.277 228.499 143.399 228.499C143.521 228.499 143.641 228.47 143.749 228.415L148.142 225.927C148.324 225.82 148.315 225.641 148.142 225.525L143.057 222.643C142.948 222.59 142.828 222.563 142.706 222.563C142.584 222.563 142.464 222.59 142.355 222.643ZM135.931 226.294L131.538 228.782C131.347 228.89 131.365 229.069 131.538 229.176L136.614 232.066C136.723 232.119 136.843 232.147 136.965 232.147C137.087 232.147 137.207 232.119 137.316 232.066L141.717 229.579C141.9 229.471 141.89 229.292 141.717 229.176L136.632 226.294C136.52 226.235 136.395 226.204 136.268 226.204C136.141 226.204 136.015 226.235 135.903 226.294H135.931ZM129.552 229.937L125.159 232.424C124.968 232.532 124.977 232.711 125.159 232.827L130.244 235.709C130.353 235.761 130.474 235.789 130.595 235.789C130.717 235.789 130.837 235.761 130.946 235.709L135.347 233.221C135.53 233.113 135.521 232.934 135.347 232.818L130.181 229.981C130.071 229.928 129.951 229.901 129.83 229.901C129.708 229.901 129.588 229.928 129.479 229.981L129.552 229.937ZM162.358 234.366L166.75 231.878C166.941 231.771 166.923 231.592 166.75 231.476L161.665 228.594C161.557 228.539 161.436 228.511 161.314 228.511C161.192 228.511 161.072 228.539 160.963 228.594L156.562 231.082C156.38 231.189 156.389 231.368 156.562 231.485L161.647 234.366C161.754 234.416 161.87 234.442 161.989 234.442C162.107 234.442 162.224 234.416 162.33 234.366H162.358ZM218.793 179.312L214.346 181.809C214.164 181.907 214.173 182.086 214.346 182.203L219.431 185.084C219.54 185.137 219.66 185.165 219.782 185.165C219.903 185.165 220.023 185.137 220.133 185.084L224.525 182.588C224.716 182.48 224.707 182.301 224.525 182.194L219.44 179.312C219.335 179.262 219.22 179.235 219.103 179.235C218.986 179.235 218.871 179.262 218.766 179.312H218.793ZM211.011 183.724L206.618 186.212C206.427 186.319 206.436 186.498 206.618 186.615L211.703 189.496C211.812 189.551 211.932 189.58 212.054 189.58C212.176 189.58 212.296 189.551 212.405 189.496L216.806 187.008C216.989 186.901 216.98 186.722 216.806 186.606L211.721 183.724C211.608 183.665 211.481 183.635 211.352 183.635C211.224 183.635 211.097 183.665 210.983 183.724H211.011ZM225.217 175.67L220.816 178.158C220.634 178.265 220.643 178.444 220.816 178.561L225.901 181.442C226.01 181.495 226.13 181.523 226.252 181.523C226.373 181.523 226.493 181.495 226.603 181.442L230.995 178.945C231.186 178.838 231.177 178.659 230.995 178.552L225.91 175.661C225.798 175.607 225.674 175.579 225.549 175.581C225.424 175.582 225.301 175.613 225.19 175.67H225.217ZM191.929 209.399L196.33 206.902C196.512 206.795 196.503 206.616 196.33 206.508L191.245 203.618C191.136 203.565 191.016 203.537 190.894 203.537C190.773 203.537 190.653 203.565 190.543 203.618L186.096 206.052C185.914 206.159 185.923 206.338 186.096 206.454L191.181 209.336C191.291 209.406 191.417 209.449 191.547 209.46C191.677 209.471 191.808 209.45 191.929 209.399ZM232.316 172.082C232.207 172.029 232.087 172.001 231.965 172.001C231.844 172.001 231.724 172.029 231.615 172.082L227.222 174.498C227.031 174.605 227.04 174.784 227.222 174.9L232.307 177.782C232.416 177.837 232.536 177.866 232.658 177.866C232.78 177.866 232.9 177.837 233.009 177.782L237.41 175.294C237.593 175.187 237.583 175.008 237.41 174.892L232.316 172.082ZM168.782 230.724L173.175 228.236C173.366 228.129 173.357 227.95 173.175 227.834L168.09 224.952C167.981 224.899 167.86 224.872 167.739 224.872C167.617 224.872 167.497 224.899 167.388 224.952L162.986 227.449C162.804 227.556 162.813 227.735 162.986 227.842L168.071 230.733C168.182 230.786 168.304 230.813 168.428 230.811C168.551 230.81 168.673 230.78 168.782 230.724ZM247.58 186.051L251.973 183.554C252.164 183.447 252.155 183.268 251.973 183.16L246.888 180.279C246.779 180.224 246.659 180.195 246.537 180.195C246.415 180.195 246.294 180.224 246.186 180.279L241.784 182.776C241.602 182.874 241.611 183.053 241.784 183.169L246.869 186.051C246.975 186.103 247.092 186.13 247.211 186.13C247.33 186.13 247.447 186.103 247.553 186.051H247.58ZM233.911 185.577L238.303 183.08C238.495 182.972 238.486 182.793 238.303 182.686L233.218 179.804C233.11 179.75 232.99 179.721 232.868 179.721C232.746 179.721 232.625 179.75 232.517 179.804L228.015 182.283C227.833 182.382 227.842 182.561 228.015 182.677L233.1 185.559C233.215 185.627 233.346 185.665 233.48 185.668C233.615 185.671 233.748 185.64 233.865 185.577H233.911ZM239.625 176.153C239.516 176.1 239.396 176.073 239.274 176.073C239.152 176.073 239.032 176.1 238.923 176.153L234.522 178.641C234.339 178.749 234.348 178.927 234.522 179.044L239.607 181.925C239.716 181.978 239.836 182.006 239.957 182.006C240.079 182.006 240.199 181.978 240.308 181.925L244.71 179.429C244.892 179.321 244.883 179.142 244.71 179.035L239.625 176.153ZM240.973 175.393L253.321 182.391C253.43 182.444 253.55 182.471 253.672 182.471C253.794 182.471 253.914 182.444 254.023 182.391L258.424 179.894C258.607 179.787 258.597 179.608 258.424 179.5L246.077 172.493C245.967 172.44 245.847 172.413 245.726 172.413C245.604 172.413 245.484 172.44 245.375 172.493L240.983 174.981C240.718 175.097 240.773 175.276 240.928 175.393H240.973ZM226.074 183.447L221.636 185.926C221.454 186.033 221.463 186.203 221.636 186.319L226.721 189.201C226.83 189.256 226.95 189.284 227.072 189.284C227.194 189.284 227.314 189.256 227.423 189.201L231.815 186.704C232.006 186.597 231.997 186.427 231.815 186.31L226.73 183.447C226.622 183.392 226.501 183.363 226.379 183.363C226.257 183.363 226.137 183.392 226.029 183.447H226.074ZM177.713 210.866L173.311 213.363C173.129 213.47 173.138 213.64 173.311 213.757L178.396 216.638C178.505 216.693 178.625 216.722 178.747 216.722C178.869 216.722 178.989 216.693 179.098 216.638L183.49 214.142C183.682 214.034 183.663 213.864 183.49 213.748L178.414 210.866C178.302 210.801 178.174 210.765 178.043 210.762C177.912 210.759 177.783 210.788 177.667 210.848L177.713 210.866ZM240.427 189.711C240.535 189.766 240.655 189.795 240.777 189.795C240.9 189.795 241.02 189.766 241.128 189.711L245.521 187.214C245.712 187.107 245.703 186.937 245.521 186.82L240.436 183.939C240.327 183.884 240.207 183.855 240.085 183.855C239.963 183.855 239.843 183.884 239.734 183.939L235.305 186.4C235.123 186.507 235.132 186.677 235.305 186.794L240.427 189.711ZM184.092 207.206L179.717 209.703C179.535 209.801 179.544 209.98 179.717 210.097L184.802 212.978C184.911 213.033 185.031 213.062 185.153 213.062C185.275 213.062 185.396 213.033 185.504 212.978L189.896 210.482C190.088 210.374 190.079 210.195 189.896 210.088L184.812 207.206C184.701 207.148 184.577 207.118 184.452 207.118C184.326 207.118 184.202 207.148 184.092 207.206ZM135.922 248.926C136.031 248.979 136.151 249.007 136.272 249.007C136.394 249.007 136.514 248.979 136.623 248.926L141.025 246.429C141.207 246.322 141.198 246.143 141.025 246.036L135.94 243.154C135.831 243.099 135.711 243.071 135.589 243.071C135.467 243.071 135.347 243.099 135.238 243.154L130.846 245.651C130.654 245.749 130.664 245.928 130.846 246.045L135.922 248.926ZM126.262 239.977L121.861 242.51C121.678 242.608 121.687 242.787 121.861 242.904L126.946 245.785C127.055 245.838 127.175 245.866 127.296 245.866C127.418 245.866 127.538 245.838 127.647 245.785L132.04 243.288C132.231 243.181 132.213 243.002 132.04 242.895L126.964 240.013C126.857 239.955 126.737 239.924 126.615 239.92C126.493 239.917 126.372 239.943 126.262 239.995V239.977ZM143.048 245.284L147.449 242.787C147.631 242.68 147.622 242.501 147.449 242.393L142.355 239.521C142.246 239.468 142.126 239.441 142.004 239.441C141.883 239.441 141.763 239.468 141.654 239.521L137.261 242.009C137.07 242.116 137.088 242.295 137.261 242.411L142.355 245.284C142.462 245.338 142.579 245.368 142.699 245.371C142.819 245.374 142.938 245.351 143.048 245.302V245.284ZM149.481 241.633L153.874 239.145C154.056 239.038 154.047 238.859 153.874 238.742L148.734 235.879C148.625 235.826 148.505 235.798 148.383 235.798C148.262 235.798 148.142 235.826 148.032 235.879L143.64 238.366C143.449 238.474 143.467 238.653 143.64 238.769L148.725 241.651C148.843 241.71 148.975 241.737 149.108 241.731C149.241 241.725 149.369 241.685 149.481 241.615V241.633ZM155.906 237.991L160.298 235.503C160.49 235.395 160.471 235.216 160.298 235.1L155.213 232.219C155.106 232.166 154.987 232.138 154.867 232.138C154.747 232.138 154.628 232.166 154.521 232.219L150.119 234.706C149.937 234.814 149.946 234.993 150.119 235.109L155.204 238.035C155.313 238.088 155.433 238.116 155.555 238.116C155.677 238.116 155.797 238.088 155.906 238.035V237.991ZM132.687 236.335L128.285 238.823C128.103 238.93 128.112 239.109 128.285 239.226L133.37 242.107C133.479 242.16 133.599 242.188 133.721 242.188C133.843 242.188 133.963 242.16 134.072 242.107L138.464 239.61C138.655 239.503 138.646 239.324 138.464 239.217L133.379 236.326C133.269 236.279 133.15 236.257 133.03 236.261C132.91 236.266 132.792 236.297 132.687 236.353V236.335ZM139.111 232.693L134.71 235.181C134.527 235.288 134.536 235.467 134.71 235.583L139.795 238.465C139.903 238.52 140.023 238.549 140.145 238.549C140.267 238.549 140.388 238.52 140.496 238.465L144.889 235.977C145.08 235.87 145.071 235.691 144.889 235.574L139.804 232.693C139.694 232.644 139.575 232.62 139.455 232.624C139.335 232.627 139.218 232.656 139.111 232.711V232.693ZM164.809 218.115L160.417 220.612C160.225 220.719 160.244 220.898 160.417 221.005L165.502 223.887C165.608 223.942 165.727 223.971 165.848 223.971C165.968 223.971 166.087 223.942 166.194 223.887L170.596 221.39C170.778 221.292 170.769 221.113 170.596 220.997L165.511 218.115C165.4 218.065 165.279 218.04 165.158 218.044C165.036 218.047 164.917 218.077 164.809 218.133V218.115ZM158.43 221.757L154.038 224.254C153.846 224.361 153.865 224.54 154.038 224.648L159.114 227.538C159.223 227.591 159.343 227.619 159.464 227.619C159.586 227.619 159.706 227.591 159.815 227.538L164.217 225.05C164.399 224.943 164.39 224.764 164.217 224.648L159.132 221.766C159.016 221.707 158.887 221.677 158.757 221.679C158.627 221.68 158.499 221.713 158.385 221.775L158.43 221.757ZM171.288 214.473L166.887 216.969C166.704 217.077 166.714 217.256 166.887 217.363L171.972 220.245C172.08 220.3 172.2 220.328 172.322 220.328C172.445 220.328 172.565 220.3 172.673 220.245L177.066 217.748C177.257 217.65 177.239 217.471 177.066 217.354L171.981 214.473C171.867 214.413 171.739 214.383 171.609 214.386C171.48 214.389 171.354 214.425 171.243 214.491L171.288 214.473ZM145.536 229.086L141.143 231.574C140.952 231.682 140.961 231.861 141.143 231.977L146.228 234.858C146.337 234.911 146.457 234.939 146.579 234.939C146.701 234.939 146.821 234.911 146.93 234.858L151.331 232.371C151.514 232.263 151.504 232.084 151.331 231.968L146.237 229.086C146.128 229.034 146.008 229.006 145.886 229.006C145.765 229.006 145.645 229.034 145.536 229.086ZM151.914 225.444L147.522 227.932C147.331 228.039 147.34 228.218 147.522 228.335L152.607 231.216C152.716 231.269 152.836 231.297 152.958 231.297C153.08 231.297 153.2 231.269 153.309 231.216L157.71 228.728C157.892 228.621 157.883 228.442 157.71 228.326L152.625 225.444C152.523 225.392 152.41 225.364 152.295 225.361C152.18 225.357 152.065 225.38 151.96 225.426L151.914 225.444ZM147.221 251.163L151.623 248.667C151.805 248.559 151.796 248.38 151.623 248.273L146.538 245.382C146.429 245.33 146.309 245.302 146.187 245.302C146.065 245.302 145.945 245.33 145.836 245.382L141.444 247.879C141.253 247.987 141.262 248.166 141.444 248.282L146.52 251.163C146.636 251.221 146.765 251.25 146.896 251.246C147.026 251.243 147.154 251.209 147.267 251.146L147.221 251.163ZM109.549 247.405L104.473 244.523C104.365 244.468 104.245 244.44 104.123 244.44C104.001 244.44 103.88 244.468 103.772 244.523L99.3795 246.984C99.1972 247.083 99.2063 247.262 99.3795 247.378L104.464 250.26C104.573 250.315 104.693 250.343 104.815 250.343C104.937 250.343 105.058 250.315 105.166 250.26L109.558 247.763C109.777 247.691 109.759 247.512 109.549 247.405ZM119.181 250.179L114.106 247.298C113.997 247.243 113.877 247.214 113.755 247.214C113.633 247.214 113.512 247.243 113.404 247.298L106.642 251.137C106.46 251.244 106.469 251.414 106.642 251.53L111.727 254.412C111.836 254.467 111.956 254.496 112.078 254.496C112.2 254.496 112.32 254.467 112.429 254.412L119.191 250.573C119.4 250.465 119.391 250.295 119.191 250.179H119.181ZM101.758 241.83L96.6821 238.93C96.573 238.877 96.4529 238.85 96.3313 238.85C96.2096 238.85 96.0895 238.877 95.9804 238.93L90.5674 242C90.3761 242.107 90.3943 242.286 90.5674 242.402L95.6432 245.284C95.7524 245.337 95.8724 245.364 95.9941 245.364C96.1158 245.364 96.2358 245.337 96.3449 245.284L101.758 242.215C101.977 242.125 101.968 241.946 101.767 241.83H101.758ZM105.904 239.476C106.013 239.531 106.133 239.56 106.255 239.56C106.377 239.56 106.497 239.531 106.606 239.476L110.998 236.979C111.19 236.872 111.171 236.702 110.998 236.586L105.904 233.722C105.796 233.667 105.675 233.638 105.553 233.638C105.431 233.638 105.311 233.667 105.203 233.722L100.801 236.246C100.619 236.353 100.628 236.523 100.801 236.639L105.904 239.476ZM128.139 253.338L123.054 250.457C122.946 250.402 122.826 250.373 122.704 250.373C122.581 250.373 122.461 250.402 122.353 250.457L113.896 255.253C113.714 255.361 113.723 255.54 113.896 255.647L118.981 258.528C119.089 258.583 119.21 258.612 119.332 258.612C119.454 258.612 119.574 258.583 119.683 258.528L128.13 253.732C128.358 253.624 128.349 253.454 128.148 253.338H128.139ZM132.359 259.182L127.274 256.3C127.165 256.245 127.045 256.217 126.923 256.217C126.801 256.217 126.68 256.245 126.572 256.3L121.159 259.37C120.977 259.477 120.986 259.656 121.159 259.763L126.244 262.654C126.353 262.707 126.473 262.734 126.595 262.734C126.716 262.734 126.836 262.707 126.946 262.654L132.349 259.584C132.577 259.513 132.568 259.298 132.331 259.182H132.359ZM153.673 212.388C153.782 212.443 153.902 212.471 154.024 212.471C154.146 212.471 154.266 212.443 154.375 212.388L158.776 209.891C158.959 209.792 158.95 209.613 158.776 209.497L153.691 206.616C153.583 206.561 153.463 206.532 153.341 206.532C153.219 206.532 153.098 206.561 152.99 206.616L148.597 209.112C148.406 209.22 148.424 209.399 148.597 209.506L153.673 212.388ZM140.824 219.681C140.933 219.734 141.053 219.761 141.175 219.761C141.297 219.761 141.417 219.734 141.526 219.681L145.927 217.193C146.11 217.086 146.101 216.907 145.927 216.791L140.842 213.909C140.733 213.856 140.613 213.829 140.492 213.829C140.37 213.829 140.25 213.856 140.141 213.909L135.748 216.406C135.557 216.513 135.566 216.692 135.748 216.799L140.824 219.681ZM112.329 235.834C112.437 235.889 112.557 235.918 112.68 235.918C112.802 235.918 112.922 235.889 113.03 235.834L117.423 233.337C117.614 233.23 117.605 233.051 117.423 232.943L112.338 230.062C112.229 230.007 112.109 229.978 111.987 229.978C111.865 229.978 111.745 230.007 111.636 230.062L107.235 232.559C107.052 232.657 107.062 232.836 107.235 232.952L112.329 235.834ZM147.249 216.03C147.357 216.085 147.478 216.113 147.6 216.113C147.722 216.113 147.842 216.085 147.95 216.03L152.352 213.533C152.534 213.435 152.525 213.256 152.352 213.139L147.249 210.294C147.14 210.241 147.02 210.213 146.898 210.213C146.776 210.213 146.656 210.241 146.547 210.294L142.155 212.79C141.963 212.898 141.972 213.077 142.155 213.184L147.249 216.03ZM134.4 223.323C134.509 223.376 134.629 223.404 134.751 223.404C134.872 223.404 134.992 223.376 135.101 223.323L139.503 220.835C139.685 220.728 139.676 220.549 139.503 220.433L134.418 217.551C134.31 217.496 134.189 217.468 134.067 217.468C133.945 217.468 133.825 217.496 133.716 217.551L129.315 220.039C129.133 220.146 129.142 220.325 129.315 220.442L134.4 223.323ZM135.885 259.647C135.777 259.592 135.656 259.563 135.534 259.563C135.412 259.563 135.292 259.592 135.183 259.647L128.422 263.477C128.24 263.585 128.249 263.764 128.422 263.88L133.507 266.762C133.616 266.814 133.736 266.842 133.858 266.842C133.979 266.842 134.099 266.814 134.208 266.762L140.97 262.931C141.152 262.824 141.143 262.645 140.97 262.529L135.885 259.647ZM125.187 228.549C125.295 228.604 125.416 228.633 125.538 228.633C125.66 228.633 125.78 228.604 125.888 228.549L130.29 226.062C130.472 225.954 130.463 225.775 130.29 225.659L125.178 222.822C125.069 222.769 124.949 222.742 124.827 222.742C124.705 222.742 124.585 222.769 124.476 222.822L120.084 225.31C119.892 225.417 119.901 225.596 120.084 225.713L125.187 228.549ZM118.808 232.192C118.917 232.245 119.037 232.272 119.159 232.272C119.28 232.272 119.4 232.245 119.51 232.192L123.902 229.695C124.093 229.588 124.084 229.409 123.902 229.301L118.753 226.402C118.645 226.347 118.524 226.318 118.402 226.318C118.28 226.318 118.16 226.347 118.052 226.402L113.65 228.89C113.468 228.997 113.477 229.176 113.65 229.292L118.808 232.192ZM254.989 192.154C254.88 192.101 254.76 192.074 254.638 192.074C254.516 192.074 254.396 192.101 254.287 192.154L243.461 198.293C243.279 198.4 243.288 198.579 243.461 198.696L248.546 201.577C248.655 201.63 248.775 201.658 248.897 201.658C249.019 201.658 249.139 201.63 249.248 201.577L260.065 195.438C260.256 195.34 260.247 195.161 260.065 195.045L254.989 192.154ZM240.782 200.208C240.674 200.153 240.553 200.125 240.431 200.125C240.309 200.125 240.189 200.153 240.08 200.208L235.688 202.705C235.497 202.812 235.506 202.991 235.688 203.099L240.773 205.98C240.881 206.035 241.002 206.064 241.124 206.064C241.246 206.064 241.366 206.035 241.475 205.98L245.876 203.483C246.058 203.385 246.049 203.206 245.876 203.09L240.782 200.208ZM153.737 247.494L158.139 245.007C158.321 244.899 158.312 244.72 158.139 244.604L153.054 241.722C152.944 241.669 152.824 241.642 152.703 241.642C152.581 241.642 152.461 241.669 152.352 241.722L147.96 244.21C147.768 244.318 147.786 244.497 147.96 244.613L153.044 247.494C153.145 247.542 153.256 247.567 153.368 247.567C153.48 247.567 153.591 247.542 153.691 247.494H153.737ZM227.933 207.493C227.825 207.438 227.704 207.409 227.582 207.409C227.46 207.409 227.34 207.438 227.231 207.493L222.83 209.98C222.648 210.088 222.657 210.267 222.83 210.383L227.915 213.265C228.024 213.318 228.144 213.345 228.266 213.345C228.387 213.345 228.507 213.318 228.617 213.265L233.009 210.777C233.2 210.669 233.191 210.49 233.009 210.374L227.933 207.493ZM261.413 188.512C261.305 188.457 261.185 188.428 261.062 188.428C260.94 188.428 260.82 188.457 260.712 188.512L256.265 190.991C256.082 191.098 256.091 191.277 256.265 191.384L261.35 194.266C261.458 194.321 261.578 194.35 261.7 194.35C261.822 194.35 261.943 194.321 262.051 194.266L266.444 191.769C266.635 191.671 266.626 191.492 266.444 191.375L261.413 188.512ZM272.923 187.751L260.529 180.762C260.421 180.707 260.301 180.678 260.179 180.678C260.056 180.678 259.936 180.707 259.828 180.762L255.435 183.259C255.244 183.357 255.253 183.536 255.435 183.653L267.801 190.606C267.91 190.661 268.03 190.689 268.152 190.689C268.274 190.689 268.395 190.661 268.503 190.606L272.904 188.109C273.087 188.038 273.078 187.867 272.877 187.751H272.923ZM203.921 221.104C203.812 221.051 203.692 221.024 203.57 221.024C203.448 221.024 203.328 221.051 203.219 221.104L197.806 224.173C197.615 224.272 197.633 224.451 197.806 224.567L202.891 227.449C203 227.504 203.12 227.532 203.242 227.532C203.364 227.532 203.484 227.504 203.593 227.449L208.997 224.379C209.188 224.272 209.179 224.093 208.997 223.985L203.921 221.104ZM220.151 211.904C220.042 211.852 219.922 211.824 219.8 211.824C219.678 211.824 219.558 211.852 219.449 211.904L212.687 215.743C212.496 215.851 212.514 216.03 212.687 216.137L217.772 219.019C217.881 219.074 218.001 219.102 218.123 219.102C218.245 219.102 218.366 219.074 218.474 219.019L225.236 215.18C225.418 215.081 225.409 214.902 225.236 214.786L220.151 211.904ZM189.04 229.543C188.931 229.488 188.811 229.459 188.689 229.459C188.567 229.459 188.447 229.488 188.338 229.543L152.106 250.045C151.914 250.152 151.933 250.331 152.106 250.448L157.182 253.329C157.291 253.382 157.411 253.409 157.532 253.409C157.654 253.409 157.774 253.382 157.883 253.329L194.07 232.818C194.261 232.711 194.252 232.532 194.07 232.415L189.04 229.543ZM150.821 251.208C150.712 251.155 150.592 251.128 150.47 251.128C150.348 251.128 150.228 251.155 150.119 251.208L144.706 254.278C144.524 254.376 144.533 254.555 144.706 254.671L149.791 257.553C149.9 257.608 150.02 257.637 150.142 257.637C150.264 257.637 150.384 257.608 150.493 257.553L155.906 254.484C156.088 254.376 156.079 254.197 155.906 254.09L150.821 251.208ZM196.476 225.328C196.367 225.273 196.247 225.244 196.125 225.244C196.003 225.244 195.883 225.273 195.774 225.328L190.37 228.397C190.179 228.505 190.188 228.684 190.37 228.791L195.455 231.682C195.564 231.734 195.684 231.762 195.806 231.762C195.928 231.762 196.048 231.734 196.157 231.682L201.57 228.612C201.752 228.505 201.743 228.335 201.57 228.218L196.476 225.328ZM143.385 255.432C143.276 255.377 143.156 255.349 143.034 255.349C142.912 255.349 142.792 255.377 142.683 255.432L137.27 258.502C137.079 258.609 137.097 258.788 137.27 258.895L142.355 261.786C142.463 261.839 142.581 261.866 142.701 261.866C142.822 261.866 142.94 261.839 143.048 261.786L148.461 258.716C148.652 258.609 148.643 258.439 148.461 258.323L143.385 255.432ZM211.357 216.889C211.248 216.836 211.128 216.809 211.006 216.809C210.884 216.809 210.764 216.836 210.655 216.889L205.233 219.941C205.051 220.048 205.06 220.227 205.233 220.343L210.318 223.225C210.427 223.28 210.547 223.308 210.669 223.308C210.791 223.308 210.911 223.28 211.02 223.225L216.433 220.164C216.615 220.057 216.606 219.878 216.433 219.762L211.357 216.889ZM234.358 203.85C234.248 203.797 234.128 203.77 234.007 203.77C233.885 203.77 233.765 203.797 233.656 203.85L229.254 206.347C229.072 206.454 229.081 206.633 229.254 206.741L234.339 209.631C234.448 209.684 234.568 209.712 234.69 209.712C234.812 209.712 234.932 209.684 235.041 209.631L239.433 207.144C239.625 207.036 239.616 206.857 239.433 206.741L234.358 203.85ZM248.437 193.81L252.829 191.313C253.02 191.214 253.011 191.035 252.829 190.919L247.744 188.038C247.636 187.983 247.515 187.954 247.393 187.954C247.271 187.954 247.151 187.983 247.043 188.038L242.595 190.516C242.413 190.624 242.422 190.803 242.595 190.91L247.68 193.792C247.789 193.851 247.91 193.884 248.034 193.887C248.157 193.89 248.28 193.863 248.391 193.81H248.437ZM219.704 193.631L224.106 191.134C224.288 191.026 224.279 190.847 224.106 190.74L219.021 187.859C218.912 187.804 218.792 187.775 218.67 187.775C218.548 187.775 218.428 187.804 218.319 187.859L213.927 190.346C213.735 190.454 213.745 190.633 213.927 190.749L219.012 193.631C219.113 193.675 219.224 193.698 219.335 193.698C219.447 193.698 219.557 193.675 219.659 193.631H219.704ZM205.124 218.357L217.973 211.063C218.155 210.965 218.146 210.786 217.973 210.669L212.888 207.788C212.779 207.733 212.659 207.704 212.537 207.704C212.415 207.704 212.295 207.733 212.186 207.788L199.337 215.072C199.146 215.18 199.164 215.359 199.337 215.475L204.422 218.357C204.53 218.405 204.647 218.43 204.765 218.428C204.883 218.427 205 218.399 205.106 218.348L205.124 218.357ZM241.283 197.434C241.392 197.489 241.512 197.518 241.634 197.518C241.756 197.518 241.876 197.489 241.985 197.434L246.377 194.946C246.569 194.839 246.55 194.66 246.377 194.543L241.301 191.662C241.192 191.609 241.072 191.581 240.951 191.581C240.829 191.581 240.709 191.609 240.6 191.662L236.153 194.185C235.971 194.293 235.98 194.472 236.153 194.579L241.283 197.434ZM234.722 193.335L239.114 190.839C239.306 190.74 239.297 190.561 239.114 190.445L234.039 187.563C233.93 187.508 233.81 187.48 233.688 187.48C233.566 187.48 233.445 187.508 233.337 187.563L228.926 190.042C228.744 190.149 228.753 190.328 228.926 190.436L234.011 193.317C234.117 193.374 234.235 193.405 234.355 193.408C234.476 193.411 234.595 193.386 234.704 193.335H234.722ZM198.69 221.972L203.092 219.475C203.274 219.368 203.265 219.189 203.092 219.081L197.943 216.227C197.835 216.172 197.714 216.143 197.592 216.143C197.47 216.143 197.35 216.172 197.241 216.227L192.849 218.724C192.658 218.822 192.676 219.001 192.849 219.117L197.925 221.999C198.04 222.059 198.168 222.091 198.298 222.091C198.429 222.091 198.557 222.059 198.672 221.999L198.69 221.972ZM227.104 205.488C227.212 205.543 227.333 205.572 227.455 205.572C227.577 205.572 227.697 205.543 227.805 205.488L232.198 202.991C232.389 202.893 232.38 202.714 232.198 202.597L227.113 199.716C227.004 199.661 226.884 199.632 226.762 199.632C226.64 199.632 226.52 199.661 226.411 199.716L221.946 202.24C221.764 202.347 221.773 202.526 221.946 202.633L227.104 205.488ZM166.595 240.21L170.987 237.722C171.179 237.615 171.161 237.436 170.987 237.319L165.839 234.456C165.73 234.401 165.61 234.372 165.488 234.372C165.366 234.372 165.246 234.401 165.137 234.456L160.736 236.944C160.553 237.051 160.562 237.23 160.736 237.346L165.821 240.228C165.935 240.282 166.06 240.309 166.187 240.306C166.314 240.303 166.438 240.27 166.55 240.21H166.595ZM172.974 236.568L177.366 234.08C177.558 233.973 177.549 233.794 177.366 233.677L172.281 230.796C172.172 230.743 172.052 230.715 171.931 230.715C171.809 230.715 171.689 230.743 171.58 230.796L167.178 233.292C166.996 233.4 167.005 233.579 167.178 233.686L172.263 236.568C172.373 236.624 172.495 236.654 172.619 236.654C172.742 236.654 172.864 236.624 172.974 236.568ZM160.125 243.852L164.517 241.364C164.709 241.257 164.691 241.078 164.517 240.962L159.433 238.08C159.323 238.027 159.203 238 159.082 238C158.96 238 158.84 238.027 158.731 238.08L154.338 240.568C154.156 240.675 154.165 240.854 154.338 240.971L159.423 243.852C159.533 243.905 159.653 243.933 159.774 243.933C159.896 243.933 160.016 243.905 160.125 243.852ZM185.823 229.283L190.224 226.787C190.407 226.679 190.398 226.509 190.224 226.393L185.14 223.511C185.031 223.456 184.911 223.428 184.789 223.428C184.667 223.428 184.546 223.456 184.438 223.511L180.046 226.008C179.854 226.115 179.863 226.285 180.046 226.402L185.13 229.283C185.238 229.337 185.356 229.365 185.477 229.365C185.597 229.365 185.716 229.337 185.823 229.283ZM179.444 232.926L183.836 230.429C184.028 230.33 184.019 230.151 183.836 230.035L178.752 227.153C178.643 227.098 178.523 227.07 178.401 227.07C178.279 227.07 178.158 227.098 178.05 227.153L173.648 229.65C173.466 229.758 173.475 229.937 173.648 230.044L178.733 232.926C178.837 232.975 178.951 233 179.066 233C179.181 233 179.295 232.975 179.399 232.926H179.444ZM192.293 225.641L196.695 223.144C196.877 223.037 196.868 222.858 196.695 222.751L191.564 219.869C191.456 219.814 191.335 219.785 191.213 219.785C191.091 219.785 190.971 219.814 190.862 219.869L186.47 222.366C186.279 222.464 186.288 222.643 186.47 222.759L191.555 225.641C191.662 225.694 191.781 225.722 191.901 225.722C192.022 225.722 192.14 225.694 192.248 225.641H192.293ZM221.636 171.741C221.745 171.796 221.865 171.825 221.987 171.825C222.109 171.825 222.229 171.796 222.338 171.741L226.739 169.245C226.922 169.137 226.912 168.967 226.739 168.851L225.381 168.081C225.273 168.026 225.153 167.998 225.031 167.998C224.909 167.998 224.788 168.026 224.68 168.081L220.287 170.569C220.105 170.677 220.114 170.856 220.287 170.972L221.636 171.741ZM190.024 191.787C190.133 191.84 190.253 191.868 190.375 191.868C190.497 191.868 190.617 191.84 190.726 191.787L195.118 189.299C195.309 189.192 195.3 189.013 195.118 188.897L190.042 186.015C189.934 185.96 189.813 185.931 189.691 185.931C189.569 185.931 189.449 185.96 189.341 186.015L184.939 188.503C184.757 188.61 184.766 188.789 184.939 188.906L190.024 191.787ZM202.873 184.494C202.981 184.549 203.102 184.577 203.224 184.577C203.346 184.577 203.466 184.549 203.575 184.494L207.967 182.015C208.158 181.916 208.149 181.737 207.967 181.621L202.882 178.74C202.773 178.687 202.653 178.659 202.531 178.659C202.41 178.659 202.29 178.687 202.18 178.74L197.779 181.236C197.597 181.344 197.606 181.523 197.779 181.63L202.873 184.494ZM182.178 196.235C182.287 196.288 182.407 196.315 182.529 196.315C182.65 196.315 182.771 196.288 182.88 196.235L187.272 193.747C187.463 193.64 187.445 193.461 187.272 193.344L182.196 190.463C182.087 190.41 181.967 190.382 181.845 190.382C181.724 190.382 181.604 190.41 181.494 190.463L177.093 192.95C176.911 193.058 176.92 193.237 177.093 193.353L182.178 196.235ZM196.449 188.181C196.558 188.234 196.678 188.261 196.799 188.261C196.921 188.261 197.041 188.234 197.15 188.181L201.543 185.693C201.734 185.586 201.725 185.407 201.543 185.29L196.458 182.409C196.348 182.356 196.228 182.328 196.107 182.328C195.985 182.328 195.865 182.356 195.756 182.409L191.354 184.905C191.172 185.013 191.181 185.192 191.354 185.299L196.449 188.181ZM169.329 203.555C169.436 203.608 169.555 203.635 169.675 203.635C169.795 203.635 169.914 203.608 170.022 203.555L174.423 201.058C174.605 200.951 174.596 200.772 174.423 200.664L169.32 197.765C169.211 197.712 169.091 197.685 168.969 197.685C168.847 197.685 168.727 197.712 168.618 197.765L164.226 200.235C164.034 200.342 164.053 200.521 164.226 200.638L169.329 203.555ZM175.708 199.913C175.816 199.968 175.937 199.996 176.059 199.996C176.181 199.996 176.301 199.968 176.41 199.913L180.802 197.425C180.993 197.318 180.975 197.139 180.802 197.022L175.717 194.141C175.609 194.088 175.491 194.06 175.371 194.06C175.25 194.06 175.132 194.088 175.024 194.141L170.623 196.629C170.441 196.736 170.45 196.915 170.623 197.031L175.708 199.913ZM208.742 179.062C208.85 179.117 208.97 179.145 209.092 179.145C209.215 179.145 209.335 179.117 209.443 179.062L213.836 176.565C214.027 176.467 214.018 176.288 213.836 176.171L212.523 175.393C212.414 175.34 212.294 175.312 212.173 175.312C212.051 175.312 211.931 175.34 211.822 175.393L207.429 177.88C207.238 177.988 207.247 178.167 207.429 178.283L208.742 179.062ZM228.015 168.135C228.124 168.19 228.244 168.219 228.366 168.219C228.488 168.219 228.608 168.19 228.717 168.135L233.118 165.638C233.3 165.531 233.291 165.352 233.118 165.245L231.77 164.475C231.66 164.422 231.54 164.395 231.419 164.395C231.297 164.395 231.177 164.422 231.068 164.475L226.666 166.972C226.484 167.079 226.493 167.258 226.666 167.365L228.015 168.135ZM238.695 174.193C238.804 174.246 238.924 174.274 239.046 174.274C239.168 174.274 239.288 174.246 239.397 174.193L243.798 171.706C243.981 171.598 243.972 171.419 243.798 171.303L238.713 168.421C238.604 168.369 238.484 168.341 238.363 168.341C238.241 168.341 238.121 168.369 238.012 168.421L233.647 170.918C233.455 171.026 233.464 171.205 233.647 171.321L238.695 174.193ZM254.761 190.203L259.153 187.706C259.345 187.599 259.336 187.429 259.153 187.313L254.068 184.431C253.96 184.376 253.84 184.347 253.718 184.347C253.596 184.347 253.475 184.376 253.367 184.431L248.974 186.874C248.792 186.982 248.801 187.152 248.974 187.268L254.059 190.149C254.173 190.217 254.303 190.253 254.435 190.257C254.568 190.26 254.699 190.229 254.816 190.167L254.761 190.203ZM215.257 175.393C215.366 175.448 215.486 175.476 215.608 175.476C215.73 175.476 215.85 175.448 215.959 175.393L220.351 172.896C220.543 172.797 220.534 172.618 220.351 172.502L218.993 171.733C218.884 171.68 218.764 171.652 218.643 171.652C218.521 171.652 218.401 171.68 218.292 171.733L213.899 174.22C213.708 174.328 213.726 174.507 213.899 174.623L215.257 175.393ZM162.904 207.161C163.013 207.216 163.133 207.245 163.255 207.245C163.377 207.245 163.498 207.216 163.606 207.161L168.008 204.665C168.19 204.557 168.181 204.378 168.008 204.271L162.923 201.389C162.814 201.334 162.694 201.306 162.572 201.306C162.45 201.306 162.329 201.334 162.221 201.389L157.847 203.886C157.656 203.985 157.674 204.164 157.847 204.28L162.904 207.161Z" fill="#455A64"/>
<path d="M191.4 245.042L234.786 220.441C235.52 220.075 236.332 219.884 237.155 219.884C237.979 219.884 238.791 220.075 239.525 220.441L264.402 234.545C265.715 235.288 265.715 236.487 264.402 237.23L221.017 261.83C220.283 262.197 219.471 262.388 218.647 262.388C217.824 262.388 217.012 262.197 216.278 261.83L191.4 247.727C190.097 246.984 190.097 245.776 191.4 245.042Z" fill="#263238"/>
<path d="M271.194 126.746H271.139L263.73 122.558C263.302 122.37 262.673 122.558 261.908 123.113C255.019 128.285 245.751 129.896 238.215 127.534C237.728 127.087 237.266 126.615 236.83 126.12L236.693 125.968C236.476 125.72 236.217 125.512 235.927 125.35L235.8 125.279L228.382 121.099C227.535 120.706 226.769 121.099 226.259 122.334C219.096 139.812 203.832 157.522 193.653 161.951C192.884 162.291 192.199 162.792 191.649 163.419C190.917 164.199 190.513 165.222 190.519 166.283L191.986 205.524C191.986 216.862 196.861 228.836 206.803 234.662L214.476 239.011L214.613 239.083C218.761 241.37 223.452 242.54 228.209 242.474C229.275 242.474 230.36 242.429 231.48 242.322C233.661 241.97 235.681 240.978 237.276 239.476C259.52 216.916 270.337 186.382 270.337 169.486L271.759 128.393C271.813 127.507 271.595 126.961 271.194 126.746Z" fill="#BA68C8"/>
<path d="M271.758 128.393L270.291 169.442C270.291 186.338 259.474 216.872 237.229 239.432C235.635 240.934 233.614 241.926 231.434 242.278C230.313 242.385 229.228 242.43 228.162 242.43C223.405 242.496 218.715 241.326 214.566 239.038L214.429 238.967L214.165 238.806C204.223 232.98 199.348 221.006 199.348 209.668L197.944 170.427C197.939 169.366 198.343 168.343 199.074 167.563C199.625 166.935 200.31 166.434 201.079 166.095C211.258 161.621 226.522 143.956 233.685 126.478C234.195 125.243 234.969 124.841 235.817 125.234L235.945 125.306C236.234 125.467 236.493 125.676 236.71 125.923L236.847 126.076C244.447 134.765 259.392 134.756 269.37 127.257C270.126 126.693 270.755 126.514 271.193 126.702H271.247C271.594 126.961 271.812 127.507 271.758 128.393Z" fill="#BA68C8"/>
<path opacity="0.4" d="M271.149 126.693C270.72 126.505 270.092 126.693 269.326 127.248C259.931 134.309 246.125 134.729 238.206 127.481C245.779 129.852 255.028 128.241 261.899 123.06C262.656 122.496 263.284 122.317 263.722 122.505L271.149 126.693Z" fill="white"/>
<path opacity="0.4" d="M235.772 125.225C234.924 124.831 234.15 125.225 233.639 126.469C226.477 143.946 211.213 161.656 201.034 166.086C200.264 166.425 199.58 166.926 199.029 167.554C198.838 167.767 198.667 167.998 198.519 168.243L191.119 164.046C191.267 163.806 191.434 163.578 191.62 163.365C191.723 163.248 191.832 163.138 191.948 163.034L192.076 162.909L192.204 162.793C192.625 162.425 193.101 162.123 193.616 161.898C203.795 157.468 219.059 139.758 226.221 122.281C226.732 121.046 227.497 120.652 228.345 121.046L235.772 125.225Z" fill="white"/>
<path d="M191.958 163.019C191.997 162.975 192.041 162.935 192.089 162.9L191.958 163.029C191.958 163.029 191.949 163.019 191.958 163.019Z" fill="#BA68C8"/>
<path opacity="0.15" d="M192.091 162.864L191.96 162.993C191.998 162.945 192.042 162.902 192.091 162.864Z" fill="black"/>
<path opacity="0.15" d="M214.585 239.029L214.448 238.966L206.776 234.608C196.834 228.782 191.958 216.808 191.958 205.47L190.491 166.229C190.475 165.456 190.694 164.696 191.12 164.045L198.519 168.242C198.1 168.892 197.885 169.648 197.9 170.417L199.367 209.658C199.367 220.997 204.242 232.926 214.184 238.796L214.448 238.957L214.585 239.029Z" fill="black"/>
<path d="M240.776 202.929L228.929 209.64L230.751 188.601C229.339 187.868 228.428 186.06 228.428 183.456C228.428 178.829 231.298 173.442 234.807 171.437C238.315 169.433 241.186 171.563 241.186 176.189C241.115 178.935 240.317 181.615 238.871 183.966L240.776 202.929Z" fill="#455A64"/>
<path d="M240.757 202.929L230.032 196.843L228.92 209.64L240.757 202.929Z" fill="#37474F"/>
<path d="M234.844 171.437C232.52 172.753 230.506 175.509 229.376 178.552L238.953 183.966C240.4 181.615 241.197 178.935 241.268 176.189C241.241 171.563 238.379 169.433 234.844 171.437Z" fill="#37474F"/>
<path d="M86.6924 325.144V328.634C86.6924 332.751 89.4262 336.858 94.9668 339.999C103.296 344.715 115.525 345.87 125.777 343.463L135.291 348.832L142.581 347.203L147.566 350.04L147.839 355.955L150.573 357.486L157.325 358.067L162.173 360.752V364.09L168.27 367.535H183.761L189.311 364.394V360.868L139.792 336.321C141.893 334.302 143.12 331.564 143.219 328.679V325.099C142.472 321.681 139.574 319.918 134.954 317.296C123.918 311.032 106.039 311.032 95.0032 317.296C90.0094 320.16 87.1936 321.466 86.6924 325.144ZM101.856 321.054C103.61 320.181 105.549 319.726 107.515 319.726C109.481 319.726 111.42 320.181 113.174 321.054C116.3 322.844 116.3 325.699 113.174 327.471C111.42 328.344 109.481 328.799 107.515 328.799C105.549 328.799 103.61 328.344 101.856 327.471C98.7303 325.735 98.7303 322.826 101.856 321.054Z" fill="#BA68C8"/>
<path opacity="0.1" d="M86.6924 325.144V328.634C86.6924 332.751 89.4262 336.858 94.9668 339.999C103.296 344.715 115.525 345.87 125.777 343.463L135.291 348.832L142.581 347.203L147.566 350.04L147.839 355.955L150.573 357.486L157.325 358.067L162.173 360.752V364.09L168.27 367.535H183.761L189.311 364.394V360.868L139.792 336.321C141.893 334.302 143.12 331.564 143.219 328.679V325.099C142.472 321.681 139.574 319.918 134.954 317.296C123.918 311.032 106.039 311.032 95.0032 317.296C90.0094 320.16 87.1936 321.466 86.6924 325.144ZM101.856 321.054C103.61 320.181 105.549 319.726 107.515 319.726C109.481 319.726 111.42 320.181 113.174 321.054C116.3 322.844 116.3 325.699 113.174 327.471C111.42 328.344 109.481 328.799 107.515 328.799C105.549 328.799 103.61 328.344 101.856 327.471C98.7303 325.735 98.7303 322.826 101.856 321.054Z" fill="black"/>
<path d="M94.9674 336.473C103.296 341.199 115.526 342.353 125.778 339.937L135.291 345.306L142.582 343.686L147.566 346.514L147.84 352.438L150.573 353.96L157.326 354.541L162.593 357.423L162.174 360.537L168.27 363.992H183.762L189.312 360.85L139.793 332.769C145.625 326.692 144.021 318.934 134.954 313.797C123.919 307.533 106.039 307.533 95.0039 313.797C83.9683 320.061 83.9319 330.209 94.9674 336.473ZM101.857 317.529C103.61 316.655 105.549 316.2 107.516 316.2C109.482 316.2 111.421 316.655 113.175 317.529C116.3 319.318 116.3 322.173 113.175 323.945C111.421 324.818 109.482 325.274 107.516 325.274C105.549 325.274 103.61 324.818 101.857 323.945C98.731 322.155 98.731 319.291 101.857 317.52V317.529Z" fill="#BA68C8"/>
<path opacity="0.3" d="M114.942 338.084C107.935 338.084 101.401 336.562 96.5345 333.806C92.2697 331.39 89.8184 328.231 89.8184 325.143C89.8184 322.056 92.2697 318.879 96.5345 316.472C101.401 313.716 107.935 312.194 114.942 312.194C121.95 312.194 128.484 313.716 133.35 316.472C137.615 318.897 140.066 322.047 140.066 325.143C140.066 328.24 137.615 331.408 133.35 333.806C128.484 336.562 121.95 338.084 114.942 338.084ZM114.942 313.429C108.153 313.429 101.838 314.888 97.1541 317.537C93.2903 319.729 91.0759 322.504 91.0759 325.143C91.0759 327.783 93.2903 330.513 97.1541 332.741C101.838 335.426 108.153 336.858 114.942 336.858C121.731 336.858 128.046 335.39 132.73 332.741C136.594 330.549 138.809 327.774 138.809 325.143C138.809 322.512 136.594 319.774 132.73 317.537C128.046 314.888 121.731 313.429 114.942 313.429Z" fill="black"/>
<path opacity="0.1" d="M104.771 340.053V343.632C111.698 345.111 118.872 345.062 125.776 343.489V339.963C118.867 341.514 111.694 341.545 104.771 340.053Z" fill="black"/>
<path opacity="0.1" d="M135.291 345.324V348.859L142.599 347.23V343.704L135.291 345.324Z" fill="black"/>
<path opacity="0.1" d="M147.584 346.532V350.067L147.857 355.982V352.456L147.584 346.532Z" fill="black"/>
<path opacity="0.1" d="M150.546 353.978V357.513L157.298 358.095V354.56L150.546 353.978Z" fill="black"/>
<path opacity="0.1" d="M183.726 364.01H168.243V367.545H183.726V364.01Z" fill="black"/>
<path opacity="0.15" d="M189.273 360.859V364.394L183.724 367.535V364.009L186.148 362.631V364.152L187.496 363.391V361.852L189.273 360.859Z" fill="black"/>
<path d="M187.498 361.853L186.149 362.632V364.153L187.498 363.392V361.853Z" fill="#BA68C8"/>
<path opacity="0.15" d="M187.497 361.853V363.392L136.712 334.594L138.051 333.825L187.497 361.853Z" fill="black"/>
<path opacity="0.15" d="M138.051 333.825V335.364L136.712 334.594L138.051 333.825Z" fill="black"/>
<path d="M358.815 229.588C359.462 206.32 357.557 200.692 351.233 196.423L348.791 209.927C348.791 209.927 351.67 225.847 351.36 231.145C351.087 235.807 350.622 241.633 349.538 245.392C349.331 246.058 348.884 246.627 348.28 246.993C346.968 247.904 345.798 248.998 344.808 250.242C343.897 251.217 343.059 251.459 343.177 251.772C343.362 252.113 343.671 252.373 344.043 252.501C344.414 252.629 344.821 252.614 345.182 252.461C345.991 252.152 346.756 251.743 347.46 251.244C346.907 252.676 346.119 254.009 345.127 255.191C342.867 257.875 342.767 259.576 347.324 259.62C350.185 259.62 352.463 257.911 354.614 251.736C355.45 249.475 356.12 247.157 356.619 244.801C357.667 238.689 358.714 233.337 358.815 229.588Z" fill="#B16668"/>
<path d="M345.917 194.651C347.859 194.313 349.86 194.603 351.62 195.478C353.38 196.353 354.804 197.764 355.677 199.501C358.329 204.146 358.976 212.146 359.322 220.084C359.322 220.084 354.064 224.406 347.758 222.285L345.917 194.651Z" fill="#BA68C8"/>
<path opacity="0.7" d="M345.917 194.651C347.859 194.313 349.86 194.603 351.62 195.478C353.38 196.353 354.804 197.764 355.677 199.501C358.329 204.146 358.976 212.146 359.322 220.084C359.322 220.084 354.064 224.406 347.758 222.285L345.917 194.651Z" fill="black"/>
<path d="M354.793 322.854C355.267 323.033 355.385 323.927 355.458 325.708C355.513 327.051 355.814 329.404 354.201 329.878C352.588 330.353 350.237 330.102 349.207 328.831C347.961 327.129 346.629 325.49 345.215 323.918C343.63 322.245 341.908 320.67 341.261 318.316C340.686 316.196 341.169 315.274 342.646 314.656C344.678 313.761 347.867 316.58 349.462 317.019C350.829 317.395 354.31 322.675 354.793 322.854Z" fill="#263238"/>
<path d="M354.793 321.199V323.391C353.956 323.915 352.99 324.205 351.997 324.23C351.005 324.255 350.025 324.015 349.161 323.534C349.061 323.329 348.578 320.411 348.578 320.411L354.793 321.199Z" fill="#B16668"/>
<path d="M336.751 335.454C337.143 336.629 337.472 337.824 337.736 339.033C338.009 340.358 338.401 342.613 337.936 343.561C337.471 344.51 335.621 345.199 332.769 345.181C330.947 345.181 328.049 346.398 326.08 347.481C324.112 348.564 319.811 349.038 317.651 348.788C315.118 348.492 312.493 347.051 312.083 346.022C311.673 344.993 312.211 343.919 318.198 341.414C318.253 341.414 326.509 338.729 329.397 335.624L336.751 335.454Z" fill="#263238"/>
<path d="M336.75 333.092V335.642C336.75 336.537 335.647 337.951 332.759 337.853C330.736 337.781 329.314 337.244 329.396 335.606V333.235L336.75 333.092Z" fill="#B16668"/>
<path d="M356.242 292.176C355.747 288.303 354.865 284.488 353.609 280.784C353.609 280.784 354.402 270.94 354.784 261.643C355.194 251.575 354.784 238.93 354.957 236.415C354.957 236.415 321.887 229.847 321.295 241.481C320.703 253.114 322.607 282.726 322.999 287.836C323.391 292.946 324.284 297.474 325.359 305.734C326.435 313.994 329.396 333.216 329.396 333.216C330.54 333.787 331.809 334.073 333.091 334.048C334.374 334.023 335.631 333.688 336.75 333.073C336.75 333.073 339.083 309.806 338.837 303.908C338.648 299.54 337.882 295.214 336.559 291.04C336.559 291.04 337.188 281.447 337.743 273.142C338.299 264.837 338.883 260.783 339.01 257.159L339.721 256.81C339.721 256.81 340.45 271.209 340.842 276.319C341.234 281.429 342.054 286.324 343.576 295.819C344.888 304.061 348.779 321.484 348.779 321.484C352.552 323.489 354.812 321.216 354.812 321.216C354.812 321.216 357.254 299.327 356.242 292.176Z" fill="#37474F"/>
<path d="M339.012 257.141C339.012 257.141 347.031 253.248 351.041 249.758C351.041 249.758 347.313 254.913 342.42 257.204C342.42 257.204 340.679 275.102 340.688 274.726L339.677 257.114L339.012 257.141Z" fill="#263238"/>
<path d="M331.867 190.973L333.826 201.55L343.559 200.843L341.518 188.861L331.867 190.973Z" fill="#B16668"/>
<path d="M353.83 200.074C352.873 197.202 349.155 194.07 345.437 194.705C339.918 195.64 334.48 196.99 329.171 198.741C325.772 199.931 322.664 202.822 322.382 213.82C322.382 213.82 321.243 239.45 321.225 244.408C328.329 247.145 336.066 247.894 343.578 246.573C353.803 244.381 355.042 240.21 355.042 240.21C355.042 240.21 355.17 221.776 354.86 213.82C354.586 207.055 354.495 202.052 353.83 200.074Z" fill="#BA68C8"/>
<g opacity="0.15">
<path d="M353.829 200.074C352.872 197.202 349.154 194.07 345.436 194.705C339.917 195.64 334.479 196.99 329.17 198.741C325.771 199.931 322.663 202.822 322.381 213.82C322.381 213.82 321.242 239.45 321.224 244.408C328.328 247.145 336.065 247.894 343.577 246.573C353.802 244.381 355.041 240.21 355.041 240.21C355.041 240.21 355.169 221.776 354.859 213.82C354.585 207.055 354.494 202.052 353.829 200.074Z" fill="black"/>
</g>
<path d="M324.367 178.077C324.367 178.077 321.898 181.943 322.198 182.31C322.499 182.677 324.385 182.972 324.385 182.972L324.367 178.077Z" fill="#9A4A4D"/>
<path d="M331.211 167.42C326.071 168.601 324.631 170.865 324.331 178.946C324.012 187.376 324.95 190.007 326.098 191.116C326.882 191.868 331.11 191.913 333.234 191.287C335.886 190.508 341.873 188.271 344.597 183.975C347.805 178.91 348.525 172.136 344.907 169.442C339.804 165.648 333.307 166.936 331.211 167.42Z" fill="#B16668"/>
<path d="M324.386 169.522C325.566 171.211 327.232 172.517 329.171 173.272C330.155 174.373 329.617 178.641 331.349 179.357C331.349 179.357 332.096 176.225 334.775 176.565C337.454 176.905 337.919 180.252 336.269 182.337C334.62 184.422 333.025 183.671 333.025 183.671C333.025 183.671 333.208 188.145 335.276 190.597C335.276 190.597 337.573 191.277 341.764 190.302C344.334 189.702 347.916 186.454 349.374 183.062C352.463 175.903 352.536 169.487 347.879 167.67C347.305 164.404 344.644 162.999 341.637 162.39C335.158 161.075 330.984 165.075 325.999 164.699C323.147 164.502 322.618 166.542 324.386 169.522Z" fill="#263238"/>
<path d="M347.978 168.762L351.031 166.91C350.933 166.666 350.781 166.447 350.588 166.267C350.394 166.088 350.163 165.952 349.91 165.87C349.657 165.787 349.389 165.761 349.124 165.791C348.859 165.821 348.605 165.909 348.378 166.046C348.152 166.184 347.958 166.368 347.812 166.587C347.666 166.806 347.571 167.053 347.532 167.312C347.494 167.571 347.514 167.835 347.591 168.086C347.668 168.336 347.8 168.567 347.978 168.762Z" fill="#263238"/>
<path d="M288.016 217.784C289.611 218.482 308.465 232.156 311.4 230.563C314.334 228.97 329.415 211.672 329.415 211.672C330.69 209.739 331.367 207.486 331.367 205.184C331.367 202.882 330.69 200.628 329.415 198.696C329.415 198.696 324.586 199.591 322.052 203.331C319.519 207.072 308.602 220.54 308.602 220.54C305.905 219.216 303.213 217.873 300.528 216.513C298.323 215.386 296.108 214.267 293.949 213.059C293.342 212.782 292.77 212.437 292.245 212.03C291.178 210.992 291.333 208.45 291.388 207.126C291.388 206.49 291.388 205.855 291.479 205.22C291.57 204.441 291.725 202.535 290.294 203.143C290.024 203.27 289.789 203.461 289.611 203.698C289.391 203.99 289.219 204.313 289.101 204.656C288.836 205.479 288.918 206.383 288.672 207.215C288.643 207.338 288.583 207.451 288.499 207.546C288.372 207.643 288.213 207.691 288.053 207.681C285.975 207.618 284.007 204.754 283.05 203.206C282.719 202.468 282.169 201.844 281.473 201.416C280.343 200.888 278.976 201.64 278.238 202.642C277.349 203.96 276.986 205.553 277.218 207.117C277.41 209.257 278.38 211.259 279.951 212.755C282.326 214.873 285.054 216.575 288.016 217.784Z" fill="#B16668"/>
<path d="M330.991 198.141C328.913 198.373 325.46 198.525 322.07 202.293C318.078 206.714 312.875 213.873 312.875 213.873C313.407 215.99 314.549 217.912 316.166 219.407C317.782 220.903 319.804 221.908 321.988 222.303C321.988 222.303 329.123 215.144 331.101 211.17C333.078 207.197 333.406 200.807 330.991 198.141Z" fill="#BA68C8"/>
<path opacity="0.7" d="M330.991 198.141C328.913 198.373 325.46 198.525 322.07 202.293C318.078 206.714 312.875 213.873 312.875 213.873C313.407 215.99 314.549 217.912 316.166 219.407C317.782 220.903 319.804 221.908 321.988 222.303C321.988 222.303 329.123 215.144 331.101 211.17C333.078 207.197 333.406 200.807 330.991 198.141Z" fill="black"/>
</svg>
