<svg width="47" height="65" viewBox="0 0 47 65" fill="none" xmlns="http://www.w3.org/2000/svg">
<path d="M15.9476 38.0459C16.4037 37.6615 16.9193 37.3579 17.473 37.1475C18.9807 36.5317 20.65 36.4708 22.1966 36.9751C23.2747 37.3152 24.2581 37.9139 25.0652 38.7214C25.9872 39.6496 26.6506 40.8132 26.9869 42.092C27.3572 43.5121 27.3072 45.013 26.8431 46.404C26.3461 47.9007 25.3933 49.1944 24.1251 50.0948C22.8569 50.9952 21.3402 51.4548 19.798 51.4059C18.3652 51.3625 16.9773 50.8834 15.8108 50.0297C14.7591 49.2599 13.9283 48.215 13.4052 47.0041C12.9452 45.9531 12.7349 44.8054 12.7915 43.6551C12.8724 41.9938 13.5131 40.4127 14.6045 39.1814C14.9869 38.7284 15.4409 38.3446 15.9476 38.0459C15.5215 38.4437 15.1153 38.8635 14.7307 39.3035C13.719 40.5325 13.1387 42.0735 13.0826 43.6802C13.0399 44.858 13.2854 46.028 13.7969 47.0836C14.3083 48.1393 15.0694 49.047 16.0107 49.7242C17.1266 50.5199 18.446 50.9622 19.805 50.9963C21.2625 51.0389 22.6952 50.6031 23.8938 49.7524C25.0925 48.9016 25.9944 47.6806 26.4679 46.2674C26.9087 44.9487 26.9576 43.5255 26.6081 42.1782C26.2997 40.9555 25.6787 39.8392 24.8092 38.9442C24.0517 38.1668 23.1269 37.5822 22.109 37.2374C20.6207 36.7262 19.008 36.7414 17.5291 37.2805C16.989 37.5065 16.461 37.762 15.9476 38.0459Z" fill="#581C87"/>
<path d="M14.0845 28.4737C14.0183 28.4242 13.9555 28.3695 13.8968 28.3102C13.7603 28.183 13.5795 28.0158 13.3475 27.7942L11.1912 25.7409H11.2696L6.03572 29.6585L6.06984 29.5313L7.53015 33.3435L7.55744 33.4125L7.50967 33.467C6.61836 34.5931 5.87038 35.8394 5.28509 37.1738L5.25097 37.2502H5.16909L1.30677 37.4391L1.43984 37.3156C1.09864 39.427 0.706271 41.6765 0.313898 44.0205L0.221776 43.8425L3.78043 45.4451L3.87255 45.4851V45.5905C3.98791 47.0603 4.28623 48.5072 4.75965 49.8933L4.79718 49.9987L4.72553 50.0786L2.11881 53.1168V52.8842L5.78323 58.4771L5.56487 58.408L9.1474 56.8635L9.25317 56.8199L9.33847 56.8963C10.3893 57.8486 11.5552 58.6467 12.805 59.2693L12.9074 59.3202V59.4438C12.9585 60.7303 13.0165 62.1367 13.078 63.5576L12.9176 63.365L19.2126 64.5752L18.9977 64.6987L20.5228 60.912L20.5706 60.7957H20.6866C22.0601 60.6782 23.4129 60.3666 24.7092 59.869L24.8218 59.8254L24.9071 59.9089L27.7561 62.6927L27.5105 62.6745L32.7682 58.7969L32.7 59.044C32.211 57.7575 31.7299 56.4844 31.2568 55.2246L31.2124 55.1119L31.2875 55.0174C32.1814 53.8985 32.9317 52.6581 33.5189 51.3288L33.5666 51.2161H33.6826L37.545 51.0417L37.3675 51.2052C37.7588 48.9157 38.1421 46.6819 38.5174 44.5039L38.6231 44.7147L35.0679 43.0975L34.9689 43.0539V42.9412C34.8599 41.4679 34.565 40.0169 34.0921 38.6275L34.058 38.5257L34.1262 38.4458L36.7432 35.4149V35.633L33.1094 30.0255L33.2903 30.0837L29.7043 31.6136L29.6259 31.6463L29.561 31.5882C28.5086 30.6304 27.3418 29.8251 26.0911 29.1933L26.0194 29.1606V29.077C25.9614 27.5797 25.9137 26.2351 25.8659 24.9632L25.9614 25.0795L19.6562 23.8366L19.7517 23.7821C19.1376 25.2902 18.636 26.5295 18.2163 27.5616V27.5979H18.1788C17.1408 27.6816 16.1126 27.8702 15.1081 28.1612L14.3643 28.3938C14.2838 28.4242 14.2018 28.4497 14.1186 28.4701C14.1941 28.4268 14.2728 28.3903 14.354 28.3611C14.5144 28.2993 14.76 28.2048 15.091 28.0958C16.0994 27.7722 17.1364 27.5603 18.1856 27.4635L18.1344 27.5034C18.5405 26.4677 19.0284 25.2212 19.6255 23.7058L19.6493 23.6367H19.721L25.9819 24.8396H26.0706V24.9414C26.1252 26.2133 26.1832 27.5579 26.2514 29.0516L26.1764 28.9353C27.4587 29.5708 28.6555 30.386 29.735 31.3592L29.5917 31.3338L33.1709 29.7857L33.2835 29.7384L33.3517 29.8438L37.0059 35.4331L37.0809 35.5494L36.9922 35.6511L34.3855 38.6893L34.4196 38.5039C34.9014 39.9181 35.2032 41.3945 35.317 42.894L35.2112 42.7341L38.7698 44.3403L38.9029 44.4021L38.8756 44.5548C38.5071 46.7352 38.1284 48.9702 37.7394 51.2561L37.7156 51.4123H37.5654L33.7031 51.5941L33.8669 51.4778C33.2686 52.842 32.5008 54.1144 31.5843 55.2609L31.6184 55.0501C32.0961 56.3124 32.5783 57.5843 33.0651 58.8659L33.1231 59.0186L32.9934 59.1131L27.7391 62.9979L27.6094 63.0924L27.4934 62.9798L24.6444 60.196L24.8457 60.2396C23.5169 60.7473 22.1311 61.0662 20.7241 61.1882L20.8879 61.061C20.3693 62.362 19.8643 63.6521 19.373 64.8477L19.3116 65.0004L19.158 64.9713L12.8664 63.7538L12.7163 63.7248V63.5612C12.6583 62.1403 12.6037 60.7339 12.5491 59.4474L12.6583 59.6218C11.3808 58.9807 10.1887 58.1619 9.11329 57.187L9.30435 57.2197L5.71841 58.7533L5.58193 58.8114L5.50004 58.6842L1.84586 53.095L1.76738 52.9714L1.86292 52.8624L4.4867 49.8351L4.45258 50.0168C3.97547 48.6033 3.67827 47.1281 3.56889 45.6305L3.66783 45.7758L0.112594 44.155L0 44.1041L0.0204714 43.9733C0.426492 41.622 0.812041 39.3834 1.17712 37.2756L1.19759 37.1557H1.31018L5.16909 36.9849L5.05649 37.0648C5.65781 35.7093 6.42662 34.4455 7.34249 33.3071L7.32202 33.4343L5.88559 29.6112L5.85147 29.5422L5.9163 29.4949L11.1946 25.6464L11.2389 25.6173L11.273 25.6537L13.3577 27.7251L13.8934 28.2702C13.9614 28.3334 14.0252 28.4014 14.0845 28.4737Z" fill="#581C87"/>
<path d="M33.4986 8.27533C33.6489 7.98665 33.8405 7.7289 34.0655 7.51287C34.6739 6.89613 35.4503 6.53916 36.2628 6.5026C36.8657 6.47806 37.4643 6.62761 38.0034 6.93744C38.5424 7.24728 39.0045 7.7074 39.347 8.27533C39.7633 8.94495 39.9955 9.74139 40.0138 10.5627C40.0289 11.4471 39.7949 12.3136 39.3465 13.0344C38.898 13.7551 38.2588 14.292 37.5231 14.5657C37.1775 14.7011 36.8148 14.7706 36.4495 14.7716C36.099 14.7813 35.7494 14.7299 35.4125 14.6191C34.7879 14.4126 34.2235 14.0175 33.7787 13.4754C33.3897 13.0098 33.1029 12.4454 32.9418 11.8284C32.7054 10.9395 32.7455 9.98445 33.0552 9.12548C33.1627 8.81706 33.3124 8.5301 33.4986 8.27533C33.522 8.27533 33.3219 8.5727 33.1252 9.16742C32.8529 10.0121 32.8352 10.9367 33.0752 11.7941C33.2509 12.422 33.561 12.9898 33.9773 13.4458C34.3936 13.9019 34.903 14.2318 35.4592 14.4056C35.7789 14.5092 36.1107 14.5555 36.4428 14.5428C36.7832 14.537 37.1208 14.4701 37.4431 14.3446C38.1388 14.0853 38.7438 13.5784 39.1697 12.898C39.5957 12.2176 39.8201 11.3994 39.8104 10.5627C39.8096 10.1675 39.7533 9.77488 39.6437 9.39997C39.5437 9.03866 39.3965 8.69675 39.2069 8.38589C38.932 7.93144 38.5775 7.54727 38.1659 7.25774C37.7543 6.96821 37.2946 6.77965 36.8159 6.70402C36.3371 6.62839 35.8499 6.66733 35.385 6.81838C34.9202 6.96944 34.4879 7.2293 34.1155 7.58149C33.6787 7.9856 33.5186 8.2944 33.4986 8.27533Z" fill="#581C87"/>
<path d="M31.0627 3.96472L30.9428 3.91866L30.6003 3.77339L29.1824 3.1817H29.2201L27.2748 6.04806V5.98074L28.6447 7.55033L28.6687 7.57867V7.61411C28.4145 8.32591 28.2522 9.06928 28.1858 9.825V9.86751H28.1481L26.2576 10.6789L26.3021 10.5938C26.4836 11.6816 26.672 12.8331 26.8741 14.0448L26.7987 13.974L28.8537 14.0873H28.905L28.929 14.1369C29.2316 14.8255 29.6221 15.469 30.09 16.0502L30.1243 16.0927L30.1037 16.1459L29.2509 18.1017L29.2201 17.9847L31.9908 20.0114H31.871L33.395 18.5941L33.4396 18.5516L33.4944 18.5729C34.1776 18.8368 34.8916 19.006 35.6178 19.076H35.6794L35.7034 19.1327L36.4809 21.092L36.3747 21.0531L39.7105 20.472L39.6249 20.5712C39.6591 19.9051 39.7002 19.1823 39.7379 18.4453V18.378L39.7961 18.3532C40.4609 18.04 41.0828 17.6374 41.6456 17.1557L41.6935 17.1131L41.7517 17.1379L43.6389 17.9529L43.5156 17.9918C44.1777 17.0281 44.8319 16.0833 45.478 15.1573V15.2884L44.1081 13.7118L44.067 13.6657L44.0875 13.6055C44.3437 12.8988 44.5084 12.1601 44.5773 11.4088V11.345L44.6321 11.3202L46.526 10.5159L46.4644 10.6293C46.2726 9.44825 46.0865 8.29674 45.9061 7.17476L46.0328 7.23499L43.9779 7.11453H43.9197L43.8957 7.06138C43.5963 6.37156 43.208 5.72678 42.7415 5.14457L42.7073 5.10205L42.7278 5.04891L43.519 3.10021L43.5498 3.2065L40.8099 1.17276H40.9092L39.3817 2.59L39.3475 2.62189L39.303 2.60417C38.6176 2.33746 37.9014 2.16474 37.1727 2.09042H37.1282V2.05145L36.3541 0.0921198L36.4226 0.131094L33.0834 0.697988L33.1211 0.651928C33.0697 1.49518 33.0286 2.18963 32.9943 2.77778V2.79904H32.9738C32.4682 3.03315 31.9854 3.31671 31.5319 3.64584L31.1894 3.8974L31.0764 3.97889C31.1084 3.94452 31.1427 3.91255 31.1791 3.88323C31.2476 3.81945 31.3538 3.73088 31.5011 3.6175C31.9469 3.27211 32.4268 2.97639 32.9327 2.73527V2.76361C32.9601 2.18609 32.9909 1.49518 33.032 0.637756V0.598782H33.0663L36.4021 0H36.45L36.4706 0.0460592C36.7103 0.651928 36.9672 1.29323 37.2549 2.00185L37.1967 1.95933C37.9392 2.02649 38.6695 2.19691 39.368 2.46599H39.2893L40.8133 1.04876L40.8579 1.00624L40.9127 1.04521L43.6354 3.07186L43.6902 3.11438L43.6663 3.17815L42.8785 5.1304V5.03828C43.3582 5.63046 43.7579 6.28719 44.067 6.99052L43.9882 6.93383L46.0431 7.05075H46.1185V7.1287C46.3034 8.25304 46.4918 9.40337 46.6836 10.5797V10.6612L46.6117 10.6931L44.728 11.4867L44.793 11.4017C44.7241 12.1725 44.5559 12.9303 44.293 13.6551L44.2725 13.5452L45.6424 15.1219L45.6972 15.1857L45.6493 15.2566L43.6868 18.091L43.6389 18.1619L43.5635 18.1265L41.6764 17.3116H41.7826C41.2072 17.8175 40.5691 18.2416 39.8852 18.5729L39.9468 18.4808C39.9057 19.1894 39.8681 19.9264 39.8304 20.6066V20.6917H39.7482L36.4124 21.2727H36.3302L36.2993 21.1948C36.0322 20.518 35.7651 19.8519 35.5219 19.239L35.6075 19.3028C34.8633 19.2307 34.1318 19.0555 33.4327 18.7819H33.532L32.008 20.1992L31.9497 20.2559L31.8847 20.2063L29.1448 18.1761L29.0831 18.13L29.1105 18.0591L29.9017 16.1104V16.2026C29.4272 15.6073 29.031 14.9497 28.7235 14.2468L28.7954 14.2999L26.7405 14.1759H26.6754V14.1086C26.4802 12.8969 26.2953 11.7418 26.1206 10.6541V10.5938L26.1754 10.5726L28.0694 9.77185L28.0283 9.83208C28.0993 9.06587 28.2686 8.31284 28.5317 7.59285V7.65662L27.1618 6.07286L27.1344 6.04097L27.1583 6.00554L29.1345 3.17107V3.14981H29.1585L30.5524 3.76985L30.8949 3.93283C30.9517 3.93756 31.008 3.94824 31.0627 3.96472Z" fill="#581C87"/>
<path d="M12.5996 9.88091C12.6796 9.71674 12.7808 9.56926 12.8994 9.4441C13.2311 9.08676 13.6555 8.88195 14.0988 8.86534C14.4242 8.84877 14.7477 8.93256 15.0393 9.10888C15.3308 9.28519 15.5808 9.5483 15.7659 9.87363C15.9878 10.2582 16.11 10.7146 16.1167 11.184C16.124 11.6894 15.9979 12.1844 15.7567 12.5964C15.5155 13.0084 15.1719 13.3159 14.7764 13.4736C14.5898 13.5494 14.3945 13.5887 14.1977 13.5901C14.0093 13.5946 13.8213 13.5651 13.64 13.5028C13.3043 13.3866 13.0001 13.1642 12.7585 12.8585C12.5502 12.5923 12.3962 12.2707 12.3087 11.9193C12.1808 11.4105 12.203 10.8634 12.3717 10.3723C12.4283 10.1933 12.5094 10.0272 12.6116 9.88091C12.5374 10.0465 12.4704 10.2166 12.4107 10.3905C12.2634 10.8726 12.2539 11.4008 12.3837 11.8902C12.4705 12.2256 12.6215 12.5312 12.8244 12.782C13.0566 13.0699 13.3472 13.2784 13.667 13.3863C14.0202 13.5 14.393 13.4874 14.7404 13.3499C15.1139 13.2003 15.4383 12.91 15.6664 12.5211C15.8946 12.1322 16.0145 11.6651 16.0087 11.1877C16.0079 10.9613 15.9775 10.7365 15.9188 10.5216C15.866 10.3151 15.7871 10.1199 15.6849 9.94279C15.4924 9.61402 15.2317 9.35282 14.9293 9.18566C14.6672 9.03519 14.3796 8.96163 14.0898 8.9709C13.6658 8.98463 13.2576 9.16902 12.9294 9.49506C12.7105 9.71711 12.6086 9.89183 12.5996 9.88091Z" fill="#76459D"/>
<path d="M10.7293 7.14875L10.658 7.1198L10.4439 7.03294L9.60143 6.67102H9.62521L8.47015 8.42269V8.38288L9.28209 9.34196V9.36006V9.38177C9.1328 9.81678 9.03689 10.2705 8.99673 10.7317V10.757H8.97634L7.85186 11.2529L7.87904 11.2022C7.98775 11.8681 8.10099 12.5715 8.21876 13.3122L8.1746 13.2687L9.38741 13.3375H9.41798V13.3665C9.59648 13.7855 9.82484 14.1784 10.0974 14.5354L10.1212 14.5644V14.5934C9.97513 14.9553 9.81546 15.3715 9.65579 15.7877L9.6354 15.7189L11.2933 16.9603H11.2219L12.129 16.0989L12.1528 16.0736H12.1867C12.594 16.2323 13.0187 16.3344 13.4505 16.3776H13.4845V16.4138L13.9465 17.6117L13.8819 17.5719L15.8625 17.21L15.8116 17.2715C15.832 16.8662 15.8557 16.4246 15.8795 15.9795V15.9831H15.9135C16.3069 15.7951 16.6748 15.5516 17.0074 15.2593L17.038 15.2339H17.0719L18.193 15.7334L18.1183 15.7551L19.2835 14.0107V14.0903L18.4818 13.0878H18.458V13.0516C18.6171 12.6146 18.7211 12.157 18.7672 11.6908V11.6401H18.8011L19.9256 11.1479L19.8882 11.2167C19.7761 10.4929 19.664 9.79073 19.5485 9.10671L19.6029 9.15738L18.3901 9.08138H18.3561V9.04881C18.1798 8.62734 17.9513 8.23296 17.6766 7.8762L17.6563 7.85087V7.8183L18.1251 6.62397L18.1421 6.69274L16.508 5.44775H16.5658L15.6587 6.30549L15.6383 6.3272H15.6145C15.2086 6.15915 14.7837 6.04842 14.3508 5.99786H14.3236V5.97253L13.8548 4.76373L13.8955 4.78545L11.9115 5.14736L11.9353 5.11841C11.9048 5.63595 11.881 6.05939 11.8606 6.41044C11.5554 6.555 11.2642 6.73075 10.9909 6.93522L10.7939 7.08723L10.7293 7.1379C10.7475 7.11625 10.7667 7.09571 10.7871 7.07637C10.8278 7.04018 10.8924 6.98589 10.9807 6.91713C11.244 6.70408 11.5289 6.52319 11.83 6.37787C11.847 6.01596 11.864 5.59975 11.8878 5.08583V5.08945H11.9082L13.8887 4.72754H13.9193V4.75649L14.3847 5.95081L14.3508 5.92548C14.7913 5.95779 15.2256 6.05399 15.6417 6.21139H15.5975L16.5012 5.34641L16.5284 5.32108L16.559 5.34279L18.1998 6.58055L18.2338 6.60588L18.2168 6.64569C18.0673 7.03294 17.9111 7.43105 17.7514 7.84001V7.7821C18.0363 8.14451 18.274 8.54625 18.458 8.97642L18.4104 8.94385L19.6233 9.01262H19.6674V9.05967C19.7761 9.7473 19.8894 10.4506 20.0071 11.1696V11.2203H19.963L18.8385 11.7125L18.8759 11.6618C18.8339 12.132 18.7346 12.5943 18.5803 13.0371V12.972L19.3889 13.9347L19.4228 13.9745L19.3922 14.0179L18.2236 15.8058L18.193 15.8492L18.1489 15.8275L17.0278 15.328H17.0923C16.7519 15.6302 16.3748 15.8822 15.9712 16.0772L16.0052 16.0193C15.9814 16.4645 15.961 16.906 15.9373 17.3113V17.3656H15.8897L13.9091 17.7275H13.8616L13.8412 17.6769C13.6849 17.2643 13.5252 16.8553 13.3825 16.4825L13.4301 16.5187C12.9885 16.4759 12.5543 16.37 12.1392 16.2039H12.2003C11.8844 16.5006 11.5752 16.7938 11.2933 17.0652L11.2593 17.0978L11.2151 17.0689L9.59464 15.8166L9.56067 15.7913V15.7479L10.0295 14.5535V14.6114C9.74812 14.2477 9.51283 13.8462 9.32965 13.4171L9.37382 13.4461L8.16101 13.3737H8.12024V13.3339C8.00473 12.6101 7.89263 11.8862 7.78052 11.2203V11.1841H7.81109L8.93897 10.6955L8.9118 10.7317C8.95398 10.2636 9.05451 9.80352 9.21075 9.36367V9.39987L8.40561 8.43355V8.41546V8.39374C8.88122 7.66991 9.2787 7.1017 9.57765 6.65655L10.4066 7.03656L10.6172 7.13428C10.655 7.13324 10.6928 7.13812 10.7293 7.14875Z" fill="#76459D"/>
</svg>
