<svg width="24" height="24" viewBox="0 0 24 24" fill="none" xmlns="http://www.w3.org/2000/svg">
<path d="M13.5771 13.4293C15.2365 13.4677 16.8443 12.8879 18.0483 11.8168C19.2523 10.7458 19.9541 9.27091 20 7.71557C19.9541 6.16022 19.2523 4.68538 18.0483 3.61432C16.8443 2.54327 15.2365 1.96339 13.5771 2.00179H7.04762C6.84555 2.00179 6.65176 2.07704 6.50887 2.21098C6.36599 2.34493 6.28571 2.52659 6.28571 2.71601V12.0009H4.7619C4.55984 12.0009 4.36604 12.0761 4.22316 12.2101C4.08027 12.344 4 12.5257 4 12.7151C4 12.9045 4.08027 13.0862 4.22316 13.2201C4.36604 13.3541 4.55984 13.4293 4.7619 13.4293H6.28571V14.8578H4.7619C4.55984 14.8578 4.36604 14.933 4.22316 15.067C4.08027 15.2009 4 15.3826 4 15.572C4 15.7614 4.08027 15.9431 4.22316 16.077C4.36604 16.211 4.55984 16.2862 4.7619 16.2862H6.28571V21.2858C6.28571 21.4752 6.36599 21.6569 6.50887 21.7908C6.65176 21.9248 6.84555 22 7.04762 22C7.24969 22 7.44348 21.9248 7.58637 21.7908C7.72925 21.6569 7.80952 21.4752 7.80952 21.2858V16.2862H14.6667C14.8687 16.2862 15.0625 16.211 15.2054 16.077C15.3483 15.9431 15.4286 15.7614 15.4286 15.572C15.4286 15.3826 15.3483 15.2009 15.2054 15.067C15.0625 14.933 14.8687 14.8578 14.6667 14.8578H7.80952V13.4293H13.5771ZM7.80952 3.43024H13.5771C14.8318 3.39356 16.0511 3.82353 16.9689 4.62635C17.8867 5.42917 18.4285 6.53967 18.4762 7.71557C18.4305 8.89211 17.8893 10.0037 16.971 10.8069C16.0528 11.6101 14.8324 12.0395 13.5771 12.0009H7.80952V3.43024Z" fill="white"/>
</svg>
