<svg width="205" height="150" viewBox="0 0 205 150" fill="none" xmlns="http://www.w3.org/2000/svg">
<path d="M112.316 113.498H65.1924V149.631H112.316V113.498Z" fill="#EBEBEB"/>
<path d="M100.512 149.379C100.448 149.379 100.394 141.323 100.394 131.387C100.394 121.451 100.448 113.395 100.512 113.395C100.575 113.395 100.629 121.451 100.629 131.387C100.629 141.323 100.575 149.379 100.512 149.379Z" fill="#E0E0E0"/>
<path d="M108.321 141.409H104.71V145.47H108.321V141.409Z" fill="#FAFAFA"/>
<path d="M84.9244 113.593H79.5718V121.302H84.9244V113.593Z" fill="#E0E0E0"/>
<path d="M84.9244 141.813H79.5718V149.523H84.9244V141.813Z" fill="#E0E0E0"/>
<path d="M197.827 104.439H138.405V150H197.827V104.439Z" fill="#EBEBEB"/>
<path d="M182.936 149.676C182.873 149.676 182.819 139.524 182.819 126.997C182.819 114.47 182.873 104.318 182.936 104.318C183 104.318 183.054 114.47 183.054 126.997C183.054 139.524 183.004 149.676 182.936 149.676Z" fill="#E0E0E0"/>
<path d="M192.787 139.627H188.23V144.746H192.787V139.627Z" fill="#FAFAFA"/>
<path d="M163.281 104.556H156.531V114.276H163.281V104.556Z" fill="#E0E0E0"/>
<path d="M163.281 140.14H156.531V149.86H163.281V140.14Z" fill="#E0E0E0"/>
<path d="M26.4844 105.78C28.8915 104.547 31.7239 104.385 34.3934 104.826C35.8277 105.06 37.3209 105.487 38.2982 106.558C39.2755 107.628 39.4565 109.513 38.3389 110.435C37.6693 110.984 36.7417 111.065 35.873 111.056C33.7826 111.029 31.466 110.664 29.7964 111.915C28.8417 112.63 28.2083 113.813 27.0816 114.164C25.955 114.515 24.7107 113.854 24.1225 112.855C23.5784 111.814 23.4585 110.604 23.7877 109.477C23.9209 108.696 24.2336 107.956 24.7013 107.315C25.169 106.674 25.7792 106.148 26.4844 105.78Z" fill="#EBEBEB"/>
<path d="M20.9734 95.2047C22.4439 97.2918 25.3035 96.6036 26.6292 95.3261C27.9549 94.0487 28.5159 92.2045 29.0227 90.4458C30.19 86.42 31.3619 82.1963 30.4977 78.0986C30.2896 76.8559 29.74 75.6946 28.9096 74.7431C28.4891 74.2757 27.9532 73.9257 27.3548 73.7277C26.7564 73.5296 26.1163 73.4905 25.498 73.6141C24.0547 73.9919 23.1588 75.4133 22.5118 76.7312C20.6041 80.6711 19.6055 84.9847 19.5889 89.3572C19.5889 91.3948 19.8196 93.5269 20.9734 95.2047Z" fill="#EBEBEB"/>
<path d="M16.9374 98.2003C18.5346 96.3156 18.8377 93.5718 18.1274 91.2104C17.417 88.8489 15.8108 86.8428 13.9602 85.201C11.7837 83.2763 9.25103 81.7913 6.50364 80.8289C5.43883 80.4012 4.29349 80.2079 3.14637 80.2621C2.57413 80.2946 2.01855 80.4657 1.52803 80.7604C1.03752 81.0552 0.626937 81.4648 0.33206 81.9534C-0.455224 83.4422 0.300387 85.2459 1.11482 86.7213C2.54904 89.3172 4.18594 91.7973 6.01045 94.1386C7.48095 96.0188 9.17769 97.8765 11.3993 98.7266C13.6209 99.5767 15.9646 99.4778 17.1501 97.9349" fill="#EBEBEB"/>
<path d="M20.8736 126.7C20.9522 126.391 20.9977 126.074 21.0094 125.755C21.0773 125.063 21.1587 124.194 21.2628 123.164C21.3925 121.89 21.5873 120.623 21.8464 119.368C22.1864 117.834 22.651 116.33 23.2355 114.87C23.8088 113.42 24.584 112.057 25.5385 110.822C26.3188 109.817 27.3121 108.995 28.4479 108.415C29.2203 108.037 30.0479 107.782 30.9002 107.66C31.221 107.647 31.5396 107.6 31.8504 107.52C31.5301 107.485 31.2069 107.485 30.8866 107.52C30.0015 107.587 29.1356 107.811 28.3302 108.181C27.1309 108.744 26.0792 109.575 25.258 110.61C24.259 111.862 23.4538 113.256 22.869 114.744C22.2852 116.221 21.831 117.746 21.5116 119.301C21.2655 120.571 21.0947 121.856 21.0003 123.146C20.9189 124.248 20.8872 125.139 20.8736 125.755C20.8403 126.069 20.8403 126.386 20.8736 126.7Z" fill="#E0E0E0"/>
<path d="M21.0549 124.712C21.0818 124.564 21.0909 124.413 21.0821 124.262C21.0821 123.929 21.0821 123.511 21.0821 123.003C21.0821 121.91 21.0821 120.326 21.1364 118.374C21.2359 114.47 21.5888 110.278 22.2268 104.345C22.8467 98.7717 23.6747 92.29 24.5524 88.0753C24.7379 87.1172 24.928 86.2536 25.109 85.4979C25.29 84.7422 25.4212 84.0855 25.5614 83.5593C25.7017 83.033 25.7786 82.6597 25.8601 82.3358C25.9043 82.1896 25.9302 82.0385 25.937 81.886C25.8688 82.0171 25.8171 82.1561 25.7831 82.2998C25.6836 82.6192 25.5614 83.015 25.4121 83.5053C25.2628 83.9956 25.0818 84.6793 24.8918 85.4305C24.7018 86.1816 24.4846 87.0453 24.281 88.0033C23.194 92.988 22.3769 98.0271 21.8331 103.099C21.1816 109.036 20.8875 114.443 20.8604 118.356C20.8604 120.313 20.8604 121.901 20.9282 122.994C20.9599 123.502 20.987 123.92 21.0051 124.249C21.0029 124.404 21.0196 124.56 21.0549 124.712Z" fill="#E0E0E0"/>
<path d="M21.0822 114.285C21.1166 113.847 21.1166 113.406 21.0822 112.967C21.0324 112.122 20.9147 110.903 20.6749 109.405C20.379 107.654 19.9832 105.921 19.4895 104.214C18.9189 102.114 18.1883 100.06 17.3041 98.0698C15.7903 94.4029 13.6177 91.0406 10.8927 88.1471C10.4199 87.6502 9.9151 87.1845 9.38149 86.7527C9.15074 86.5548 8.92903 86.3614 8.739 86.2084L8.17795 85.8081C7.82581 85.5409 7.452 85.3032 7.06037 85.0974C6.99702 85.1829 8.63946 86.1455 10.7117 88.336C13.3477 91.2566 15.4624 94.6033 16.9648 98.2317C17.8337 100.209 18.5669 102.242 19.1592 104.318C19.6567 106.008 20.069 107.723 20.3944 109.454C20.6659 110.934 20.8469 112.153 20.9193 112.981C20.9386 113.419 20.9931 113.855 21.0822 114.285Z" fill="#E0E0E0"/>
<path d="M10.2412 131.09L11.2909 145.407H29.7921L30.8418 131.09H10.2412Z" fill="#EBEBEB"/>
<path d="M33.0449 125.449H8.45361V131.09H33.0449V125.449Z" fill="#EBEBEB"/>
<path d="M8.45361 144.859V146.419H9.61191H32.6422V144.859H8.45361Z" fill="#E0E0E0"/>
<path d="M10.7435 149.001L9.6123 146.249H31.7603L30.4391 149.001H10.7435Z" fill="#E0E0E0"/>
<path d="M30.4977 135.768C30.4746 135.816 30.4458 135.862 30.4118 135.903C30.3394 135.997 30.2444 136.119 30.1358 136.267L29.0589 137.617L29.0091 137.68L28.9639 137.617L26.317 133.978H26.4663L23.8601 137.644L23.7787 137.761L23.6882 137.653L20.5979 133.996H20.7743L20.6069 134.212L17.8424 137.653L17.7474 137.77L17.6659 137.648L15.0552 133.982H15.2091L11.9966 137.617L11.9423 137.684L11.897 137.608L10.8926 135.952C10.784 135.772 10.7025 135.624 10.6347 135.503C10.6006 135.452 10.5732 135.398 10.5532 135.341C10.5956 135.384 10.6321 135.432 10.6618 135.485L10.9469 135.912L12.0011 137.563H11.9016L15.0688 133.883L15.1457 133.789L15.2181 133.888L17.8514 137.54H17.6795L20.435 134.09C20.4938 134.018 20.5526 133.946 20.6024 133.879L20.6929 133.766L20.7834 133.874L23.8646 137.54H23.6927L26.326 133.892L26.403 133.784L26.4753 133.892C27.5205 135.372 28.4074 136.627 29.068 137.572H28.9729L30.095 136.222C30.2172 136.083 30.3167 135.97 30.3937 135.876C30.4257 135.837 30.4604 135.801 30.4977 135.768Z" fill="#F5F5F5"/>
<path d="M31.0997 130.996C31.0997 131.059 26.4619 131.113 20.7473 131.113C15.0328 131.113 10.395 131.059 10.395 130.996C10.395 130.933 15.0282 130.883 20.7473 130.883C26.4665 130.883 31.0997 130.933 31.0997 130.996Z" fill="#F5F5F5"/>
<path d="M199.868 149.753C199.868 149.82 156.377 149.87 102.747 149.87C49.1164 149.87 5.6167 149.82 5.6167 149.753C5.6167 149.685 49.0983 149.636 102.747 149.636C156.395 149.636 199.868 149.69 199.868 149.753Z" fill="#263238"/>
<path d="M185.891 137.981C185.912 137.916 185.939 137.852 185.973 137.792C186.036 137.657 186.122 137.477 186.226 137.248C186.541 136.545 186.794 135.817 186.982 135.071C187.479 133.137 187.656 130.182 186.918 126.673C186.518 124.76 185.993 122.874 185.348 121.028C184.688 119.026 183.914 116.903 183.285 114.605C182.575 112.208 182.232 109.718 182.267 107.219C182.362 104.606 183.14 102.001 183.995 99.4014C184.851 96.8015 185.733 94.2691 185.995 91.7052C186.287 89.2466 185.79 86.7592 184.575 84.5983C183.443 82.5247 182.018 80.7479 180.955 78.9127C179.959 77.2075 179.226 75.3639 178.779 73.4431C178.137 70.6622 178.089 67.7782 178.638 64.9778C178.839 63.9531 179.142 62.951 179.543 61.9866C179.531 62.054 179.513 62.1202 179.489 62.1845L179.308 62.7557C179.154 63.2595 178.95 64.0152 178.756 65.0048C178.25 67.7926 178.326 70.654 178.978 73.4116C179.431 75.309 180.168 77.1284 181.163 78.8093C182.226 80.6085 183.656 82.4077 184.814 84.4903C186.059 86.6949 186.571 89.2345 186.276 91.7457C186.009 94.3455 185.122 96.9049 184.267 99.5003C183.412 102.096 182.643 104.673 182.548 107.241C182.507 109.715 182.843 112.181 183.543 114.555C184.163 116.84 184.923 118.963 185.579 120.974C186.218 122.83 186.732 124.727 187.117 126.651C187.837 130.186 187.633 133.173 187.117 135.111C186.916 135.859 186.644 136.586 186.308 137.284L186.027 137.819C185.988 137.878 185.943 137.932 185.891 137.981Z" fill="#263238"/>
<path d="M182.402 80.7254C182.402 80.7254 180.24 73.8389 184.122 69.8086C184.152 69.7762 184.19 69.7527 184.233 69.7408C184.276 69.7289 184.321 69.729 184.364 69.7411C184.407 69.7532 184.445 69.7769 184.475 69.8095C184.505 69.842 184.525 69.8822 184.534 69.9256C184.742 71.0636 185 74.5271 182.402 80.7254Z" fill="#581C87"/>
<path d="M183.701 72.1028C183.695 72.5293 183.646 72.9541 183.557 73.3712C183.412 74.2484 183.244 75.2739 183.063 76.4074C182.882 77.5409 182.715 78.571 182.575 79.4436C182.535 79.869 182.46 80.2903 182.348 80.7031C182.306 80.2777 182.315 79.8488 182.376 79.4256C182.448 78.6384 182.588 77.5589 182.783 76.3714C182.977 75.1839 183.19 74.1224 183.357 73.3442C183.424 72.9186 183.539 72.502 183.701 72.1028Z" fill="#263238"/>
<path d="M184.945 96.9679C184.945 96.9679 186.271 89.8745 191.601 88.1202C191.643 88.1057 191.688 88.103 191.732 88.1125C191.775 88.1221 191.815 88.1435 191.847 88.1743C191.879 88.2051 191.902 88.2441 191.913 88.287C191.923 88.3299 191.922 88.3749 191.909 88.4171C191.556 89.5101 190.158 92.6903 184.945 96.9679Z" fill="#581C87"/>
<path d="M190.149 89.9419C189.942 90.3165 189.7 90.6705 189.425 90.9989L187.556 93.4504L185.701 95.9108C185.467 96.2678 185.202 96.6035 184.909 96.9139C185.074 96.5181 185.287 96.1435 185.543 95.7984C185.995 95.1371 186.61 94.2465 187.352 93.2884C188.095 92.3304 188.769 91.4892 189.28 90.8775C189.534 90.5348 189.825 90.2211 190.149 89.9419Z" fill="#263238"/>
<path d="M183.507 114.749C183.507 114.749 182.701 107.579 187.289 104.363C187.324 104.335 187.367 104.318 187.412 104.314C187.456 104.31 187.501 104.318 187.541 104.339C187.581 104.359 187.615 104.39 187.637 104.429C187.66 104.467 187.671 104.511 187.669 104.556C187.656 105.712 187.244 109.158 183.507 114.749Z" fill="#581C87"/>
<path d="M186.448 106.531C186.363 106.95 186.234 107.358 186.063 107.75L184.995 110.637C184.597 111.717 184.239 112.693 183.936 113.525C183.82 113.935 183.669 114.334 183.484 114.717C183.526 114.291 183.62 113.871 183.764 113.467C183.986 112.711 184.33 111.668 184.751 110.543C185.172 109.419 185.583 108.406 185.896 107.682C186.04 107.281 186.225 106.895 186.448 106.531Z" fill="#263238"/>
<path d="M187.52 132.642C187.52 132.642 186.977 125.445 191.673 122.395C191.71 122.37 191.753 122.356 191.798 122.354C191.842 122.351 191.886 122.362 191.925 122.383C191.964 122.405 191.997 122.437 192.018 122.475C192.04 122.514 192.051 122.558 192.049 122.602C191.994 123.758 191.461 127.19 187.52 132.642Z" fill="#581C87"/>
<path d="M190.742 124.536C190.64 124.952 190.496 125.356 190.312 125.742C189.977 126.56 189.579 127.541 189.14 128.589C188.701 129.637 188.316 130.613 187.981 131.436C187.847 131.842 187.676 132.235 187.47 132.61C187.53 132.185 187.641 131.768 187.801 131.369C188.049 130.622 188.429 129.597 188.891 128.486C189.352 127.375 189.796 126.376 190.135 125.665C190.296 125.269 190.5 124.89 190.742 124.536Z" fill="#263238"/>
<path d="M179.29 74.6755C179.29 74.6755 172.874 71.329 172.733 65.7559C172.733 65.7122 172.745 65.6692 172.767 65.6315C172.789 65.5937 172.821 65.5626 172.859 65.5414C172.898 65.5203 172.941 65.5098 172.985 65.5111C173.029 65.5124 173.072 65.5255 173.109 65.549C174.064 66.2057 176.715 68.4727 179.29 74.6755Z" fill="#581C87"/>
<path d="M174.068 67.6721C174.37 67.978 174.638 68.3142 174.869 68.6752C175.394 69.3904 176.005 70.236 176.679 71.1671L178.489 73.65C178.765 73.9766 179.01 74.3274 179.222 74.6981C178.891 74.4243 178.595 74.1117 178.34 73.767C177.828 73.1642 177.159 72.3006 176.453 71.3245C175.747 70.3485 175.127 69.4444 174.702 68.7831C174.452 68.4357 174.24 68.0633 174.068 67.6721Z" fill="#263238"/>
<path d="M186.199 89.4606C186.199 89.4606 179.575 86.5144 179.109 80.9503C179.105 80.9066 179.113 80.8627 179.133 80.8235C179.153 80.7842 179.183 80.7511 179.221 80.7279C179.258 80.7046 179.301 80.6921 179.345 80.6917C179.389 80.6912 179.433 80.7029 179.471 80.7254C180.462 81.3237 183.244 83.4198 186.199 89.4606Z" fill="#581C87"/>
<path d="M180.565 82.7856C180.885 83.0713 181.173 83.3893 181.425 83.7347L183.389 86.1142L185.357 88.4847C185.652 88.7949 185.918 89.1306 186.153 89.4877C185.806 89.233 185.49 88.9386 185.212 88.6106C184.669 88.0349 183.945 87.2162 183.181 86.2851C182.416 85.354 181.746 84.4859 181.276 83.8517C181 83.5235 180.762 83.166 180.565 82.7856Z" fill="#263238"/>
<path d="M182.376 105.964C182.376 105.964 177.851 100.341 179.964 95.1686C179.981 95.128 180.008 95.0928 180.044 95.0668C180.079 95.0408 180.122 95.0251 180.166 95.0214C180.21 95.0176 180.254 95.0261 180.293 95.0457C180.333 95.0653 180.366 95.0954 180.389 95.1326C181.018 96.1087 182.525 99.2393 182.376 105.964Z" fill="#581C87"/>
<path d="M180.421 97.4536C180.576 97.8532 180.688 98.2678 180.756 98.6906C180.946 99.5542 181.167 100.571 181.412 101.695C181.656 102.82 181.887 103.832 182.077 104.695C182.198 105.105 182.281 105.525 182.326 105.95C182.127 105.568 181.975 105.163 181.873 104.745C181.651 103.985 181.38 102.946 181.127 101.749C180.873 100.553 180.674 99.5002 180.547 98.7266C180.459 98.3081 180.416 97.8813 180.421 97.4536Z" fill="#263238"/>
<path d="M186.9 125.355C186.9 125.355 180.326 122.301 179.955 116.732C179.95 116.688 179.959 116.643 179.979 116.603C179.998 116.563 180.029 116.53 180.067 116.506C180.106 116.483 180.15 116.471 180.195 116.471C180.239 116.471 180.283 116.484 180.321 116.507C181.294 117.124 184.04 119.269 186.9 125.355Z" fill="#581C87"/>
<path d="M181.366 118.585C181.677 118.88 181.959 119.204 182.208 119.553L184.131 121.959L186.058 124.365C186.348 124.68 186.609 125.02 186.836 125.382C186.5 125.119 186.196 124.817 185.932 124.482C185.393 123.898 184.687 123.066 183.936 122.121C183.185 121.176 182.534 120.299 182.072 119.656C181.796 119.328 181.559 118.968 181.366 118.585Z" fill="#263238"/>
<path d="M199.981 96.9995C199.981 96.9995 199.981 97.0535 199.981 97.1569C199.981 97.2604 199.981 97.4313 199.981 97.6068C199.981 98.0566 199.935 98.6278 199.904 99.3565C199.822 100.895 199.7 103.04 199.56 105.604C199.107 108.213 197.75 111.105 195.94 113.917C194.624 115.986 193.225 117.866 192.049 119.616C190.975 121.151 190.011 122.759 189.162 124.429C188.601 125.556 188.146 126.734 187.805 127.946C187.692 128.373 187.601 128.711 187.552 128.94C187.53 129.06 187.498 129.177 187.457 129.291C187.458 129.17 187.473 129.049 187.502 128.931C187.533 128.697 187.601 128.355 187.705 127.919C188.01 126.686 188.442 125.488 188.995 124.343C189.836 122.661 190.799 121.042 191.877 119.499C193.063 117.736 194.433 115.851 195.746 113.795C197.533 110.997 198.863 108.15 199.365 105.582C199.546 103.022 199.696 100.881 199.818 99.343C199.877 98.6143 199.926 98.0341 199.963 97.5977C199.963 97.4178 199.994 97.2649 200.008 97.1479C199.992 97.0998 199.983 97.0499 199.981 96.9995Z" fill="#263238"/>
<path d="M196.067 113.399C196.067 113.399 198.85 106.742 195.352 102.375C195.325 102.34 195.289 102.313 195.247 102.297C195.205 102.282 195.16 102.278 195.117 102.286C195.073 102.294 195.033 102.315 195 102.345C194.967 102.375 194.943 102.413 194.931 102.456C194.619 103.571 194.045 106.994 196.067 113.399Z" fill="#581C87"/>
<path d="M195.56 104.7C195.68 105.11 195.755 105.533 195.782 105.959C195.882 106.742 195.99 107.826 196.076 109.027C196.162 110.228 196.203 111.317 196.203 112.108C196.23 112.536 196.204 112.965 196.126 113.386C196.048 112.966 196.01 112.54 196.013 112.113C195.954 111.213 195.882 110.192 195.805 109.045C195.728 107.898 195.655 106.859 195.592 105.977C195.539 105.554 195.529 105.126 195.56 104.7Z" fill="#263238"/>
<g opacity="0.3">
<path d="M196.067 113.399C196.067 113.399 198.85 106.742 195.352 102.375C195.325 102.34 195.289 102.313 195.247 102.297C195.205 102.282 195.16 102.278 195.117 102.286C195.073 102.294 195.033 102.315 195 102.345C194.967 102.375 194.943 102.413 194.931 102.456C194.619 103.571 194.045 106.994 196.067 113.399Z" fill="black"/>
</g>
<path d="M187.447 129.453C187.447 129.453 189.678 122.589 185.832 118.523C185.802 118.49 185.764 118.467 185.722 118.454C185.679 118.442 185.634 118.442 185.592 118.454C185.549 118.465 185.511 118.488 185.48 118.52C185.45 118.552 185.429 118.592 185.42 118.635C185.203 119.769 184.909 123.232 187.447 129.453Z" fill="#581C87"/>
<path d="M186.23 120.808C186.387 121.207 186.497 121.624 186.556 122.049C186.719 122.818 186.914 123.893 187.099 125.081C187.285 126.268 187.411 127.352 187.479 128.139C187.538 128.564 187.546 128.995 187.502 129.421C187.394 129.008 187.322 128.587 187.285 128.162C187.153 127.285 187 126.259 186.832 125.121C186.665 123.983 186.502 122.958 186.38 122.081C186.288 121.662 186.238 121.236 186.23 120.808Z" fill="#263238"/>
<g opacity="0.3">
<path d="M187.447 129.453C187.447 129.453 189.678 122.589 185.832 118.523C185.802 118.49 185.764 118.467 185.722 118.454C185.679 118.442 185.634 118.442 185.592 118.454C185.549 118.465 185.511 118.488 185.48 118.52C185.45 118.552 185.429 118.592 185.42 118.635C185.203 119.769 184.909 123.232 187.447 129.453Z" fill="black"/>
</g>
<path d="M199.614 105.262C199.614 105.262 205.555 101.124 204.958 95.5736C204.953 95.5299 204.937 95.4884 204.91 95.4536C204.883 95.4187 204.847 95.3919 204.806 95.3761C204.765 95.3603 204.72 95.3561 204.676 95.364C204.633 95.3718 204.593 95.3914 204.56 95.4206C203.695 96.1943 201.379 98.7672 199.614 105.262Z" fill="#581C87"/>
<g opacity="0.3">
<path d="M199.614 105.262C199.614 105.262 205.555 101.124 204.958 95.5736C204.953 95.5299 204.937 95.4884 204.91 95.4536C204.883 95.4187 204.847 95.3919 204.806 95.3761C204.765 95.3603 204.72 95.3561 204.676 95.364C204.633 95.3718 204.593 95.3914 204.56 95.4206C203.695 96.1943 201.379 98.7672 199.614 105.262Z" fill="black"/>
</g>
<path d="M203.881 97.6472C203.763 98.0592 203.597 98.4561 203.388 98.8302C203.048 99.5409 202.555 100.512 201.98 101.574C201.406 102.636 200.854 103.576 200.428 104.241C200.219 104.615 199.966 104.962 199.673 105.276C199.832 104.88 200.029 104.501 200.261 104.142C200.686 103.364 201.189 102.456 201.741 101.444L203.216 98.7447C203.401 98.3582 203.624 97.9906 203.881 97.6472Z" fill="#263238"/>
<path d="M189.846 122.647C189.846 122.647 197.013 121.536 198.931 116.292C198.947 116.251 198.951 116.206 198.942 116.163C198.934 116.12 198.914 116.08 198.885 116.048C198.856 116.015 198.818 115.992 198.776 115.979C198.733 115.966 198.689 115.966 198.646 115.977C197.528 116.31 194.289 117.592 189.846 122.647Z" fill="#581C87"/>
<g opacity="0.3">
<path d="M189.846 122.647C189.846 122.647 197.013 121.536 198.931 116.292C198.947 116.251 198.951 116.206 198.942 116.163C198.934 116.12 198.914 116.08 198.885 116.048C198.856 116.015 198.818 115.992 198.776 115.979C198.733 115.966 198.689 115.966 198.646 115.977C197.528 116.31 194.289 117.592 189.846 122.647Z" fill="black"/>
</g>
<path d="M197.049 117.681C196.758 117.997 196.434 118.279 196.08 118.523C195.461 119.017 194.587 119.674 193.605 120.376C192.624 121.077 191.705 121.676 191.026 122.089C190.673 122.335 190.29 122.536 189.886 122.688C190.207 122.403 190.554 122.149 190.922 121.928L193.447 120.155L195.967 118.356C196.303 118.094 196.665 117.868 197.049 117.681Z" fill="#263238"/>
<path d="M183.004 135.764L180.914 149.753H193.945L192.257 135.764H183.004Z" fill="#455A64"/>
<path d="M192.782 140.095C192.782 140.172 190.429 140.23 187.529 140.23C184.629 140.23 182.271 140.172 182.271 140.095C184.021 139.962 185.775 139.917 187.529 139.96C189.281 139.917 191.035 139.962 192.782 140.095Z" fill="#263238"/>
<path d="M193.035 141.211C193.035 141.287 190.606 141.346 187.606 141.346C184.606 141.346 182.176 141.287 182.176 141.211C182.176 141.134 184.606 141.076 187.606 141.076C190.606 141.076 193.035 141.134 193.035 141.211Z" fill="#263238"/>
<path d="M142.364 0.0530291C142.364 0.0530291 142.242 0.0530291 142.006 0.0530291C141.663 0.0327455 141.318 0.0327455 140.975 0.0530291C139.646 0.130371 138.34 0.434686 137.115 0.952636C135.174 1.76178 133.484 3.07063 132.22 4.7445C131.44 5.78967 130.861 6.9682 130.509 8.22149C129.718 11.2069 130.145 14.3825 131.699 17.0557C132.123 17.7957 132.64 18.479 133.238 19.0888C133.841 19.7348 134.543 20.2814 135.319 20.7081C136.115 21.1534 137.017 21.3786 137.93 21.3603C138.871 21.3491 139.774 20.9862 140.459 20.3437C140.79 19.9989 141.05 19.5926 141.223 19.1481C141.396 18.7035 141.479 18.2294 141.468 17.7529C141.461 16.7627 141.145 15.7992 140.563 14.9955C139.391 13.3538 137.491 12.2517 135.468 11.658C133.371 11.0724 131.156 11.0414 129.043 11.568C127.965 11.847 126.925 12.2579 125.949 12.7915C124.963 13.3447 124.067 14.0439 123.293 14.8651C123.107 15.0765 122.895 15.2699 122.727 15.5038L122.216 16.1875C121.905 16.6693 121.627 17.1712 121.383 17.6899C120.899 18.7429 120.569 19.8592 120.401 21.0049C120.073 23.2939 120.386 25.6286 121.306 27.752C122.186 29.8269 123.718 31.5628 125.673 32.6999C126.62 33.2382 127.678 33.5565 128.767 33.631C129.835 33.6904 130.897 33.437 131.822 32.9023C132.739 32.3982 133.464 31.6078 133.885 30.6533C134.282 29.7125 134.309 28.658 133.962 27.698C133.604 26.7719 133.019 25.9493 132.26 25.3051C131.524 24.6727 130.676 24.183 129.758 23.8612C127.969 23.3004 126.055 23.2676 124.247 23.7667C122.556 24.2223 121.003 25.0825 119.723 26.2722C118.557 27.3825 117.669 28.7489 117.13 30.2619C116.188 32.8871 116.231 35.7625 117.252 38.3584C118.049 40.2964 119.331 41.9997 120.976 43.3063C122.013 44.1327 123.167 44.8012 124.401 45.2899C124.827 45.4474 125.157 45.5643 125.383 45.6273L125.718 45.7352C125.718 45.7352 125.6 45.7127 125.374 45.6498C125.04 45.5608 124.71 45.4542 124.388 45.3304C123.137 44.8632 121.968 44.2045 120.922 43.3783C119.249 42.0725 117.941 40.3609 117.126 38.4079C116.086 35.7875 116.033 32.8821 116.976 30.2259C117.516 28.69 118.414 27.3028 119.596 26.1777C120.894 24.9642 122.471 24.0841 124.189 23.6138C126.034 23.102 127.989 23.1332 129.817 23.7038C130.762 24.0312 131.635 24.5333 132.392 25.1836C133.18 25.849 133.787 26.7014 134.156 27.6621C134.528 28.6649 134.512 29.7695 134.111 30.7612C133.665 31.7534 132.908 32.5754 131.953 33.1047C130.994 33.6601 129.894 33.9258 128.786 33.8694C127.67 33.792 126.587 33.4628 125.618 32.9068C123.619 31.7538 122.049 29.9879 121.143 27.8735C120.203 25.7111 119.881 23.3331 120.211 21.0004C120.384 19.8315 120.722 18.6927 121.216 17.6179C121.464 17.0882 121.749 16.5758 122.066 16.0841L122.591 15.3869C122.759 15.1485 122.976 14.9371 123.166 14.7302C123.958 13.8934 124.874 13.1806 125.881 12.6161C126.88 12.0723 127.944 11.6553 129.048 11.3746C131.201 10.8382 133.458 10.8707 135.595 11.4691C137.658 12.0808 139.59 13.2008 140.807 14.9011C141.419 15.7383 141.752 16.7451 141.758 17.7798C141.78 18.7982 141.394 19.7835 140.685 20.5192C139.961 21.1947 139.009 21.5752 138.016 21.5852C137.066 21.6066 136.128 21.3719 135.301 20.906C134.507 20.4703 133.789 19.9098 133.174 19.2462C132.569 18.6227 132.044 17.9261 131.613 17.1726C130.032 14.4498 129.602 11.2141 130.419 8.17651C130.781 6.90872 131.375 5.71792 132.17 4.66353C133.457 2.97695 135.176 1.66442 137.147 0.862676C138.382 0.354727 139.698 0.068423 141.034 0.0170439C141.38 -0.00568129 141.728 -0.00568129 142.074 0.0170439L142.364 0.0530291Z" fill="#263238"/>
<path d="M157.472 45.0605H94.0322V93.7025H157.472V45.0605Z" fill="#581C87"/>
<path d="M94.0322 45.0605L105.751 55.9278H168.114L157.472 45.0605H94.0322Z" fill="#581C87"/>
<path d="M94.0322 45.0604L157.49 44.948H157.54L157.576 44.9795L168.109 55.7343L168.218 55.8468L168.412 56.0447H168.132L105.769 55.9952H105.742L94.0322 45.0604L105.796 55.8558H105.746L168.109 55.8108L168.028 56.0087L167.915 55.8963L157.386 45.1414L157.467 45.1774L94.0322 45.0604Z" fill="#263238"/>
<path d="M113.09 67.4922C112.746 67.5046 112.421 67.6506 112.185 67.8988C111.948 68.147 111.819 68.4776 111.825 68.8194C111.832 69.1612 111.973 69.4869 112.218 69.7265C112.463 69.966 112.793 70.1002 113.137 70.1002C113.481 70.1002 113.811 69.966 114.057 69.7265C114.302 69.4869 114.443 69.1612 114.449 68.8194C114.455 68.4776 114.326 68.147 114.09 67.8988C113.854 67.6506 113.529 67.5046 113.185 67.4922" fill="#263238"/>
<path d="M128.08 67.4922C127.738 67.5051 127.414 67.6511 127.179 67.8986C126.944 68.1461 126.816 68.4755 126.823 68.8159C126.829 69.1563 126.97 69.4806 127.214 69.7191C127.459 69.9575 127.787 70.0911 128.13 70.0911C128.472 70.0911 128.801 69.9575 129.046 69.7191C129.29 69.4806 129.431 69.1563 129.437 68.8159C129.444 68.4755 129.316 68.1461 129.081 67.8986C128.845 67.6511 128.522 67.5051 128.18 67.4922" fill="#263238"/>
<path d="M128.166 79.1331C127.904 78.1395 127.479 77.1957 126.908 76.3399C126.273 75.4246 125.457 74.6472 124.51 74.0548C123.368 73.3013 122.036 72.8819 120.665 72.8445C119.295 72.8071 117.941 73.1533 116.759 73.8434C115.783 74.3853 114.926 75.1164 114.239 75.9935C113.621 76.8177 113.145 77.7391 112.832 78.7193C112.836 78.6462 112.848 78.5737 112.868 78.5034C112.912 78.3008 112.967 78.101 113.036 77.9052C113.284 77.1827 113.646 76.504 114.108 75.8945C114.79 74.9764 115.658 74.2104 116.655 73.6455C117.868 72.9259 119.261 72.5641 120.673 72.6024C122.085 72.6406 123.456 73.0773 124.628 73.8614C125.591 74.4769 126.414 75.2859 127.044 76.2364C127.474 76.8708 127.799 77.5693 128.008 78.3055C128.063 78.5052 128.107 78.7079 128.139 78.9127C128.154 78.9853 128.164 79.059 128.166 79.1331Z" fill="#263238"/>
<path opacity="0.5" d="M94.1768 45.5957L105.398 59.7376H157.472V55.9277H105.751L94.1768 45.5957Z" fill="black"/>
<path d="M144.961 93.5944C144.898 93.5944 144.844 85.1336 144.844 74.7026C144.844 64.2716 144.898 55.8108 144.961 55.8108C145.025 55.8108 145.084 64.2671 145.084 74.7026C145.084 85.1381 145.029 93.5944 144.961 93.5944Z" fill="#263238"/>
<path d="M154.924 82.5652H149.332V88.849H154.924V82.5652Z" fill="#F5F5F5"/>
<path d="M94.0321 45.0605L81.0103 55.9278H94.0321V45.0605Z" fill="#581C87"/>
<g opacity="0.4">
<path d="M94.0321 45.0605L81.0103 55.9278H94.0321V45.0605Z" fill="black"/>
</g>
<path d="M159.345 93.7024H86.4038V149.631H159.345V93.7024Z" fill="#581C87"/>
<path opacity="0.3" d="M159.345 93.7024H86.4038V149.631H159.345V93.7024Z" fill="black"/>
<path d="M141.07 149.235C141.007 149.235 140.953 136.771 140.953 121.397C140.953 106.023 141.007 93.554 141.07 93.554C141.134 93.554 141.188 106.018 141.188 121.397C141.188 136.776 141.134 149.235 141.07 149.235Z" fill="#263238"/>
<path d="M153.16 136.902H147.567V143.186H153.16V136.902Z" fill="#F5F5F5"/>
<path d="M116.94 93.8508H108.656V105.784H116.94V93.8508Z" fill="#263238"/>
<path d="M116.94 137.531H108.656V149.465H116.94V137.531Z" fill="#263238"/>
<path d="M158.712 93.7025H158.522H157.974L155.87 93.725L148.12 93.761L122.56 93.8194L96.9914 93.7879L89.2453 93.752L87.1413 93.7295L89.2453 93.707L96.9914 93.671L122.56 93.635L148.12 93.671L155.87 93.707L157.974 93.7295H158.522L158.712 93.7025Z" fill="#263238"/>
<path d="M84.603 44.8178L76.6578 42.8746H76.7166C74.6651 44.1719 72.2928 44.8802 69.8618 44.9212C68.4226 44.9277 66.9905 44.72 65.6132 44.305C63.1917 43.532 61.0434 42.0861 59.4222 40.138C57.801 38.19 56.7746 35.8212 56.4644 33.3118C56.2208 31.4139 56.4002 29.4859 56.9897 27.6646C57.5793 25.8433 58.5647 24.1733 59.876 22.7728C60.5653 22.0201 61.3379 21.3472 62.179 20.7667C62.6043 20.5013 63.0297 20.2269 63.4731 19.9975L64.1472 19.6737L64.4821 19.5117L64.835 19.3858C66.6518 18.6857 68.6008 18.3894 70.545 18.5177C73.1507 18.6859 75.6481 19.6171 77.7222 21.194C79.7964 22.7709 81.3546 24.9229 82.2004 27.3788C82.6704 28.7527 82.9178 30.192 82.9334 31.643C82.9448 34.0544 82.2855 36.4221 81.0286 38.4845V38.4125C83.2366 42.3753 84.3496 44.377 84.5985 44.8178C84.3406 44.368 83.1868 42.4023 80.9019 38.48V38.444V38.4081C82.1137 36.3656 82.7397 34.0321 82.7117 31.661C82.6907 30.2332 82.4402 28.8179 81.9697 27.4688C81.133 25.0631 79.6011 22.9563 77.5657 21.4121C75.5303 19.8679 73.0818 18.9549 70.5269 18.7876C68.621 18.6641 66.7108 18.9557 64.93 19.6422L64.5861 19.7636L64.2558 19.9256L63.5952 20.2404C63.1428 20.4698 62.7446 20.7352 62.3238 20.9961C61.4989 21.561 60.7401 22.2158 60.0615 22.9483C58.7742 24.323 57.8066 25.9624 57.2272 27.7501C56.6478 29.5379 56.4708 31.4305 56.7088 33.2938C57.1282 36.7074 58.89 39.8173 61.6089 41.9435C62.8245 42.901 64.204 43.6325 65.6811 44.1026C67.0337 44.5183 68.4415 44.729 69.8573 44.7278C72.2592 44.7022 74.6075 44.019 76.6442 42.7532H76.6714H76.7211L84.603 44.8178Z" fill="#263238"/>
<path d="M68.5768 25.8496L68.9795 32.4617C68.9956 32.7225 69.107 32.9685 69.2929 33.1532C69.4787 33.338 69.7261 33.4488 69.9885 33.4648C70.2645 33.4803 70.536 33.3901 70.7473 33.2127C70.9585 33.0354 71.0934 32.7843 71.1241 32.5112L71.8617 25.8856C71.8745 25.767 71.8619 25.6471 71.8245 25.5338C71.7872 25.4205 71.7261 25.3164 71.6453 25.2283C71.5644 25.1403 71.4656 25.0703 71.3555 25.0231C71.2454 24.9759 71.1264 24.9525 71.0065 24.9545H69.3912C69.2779 24.9578 69.1664 24.9839 69.0634 25.0312C68.9605 25.0784 68.8682 25.1459 68.7922 25.2295C68.7161 25.3131 68.6578 25.4111 68.6208 25.5177C68.5838 25.6242 68.5688 25.7371 68.5768 25.8496Z" fill="#581C87"/>
<path d="M71.7439 37.1575C71.6427 37.4595 71.4537 37.725 71.2007 37.9202C70.9478 38.1155 70.6423 38.2319 70.3228 38.2546C70.0034 38.2773 69.6843 38.2054 69.406 38.0479C69.1277 37.8904 68.9025 37.6544 68.7591 37.3698C68.6156 37.0852 68.5602 36.7646 68.5999 36.4487C68.6396 36.1328 68.7726 35.8357 68.9822 35.5949C69.1917 35.3541 69.4683 35.1805 69.7771 35.0959C70.0858 35.0114 70.4129 35.0197 70.7169 35.1199C70.919 35.1865 71.1059 35.292 71.2669 35.4305C71.428 35.569 71.56 35.7377 71.6554 35.927C71.7508 36.1162 71.8077 36.3223 71.8229 36.5335C71.8381 36.7446 71.8113 36.9567 71.7439 37.1575Z" fill="#581C87"/>
</svg>
