<svg width="24" height="24" viewBox="0 0 24 24" fill="none" xmlns="http://www.w3.org/2000/svg">
<path d="M4.55404 5.90789C4.19498 5.90789 3.85062 6.05052 3.59673 6.30442C3.34283 6.55832 3.2002 6.90267 3.2002 7.26173V19.4463C3.2002 19.8054 3.34283 20.1498 3.59673 20.4037C3.85062 20.6576 4.19498 20.8002 4.55404 20.8002H19.4463C19.8054 20.8002 20.1498 20.6576 20.4037 20.4037C20.6576 20.1498 20.8002 19.8054 20.8002 19.4463V7.26173C20.8002 6.90267 20.6576 6.55832 20.4037 6.30442C20.1498 6.05052 19.8054 5.90789 19.4463 5.90789H16.7387M3.2002 11.3233H20.8002M7.26173 3.2002V8.61558M16.7387 3.2002V8.61558M7.26173 5.90789H14.031" stroke="#521D95" stroke-width="1.6" stroke-linecap="round" stroke-linejoin="round"/>
</svg>
