<svg width="24" height="24" viewBox="0 0 24 24" fill="none" xmlns="http://www.w3.org/2000/svg">
<path d="M4.55386 5.90789C4.1948 5.90789 3.85044 6.05052 3.59654 6.30442C3.34265 6.55832 3.20001 6.90267 3.20001 7.26173V19.4463C3.20001 19.8054 3.34265 20.1498 3.59654 20.4037C3.85044 20.6576 4.1948 20.8002 4.55386 20.8002H19.4462C19.8052 20.8002 20.1496 20.6576 20.4035 20.4037C20.6574 20.1498 20.8 19.8054 20.8 19.4463V7.26173C20.8 6.90267 20.6574 6.55832 20.4035 6.30442C20.1496 6.05052 19.8052 5.90789 19.4462 5.90789H16.7385M3.20001 11.3233H20.8M7.26155 3.2002V8.61558M16.7385 3.2002V8.61558M7.26155 5.90789H14.0308" stroke="#4B1873" stroke-width="1.6" stroke-linecap="round" stroke-linejoin="round"/>
</svg>
