<svg width="24" height="24" viewBox="0 0 24 24" fill="none" xmlns="http://www.w3.org/2000/svg">
<path d="M20.8 16.7384V19.4461C20.8 19.8052 20.6574 20.1495 20.4035 20.4034C20.1496 20.6573 19.8052 20.8 19.4462 20.8H16.7385M16.7385 3.19995H19.4462C19.8052 3.19995 20.1496 3.34259 20.4035 3.59648C20.6574 3.85038 20.8 4.19474 20.8 4.5538V7.26149M3.20001 7.26149V4.5538C3.20001 4.19474 3.34265 3.85038 3.59654 3.59648C3.85044 3.34259 4.1948 3.19995 4.55386 3.19995H7.26155M7.26155 20.8H4.55386C4.1948 20.8 3.85044 20.6573 3.59654 20.4034C3.34265 20.1495 3.20001 19.8052 3.20001 19.4461V16.7384M16.2782 16.7384C15.8932 15.9299 15.287 15.2471 14.5298 14.769C13.7726 14.2909 12.8955 14.0372 12 14.0372C11.1045 14.0372 10.2274 14.2909 9.47023 14.769C8.71306 15.2471 8.10686 15.9299 7.72186 16.7384M14.7077 8.61534C14.7077 10.1108 13.4954 11.323 12 11.323C10.5046 11.323 9.29232 10.1108 9.29232 8.61534C9.29232 7.11992 10.5046 5.90764 12 5.90764C13.4954 5.90764 14.7077 7.11992 14.7077 8.61534Z" stroke="white" stroke-width="1.6" stroke-linecap="round" stroke-linejoin="round"/>
</svg>
