<svg width="16" height="16" viewBox="0 0 16 16" fill="none" xmlns="http://www.w3.org/2000/svg">
<path d="M6.15519 12.837L2 14L3.16345 9.84643L10.7721 2.27771C10.8581 2.1898 10.9608 2.11995 11.0741 2.07226C11.1875 2.02457 11.3093 2 11.4323 2C11.5553 2 11.677 2.02457 11.7904 2.07226C11.9038 2.11995 12.0065 2.1898 12.0925 2.27771L13.7269 3.92068C13.8134 4.00648 13.8821 4.10857 13.929 4.22105C13.9759 4.33353 14 4.45417 14 4.57602C14 4.69787 13.9759 4.81851 13.929 4.93099C13.8821 5.04347 13.8134 5.14555 13.7269 5.23136L6.15519 12.837Z" stroke="#71717A" stroke-width="1.6" stroke-linecap="round" stroke-linejoin="round"/>
</svg>
