<svg width="200" height="217" viewBox="0 0 200 217" fill="none" xmlns="http://www.w3.org/2000/svg">
<g opacity="0.7">
<path d="M124.531 28.9782C128.299 22.2052 130.184 18.8335 133 18.8335C135.816 18.8335 137.7 22.2052 141.469 28.9782L142.441 30.7236C143.512 32.6474 144.047 33.5994 144.88 34.2341C145.723 34.8687 146.764 35.1067 148.847 35.5728L150.731 36.0092C158.049 37.6652 161.709 38.4883 162.581 41.2848C163.454 44.0912 160.955 47.0067 155.967 52.8377L154.678 54.3451C153.26 56.0012 152.546 56.8242 152.228 57.8556C151.911 58.8869 152.02 59.9877 152.228 62.1991L152.427 64.2122C153.18 71.9967 153.557 75.894 151.286 77.6195C149.005 79.3549 145.574 77.7682 138.722 74.6147L136.957 73.8016C135.003 72.9091 134.031 72.4529 133 72.4529C131.969 72.4529 130.997 72.9091 129.043 73.8016L127.278 74.6147C120.426 77.7682 116.994 79.3549 114.714 77.6195C112.433 75.894 112.82 71.9967 113.573 64.2122L113.772 62.1991C113.98 59.9877 114.089 58.8869 113.772 57.8556C113.454 56.8342 112.74 56.0012 111.322 54.3451L110.033 52.8377C105.045 47.0067 102.546 44.0912 103.419 41.2848C104.291 38.4883 107.95 37.6652 115.269 36.0092L117.153 35.5728C119.236 35.1067 120.277 34.8787 121.12 34.2341C121.953 33.5994 122.488 32.6474 123.559 30.7236L124.531 28.9782ZM142.917 98.1668H123.083C109.061 98.1668 102.05 98.1668 97.6966 102.53C93.3332 106.874 93.3333 113.885 93.3333 127.917V212.167C93.3333 214.928 95.5718 217.167 98.3333 217.167H167.667C170.428 217.167 172.667 214.928 172.667 212.167V127.917C172.667 113.895 172.667 106.884 168.303 102.53C163.96 98.1668 156.949 98.1668 142.917 98.1668Z" fill="url(#paint0_linear_7405_128584)"/>
<path opacity="0.5" d="M88.9699 191.779C84.6264 187.416 77.6153 187.416 63.5833 187.416C49.5611 187.416 42.55 187.416 38.1966 191.779C34.1565 195.801 33.8572 202.109 33.835 214.161C33.832 215.818 35.1764 217.166 36.8333 217.166H90.3332C91.9901 217.166 93.3345 215.818 93.3315 214.161C93.3093 202.119 93.0098 195.81 88.9699 191.779ZM172.667 187.416V214.166C172.667 215.822 174.01 217.166 175.667 217.166H229.167C230.823 217.166 232.167 215.822 232.167 214.166V187.416C232.167 173.393 232.167 166.382 227.803 162.029C223.46 157.666 216.449 157.666 202.417 157.666C188.394 157.666 181.383 157.666 177.03 162.029C172.667 166.372 172.667 173.383 172.667 187.416Z" fill="url(#paint1_linear_7405_128584)"/>
</g>
<defs>
<linearGradient id="paint0_linear_7405_128584" x1="96.1666" y1="33.7085" x2="184.397" y2="41.0477" gradientUnits="userSpaceOnUse">
<stop stop-color="#4C1D95"/>
<stop offset="0.0001" stop-color="#5B2E99"/>
<stop offset="1" stop-color="#A231AF"/>
</linearGradient>
<linearGradient id="paint1_linear_7405_128584" x1="40.9166" y1="162.128" x2="190.933" y2="266.118" gradientUnits="userSpaceOnUse">
<stop stop-color="#4C1D95"/>
<stop offset="0.0001" stop-color="#5B2E99"/>
<stop offset="1" stop-color="#A231AF"/>
</linearGradient>
</defs>
</svg>
