<svg width="200" height="217" viewBox="0 0 200 217" fill="none" xmlns="http://www.w3.org/2000/svg">
<g opacity="0.6">
<g clip-path="url(#clip0_7601_137077)">
<path opacity="0.2" d="M231.988 150.001C231.988 168.258 226.628 186.105 216.585 201.284C206.543 216.464 192.269 228.296 175.569 235.282C158.869 242.269 140.493 244.097 122.764 240.535C105.035 236.973 88.7505 228.182 75.9688 215.272C63.1872 202.363 54.4828 185.915 50.9563 168.009C47.4299 150.103 49.2398 131.543 56.1572 114.676C63.0745 97.8094 74.7887 83.3929 89.8183 73.25C104.848 63.1071 122.518 57.6934 140.594 57.6934C164.833 57.6934 188.079 67.4186 205.219 84.7297C222.359 102.041 231.988 125.52 231.988 150.001Z" fill="url(#paint0_linear_7601_137077)"/>
<path d="M184.063 121.481C184.771 122.195 185.333 123.044 185.716 123.977C186.1 124.911 186.297 125.912 186.297 126.923C186.297 127.934 186.1 128.935 185.716 129.869C185.333 130.803 184.771 131.651 184.063 132.365L130.75 186.212C130.043 186.927 129.203 187.494 128.278 187.881C127.354 188.268 126.363 188.468 125.362 188.468C124.361 188.468 123.37 188.268 122.445 187.881C121.521 187.494 120.681 186.927 119.973 186.212L97.125 163.135C95.6959 161.691 94.893 159.734 94.893 157.692C94.893 155.651 95.6959 153.693 97.125 152.25C98.5541 150.807 100.492 149.996 102.513 149.996C104.534 149.996 106.473 150.807 107.902 152.25L125.362 169.894L173.286 121.481C173.994 120.766 174.834 120.198 175.758 119.811C176.683 119.424 177.674 119.225 178.675 119.225C179.676 119.225 180.667 119.424 181.591 119.811C182.516 120.198 183.356 120.766 184.063 121.481ZM239.604 150C239.604 169.778 233.797 189.112 222.918 205.557C212.039 222.002 196.575 234.819 178.484 242.388C160.392 249.957 140.484 251.937 121.278 248.078C102.072 244.22 84.4304 234.696 70.5836 220.711C56.7368 206.725 47.307 188.907 43.4867 169.509C39.6664 150.111 41.6271 130.004 49.121 111.732C56.6148 93.459 69.3051 77.8412 85.5872 66.853C101.869 55.8649 121.012 50 140.594 50C166.845 50.028 192.012 60.5727 210.574 79.3202C229.136 98.0678 239.576 123.487 239.604 150ZM224.372 150C224.372 133.265 219.458 116.905 210.253 102.99C201.047 89.0753 187.963 78.2299 172.654 71.8256C157.346 65.4212 140.501 63.7456 124.25 67.0105C107.999 70.2754 93.071 78.3342 81.3545 90.1679C69.6379 102.002 61.6589 117.079 58.4263 133.492C55.1937 149.906 56.8528 166.919 63.1938 182.381C69.5347 197.842 80.2727 211.057 94.0498 220.355C107.827 229.653 124.025 234.615 140.594 234.615C162.806 234.59 184.1 225.667 199.806 209.804C215.512 193.941 224.347 172.434 224.372 150Z" fill="url(#paint1_linear_7601_137077)"/>
<path d="M239.604 150C239.604 169.778 233.797 189.112 222.918 205.557C212.039 222.002 196.575 234.819 178.484 242.388C160.392 249.957 140.484 251.937 121.278 248.078C102.072 244.22 84.4304 234.696 70.5836 220.711C56.7368 206.725 47.307 188.907 43.4867 169.509C39.6664 150.111 41.6271 130.004 49.121 111.732C56.6148 93.459 69.3051 77.8412 85.5872 66.853C101.869 55.8649 121.012 50 140.594 50C166.845 50.028 192.012 60.5727 210.574 79.3202C229.136 98.0678 239.576 123.487 239.604 150ZM224.372 150C224.372 133.265 219.458 116.905 210.253 102.99C201.047 89.0753 187.963 78.2299 172.654 71.8256C157.346 65.4212 140.501 63.7456 124.25 67.0105C107.999 70.2754 93.071 78.3342 81.3545 90.1679C69.6379 102.002 61.6589 117.079 58.4263 133.492C55.1937 149.906 56.8528 166.919 63.1938 182.381C69.5347 197.842 80.2727 211.057 94.0498 220.355C107.827 229.653 124.025 234.615 140.594 234.615C162.806 234.59 184.1 225.667 199.806 209.804C215.512 193.941 224.347 172.434 224.372 150Z" fill="url(#paint2_linear_7601_137077)"/>
</g>
</g>
<defs>
<linearGradient id="paint0_linear_7601_137077" x1="55.7283" y1="71.5395" x2="252.096" y2="111.971" gradientUnits="userSpaceOnUse">
<stop stop-color="#4C1D95"/>
<stop offset="0.0001" stop-color="#5B2E99"/>
<stop offset="1" stop-color="#A231AF"/>
</linearGradient>
<linearGradient id="paint1_linear_7601_137077" x1="48.6564" y1="65" x2="261.388" y2="108.801" gradientUnits="userSpaceOnUse">
<stop stop-color="#4C1D95"/>
<stop offset="0.0001" stop-color="#5B2E99"/>
<stop offset="1" stop-color="#A231AF"/>
</linearGradient>
<linearGradient id="paint2_linear_7601_137077" x1="48.6564" y1="65" x2="261.388" y2="108.801" gradientUnits="userSpaceOnUse">
<stop stop-color="#4C1D95"/>
<stop offset="0.0001" stop-color="#5B2E99"/>
<stop offset="1" stop-color="#A231AF"/>
</linearGradient>
<clipPath id="clip0_7601_137077">
<rect width="200" height="217" rx="20" fill="white"/>
</clipPath>
</defs>
</svg>
