<svg width="200" height="217" viewBox="0 0 200 217" fill="none" xmlns="http://www.w3.org/2000/svg">
<g opacity="0.6">
<g clip-path="url(#clip0_7405_128595)">
<path d="M165.867 136.144C141.382 136.144 121.534 116.295 121.534 91.8104C121.534 67.3258 141.382 47.4771 165.867 47.4771C190.352 47.4771 210.2 67.3258 210.2 91.8104C210.2 116.295 190.352 136.144 165.867 136.144Z" fill="url(#paint0_linear_7405_128595)"/>
<path opacity="0.5" d="M165.5 261C111.652 261 68 236.152 68 205.5C68 174.848 111.652 150 165.5 150C219.348 150 263 174.848 263 205.5C263 236.152 219.348 261 165.5 261Z" fill="url(#paint1_linear_7405_128595)"/>
<path fill-rule="evenodd" clip-rule="evenodd" d="M82.6607 43.1984C81.526 41.3083 79.687 39.9465 77.5482 39.4123C75.4095 38.8781 73.1461 39.2154 71.256 40.3499L71.2227 40.3721L71.1784 40.3943L71.0676 40.4608C70.6419 40.7292 70.2243 41.0101 69.8151 41.3031C69.0393 41.8462 67.9753 42.6331 66.7451 43.6528C64.2846 45.7032 61.0704 48.7733 57.8562 52.9406C51.4057 61.3418 45.055 74.1541 45.055 91.8099C45.055 109.466 51.4057 122.289 57.8562 130.679C61.0704 134.846 64.2846 137.917 66.7451 139.967C68.0309 141.037 69.3739 142.036 70.7683 142.959L71.0786 143.159L71.1895 143.225L71.2227 143.248L71.2449 143.259C71.2449 143.259 71.256 143.27 75.5341 136.143L71.256 143.27C73.1386 144.338 75.3637 144.63 77.4582 144.083C79.5526 143.537 81.3512 142.195 82.4715 140.342C83.5918 138.49 83.9453 136.274 83.457 134.165C82.9687 132.056 81.677 130.221 79.8566 129.05L79.8012 129.006C78.9697 128.444 78.167 127.841 77.3961 127.199C75.7004 125.78 73.3729 123.586 71.0343 120.549C66.4126 114.542 61.68 105.187 61.68 91.8099C61.68 78.4323 66.4126 69.089 71.0343 63.0708C72.9024 60.6292 75.032 58.3993 77.3851 56.4208C78.1592 55.7779 78.9657 55.175 79.8012 54.6142L79.8566 54.5809C81.7331 53.4391 83.0814 51.6009 83.6068 49.4681C84.1322 47.3353 83.7921 45.0812 82.6607 43.1984Z" fill="url(#paint2_linear_7405_128595)"/>
<path fill-rule="evenodd" clip-rule="evenodd" d="M105.126 65.9288C104.141 63.9565 102.413 62.4561 100.322 61.7577C98.2313 61.0594 95.9486 61.2202 93.9762 62.2048L93.9651 62.2159L93.9429 62.227L93.8986 62.2492L93.8099 62.2935L93.5661 62.4265C92.6594 62.9186 91.7956 63.4859 90.9837 64.1223C89.4763 65.2528 87.5478 66.9374 85.6637 69.2982C81.7956 74.1305 78.3043 81.4788 78.3043 91.8084C78.3043 102.138 81.8067 109.486 85.6637 114.319C87.7045 116.869 90.1539 119.064 92.9122 120.813C93.1312 120.944 93.3529 121.069 93.5772 121.19L93.7988 121.323L93.9097 121.368L93.9429 121.39L93.9651 121.401L97.6226 114.119L93.9762 121.412C95.9383 122.419 98.2199 122.605 100.319 121.929C102.419 121.254 104.164 119.772 105.17 117.81C106.177 115.848 106.363 113.566 105.688 111.467C105.012 109.368 103.53 107.623 101.568 106.616L101.535 106.605C100.445 105.87 99.4731 104.973 98.6533 103.945C96.9687 101.839 94.9293 98.1038 94.9293 91.8084C94.9293 85.5131 96.9687 81.778 98.6422 79.6833C99.4655 78.6545 100.441 77.7575 101.535 77.0233L101.568 77.0011C103.496 75.9892 104.95 74.2612 105.617 72.1887C106.285 70.1161 106.112 67.8645 105.137 65.9178L105.126 65.9288Z" fill="url(#paint3_linear_7405_128595)"/>
</g>
</g>
<defs>
<linearGradient id="paint0_linear_7405_128595" x1="207.034" y1="54.127" x2="111.857" y2="73.9196" gradientUnits="userSpaceOnUse">
<stop stop-color="#4C1D95"/>
<stop offset="0.0001" stop-color="#5B2E99"/>
<stop offset="1" stop-color="#A231AF"/>
</linearGradient>
<linearGradient id="paint1_linear_7405_128595" x1="256.036" y1="158.325" x2="63.38" y2="228.708" gradientUnits="userSpaceOnUse">
<stop stop-color="#4C1D95"/>
<stop offset="0.0001" stop-color="#5B2E99"/>
<stop offset="1" stop-color="#A231AF"/>
</linearGradient>
<linearGradient id="paint2_linear_7405_128595" x1="82.4627" y1="47.0537" x2="39.2746" y2="50.3659" gradientUnits="userSpaceOnUse">
<stop stop-color="#4C1D95"/>
<stop offset="0.0001" stop-color="#5B2E99"/>
<stop offset="1" stop-color="#A231AF"/>
</linearGradient>
<linearGradient id="paint3_linear_7405_128595" x1="105.095" y1="65.9046" x2="74.2592" y2="68.8252" gradientUnits="userSpaceOnUse">
<stop stop-color="#4C1D95"/>
<stop offset="0.0001" stop-color="#5B2E99"/>
<stop offset="1" stop-color="#A231AF"/>
</linearGradient>
<clipPath id="clip0_7405_128595">
<rect width="200" height="217" rx="20" transform="matrix(-1 0 0 1 200 0)" fill="white"/>
</clipPath>
</defs>
</svg>
