<svg width="200" height="217" viewBox="0 0 200 217" fill="none" xmlns="http://www.w3.org/2000/svg">
<g clip-path="url(#clip0_7405_128617)">
<path opacity="0.3" d="M243.175 55.5229V229.477C243.175 231.784 242.259 233.996 240.627 235.627C238.996 237.259 236.784 238.175 234.477 238.175H60.5229C58.2161 238.175 56.0038 237.259 54.3727 235.627C52.7416 233.996 51.8252 231.784 51.8252 229.477V55.5229C51.8252 53.2161 52.7416 51.0038 54.3727 49.3727C56.0038 47.7416 58.2161 46.8252 60.5229 46.8252H234.477C236.784 46.8252 238.996 47.7416 240.627 49.3727C242.259 51.0038 243.175 53.2161 243.175 55.5229Z" fill="url(#paint0_linear_7405_128617)"/>
<path d="M141.302 148.698H138.802H51.8252C50.1814 148.698 48.605 148.045 47.4427 146.882C46.2804 145.72 45.6274 144.144 45.6274 142.5C45.6274 140.856 46.2804 139.28 47.4427 138.118L45.6932 136.368L47.4427 138.118C48.605 136.955 50.1814 136.302 51.8252 136.302H138.802H141.302V133.802V46.8252C141.302 45.1814 141.955 43.605 143.118 42.4427L141.368 40.6932L143.118 42.4427C144.28 41.2804 145.856 40.6274 147.5 40.6274C149.144 40.6274 150.72 41.2804 151.882 42.4427C153.045 43.605 153.698 45.1814 153.698 46.8252V133.802V136.302H156.198H243.175C244.819 136.302 246.395 136.955 247.557 138.118C248.72 139.28 249.373 140.856 249.373 142.5C249.373 144.144 248.72 145.72 247.557 146.882C246.395 148.045 244.819 148.698 243.175 148.698H156.198H153.698V151.198V238.175C153.698 239.819 153.045 241.395 151.882 242.557C150.72 243.72 149.144 244.373 147.5 244.373C145.856 244.373 144.28 243.72 143.118 242.557C141.955 241.395 141.302 239.819 141.302 238.175V151.198V148.698Z" fill="url(#paint1_linear_7405_128617)" stroke="url(#paint2_linear_7405_128617)" stroke-width="5"/>
</g>
<defs>
<linearGradient id="paint0_linear_7405_128617" x1="58.6591" y1="61.1764" x2="264.057" y2="103.89" gradientUnits="userSpaceOnUse">
<stop stop-color="#4C1D95"/>
<stop offset="0.0001" stop-color="#5B2E99"/>
<stop offset="1" stop-color="#A231AF"/>
</linearGradient>
<linearGradient id="paint1_linear_7405_128617" x1="50.5826" y1="53.7833" x2="274.653" y2="100.38" gradientUnits="userSpaceOnUse">
<stop stop-color="#4C1D95"/>
<stop offset="0.0001" stop-color="#5B2E99"/>
<stop offset="1" stop-color="#A231AF"/>
</linearGradient>
<linearGradient id="paint2_linear_7405_128617" x1="50.5826" y1="53.7833" x2="274.653" y2="100.38" gradientUnits="userSpaceOnUse">
<stop stop-color="#4C1D95"/>
<stop offset="0.0001" stop-color="#5B2E99"/>
<stop offset="1" stop-color="#A231AF"/>
</linearGradient>
<clipPath id="clip0_7405_128617">
<rect width="200" height="217" rx="20" fill="white"/>
</clipPath>
</defs>
</svg>
