<svg width="200" height="217" viewBox="0 0 200 217" fill="none" xmlns="http://www.w3.org/2000/svg">
<g opacity="0.7">
<g clip-path="url(#clip0_7405_128629)">
<path fill-rule="evenodd" clip-rule="evenodd" d="M101.125 41.5C59.083 41.5 25 75.583 25 117.625C25 212.125 151 230.5 151 230.5V193.75H158.875C200.917 193.75 235 159.667 235 117.625C235 75.583 200.917 41.5 158.875 41.5H101.125ZM130 133.375C133.481 133.375 136.819 131.992 139.281 129.531C141.742 127.069 143.125 123.731 143.125 120.25C143.125 116.769 141.742 113.431 139.281 110.969C136.819 108.508 133.481 107.125 130 107.125C126.519 107.125 123.181 108.508 120.719 110.969C118.258 113.431 116.875 116.769 116.875 120.25C116.875 123.731 118.258 127.069 120.719 129.531C123.181 131.992 126.519 133.375 130 133.375ZM185.125 120.25C185.125 123.731 183.742 127.069 181.281 129.531C178.819 131.992 175.481 133.375 172 133.375C168.519 133.375 165.181 131.992 162.719 129.531C160.258 127.069 158.875 123.731 158.875 120.25C158.875 116.769 160.258 113.431 162.719 110.969C165.181 108.508 168.519 107.125 172 107.125C175.481 107.125 178.819 108.508 181.281 110.969C183.742 113.431 185.125 116.769 185.125 120.25ZM88 133.375C91.481 133.375 94.8194 131.992 97.2808 129.531C99.7422 127.069 101.125 123.731 101.125 120.25C101.125 116.769 99.7422 113.431 97.2808 110.969C94.8194 108.508 91.481 107.125 88 107.125C84.519 107.125 81.1806 108.508 78.7192 110.969C76.2578 113.431 74.875 116.769 74.875 120.25C74.875 123.731 76.2578 127.069 78.7192 129.531C81.1806 131.992 84.519 133.375 88 133.375Z" fill="black"/>
<path fill-rule="evenodd" clip-rule="evenodd" d="M101.125 41.5C59.083 41.5 25 75.583 25 117.625C25 212.125 151 230.5 151 230.5V193.75H158.875C200.917 193.75 235 159.667 235 117.625C235 75.583 200.917 41.5 158.875 41.5H101.125ZM130 133.375C133.481 133.375 136.819 131.992 139.281 129.531C141.742 127.069 143.125 123.731 143.125 120.25C143.125 116.769 141.742 113.431 139.281 110.969C136.819 108.508 133.481 107.125 130 107.125C126.519 107.125 123.181 108.508 120.719 110.969C118.258 113.431 116.875 116.769 116.875 120.25C116.875 123.731 118.258 127.069 120.719 129.531C123.181 131.992 126.519 133.375 130 133.375ZM185.125 120.25C185.125 123.731 183.742 127.069 181.281 129.531C178.819 131.992 175.481 133.375 172 133.375C168.519 133.375 165.181 131.992 162.719 129.531C160.258 127.069 158.875 123.731 158.875 120.25C158.875 116.769 160.258 113.431 162.719 110.969C165.181 108.508 168.519 107.125 172 107.125C175.481 107.125 178.819 108.508 181.281 110.969C183.742 113.431 185.125 116.769 185.125 120.25ZM88 133.375C91.481 133.375 94.8194 131.992 97.2808 129.531C99.7422 127.069 101.125 123.731 101.125 120.25C101.125 116.769 99.7422 113.431 97.2808 110.969C94.8194 108.508 91.481 107.125 88 107.125C84.519 107.125 81.1806 108.508 78.7192 110.969C76.2578 113.431 74.875 116.769 74.875 120.25C74.875 123.731 76.2578 127.069 78.7192 129.531C81.1806 131.992 84.519 133.375 88 133.375Z" fill="url(#paint0_linear_7405_128629)"/>
</g>
</g>
<defs>
<linearGradient id="paint0_linear_7405_128629" x1="32.5" y1="55.675" x2="255.747" y2="107.259" gradientUnits="userSpaceOnUse">
<stop stop-color="#4C1D95"/>
<stop offset="0.0001" stop-color="#5B2E99"/>
<stop offset="1" stop-color="#A231AF"/>
</linearGradient>
<clipPath id="clip0_7405_128629">
<rect width="200" height="217" rx="20" fill="white"/>
</clipPath>
</defs>
</svg>
