<svg width="200" height="217" viewBox="0 0 200 217" fill="none" xmlns="http://www.w3.org/2000/svg">
<g opacity="0.6">
<g clip-path="url(#clip0_7405_128576)">
<path opacity="0.6" d="M155.022 128.672C165.447 128.672 173.907 137.174 173.907 147.649V199.148C173.907 212.093 168.79 224.507 159.681 233.661C150.571 242.814 138.216 247.957 125.334 247.957C112.452 247.957 100.097 242.814 90.9875 233.661C81.8783 224.507 76.7607 212.093 76.7607 199.148V147.649C76.7607 137.174 85.2106 128.672 95.6462 128.672H155.022ZM72.757 128.672C68.8701 133.372 66.5321 139.17 66.0662 145.263L65.9583 147.649V199.148C65.9583 208.332 68.0303 217.029 71.721 224.794C65.3246 226.513 58.6203 226.731 52.1266 225.432C45.6328 224.132 39.5236 221.348 34.2712 217.297C29.0189 213.245 24.7642 208.035 21.8362 202.067C18.9081 196.099 17.3851 189.535 17.385 182.881V147.649C17.3852 142.887 19.1675 138.298 22.3781 134.795C25.5887 131.291 29.9929 129.129 34.7164 128.737L36.2704 128.672H72.757ZM177.911 128.672H214.333C224.758 128.672 233.218 137.174 233.218 147.649V182.892C233.22 189.542 231.7 196.102 228.776 202.067C225.853 208.032 221.603 213.242 216.357 217.294C211.111 221.346 205.007 224.131 198.519 225.436C192.03 226.74 185.33 226.528 178.936 224.815C182.174 218.005 184.159 210.501 184.602 202.563L184.699 199.148V147.649C184.699 140.438 182.163 133.823 177.911 128.672ZM125.302 52.7637C133.888 52.7637 142.123 56.1912 148.194 62.2921C154.266 68.3931 157.677 76.6678 157.677 85.2958C157.677 93.9239 154.266 102.199 148.194 108.3C142.123 114.401 133.888 117.828 125.302 117.828C116.715 117.828 108.481 114.401 102.409 108.3C96.3376 102.199 92.9267 93.9239 92.9267 85.2958C92.9267 76.6678 96.3376 68.3931 102.409 62.2921C108.481 56.1912 116.715 52.7637 125.302 52.7637ZM195.447 63.6077C202.603 63.6077 209.465 66.464 214.525 71.5481C219.584 76.6322 222.427 83.5278 222.427 90.7179C222.427 97.9079 219.584 104.803 214.525 109.888C209.465 114.972 202.603 117.828 195.447 117.828C188.292 117.828 181.43 114.972 176.37 109.888C171.311 104.803 168.468 97.9079 168.468 90.7179C168.468 83.5278 171.311 76.6322 176.37 71.5481C181.43 66.464 188.292 63.6077 195.447 63.6077ZM55.1558 63.6077C62.3112 63.6077 69.1734 66.464 74.233 71.5481C79.2926 76.6322 82.135 83.5278 82.135 90.7179C82.135 97.9079 79.2926 104.803 74.233 109.888C69.1734 114.972 62.3112 117.828 55.1558 117.828C48.0005 117.828 41.1383 114.972 36.0787 109.888C31.0191 104.803 28.1767 97.9079 28.1767 90.7179C28.1767 83.5278 31.0191 76.6322 36.0787 71.5481C41.1383 66.464 48.0005 63.6077 55.1558 63.6077Z" fill="url(#paint0_linear_7405_128576)"/>
<path d="M155.05 128.672C165.475 128.672 173.935 137.174 173.935 147.649V199.148C173.935 212.093 168.818 224.507 159.709 233.661C150.599 242.814 138.245 247.957 125.362 247.957C112.48 247.957 100.125 242.814 91.0156 233.661C81.9063 224.507 76.7888 212.093 76.7888 199.148V147.649C76.7888 137.174 85.2387 128.672 95.6742 128.672H155.05ZM125.33 52.7637C133.916 52.7637 142.151 56.1912 148.222 62.2921C154.294 68.3931 157.705 76.6678 157.705 85.2958C157.705 93.9239 154.294 102.199 148.222 108.3C142.151 114.401 133.916 117.828 125.33 117.828C116.743 117.828 108.509 114.401 102.437 108.3C96.3657 102.199 92.9547 93.9239 92.9547 85.2958C92.9547 76.6678 96.3657 68.3931 102.437 62.2921C108.509 56.1912 116.743 52.7637 125.33 52.7637Z" fill="url(#paint1_linear_7405_128576)"/>
</g>
</g>
<defs>
<linearGradient id="paint0_linear_7405_128576" x1="25.0933" y1="67.4031" x2="254.654" y2="120.19" gradientUnits="userSpaceOnUse">
<stop stop-color="#4C1D95"/>
<stop offset="0.0001" stop-color="#5B2E99"/>
<stop offset="1" stop-color="#A231AF"/>
</linearGradient>
<linearGradient id="paint1_linear_7405_128576" x1="80.2583" y1="67.4031" x2="187.894" y2="78.5433" gradientUnits="userSpaceOnUse">
<stop stop-color="#4C1D95"/>
<stop offset="0.0001" stop-color="#5B2E99"/>
<stop offset="1" stop-color="#A231AF"/>
</linearGradient>
<clipPath id="clip0_7405_128576">
<rect width="200" height="217" rx="20" fill="white"/>
</clipPath>
</defs>
</svg>
