<svg width="80" height="80" viewBox="0 0 80 80" fill="none" xmlns="http://www.w3.org/2000/svg">
<rect width="80" height="80" rx="20" fill="url(#paint0_linear_5708_90046)"/>
<path d="M44.875 50.3438C44.875 49.7915 45.3227 49.3438 45.875 49.3438H51.5312C52.0835 49.3438 52.5312 49.7915 52.5312 50.3438V50.5312C52.5312 51.0835 52.0835 51.5312 51.5312 51.5312H45.875C45.3227 51.5312 44.875 51.0835 44.875 50.5312V50.3438ZM47.0625 54.7188C47.0625 54.1665 47.5102 53.7188 48.0625 53.7188H49.3438C49.896 53.7188 50.3438 54.1665 50.3438 54.7188V54.9062C50.3438 55.4585 49.896 55.9062 49.3438 55.9062H48.0625C47.5102 55.9062 47.0625 55.4585 47.0625 54.9062V54.7188ZM52.768 46.1945C52.514 46.6849 52.0835 47.1562 51.5312 47.1562H51.3438C50.7915 47.1562 50.3282 46.7023 50.4536 46.1644C50.6335 45.3928 51.0344 44.7156 51.6562 44.0938L52.2031 43.5469C53.0781 42.6719 53.625 41.3594 53.625 40.0469C53.625 37.3125 51.4375 35.125 48.7031 35.125C45.9688 35.125 43.7812 37.3125 43.7812 40.0469C43.7812 41.3594 44.3281 42.5625 45.2031 43.5469L45.75 44.0938C46.3719 44.7156 46.7728 45.3928 46.9527 46.1644C47.0781 46.7023 46.6148 47.1562 46.0625 47.1562H45.875C45.3227 47.1562 44.8922 46.6849 44.6382 46.1945C44.5333 45.9919 44.3935 45.7997 44.2188 45.625L43.6719 45.0781C42.3594 43.7656 41.5938 41.9062 41.5938 40.0469C41.5938 36.1094 44.7656 32.9375 48.7031 32.9375C52.6406 32.9375 55.8125 36.1094 55.8125 40.0469C55.8125 41.9062 55.0469 43.7656 53.7344 45.0781L53.1875 45.625C53.0128 45.7997 52.873 45.9919 52.768 46.1945ZM29.5625 47.4625C29.5625 46.9102 30.0102 46.4625 30.5625 46.4625H37.3125C37.8648 46.4625 38.3125 46.9102 38.3125 47.4625V47.65C38.3125 48.2023 37.8648 48.65 37.3125 48.65H30.5625C30.0102 48.65 29.5625 48.2023 29.5625 47.65V47.4625Z" fill="white" stroke="white" stroke-width="0.4"/>
<path d="M29.5626 43.0874C29.5626 42.5351 30.0103 42.0874 30.5626 42.0874H33.8438C34.3961 42.0874 34.8438 42.5351 34.8438 43.0874V43.2749C34.8438 43.8272 34.3961 44.2749 33.8438 44.2749H30.5626C30.0103 44.2749 29.5626 43.8272 29.5626 43.2749V43.0874ZM29.5626 38.7124C29.5626 38.1601 30.0103 37.7124 30.5626 37.7124H36.2188C36.7711 37.7124 37.2188 38.1601 37.2188 38.7124V38.8999C37.2188 39.4522 36.7711 39.8999 36.2188 39.8999H30.5626C30.0103 39.8999 29.5626 39.4522 29.5626 38.8999V38.7124ZM29.5601 34.3374C29.5601 33.7851 30.0078 33.3374 30.5601 33.3374H40.5938C41.1461 33.3374 41.5938 33.7851 41.5938 34.3374V34.5249C41.5938 35.0772 41.1461 35.5249 40.5938 35.5249H30.5601C30.0078 35.5249 29.5601 35.0772 29.5601 34.5249V34.3374Z" fill="white" stroke="white" stroke-width="0.4"/>
<path d="M29.5625 29.9624C29.5625 29.4101 30.0102 28.9624 30.5625 28.9624H43.5625C44.1148 28.9624 44.5625 29.4101 44.5625 29.9624V30.1499C44.5625 30.7022 44.1148 31.1499 43.5625 31.1499H30.5625C30.0102 31.1499 29.5625 30.7022 29.5625 30.1499V29.9624Z" fill="white" stroke="white" stroke-width="0.4"/>
<path d="M42.6875 52.625H27.375V26.375H47.0625V30.75H49.25V26.375C49.25 25.1719 48.2656 24.1875 47.0625 24.1875H27.375C26.1719 24.1875 25.1875 25.1719 25.1875 26.375V52.625C25.1875 53.8281 26.1719 54.8125 27.375 54.8125H42.6875V52.625Z" fill="white" stroke="white" stroke-width="0.4"/>
<defs>
<linearGradient id="paint0_linear_5708_90046" x1="2.85714" y1="6" x2="88.7306" y2="23.8579" gradientUnits="userSpaceOnUse">
<stop stop-color="#4C1D95"/>
<stop offset="1" stop-color="#881D95"/>
</linearGradient>
</defs>
</svg>
