<svg width="80" height="80" viewBox="0 0 80 80" fill="none" xmlns="http://www.w3.org/2000/svg">
<rect width="80" height="80" rx="20" fill="url(#paint0_linear_5708_90053)"/>
<path d="M45.5417 27.9423H48.8667C49.4546 27.9423 50.0184 28.1733 50.4341 28.5844C50.8498 28.9956 51.0834 29.5532 51.0834 30.1346V52.0577C51.0834 52.6391 50.8498 53.1967 50.4341 53.6079C50.0184 54.019 49.4546 54.25 48.8667 54.25H31.1334C30.5455 54.25 29.9816 54.019 29.5659 53.6079C29.1502 53.1967 28.9167 52.6391 28.9167 52.0577V30.1346C28.9167 29.5532 29.1502 28.9956 29.5659 28.5844C29.9816 28.1733 30.5455 27.9423 31.1334 27.9423H34.4584M45.5417 27.9423C45.5417 26.7315 44.5493 25.75 43.325 25.75H36.675C35.4508 25.75 34.4584 26.7315 34.4584 27.9423M45.5417 27.9423L45.5417 29.0385C45.5417 30.2492 44.5493 31.2308 43.325 31.2308H36.675C35.4508 31.2308 34.4584 30.2492 34.4584 29.0385L34.4584 27.9423M34.4584 36.7115H45.5417M34.4584 42.1923H45.5417M34.4584 47.6731H45.5417" stroke="white" stroke-width="2.8" stroke-linecap="round" stroke-linejoin="round"/>
<defs>
<linearGradient id="paint0_linear_5708_90053" x1="2.85714" y1="6" x2="88.7306" y2="23.8579" gradientUnits="userSpaceOnUse">
<stop stop-color="#4C1D95"/>
<stop offset="1" stop-color="#881D95"/>
</linearGradient>
</defs>
</svg>
