<svg width="80" height="80" viewBox="0 0 80 80" fill="none" xmlns="http://www.w3.org/2000/svg">
<rect width="80" height="80" rx="20" fill="url(#paint0_linear_5708_90032)"/>
<path d="M39.5834 23.3301C38.0312 23.3266 36.5331 23.9004 35.3806 24.9401C34.228 25.9798 33.5033 27.411 33.3474 28.9554C33.1915 30.4997 33.6156 32.0469 34.5371 33.2959C35.4586 34.545 36.8118 35.4067 38.3334 35.7134V39.1668H32.9167C31.9222 39.1668 30.9683 39.5618 30.2651 40.2651C29.5618 40.9684 29.1667 41.9222 29.1667 42.9168V44.2934C27.653 44.6089 26.3097 45.4738 25.3959 46.7212C24.4822 47.9686 24.0627 49.5102 24.2185 51.0486C24.3742 52.587 25.0941 54.0132 26.2393 55.0522C27.3844 56.0912 28.8738 56.6693 30.4201 56.6751C31.972 56.6778 33.4694 56.1033 34.6214 55.0634C35.7733 54.0234 36.4974 52.5923 36.6528 51.0481C36.8083 49.504 36.384 47.9573 35.4625 46.7086C34.541 45.4599 33.188 44.5984 31.6667 44.2918V42.9168C31.6667 42.5852 31.7984 42.2673 32.0328 42.0329C32.2673 41.7985 32.5852 41.6668 32.9167 41.6668H46.2501C46.5816 41.6668 46.8995 41.7985 47.1339 42.0329C47.3684 42.2673 47.5001 42.5852 47.5001 42.9168V44.2934C45.9863 44.6089 44.643 45.4738 43.7293 46.7212C42.8155 47.9686 42.3961 49.5102 42.5518 51.0486C42.7075 52.587 43.4274 54.0132 44.5726 55.0522C45.7178 56.0912 47.2071 56.6693 48.7534 56.6751C50.3053 56.6778 51.8028 56.1033 52.9547 55.0634C54.1066 54.0234 54.8307 52.5923 54.9862 51.0481C55.1416 49.504 54.7173 47.9573 53.7958 46.7086C52.8743 45.4599 51.5214 44.5984 50.0001 44.2918V42.9168C50.0001 41.9222 49.605 40.9684 48.9017 40.2651C48.1984 39.5618 47.2446 39.1668 46.2501 39.1668H40.8334V35.7134C42.3486 35.3997 43.6938 34.5356 44.6092 33.288C45.5246 32.0404 45.9452 30.4979 45.7898 28.9584C45.6344 27.4188 44.914 25.9915 43.7677 24.952C42.6215 23.9126 41.1307 23.3347 39.5834 23.3301ZM35.8301 29.5834C35.8301 28.588 36.2255 27.6333 36.9294 26.9294C37.6333 26.2255 38.5879 25.8301 39.5834 25.8301C40.5788 25.8301 41.5335 26.2255 42.2374 26.9294C42.9413 27.6333 43.3367 28.588 43.3367 29.5834C43.3367 30.5789 42.9413 31.5335 42.2374 32.2374C41.5335 32.9413 40.5788 33.3368 39.5834 33.3368C38.5879 33.3368 37.6333 32.9413 36.9294 32.2374C36.2255 31.5335 35.8301 30.5789 35.8301 29.5834ZM26.6667 50.4218C26.6667 49.9288 26.7638 49.4406 26.9525 48.9851C27.1412 48.5296 27.4177 48.1158 27.7663 47.7672C28.1149 47.4186 28.5288 47.142 28.9842 46.9534C29.4397 46.7647 29.9279 46.6676 30.4209 46.6676C30.9139 46.6676 31.4021 46.7647 31.8575 46.9534C32.313 47.142 32.7269 47.4186 33.0755 47.7672C33.4241 48.1158 33.7006 48.5296 33.8893 48.9851C34.0779 49.4406 34.1751 49.9288 34.1751 50.4218C34.1751 51.4174 33.7795 52.3723 33.0755 53.0764C32.3714 53.7804 31.4166 54.1759 30.4209 54.1759C29.4252 54.1759 28.4703 53.7804 27.7663 53.0764C27.0622 52.3723 26.6667 51.4174 26.6667 50.4218ZM48.7534 46.6668C49.2464 46.6668 49.7346 46.7639 50.19 46.9525C50.6455 47.1412 51.0594 47.4177 51.408 47.7663C51.7566 48.1149 52.0331 48.5288 52.2218 48.9843C52.4104 49.4397 52.5076 49.9279 52.5076 50.4209C52.5076 50.9139 52.4104 51.4021 52.2218 51.8576C52.0331 52.3131 51.7566 52.7269 51.408 53.0755C51.0594 53.4241 50.6455 53.7007 50.19 53.8893C49.7346 54.078 49.2464 54.1751 48.7534 54.1751C47.7577 54.1751 46.8028 53.7796 46.0988 53.0755C45.3947 52.3715 44.9992 51.4166 44.9992 50.4209C44.9992 49.4253 45.3947 48.4704 46.0988 47.7663C46.8028 47.0623 47.7577 46.6668 48.7534 46.6668Z" fill="white"/>
<defs>
<linearGradient id="paint0_linear_5708_90032" x1="2.85714" y1="6" x2="88.7306" y2="23.8579" gradientUnits="userSpaceOnUse">
<stop stop-color="#4C1D95"/>
<stop offset="1" stop-color="#881D95"/>
</linearGradient>
</defs>
</svg>
