<svg width="126" height="126" viewBox="0 0 126 126" fill="none" xmlns="http://www.w3.org/2000/svg">
<path opacity="0.3" d="M68.0222 126C63.6039 126 60.0222 122.418 60.0222 118V-16C60.0222 -20.4183 63.6039 -24 68.0222 -24H81.8669C86.2851 -24 89.8669 -20.4183 89.8669 -16V118C89.8669 122.418 86.2851 126 81.8669 126H68.0222ZM8 65.8669C3.58172 65.8669 0 62.2851 0 57.8669V44.0222C0 39.6039 3.58172 36.0222 8 36.0222H142C146.418 36.0222 150 39.6039 150 44.0222V57.8669C150 62.2851 146.418 65.8669 142 65.8669H8Z" fill="url(#paint0_linear_7816_142619)"/>
<defs>
<linearGradient id="paint0_linear_7816_142619" x1="5.35714" y1="-12.75" x2="166.37" y2="20.7336" gradientUnits="userSpaceOnUse">
<stop stop-color="#4C1D95"/>
<stop offset="1" stop-color="#881D95"/>
</linearGradient>
</defs>
</svg>
