<svg width="20" height="20" viewBox="0 0 20 20" fill="none" xmlns="http://www.w3.org/2000/svg">
<path d="M10 0C4.47719 0 0 4.47719 0 10C0 15.5231 4.47719 20 10 20C15.5231 20 20.0003 15.5231 20.0003 10C20.0003 4.47719 15.5231 0 10 0ZM10 18.7697C5.17531 18.7697 1.25 14.8247 1.25 9.99996C1.25 5.17527 5.17531 1.24996 10 1.24996C14.8247 1.24996 18.7503 5.17529 18.7503 9.99996C18.7503 14.8246 14.8247 18.7697 10 18.7697ZM9.08094 15.6344H10.6534V14.0475H9.08094V15.6344ZM9.98156 4.36592C9.06594 4.36592 8.31158 4.61279 7.71908 5.10594C7.12658 5.59936 6.83846 6.58748 6.85314 7.40623L6.87627 7.45186H8.31064C8.31064 6.96342 8.47346 6.26154 8.79908 6.00967C9.12439 5.75811 9.51877 5.63217 9.98189 5.63217C10.5156 5.63217 10.926 5.77717 11.2138 6.06715C11.5013 6.35715 11.6447 6.77184 11.6447 7.31059C11.6447 7.7634 11.5385 8.14996 11.325 8.47027C11.111 8.79059 10.7522 9.24842 10.2491 9.84375C9.73002 10.3119 9.40939 10.6881 9.28752 10.9728C9.16533 11.2578 9.10189 11.769 9.09721 12.5062H10.6003C10.6003 12.0437 10.6297 11.7028 10.6881 11.484C10.7462 11.2656 10.9128 11.0188 11.1875 10.744C11.7778 10.1747 12.2519 9.61779 12.611 9.07313C12.9691 8.52904 13.1485 7.92873 13.1485 7.27248C13.1485 6.35686 12.8716 5.64342 12.3169 5.13248C11.7619 4.62123 10.9834 4.36592 9.98156 4.36592Z" fill="#C800C8"/>
</svg>
