<svg width="80" height="80" viewBox="0 0 80 80" fill="none" xmlns="http://www.w3.org/2000/svg">
<rect width="80" height="80" rx="20" fill="url(#paint0_linear_5708_90060)"/>
<g clip-path="url(#clip0_5708_90060)">
<path d="M31.0714 39.4999V33.3006C31.0899 32.0821 31.3485 30.8791 31.8327 29.7607C32.3168 28.6423 33.0168 27.6304 33.8927 26.7829C34.7686 25.9355 35.8031 25.2693 36.9369 24.8224C38.0707 24.3754 39.2815 24.1566 40.5 24.1785C41.7185 24.1566 42.9294 24.3754 44.0632 24.8224C45.197 25.2693 46.2315 25.9355 47.1073 26.7829C47.9832 27.6304 48.6833 28.6423 49.1674 29.7607C49.6515 30.8791 49.9102 32.0821 49.9286 33.3006V39.4999M45.2143 51.8749C46.4646 51.8749 47.6637 51.3782 48.5478 50.4941C49.4319 49.61 49.9286 48.4109 49.9286 47.1606V41.8571M45.2143 51.8749C45.2143 52.6564 44.9039 53.4058 44.3513 53.9584C43.7988 54.5109 43.0493 54.8213 42.2679 54.8213H38.7322C37.9507 54.8213 37.2013 54.5109 36.6487 53.9584C36.0962 53.4058 35.7857 52.6564 35.7857 51.8749C35.7857 51.0935 36.0962 50.344 36.6487 49.7915C37.2013 49.2389 37.9507 48.9285 38.7322 48.9285H42.2679C43.0493 48.9285 43.7988 49.2389 44.3513 49.7915C44.9039 50.344 45.2143 51.0935 45.2143 51.8749ZM27.5357 35.9642H29.8929C30.2055 35.9642 30.5052 36.0884 30.7262 36.3094C30.9473 36.5304 31.0714 36.8302 31.0714 37.1428V44.2142C31.0714 44.5268 30.9473 44.8266 30.7262 45.0476C30.5052 45.2686 30.2055 45.3928 29.8929 45.3928H27.5357C26.9106 45.3928 26.311 45.1444 25.869 44.7024C25.4269 44.2603 25.1786 43.6608 25.1786 43.0356V38.3213C25.1786 37.6962 25.4269 37.0966 25.869 36.6546C26.311 36.2125 26.9106 35.9642 27.5357 35.9642ZM53.4643 45.3928H51.1072C50.7946 45.3928 50.4948 45.2686 50.2738 45.0476C50.0528 44.8266 49.9286 44.5268 49.9286 44.2142V37.1428C49.9286 36.8302 50.0528 36.5304 50.2738 36.3094C50.4948 36.0884 50.7946 35.9642 51.1072 35.9642H53.4643C54.0895 35.9642 54.689 36.2125 55.1311 36.6546C55.5731 37.0966 55.8214 37.6962 55.8214 38.3213V43.0356C55.8214 43.6608 55.5731 44.2603 55.1311 44.7024C54.689 45.1444 54.0895 45.3928 53.4643 45.3928Z" stroke="white" stroke-width="2.8" stroke-linecap="round" stroke-linejoin="round"/>
</g>
<defs>
<linearGradient id="paint0_linear_5708_90060" x1="2.85714" y1="6" x2="88.7306" y2="23.8579" gradientUnits="userSpaceOnUse">
<stop stop-color="#4C1D95"/>
<stop offset="1" stop-color="#881D95"/>
</linearGradient>
<clipPath id="clip0_5708_90060">
<rect width="33" height="33" fill="white" transform="translate(24 23)"/>
</clipPath>
</defs>
</svg>
