<svg width="160" height="160" viewBox="0 0 160 160" fill="none" xmlns="http://www.w3.org/2000/svg">
<g filter="url(#filter0_b_1454_1206)">
<rect width="160" height="160" rx="10" fill="#260F4A"/>
<path d="M53.333 112V106.667C53.333 99.5942 56.1425 92.8115 61.1435 87.8105C66.1445 82.8095 72.9272 80 79.9997 80M79.9997 80C87.0721 80 93.8549 82.8095 98.8558 87.8105C103.857 92.8115 106.666 99.5942 106.666 106.667V112M79.9997 80C84.2431 80 88.3128 78.3143 91.3134 75.3137C94.314 72.3131 95.9997 68.2435 95.9997 64C95.9997 59.7565 94.314 55.6869 91.3134 52.6863C88.3128 49.6857 84.2431 48 79.9997 48C75.7562 48 71.6865 49.6857 68.686 52.6863C65.6854 55.6869 63.9997 59.7565 63.9997 64C63.9997 68.2435 65.6854 72.3131 68.686 75.3137C71.6865 78.3143 75.7562 80 79.9997 80ZM21.333 112V106.667C21.333 102.423 23.0187 98.3535 26.0193 95.353C29.0199 92.3524 33.0895 90.6667 37.333 90.6667M37.333 90.6667C40.162 90.6667 42.8751 89.5429 44.8755 87.5425C46.8759 85.5421 47.9997 82.829 47.9997 80C47.9997 77.171 46.8759 74.4579 44.8755 72.4575C42.8751 70.4571 40.162 69.3333 37.333 69.3333C34.504 69.3333 31.7909 70.4571 29.7905 72.4575C27.7901 74.4579 26.6663 77.171 26.6663 80C26.6663 82.829 27.7901 85.5421 29.7905 87.5425C31.7909 89.5429 34.504 90.6667 37.333 90.6667ZM138.666 112V106.667C138.666 102.423 136.981 98.3535 133.98 95.353C130.979 92.3524 126.91 90.6667 122.666 90.6667M122.666 90.6667C125.495 90.6667 128.208 89.5429 130.209 87.5425C132.209 85.5421 133.333 82.829 133.333 80C133.333 77.171 132.209 74.4579 130.209 72.4575C128.208 70.4571 125.495 69.3333 122.666 69.3333C119.837 69.3333 117.124 70.4571 115.124 72.4575C113.123 74.4579 112 77.171 112 80C112 82.829 113.123 85.5421 115.124 87.5425C117.124 89.5429 119.837 90.6667 122.666 90.6667Z" stroke="url(#paint0_linear_1454_1206)" stroke-width="8" stroke-linecap="round" stroke-linejoin="round"/>
</g>
<defs>
<filter id="filter0_b_1454_1206" x="-20" y="-20" width="200" height="200" filterUnits="userSpaceOnUse" color-interpolation-filters="sRGB">
<feFlood flood-opacity="0" result="BackgroundImageFix"/>
<feGaussianBlur in="BackgroundImageFix" stdDeviation="10"/>
<feComposite in2="SourceAlpha" operator="in" result="effect1_backgroundBlur_1454_1206"/>
<feBlend mode="normal" in="SourceGraphic" in2="effect1_backgroundBlur_1454_1206" result="shape"/>
</filter>
<linearGradient id="paint0_linear_1454_1206" x1="21.333" y1="48" x2="75.1419" y2="146.65" gradientUnits="userSpaceOnUse">
<stop stop-color="#C800C8"/>
<stop offset="1" stop-color="#9600FF"/>
<stop offset="1" stop-color="#9600FF"/>
</linearGradient>
</defs>
</svg>
