<svg width="100" height="100" viewBox="0 0 100 100" fill="none" xmlns="http://www.w3.org/2000/svg">
<circle cx="50" cy="50" r="50" fill="#260E4B"/>
<path d="M25.333 68.6678V68.6654V39.332C25.333 38.4005 25.6416 37.6519 26.3152 36.9782C26.9888 36.3047 27.7358 35.9976 28.6639 35.9987H28.6663H39.333H41.333V33.9987V28.6654C41.333 27.7339 41.6416 26.9852 42.3152 26.3116C42.9888 25.638 43.7358 25.3309 44.6639 25.332H44.6663H55.333C56.2645 25.332 57.0132 25.6406 57.6868 26.3142C58.3603 26.9878 58.6675 27.7348 58.6663 28.6629V28.6654V33.9987V35.9987H60.6663H71.333C72.2645 35.9987 73.0132 36.3073 73.6868 36.9809L75.101 35.5667L73.6868 36.9809C74.3603 37.6545 74.6675 38.4014 74.6663 39.3296V39.332V68.6654C74.6663 69.5969 74.3577 70.3455 73.6841 71.0192C73.0106 71.6927 72.2636 71.9998 71.3354 71.9987H71.333H28.6663C27.7348 71.9987 26.9862 71.6901 26.3126 71.0165C25.639 70.3429 25.3319 69.596 25.333 68.6678ZM23.333 68.6654V39.332C23.333 37.8654 23.8557 36.6094 24.901 35.564C25.9463 34.5187 27.2015 33.9969 28.6663 33.9987L23.333 68.6654ZM42.6663 33.9987V35.9987H44.6663H55.333H57.333V33.9987V28.6654V26.6654H55.333H44.6663H42.6663V28.6654V33.9987ZM73.333 57.9987V55.9987H71.333H57.9997H55.9997V57.9987V61.332H43.9997V57.9987V55.9987H41.9997H28.6663H26.6663V57.9987V68.6654V70.6654H28.6663H71.333H73.333V68.6654V57.9987ZM45.333 57.9987V59.9987H47.333H52.6663H54.6663V57.9987V52.6654V50.6654H52.6663H47.333H45.333V52.6654V57.9987ZM26.6663 52.6654V54.6654H28.6663H41.9997H43.9997V52.6654V49.332H55.9997V52.6654V54.6654H57.9997H71.333H73.333V52.6654V39.332V37.332H71.333H28.6663H26.6663V39.332V52.6654Z" stroke="url(#paint0_linear_1244_10123)" stroke-width="4"/>
<defs>
<linearGradient id="paint0_linear_1244_10123" x1="23.333" y1="23.332" x2="73.9331" y2="76.5953" gradientUnits="userSpaceOnUse">
<stop stop-color="#C800C8"/>
<stop offset="1" stop-color="#9600FF"/>
<stop offset="1" stop-color="#9600FF"/>
</linearGradient>
</defs>
</svg>
