<svg width="80" height="80" viewBox="0 0 80 80" fill="none" xmlns="http://www.w3.org/2000/svg">
<rect width="80" height="80" rx="20" fill="url(#paint0_linear_4287_62056)"/>
<path fill-rule="evenodd" clip-rule="evenodd" d="M36.9231 22C36.1231 22 35.2923 22.2661 34.7077 22.8278C34.1231 23.3896 33.8462 24.1878 33.8462 24.9565V26.4348H23C21.3431 26.4348 20 27.7779 20 29.4348V53C20 54.6569 21.3431 56 23 56H56.9328L56.9311 53.0435H23.0769V43.3461C23.9846 43.8487 25.0308 44.1739 26.1538 44.1739L56.9231 44.0021V41.7516L26.1538 41.2174C24.3231 41.2174 23.0769 40.02 23.0769 38.2609V29.3913H56.9231V38.2609C56.9231 38.4974 56.9328 56 56.9328 56H57C58.6569 56 60 54.6569 60 53V29.4348C60 27.7779 58.6569 26.4348 57 26.4348H46.1538V24.9565C46.1538 24.1878 45.8769 23.3896 45.2923 22.8278C44.7077 22.2661 43.8769 22 43.0769 22H36.9231ZM36.9231 24.9565H43.0769V26.4348H36.9231V24.9565ZM29.2308 35.3043V39.7391H32.3077V35.3043H29.2308ZM47.6923 35.3043V38.9409C48.6941 38.64 49.725 38.437 50.7692 38.3348V35.3043H47.6923Z" fill="white"/>
<defs>
<linearGradient id="paint0_linear_4287_62056" x1="2.85714" y1="6" x2="88.7306" y2="23.8579" gradientUnits="userSpaceOnUse">
<stop stop-color="#4C1D95"/>
<stop offset="1" stop-color="#881D95"/>
</linearGradient>
</defs>
</svg>
