<svg width="101" height="100" viewBox="0 0 101 100" fill="none" xmlns="http://www.w3.org/2000/svg">
<circle cx="50.5" cy="50" r="50" fill="#260E4B"/>
<path d="M63.5001 48.0022C63.5021 45.5176 62.79 43.0847 61.4486 40.9933L60.6086 39.6838L59.1326 40.1757L50.8151 42.9482L50.8101 42.9499C50.609 43.0176 50.3912 43.0176 50.1901 42.9499L50.1851 42.9482L41.8676 40.1757L40.3901 39.6832L39.5506 40.995C38.4621 42.6957 37.7848 44.6267 37.5723 46.6347C37.3598 48.6427 37.618 50.6726 38.3264 52.5635C39.0348 54.4544 40.174 56.1543 41.6536 57.5284C43.1332 58.9025 44.9125 59.913 46.8505 60.4799C48.7886 61.0467 50.832 61.1544 52.8189 60.7942C54.8057 60.434 56.6814 59.616 58.2971 58.4049C59.9128 57.1939 61.2242 55.6231 62.1274 53.817C63.0302 52.0116 63.5002 50.0208 63.5001 48.0022ZM63.5001 48.0022L61.5001 48.0006L63.5001 48.0002C63.5001 48.0009 63.5001 48.0016 63.5001 48.0022ZM74.8152 33.053L74.9227 33.0888C75.0754 33.1609 75.208 33.2708 75.3073 33.4088C75.4299 33.579 75.4958 33.7834 75.4958 33.9931C75.4958 34.2028 75.4299 34.4072 75.3073 34.5774C75.185 34.7473 75.0123 34.8746 74.8138 34.9412C74.8135 34.9413 74.8133 34.9414 74.8131 34.9414L64.94 38.2333L62.7128 38.9759L63.7999 41.0567C65.4229 44.1632 65.9051 47.7404 65.1628 51.1658C64.4206 54.5911 62.5007 57.6478 59.7373 59.8038L57.2227 61.7656L60.084 63.1748C63.8612 65.0351 67.058 67.8929 69.3282 71.439L69.3405 71.4582L69.3532 71.4771C69.4272 71.587 69.4786 71.7106 69.5044 71.8406L71.4661 71.4511L69.5044 71.8406C69.5302 71.9706 69.5299 72.1044 69.5036 72.2342L71.4636 72.6322L69.5036 72.2343C69.4772 72.3641 69.4253 72.4875 69.3508 72.5971L71.0053 73.7207L69.3508 72.5971C69.2764 72.7068 69.1809 72.8005 69.0699 72.8729L70.1625 74.5481L69.0698 72.8729C68.9589 72.9453 68.8346 72.9949 68.7042 73.0188C68.5739 73.0428 68.4401 73.0406 68.3106 73.0124C68.1811 72.9841 68.0585 72.9305 67.95 72.8545C67.8414 72.7784 67.749 72.6816 67.6782 72.5696L67.6706 72.5576L67.6629 72.5457C63.7338 66.5203 57.462 63.0006 50.5001 63.0006C43.5387 63.0006 37.2654 66.52 33.3481 72.5483L33.3412 72.5589L33.3345 72.5696C33.2637 72.6816 33.1713 72.7784 33.0627 72.8544C32.9542 72.9305 32.8316 72.9841 32.7021 73.0124C32.5726 73.0406 32.4388 73.0428 32.3085 73.0188C32.1781 72.9949 32.0538 72.9453 31.9429 72.8729L30.8502 74.5481L31.9428 72.8729C31.8318 72.8005 31.7363 72.7068 31.6619 72.5971C31.5874 72.4875 31.5355 72.3641 31.5091 72.2343C31.4828 72.1044 31.4825 71.9706 31.5083 71.8406C31.5341 71.7106 31.5855 71.587 31.6595 71.4771L31.6721 71.4582L31.6844 71.4391C33.9525 67.8972 37.145 65.042 40.9171 63.1819L43.7761 61.7721L41.2629 59.8113C38.4995 57.6553 36.5797 54.5986 35.8374 51.1733C35.0951 47.7479 35.5773 44.1707 37.2003 41.0642L38.2876 38.9829L36.0598 38.2407L30.1323 36.2657L27.5001 35.3886V38.1631V54.0006C27.5001 54.2658 27.3947 54.5202 27.2072 54.7077L28.6055 56.106L27.2072 54.7077C27.0197 54.8952 26.7653 55.0006 26.5001 55.0006C26.2349 55.0006 25.9805 54.8952 25.793 54.7077L24.3788 56.1219L25.793 54.7077C25.6055 54.5202 25.5001 54.2658 25.5001 54.0006V34.0006V33.9485L25.4989 33.9252C25.514 33.7333 25.5841 33.5497 25.7011 33.3965C25.8231 33.2367 25.9905 33.1174 26.1814 33.0542L26.1851 33.053L50.1851 25.053L50.1923 25.0506C50.392 24.9831 50.6082 24.9831 50.8079 25.0506L50.8079 25.0506L50.8151 25.053L74.8152 33.053ZM51.1334 27.2585L50.4998 27.047L49.8663 27.2587L35.3663 32.1037L29.6849 34.0021L35.3672 35.8978L49.8672 40.7353L50.4998 40.9464L51.1326 40.7355L65.6451 35.898L71.3328 34.0021L65.6459 32.1035L51.1334 27.2585Z" stroke="url(#paint0_linear_1244_10139)" stroke-width="4"/>
<defs>
<linearGradient id="paint0_linear_1244_10139" x1="23.498" y1="23" x2="75.4977" y2="76.9608" gradientUnits="userSpaceOnUse">
<stop stop-color="#C800C8"/>
<stop offset="1" stop-color="#9600FF"/>
<stop offset="1" stop-color="#9600FF"/>
</linearGradient>
</defs>
</svg>
