<svg width="80" height="80" viewBox="0 0 80 80" fill="none" xmlns="http://www.w3.org/2000/svg">
<rect width="80" height="80" rx="20" fill="url(#paint0_linear_4287_62070)"/>
<path d="M24.4545 55.5714C24.4545 55.0191 24.9023 54.5714 25.4545 54.5714H54.5455C55.0977 54.5714 55.5455 55.0191 55.5455 55.5714V57C55.5455 57.5523 55.0977 58 54.5455 58H25.4545C24.9023 58 24.4545 57.5523 24.4545 57V55.5714ZM55.6164 51.9337C55.5764 52.4548 55.1419 52.8571 54.6193 52.8571H25.3807C24.8581 52.8571 24.4236 52.4548 24.3836 51.9337L22.9812 33.6743C22.4218 33.4125 21.9434 33.0064 21.5961 32.4985C21.2488 31.9906 21.0453 31.3995 21.0067 30.7869C20.9682 30.1742 21.0961 29.5626 21.377 29.0157C21.658 28.4689 22.0817 28.0069 22.6039 27.6781C23.1262 27.3493 23.7278 27.1656 24.346 27.1463C24.9641 27.127 25.5762 27.2728 26.1182 27.5684C26.6603 27.864 27.1124 28.2986 27.4274 28.8269C27.7424 29.3551 27.9088 29.9576 27.9091 30.5714C27.9089 30.7437 27.895 30.9156 27.8676 31.0857L32.5952 34.8383L37.0205 27.148C36.708 26.6282 36.5439 26.0338 36.5455 25.4286C36.5455 24.5193 36.9094 23.6472 37.5573 23.0042C38.2051 22.3612 39.0838 22 40 22C40.9162 22 41.7949 22.3612 42.4427 23.0042C43.0906 23.6472 43.4545 24.5193 43.4545 25.4286C43.4561 26.0346 43.2913 26.6296 42.9778 27.1497L47.3962 34.8383L52.1306 31.084C52.1038 30.9144 52.0906 30.7431 52.0909 30.5714C52.0912 29.9576 52.2576 29.3551 52.5726 28.8269C52.8876 28.2986 53.3397 27.864 53.8818 27.5684C54.4238 27.2728 55.0359 27.127 55.654 27.1463C56.2722 27.1656 56.8738 27.3493 57.3961 27.6781C57.9183 28.0069 58.342 28.4689 58.623 29.0157C58.9039 29.5626 59.0318 30.1742 58.9933 30.7869C58.9547 31.3995 58.7512 31.9906 58.4039 32.4985C58.0566 33.0064 57.5782 33.4125 57.0188 33.6743L55.6164 51.9337ZM27.7709 49.4286H52.2291L53.49 34.3943L47.3076 39.2973C46.8286 39.6772 46.1239 39.5421 45.8192 39.0121L40 28.8863L34.171 39.0126C33.8661 39.5424 33.1613 39.677 32.6825 39.2969L26.51 34.396L27.7709 49.4286Z" fill="white"/>
<defs>
<linearGradient id="paint0_linear_4287_62070" x1="2.85714" y1="6" x2="88.7306" y2="23.8579" gradientUnits="userSpaceOnUse">
<stop stop-color="#4C1D95"/>
<stop offset="1" stop-color="#881D95"/>
</linearGradient>
</defs>
</svg>
