<svg width="80" height="80" viewBox="0 0 80 80" fill="none" xmlns="http://www.w3.org/2000/svg">
<rect width="80" height="80" rx="20" fill="url(#paint0_linear_4287_62049)"/>
<path d="M23.2 47.3256H22.15C21.3146 47.3256 20.5134 47.6564 19.9226 48.2451C19.3319 48.8339 19 49.6325 19 50.4651C19 51.2978 19.3319 53.4917 19.9226 54.0804C20.5134 54.6692 21.3146 55 22.15 55H57.85C58.6854 55 59.4866 54.6692 60.0774 54.0804C60.6681 53.4917 61 51.2978 61 50.4651C61 49.6325 60.6681 48.8339 60.0774 48.2451C59.4866 47.6564 58.6854 47.3256 57.85 47.3256H56.8M23.2 47.3256H56.8M23.2 47.3256V30.3023C23.2 27.9581 23.2 28.1814 23.6578 27.2856C24.061 26.4965 24.7015 25.8581 25.4932 25.4563C26.392 25 27.568 25 29.92 25H50.08C52.432 25 53.608 25 54.5047 25.4563C55.2964 25.8581 55.939 26.4965 56.3422 27.2856C56.8 28.1793 56.8 27.956 56.8 30.296V47.3256" stroke="white" stroke-width="3.2" stroke-linecap="round" stroke-linejoin="round"/>
<defs>
<linearGradient id="paint0_linear_4287_62049" x1="2.85714" y1="6" x2="88.7306" y2="23.8579" gradientUnits="userSpaceOnUse">
<stop stop-color="#4C1D95"/>
<stop offset="1" stop-color="#881D95"/>
</linearGradient>
</defs>
</svg>
