<svg width="160" height="160" viewBox="0 0 160 160" fill="none" xmlns="http://www.w3.org/2000/svg">
<g filter="url(#filter0_b_1454_307)">
<rect width="160" height="160" rx="10" fill="#260F4A"/>
<path d="M42.6663 62.0001C42.665 62.0001 42.6636 62.0001 42.6623 62.0001C41.9368 62.0026 40.9312 62.1441 39.8366 62.5991C38.7364 63.0565 37.9487 63.6633 37.4744 64.1362C37.4726 64.138 37.4709 64.1397 37.4691 64.1415C36.9953 64.6153 36.3879 65.4027 35.9305 66.5019C35.7434 66.9515 35.6095 67.3858 35.5165 67.7913C37.234 67.5671 38.9612 67.4272 40.6949 67.3673C40.6983 67.3672 40.7018 67.3671 40.7052 67.367C40.7749 67.3646 40.8446 67.3623 40.9143 67.3602L42.658 65.575L42.6663 65.5664L42.6839 65.5485L45.5463 62.6179L42.6773 62.0001M42.6663 62.0001C42.67 62.0001 42.6736 62.0001 42.6773 62.0001M42.6663 62.0001C42.67 62.0001 42.6736 62.0001 42.6773 62.0001M42.6663 62.0001L42.6773 62.0001L42.6882 62.0001M42.6773 62.0001C42.6809 62.0001 42.6846 62.0001 42.6882 62.0001M42.6773 62.0001C42.6809 62.0001 42.6845 62.0001 42.6882 62.0001M42.6773 62.0001L42.6882 62.0001M124.067 66.5037C124.254 66.952 124.387 67.3854 124.481 67.7907C122.764 67.5667 121.037 67.4271 119.304 67.3673C119.301 67.3672 119.298 67.367 119.294 67.3669C118.646 67.3447 117.998 67.3336 117.348 67.3334C117.343 67.3334 117.338 67.3334 117.333 67.3334C117.33 67.3334 117.326 67.3334 117.322 67.3334C116.671 67.3336 116.021 67.3446 115.372 67.3669C115.368 67.367 115.365 67.3671 115.361 67.3672C113.628 67.4269 111.901 67.5664 110.183 67.7903C110.276 67.3851 110.41 66.9512 110.597 66.5019C111.055 65.4027 111.662 64.6153 112.136 64.1415C112.138 64.1397 112.139 64.138 112.141 64.1362C112.615 63.6633 113.403 63.0565 114.503 62.5991C115.598 62.1441 116.604 62.0026 117.329 62.0001C117.33 62.0001 117.332 62.0001 117.333 62.0001C117.337 62.0001 117.34 62.0001 117.344 62.0001C117.348 62.0001 117.351 62.0001 117.355 62.0001C118.073 62.0029 119.074 62.1436 120.165 62.5976C121.264 63.055 122.051 63.6624 122.525 64.1362C122.527 64.1379 122.528 64.1397 122.53 64.1415C123.003 64.6158 123.61 65.4035 124.067 66.5037Z" stroke="url(#paint0_linear_1454_307)" stroke-width="36"/>
</g>
<defs>
<filter id="filter0_b_1454_307" x="-20" y="-20" width="200" height="200" filterUnits="userSpaceOnUse" color-interpolation-filters="sRGB">
<feFlood flood-opacity="0" result="BackgroundImageFix"/>
<feGaussianBlur in="BackgroundImageFix" stdDeviation="10"/>
<feComposite in2="SourceAlpha" operator="in" result="effect1_backgroundBlur_1454_307"/>
<feBlend mode="normal" in="SourceGraphic" in2="effect1_backgroundBlur_1454_307" result="shape"/>
</filter>
<linearGradient id="paint0_linear_1454_307" x1="21.333" y1="51.6001" x2="57.0724" y2="135.918" gradientUnits="userSpaceOnUse">
<stop stop-color="#C800C8"/>
<stop offset="1" stop-color="#9600FF"/>
<stop offset="1" stop-color="#9600FF"/>
</linearGradient>
</defs>
</svg>
