<svg width="80" height="80" viewBox="0 0 80 80" fill="none" xmlns="http://www.w3.org/2000/svg">
<rect width="80" height="80" rx="20" fill="url(#paint0_linear_4287_62077)"/>
<path d="M26.176 36.8563L53.776 23.9923M53.776 23.9923L48.616 22M53.776 23.9923L51.856 29.2806M55 54H49V36.7825C49 36.4563 49.1264 36.1435 49.3515 35.9129C49.5765 35.6822 49.8817 35.5527 50.2 35.5527H53.8C54.1183 35.5527 54.4235 35.6822 54.6485 35.9129C54.8736 36.1435 55 36.4563 55 36.7825V54ZM43 54H37V40.4719C37 40.1458 37.1264 39.833 37.3515 39.6023C37.5765 39.3717 37.8817 39.2421 38.2 39.2421H41.8C42.1183 39.2421 42.4235 39.3717 42.6485 39.6023C42.8736 39.833 43 40.1458 43 40.4719V54ZM31 54H25V44.1614C25 43.8352 25.1264 43.5224 25.3515 43.2918C25.5765 43.0612 25.8817 42.9316 26.2 42.9316H29.8C30.1183 42.9316 30.4235 43.0612 30.6485 43.2918C30.8736 43.5224 31 43.8352 31 44.1614V54Z" stroke="white" stroke-width="3.2" stroke-linecap="round" stroke-linejoin="round"/>
<defs>
<linearGradient id="paint0_linear_4287_62077" x1="2.85714" y1="6" x2="88.7306" y2="23.8579" gradientUnits="userSpaceOnUse">
<stop stop-color="#4C1D95"/>
<stop offset="1" stop-color="#881D95"/>
</linearGradient>
</defs>
</svg>
