<svg width="80" height="80" viewBox="0 0 80 80" fill="none" xmlns="http://www.w3.org/2000/svg">
<rect width="80" height="80" rx="20" fill="url(#paint0_linear_4287_62063)"/>
<path d="M23 39H24.7778M39 23V24.7778M53.2222 39H55M27.6222 27.6222L28.8667 28.8667M50.3778 27.6222L49.1333 28.8667M34.9111 47.8889H43.0889M33.6667 46.1111C32.1742 44.9917 31.0717 43.4311 30.5154 41.6504C29.9592 39.8696 29.9773 37.959 30.5673 36.1891C31.1572 34.4192 32.2891 32.8798 33.8026 31.789C35.316 30.6981 37.1344 30.1111 39 30.1111C40.8656 30.1111 42.684 30.6981 44.1974 31.789C45.7109 32.8798 46.8428 34.4192 47.4327 36.1891C48.0227 37.959 48.0408 39.8696 47.4846 41.6504C46.9283 43.4311 45.8258 44.9917 44.3333 46.1111C43.6392 46.7982 43.1166 47.639 42.8078 48.5656C42.4989 49.4921 42.4125 50.4783 42.5556 51.4444C42.5556 52.3874 42.181 53.2918 41.5142 53.9586C40.8474 54.6254 39.943 55 39 55C38.057 55 37.1526 54.6254 36.4858 53.9586C35.819 53.2918 35.4444 52.3874 35.4444 51.4444C35.5875 50.4783 35.5011 49.4921 35.1922 48.5656C34.8834 47.639 34.3608 46.7982 33.6667 46.1111Z" stroke="white" stroke-width="3.2" stroke-linecap="round" stroke-linejoin="round"/>
<defs>
<linearGradient id="paint0_linear_4287_62063" x1="2.85714" y1="6" x2="88.7306" y2="23.8579" gradientUnits="userSpaceOnUse">
<stop stop-color="#4C1D95"/>
<stop offset="1" stop-color="#881D95"/>
</linearGradient>
</defs>
</svg>
