<svg width="101" height="100" viewBox="0 0 101 100" fill="none" xmlns="http://www.w3.org/2000/svg">
<circle cx="50.5" cy="50" r="50" fill="#260E4B"/>
<path d="M26.5 50H29.1667M50.5 26V28.6667M71.8333 50H74.5M33.4333 32.9333L35.3 34.8M67.5667 32.9333L65.7 34.8M44.3667 63.3333H56.6333M42.5 60.6667C40.2613 58.9876 38.6076 56.6467 37.7732 53.9756C36.9388 51.3044 36.9659 48.4385 37.8509 45.7836C38.7358 43.1288 40.4337 40.8197 42.7039 39.1834C44.9741 37.5472 47.7016 36.6667 50.5 36.6667C53.2984 36.6667 56.0259 37.5472 58.2961 39.1834C60.5663 40.8197 62.2642 43.1288 63.1491 45.7836C64.0341 48.4385 64.0613 51.3044 63.2268 53.9756C62.3924 56.6467 60.7387 58.9876 58.5 60.6667C57.4588 61.6973 56.6749 62.9585 56.2117 64.3483C55.7484 65.7381 55.6188 67.2175 55.8333 68.6667C55.8333 70.0812 55.2714 71.4377 54.2712 72.4379C53.271 73.4381 51.9145 74 50.5 74C49.0855 74 47.729 73.4381 46.7288 72.4379C45.7286 71.4377 45.1667 70.0812 45.1667 68.6667C45.3812 67.2175 45.2516 65.7381 44.7883 64.3483C44.3251 62.9585 43.5412 61.6973 42.5 60.6667Z" stroke="url(#paint0_linear_1244_10131)" stroke-width="4" stroke-linecap="round" stroke-linejoin="round"/>
<defs>
<linearGradient id="paint0_linear_1244_10131" x1="26.5" y1="26" x2="74.5" y2="74" gradientUnits="userSpaceOnUse">
<stop stop-color="#C800C8"/>
<stop offset="1" stop-color="#9600FF"/>
<stop offset="1" stop-color="#9600FF"/>
</linearGradient>
</defs>
</svg>
