<svg width="24" height="24" viewBox="0 0 24 24" fill="none" xmlns="http://www.w3.org/2000/svg">
<path d="M12.9487 7.84605C12.6448 6.93435 11.3552 6.93435 11.0513 7.84605L10.4779 9.56623C10.3418 9.97457 9.95967 10.25 9.52924 10.25H7.85078C6.9055 10.25 6.48795 11.4404 7.22609 12.0309L8.83051 13.3144C9.15766 13.5761 9.28699 14.014 9.1545 14.4115L8.69582 15.7875C8.38069 16.7329 9.49105 17.5072 10.2692 16.8846L11.3753 15.9998C11.7405 15.7076 12.2595 15.7076 12.6247 15.9998L13.7308 16.8846C14.5089 17.5072 15.6193 16.7329 15.3042 15.7875L14.8455 14.4115C14.713 14.014 14.8423 13.5761 15.1695 13.3144L16.7739 12.0309C17.5121 11.4404 17.0945 10.25 16.1492 10.25H14.4708C14.0403 10.25 13.6582 9.97457 13.5221 9.56623L12.9487 7.84605Z" fill="white"/>
</svg>
