<svg width="20" height="14" viewBox="0 0 20 14" fill="none" xmlns="http://www.w3.org/2000/svg">
<path d="M18.6426 5.995C18.8727 6.27063 19 6.62872 19 7C19 7.37128 18.8727 7.72937 18.6426 8.005C17.186 9.7 13.8704 13 10 13C6.12956 13 2.81403 9.7 1.35741 8.005C1.12735 7.72937 1 7.37128 1 7C1 6.62872 1.12735 6.27063 1.35741 5.995C2.81403 4.3 6.12956 1 10 1C13.8704 1 17.186 4.3 18.6426 5.995Z" stroke="#696969" stroke-width="1.6" stroke-linecap="round" stroke-linejoin="round"/>
<path d="M10 10C11.5323 10 12.7745 8.65685 12.7745 7C12.7745 5.34315 11.5323 4 10 4C8.46768 4 7.22549 5.34315 7.22549 7C7.22549 8.65685 8.46768 10 10 10Z" stroke="#696969" stroke-width="1.6" stroke-linecap="round" stroke-linejoin="round"/>
</svg>
