<svg width="24" height="24" viewBox="0 0 24 24" fill="none" xmlns="http://www.w3.org/2000/svg">
<path d="M19.7143 8.57171C19.7143 12.8403 12 23.1431 12 23.1431C12 23.1431 4.28571 12.8403 4.28571 8.57171C4.28571 6.52575 5.09846 4.56359 6.54517 3.11688C7.99188 1.67017 9.95404 0.857422 12 0.857422C14.0459 0.857422 16.0081 1.67017 17.4548 3.11688C18.9015 4.56359 19.7143 6.52575 19.7143 8.57171Z" stroke="#4B1873" stroke-width="1.71429" stroke-linecap="round" stroke-linejoin="round"/>
<path d="M12 11.1431C13.4202 11.1431 14.5714 9.99187 14.5714 8.57171C14.5714 7.15155 13.4202 6.00028 12 6.00028C10.5798 6.00028 9.42856 7.15155 9.42856 8.57171C9.42856 9.99187 10.5798 11.1431 12 11.1431Z" stroke="#4B1873" stroke-width="1.71429" stroke-linecap="round" stroke-linejoin="round"/>
</svg>
