<svg width="408" height="366" viewBox="0 0 408 366" fill="none" xmlns="http://www.w3.org/2000/svg">
<path d="M59.7503 329.193C139.413 378.269 268.578 378.269 348.25 329.193C427.921 280.118 427.912 200.487 348.25 151.453C268.587 102.419 139.413 102.377 59.7503 151.453C-19.9123 200.529 -19.9212 280.086 59.7503 329.193Z" fill="url(#paint0_linear_3992_60676)"/>
<path d="M127.487 295.385L200.717 345.245C201.494 345.709 202.352 345.951 203.223 345.951C204.094 345.951 204.953 345.709 205.73 345.245L345.925 250.024C347.309 249.082 347.309 247.554 345.925 246.612L272.544 196.647C271.767 196.183 270.909 195.941 270.038 195.941C269.167 195.941 268.308 196.183 267.531 196.647L127.514 291.984C126.094 292.915 126.094 294.443 127.487 295.385Z" fill="#E0E0E0"/>
<path d="M37.1149 196.637L75.4377 222.609C76.2147 223.073 77.0734 223.315 77.9444 223.315C78.8154 223.315 79.6741 223.073 80.451 222.609L126.431 191.3C127.816 190.359 127.816 188.831 126.431 187.889L88.3303 161.939C87.5518 161.474 86.6917 161.232 85.8192 161.232C84.9468 161.232 84.0867 161.474 83.3082 161.939L37.1149 193.226C35.6774 194.209 35.6774 195.695 37.1149 196.637Z" fill="#E0E0E0"/>
<path d="M342.819 214.781C342.606 214.677 341.932 197.746 348.143 187.774C354.354 177.802 361.808 176.651 366.724 179.079C371.639 181.506 370.628 187.45 364.576 191.028C358.525 194.607 350.992 200.843 349.199 212.228L342.819 214.781Z" fill="#BA68C8"/>
<path opacity="0.1" d="M342.819 214.781C342.606 214.677 341.932 197.746 348.143 187.774C354.354 177.802 361.808 176.651 366.724 179.079C371.639 181.506 370.628 187.45 364.576 191.028C358.525 194.607 350.992 200.843 349.199 212.228L342.819 214.781Z" fill="black"/>
<path d="M345.091 209.811C345.199 209.81 345.304 209.765 345.386 209.683C345.469 209.6 345.525 209.486 345.543 209.361C347.859 192.169 356.475 183.745 363.769 181.6C363.834 181.591 363.897 181.566 363.954 181.527C364.01 181.487 364.059 181.433 364.096 181.37C364.134 181.306 364.159 181.234 364.171 181.157C364.183 181.081 364.181 181.003 364.165 180.927C364.149 180.852 364.12 180.782 364.079 180.721C364.038 180.66 363.986 180.61 363.928 180.575C363.869 180.54 363.805 180.519 363.739 180.516C363.674 180.512 363.608 180.525 363.547 180.554C355.969 182.782 347.025 191.488 344.629 209.193C344.612 209.338 344.643 209.484 344.716 209.602C344.789 209.719 344.898 209.798 345.02 209.821L345.091 209.811Z" fill="white"/>
<path d="M343.929 246.205C344.869 241.747 348.676 238.796 353.174 238.315C357.842 237.823 363.281 237.269 364.71 232.623C366.138 227.977 364.709 221.667 365.357 218.58C366.165 214.834 367.38 212.605 373.512 210.334C379.013 208.242 382.056 202.099 376.511 199.483C370.965 196.867 365.419 198.521 361.648 200.53C357.877 202.539 357.7 204.621 352.394 204.087C347.088 203.554 343.121 207.488 342.793 211.276L343.929 246.205Z" fill="#BA68C8"/>
<path d="M343.929 231.074C344.023 231.073 344.115 231.038 344.193 230.975C344.27 230.911 344.33 230.822 344.364 230.718C348.729 216.372 366.546 203.397 372.509 202.57C372.631 202.552 372.742 202.478 372.818 202.365C372.894 202.251 372.93 202.107 372.917 201.963C372.911 201.892 372.892 201.823 372.862 201.76C372.833 201.698 372.793 201.643 372.745 201.599C372.697 201.555 372.642 201.523 372.583 201.505C372.524 201.486 372.463 201.482 372.403 201.492C366.307 202.34 347.975 215.64 343.494 230.352C343.457 230.488 343.465 230.636 343.518 230.764C343.571 230.893 343.664 230.993 343.778 231.042C343.826 231.064 343.877 231.074 343.929 231.074Z" fill="white"/>
<path d="M348.108 222.462H348.214C348.333 222.43 348.436 222.344 348.501 222.222C348.565 222.101 348.587 221.954 348.56 221.814C347.088 214.342 348.56 209.529 348.56 209.477C348.581 209.41 348.591 209.339 348.589 209.268C348.586 209.197 348.572 209.127 348.546 209.063C348.52 208.999 348.484 208.941 348.439 208.894C348.395 208.846 348.342 208.809 348.285 208.786C348.228 208.761 348.168 208.75 348.107 208.752C348.046 208.755 347.986 208.772 347.931 208.802C347.876 208.832 347.826 208.875 347.785 208.928C347.744 208.981 347.712 209.043 347.691 209.11C347.629 209.309 346.147 214.248 347.691 222.054C347.716 222.165 347.77 222.263 347.845 222.336C347.919 222.409 348.011 222.453 348.108 222.462Z" fill="white"/>
<path d="M345.091 227.967C345.165 227.968 345.238 227.946 345.304 227.904C348.853 225.601 356.661 227.245 356.741 227.255C356.805 227.286 356.873 227.3 356.941 227.296C357.01 227.292 357.077 227.27 357.137 227.232C357.198 227.193 357.25 227.14 357.291 227.074C357.331 227.009 357.359 226.934 357.372 226.854C357.385 226.775 357.382 226.693 357.365 226.614C357.347 226.536 357.315 226.463 357.271 226.401C357.227 226.34 357.171 226.29 357.109 226.257C357.046 226.223 356.978 226.207 356.91 226.208C356.573 226.135 348.738 224.491 344.869 226.962C344.815 226.996 344.767 227.042 344.729 227.098C344.69 227.154 344.661 227.219 344.644 227.288C344.627 227.357 344.621 227.429 344.628 227.501C344.634 227.573 344.653 227.642 344.683 227.705C344.725 227.788 344.785 227.855 344.857 227.901C344.928 227.947 345.009 227.97 345.091 227.967Z" fill="white"/>
<path d="M121.569 188.956L114.319 184.017L121.569 181.547V188.956Z" fill="black"/>
<path d="M78.0644 211.171V219.04L38.1799 191.886V184.017L78.0644 211.171Z" fill="black"/>
<path d="M34.5595 122.301L74.4352 149.455V213.63L34.5595 186.487V122.301Z" fill="#263238"/>
<path d="M74.4349 149.455L128.818 112.434V176.609L74.4349 213.63V149.455Z" fill="#37474F"/>
<path d="M128.818 112.435L88.9427 85.2808L34.5595 122.302L74.4352 149.456L128.818 112.435Z" fill="#455A64"/>
<path d="M78.0642 151.925L125.189 119.843V134.649L78.0642 166.742V151.925Z" fill="#455A64"/>
<g style="mix-blend-mode:multiply">
<path d="M96.1918 140.843C96.1918 141.523 97.922 140.895 100.052 139.441L106.822 134.826C108.96 133.382 110.69 131.687 110.69 130.965V129.73L96.1918 139.608V140.843Z" fill="#263238"/>
</g>
<path d="M78.0642 171.67L125.189 139.587V154.394L78.0642 186.487V171.67Z" fill="#455A64"/>
<g style="mix-blend-mode:multiply">
<path d="M96.1918 160.567C96.1918 161.247 97.922 160.62 100.052 159.165L106.822 154.561C108.96 153.107 110.69 151.369 110.69 150.689V149.455L96.1918 159.333V160.567Z" fill="#263238"/>
</g>
<path d="M78.0642 191.415L125.189 159.333V174.139L78.0642 206.232V191.415Z" fill="#455A64"/>
<g style="mix-blend-mode:multiply">
<path d="M96.1918 180.312C96.1918 180.993 97.922 180.312 100.052 178.91L106.822 174.306C108.96 172.852 110.69 171.167 110.69 170.434V169.2L96.1918 179.078V180.312Z" fill="#263238"/>
</g>
<path d="M78.0642 219.04L81.6844 216.571V208.702L78.0642 211.171V219.04Z" fill="#263238"/>
<path d="M121.569 188.957L125.189 186.487V179.079L121.569 181.548V188.957Z" fill="#263238"/>
<path d="M72.7314 144.118L94.4084 129.333C94.8343 129.05 94.8343 128.579 94.4084 128.286L64.6747 108.321C64.4351 108.179 64.1708 108.105 63.9027 108.105C63.6347 108.105 63.3703 108.179 63.1308 108.321L41.649 122.971C41.2142 123.253 41.2142 123.724 41.649 124.017L71.1787 144.129C71.4199 144.271 71.6863 144.345 71.9561 144.343C72.226 144.341 72.4916 144.264 72.7314 144.118Z" fill="#E0E0E0"/>
<path d="M41.6222 122.919L66.0232 104.629C66.2584 104.482 66.5203 104.405 66.7863 104.405C67.0523 104.405 67.3142 104.482 67.5494 104.629L76.3337 110.614C76.5402 110.759 76.6931 110.989 76.7621 111.261C76.8312 111.532 76.8113 111.824 76.7064 112.079L76.3426 112.905C76.237 113.159 76.2157 113.45 76.2831 113.721C76.3504 113.992 76.5014 114.224 76.7064 114.37L94.4082 126.519C94.4878 126.57 94.5542 126.646 94.6005 126.738C94.6467 126.83 94.6711 126.935 94.6711 127.042C94.6711 127.149 94.6467 127.254 94.6005 127.346C94.5542 127.438 94.4878 127.514 94.4082 127.565L72.678 144.067C72.4436 144.216 72.1814 144.294 71.9149 144.294C71.6485 144.294 71.3863 144.216 71.1519 144.067L41.6488 124.008C41.5555 123.967 41.4745 123.895 41.4163 123.8C41.3582 123.705 41.3256 123.591 41.3227 123.474C41.3198 123.357 41.3469 123.242 41.4002 123.143C41.4536 123.044 41.531 122.966 41.6222 122.919Z" fill="#F5F5F5"/>
<path d="M92.4737 48.7607C92.403 48.6994 92.3197 48.6613 92.2325 48.6503C92.1452 48.6393 92.057 48.6557 91.9768 48.698L91.4267 49.0747L91.7639 90.4176C91.7781 90.7084 91.8497 90.9913 91.9729 91.2438C92.0962 91.4963 92.2676 91.7114 92.4737 91.8721L119.918 110.561V67.4702L92.4737 48.7607Z" fill="#BA68C8"/>
<path opacity="0.2" d="M92.4737 48.7607C92.403 48.6994 92.3197 48.6613 92.2325 48.6503C92.1452 48.6393 92.057 48.6557 91.9768 48.698L91.4267 49.0747L91.7639 90.4176C91.7781 90.7084 91.8497 90.9913 91.9729 91.2438C92.0962 91.4963 92.2676 91.7114 92.4737 91.8721L119.918 110.561V67.4702L92.4737 48.7607Z" fill="black"/>
<path d="M91.9417 49.1477C91.5512 48.8861 91.2318 49.1477 91.2318 49.6395V90.815C91.2461 91.1058 91.3177 91.3887 91.4409 91.6412C91.5641 91.8937 91.7356 92.1088 91.9417 92.2695L119.386 110.948V67.8258L91.9417 49.1477Z" fill="#BA68C8"/>
<path opacity="0.5" d="M91.9417 49.1477C91.5512 48.8861 91.2318 49.1477 91.2318 49.6395V90.815C91.2461 91.1058 91.3177 91.3887 91.4409 91.6412C91.5641 91.8937 91.7356 92.1088 91.9417 92.2695L119.386 110.948V67.8258L91.9417 49.1477Z" fill="black"/>
<path d="M112.642 106.94L92.3317 93.1067C92.1257 92.946 91.9542 92.7309 91.831 92.4784C91.7077 92.2259 91.6361 91.943 91.6219 91.6522V53.6682L88.96 51.8788L91.6751 50.0372H91.7284C91.8437 49.8279 92.0655 49.7756 92.3317 49.9535L115.588 65.8063V108.928L112.624 110.937L112.642 106.94Z" fill="#EBEBEB"/>
<path d="M89.3682 52.0048C88.9778 51.7432 88.6584 52.0048 88.6584 52.4861V93.6721C88.6719 93.9617 88.7433 94.2435 88.8666 94.4944C88.99 94.7453 89.1618 94.9584 89.3682 95.1161L112.642 110.969V67.8472L89.3682 52.0048Z" fill="#FAFAFA"/>
<path d="M112.633 67.8465L115.588 65.8374L115.606 108.959L112.642 110.968L112.633 67.8465Z" fill="#E6E6E6"/>
<path d="M111.648 69.0178C111.644 68.9107 111.626 68.805 111.595 68.7039C111.552 68.5418 111.476 68.3946 111.373 68.275C111.344 68.2323 111.308 68.1967 111.267 68.1704C111.063 68.024 110.886 68.1704 110.894 68.5052C110.893 68.6579 110.924 68.8087 110.983 68.9445C111.041 69.1112 111.14 69.2535 111.267 69.3525C111.267 69.3525 111.267 69.3525 111.32 69.3525C111.524 69.478 111.648 69.3316 111.648 69.0178Z" fill="#263238"/>
<path d="M115.774 71.1116C116.145 70.8815 116.441 70.5138 116.617 70.0654C116.689 69.8504 116.718 69.6192 116.702 69.389C116.687 69.1589 116.628 68.9359 116.529 68.7367C116.346 68.3886 116.089 68.1035 115.783 67.9102L115.597 67.7847V68.3392C115.806 68.4268 115.987 68.5884 116.114 68.802C116.242 69.0155 116.311 69.2705 116.311 69.5318C116.311 69.7932 116.242 70.0481 116.114 70.2617C115.987 70.4752 115.806 70.6369 115.597 70.7245C115.047 71.0535 114.439 71.225 113.822 71.225C113.206 71.225 112.598 71.0535 112.048 70.7245C111.829 70.6196 111.642 70.4379 111.514 70.204C111.385 69.9701 111.321 69.6953 111.329 69.4167C111.346 69.1577 111.444 68.9152 111.604 68.7367C111.561 68.5746 111.485 68.4274 111.382 68.3078C111.211 68.4937 111.078 68.7225 110.992 68.9773C110.92 69.1909 110.891 69.4212 110.908 69.6501C110.925 69.8789 110.987 70.1 111.089 70.2956C111.272 70.6527 111.532 70.9454 111.844 71.143C112.454 71.5062 113.129 71.6928 113.812 71.6874C114.496 71.6819 115.168 71.4845 115.774 71.1116Z" fill="#263238"/>
<path d="M112.465 71.9694L87.2479 51.8997L87.6383 51.6381C87.7491 51.5758 87.8704 51.5435 87.9932 51.5435C88.116 51.5435 88.2373 51.5758 88.3481 51.6381L113.006 71.5195L112.465 71.9694Z" fill="#BA68C8"/>
<path opacity="0.2" d="M112.465 71.9694L87.2479 51.8997L87.6383 51.6381C87.7491 51.5758 87.8704 51.5435 87.9932 51.5435C88.116 51.5435 88.2373 51.5758 88.3481 51.6381L113.006 71.5195L112.465 71.9694Z" fill="black"/>
<path d="M87.7443 52.0046C87.3539 51.743 87.0344 52.0046 87.0344 52.4964V93.6719C87.0475 93.9628 87.1196 94.2458 87.2447 94.4971C87.3697 94.7484 87.5441 94.9606 87.7531 95.1159L112.882 115.385V72.2627L87.7443 52.0046Z" fill="#BA68C8"/>
<path d="M119.909 67.4702L119.918 110.592L112.873 115.384V72.2522L119.909 67.4702Z" fill="#BA68C8"/>
<path opacity="0.1" d="M119.909 67.4702L119.918 110.592L112.873 115.384V72.2522L119.909 67.4702Z" fill="black"/>
<path d="M118.508 76.9289C118.418 76.7308 118.292 76.5592 118.138 76.4269C117.985 76.2946 117.807 76.2051 117.62 76.1651C117.198 76.1096 116.773 76.2239 116.414 76.4894C115.84 76.9274 115.362 77.5202 115.021 78.219C114.68 78.9178 114.485 79.7023 114.453 80.5076C114.442 80.9198 114.525 81.3279 114.692 81.69C114.8 81.8941 114.944 82.0689 115.113 82.2029C115.283 82.337 115.474 82.4272 115.675 82.4678C115.876 82.5083 116.083 82.4982 116.28 82.438C116.478 82.3779 116.662 82.2692 116.822 82.119C117.398 81.6852 117.877 81.0949 118.22 80.3976C118.563 79.7003 118.759 78.9164 118.791 78.1113C118.793 77.7002 118.711 77.2947 118.552 76.9289H118.508Z" fill="#455A64"/>
<path d="M116.582 76.9077C117.549 76.2486 118.357 76.7822 118.357 78.1108C118.323 78.8319 118.145 79.5332 117.836 80.1571C117.528 80.7809 117.098 81.3095 116.582 81.6993C115.615 82.3688 114.808 81.8248 114.808 80.5066C114.844 79.7847 115.023 79.0829 115.331 78.4578C115.639 77.8326 116.068 77.3016 116.582 76.9077Z" fill="#F5F5F5"/>
<path d="M116.236 85.8445L116.769 85.4783C117.833 84.7563 118.703 85.3423 118.703 86.7968V105.485C118.666 106.276 118.472 107.045 118.136 107.731C117.8 108.416 117.331 108.998 116.769 109.43L116.236 109.796C115.171 110.518 114.302 109.932 114.302 108.478V89.7894C114.339 88.9988 114.533 88.2295 114.869 87.544C115.205 86.8586 115.673 86.2763 116.236 85.8445Z" fill="#F5F5F5"/>
<path d="M119.492 67.1772L112.482 71.9479L112.873 72.2513L119.909 67.4702L119.492 67.1772Z" fill="#BA68C8"/>
<path opacity="0.2" d="M119.492 67.1772L112.482 71.9479L112.873 72.2513L119.909 67.4702L119.492 67.1772Z" fill="black"/>
<path d="M111.214 116.117C111.294 116.046 111.359 115.954 111.405 115.849C111.451 115.744 111.477 115.628 111.48 115.51V73.236C111.474 73.1083 111.443 72.9841 111.389 72.8732C111.335 72.7624 111.26 72.668 111.17 72.5977L85.0295 52.4756L84.4971 52.8418V95.9532L110.619 116.086C110.709 116.148 110.81 116.184 110.913 116.189C111.017 116.195 111.12 116.17 111.214 116.117Z" fill="#BA68C8"/>
<path opacity="0.1" d="M110.841 73.2359L111.373 72.8696C111.429 72.9816 111.462 73.1067 111.471 73.2359V115.51C111.468 115.628 111.442 115.744 111.396 115.849C111.35 115.954 111.285 116.046 111.205 116.117C111.114 116.17 111.014 116.198 110.912 116.198C110.81 116.198 110.71 116.17 110.619 116.117C110.788 116.232 110.93 116.117 110.93 115.908V73.6335C110.935 73.4934 110.904 73.3547 110.841 73.2359Z" fill="black"/>
<path opacity="0.5" d="M84.5145 52.8423L110.619 72.9644C110.714 73.0277 110.791 73.1222 110.841 73.2365C110.902 73.3452 110.936 73.4722 110.939 73.6027V115.877C110.939 116.107 110.797 116.201 110.628 116.086L84.5145 95.9536V52.8423Z" fill="black"/>
<path opacity="0.2" d="M84.5145 52.8418L85.0468 52.4756L111.16 72.5977C111.249 72.6671 111.322 72.7603 111.373 72.8697L110.841 73.236C110.791 73.1217 110.714 73.0272 110.619 72.9639L84.5145 52.8418Z" fill="black"/>
<path d="M84.9406 53.1235L84.9495 96.2453L77.9042 101.048L77.9752 57.8742L84.9406 53.1235Z" fill="#BA68C8"/>
<path opacity="0.7" d="M84.9406 53.1235L84.9495 96.2453L77.9042 101.048L77.9752 57.8742L84.9406 53.1235Z" fill="black"/>
<path d="M107.212 118.303C107.333 118.372 107.464 118.408 107.598 118.408C107.732 118.408 107.864 118.372 107.984 118.303L109.413 117.33C109.522 117.241 109.613 117.125 109.679 116.989C109.745 116.853 109.784 116.702 109.794 116.545V74.4701C109.783 74.313 109.743 74.1609 109.675 74.025C109.608 73.8891 109.515 73.773 109.404 73.6853L86.5645 57.1313L84.364 58.6277V101.749L107.212 118.303Z" fill="#EBEBEB"/>
<path d="M84.3727 101.73L107.212 118.305C107.425 118.451 107.594 118.305 107.594 118.043V75.9678C107.584 75.8089 107.544 75.6547 107.476 75.5169C107.409 75.3791 107.315 75.2613 107.203 75.1725L84.355 58.5977L84.3727 101.73Z" fill="#FAFAFA"/>
<path d="M86.0495 61.5578C86.0446 61.4507 86.0266 61.345 85.9963 61.244C85.9555 61.0829 85.8825 60.9358 85.7834 60.8151L85.668 60.7105C85.464 60.564 85.2955 60.7105 85.2955 61.0452C85.2976 61.1975 85.3278 61.3475 85.3842 61.4846C85.4445 61.6524 85.5465 61.7947 85.6769 61.8925C85.9164 62.0076 86.0495 61.8716 86.0495 61.5578Z" fill="#263238"/>
<path d="M107.479 75.5283L109.689 74.0215C109.759 74.1612 109.799 74.3195 109.804 74.4819V116.547C109.793 116.704 109.753 116.856 109.685 116.992C109.617 117.128 109.525 117.244 109.414 117.332L107.985 118.305C107.88 118.359 107.766 118.387 107.652 118.387C107.537 118.387 107.424 118.359 107.319 118.305C107.479 118.357 107.594 118.242 107.594 117.991V75.9678C107.592 75.8113 107.552 75.6587 107.479 75.5283Z" fill="#E6E6E6"/>
<path d="M80.9298 59.4228C80.943 59.7547 81.0326 60.0761 81.1889 60.3525C81.3452 60.629 81.5624 60.8501 81.8171 60.9921C83.035 61.6584 84.4182 61.7739 85.7035 61.3164L85.5083 60.7305C84.3728 61.126 83.1548 61.0295 82.0744 60.4585C81.8659 60.3319 81.6909 60.1401 81.5687 59.904C81.4921 59.7603 81.4549 59.5923 81.4622 59.4228C81.4622 58.8474 81.9325 58.2092 82.7044 57.7175C83.4277 57.2514 84.2302 56.9823 85.0532 56.9297C85.8762 56.8772 86.6987 57.0428 87.4604 57.4141C87.7078 57.5662 87.907 57.8083 88.0283 58.1046L88.5962 58.5021V58.4498C88.5952 58.1746 88.5341 57.9044 88.4187 57.6652C88.2459 57.3335 88.0007 57.0625 87.7088 56.8805C86.871 56.4525 85.9612 56.2564 85.0492 56.3072C84.1371 56.3579 83.247 56.6543 82.4471 57.1735C82.0501 57.3604 81.7014 57.6663 81.4353 58.0607C81.1692 58.4552 80.995 58.9247 80.9298 59.4228Z" fill="#263238"/>
<path d="M106.733 119.162C106.817 119.094 106.885 119.003 106.933 118.898C106.981 118.792 107.006 118.675 107.008 118.555V76.2809C107.002 76.1533 106.971 76.029 106.917 75.9182C106.863 75.8073 106.788 75.7129 106.698 75.6426L78.0553 57.2471L77.5229 57.6133V100.725L106.174 119.131C106.258 119.188 106.353 119.221 106.45 119.226C106.548 119.232 106.645 119.21 106.733 119.162Z" fill="#BA68C8"/>
<path opacity="0.1" d="M106.369 76.2806L106.901 75.9248C106.955 76.0332 106.985 76.1553 106.99 76.2806V118.555C107.005 118.683 106.987 118.814 106.938 118.93C106.889 119.046 106.811 119.142 106.715 119.204C106.619 119.267 106.509 119.293 106.399 119.28C106.29 119.267 106.187 119.215 106.103 119.13C106.271 119.245 106.413 119.13 106.413 118.921V76.6468C106.423 76.5223 106.407 76.397 106.369 76.2806Z" fill="black"/>
<path d="M77.5046 57.6128L106.147 75.9665C106.239 76.0348 106.315 76.1288 106.37 76.24C106.424 76.3513 106.454 76.4766 106.457 76.6048V118.879C106.457 119.109 106.316 119.203 106.147 119.088L77.4957 100.682L77.5046 57.6128Z" fill="#BA68C8"/>
<path opacity="0.2" d="M77.5051 57.6133L78.0375 57.2471L106.68 75.6426C106.773 75.7126 106.85 75.8099 106.902 75.9252L106.369 76.2809C106.314 76.1711 106.238 76.0779 106.147 76.0089L77.5051 57.6133Z" fill="black"/>
<path d="M84.5149 52.8423L77.514 57.613L77.9754 57.8745L84.9408 53.1248L84.5149 52.8423Z" fill="#BA68C8"/>
<path opacity="0.2" d="M84.5149 52.8423L77.514 57.613L77.9754 57.8745L84.9408 53.1248L84.5149 52.8423Z" fill="black"/>
<path d="M77.9305 58.711C77.8553 58.6585 77.7695 58.6309 77.6821 58.6309C77.5947 58.6309 77.5089 58.6585 77.4336 58.711L76.8835 59.0773L77.2207 100.431C77.2342 100.72 77.3055 101.002 77.4289 101.253C77.5523 101.504 77.7241 101.717 77.9305 101.875L105.375 120.563V77.3891L77.9305 58.711Z" fill="#BA68C8"/>
<path opacity="0.2" d="M77.9305 58.711C77.8553 58.6585 77.7695 58.6309 77.6821 58.6309C77.5947 58.6309 77.5089 58.6585 77.4336 58.711L76.8835 59.0773L77.2207 100.431C77.2342 100.72 77.3055 101.002 77.4289 101.253C77.5523 101.504 77.7241 101.717 77.9305 101.875L105.375 120.563V77.3891L77.9305 58.711Z" fill="black"/>
<path d="M77.3632 59.0779C76.9728 58.8058 76.6533 59.0256 76.6533 59.5592V100.735C76.6662 101.026 76.7372 101.309 76.8605 101.562C76.9839 101.815 77.1561 102.03 77.3632 102.189L104.808 120.878V77.756L77.3632 59.0779Z" fill="#BA68C8"/>
<path opacity="0.5" d="M77.3632 59.0779C76.9728 58.8058 76.6533 59.0256 76.6533 59.5592V100.735C76.6662 101.026 76.7372 101.309 76.8605 101.562C76.9839 101.815 77.1561 102.03 77.3632 102.189L104.808 120.878V77.756L77.3632 59.0779Z" fill="black"/>
<path d="M98.0642 116.87L77.7537 103.026C77.5461 102.868 77.3735 102.653 77.2501 102.4C77.1267 102.147 77.056 101.863 77.0438 101.572V63.5985L74.3819 61.8091L77.0971 59.957C77.1332 59.9047 77.1776 59.8614 77.2279 59.8294C77.2783 59.7975 77.3334 59.7775 77.3903 59.7707C77.4472 59.7639 77.5046 59.7704 77.5594 59.7898C77.6141 59.8092 77.665 59.8411 77.7093 59.8838L101.001 75.7575V118.869L98.0375 120.888L98.0642 116.87Z" fill="#EBEBEB"/>
<path d="M74.7902 61.9348C74.3997 61.6628 74.0803 61.8825 74.0803 62.4162V103.592C74.0946 103.883 74.1662 104.165 74.2894 104.418C74.4126 104.67 74.5841 104.886 74.7902 105.046L98.0643 120.899V77.7772L74.7902 61.9348Z" fill="#FAFAFA"/>
<path d="M98.0551 77.7773L101.01 75.7578L101.028 118.88L98.0639 120.899L98.0551 77.7773Z" fill="#E6E6E6"/>
<path d="M97.0878 78.9484C97.0821 78.8381 97.0642 78.729 97.0345 78.6241C96.99 78.4658 96.9139 78.3223 96.8128 78.2057C96.7861 78.16 96.7493 78.1238 96.7063 78.1011C96.5023 77.9547 96.3249 78.1011 96.3338 78.4359C96.3334 78.5885 96.3637 78.7391 96.4225 78.8752C96.4822 79.0403 96.5807 79.1819 96.7063 79.2832H96.7595C96.9458 79.3982 97.0878 79.2622 97.0878 78.9484Z" fill="#263238"/>
<path d="M101.196 81.0308C101.569 80.8039 101.866 80.4353 102.039 79.9846C102.11 79.7714 102.139 79.5418 102.124 79.3134C102.108 79.085 102.049 78.8637 101.95 78.6664C101.77 78.316 101.512 78.0302 101.205 77.8399C101.146 77.7919 101.083 77.7499 101.018 77.7144V78.2584C101.227 78.346 101.408 78.5077 101.536 78.7212C101.664 78.9347 101.732 79.1897 101.732 79.451C101.732 79.7124 101.664 79.9673 101.536 80.1809C101.408 80.3944 101.227 80.5561 101.018 80.6437C100.469 80.976 99.8609 81.1493 99.2437 81.1493C98.6265 81.1493 98.0182 80.976 97.4691 80.6437C97.2501 80.5388 97.0637 80.3571 96.9352 80.1232C96.8066 79.8893 96.7421 79.6145 96.7504 79.336C96.772 79.0784 96.8693 78.8378 97.0255 78.6559C96.9809 78.4976 96.9048 78.3541 96.8036 78.2375C96.6309 78.4216 96.4972 78.6509 96.4132 78.907C96.359 79.1148 96.3444 79.3342 96.3705 79.5494C96.3966 79.7646 96.4627 79.9704 96.5641 80.152C96.747 80.506 97.0076 80.7951 97.3183 80.989C97.9155 81.3581 98.5785 81.5544 99.2528 81.5617C99.927 81.5689 100.593 81.387 101.196 81.0308Z" fill="#263238"/>
<path d="M97.8863 81.9003L72.6689 61.8723L73.0594 61.6107C73.1691 61.5437 73.2908 61.5088 73.4143 61.5088C73.5378 61.5088 73.6595 61.5437 73.7692 61.6107L98.4275 81.4922L97.8863 81.9003Z" fill="#BA68C8"/>
<path opacity="0.2" d="M97.8863 81.9003L72.6689 61.8723L73.0594 61.6107C73.1691 61.5437 73.2908 61.5088 73.4143 61.5088C73.5378 61.5088 73.6595 61.5437 73.7692 61.6107L98.4275 81.4922L97.8863 81.9003Z" fill="black"/>
<path d="M73.1663 61.9348C72.7758 61.6628 72.4564 61.8825 72.4564 62.4162V103.592C72.4693 103.883 72.5403 104.166 72.6636 104.419C72.787 104.672 72.9592 104.887 73.1663 105.046L98.3392 125.304V82.1825L73.1663 61.9348Z" fill="#BA68C8"/>
<path d="M105.331 77.3901L105.34 120.512L98.2946 125.315V82.1826L105.331 77.3901Z" fill="#BA68C8"/>
<path opacity="0.1" d="M105.331 77.3901L105.34 120.512L98.2946 125.315V82.1826L105.331 77.3901Z" fill="black"/>
<path d="M103.929 86.8488C103.839 86.6522 103.712 86.4823 103.558 86.3518C103.405 86.2213 103.228 86.1336 103.041 86.0954C102.619 86.0348 102.193 86.1495 101.835 86.4198C101.261 86.8555 100.783 87.4464 100.442 88.1435C100.101 88.8405 99.9063 89.6236 99.8736 90.4275C99.8559 90.8572 99.9388 91.2844 100.113 91.6622C100.222 91.865 100.366 92.0386 100.536 92.1717C100.705 92.3048 100.896 92.3944 101.097 92.4349C101.298 92.4753 101.504 92.4656 101.701 92.4064C101.898 92.3472 102.083 92.2399 102.243 92.0913C102.819 91.6552 103.298 91.0629 103.641 90.364C103.984 89.665 104.18 88.8795 104.213 88.0731C104.216 87.6605 104.13 87.2537 103.964 86.8907L103.929 86.8488Z" fill="#455A64"/>
<path d="M102.004 86.8388C102.971 86.1797 103.778 86.7133 103.778 88.042C103.745 88.763 103.566 89.4644 103.258 90.0882C102.949 90.7121 102.519 91.2406 102.004 91.6304C101.037 92.2895 100.229 91.756 100.229 90.4378C100.264 89.7155 100.442 89.013 100.751 88.3876C101.059 87.7622 101.488 87.2316 102.004 86.8388Z" fill="#F5F5F5"/>
<path d="M101.657 95.7637L102.19 95.4079C103.255 94.6755 104.124 95.2719 104.124 96.7159V115.404C104.087 116.196 103.892 116.967 103.556 117.654C103.22 118.341 102.752 118.925 102.19 119.36L101.657 119.716C100.593 120.448 99.723 119.852 99.723 118.408V99.7191C99.7603 98.9272 99.9548 98.1568 100.291 97.4697C100.627 96.7827 101.095 96.1984 101.657 95.7637Z" fill="#F5F5F5"/>
<path d="M104.914 77.0972L97.9039 81.8678L98.2943 82.1817L105.331 77.3901L104.914 77.0972Z" fill="#BA68C8"/>
<path opacity="0.2" d="M104.914 77.0972L97.9039 81.8678L98.2943 82.1817L105.331 77.3901L104.914 77.0972Z" fill="black"/>
<path d="M190.965 142.988L185.5 139.336C184.537 138.688 183.736 137.752 183.178 136.622C182.621 135.492 182.326 134.209 182.323 132.901V98.8516H185.225V132.901C185.222 133.605 185.379 134.296 185.679 134.905C185.978 135.514 186.409 136.018 186.928 136.365L192.394 140.027L190.965 142.988Z" fill="#263238"/>
<path d="M174.772 111.283C174.296 110.901 173.902 110.392 173.623 109.798C173.344 109.203 173.188 108.54 173.166 107.861V77.5155C173.196 76.8322 173.375 76.1696 173.686 75.5921C173.997 75.0145 174.429 74.5416 174.941 74.2194L203.406 58.7119C203.946 58.45 204.527 58.325 205.111 58.3448C205.695 58.3646 206.269 58.5289 206.795 58.827C207.272 59.2088 207.665 59.7175 207.944 60.3119C208.223 60.9063 208.38 61.5698 208.401 62.2487V92.594C208.372 93.2773 208.193 93.9399 207.882 94.5175C207.571 95.095 207.138 95.5679 206.627 95.8901L178.197 111.398C177.652 111.666 177.065 111.794 176.474 111.774C175.884 111.754 175.304 111.587 174.772 111.283Z" fill="#455A64"/>
<path d="M179.573 79.5666L173.707 75.5693C173.377 76.1499 173.19 76.8273 173.166 77.5261V107.871C173.188 108.55 173.344 109.214 173.623 109.808C173.902 110.403 174.296 110.911 174.772 111.293C175.299 111.591 175.873 111.755 176.457 111.775C177.041 111.795 177.621 111.67 178.162 111.408L179.573 110.634V79.5666Z" fill="#263238"/>
<path d="M178.197 76.407L206.591 60.91C206.778 60.7693 206.996 60.695 207.218 60.6958C207.441 60.6966 207.658 60.7726 207.845 60.9146C208.031 61.0567 208.18 61.2589 208.272 61.4973C208.364 61.7357 208.397 62.0003 208.365 62.2598V92.6051C208.336 93.2884 208.157 93.951 207.846 94.5286C207.535 95.1062 207.103 95.5791 206.591 95.9013L178.197 111.398C178.009 111.534 177.792 111.605 177.571 111.602C177.351 111.599 177.135 111.523 176.95 111.382C176.764 111.241 176.616 111.041 176.523 110.805C176.43 110.569 176.395 110.307 176.422 110.049V79.7031C176.454 79.0204 176.633 78.3586 176.944 77.7814C177.255 77.2041 177.686 76.7308 178.197 76.407Z" fill="#37474F"/>
<path d="M184.408 144.945V201.89C184.397 202.153 184.333 202.41 184.222 202.639C184.111 202.868 183.956 203.063 183.77 203.208L182.048 204.38C181.849 204.499 181.628 204.561 181.405 204.561C181.181 204.561 180.961 204.499 180.762 204.38L179.085 203.208C178.898 203.063 178.743 202.868 178.632 202.639C178.521 202.41 178.457 202.153 178.446 201.89V144.945C178.446 144.268 178.674 143.619 179.08 143.14C179.486 142.661 180.037 142.392 180.611 142.392H182.279C182.847 142.403 183.388 142.677 183.787 143.155C184.185 143.632 184.408 144.275 184.408 144.945Z" fill="#263238"/>
<path d="M179.972 142.392C180.369 142.392 180.751 142.578 181.032 142.91C181.313 143.242 181.471 143.691 181.471 144.16V204.045C181.471 204.464 181.223 204.642 180.912 204.433L179.084 203.187C178.906 203.049 178.758 202.863 178.652 202.645C178.545 202.427 178.484 202.183 178.472 201.932V144.16C178.472 143.691 178.63 143.242 178.911 142.91C179.192 142.578 179.574 142.392 179.972 142.392Z" fill="#37474F"/>
<path d="M216.955 164.91V223.508C216.943 223.77 216.879 224.025 216.768 224.253C216.657 224.48 216.502 224.673 216.316 224.816L214.577 226.051C214.377 226.17 214.157 226.231 213.933 226.231C213.71 226.231 213.49 226.17 213.29 226.051L211.569 224.879C211.382 224.736 211.227 224.543 211.116 224.315C211.005 224.088 210.941 223.833 210.93 223.571V164.91C210.93 164.679 211.007 164.457 211.145 164.292C211.283 164.128 211.47 164.034 211.666 164.031H216.2C216.299 164.03 216.397 164.052 216.488 164.095C216.58 164.139 216.663 164.203 216.733 164.285C216.803 164.367 216.859 164.464 216.897 164.571C216.935 164.679 216.955 164.794 216.955 164.91Z" fill="#263238"/>
<path d="M211.684 164.062H213.21C213.406 164.065 213.594 164.159 213.732 164.323C213.869 164.488 213.947 164.71 213.947 164.941V225.632C213.947 226.113 213.663 226.301 213.308 226.061L211.586 224.889C211.4 224.746 211.245 224.552 211.134 224.325C211.023 224.098 210.959 223.843 210.948 223.581V164.91C210.954 164.684 211.035 164.47 211.172 164.312C211.309 164.154 211.492 164.065 211.684 164.062Z" fill="#37474F"/>
<path d="M178.437 143.731V144.516C178.469 145.228 178.627 145.924 178.903 146.558C179.178 147.193 179.563 147.752 180.034 148.2L212.35 174.778C212.838 175.15 213.401 175.364 213.982 175.399C214.563 175.434 215.141 175.288 215.659 174.977L256.28 147.289C256.78 146.91 257.195 146.396 257.493 145.791C257.791 145.185 257.962 144.504 257.993 143.805V142.999C257.966 142.314 257.788 141.648 257.477 141.069C257.165 140.489 256.732 140.015 256.218 139.692L216.254 117.823C215.693 117.563 215.091 117.445 214.489 117.478C213.886 117.51 213.297 117.692 212.758 118.011L180.14 140.236C179.644 140.621 179.231 141.137 178.935 141.744C178.639 142.352 178.469 143.032 178.437 143.731Z" fill="#37474F"/>
<path d="M180.14 140.236L212.802 118.011C213.341 117.692 213.93 117.51 214.533 117.478C215.135 117.445 215.737 117.563 216.298 117.823L256.28 139.692C257.274 140.236 257.309 141.189 256.36 141.785L215.659 169.514C215.141 169.828 214.563 169.975 213.981 169.94C213.4 169.905 212.837 169.69 212.349 169.316L180.033 142.769C179.835 142.643 179.67 142.454 179.559 142.223C179.449 141.992 179.396 141.728 179.407 141.463C179.418 141.197 179.493 140.941 179.623 140.724C179.752 140.507 179.932 140.338 180.14 140.236Z" fill="#455A64"/>
<path d="M226.857 245.828H235.251V228.876H226.857V245.828Z" fill="#FFA8A7"/>
<path d="M251.169 224.742L259.563 225.077L259.989 207.132L251.595 206.797L251.169 224.742Z" fill="#FFA8A7"/>
<path d="M235.251 241.37V239.612C236.138 240.062 240.095 249.971 243.716 253.864C246.599 257.003 251.701 261.189 251.533 264.14C251.373 267.927 246.795 269.612 242.837 268.513C239.749 267.655 235.339 265.448 233.219 262.758C231.098 260.069 230.415 256.48 229.315 254.753C228.214 253.027 225.659 251.028 225.064 248.988C224.736 247.868 225.127 245.409 225.588 243.337C226.005 241.433 226.475 239.34 227.017 239.518V240.69C227.682 241.558 229.51 242.416 231.577 242.511C232.917 242.573 235.26 242.573 235.251 241.37Z" fill="#263238"/>
<path d="M259.652 222.022C260.087 222.022 260.441 222.765 261.426 224C262.589 225.475 265.189 227.034 267.061 228.133C270.211 229.996 278.436 232.486 281.205 233.951C282.935 234.872 282.5 238.042 280.051 239.821C278.223 241.15 272.402 242.427 267.221 241.067C264.399 240.313 260.122 238.011 258.01 237.624C255.703 237.195 251.471 236.672 249.758 235.28C248.046 233.888 248.729 230.906 249.217 228.342C249.741 225.549 250.504 221.269 251.284 221.457V222.336C252.296 224.146 257.434 224.879 259.652 223.55V222.022Z" fill="#263238"/>
<path d="M193.024 125.754C191.187 141.063 193.663 144.004 205.996 158.663C212.634 166.543 223.317 178.105 223.317 178.105C223.317 178.105 223.166 182.992 223.077 193.958C222.997 203.606 226.422 235.029 226.422 235.029C226.422 235.029 231.995 237.792 235.819 234.925C235.819 234.925 237.549 211.548 238.481 199.347C239.75 182.835 240.406 174.558 239.696 171C239.066 167.861 226.511 149.183 223.61 143.93L250.291 162.211C249.773 166.842 249.512 171.509 249.51 176.18C249.803 189.291 251.169 215.462 251.169 215.462C251.169 215.462 257.283 218.685 260.309 215.901C260.309 215.901 268.002 158.663 268.002 153.965C268.002 146.829 241.711 125.524 236.733 120.554C233.893 117.729 230.726 114.705 230.726 114.705L193.024 125.754Z" fill="#BA68C8"/>
<path opacity="0.3" d="M193.024 125.754C191.187 141.063 193.663 144.004 205.996 158.663C212.634 166.543 223.317 178.105 223.317 178.105C223.317 178.105 223.166 182.992 223.077 193.958C222.997 203.606 226.422 235.029 226.422 235.029C226.422 235.029 231.995 237.792 235.819 234.925C235.819 234.925 237.549 211.548 238.481 199.347C239.75 182.835 240.406 174.558 239.696 171C239.066 167.861 226.511 149.183 223.61 143.93L250.291 162.211C249.773 166.842 249.512 171.509 249.51 176.18C249.803 189.291 251.169 215.462 251.169 215.462C251.169 215.462 257.283 218.685 260.309 215.901C260.309 215.901 268.002 158.663 268.002 153.965C268.002 146.829 241.711 125.524 236.733 120.554C233.893 117.729 230.726 114.705 230.726 114.705L193.024 125.754Z" fill="black"/>
<path opacity="0.1" d="M223.61 143.983C226.42 141.31 228.533 137.755 229.706 133.728C229.562 136.355 229.245 138.965 228.756 141.534C228.037 144.935 250.291 162.263 250.291 162.263L223.61 143.983Z" fill="black"/>
<path d="M239.066 90.1876C239.066 90.1876 240.539 74.5755 240.539 68.8622C240.539 62.7408 238.347 59.1203 231.604 58.9424C231.604 58.9424 226.706 98.4541 229.359 101.436C230.814 103.069 237.167 105.528 243.485 107.715L246.972 95.8486C244.594 94.1744 241.968 92.2909 239.066 90.1876Z" fill="#FFA8A7"/>
<path d="M230.548 58.3564C230.548 58.3564 236.12 58.5239 238.596 61.3177C241.072 64.1116 241.134 66.4974 240.876 71.6561C240.619 76.8148 239.75 90.1981 239.75 90.1981C239.75 90.1981 235.561 94.8651 226.156 94.3837L230.548 58.3564Z" fill="#E0E0E0"/>
<path d="M203.609 67.2403C201.613 70.7771 195.712 88.6285 192.811 127.471C198.703 135.026 227.718 136.689 236.733 120.585C236.733 120.585 239.767 88.3146 239.705 80.6027C239.661 75.2556 239.537 62.3432 231.604 58.9424H221.214L209.368 61.3177C207.051 62.6787 205.068 64.7178 203.609 67.2403Z" fill="#F5F5F5"/>
<path d="M220.522 27.8326C220.41 30.611 221 33.366 222.216 35.7492C223.433 38.1323 225.221 40.0366 227.355 41.2213C229.489 42.4059 231.873 42.8177 234.205 42.4046C236.538 41.9914 238.714 40.7719 240.459 38.9002C242.203 37.0285 243.438 34.5887 244.007 31.8894C244.576 29.19 244.453 26.3523 243.655 23.7351C242.856 21.1179 241.417 18.8388 239.52 17.1859C237.623 15.5331 235.353 14.5807 232.997 14.4493C231.433 14.3606 229.869 14.6366 228.395 15.2615C226.921 15.8863 225.565 16.8477 224.407 18.0908C223.248 19.3338 222.308 20.834 221.642 22.5056C220.975 24.1772 220.595 25.9874 220.522 27.8326Z" fill="#263238"/>
<path d="M211.445 37.3652C211.445 37.3652 212.944 48.164 213.645 49.9219C214.119 51.032 214.935 51.8858 215.926 52.3077L216.094 44.7841L211.445 37.3652Z" fill="#263238"/>
<path d="M214.479 22.1835C213.807 22.0536 213.12 22.1057 212.468 22.336C211.816 22.5662 211.217 22.9685 210.717 23.5124C209.057 25.3331 209.696 31.3813 211.444 37.3666L215.056 38.0572L214.479 22.1835Z" fill="#263238"/>
<path d="M216.147 38.1187C215.402 38.5896 214.426 36.884 213.574 35.7225C212.722 34.561 209.838 32.8867 208.25 36.4445C206.662 40.0022 209.199 45.1191 211.471 46.1027C215.393 47.7978 216.111 44.8261 216.111 44.8261L215.739 61.7776C218.986 66.4864 231.426 70.6615 228.711 62.0497L228.906 56.891C230.657 57.322 232.442 57.5324 234.23 57.5188C237.185 57.1526 239.137 54.5261 240.175 50.8428C241.843 44.9202 242.58 40.0964 241.843 28.2198C241.036 15.2132 228.276 14.3656 221.178 19.0953C214.08 23.825 216.147 38.1187 216.147 38.1187Z" fill="#FFA8A7"/>
<path d="M216.094 39.5627C215.766 39.3639 214.435 36.7479 213.574 35.7224C212.367 34.3098 214.461 22.1821 214.461 22.1821C214.175 21.106 214.161 19.9547 214.421 18.8692C214.681 17.7838 215.204 16.8114 215.926 16.0712C217.191 14.513 218.783 13.3768 220.541 12.7777C222.298 12.1787 224.159 12.1381 225.934 12.66C229.108 13.5048 232.315 14.1614 235.544 14.6272C238.912 15.0718 242.322 14.5956 245.508 13.2355C245.779 15.3561 245.565 17.5237 244.887 19.5138C244.168 21.3769 242.97 22.9256 241.462 23.9401C239.759 25.1015 238.028 25.8026 234.47 25.9701C230.09 26.2631 225.698 25.7045 221.471 24.3168C220.131 24.0238 219.776 25.5515 218.88 29.7371C218.126 33.3576 218.925 41.352 216.094 39.5627Z" fill="#263238"/>
<path d="M214.453 23.1336L210.141 20.0892C210.296 19.7474 210.508 19.4462 210.765 19.2039C211.022 18.9616 211.317 18.7832 211.634 18.6796C211.951 18.5759 212.282 18.5491 212.608 18.6008C212.934 18.6525 213.248 18.7816 213.53 18.9802C214.103 19.4048 214.517 20.0703 214.688 20.8418C214.86 21.6132 214.775 22.4327 214.453 23.1336Z" fill="#263238"/>
<path d="M228.889 56.8919C228.889 56.8919 222.412 54.977 220.185 53.4178C218.876 52.517 217.827 51.1713 217.177 49.5566C217.459 51.1527 218.011 52.6652 218.801 54.0038C220.362 56.6198 228.809 58.9428 228.809 58.9428L228.889 56.8919Z" fill="#F28F8F"/>
<path d="M230.549 37.6789C230.526 37.9809 230.429 38.2683 230.268 38.5056C230.108 38.7428 229.892 38.9194 229.648 39.0134C229.403 39.1074 229.141 39.1147 228.892 39.0343C228.644 38.954 228.422 38.7896 228.252 38.5615C228.083 38.3334 227.974 38.0516 227.939 37.7512C227.904 37.4508 227.945 37.1449 228.056 36.8715C228.168 36.5982 228.344 36.3693 228.565 36.2135C228.786 36.0576 229.04 35.9815 229.298 35.9946C229.652 36.0268 229.981 36.2211 230.215 36.5359C230.449 36.8507 230.569 37.261 230.549 37.6789Z" fill="#263238"/>
<path d="M229.395 32.3445L226.52 34.0196C226.339 33.5541 226.318 33.0245 226.46 32.5409C226.602 32.0574 226.897 31.6571 227.283 31.4233C227.472 31.3136 227.678 31.2505 227.888 31.2378C228.098 31.225 228.309 31.2629 228.506 31.3491C228.704 31.4352 228.885 31.5679 229.037 31.7391C229.19 31.9102 229.312 32.1162 229.395 32.3445Z" fill="#263238"/>
<path d="M228.667 47.5791L231.604 49.0762C231.529 49.3084 231.415 49.5204 231.269 49.6995C231.123 49.8787 230.948 50.0213 230.754 50.119C230.56 50.2167 230.352 50.2674 230.141 50.2681C229.931 50.2688 229.722 50.2195 229.528 50.1231C229.135 49.9099 228.827 49.5271 228.667 49.0537C228.507 48.5804 228.507 48.0525 228.667 47.5791Z" fill="#F28F8F"/>
<path d="M240.752 33.87L238.294 31.4116C238.422 31.2136 238.582 31.0485 238.765 30.9262C238.948 30.804 239.151 30.7272 239.361 30.7008C239.57 30.6743 239.782 30.6987 239.983 30.7724C240.184 30.846 240.37 30.9675 240.53 31.1292C240.86 31.4639 241.068 31.9361 241.109 32.447C241.15 32.9578 241.022 33.4677 240.752 33.87Z" fill="#263238"/>
<path d="M239.973 37.1144C239.95 37.4168 239.852 37.7046 239.691 37.942C239.531 38.1794 239.314 38.3558 239.069 38.4494C238.824 38.543 238.561 38.5495 238.313 38.4683C238.065 38.387 237.842 38.2215 237.673 37.9924C237.504 37.7633 237.396 37.4806 237.362 37.1796C237.328 36.8786 237.37 36.5725 237.483 36.2995C237.596 36.0264 237.774 35.7984 237.996 35.6438C238.217 35.4893 238.473 35.415 238.73 35.4302C238.906 35.4434 239.078 35.4976 239.236 35.5897C239.393 35.6818 239.534 35.8098 239.65 35.9665C239.765 36.1231 239.854 36.3053 239.909 36.5023C239.964 36.6994 239.986 36.9074 239.973 37.1144Z" fill="#263238"/>
<path d="M234.204 35.4194L233.112 44.7114L237.922 44.3661L234.204 35.4194Z" fill="#F28F8F"/>
<path d="M204 241.726L129.519 191.018L269.297 95.8901L343.769 146.598L204 241.726Z" fill="#455A64"/>
<path d="M129.519 191.018V292.434L133.441 295.103V225.716L200.078 271.088V340.474L204 343.142V241.726L129.519 191.018Z" fill="#263238"/>
<path d="M133.441 295.103L137.363 292.434V228.385L133.441 225.716V295.103Z" fill="black"/>
<path d="M204 343.143L207.922 340.475V271.088L339.855 181.297V250.684L343.768 248.015V146.599L204 241.727V343.143Z" fill="#37474F"/>
<path d="M339.856 250.683L335.934 248.015V183.965L339.856 181.297V250.683Z" fill="#263238"/>
<path d="M203.423 181.936L173.761 202.142C173.501 202.296 173.213 202.377 172.922 202.377C172.631 202.377 172.344 202.296 172.084 202.142L150.238 187.273C150.139 187.23 150.053 187.152 149.993 187.05C149.932 186.948 149.9 186.827 149.9 186.702C149.9 186.578 149.932 186.456 149.993 186.354C150.053 186.252 150.139 186.175 150.238 186.132L179.901 165.958C180.159 165.803 180.445 165.723 180.735 165.723C181.025 165.723 181.31 165.803 181.569 165.958L203.423 180.837C203.512 180.886 203.587 180.964 203.639 181.061C203.691 181.159 203.719 181.271 203.719 181.387C203.719 181.502 203.691 181.615 203.639 181.712C203.587 181.809 203.512 181.887 203.423 181.936Z" fill="#EBEBEB"/>
<path d="M181.569 165.958L202.314 180.084L173.76 199.505C173.5 199.659 173.213 199.74 172.922 199.74C172.631 199.74 172.343 199.659 172.083 199.505L151.338 185.379L179.901 165.958C180.159 165.803 180.445 165.723 180.735 165.723C181.024 165.723 181.31 165.803 181.569 165.958Z" fill="#E0E0E0"/>
<path d="M203.423 178.367L173.76 198.583C173.5 198.738 173.213 198.818 172.922 198.818C172.631 198.818 172.343 198.738 172.083 198.583L150.211 183.746C150.112 183.703 150.026 183.625 149.966 183.523C149.905 183.421 149.873 183.3 149.873 183.175C149.873 183.051 149.905 182.929 149.966 182.827C150.026 182.725 150.112 182.648 150.211 182.605L179.901 162.389C180.159 162.234 180.445 162.154 180.735 162.154C181.024 162.154 181.31 162.234 181.569 162.389L203.423 177.268C203.515 177.314 203.593 177.391 203.648 177.488C203.703 177.586 203.732 177.701 203.732 177.818C203.732 177.935 203.703 178.05 203.648 178.147C203.593 178.245 203.515 178.321 203.423 178.367Z" fill="#FAFAFA"/>
<path d="M227.806 142.79V142.403C227.822 142.061 227.906 141.729 228.051 141.432C228.195 141.136 228.398 140.884 228.64 140.697L277.93 107.139C278.189 106.985 278.475 106.904 278.765 106.904C279.054 106.904 279.34 106.985 279.599 107.139L289.687 114.004C289.93 114.191 290.132 114.442 290.277 114.739C290.422 115.035 290.506 115.368 290.521 115.709V116.107C290.506 116.448 290.422 116.781 290.277 117.077C290.132 117.374 289.93 117.625 289.687 117.812L240.406 151.37C240.146 151.525 239.859 151.605 239.568 151.605C239.276 151.605 238.989 151.525 238.729 151.37L228.64 144.495C228.398 144.308 228.195 144.057 228.051 143.76C227.906 143.464 227.822 143.131 227.806 142.79Z" fill="#E0E0E0"/>
<path d="M228.641 141.827L238.729 148.702C238.988 148.856 239.274 148.937 239.564 148.937C239.853 148.937 240.139 148.856 240.398 148.702L289.688 115.144C289.787 115.102 289.873 115.024 289.933 114.922C289.994 114.82 290.026 114.698 290.026 114.574C290.026 114.449 289.994 114.328 289.933 114.226C289.873 114.124 289.787 114.046 289.688 114.004L279.599 107.139C279.34 106.985 279.055 106.904 278.765 106.904C278.475 106.904 278.189 106.985 277.931 107.139L228.641 140.697C228.541 140.737 228.453 140.813 228.392 140.914C228.33 141.016 228.297 141.137 228.297 141.262C228.297 141.387 228.33 141.508 228.392 141.61C228.453 141.711 228.541 141.787 228.641 141.827Z" fill="#FAFAFA"/>
<path d="M274.985 114.955C274.097 113.27 269.386 108.331 268.463 107.316C267.54 106.301 263.521 105.61 259.998 104.313C256.777 102.555 252.554 99.7716 246.972 95.8477L243.485 107.693C248.712 109.482 253.929 111.073 256.342 111.878C258.374 112.799 258.303 113.511 259.963 114.62C263.033 116.713 265.038 116.273 265.038 116.273C265.95 117.294 266.92 118.242 267.94 119.109C270.122 120.867 272.305 122.248 274.985 121.202C277.922 120.072 275.854 116.65 274.985 114.955Z" fill="#FFA8A7"/>
<path d="M262.563 191.07C265.42 187.627 267.106 179.037 264.337 176.316H250.14C247.354 179.037 249.031 187.617 251.915 191.06L251.995 191.154C252.023 191.197 252.056 191.236 252.092 191.269C252.172 191.368 252.258 191.459 252.35 191.541L252.421 191.604C252.488 191.675 252.559 191.741 252.634 191.803L252.997 192.075C254.317 192.864 255.777 193.276 257.257 193.276C258.737 193.276 260.196 192.864 261.516 192.075C261.644 191.988 261.768 191.894 261.888 191.792L262.092 191.614L262.172 191.541L262.421 191.279L262.536 191.143L262.563 191.07Z" fill="#EBEBEB"/>
<path d="M251.364 175.218C248.126 177.415 248.126 180.994 251.364 183.191C253.18 184.279 255.188 184.847 257.225 184.847C259.262 184.847 261.27 184.279 263.086 183.191C266.316 180.994 266.316 177.415 263.086 175.218C261.27 174.13 259.262 173.562 257.225 173.562C255.188 173.562 253.18 174.13 251.364 175.218Z" fill="#FAFAFA"/>
<path d="M253.618 176.777C251.657 178.116 251.657 180.293 253.618 181.632C254.72 182.285 255.935 182.626 257.168 182.626C258.4 182.626 259.616 182.285 260.717 181.632C262.687 180.293 262.687 178.116 260.717 176.777C259.616 176.123 258.4 175.783 257.168 175.783C255.935 175.783 254.72 176.123 253.618 176.777Z" fill="#EBEBEB"/>
<path d="M260.788 179.078C259.687 178.425 258.471 178.085 257.239 178.085C256.006 178.085 254.791 178.425 253.69 179.078C253.217 179.389 252.812 179.826 252.509 180.355C252.79 180.882 253.169 181.325 253.619 181.652C254.72 182.305 255.935 182.645 257.168 182.645C258.4 182.645 259.616 182.305 260.717 181.652C261.194 181.348 261.599 180.909 261.897 180.376C261.621 179.844 261.241 179.399 260.788 179.078Z" fill="#E0E0E0"/>
<path d="M254.089 180.355C253.084 179.149 252.218 177.791 251.516 176.316C250.318 173.826 250.105 170.498 250.717 170.09C251.329 169.682 253.841 172.999 253.841 172.999C253.612 171.621 253.523 170.216 253.574 168.813C253.681 166.595 254.142 164.628 254.675 164.188C255.207 163.749 256.449 166.574 256.928 168.594C257.408 170.613 257.754 172.277 257.754 172.277C257.951 170.701 258.247 169.144 258.641 167.62C259.271 165.528 259.83 165.046 260.274 165.256C260.717 165.465 261.001 166.438 261.161 169.242C261.207 170.576 261.171 171.912 261.054 173.24C261.054 173.24 261.942 172.099 262.918 170.979C263.894 169.86 264.453 169.598 264.763 169.828C265.074 170.059 265.154 171.921 263.486 175.521C262.656 177.332 261.594 178.981 260.336 180.407C260.336 180.407 258.055 182.113 254.089 180.355Z" fill="#BA68C8"/>
<path d="M242.837 207.342C242.925 207.296 243.001 207.224 243.057 207.132C243.113 207.04 243.148 206.932 243.157 206.819V206.013L210.14 184.039C209.903 183.895 209.64 183.82 209.373 183.82C209.106 183.82 208.842 183.895 208.605 184.039L178.933 204.234L213.175 227.538L242.837 207.342Z" fill="#BA68C8"/>
<path opacity="0.2" d="M242.837 207.342C242.925 207.296 243.001 207.224 243.057 207.132C243.113 207.04 243.148 206.932 243.157 206.819V206.013L210.14 184.039C209.903 183.895 209.64 183.82 209.373 183.82C209.106 183.82 208.842 183.895 208.605 184.039L178.933 204.234L213.175 227.538L242.837 207.342Z" fill="black"/>
<path d="M242.837 206.557C242.929 206.519 243.009 206.448 243.065 206.354C243.121 206.261 243.152 206.149 243.152 206.034C243.152 205.919 243.121 205.807 243.065 205.713C243.009 205.62 242.929 205.549 242.837 205.511L210.14 183.254C209.903 183.11 209.64 183.035 209.373 183.035C209.106 183.035 208.842 183.11 208.605 183.254L178.933 203.449L213.175 226.752L242.837 206.557Z" fill="#BA68C8"/>
<path opacity="0.5" d="M242.837 206.557C242.929 206.519 243.009 206.448 243.065 206.354C243.121 206.261 243.152 206.149 243.152 206.034C243.152 205.919 243.121 205.807 243.065 205.713C243.009 205.62 242.929 205.549 242.837 205.511L210.14 183.254C209.903 183.11 209.64 183.035 209.373 183.035C209.106 183.035 208.842 183.11 208.605 183.254L178.933 203.449L213.175 226.752L242.837 206.557Z" fill="black"/>
<path d="M185.766 198.174L207.727 183.222C207.967 183.084 208.231 183.013 208.498 183.013C208.766 183.013 209.03 183.084 209.27 183.222L239.439 203.752L242.296 201.795V205.782H242.243C242.34 206.022 242.243 206.294 241.986 206.483L216.821 223.612L182.58 200.309V195.956L185.766 198.174Z" fill="#EBEBEB"/>
<path d="M241.968 202.172C242.06 202.134 242.139 202.064 242.196 201.97C242.252 201.876 242.282 201.764 242.282 201.649C242.282 201.534 242.252 201.422 242.196 201.329C242.139 201.235 242.06 201.164 241.968 201.126L209.253 178.869C209.014 178.725 208.749 178.65 208.481 178.65C208.213 178.65 207.948 178.725 207.709 178.869L182.545 195.999L216.804 219.323L241.968 202.172Z" fill="#FAFAFA"/>
<path d="M216.804 219.292V223.655L182.563 200.352V195.999L216.804 219.292Z" fill="#E6E6E6"/>
<path d="M216.395 217.587C216.484 217.643 216.58 217.682 216.679 217.702C216.828 217.749 216.983 217.749 217.132 217.702C217.182 217.693 217.23 217.671 217.274 217.64C217.504 217.493 217.478 217.22 217.212 217.042C217.088 216.963 216.952 216.917 216.812 216.905C216.648 216.88 216.482 216.913 216.333 217C216.319 216.995 216.304 216.995 216.289 217C216.112 217.23 216.147 217.419 216.395 217.587Z" fill="#263238"/>
<path d="M212.518 220.997C212.498 221.537 212.636 222.069 212.909 222.504C213.04 222.699 213.207 222.857 213.398 222.964C213.589 223.071 213.798 223.125 214.009 223.121C214.386 223.109 214.753 222.979 215.074 222.744L215.269 222.608L214.834 222.315C213.787 223.006 212.953 222.42 212.953 220.997C212.99 220.22 213.181 219.464 213.511 218.789C213.84 218.115 214.3 217.541 214.852 217.115C215.055 216.932 215.3 216.826 215.555 216.811C215.81 216.796 216.063 216.873 216.281 217.031C216.473 217.194 216.611 217.431 216.671 217.701C216.819 217.747 216.975 217.747 217.124 217.701C217.072 217.41 216.963 217.137 216.804 216.906C216.672 216.712 216.505 216.556 216.314 216.451C216.123 216.346 215.914 216.294 215.704 216.299C215.323 216.315 214.953 216.448 214.63 216.686C214.011 217.153 213.496 217.788 213.129 218.538C212.761 219.288 212.552 220.131 212.518 220.997Z" fill="#263238"/>
<path d="M213.627 216.885L243.157 199.86V200.488C243.147 200.644 243.108 200.796 243.042 200.932C242.976 201.068 242.885 201.184 242.775 201.273L213.627 217.722V216.885Z" fill="#BA68C8"/>
<path opacity="0.2" d="M213.627 216.885L243.157 199.86V200.488C243.147 200.644 243.108 200.796 243.042 200.932C242.976 201.068 242.885 201.184 242.775 201.273L213.627 217.722V216.885Z" fill="black"/>
<path d="M242.837 200.383C243.263 200.09 243.263 199.619 242.837 199.337L210.14 177.08C209.903 176.936 209.64 176.861 209.373 176.861C209.106 176.861 208.842 176.936 208.605 177.08L178.933 193.875L213.175 217.23L242.837 200.383Z" fill="#BA68C8"/>
<path d="M213.175 227.537L178.933 204.234V193.864L213.175 217.178V227.537Z" fill="#BA68C8"/>
<path opacity="0.1" d="M213.175 227.537L178.933 204.234V193.864L213.175 217.178V227.537Z" fill="black"/>
<path d="M206.422 220.881C206.635 220.884 206.845 220.83 207.037 220.723C207.229 220.616 207.398 220.459 207.532 220.264C207.799 219.827 207.937 219.297 207.922 218.757C207.883 217.886 207.67 217.039 207.3 216.284C206.93 215.529 206.413 214.888 205.792 214.415C205.469 214.178 205.099 214.048 204.719 214.038C203.831 214.038 203.228 214.896 203.228 216.131C203.263 217.001 203.474 217.849 203.843 218.605C204.212 219.36 204.728 220 205.349 220.473C205.672 220.708 206.043 220.838 206.422 220.85V220.881Z" fill="#455A64"/>
<path d="M207.478 218.758C207.478 220.191 206.591 220.767 205.571 220.055C205.018 219.627 204.558 219.052 204.228 218.376C203.898 217.699 203.708 216.941 203.672 216.163C203.672 214.74 204.559 214.154 205.571 214.876C206.123 215.302 206.584 215.875 206.915 216.55C207.246 217.224 207.439 217.98 207.478 218.758Z" fill="#F5F5F5"/>
<path d="M200.575 213.546V214.331C200.575 215.9 199.635 216.539 198.481 215.754L183.646 205.656C183.037 205.187 182.531 204.557 182.168 203.815C181.804 203.074 181.593 202.242 181.551 201.387V200.602C181.551 199.032 182.492 198.394 183.646 199.179L198.481 209.277C199.09 209.745 199.596 210.375 199.96 211.117C200.324 211.858 200.535 212.691 200.575 213.546Z" fill="#F5F5F5"/>
<path d="M213.636 227.233V216.916L213.174 217.177V227.536L213.636 227.233Z" fill="#BA68C8"/>
<path opacity="0.2" d="M213.636 227.233V216.916L213.174 217.177V227.536L213.636 227.233Z" fill="black"/>
<path d="M179.253 192.253C179.263 192.379 179.298 192.5 179.355 192.607C179.412 192.714 179.49 192.804 179.581 192.87L213.166 215.713C213.269 215.775 213.383 215.807 213.499 215.807C213.614 215.807 213.728 215.775 213.831 215.713L243.92 197.767V196.972L209.688 173.669L179.581 191.625C179.49 191.693 179.412 191.785 179.355 191.894C179.298 192.003 179.263 192.126 179.253 192.253Z" fill="#BA68C8"/>
<path opacity="0.1" d="M213.494 215.022V215.807C213.377 215.809 213.261 215.777 213.157 215.712L179.59 192.88C179.497 192.813 179.418 192.722 179.359 192.613C179.301 192.504 179.264 192.381 179.253 192.252C179.264 192.124 179.3 192 179.358 191.891C179.417 191.782 179.496 191.691 179.59 191.625C179.404 191.75 179.404 191.949 179.59 192.074L213.157 214.928C213.259 214.997 213.376 215.029 213.494 215.022Z" fill="black"/>
<path opacity="0.5" d="M243.92 196.972L213.831 214.928C213.729 214.996 213.612 215.028 213.494 215.022C213.376 215.03 213.259 214.997 213.157 214.928L179.59 192.116C179.404 191.991 179.404 191.792 179.59 191.667L209.697 173.71L243.92 196.972Z" fill="black"/>
<path opacity="0.2" d="M243.92 196.971V197.766L213.832 215.712C213.729 215.78 213.612 215.813 213.494 215.806V215.021C213.612 215.028 213.729 214.995 213.832 214.927L243.92 196.971Z" fill="black"/>
<path d="M243.468 197.285L209.218 173.993V163.612L243.468 187.031V197.285Z" fill="#BA68C8"/>
<path opacity="0.7" d="M243.468 197.285L209.218 173.993V163.612L243.468 187.031V197.285Z" fill="black"/>
<path d="M179.67 186.665C179.547 186.759 179.445 186.886 179.371 187.035C179.297 187.184 179.254 187.351 179.244 187.523V189.616C179.251 189.787 179.293 189.955 179.367 190.102C179.441 190.25 179.545 190.374 179.67 190.463L213.077 213.191C213.206 213.272 213.349 213.314 213.494 213.314C213.64 213.314 213.783 213.272 213.911 213.191L239.421 196.93V193.697L205.189 170.394L179.67 186.665Z" fill="#EBEBEB"/>
<path d="M205.189 170.394L179.67 186.665C179.619 186.685 179.574 186.724 179.543 186.775C179.511 186.827 179.494 186.889 179.494 186.953C179.494 187.016 179.511 187.078 179.543 187.13C179.574 187.182 179.619 187.22 179.67 187.24L213.077 209.968C213.206 210.049 213.349 210.091 213.494 210.091C213.64 210.091 213.783 210.049 213.911 209.968L239.421 193.697L205.189 170.394Z" fill="#FAFAFA"/>
<path d="M236.174 193.959C236.263 194.015 236.359 194.054 236.458 194.075C236.606 194.121 236.762 194.121 236.91 194.075C236.96 194.065 237.009 194.043 237.052 194.012C237.283 193.865 237.256 193.592 236.99 193.414C236.866 193.336 236.73 193.289 236.591 193.277C236.427 193.252 236.26 193.285 236.112 193.372C235.872 193.561 235.925 193.791 236.174 193.959Z" fill="#263238"/>
<path d="M213.494 210.072V213.316C213.346 213.32 213.2 213.281 213.068 213.201L179.661 190.484C179.542 190.387 179.444 190.259 179.373 190.11C179.302 189.962 179.261 189.796 179.253 189.626V187.533C179.267 187.24 179.378 186.965 179.564 186.769C179.439 186.916 179.475 187.114 179.661 187.25L213.068 209.968C213.198 210.051 213.347 210.087 213.494 210.072Z" fill="#E6E6E6"/>
<path d="M240.637 189.47C240.367 189.301 240.063 189.223 239.758 189.243C239.453 189.264 239.159 189.382 238.907 189.585C237.721 190.575 236.882 192.041 236.546 193.708L237.114 193.812C237.419 192.344 238.155 191.051 239.19 190.16C239.409 190.008 239.656 189.918 239.909 189.899C240.063 189.897 240.214 189.948 240.344 190.045C240.614 190.327 240.818 190.686 240.937 191.087C241.057 191.488 241.088 191.918 241.027 192.337C240.974 194.492 239.936 196.92 238.702 197.757C238.439 197.955 238.126 198.044 237.815 198.008L237.194 198.427C237.414 198.581 237.666 198.66 237.922 198.657C238.277 198.647 238.623 198.524 238.924 198.301C240.326 197.349 241.471 194.723 241.533 192.326C241.601 191.8 241.555 191.261 241.398 190.761C241.242 190.262 240.979 189.817 240.637 189.47Z" fill="#263238"/>
<path d="M179.253 185.66C179.263 185.788 179.298 185.91 179.355 186.019C179.412 186.128 179.49 186.22 179.581 186.288L213.166 209.131C213.269 209.193 213.383 209.225 213.499 209.225C213.614 209.225 213.728 209.193 213.831 209.131L243.92 187.439V186.654L209.688 163.341L179.581 185.043C179.49 185.109 179.412 185.199 179.355 185.306C179.298 185.413 179.263 185.534 179.253 185.66Z" fill="#BA68C8"/>
<path opacity="0.1" d="M213.494 208.43V209.215C213.378 209.216 213.263 209.187 213.157 209.131L179.59 186.288C179.488 186.233 179.402 186.145 179.341 186.034C179.281 185.922 179.249 185.793 179.249 185.661C179.249 185.528 179.281 185.399 179.341 185.288C179.402 185.176 179.488 185.088 179.59 185.033C179.548 185.048 179.512 185.078 179.486 185.12C179.46 185.161 179.446 185.211 179.446 185.263C179.446 185.314 179.46 185.365 179.486 185.406C179.512 185.448 179.548 185.478 179.59 185.493L213.157 208.346C213.262 208.407 213.378 208.436 213.494 208.43Z" fill="black"/>
<path d="M243.92 186.654L213.831 208.346C213.726 208.406 213.611 208.435 213.494 208.43C213.378 208.435 213.262 208.407 213.157 208.346L179.59 185.493C179.548 185.478 179.512 185.447 179.486 185.406C179.46 185.365 179.445 185.314 179.445 185.263C179.445 185.211 179.46 185.161 179.486 185.119C179.512 185.078 179.548 185.048 179.59 185.033L209.696 163.341L243.92 186.654Z" fill="#BA68C8"/>
<path opacity="0.2" d="M243.92 186.655V187.44L213.832 209.132C213.727 209.192 213.611 209.22 213.494 209.215V208.431C213.611 208.435 213.727 208.407 213.832 208.347L243.92 186.655Z" fill="black"/>
<path d="M243.92 196.972V186.665L243.468 187.031V197.285L243.92 196.972Z" fill="#BA68C8"/>
<path opacity="0.2" d="M243.92 196.972V186.665L243.468 187.031V197.285L243.92 196.972Z" fill="black"/>
<path d="M242.837 186.498C242.925 186.452 243.001 186.379 243.057 186.287C243.113 186.195 243.148 186.087 243.157 185.975V185.169L210.14 163.195C209.901 163.059 209.638 162.989 209.373 162.989C209.107 162.989 208.845 163.059 208.605 163.195L178.933 183.4L213.175 206.704L242.837 186.498Z" fill="#BA68C8"/>
<path opacity="0.2" d="M242.837 186.498C242.925 186.452 243.001 186.379 243.057 186.287C243.113 186.195 243.148 186.087 243.157 185.975V185.169L210.14 163.195C209.901 163.059 209.638 162.989 209.373 162.989C209.107 162.989 208.845 163.059 208.605 163.195L178.933 183.4L213.175 206.704L242.837 186.498Z" fill="black"/>
<path d="M242.837 185.712C243.263 185.419 243.263 184.948 242.837 184.666L210.14 162.399C209.901 162.263 209.638 162.193 209.373 162.193C209.107 162.193 208.845 162.263 208.605 162.399L178.933 182.605L213.175 205.908L242.837 185.712Z" fill="#BA68C8"/>
<path opacity="0.5" d="M242.837 185.712C243.263 185.419 243.263 184.948 242.837 184.666L210.14 162.399C209.901 162.263 209.638 162.193 209.373 162.193C209.107 162.193 208.845 162.263 208.605 162.399L178.933 182.605L213.175 205.908L242.837 185.712Z" fill="black"/>
<path d="M185.766 177.331L207.727 162.378C207.966 162.233 208.23 162.158 208.499 162.158C208.767 162.158 209.032 162.233 209.271 162.378L239.439 182.908L242.296 180.941V184.938H242.243C242.266 185.004 242.278 185.076 242.277 185.148C242.277 185.22 242.264 185.291 242.24 185.357C242.216 185.423 242.182 185.483 242.138 185.533C242.094 185.583 242.043 185.623 241.986 185.649L216.822 202.768L182.563 179.559V175.196L185.766 177.331Z" fill="#EBEBEB"/>
<path d="M241.968 181.328C242.06 181.29 242.139 181.219 242.196 181.126C242.252 181.032 242.282 180.92 242.282 180.805C242.282 180.69 242.252 180.578 242.196 180.484C242.139 180.391 242.06 180.32 241.968 180.282L209.253 158.015C209.012 157.877 208.748 157.806 208.481 157.806C208.214 157.806 207.95 157.877 207.709 158.015L182.545 175.144L216.786 198.447L241.968 181.328Z" fill="#FAFAFA"/>
<path d="M216.804 198.447V202.8L182.563 179.508V175.144L216.804 198.447Z" fill="#E6E6E6"/>
<path d="M216.395 196.743C216.484 196.798 216.58 196.837 216.679 196.858C216.828 196.904 216.983 196.904 217.132 196.858C217.182 196.848 217.23 196.827 217.274 196.795C217.504 196.648 217.478 196.376 217.212 196.197C217.088 196.119 216.952 196.073 216.812 196.061C216.648 196.036 216.482 196.069 216.333 196.155C216.319 196.151 216.304 196.151 216.289 196.155C216.112 196.302 216.147 196.575 216.395 196.743Z" fill="#263238"/>
<path d="M212.518 200.154C212.498 200.694 212.636 201.226 212.909 201.66C213.04 201.856 213.207 202.014 213.398 202.121C213.589 202.228 213.798 202.282 214.009 202.278C214.386 202.266 214.753 202.136 215.074 201.901L215.269 201.765L214.834 201.472C213.787 202.163 212.953 201.577 212.953 200.154C212.99 199.376 213.181 198.62 213.511 197.946C213.84 197.272 214.3 196.698 214.852 196.272C215.055 196.088 215.3 195.982 215.555 195.968C215.81 195.953 216.063 196.029 216.281 196.188C216.473 196.35 216.611 196.587 216.671 196.858C216.819 196.904 216.975 196.904 217.124 196.858C217.072 196.566 216.963 196.294 216.804 196.062C216.672 195.869 216.505 195.713 216.314 195.608C216.123 195.503 215.914 195.45 215.704 195.455C215.324 195.467 214.954 195.597 214.63 195.832C214.012 196.302 213.497 196.939 213.13 197.691C212.762 198.443 212.553 199.287 212.518 200.154Z" fill="#263238"/>
<path d="M213.627 196.03L243.157 179.016V179.56C243.147 179.716 243.108 179.868 243.042 180.004C242.976 180.14 242.885 180.256 242.775 180.345L213.627 196.826V196.03Z" fill="#BA68C8"/>
<path opacity="0.2" d="M213.627 196.03L243.157 179.016V179.56C243.147 179.716 243.108 179.868 243.042 180.004C242.976 180.14 242.885 180.256 242.775 180.345L213.627 196.826V196.03Z" fill="black"/>
<path d="M242.837 179.56C243.263 179.277 243.263 178.807 242.837 178.514L210.14 156.225C209.901 156.09 209.638 156.02 209.373 156.02C209.107 156.02 208.845 156.09 208.605 156.225L178.933 173.03L213.175 196.302L242.837 179.56Z" fill="#BA68C8"/>
<path d="M213.175 206.693L178.933 183.39V173.01L213.175 196.334V206.693Z" fill="#BA68C8"/>
<path opacity="0.1" d="M213.175 206.693L178.933 183.39V173.01L213.175 196.334V206.693Z" fill="black"/>
<path d="M206.422 200.039C206.635 200.042 206.845 199.988 207.037 199.881C207.229 199.774 207.398 199.617 207.532 199.421C207.799 198.984 207.937 198.454 207.922 197.915C207.883 197.044 207.67 196.196 207.3 195.441C206.93 194.686 206.413 194.046 205.792 193.572C205.469 193.336 205.099 193.206 204.719 193.195C203.831 193.195 203.228 194.053 203.228 195.288C203.263 196.159 203.474 197.007 203.843 197.762C204.212 198.517 204.728 199.158 205.349 199.631C205.672 199.866 206.043 199.996 206.422 200.007V200.039Z" fill="#455A64"/>
<path d="M207.478 197.914C207.478 199.337 206.591 199.923 205.571 199.201C205.017 198.776 204.557 198.203 204.227 197.528C203.897 196.854 203.707 196.097 203.672 195.319C203.672 193.886 204.559 193.31 205.571 194.022C206.123 194.451 206.583 195.026 206.914 195.702C207.246 196.378 207.439 197.135 207.478 197.914Z" fill="#F5F5F5"/>
<path d="M200.575 192.702V193.487C200.575 195.056 199.635 195.694 198.481 194.91L183.646 184.791C183.036 184.324 182.529 183.694 182.165 182.952C181.801 182.21 181.591 181.378 181.551 180.522V179.737C181.551 178.167 182.492 177.529 183.646 178.324L198.481 188.422C199.091 188.891 199.598 189.523 199.962 190.267C200.326 191.01 200.536 191.845 200.575 192.702Z" fill="#F5F5F5"/>
<path d="M213.636 206.379V196.062L213.174 196.334V206.693L213.636 206.379Z" fill="#BA68C8"/>
<path opacity="0.2" d="M213.636 206.379V196.062L213.174 196.334V206.693L213.636 206.379Z" fill="black"/>
<path d="M179.253 170.78C179.263 170.908 179.298 171.03 179.355 171.139C179.412 171.248 179.49 171.34 179.581 171.408L213.166 194.209C213.269 194.271 213.383 194.303 213.499 194.303C213.614 194.303 213.728 194.271 213.831 194.209L243.92 176.263V175.468L209.688 152.165L179.581 170.142C179.488 170.211 179.41 170.305 179.353 170.416C179.296 170.526 179.262 170.651 179.253 170.78Z" fill="#BA68C8"/>
<path opacity="0.1" d="M213.494 193.56V194.345C213.377 194.343 213.262 194.311 213.157 194.251L179.59 171.408C179.491 171.352 179.407 171.264 179.348 171.153C179.289 171.043 179.258 170.916 179.258 170.786C179.258 170.656 179.289 170.528 179.348 170.418C179.407 170.308 179.491 170.219 179.59 170.163C179.404 170.289 179.404 170.487 179.59 170.613L213.157 193.466C213.261 193.53 213.377 193.563 213.494 193.56Z" fill="black"/>
<path opacity="0.5" d="M243.92 175.51L213.831 193.466C213.727 193.529 213.611 193.562 213.494 193.56C213.377 193.563 213.261 193.53 213.157 193.466L179.59 170.613C179.404 170.487 179.404 170.289 179.59 170.163L209.697 152.207L243.92 175.51Z" fill="black"/>
<path opacity="0.2" d="M243.92 175.51V176.306L213.832 194.209C213.729 194.277 213.612 194.31 213.494 194.303V193.519C213.612 193.52 213.727 193.487 213.832 193.424L243.92 175.51Z" fill="black"/>
<path d="M243.468 175.825L209.218 152.532V142.152L243.468 165.57V175.825Z" fill="#BA68C8"/>
<path opacity="0.7" d="M243.468 175.825L209.218 152.532V142.152L243.468 165.57V175.825Z" fill="black"/>
<path d="M179.67 165.203C179.547 165.297 179.445 165.424 179.371 165.573C179.297 165.722 179.254 165.889 179.244 166.061V168.154C179.254 168.326 179.297 168.494 179.371 168.642C179.445 168.791 179.547 168.918 179.67 169.012L213.077 191.74C213.206 191.82 213.349 191.862 213.494 191.862C213.64 191.862 213.783 191.82 213.911 191.74L239.421 175.468V172.235L205.189 148.921L179.67 165.203Z" fill="#EBEBEB"/>
<path d="M205.189 148.921L179.67 165.203C179.618 165.22 179.571 165.257 179.538 165.308C179.505 165.359 179.487 165.422 179.487 165.486C179.487 165.55 179.505 165.612 179.538 165.663C179.571 165.714 179.618 165.751 179.67 165.768L213.077 188.506C213.206 188.587 213.349 188.629 213.494 188.629C213.64 188.629 213.783 188.587 213.911 188.506L239.421 172.235L205.189 148.921Z" fill="#FAFAFA"/>
<path d="M236.174 172.498C236.263 172.553 236.359 172.592 236.458 172.613C236.606 172.659 236.762 172.659 236.91 172.613C236.96 172.603 237.009 172.582 237.052 172.55C237.283 172.403 237.256 172.131 236.99 171.952C236.866 171.874 236.73 171.828 236.591 171.816C236.427 171.791 236.26 171.823 236.112 171.91C235.872 172.099 235.925 172.33 236.174 172.498Z" fill="#263238"/>
<path d="M213.494 188.611V191.855C213.346 191.859 213.2 191.82 213.068 191.74L179.661 169.012C179.54 168.921 179.439 168.796 179.368 168.648C179.297 168.5 179.258 168.334 179.253 168.165V166.072C179.257 165.926 179.286 165.783 179.34 165.651C179.393 165.52 179.469 165.403 179.564 165.308C179.439 165.455 179.475 165.643 179.661 165.779L213.068 188.507C213.198 188.59 213.347 188.626 213.494 188.611Z" fill="#E6E6E6"/>
<path d="M240.637 168.049C240.366 167.882 240.062 167.806 239.757 167.828C239.452 167.85 239.158 167.97 238.907 168.175C237.721 169.165 236.882 170.631 236.546 172.298L237.114 172.402C237.417 170.933 238.153 169.639 239.19 168.75C239.408 168.593 239.655 168.503 239.909 168.489C240.062 168.489 240.211 168.536 240.344 168.625C240.614 168.909 240.818 169.269 240.937 169.672C241.057 170.075 241.088 170.506 241.027 170.927C240.974 173.082 239.936 175.51 238.702 176.347C238.439 176.545 238.126 176.634 237.815 176.598L237.194 177.017C237.416 177.166 237.666 177.245 237.922 177.247C238.277 177.237 238.623 177.114 238.924 176.891C240.326 175.939 241.471 173.313 241.533 170.916C241.603 170.388 241.557 169.847 241.401 169.346C241.244 168.844 240.981 168.398 240.637 168.049Z" fill="#263238"/>
<path d="M179.253 164.199C179.263 164.325 179.298 164.446 179.355 164.553C179.412 164.66 179.49 164.75 179.581 164.816L213.166 187.659C213.269 187.72 213.383 187.752 213.499 187.752C213.614 187.752 213.728 187.72 213.831 187.659L243.92 165.957V165.161L209.688 141.89L179.581 163.581C179.491 163.648 179.414 163.739 179.357 163.846C179.3 163.953 179.265 164.073 179.253 164.199Z" fill="#BA68C8"/>
<path opacity="0.1" d="M213.494 186.968V187.752C213.377 187.755 213.261 187.722 213.157 187.658L179.59 164.826C179.497 164.759 179.418 164.668 179.359 164.559C179.301 164.45 179.264 164.326 179.253 164.198C179.264 164.07 179.3 163.946 179.358 163.837C179.417 163.728 179.496 163.637 179.59 163.57C179.404 163.696 179.404 163.905 179.59 164.02L213.157 186.884C213.26 186.949 213.377 186.978 213.494 186.968Z" fill="black"/>
<path d="M243.92 165.182L213.831 186.884C213.729 186.952 213.612 186.985 213.494 186.979C213.376 186.986 213.259 186.953 213.157 186.884L179.59 164.031C179.404 163.916 179.404 163.707 179.59 163.581L209.697 141.89L243.92 165.182Z" fill="#BA68C8"/>
<path opacity="0.2" d="M243.92 165.182V165.956L213.832 187.638C213.729 187.706 213.612 187.738 213.494 187.732V186.947C213.612 186.953 213.729 186.921 213.832 186.853L243.92 165.182Z" fill="black"/>
<path d="M243.92 175.51V165.203L243.468 165.569V175.824L243.92 175.51Z" fill="#BA68C8"/>
<path opacity="0.2" d="M243.92 175.51V165.203L243.468 165.569V175.824L243.92 175.51Z" fill="black"/>
<path d="M242.837 165.025C242.925 164.982 243.001 164.911 243.057 164.821C243.114 164.73 243.148 164.624 243.157 164.512V163.706L210.14 141.732C209.901 141.597 209.638 141.526 209.373 141.526C209.107 141.526 208.845 141.597 208.605 141.732L178.933 161.938L213.175 185.231L242.837 165.025Z" fill="#BA68C8"/>
<path opacity="0.2" d="M242.837 165.025C242.925 164.982 243.001 164.911 243.057 164.821C243.114 164.73 243.148 164.624 243.157 164.512V163.706L210.14 141.732C209.901 141.597 209.638 141.526 209.373 141.526C209.107 141.526 208.845 141.597 208.605 141.732L178.933 161.938L213.175 185.231L242.837 165.025Z" fill="black"/>
<path d="M242.837 164.242C243.263 163.959 243.263 163.489 242.837 163.196L210.14 140.939C209.901 140.803 209.638 140.733 209.373 140.733C209.107 140.733 208.845 140.803 208.605 140.939L178.933 161.145L213.175 184.437L242.837 164.242Z" fill="#BA68C8"/>
<path opacity="0.5" d="M242.837 164.242C243.263 163.959 243.263 163.489 242.837 163.196L210.14 140.939C209.901 140.803 209.638 140.733 209.373 140.733C209.107 140.733 208.845 140.803 208.605 140.939L178.933 161.145L213.175 184.437L242.837 164.242Z" fill="black"/>
<path d="M185.766 155.86L207.727 140.917C207.966 140.773 208.23 140.698 208.499 140.698C208.767 140.698 209.032 140.773 209.271 140.917L239.439 161.447L242.296 159.48V163.477H242.243C242.341 163.728 242.243 163.99 241.986 164.189L216.804 181.339L182.563 158.047V153.683L185.766 155.86Z" fill="#EBEBEB"/>
<path d="M241.968 159.856C242.06 159.817 242.139 159.747 242.196 159.653C242.252 159.559 242.282 159.447 242.282 159.332C242.282 159.217 242.252 159.105 242.196 159.012C242.139 158.918 242.06 158.847 241.968 158.809L209.253 136.552C209.014 136.408 208.749 136.333 208.481 136.333C208.213 136.333 207.948 136.408 207.709 136.552L182.545 153.682L216.786 176.985L241.968 159.856Z" fill="#FAFAFA"/>
<path d="M216.804 176.986V181.339L182.563 158.047V153.683L216.804 176.986Z" fill="#E6E6E6"/>
<path d="M216.395 175.282C216.484 175.338 216.58 175.377 216.679 175.398C216.828 175.444 216.983 175.444 217.132 175.398C217.168 175.396 217.204 175.389 217.238 175.377C217.469 175.23 217.442 174.957 217.176 174.779C217.053 174.701 216.917 174.654 216.777 174.643C216.613 174.617 216.446 174.65 216.298 174.737C216.283 174.733 216.268 174.733 216.254 174.737C216.112 174.884 216.147 175.115 216.395 175.282Z" fill="#263238"/>
<path d="M212.518 178.691C212.498 179.232 212.636 179.764 212.909 180.198C213.04 180.394 213.207 180.551 213.398 180.658C213.589 180.765 213.798 180.819 214.009 180.815C214.386 180.803 214.753 180.673 215.074 180.439L215.269 180.303L214.834 180.01C213.787 180.7 212.953 180.114 212.953 178.691C212.99 177.914 213.181 177.158 213.511 176.484C213.84 175.809 214.3 175.236 214.852 174.809C215.055 174.626 215.3 174.52 215.555 174.505C215.81 174.49 216.063 174.567 216.281 174.725C216.473 174.888 216.611 175.125 216.671 175.395C216.819 175.441 216.975 175.441 217.124 175.395C217.072 175.104 216.963 174.831 216.804 174.6C216.672 174.406 216.505 174.251 216.314 174.145C216.123 174.04 215.914 173.988 215.704 173.993C215.324 174.005 214.954 174.135 214.63 174.37C214.012 174.839 213.497 175.477 213.13 176.228C212.762 176.98 212.553 177.825 212.518 178.691Z" fill="#263238"/>
<path d="M213.627 174.569L243.157 157.586V158.151C243.147 158.307 243.108 158.459 243.042 158.595C242.976 158.73 242.885 158.847 242.775 158.936L213.627 175.375V174.569Z" fill="#BA68C8"/>
<path opacity="0.2" d="M213.627 174.569L243.157 157.586V158.151C243.147 158.307 243.108 158.459 243.042 158.595C242.976 158.73 242.885 158.847 242.775 158.936L213.627 175.375V174.569Z" fill="black"/>
<path d="M242.837 158.067C243.263 157.784 243.263 157.313 242.837 157.02L210.14 134.764C209.903 134.62 209.64 134.544 209.373 134.544C209.106 134.544 208.842 134.62 208.605 134.764L178.933 151.558L213.175 174.861L242.837 158.067Z" fill="#BA68C8"/>
<path d="M213.175 185.221L178.933 161.928V151.548L213.175 174.861V185.221Z" fill="#BA68C8"/>
<path opacity="0.1" d="M213.175 185.221L178.933 161.928V151.548L213.175 174.861V185.221Z" fill="black"/>
<path d="M206.422 178.565C206.635 178.568 206.845 178.514 207.037 178.407C207.229 178.3 207.398 178.143 207.532 177.948C207.801 177.511 207.938 176.981 207.922 176.441C207.884 175.572 207.671 174.725 207.301 173.972C206.931 173.218 206.414 172.58 205.792 172.109C205.469 171.873 205.099 171.743 204.719 171.732C203.831 171.732 203.228 172.58 203.228 173.825C203.262 174.695 203.472 175.542 203.841 176.296C204.21 177.049 204.727 177.688 205.349 178.157C205.672 178.392 206.043 178.522 206.422 178.534V178.565Z" fill="#455A64"/>
<path d="M207.478 176.421C207.478 177.854 206.591 178.43 205.571 177.718C205.017 177.293 204.557 176.72 204.227 176.045C203.897 175.371 203.707 174.614 203.672 173.836C203.672 172.403 204.559 171.827 205.571 172.539C206.123 172.966 206.583 173.539 206.914 174.213C207.245 174.887 207.439 175.643 207.478 176.421Z" fill="#F5F5F5"/>
<path d="M200.575 171.24V172.025C200.575 173.595 199.635 174.233 198.481 173.448L183.646 163.34C183.037 162.872 182.53 162.242 182.167 161.5C181.803 160.759 181.592 159.926 181.551 159.071V158.286C181.551 156.717 182.492 156.078 183.646 156.863L198.481 167.003C199.087 167.466 199.592 168.091 199.956 168.828C200.32 169.564 200.532 170.39 200.575 171.24Z" fill="#F5F5F5"/>
<path d="M213.636 184.918V174.601L213.174 174.863V185.222L213.636 184.918Z" fill="#BA68C8"/>
<path opacity="0.2" d="M213.636 184.918V174.601L213.174 174.863V185.222L213.636 184.918Z" fill="black"/>
<path d="M226.6 133.236C221.276 131.415 202.306 125.147 196.538 122.95C192.519 121.412 190.327 120.323 190.247 116.232C190.141 112.423 194.932 81.2302 196.662 73.5392C198.189 66.8005 204.205 61.7045 209.369 61.3174C211.099 68.0561 211.96 83.2916 207.417 88.0213C205.731 95.9425 203.761 110.351 203.761 110.351C203.761 110.351 213.477 116.305 221.188 120.69C225.039 122.877 230.194 124.875 233.264 125.252C235.704 125.555 240.078 126.905 241.01 127.92C243.256 130.611 245.349 133.474 247.275 136.49C248.162 138.175 250.212 141.597 247.275 142.695C244.613 143.689 242.412 142.34 240.229 140.602C239.207 139.734 238.235 138.787 237.319 137.767C235.144 138.046 232.949 137.535 231.028 136.302C229.369 135.161 226.6 133.236 226.6 133.236Z" fill="#FFA8A7"/>
<path d="M323.343 137.097L326.892 86.7134C326.928 85.8945 326.783 85.0785 326.472 84.3451C326.161 83.6116 325.695 82.9856 325.118 82.5278C324.486 82.1624 323.79 81.9794 323.086 81.994C322.383 82.0085 321.692 82.2202 321.072 82.6116L274.293 114.464C273.675 114.939 273.15 115.565 272.755 116.299C272.36 117.034 272.104 117.861 272.003 118.723L268.454 169.096C268.418 169.915 268.562 170.731 268.873 171.465C269.184 172.199 269.651 172.824 270.229 173.281C270.864 173.64 271.562 173.819 272.266 173.803C272.97 173.786 273.661 173.575 274.284 173.187L321.054 141.346C321.671 140.872 322.195 140.248 322.59 139.515C322.985 138.782 323.242 137.957 323.343 137.097Z" fill="#E0E0E0"/>
<path d="M323.343 137.097L326.892 86.7134C326.928 85.8945 326.783 85.0785 326.472 84.3451C326.161 83.6116 325.695 82.9856 325.118 82.5278C324.486 82.1624 323.79 81.9794 323.086 81.994C322.383 82.0085 321.692 82.2202 321.072 82.6116L274.293 114.464C273.671 114.918 273.148 115.538 272.767 116.274L280.043 121.223V169.263L321.054 141.346C321.671 140.872 322.195 140.248 322.59 139.515C322.985 138.782 323.242 137.957 323.343 137.097Z" fill="#FAFAFA"/>
<path d="M272.385 171.785L275.934 121.412C276.033 120.551 276.288 119.725 276.681 118.99C277.075 118.255 277.597 117.628 278.214 117.153L324.993 85.3008C326.147 84.516 326.999 85.1543 326.892 86.7135L323.343 137.097C323.243 137.957 322.987 138.781 322.594 139.514C322.201 140.246 321.678 140.871 321.062 141.346L274.284 173.198C273.139 173.982 272.252 173.355 272.385 171.785Z" fill="#F0F0F0"/>
<path d="M296.528 131.363C296.661 130.011 297.034 128.708 297.625 127.54C298.215 126.371 299.009 125.363 299.953 124.582C301.666 123.41 302.908 124.582 302.731 127.135C302.6 128.489 302.227 129.794 301.636 130.964C301.046 132.135 300.251 133.145 299.306 133.927C297.593 135.088 296.351 133.947 296.528 131.363Z" fill="#BA68C8"/>
<path d="M295.712 147.938L311.391 137.255L309.43 135.926L293.76 146.599L295.712 147.938Z" fill="#FAFAFA"/>
<path d="M314.47 161.844L300.468 171.377C300.197 171.552 299.89 171.635 299.581 171.617C299.315 171.609 299.055 171.53 298.818 171.387L292.607 167.202C292.369 167.017 292.172 166.768 292.033 166.474C291.894 166.181 291.817 165.853 291.808 165.517V165.13C291.808 164.502 292.172 164.24 292.642 164.554L296.36 167.087L297.194 167.652L297.008 166.542L293.778 146.661L295.73 148L311.409 137.327L315.145 160.222C315.171 160.54 315.122 160.86 315.003 161.146C314.884 161.433 314.699 161.674 314.47 161.844Z" fill="#F5F5F5"/>
<path d="M292.047 164.44L296.821 161.186L297.797 168.761L292.047 164.44Z" fill="#E0E0E0"/>
<path d="M295.712 147.939L293.76 146.599L296.99 166.481C297.096 167.087 296.804 167.339 296.342 167.025L292.66 164.513C292.19 164.199 291.826 164.461 291.826 165.089V165.476C291.834 165.812 291.912 166.14 292.051 166.433C292.19 166.727 292.386 166.976 292.624 167.161L298.836 171.346C299.072 171.489 299.333 171.568 299.599 171.576L295.712 147.939Z" fill="#EBEBEB"/>
<path d="M232.208 69.9816C231.32 72.1267 229.794 72.9219 227.132 73.0684C225.808 73.0713 224.497 72.7595 223.278 72.1519C222.058 71.5442 220.955 70.6531 220.034 69.5317L223.45 65.9216L227.416 69.9293L227.993 65.8379L232.208 69.9816Z" fill="#BA68C8"/>
<path opacity="0.1" d="M232.208 69.9816C231.32 72.1267 229.794 72.9219 227.132 73.0684C225.808 73.0713 224.497 72.7595 223.278 72.1519C222.058 71.5442 220.955 70.6531 220.034 69.5317L223.45 65.9216L227.416 69.9293L227.993 65.8379L232.208 69.9816Z" fill="black"/>
<path d="M230.202 68.6426C230.512 70.0065 230.584 71.4303 230.415 72.8281C230.221 74.0721 229.753 75.234 229.058 76.1975C228.623 76.4782 228.139 76.6374 227.643 76.6628C227.148 76.6882 226.654 76.5791 226.2 76.344C225.397 75.4261 224.773 74.3136 224.37 73.0833C223.967 71.853 223.795 70.5343 223.867 69.2181L227.416 69.9715L230.202 68.6426Z" fill="#BA68C8"/>
<path d="M229.058 76.1553C229.058 76.1553 231.826 104.282 231.879 106.501C231.933 108.719 228.871 116.536 227.239 116.483C225.606 116.431 222.802 108.97 222.864 106.93C222.926 104.889 226.201 76.2704 226.201 76.2704L229.058 76.1553Z" fill="#BA68C8"/>
<path opacity="0.1" d="M226.2 76.3017C226.645 76.5765 227.144 76.7076 227.645 76.6819C228.147 76.6562 228.634 76.4745 229.057 76.1553V76.5946C228.63 76.9524 228.135 77.1821 227.616 77.2641C227.096 77.3461 226.568 77.2779 226.076 77.0654L226.2 76.3017Z" fill="black"/>
<path d="M227.452 69.9299L215.801 58.179L215.881 54.5898C215.881 54.5898 214.222 54.9561 212.199 60.7635C213.868 66.2725 216.974 71.0163 221.072 74.3143L223.885 69.187L227.452 69.9299Z" fill="#E0E0E0"/>
<path d="M228.889 56.8911C228.889 56.8911 230.513 57.4143 231.773 60.4593C232.793 62.9288 232.918 71.9173 232.918 71.9173L230.202 68.6421L227.452 69.9605C227.869 66.9992 228.65 61.5894 228.65 61.5894L228.889 56.8911Z" fill="#E0E0E0"/>
<path d="M209.368 61.3167C209.368 61.3167 203.716 60.804 199.919 64.9896C196.121 69.1751 195.482 72.7643 193.929 83.3119C192.376 93.8595 191.347 102.848 191.347 102.848C191.347 102.848 197.683 108.132 205.455 106.123L208.117 88.5125C209.567 85.1457 210.673 81.5874 211.409 77.9125C212.58 70.7343 211.241 63.6502 209.368 61.3167Z" fill="#E0E0E0"/>
<path d="M366.263 107.524C372.912 98.633 376.823 62.4474 370.33 55.3926H337.36C330.867 62.4354 334.777 98.5851 341.426 107.512L341.6 107.751L341.829 108.051C342.021 108.291 342.223 108.519 342.433 108.747L342.589 108.915C342.754 109.083 342.919 109.251 343.093 109.407C343.368 109.671 343.655 109.911 343.954 110.127C349.449 114.266 358.296 114.266 363.772 110.127C364.071 109.911 364.358 109.671 364.633 109.407L365.1 108.939L365.302 108.735C365.503 108.519 365.696 108.291 365.879 108.063L366.144 107.727L366.263 107.524Z" fill="#37474F"/>
<path d="M340.19 52.5482C332.653 58.2472 332.653 67.4856 340.19 73.1846C347.727 78.8836 359.935 78.8716 367.464 73.1846C374.992 67.4976 374.992 58.2472 367.464 52.5482C359.935 46.8492 347.718 46.8492 340.19 52.5482Z" fill="#455A64"/>
<path d="M343.807 55.2854C338.312 59.4726 338.312 66.2515 343.807 70.4387C349.302 74.626 358.314 74.626 363.837 70.4387C369.359 66.2515 369.332 59.4726 363.837 55.2854C358.342 51.0981 349.339 51.1101 343.807 55.2854Z" fill="#37474F"/>
<path d="M363.827 62.4837C358.332 58.2964 349.33 58.2964 343.798 62.4837C342.461 63.4321 341.323 64.7958 340.483 66.455C341.322 68.1181 342.461 69.4858 343.798 70.4383C349.293 74.6256 358.296 74.6256 363.827 70.4383C365.168 69.4923 366.307 68.1232 367.143 66.455C366.306 64.7912 365.167 63.4264 363.827 62.4837Z" fill="#E0E0E0"/>
<g style="mix-blend-mode:multiply">
<path d="M363.827 62.4837C358.332 58.2964 349.33 58.2964 343.798 62.4837C342.461 63.4321 341.323 64.7958 340.483 66.455C341.322 68.1181 342.461 69.4858 343.798 70.4383C349.293 74.6256 358.296 74.6256 363.827 70.4383C365.168 69.4923 366.307 68.1232 367.143 66.455C366.306 64.7912 365.167 63.4264 363.827 62.4837Z" fill="#263238"/>
</g>
<path d="M359.999 66.4785C361.602 60.1196 363.836 48.4816 372.143 39.7591C380.66 30.7847 389.059 23.6819 386.164 17.791C383.527 12.4399 375.596 11.648 366.529 20.8144C357.728 29.6929 353.753 50.0653 354.532 63.575L359.999 66.4785Z" fill="#BA68C8"/>
<g opacity="0.1">
<path d="M359.999 66.4785C361.601 60.1196 363.836 48.4816 372.143 39.7591C380.66 30.7847 389.058 23.6819 386.164 17.791C383.526 12.4399 375.595 11.648 366.529 20.8144C357.727 29.6929 353.753 50.0653 354.531 63.575L359.999 66.4785Z" fill="black"/>
</g>
<path d="M355.951 64.9551H355.887C355.826 64.9463 355.766 64.9214 355.713 64.8819C355.659 64.8424 355.612 64.7892 355.574 64.7254C355.537 64.6615 355.509 64.5884 355.494 64.5104C355.478 64.4323 355.475 64.351 355.484 64.2712C358.634 32.3448 373.801 18.2112 381.21 17.7433C381.272 17.735 381.334 17.7436 381.393 17.7686C381.453 17.7937 381.507 17.8346 381.554 17.8887C381.6 17.9429 381.638 18.0091 381.663 18.0832C381.689 18.1573 381.703 18.2377 381.704 18.3192C381.709 18.484 381.665 18.6449 381.582 18.768C381.498 18.8911 381.381 18.9668 381.255 18.9791C375.76 19.315 359.752 30.7371 356.418 64.4272C356.402 64.5745 356.346 64.7094 356.261 64.8065C356.175 64.9037 356.064 64.9565 355.951 64.9551Z" fill="white"/>
<path d="M347.883 67.9667C347.667 66.176 347.127 64.4791 346.308 63.0179C345.489 61.5567 344.415 60.3738 343.176 59.5681C340.474 57.6485 337.186 59.5681 334.017 53.7731C330.849 47.9781 333.624 43.275 333.102 40.4675C332.579 37.6599 332.03 35.8243 328.422 33.8086C324.813 31.793 323.842 28.8295 325.088 22.1826C326.334 15.5358 326.269 13.5201 323.183 10.6047C320.097 7.68916 319.95 3.99381 323.183 1.55823C326.416 -0.877346 332.167 -0.841357 336.719 4.44972C341.271 9.7408 341.848 12.0204 346.857 12.6563C351.867 13.2922 354.733 13.5561 355.869 17.4555C357.005 21.3548 356.419 24.3783 355.869 28.0256C355.611 29.6906 355.784 31.4208 356.361 32.9421C356.939 34.4634 357.887 35.6889 359.056 36.4242C361.245 37.7799 364.89 38.8237 366.245 44.0548C367.601 49.2859 364.597 59.9521 360.75 66.5029C360.705 66.4789 359.789 70.3063 347.883 67.9667Z" fill="#BA68C8"/>
<path d="M356.263 68.5789C356.201 68.5789 356.139 68.5627 356.082 68.5312C356.025 68.4997 355.973 68.4535 355.929 68.3954C355.886 68.3374 355.851 68.2685 355.828 68.1929C355.806 68.1172 355.794 68.0364 355.796 67.955C355.647 57.7193 353.905 47.631 350.676 38.3082C345.52 23.7307 329.044 6.5137 328.037 5.72184C327.98 5.698 327.927 5.65889 327.883 5.60702C327.838 5.55514 327.802 5.49163 327.777 5.42053C327.752 5.34943 327.738 5.2723 327.737 5.19404C327.737 5.11578 327.748 5.03811 327.771 4.96597C327.82 4.80984 327.913 4.68427 328.031 4.61509C328.148 4.5459 328.281 4.53837 328.403 4.59403C328.971 4.83399 346.106 22.4349 351.528 37.7803C354.812 47.2786 356.585 57.5536 356.739 67.979C356.739 68.0598 356.727 68.1399 356.702 68.2142C356.678 68.2886 356.643 68.3559 356.598 68.4119C356.554 68.4679 356.501 68.5116 356.444 68.5403C356.386 68.569 356.324 68.5821 356.263 68.5789Z" fill="white"/>
<path d="M345.364 27.2232C345.288 27.2237 345.212 27.1989 345.144 27.1511C341.692 24.6662 333.44 26.4309 333.358 26.4549C333.234 26.476 333.109 26.4342 333.009 26.3382C332.908 26.2421 332.84 26.0991 332.817 25.9387C332.807 25.859 332.809 25.7775 332.822 25.6986C332.836 25.6198 332.861 25.5454 332.897 25.4795C332.933 25.4137 332.978 25.3578 333.031 25.315C333.083 25.2722 333.141 25.2435 333.202 25.2304C333.55 25.1584 341.866 23.3817 345.593 26.0707C345.648 26.1096 345.696 26.1623 345.735 26.2258C345.774 26.2893 345.802 26.3623 345.819 26.4405C345.836 26.5187 345.841 26.6006 345.834 26.6814C345.827 26.7622 345.807 26.8403 345.776 26.911C345.736 27.0076 345.676 27.0878 345.604 27.1428C345.531 27.1978 345.448 27.2256 345.364 27.2232Z" fill="white"/>
<path d="M355.411 57.0368C355.296 57.0536 355.181 57.0154 355.086 56.9292C354.991 56.843 354.924 56.7147 354.896 56.5681C354.868 56.4215 354.881 56.2666 354.934 56.1321C354.987 55.9977 355.075 55.8928 355.182 55.837C359.065 53.0775 362.032 45.2788 362.06 45.2069C362.082 45.1238 362.117 45.0478 362.163 44.9839C362.21 44.92 362.265 44.8695 362.327 44.8359C362.39 44.8023 362.456 44.7863 362.523 44.7888C362.591 44.7914 362.656 44.8125 362.717 44.8508C362.777 44.8892 362.831 44.9438 362.874 45.0111C362.917 45.0785 362.949 45.1571 362.968 45.2417C362.986 45.3263 362.99 45.415 362.981 45.502C362.971 45.5891 362.948 45.6725 362.912 45.7468C362.783 46.0827 359.77 53.9773 355.631 56.9288C355.566 56.9892 355.49 57.0264 355.411 57.0368Z" fill="white"/>
<defs>
<linearGradient id="paint0_linear_3992_60676" x1="240.287" y1="118.851" x2="157.109" y2="313.234" gradientUnits="userSpaceOnUse">
<stop stop-color="#4C1D95" stop-opacity="0"/>
<stop offset="1" stop-color="#881D95" stop-opacity="0.39"/>
</linearGradient>
</defs>
</svg>
