<svg width="24" height="24" viewBox="0 0 24 24" fill="none" xmlns="http://www.w3.org/2000/svg">
<path d="M12.6988 3.45308L14.9056 8.09874C14.9558 8.21666 15.0347 8.31879 15.1346 8.39497C15.2344 8.47115 15.3516 8.51871 15.4746 8.53292L20.3461 9.28548C20.4871 9.30439 20.6201 9.36475 20.7295 9.45952C20.8389 9.55429 20.9201 9.67956 20.9638 9.82069C21.0075 9.96183 21.0117 10.113 20.9761 10.2566C20.9404 10.4001 20.8663 10.5301 20.7625 10.6314L17.2511 14.264C17.1615 14.3513 17.0942 14.4606 17.0554 14.5819C17.0167 14.7033 17.0076 14.8328 17.029 14.9587L17.8756 20.0675C17.9002 20.2143 17.8847 20.3653 17.8309 20.5034C17.7772 20.6414 17.6874 20.761 17.5717 20.8485C17.456 20.9359 17.3191 20.9878 17.1765 20.9981C17.034 21.0084 16.8915 20.9768 16.7653 20.9069L12.3796 18.49C12.2673 18.4325 12.1439 18.4026 12.0188 18.4026C11.8937 18.4026 11.7702 18.4325 11.6579 18.49L7.27219 20.9069C7.14602 20.9768 7.00355 21.0084 6.861 20.9981C6.71845 20.9878 6.58154 20.9359 6.46585 20.8485C6.35016 20.761 6.26034 20.6414 6.2066 20.5034C6.15287 20.3653 6.13737 20.2143 6.16189 20.0675L7.0085 14.9008C7.02995 14.7749 7.02088 14.6454 6.98209 14.524C6.94331 14.4027 6.87605 14.2934 6.78643 14.2061L3.23345 10.6314C3.12833 10.5274 3.05441 10.3937 3.02063 10.2468C2.98686 10.0998 2.99468 9.94575 3.04315 9.80331C3.09162 9.66087 3.17866 9.53614 3.29372 9.44423C3.40879 9.35232 3.54694 9.29718 3.69145 9.28548L8.56293 8.53292C8.68589 8.51871 8.80314 8.47115 8.90298 8.39497C9.00282 8.31879 9.08177 8.21666 9.13196 8.09874L11.3387 3.45308C11.3988 3.31778 11.4948 3.20322 11.6153 3.12294C11.7358 3.04266 11.8758 3 12.0188 3C12.1618 3 12.3018 3.04266 12.4223 3.12294C12.5428 3.20322 12.6387 3.31778 12.6988 3.45308Z" stroke="white" stroke-width="1.6" stroke-linecap="round" stroke-linejoin="round"/>
</svg>
