<svg width="24" height="24" viewBox="0 0 24 24" fill="none" xmlns="http://www.w3.org/2000/svg">
<path d="M6.73913 13.5084L10.2084 16.2837C10.3015 16.3605 10.4106 16.4155 10.5277 16.4447C10.6448 16.474 10.767 16.4768 10.8853 16.453C11.0047 16.4306 11.118 16.3827 11.2172 16.3126C11.3165 16.2425 11.3996 16.1519 11.4607 16.0468L16.893 6.73913M6.07692 1H17.9231C20.727 1 23 3.27302 23 6.07692V17.9231C23 20.727 20.727 23 17.9231 23H6.07692C3.27302 23 1 20.727 1 17.9231V6.07692C1 3.27302 3.27302 1 6.07692 1Z" stroke="#4E1E96" stroke-width="2" stroke-linecap="round" stroke-linejoin="round"/>
</svg>
