<svg width="276" height="152" viewBox="0 0 276 152" fill="none" xmlns="http://www.w3.org/2000/svg">
<g filter="url(#filter0_f_796_8708)">
<path d="M153.001 66.4692L139.869 59.1697C139.663 59.0612 139.432 59.0043 139.198 59.0043C138.963 59.0043 138.733 59.0612 138.527 59.1697L129.566 63.0694C129.461 62.3916 129.554 61.699 129.834 61.0696L140.158 40.8709C140.415 40.3577 140.461 39.7695 140.289 39.2243C140.117 38.6791 139.738 38.2171 139.229 37.931L128.038 31.6114L114.968 24.3319C114.457 24.0581 113.859 23.9781 113.29 24.1075C112.722 24.2368 112.223 24.5663 111.891 25.0319L98.9863 43.8107C98.5558 44.3815 97.9694 44.8248 97.2931 45.0906L96.302 35.5512C96.291 35.3245 96.2255 35.1035 96.1108 34.9056C95.9961 34.7077 95.8353 34.5385 95.6413 34.4113L82.4886 27.0917C82.2645 26.9901 82.0165 26.9477 81.7699 26.9687C81.5234 26.9898 81.2869 27.0736 81.0846 27.2117L63.6372 36.9511C63.082 37.3065 62.6109 37.7719 62.255 38.3166C61.899 38.8612 61.6664 39.4728 61.5724 40.1109L59.8173 58.9097C59.6196 60.2363 58.9818 61.4646 58.0003 62.4095C54.5523 65.5361 51.3176 68.8762 48.3165 72.4088C47.8946 72.8624 47.3491 73.1912 46.7427 73.3575C46.1362 73.5238 45.4937 73.5208 44.8889 73.3488L33.6978 69.569C33.1206 69.3914 32.4987 69.4051 31.9304 69.6079C31.362 69.8107 30.8796 70.1911 30.5594 70.6889L17.6751 92.1076C17.3833 92.624 17.2796 93.2206 17.3808 93.8011C17.4819 94.3817 17.782 94.9123 18.2326 95.3074L27.2144 102.807C27.6685 103.228 27.9907 103.765 28.1441 104.356C28.2975 104.947 28.2758 105.567 28.0816 106.147C26.3931 110.415 25.0133 114.792 23.952 119.246C23.5817 120.543 22.7932 121.692 21.7014 122.526L5.78196 133.385C5.25758 133.783 4.82763 134.285 4.52125 134.858C4.21487 135.431 4.03924 136.06 4.00624 136.705V156.203C3.98235 156.448 4.02732 156.694 4.13639 156.916C4.24546 157.138 4.41454 157.327 4.62568 157.463L17.7577 164.763C17.9689 164.867 18.2023 164.921 18.4391 164.921C18.6758 164.921 18.9093 164.867 19.1205 164.763L28.0816 160.763C28.1873 161.441 28.0943 162.134 27.8132 162.763L17.4893 182.982C17.2358 183.493 17.1884 184.078 17.3564 184.622C17.5244 185.166 17.8958 185.629 18.3978 185.922L34.1727 194.701L42.8035 199.601C43.3154 199.885 43.9196 199.971 44.4943 199.841C45.069 199.711 45.5715 199.375 45.9007 198.901L58.7849 180.122C59.2254 179.557 59.8185 179.121 60.4987 178.862L61.4898 188.381C61.4943 188.612 61.5568 188.838 61.6719 189.041C61.7871 189.243 61.9513 189.415 62.1505 189.541L75.2619 196.821C75.4809 196.946 75.7304 197.012 75.9846 197.012C76.2387 197.012 76.4882 196.946 76.7073 196.821L94.134 187.062C94.6905 186.712 95.1628 186.251 95.5191 185.709C95.8753 185.167 96.1071 184.558 96.1988 183.922L97.9539 165.123C98.1799 163.787 98.8378 162.554 99.8328 161.603C103.298 158.487 106.541 155.147 109.537 151.604C109.957 151.147 110.501 150.814 111.108 150.644C111.714 150.474 112.358 150.474 112.965 150.644L124.156 154.444C124.735 154.619 125.359 154.603 125.927 154.396C126.496 154.19 126.977 153.805 127.294 153.304L140.117 131.805C140.405 131.288 140.507 130.692 140.406 130.112C140.305 129.533 140.007 129.002 139.559 128.605L130.577 121.106C130.117 120.684 129.791 120.144 129.638 119.548C129.484 118.953 129.509 118.328 129.71 117.746C131.383 113.479 132.762 109.11 133.84 104.667C134.206 103.372 134.987 102.224 136.07 101.387L152.01 90.5277C152.528 90.1247 152.954 89.6212 153.26 89.0495C153.566 88.4778 153.745 87.8506 153.786 87.2079V67.7091C153.792 67.4512 153.721 67.1971 153.582 66.9771C153.443 66.7572 153.241 66.5808 153.001 66.4692ZM55.9562 132.085C55.9562 113.886 69.1501 91.7476 85.4206 82.6482C91.7802 79.0884 97.6648 78.0685 102.496 79.2084C104.974 82.5682 106.316 87.6679 106.316 94.3474C106.316 112.546 93.1223 134.665 76.8311 143.764C70.4716 147.324 65.0619 148.484 60.8291 147.504C57.7525 144.024 55.9562 138.785 55.9562 132.085Z" fill="#BA68C8"/>
<path opacity="0.2" d="M153.001 66.4692L139.869 59.1697C139.663 59.0612 139.432 59.0043 139.198 59.0043C138.963 59.0043 138.733 59.0612 138.527 59.1697L129.566 63.0694C129.461 62.3916 129.554 61.699 129.834 61.0696L140.158 40.8709C140.415 40.3577 140.461 39.7695 140.289 39.2243C140.117 38.6791 139.738 38.2171 139.229 37.931L128.038 31.6114L114.968 24.3319C114.457 24.0581 113.859 23.9781 113.29 24.1075C112.722 24.2368 112.223 24.5663 111.891 25.0319L98.9863 43.8107C98.5558 44.3815 97.9694 44.8248 97.2931 45.0906L96.302 35.5512C96.291 35.3245 96.2255 35.1035 96.1108 34.9056C95.9961 34.7077 95.8353 34.5385 95.6413 34.4113L82.4886 27.0917C82.2645 26.9901 82.0165 26.9477 81.7699 26.9687C81.5234 26.9898 81.2869 27.0736 81.0846 27.2117L63.6372 36.9511C63.082 37.3065 62.6109 37.7719 62.255 38.3166C61.899 38.8612 61.6664 39.4728 61.5724 40.1109L59.8173 58.9097C59.6196 60.2363 58.9818 61.4646 58.0003 62.4095C54.5523 65.5361 51.3176 68.8762 48.3165 72.4088C47.8946 72.8624 47.3491 73.1912 46.7427 73.3575C46.1362 73.5238 45.4937 73.5208 44.8889 73.3488L33.6978 69.569C33.1206 69.3914 32.4987 69.4051 31.9304 69.6079C31.362 69.8107 30.8796 70.1911 30.5594 70.6889L17.6751 92.1076C17.3833 92.624 17.2796 93.2206 17.3808 93.8011C17.4819 94.3817 17.782 94.9123 18.2326 95.3074L27.2144 102.807C27.6685 103.228 27.9907 103.765 28.1441 104.356C28.2975 104.947 28.2758 105.567 28.0816 106.147C26.3931 110.415 25.0133 114.792 23.952 119.246C23.5817 120.543 22.7932 121.692 21.7014 122.526L5.78196 133.385C5.25758 133.783 4.82763 134.285 4.52125 134.858C4.21487 135.431 4.03924 136.06 4.00624 136.705V156.203C3.98235 156.448 4.02732 156.694 4.13639 156.916C4.24546 157.138 4.41454 157.327 4.62568 157.463L17.7577 164.763C17.9689 164.867 18.2023 164.921 18.4391 164.921C18.6758 164.921 18.9093 164.867 19.1205 164.763L28.0816 160.763C28.1873 161.441 28.0943 162.134 27.8132 162.763L17.4893 182.982C17.2358 183.493 17.1884 184.078 17.3564 184.622C17.5244 185.166 17.8958 185.629 18.3978 185.922L34.1727 194.701L42.8035 199.601C43.3154 199.885 43.9196 199.971 44.4943 199.841C45.069 199.711 45.5715 199.375 45.9007 198.901L58.7849 180.122C59.2254 179.557 59.8185 179.121 60.4987 178.862L61.4898 188.381C61.4943 188.612 61.5568 188.838 61.6719 189.041C61.7871 189.243 61.9513 189.415 62.1505 189.541L75.2619 196.821C75.4809 196.946 75.7304 197.012 75.9846 197.012C76.2387 197.012 76.4882 196.946 76.7073 196.821L94.134 187.062C94.6905 186.712 95.1628 186.251 95.5191 185.709C95.8753 185.167 96.1071 184.558 96.1988 183.922L97.9539 165.123C98.1799 163.787 98.8378 162.554 99.8328 161.603C103.298 158.487 106.541 155.147 109.537 151.604C109.957 151.147 110.501 150.814 111.108 150.644C111.714 150.474 112.358 150.474 112.965 150.644L124.156 154.444C124.735 154.619 125.359 154.603 125.927 154.396C126.496 154.19 126.977 153.805 127.294 153.304L140.117 131.805C140.405 131.288 140.507 130.692 140.406 130.112C140.305 129.533 140.007 129.002 139.559 128.605L130.577 121.106C130.117 120.684 129.791 120.144 129.638 119.548C129.484 118.953 129.509 118.328 129.71 117.746C131.383 113.479 132.762 109.11 133.84 104.667C134.206 103.372 134.987 102.224 136.07 101.387L152.01 90.5277C152.528 90.1247 152.954 89.6212 153.26 89.0495C153.566 88.4778 153.745 87.8506 153.786 87.2079V67.7091C153.792 67.4512 153.721 67.1971 153.582 66.9771C153.443 66.7572 153.241 66.5808 153.001 66.4692ZM55.9562 132.085C55.9562 113.886 69.1501 91.7476 85.4206 82.6482C91.7802 79.0884 97.6648 78.0685 102.496 79.2084C104.974 82.5682 106.316 87.6679 106.316 94.3474C106.316 112.546 93.1223 134.665 76.8311 143.764C70.4716 147.324 65.0619 148.484 60.8291 147.504C57.7525 144.024 55.9562 138.785 55.9562 132.085Z" fill="white"/>
<path opacity="0.1" d="M114.886 99.1269C114.886 117.326 101.692 139.464 85.4213 148.564C75.0974 154.303 66.0743 153.483 60.8091 147.504C65.0419 148.504 70.4723 147.344 76.8525 143.764C93.1229 134.665 106.296 112.546 106.296 94.3472C106.296 87.6676 104.975 82.5679 102.497 79.2081C109.992 80.968 114.886 88.0476 114.886 99.1269Z" fill="black"/>
<path d="M114.906 24.2717C114.394 23.9952 113.793 23.9158 113.223 24.0492C112.652 24.1826 112.155 24.5191 111.83 24.9917L98.9247 43.7705C98.695 44.0792 98.4079 44.3437 98.0781 44.5504L111.189 51.8699C111.527 51.6494 111.821 51.3716 112.057 51.05L124.941 32.2512C125.25 31.8281 125.697 31.5174 126.209 31.3688C126.722 31.2202 127.271 31.2422 127.77 31.4312L114.906 24.2717ZM139.869 59.1495C139.657 59.0502 139.424 58.9987 139.188 58.9987C138.952 58.9987 138.719 59.0502 138.507 59.1495L129.545 63.1492C129.616 63.6858 129.799 64.2029 130.082 64.6691C131.461 66.9053 132.569 69.2874 133.386 71.7687C133.443 71.8851 133.491 72.0054 133.53 72.1286C133.623 72.4167 133.778 72.6826 133.985 72.9086L134.212 73.1086C134.368 73.2225 134.542 73.3103 134.728 73.3686C135.039 73.4492 135.367 73.4492 135.678 73.3686C135.831 73.3526 135.979 73.3048 136.111 73.2286L151.639 66.449C151.763 66.3911 151.895 66.3507 152.031 66.329C152.205 66.2695 152.394 66.2695 152.568 66.329C152.722 66.3423 152.87 66.3903 153.001 66.469L139.869 59.1495ZM82.4271 27.0315C82.2006 26.9347 81.9521 26.8967 81.7059 26.9213C81.4597 26.9458 81.2243 27.0321 81.023 27.1715L63.5756 36.9109C62.8069 37.3977 62.2035 38.0934 61.8412 38.9108L74.9319 46.2103C75.2943 45.3869 75.9064 44.6895 76.687 44.2104L94.1344 34.451C94.3304 34.3264 94.5534 34.2472 94.7862 34.2194C95.0189 34.1917 95.2551 34.2162 95.4765 34.2911L82.4271 27.0315ZM23.0439 121.266C22.7086 121.745 22.2975 122.17 21.8257 122.525L5.88556 133.385C5.46252 133.704 5.10529 134.097 4.83252 134.545L17.9232 141.824C18.191 141.367 18.5572 140.972 18.9969 140.664L34.937 129.805C35.4136 129.455 35.8254 129.029 36.1553 128.545L23.0439 121.266ZM32.7277 69.2688C32.2735 69.2789 31.8293 69.3996 31.4359 69.6198C31.0426 69.84 30.7128 70.1526 30.4771 70.5287L17.6548 92.1074C17.3958 92.5864 17.2949 93.1309 17.3658 93.6673L30.4771 100.987C30.3961 100.437 30.4973 99.8771 30.7662 99.3869L43.6091 77.8683C43.8309 77.521 44.1327 77.2283 44.491 77.0132C44.8493 76.798 45.2542 76.6663 45.6739 76.6284L32.7277 69.2688Z" fill="#BA68C8"/>
<path opacity="0.7" d="M114.906 24.2717C114.394 23.9952 113.793 23.9158 113.223 24.0492C112.652 24.1826 112.155 24.5191 111.83 24.9917L98.9247 43.7705C98.695 44.0792 98.4079 44.3437 98.0781 44.5504L111.189 51.8699C111.527 51.6494 111.821 51.3716 112.057 51.05L124.941 32.2512C125.25 31.8281 125.697 31.5174 126.209 31.3688C126.722 31.2202 127.271 31.2422 127.77 31.4312L114.906 24.2717ZM139.869 59.1495C139.657 59.0502 139.424 58.9987 139.188 58.9987C138.952 58.9987 138.719 59.0502 138.507 59.1495L129.545 63.1492C129.616 63.6858 129.799 64.2029 130.082 64.6691C131.461 66.9053 132.569 69.2874 133.386 71.7687C133.443 71.8851 133.491 72.0054 133.53 72.1286C133.623 72.4167 133.778 72.6826 133.985 72.9086L134.212 73.1086C134.368 73.2225 134.542 73.3103 134.728 73.3686C135.039 73.4492 135.367 73.4492 135.678 73.3686C135.831 73.3526 135.979 73.3048 136.111 73.2286L151.639 66.449C151.763 66.3911 151.895 66.3507 152.031 66.329C152.205 66.2695 152.394 66.2695 152.568 66.329C152.722 66.3423 152.87 66.3903 153.001 66.469L139.869 59.1495ZM82.4271 27.0315C82.2006 26.9347 81.9521 26.8967 81.7059 26.9213C81.4597 26.9458 81.2243 27.0321 81.023 27.1715L63.5756 36.9109C62.8069 37.3977 62.2035 38.0934 61.8412 38.9108L74.9319 46.2103C75.2943 45.3869 75.9064 44.6895 76.687 44.2104L94.1344 34.451C94.3304 34.3264 94.5534 34.2472 94.7862 34.2194C95.0189 34.1917 95.2551 34.2162 95.4765 34.2911L82.4271 27.0315ZM23.0439 121.266C22.7086 121.745 22.2975 122.17 21.8257 122.525L5.88556 133.385C5.46252 133.704 5.10529 134.097 4.83252 134.545L17.9232 141.824C18.191 141.367 18.5572 140.972 18.9969 140.664L34.937 129.805C35.4136 129.455 35.8254 129.029 36.1553 128.545L23.0439 121.266ZM32.7277 69.2688C32.2735 69.2789 31.8293 69.3996 31.4359 69.6198C31.0426 69.84 30.7128 70.1526 30.4771 70.5287L17.6548 92.1074C17.3958 92.5864 17.2949 93.1309 17.3658 93.6673L30.4771 100.987C30.3961 100.437 30.4973 99.8771 30.7662 99.3869L43.6091 77.8683C43.8309 77.521 44.1327 77.2283 44.491 77.0132C44.8493 76.798 45.2542 76.6663 45.6739 76.6284L32.7277 69.2688Z" fill="white"/>
<path d="M153.621 87.2277V67.709C153.671 67.4585 153.64 67.1995 153.535 66.966C153.429 66.7325 153.253 66.5356 153.029 66.4013C152.805 66.2669 152.545 66.2015 152.282 66.2136C152.019 66.2257 151.766 66.3148 151.556 66.469L136.029 73.2486C135.784 73.3635 135.516 73.4243 135.243 73.4265C134.971 73.4286 134.702 73.3722 134.455 73.2612C134.208 73.1502 133.989 72.9874 133.815 72.7846C133.641 72.5819 133.516 72.3441 133.448 72.0887C132.611 69.4743 131.446 66.9691 129.979 64.6292C129.658 64.079 129.471 63.4653 129.432 62.8347C129.393 62.204 129.502 61.5729 129.752 60.9894L140.076 40.7907C140.333 40.2775 140.379 39.6894 140.207 39.1441C140.035 38.5989 139.656 38.137 139.147 37.8509L128.038 31.6113C127.526 31.3269 126.922 31.2411 126.348 31.3709C125.773 31.5008 125.27 31.8368 124.941 32.3112L112.036 51.09C111.64 51.5906 111.13 51.9967 110.547 52.2775C109.964 52.5582 109.322 52.7061 108.671 52.7099C105.846 52.6583 103.025 52.9335 100.267 53.5299C100.006 53.6021 99.7316 53.6168 99.464 53.5728C99.1963 53.5289 98.9423 53.4274 98.7204 53.2758C98.4986 53.1243 98.3147 52.9265 98.1821 52.6971C98.0496 52.4676 97.9718 52.2123 97.9544 51.95L96.2407 35.531C96.2446 35.297 96.1811 35.0666 96.0574 34.8655C95.9336 34.6645 95.7545 34.5008 95.5402 34.3929C95.3258 34.2849 95.0846 34.2369 94.8436 34.2542C94.6027 34.2716 94.3715 34.3536 94.1759 34.4911L76.7078 44.2105C76.1514 44.5598 75.679 45.021 75.3228 45.5628C74.9665 46.1045 74.7347 46.7141 74.6431 47.3503L72.888 66.149C72.6677 67.4612 72.0244 68.6723 71.0503 69.6088C67.5968 72.73 64.3617 76.0705 61.3665 79.6082C60.947 80.0652 60.4025 80.3979 59.7959 80.5677C59.1894 80.7376 58.5456 80.7378 57.939 80.5681L46.7478 76.7684C46.1684 76.5926 45.5449 76.6093 44.9763 76.8158C44.4077 77.0223 43.9266 77.4068 43.6094 77.9083L30.7871 99.3869C30.4989 99.9043 30.3973 100.5 30.4982 101.08C30.5992 101.659 30.8971 102.19 31.3446 102.587L40.3264 110.086C40.7822 110.511 41.1053 111.051 41.2587 111.645C41.4121 112.24 41.3895 112.864 41.1936 113.446C39.5561 117.715 38.2111 122.084 37.1672 126.525C36.8011 127.82 36.0203 128.968 34.9373 129.805L18.9971 140.664C18.4748 141.064 18.0462 141.566 17.7401 142.139C17.4339 142.711 17.2571 143.34 17.2214 143.984V163.603C17.172 163.853 17.2021 164.112 17.3078 164.346C17.4135 164.579 17.5899 164.776 17.8136 164.91C18.0373 165.045 18.2979 165.11 18.5608 165.098C18.8237 165.086 19.0767 164.997 19.2862 164.843L34.8134 158.063C35.0585 157.948 35.3268 157.887 35.5991 157.885C35.8714 157.883 36.1408 157.94 36.3878 158.051C36.6347 158.162 36.8532 158.324 37.0273 158.527C37.2014 158.73 37.3267 158.968 37.3944 159.223C38.2364 161.836 39.4011 164.34 40.8632 166.683C41.184 167.233 41.3711 167.846 41.4105 168.477C41.4498 169.108 41.3403 169.739 41.0903 170.322L30.7664 190.521C30.5117 191.036 30.4637 191.624 30.6316 192.171C30.7995 192.718 31.1713 193.185 31.6749 193.481L42.8041 199.601C43.316 199.885 43.9202 199.971 44.4949 199.841C45.0696 199.711 45.5721 199.375 45.9013 198.901L58.7855 180.122C59.1873 179.622 59.7006 179.216 60.287 178.936C60.8734 178.655 61.5177 178.507 62.1718 178.502C64.9967 178.553 67.8179 178.278 70.5754 177.682C70.8364 177.61 71.1108 177.595 71.3785 177.639C71.6461 177.683 71.9002 177.784 72.122 177.936C72.3438 178.087 72.5278 178.285 72.6603 178.515C72.7929 178.744 72.8707 178.999 72.888 179.262L74.6018 195.681C74.5979 195.915 74.6613 196.145 74.7851 196.346C74.9088 196.547 75.0879 196.711 75.3023 196.819C75.5166 196.927 75.7578 196.975 75.9988 196.958C76.2398 196.94 76.471 196.858 76.6665 196.721L94.0933 186.961C94.6498 186.612 95.1221 186.151 95.4784 185.609C95.8346 185.067 96.0664 184.458 96.1581 183.822L97.9132 165.023C98.1711 163.717 98.8422 162.522 99.8334 161.603C103.299 158.487 106.541 155.146 109.538 151.604C109.957 151.147 110.502 150.814 111.108 150.644C111.715 150.474 112.359 150.474 112.965 150.644L124.157 154.443C124.736 154.619 125.36 154.602 125.928 154.396C126.497 154.189 126.978 153.805 127.295 153.303L140.117 131.805C140.405 131.288 140.507 130.692 140.406 130.112C140.305 129.533 140.007 129.002 139.56 128.605L130.578 121.106C130.118 120.684 129.792 120.143 129.638 119.548C129.485 118.953 129.51 118.328 129.711 117.746C131.383 113.479 132.763 109.11 133.84 104.667C134.207 103.372 134.987 102.224 136.07 101.387L152.01 90.5275C152.496 90.1122 152.89 89.6055 153.166 89.0382C153.443 88.4709 153.598 87.8548 153.621 87.2277ZM85.3799 148.564C69.1094 157.663 55.9155 150.284 55.9155 132.085C55.9155 113.886 69.1507 91.7474 85.3799 82.648C101.609 73.5486 114.844 80.9281 114.844 99.1269C114.844 117.326 101.692 139.464 85.3799 148.564Z" fill="#BA68C8"/>
<path opacity="0.55" d="M153.621 87.2277V67.709C153.671 67.4585 153.64 67.1995 153.535 66.966C153.429 66.7325 153.253 66.5356 153.029 66.4013C152.805 66.2669 152.545 66.2015 152.282 66.2136C152.019 66.2257 151.766 66.3148 151.556 66.469L136.029 73.2486C135.784 73.3635 135.516 73.4243 135.243 73.4265C134.971 73.4286 134.702 73.3722 134.455 73.2612C134.208 73.1502 133.989 72.9874 133.815 72.7846C133.641 72.5819 133.516 72.3441 133.448 72.0887C132.611 69.4743 131.446 66.9691 129.979 64.6292C129.658 64.079 129.471 63.4653 129.432 62.8347C129.393 62.204 129.502 61.5729 129.752 60.9894L140.076 40.7907C140.333 40.2775 140.379 39.6894 140.207 39.1441C140.035 38.5989 139.656 38.137 139.147 37.8509L128.038 31.6113C127.526 31.3269 126.922 31.2411 126.348 31.3709C125.773 31.5008 125.27 31.8368 124.941 32.3112L112.036 51.09C111.64 51.5906 111.13 51.9967 110.547 52.2775C109.964 52.5582 109.322 52.7061 108.671 52.7099C105.846 52.6583 103.025 52.9335 100.267 53.5299C100.006 53.6021 99.7316 53.6168 99.464 53.5728C99.1963 53.5289 98.9423 53.4274 98.7204 53.2758C98.4986 53.1243 98.3147 52.9265 98.1821 52.6971C98.0496 52.4676 97.9718 52.2123 97.9544 51.95L96.2407 35.531C96.2446 35.297 96.1811 35.0666 96.0574 34.8655C95.9336 34.6645 95.7545 34.5008 95.5402 34.3929C95.3258 34.2849 95.0846 34.2369 94.8436 34.2542C94.6027 34.2716 94.3715 34.3536 94.1759 34.4911L76.7078 44.2105C76.1514 44.5598 75.679 45.021 75.3228 45.5628C74.9665 46.1045 74.7347 46.7141 74.6431 47.3503L72.888 66.149C72.6677 67.4612 72.0244 68.6723 71.0503 69.6088C67.5968 72.73 64.3617 76.0705 61.3665 79.6082C60.947 80.0652 60.4025 80.3979 59.7959 80.5677C59.1894 80.7376 58.5456 80.7378 57.939 80.5681L46.7478 76.7684C46.1684 76.5926 45.5449 76.6093 44.9763 76.8158C44.4077 77.0223 43.9266 77.4068 43.6094 77.9083L30.7871 99.3869C30.4989 99.9043 30.3973 100.5 30.4982 101.08C30.5992 101.659 30.8971 102.19 31.3446 102.587L40.3264 110.086C40.7822 110.511 41.1053 111.051 41.2587 111.645C41.4121 112.24 41.3895 112.864 41.1936 113.446C39.5561 117.715 38.2111 122.084 37.1672 126.525C36.8011 127.82 36.0203 128.968 34.9373 129.805L18.9971 140.664C18.4748 141.064 18.0462 141.566 17.7401 142.139C17.4339 142.711 17.2571 143.34 17.2214 143.984V163.603C17.172 163.853 17.2021 164.112 17.3078 164.346C17.4135 164.579 17.5899 164.776 17.8136 164.91C18.0373 165.045 18.2979 165.11 18.5608 165.098C18.8237 165.086 19.0767 164.997 19.2862 164.843L34.8134 158.063C35.0585 157.948 35.3268 157.887 35.5991 157.885C35.8714 157.883 36.1408 157.94 36.3878 158.051C36.6347 158.162 36.8532 158.324 37.0273 158.527C37.2014 158.73 37.3267 158.968 37.3944 159.223C38.2364 161.836 39.4011 164.34 40.8632 166.683C41.184 167.233 41.3711 167.846 41.4105 168.477C41.4498 169.108 41.3403 169.739 41.0903 170.322L30.7664 190.521C30.5117 191.036 30.4637 191.624 30.6316 192.171C30.7995 192.718 31.1713 193.185 31.6749 193.481L42.8041 199.601C43.316 199.885 43.9202 199.971 44.4949 199.841C45.0696 199.711 45.5721 199.375 45.9013 198.901L58.7855 180.122C59.1873 179.622 59.7006 179.216 60.287 178.936C60.8734 178.655 61.5177 178.507 62.1718 178.502C64.9967 178.553 67.8179 178.278 70.5754 177.682C70.8364 177.61 71.1108 177.595 71.3785 177.639C71.6461 177.683 71.9002 177.784 72.122 177.936C72.3438 178.087 72.5278 178.285 72.6603 178.515C72.7929 178.744 72.8707 178.999 72.888 179.262L74.6018 195.681C74.5979 195.915 74.6613 196.145 74.7851 196.346C74.9088 196.547 75.0879 196.711 75.3023 196.819C75.5166 196.927 75.7578 196.975 75.9988 196.958C76.2398 196.94 76.471 196.858 76.6665 196.721L94.0933 186.961C94.6498 186.612 95.1221 186.151 95.4784 185.609C95.8346 185.067 96.0664 184.458 96.1581 183.822L97.9132 165.023C98.1711 163.717 98.8422 162.522 99.8334 161.603C103.299 158.487 106.541 155.146 109.538 151.604C109.957 151.147 110.502 150.814 111.108 150.644C111.715 150.474 112.359 150.474 112.965 150.644L124.157 154.443C124.736 154.619 125.36 154.602 125.928 154.396C126.497 154.189 126.978 153.805 127.295 153.303L140.117 131.805C140.405 131.288 140.507 130.692 140.406 130.112C140.305 129.533 140.007 129.002 139.56 128.605L130.578 121.106C130.118 120.684 129.792 120.143 129.638 119.548C129.485 118.953 129.51 118.328 129.711 117.746C131.383 113.479 132.763 109.11 133.84 104.667C134.207 103.372 134.987 102.224 136.07 101.387L152.01 90.5275C152.496 90.1122 152.89 89.6055 153.166 89.0382C153.443 88.4709 153.598 87.8548 153.621 87.2277ZM85.3799 148.564C69.1094 157.663 55.9155 150.284 55.9155 132.085C55.9155 113.886 69.1507 91.7474 85.3799 82.648C101.609 73.5486 114.844 80.9281 114.844 99.1269C114.844 117.326 101.692 139.464 85.3799 148.564Z" fill="white"/>
<g opacity="0.55">
<path d="M126.882 32.7111C127.027 32.7035 127.171 32.7383 127.295 32.8111L138.527 39.0907C138.702 39.2014 138.831 39.3684 138.892 39.5623C138.952 39.7562 138.94 39.9645 138.858 40.1506L128.534 60.3493C128.168 61.1519 128.003 62.0269 128.054 62.9028C128.104 63.7787 128.367 64.6306 128.823 65.389C130.221 67.6318 131.337 70.0287 132.147 72.5285C132.341 73.1959 132.754 73.7837 133.324 74.2025C133.895 74.6212 134.59 74.8481 135.306 74.8484C135.798 74.8491 136.284 74.7468 136.731 74.5484L152.155 67.8288V87.2276C152.082 88.058 151.674 88.8271 151.019 89.3675L135.079 100.227C133.693 101.269 132.7 102.724 132.25 104.366C131.229 108.75 129.897 113.06 128.265 117.266C127.971 118.123 127.937 119.045 128.168 119.92C128.398 120.796 128.884 121.589 129.566 122.205L138.548 129.705C138.735 129.884 138.859 130.115 138.904 130.366C138.948 130.617 138.91 130.876 138.796 131.105L125.973 152.603C125.858 152.773 125.702 152.913 125.519 153.01C125.335 153.108 125.13 153.161 124.92 153.163C124.811 153.184 124.699 153.184 124.59 153.163L113.399 149.384C112.953 149.239 112.486 149.165 112.015 149.164C111.32 149.161 110.633 149.302 109.999 149.578C109.365 149.854 108.799 150.258 108.34 150.764C105.394 154.23 102.207 157.498 98.8008 160.543C97.5617 161.744 96.7576 163.302 96.5089 164.983L94.7744 183.781C94.6968 184.186 94.5362 184.571 94.3021 184.915C94.068 185.258 93.7653 185.553 93.4117 185.781L76.0675 195.481L74.395 179.182C74.3223 178.379 73.9395 177.632 73.3233 177.091C72.707 176.55 71.9026 176.254 71.0707 176.262C70.8032 176.232 70.533 176.232 70.2655 176.262C67.8788 176.777 65.4425 177.045 62.9974 177.062H62.1096C61.2255 177.079 60.3574 177.293 59.573 177.689C58.7886 178.084 58.1092 178.65 57.5877 179.342L44.6828 198.12C44.6022 198.232 44.4935 198.322 44.367 198.381C44.2406 198.441 44.1005 198.468 43.9601 198.46C43.8324 198.499 43.6956 198.499 43.5678 198.46L32.3354 192.181C32.157 192.073 32.0252 191.906 31.9644 191.711C31.9036 191.516 31.9181 191.306 32.005 191.121L42.329 170.922C42.6898 170.119 42.8517 169.244 42.8015 168.369C42.7513 167.494 42.4905 166.643 42.0399 165.883C40.6415 163.64 39.5255 161.243 38.7156 158.743C38.5188 158.072 38.1023 157.481 37.5289 157.059C36.9554 156.637 36.256 156.407 35.5358 156.403C35.0432 156.414 34.5581 156.522 34.1111 156.723L18.6872 163.443V144.044C18.767 143.211 19.1825 142.442 19.8435 141.904L35.8249 130.985C37.2104 129.942 38.2042 128.488 38.6536 126.845C39.6718 122.463 40.9963 118.154 42.618 113.946C42.9199 113.091 42.9597 112.169 42.7325 111.293C42.5053 110.416 42.0209 109.622 41.3378 109.006L32.3148 101.607C32.1277 101.428 32.0033 101.196 31.9588 100.945C31.9144 100.694 31.9522 100.436 32.067 100.207L44.8893 78.6881C45.0065 78.5222 45.1635 78.3863 45.347 78.2923C45.5304 78.1982 45.7348 78.1487 45.9423 78.1482C46.0442 78.1251 46.1502 78.1251 46.252 78.1482L57.4638 81.9279C57.9095 82.0738 58.3768 82.1481 58.8472 82.1479C59.5396 82.1529 60.2248 82.0125 60.8557 81.7363C61.4867 81.4601 62.0483 81.0547 62.5019 80.548C65.4597 77.0791 68.6535 73.8053 72.0618 70.7486C73.3043 69.5579 74.1094 68.0053 74.3537 66.3289L76.0881 47.5301C76.2444 46.7176 76.7271 45.9984 77.4303 45.5303L94.7744 35.8309L96.4676 52.1298C96.5557 52.9269 96.9513 53.6624 97.5754 54.189C98.1995 54.7155 99.0059 54.9944 99.8332 54.9697C100.101 54.9992 100.371 54.9992 100.638 54.9697C103.025 54.4548 105.461 54.1866 107.906 54.1697H108.794C109.678 54.1497 110.545 53.9338 111.329 53.5386C112.113 53.1434 112.792 52.5793 113.316 51.8899L126.221 33.1111C126.3 33.0024 126.405 32.9145 126.528 32.8551C126.65 32.7958 126.786 32.7669 126.923 32.7711M72.2683 153.883C77.181 153.745 81.9712 152.367 86.1643 149.884C102.806 140.564 116.372 117.886 116.372 99.2068C116.665 93.4963 114.955 87.8579 111.52 83.2079C109.981 81.3215 108.011 79.808 105.764 78.7875C103.516 77.7669 101.055 77.2673 98.5736 77.3282C93.661 77.4661 88.8707 78.8449 84.6777 81.328C68.0149 90.7274 54.4079 113.466 54.4079 132.085C54.4079 145.324 61.3869 153.883 72.2064 153.883M126.882 31.2712C126.499 31.2723 126.122 31.3639 125.783 31.5382C125.445 31.7125 125.156 31.964 124.941 32.2711L112.036 51.0499C111.647 51.5389 111.151 51.938 110.583 52.2182C110.015 52.4984 109.39 52.6526 108.753 52.6698H107.865C105.309 52.6766 102.762 52.9515 100.267 53.4898C100.128 53.5465 99.9821 53.5868 99.8332 53.6097C99.3663 53.6162 98.9143 53.4503 98.5692 53.1457C98.224 52.8411 98.0115 52.4207 97.9748 51.9699L96.2817 35.5509C96.2817 34.731 95.7036 34.271 95.0429 34.271C94.7378 34.2808 94.44 34.3632 94.1757 34.511L76.7076 44.2103C76.1511 44.5597 75.6788 45.0209 75.3225 45.5627C74.9663 46.1044 74.7345 46.714 74.6428 47.3501L72.8877 66.1489C72.6674 67.4611 72.0242 68.6722 71.0501 69.6087C67.5965 72.7299 64.3614 76.0704 61.3663 79.6081C60.9545 80.0753 60.4103 80.4152 59.8011 80.5859C59.1919 80.7565 58.5443 80.7503 57.9387 80.568L46.7476 76.7683C46.1681 76.5925 45.5446 76.6092 44.976 76.8157C44.4075 77.0222 43.9264 77.4067 43.6091 77.9082L30.7868 99.3868C30.4987 99.9042 30.397 100.5 30.498 101.079C30.599 101.659 30.8968 102.19 31.3443 102.587L40.3261 110.086C40.782 110.511 41.1051 111.051 41.2585 111.645C41.4118 112.239 41.3893 112.864 41.1933 113.446C39.5559 117.715 38.2109 122.084 37.167 126.525C36.8008 127.819 36.02 128.968 34.937 129.805L18.9969 140.664C18.4745 141.064 18.046 141.566 17.7398 142.139C17.4336 142.711 17.2568 143.34 17.2212 143.984V163.603C17.2212 164.483 17.7167 165.003 18.4394 165.003C18.7032 165.006 18.9644 164.951 19.2034 164.843L34.7305 158.063C34.9821 157.947 35.257 157.885 35.5358 157.883C35.9424 157.888 36.3362 158.021 36.657 158.263C36.9777 158.505 37.2076 158.842 37.3115 159.223C38.1536 161.836 39.3183 164.34 40.7804 166.683C41.1011 167.233 41.2883 167.846 41.3276 168.477C41.367 169.108 41.2575 169.739 41.0075 170.322L30.6836 190.521C30.4289 191.036 30.3808 191.624 30.5487 192.171C30.7166 192.718 31.0885 193.185 31.5921 193.481L42.8038 199.6C43.1478 199.797 43.54 199.901 43.9395 199.9C44.3257 199.901 44.7063 199.81 45.0481 199.636C45.3899 199.461 45.6827 199.209 45.901 198.9L58.7853 180.122C59.1793 179.633 59.6796 179.235 60.2506 178.955C60.8216 178.675 61.4492 178.52 62.0889 178.502H62.9768C65.5327 178.494 68.0802 178.219 70.5752 177.682C70.7327 177.661 70.8925 177.661 71.0501 177.682C71.5148 177.676 71.9643 177.842 72.3061 178.147C72.648 178.452 72.8561 178.873 72.8877 179.322L74.6015 195.741C74.6015 196.561 75.1796 197.021 75.8404 197.021C76.1454 197.011 76.4433 196.928 76.7076 196.781L94.1343 187.021C94.6908 186.672 95.1632 186.211 95.5194 185.669C95.8757 185.127 96.1075 184.518 96.1991 183.881L97.9542 165.083C98.1885 163.761 98.8458 162.543 99.8332 161.603C103.299 158.487 106.541 155.146 109.538 151.603C109.949 151.136 110.494 150.796 111.103 150.626C111.712 150.455 112.36 150.461 112.965 150.644L124.156 154.443C124.416 154.525 124.688 154.566 124.962 154.563C125.429 154.565 125.89 154.45 126.298 154.229C126.707 154.009 127.05 153.69 127.295 153.303L140.117 131.805C140.405 131.287 140.507 130.692 140.406 130.112C140.305 129.532 140.007 129.002 139.56 128.605L130.578 121.105C130.118 120.684 129.792 120.143 129.638 119.548C129.484 118.953 129.51 118.327 129.711 117.746C131.383 113.479 132.763 109.11 133.84 104.666C134.206 103.372 134.987 102.224 136.07 101.387L152.01 90.5274C152.529 90.1244 152.955 89.621 153.26 89.0493C153.566 88.4776 153.745 87.8503 153.786 87.2076V67.7089C153.786 66.8289 153.27 66.3089 152.547 66.3089C152.29 66.3083 152.036 66.3629 151.804 66.4689L136.277 73.2485C136.017 73.3631 135.736 73.4244 135.451 73.4285C135.048 73.4197 134.659 73.2843 134.342 73.0426C134.025 72.8009 133.799 72.4661 133.696 72.0886C132.858 69.4742 131.693 66.969 130.227 64.629C129.906 64.0789 129.719 63.4652 129.679 62.8345C129.64 62.2039 129.75 61.5728 130 60.9893L140.324 40.7906C140.58 40.2774 140.627 39.6892 140.455 39.144C140.282 38.5988 139.904 38.1369 139.394 37.8508L128.038 31.6112C127.685 31.4172 127.287 31.3139 126.882 31.3112V31.2712ZM72.2683 152.463C62.5845 152.463 55.9565 144.984 55.9565 132.085C55.9565 113.886 69.1505 91.7473 85.421 82.6479C89.3709 80.2283 93.9047 78.8496 98.5736 78.6481C108.237 78.6481 114.885 86.1277 114.885 99.0268C114.885 117.226 101.691 139.364 85.421 148.464C81.471 150.883 76.9373 152.262 72.2683 152.463Z" fill="white"/>
</g>
<path d="M259.503 53.6097C259.738 52.0635 260.459 50.6249 261.568 49.4899L270.157 41.8304C270.68 41.3031 271.08 40.673 271.329 39.9828C271.579 39.2927 271.672 38.5588 271.603 37.8307L269.992 28.7513C269.961 28.4947 269.871 28.2481 269.728 28.03C269.585 27.8119 269.393 27.6278 269.166 27.4913L259.028 21.6117C258.748 21.4686 258.431 21.4075 258.116 21.4359C257.8 21.4643 257.5 21.581 257.252 21.7717L253.577 24.1316L257.128 14.7922C257.343 14.3211 257.363 13.788 257.182 13.3037C257.001 12.8194 256.634 12.4213 256.158 12.1923L245.958 6.49268C245.751 6.36213 245.52 6.27367 245.277 6.2327L238.814 4.83279C238.102 4.70831 237.367 4.79886 236.71 5.09218C236.052 5.38551 235.504 5.86743 235.139 6.47269L229.068 17.692C228.483 18.6256 227.639 19.381 226.632 19.8718L226.363 18.9719C226.239 18.5183 225.945 18.1259 225.537 17.872L215.213 12.1723C214.904 12.02 214.554 11.9632 214.211 12.0097C213.868 12.0562 213.547 12.2037 213.293 12.4323L203.589 19.8118C203.006 20.3133 202.54 20.9295 202.223 21.6193C201.907 22.3091 201.745 23.0566 201.751 23.8116L202.329 32.751C202.335 34.313 201.805 35.8327 200.822 37.0707C199.232 38.9106 197.725 40.8505 196.321 42.8504C195.865 43.454 195.273 43.9483 194.589 44.2951C193.905 44.6418 193.148 44.8317 192.377 44.8502L186.183 44.5503C185.44 44.5613 184.715 44.7659 184.083 45.1424C183.451 45.519 182.935 46.0536 182.59 46.6901L176.746 59.4093C176.493 59.9479 176.454 60.5583 176.637 61.1231C176.82 61.6879 177.212 62.1673 177.738 62.4691L184.655 66.3489C184.878 66.8955 184.928 67.4943 184.799 68.0688C184.337 70.0499 183.979 72.0523 183.725 74.0684C183.495 75.6157 182.773 77.0554 181.661 78.1881L173.071 85.8476C172.546 86.3735 172.145 87.0033 171.895 87.6939C171.646 88.3844 171.554 89.1191 171.626 89.8474L173.257 98.9068C173.284 99.1547 173.366 99.3941 173.498 99.6081C173.63 99.8222 173.808 100.006 174.021 100.147L184.345 105.886C184.624 106.023 184.939 106.078 185.25 106.046C185.561 106.014 185.856 105.896 186.1 105.706L189.796 103.366L186.224 112.706C186.019 113.158 185.994 113.668 186.154 114.137C186.315 114.606 186.648 115.001 187.091 115.246L197.415 120.965C197.635 121.112 197.879 121.22 198.138 121.285L204.6 122.685C205.313 122.813 206.049 122.724 206.707 122.43C207.365 122.136 207.913 121.653 208.276 121.045L214.367 109.806C214.945 108.879 215.782 108.13 216.783 107.646L217.072 108.546C217.126 108.771 217.228 108.983 217.37 109.169C217.512 109.354 217.691 109.51 217.898 109.626L227.85 115.406H227.974C228.277 115.545 228.616 115.593 228.947 115.543C229.279 115.493 229.587 115.347 229.832 115.126L239.537 107.746C240.124 107.248 240.592 106.633 240.909 105.942C241.226 105.251 241.385 104.502 241.374 103.746L240.796 94.807C240.799 93.2465 241.328 91.7296 242.303 90.4873C243.893 88.6474 245.4 86.7275 246.805 84.7277C247.259 84.118 247.853 83.6196 248.542 83.2724C249.23 82.9251 249.993 82.7386 250.769 82.7278L256.963 83.0278C257.702 83.0132 258.423 82.8069 259.051 82.4306C259.679 82.0542 260.192 81.5215 260.535 80.8879L266.399 68.1687C266.536 67.8751 266.61 67.558 266.619 67.2361C266.627 66.9142 266.569 66.5939 266.448 66.2941C266.326 65.9942 266.145 65.7208 265.913 65.4898C265.681 65.2588 265.404 65.0749 265.099 64.9489L260.06 62.9491C259.42 62.6574 258.901 62.1649 258.586 61.5515C258.271 60.938 258.18 60.2395 258.326 59.5693C258.832 57.6053 259.224 55.6157 259.503 53.6097ZM207.76 81.1679C205.86 70.4686 212.839 55.3296 223.349 47.3101C226.475 44.7179 230.314 43.0639 234.395 42.5504C234.98 43.8264 235.389 45.1711 235.613 46.5501C237.513 57.2294 230.534 72.3885 220.024 80.388C216.901 82.976 213.072 84.6357 208.998 85.1676C208.394 83.8972 207.977 82.5508 207.76 81.1679Z" fill="#BA68C8"/>
<path opacity="0.2" d="M259.503 53.6097C259.738 52.0635 260.459 50.6249 261.568 49.4899L270.157 41.8304C270.68 41.3031 271.08 40.673 271.329 39.9828C271.579 39.2927 271.672 38.5588 271.603 37.8307L269.992 28.7513C269.961 28.4947 269.871 28.2481 269.728 28.03C269.585 27.8119 269.393 27.6278 269.166 27.4913L259.028 21.6117C258.748 21.4686 258.431 21.4075 258.116 21.4359C257.8 21.4643 257.5 21.581 257.252 21.7717L253.577 24.1316L257.128 14.7922C257.343 14.3211 257.363 13.788 257.182 13.3037C257.001 12.8194 256.634 12.4213 256.158 12.1923L245.958 6.49268C245.751 6.36213 245.52 6.27367 245.277 6.2327L238.814 4.83279C238.102 4.70831 237.367 4.79886 236.71 5.09218C236.052 5.38551 235.504 5.86743 235.139 6.47269L229.068 17.692C228.483 18.6256 227.639 19.381 226.632 19.8718L226.363 18.9719C226.239 18.5183 225.945 18.1259 225.537 17.872L215.213 12.1723C214.904 12.02 214.554 11.9632 214.211 12.0097C213.868 12.0562 213.547 12.2037 213.293 12.4323L203.589 19.8118C203.006 20.3133 202.54 20.9295 202.223 21.6193C201.907 22.3091 201.745 23.0566 201.751 23.8116L202.329 32.751C202.335 34.313 201.805 35.8327 200.822 37.0707C199.232 38.9106 197.725 40.8505 196.321 42.8504C195.865 43.454 195.273 43.9483 194.589 44.2951C193.905 44.6418 193.148 44.8317 192.377 44.8502L186.183 44.5503C185.44 44.5613 184.715 44.7659 184.083 45.1424C183.451 45.519 182.935 46.0536 182.59 46.6901L176.746 59.4093C176.493 59.9479 176.454 60.5583 176.637 61.1231C176.82 61.6879 177.212 62.1673 177.738 62.4691L184.655 66.3489C184.878 66.8955 184.928 67.4943 184.799 68.0688C184.337 70.0499 183.979 72.0523 183.725 74.0684C183.495 75.6157 182.773 77.0554 181.661 78.1881L173.071 85.8476C172.546 86.3735 172.145 87.0033 171.895 87.6939C171.646 88.3844 171.554 89.1191 171.626 89.8474L173.257 98.9068C173.284 99.1547 173.366 99.3941 173.498 99.6081C173.63 99.8222 173.808 100.006 174.021 100.147L184.345 105.886C184.624 106.023 184.939 106.078 185.25 106.046C185.561 106.014 185.856 105.896 186.1 105.706L189.796 103.366L186.224 112.706C186.019 113.158 185.994 113.668 186.154 114.137C186.315 114.606 186.648 115.001 187.091 115.246L197.415 120.965C197.635 121.112 197.879 121.22 198.138 121.285L204.6 122.685C205.313 122.813 206.049 122.724 206.707 122.43C207.365 122.136 207.913 121.653 208.276 121.045L214.367 109.806C214.945 108.879 215.782 108.13 216.783 107.646L217.072 108.546C217.126 108.771 217.228 108.983 217.37 109.169C217.512 109.354 217.691 109.51 217.898 109.626L227.85 115.406H227.974C228.277 115.545 228.616 115.593 228.947 115.543C229.279 115.493 229.587 115.347 229.832 115.126L239.537 107.746C240.124 107.248 240.592 106.633 240.909 105.942C241.226 105.251 241.385 104.502 241.374 103.746L240.796 94.807C240.799 93.2465 241.328 91.7296 242.303 90.4873C243.893 88.6474 245.4 86.7275 246.805 84.7277C247.259 84.118 247.853 83.6196 248.542 83.2724C249.23 82.9251 249.993 82.7386 250.769 82.7278L256.963 83.0278C257.702 83.0132 258.423 82.8069 259.051 82.4306C259.679 82.0542 260.192 81.5215 260.535 80.8879L266.399 68.1687C266.536 67.8751 266.61 67.558 266.619 67.2361C266.627 66.9142 266.569 66.5939 266.448 66.2941C266.326 65.9942 266.145 65.7208 265.913 65.4898C265.681 65.2588 265.404 65.0749 265.099 64.9489L260.06 62.9491C259.42 62.6574 258.901 62.1649 258.586 61.5515C258.271 60.938 258.18 60.2395 258.326 59.5693C258.832 57.6053 259.224 55.6157 259.503 53.6097ZM207.76 81.1679C205.86 70.4686 212.839 55.3296 223.349 47.3101C226.475 44.7179 230.314 43.0639 234.395 42.5504C234.98 43.8264 235.389 45.1711 235.613 46.5501C237.513 57.2294 230.534 72.3885 220.024 80.388C216.901 82.976 213.072 84.6357 208.998 85.1676C208.394 83.8972 207.977 82.5508 207.76 81.1679Z" fill="white"/>
<path opacity="0.1" d="M198.137 101.127C197.966 100.853 197.741 100.616 197.473 100.428C197.205 100.241 196.902 100.108 196.58 100.037C196.258 99.9665 195.925 99.9591 195.6 100.016C195.275 100.072 194.965 100.192 194.689 100.367L189.775 103.486L186.223 112.826C186.017 113.276 185.989 113.784 186.145 114.253C186.301 114.721 186.631 115.118 187.07 115.366L197.187 121.025C196.788 120.753 196.495 120.358 196.356 119.904C196.218 119.45 196.241 118.965 196.423 118.525L200.821 107.046C201.03 106.352 201.046 105.617 200.869 104.915C200.691 104.213 200.326 103.569 199.81 103.046C199.201 102.45 198.641 101.808 198.137 101.127ZM227.973 115.426C227.771 115.307 227.595 115.151 227.457 114.965C227.319 114.78 227.22 114.569 227.168 114.346L224.979 107.306C224.893 107.008 224.74 106.732 224.532 106.497C224.324 106.261 224.066 106.072 223.776 105.943C223.485 105.814 223.169 105.747 222.849 105.748C222.529 105.748 222.214 105.816 221.924 105.946C220.632 106.474 219.3 106.902 217.938 107.226C217.499 107.341 217.075 107.509 216.679 107.726L216.947 108.646C217.073 109.099 217.377 109.487 217.794 109.726L227.973 115.426Z" fill="black"/>
<path opacity="0.1" d="M230.224 86.0277C221.16 92.9472 212.426 92.2873 208.998 85.0877C213.067 84.5723 216.891 82.9181 220.003 80.328C230.534 72.3286 237.513 57.1895 235.613 46.4702C235.384 45.0924 234.974 43.7484 234.395 42.4705C240.156 41.9905 244.719 45.3503 245.813 52.0899C247.713 62.8892 240.734 78.0282 230.224 86.0277Z" fill="black"/>
<path d="M194.317 44.4305C193.762 44.6833 193.155 44.8132 192.542 44.8104L186.347 44.5105C185.399 44.498 184.48 44.8257 183.766 45.4304L193.966 51.13C194.687 50.5365 195.602 50.2104 196.547 50.2101L202.742 50.5101C203.353 50.5295 203.96 50.4132 204.517 50.1701L194.317 44.4305ZM215.461 12.2125C215.154 12.0512 214.802 11.9894 214.456 12.0362C214.111 12.083 213.79 12.2359 213.541 12.4725L203.836 19.852C203.071 20.5055 202.519 21.3601 202.246 22.3119L212.446 28.0115C212.726 27.0578 213.285 26.2033 214.057 25.5517L223.72 18.1921C223.967 17.9527 224.289 17.7978 224.635 17.7509C224.982 17.704 225.334 17.7676 225.64 17.9322L215.461 12.2125ZM181.66 78.3083L173.174 85.8878C172.498 86.5274 172.037 87.35 171.853 88.2477L182.032 93.9273C182.241 93.0399 182.707 92.2283 183.374 91.5874L191.86 84.0279L181.66 78.3083ZM245.999 6.53289C245.792 6.40234 245.561 6.31388 245.318 6.27291L238.855 4.853C238.141 4.73619 237.407 4.83238 236.75 5.12883C236.094 5.42527 235.546 5.90797 235.179 6.5129L229.109 17.7322C228.753 18.3206 228.284 18.8367 227.726 19.2521L237.926 24.9517C238.489 24.5418 238.96 24.0246 239.309 23.4318L245.4 12.2125C245.761 11.6072 246.305 11.1236 246.958 10.8269C247.612 10.5301 248.343 10.4344 249.055 10.5526L255.538 11.9725C255.766 12.0315 255.987 12.1118 256.199 12.2125L245.999 6.53289ZM259.028 21.6119C258.745 21.4782 258.43 21.4224 258.117 21.4506C257.803 21.4788 257.504 21.59 257.252 21.7719L253.577 24.1318L252.751 26.2516C252.551 26.9464 252.539 27.6793 252.716 28.3799C252.893 29.0804 253.253 29.7249 253.762 30.2514C254.375 30.873 254.934 31.5418 255.435 32.2512C255.579 32.4112 255.703 32.5712 255.869 32.7312L256.261 32.9912C256.517 33.1581 256.805 33.2737 257.107 33.3312C257.479 33.434 257.872 33.434 258.243 33.3312C258.474 33.2806 258.691 33.1853 258.883 33.0512L267.473 27.6115C267.668 27.4796 267.884 27.3784 268.113 27.3116C268.473 27.1847 268.868 27.1847 269.228 27.3116L259.028 21.6119Z" fill="#BA68C8"/>
<path opacity="0.7" d="M194.317 44.4305C193.762 44.6833 193.155 44.8132 192.542 44.8104L186.347 44.5105C185.399 44.498 184.48 44.8257 183.766 45.4304L193.966 51.13C194.687 50.5365 195.602 50.2104 196.547 50.2101L202.742 50.5101C203.353 50.5295 203.96 50.4132 204.517 50.1701L194.317 44.4305ZM215.461 12.2125C215.154 12.0512 214.802 11.9894 214.456 12.0362C214.111 12.083 213.79 12.2359 213.541 12.4725L203.836 19.852C203.071 20.5055 202.519 21.3601 202.246 22.3119L212.446 28.0115C212.726 27.0578 213.285 26.2033 214.057 25.5517L223.72 18.1921C223.967 17.9527 224.289 17.7978 224.635 17.7509C224.982 17.704 225.334 17.7676 225.64 17.9322L215.461 12.2125ZM181.66 78.3083L173.174 85.8878C172.498 86.5274 172.037 87.35 171.853 88.2477L182.032 93.9273C182.241 93.0399 182.707 92.2283 183.374 91.5874L191.86 84.0279L181.66 78.3083ZM245.999 6.53289C245.792 6.40234 245.561 6.31388 245.318 6.27291L238.855 4.853C238.141 4.73619 237.407 4.83238 236.75 5.12883C236.094 5.42527 235.546 5.90797 235.179 6.5129L229.109 17.7322C228.753 18.3206 228.284 18.8367 227.726 19.2521L237.926 24.9517C238.489 24.5418 238.96 24.0246 239.309 23.4318L245.4 12.2125C245.761 11.6072 246.305 11.1236 246.958 10.8269C247.612 10.5301 248.343 10.4344 249.055 10.5526L255.538 11.9725C255.766 12.0315 255.987 12.1118 256.199 12.2125L245.999 6.53289ZM259.028 21.6119C258.745 21.4782 258.43 21.4224 258.117 21.4506C257.803 21.4788 257.504 21.59 257.252 21.7719L253.577 24.1318L252.751 26.2516C252.551 26.9464 252.539 27.6793 252.716 28.3799C252.893 29.0804 253.253 29.7249 253.762 30.2514C254.375 30.873 254.934 31.5418 255.435 32.2512C255.579 32.4112 255.703 32.5712 255.869 32.7312L256.261 32.9912C256.517 33.1581 256.805 33.2737 257.107 33.3312C257.479 33.434 257.872 33.434 258.243 33.3312C258.474 33.2806 258.691 33.1853 258.883 33.0512L267.473 27.6115C267.668 27.4796 267.884 27.3784 268.113 27.3116C268.473 27.1847 268.868 27.1847 269.228 27.3116L259.028 21.6119Z" fill="white"/>
<path d="M271.644 37.6108L270.034 28.5314C270.023 28.2488 269.93 27.975 269.766 27.7413C269.601 27.5077 269.372 27.3238 269.105 27.211C268.837 27.0981 268.542 27.0608 268.253 27.1033C267.965 27.1459 267.694 27.2665 267.474 27.4514L258.822 32.9911C258.545 33.1634 258.235 33.2806 257.911 33.3356C257.587 33.3907 257.254 33.3826 256.933 33.3119C256.612 33.2411 256.309 33.1091 256.041 32.9236C255.774 32.738 255.547 32.5026 255.374 32.2311C254.863 31.5294 254.304 30.8613 253.701 30.2313C253.187 29.7081 252.823 29.0636 252.646 28.3619C252.468 27.6602 252.483 26.9258 252.69 26.2315L257.067 14.7723C257.189 14.4849 257.244 14.1749 257.227 13.8646C257.21 13.5543 257.123 13.2515 256.971 12.9779C256.819 12.7043 256.606 12.4669 256.348 12.2826C256.089 12.0984 255.792 11.9719 255.477 11.9124L248.994 10.5125C248.284 10.3865 247.552 10.4765 246.897 10.7702C246.243 11.0639 245.699 11.5468 245.339 12.1524L239.248 23.3917C238.405 24.6927 237.097 25.6468 235.573 26.0715C234.218 26.4094 232.887 26.8302 231.588 27.3315C231.299 27.4656 230.984 27.537 230.665 27.5405C230.345 27.5441 230.028 27.4797 229.737 27.352C229.446 27.2242 229.187 27.0363 228.979 26.8012C228.77 26.5662 228.618 26.2898 228.532 25.9915L226.405 19.012C226.351 18.7302 226.219 18.4679 226.023 18.2533C225.827 18.0386 225.574 17.8796 225.292 17.7933C225.01 17.707 224.709 17.6967 224.421 17.7634C224.134 17.8301 223.87 17.9714 223.659 18.172L213.975 25.6116C213.387 26.1103 212.917 26.7256 212.597 27.4157C212.276 28.1058 212.112 28.8546 212.117 29.6113L212.695 38.5307C212.707 40.0998 212.177 41.6277 211.188 42.8705C209.598 44.7104 208.111 46.6302 206.686 48.6301C206.238 49.2405 205.647 49.7398 204.962 50.0874C204.276 50.4349 203.516 50.6208 202.743 50.63L196.548 50.33C195.81 50.3446 195.089 50.5508 194.46 50.9272C193.832 51.3036 193.32 51.8363 192.976 52.4699L187.112 65.189C186.976 65.4827 186.901 65.7998 186.893 66.1217C186.885 66.4436 186.943 66.7638 187.064 67.0637C187.185 67.3636 187.367 67.637 187.598 67.868C187.83 68.099 188.107 68.2828 188.413 68.4088L193.451 70.4087C194.089 70.6967 194.608 71.1855 194.923 71.7956C195.238 72.4057 195.331 73.1011 195.185 73.7685C194.715 75.748 194.357 77.7509 194.112 79.7681C193.877 81.3143 193.156 82.7529 192.047 83.8878L183.375 91.6074C182.833 92.1428 182.422 92.789 182.172 93.4984C181.922 94.2079 181.839 94.9626 181.93 95.7071L183.54 104.787C183.546 105.071 183.637 105.348 183.801 105.584C183.966 105.82 184.197 106.005 184.467 106.117C184.737 106.228 185.035 106.262 185.325 106.215C185.615 106.167 185.884 106.039 186.1 105.846L194.69 100.387C195.249 100.042 195.926 99.9267 196.572 100.065C197.219 100.204 197.782 100.586 198.138 101.127C198.645 101.832 199.204 102.5 199.811 103.127C200.334 103.644 200.703 104.289 200.878 104.994C201.052 105.698 201.026 106.435 200.802 107.126L196.424 118.586C196.306 118.875 196.255 119.185 196.275 119.496C196.294 119.806 196.384 120.108 196.538 120.381C196.692 120.654 196.905 120.891 197.164 121.075C197.423 121.259 197.72 121.385 198.035 121.445L204.498 122.845C205.21 122.973 205.946 122.884 206.604 122.59C207.262 122.296 207.81 121.813 208.173 121.205L214.264 109.966C215.102 108.661 216.413 107.706 217.939 107.286C219.297 106.95 220.629 106.523 221.924 106.006C222.214 105.876 222.53 105.808 222.85 105.808C223.17 105.807 223.486 105.874 223.776 106.003C224.067 106.132 224.325 106.321 224.533 106.557C224.741 106.792 224.893 107.068 224.98 107.366L227.169 114.406C227.219 114.688 227.348 114.951 227.542 115.166C227.735 115.382 227.987 115.542 228.268 115.629C228.549 115.715 228.85 115.726 229.137 115.658C229.423 115.59 229.686 115.448 229.894 115.246L239.599 107.866C240.186 107.368 240.654 106.753 240.972 106.062C241.289 105.371 241.448 104.622 241.437 103.867L240.858 94.9272C240.861 93.3666 241.391 91.8497 242.366 90.6074C243.956 88.7675 245.463 86.8477 246.867 84.8478C247.321 84.2381 247.916 83.7397 248.604 83.3925C249.293 83.0452 250.055 82.8587 250.831 82.8479L257.026 83.1479C257.764 83.1333 258.485 82.927 259.114 82.5507C259.742 82.1743 260.254 81.6416 260.598 81.008L266.462 68.2888C266.598 67.9952 266.673 67.6781 266.681 67.3562C266.689 67.0343 266.631 66.714 266.51 66.4142C266.389 66.1143 266.207 65.8409 265.975 65.6099C265.744 65.3789 265.467 65.195 265.161 65.0691L260.123 63.0692C259.483 62.7775 258.963 62.285 258.649 61.6716C258.334 61.0581 258.242 60.3596 258.388 59.6894C258.861 57.7103 259.219 55.7074 259.462 53.6898C259.697 52.1436 260.418 50.705 261.527 49.57L270.116 41.9105C270.697 41.3572 271.137 40.6808 271.403 39.9347C271.668 39.1886 271.751 38.3931 271.644 37.6108ZM230.225 86.0477C219.715 94.0472 209.577 91.8673 207.76 81.168C205.943 70.4687 212.839 55.3297 223.349 47.3102C233.859 39.2907 243.997 41.4906 245.814 52.1899C247.631 62.8892 240.735 78.0282 230.225 86.0477Z" fill="#BA68C8"/>
<path opacity="0.55" d="M271.644 37.6108L270.034 28.5314C270.023 28.2488 269.93 27.975 269.766 27.7413C269.601 27.5077 269.372 27.3238 269.105 27.211C268.837 27.0981 268.542 27.0608 268.253 27.1033C267.965 27.1459 267.694 27.2665 267.474 27.4514L258.822 32.9911C258.545 33.1634 258.235 33.2806 257.911 33.3356C257.587 33.3907 257.254 33.3826 256.933 33.3119C256.612 33.2411 256.309 33.1091 256.041 32.9236C255.774 32.738 255.547 32.5026 255.374 32.2311C254.863 31.5294 254.304 30.8613 253.701 30.2313C253.187 29.7081 252.823 29.0636 252.646 28.3619C252.468 27.6602 252.483 26.9258 252.69 26.2315L257.067 14.7723C257.189 14.4849 257.244 14.1749 257.227 13.8646C257.21 13.5543 257.123 13.2515 256.971 12.9779C256.819 12.7043 256.606 12.4669 256.348 12.2826C256.089 12.0984 255.792 11.9719 255.477 11.9124L248.994 10.5125C248.284 10.3865 247.552 10.4765 246.897 10.7702C246.243 11.0639 245.699 11.5468 245.339 12.1524L239.248 23.3917C238.405 24.6927 237.097 25.6468 235.573 26.0715C234.218 26.4094 232.887 26.8302 231.588 27.3315C231.299 27.4656 230.984 27.537 230.665 27.5405C230.345 27.5441 230.028 27.4797 229.737 27.352C229.446 27.2242 229.187 27.0363 228.979 26.8012C228.77 26.5662 228.618 26.2898 228.532 25.9915L226.405 19.012C226.351 18.7302 226.219 18.4679 226.023 18.2533C225.827 18.0386 225.574 17.8796 225.292 17.7933C225.01 17.707 224.709 17.6967 224.421 17.7634C224.134 17.8301 223.87 17.9714 223.659 18.172L213.975 25.6116C213.387 26.1103 212.917 26.7256 212.597 27.4157C212.276 28.1058 212.112 28.8546 212.117 29.6113L212.695 38.5307C212.707 40.0998 212.177 41.6277 211.188 42.8705C209.598 44.7104 208.111 46.6302 206.686 48.6301C206.238 49.2405 205.647 49.7398 204.962 50.0874C204.276 50.4349 203.516 50.6208 202.743 50.63L196.548 50.33C195.81 50.3446 195.089 50.5508 194.46 50.9272C193.832 51.3036 193.32 51.8363 192.976 52.4699L187.112 65.189C186.976 65.4827 186.901 65.7998 186.893 66.1217C186.885 66.4436 186.943 66.7638 187.064 67.0637C187.185 67.3636 187.367 67.637 187.598 67.868C187.83 68.099 188.107 68.2828 188.413 68.4088L193.451 70.4087C194.089 70.6967 194.608 71.1855 194.923 71.7956C195.238 72.4057 195.331 73.1011 195.185 73.7685C194.715 75.748 194.357 77.7509 194.112 79.7681C193.877 81.3143 193.156 82.7529 192.047 83.8878L183.375 91.6074C182.833 92.1428 182.422 92.789 182.172 93.4984C181.922 94.2079 181.839 94.9626 181.93 95.7071L183.54 104.787C183.546 105.071 183.637 105.348 183.801 105.584C183.966 105.82 184.197 106.005 184.467 106.117C184.737 106.228 185.035 106.262 185.325 106.215C185.615 106.167 185.884 106.039 186.1 105.846L194.69 100.387C195.249 100.042 195.926 99.9267 196.572 100.065C197.219 100.204 197.782 100.586 198.138 101.127C198.645 101.832 199.204 102.5 199.811 103.127C200.334 103.644 200.703 104.289 200.878 104.994C201.052 105.698 201.026 106.435 200.802 107.126L196.424 118.586C196.306 118.875 196.255 119.185 196.275 119.496C196.294 119.806 196.384 120.108 196.538 120.381C196.692 120.654 196.905 120.891 197.164 121.075C197.423 121.259 197.72 121.385 198.035 121.445L204.498 122.845C205.21 122.973 205.946 122.884 206.604 122.59C207.262 122.296 207.81 121.813 208.173 121.205L214.264 109.966C215.102 108.661 216.413 107.706 217.939 107.286C219.297 106.95 220.629 106.523 221.924 106.006C222.214 105.876 222.53 105.808 222.85 105.808C223.17 105.807 223.486 105.874 223.776 106.003C224.067 106.132 224.325 106.321 224.533 106.557C224.741 106.792 224.893 107.068 224.98 107.366L227.169 114.406C227.219 114.688 227.348 114.951 227.542 115.166C227.735 115.382 227.987 115.542 228.268 115.629C228.549 115.715 228.85 115.726 229.137 115.658C229.423 115.59 229.686 115.448 229.894 115.246L239.599 107.866C240.186 107.368 240.654 106.753 240.972 106.062C241.289 105.371 241.448 104.622 241.437 103.867L240.858 94.9272C240.861 93.3666 241.391 91.8497 242.366 90.6074C243.956 88.7675 245.463 86.8477 246.867 84.8478C247.321 84.2381 247.916 83.7397 248.604 83.3925C249.293 83.0452 250.055 82.8587 250.831 82.8479L257.026 83.1479C257.764 83.1333 258.485 82.927 259.114 82.5507C259.742 82.1743 260.254 81.6416 260.598 81.008L266.462 68.2888C266.598 67.9952 266.673 67.6781 266.681 67.3562C266.689 67.0343 266.631 66.714 266.51 66.4142C266.389 66.1143 266.207 65.8409 265.975 65.6099C265.744 65.3789 265.467 65.195 265.161 65.0691L260.123 63.0692C259.483 62.7775 258.963 62.285 258.649 61.6716C258.334 61.0581 258.242 60.3596 258.388 59.6894C258.861 57.7103 259.219 55.7074 259.462 53.6898C259.697 52.1436 260.418 50.705 261.527 49.57L270.116 41.9105C270.697 41.3572 271.137 40.6808 271.403 39.9347C271.668 39.1886 271.751 38.3931 271.644 37.6108ZM230.225 86.0477C219.715 94.0472 209.577 91.8673 207.76 81.168C205.943 70.4687 212.839 55.3297 223.349 47.3102C233.859 39.2907 243.997 41.4906 245.814 52.1899C247.631 62.8892 240.735 78.0282 230.225 86.0477Z" fill="white"/>
<g opacity="0.55">
<path d="M248.498 12.0125H248.787L255.25 13.4125C255.452 13.4519 255.63 13.5668 255.745 13.7324C255.786 13.8204 255.807 13.9159 255.807 14.0124C255.807 14.109 255.786 14.2044 255.745 14.2924L251.368 25.7517C251.066 26.7043 251.031 27.7175 251.267 28.6875C251.503 29.6574 252.001 30.5491 252.71 31.2713C253.257 31.8398 253.768 32.4409 254.238 33.0712C254.612 33.6149 255.119 34.0614 255.713 34.3717C256.306 34.682 256.97 34.8466 257.645 34.8511C258.379 34.8337 259.094 34.619 259.709 34.2311L268.299 28.7515H268.443C268.443 28.7515 268.443 28.8515 268.443 28.9115L270.054 37.9909C270.1 38.4879 270.037 38.9887 269.87 39.4607C269.702 39.9327 269.435 40.3654 269.084 40.7307L260.494 48.3902C259.106 49.7639 258.202 51.5281 257.913 53.4299C257.679 55.4473 257.327 57.4504 256.86 59.4295C256.641 60.4359 256.781 61.4845 257.257 62.4037C257.734 63.323 258.518 64.0583 259.482 64.4892L264.52 66.4891C264.733 66.5816 264.902 66.748 264.994 66.9554C265.085 67.1629 265.093 67.3961 265.016 67.609L259.152 80.3482C258.944 80.7067 258.645 81.0084 258.284 81.2251C257.923 81.4419 257.511 81.5668 257.087 81.5881L250.893 81.2881H250.666C249.676 81.3194 248.706 81.5679 247.83 82.0148C246.954 82.4617 246.194 83.0953 245.607 83.8679C244.203 85.8678 242.716 87.7477 241.188 89.5276C239.95 91.061 239.293 92.9606 239.33 94.9072L239.908 103.847C239.866 104.877 239.415 105.851 238.649 106.566L228.944 113.946L228.758 114.066C228.703 114.003 228.668 113.927 228.655 113.846L226.466 106.826C226.248 106.068 225.778 105.4 225.129 104.926C224.479 104.453 223.687 104.2 222.874 104.207C222.349 104.208 221.83 104.31 221.346 104.507C220.106 104.988 218.837 105.395 217.547 105.727C215.595 106.243 213.924 107.468 212.88 109.146L206.81 120.386C206.627 120.655 206.379 120.878 206.088 121.035C205.796 121.191 205.47 121.277 205.137 121.286H204.848L198.365 119.886C198.264 119.874 198.168 119.84 198.085 119.784C198.001 119.729 197.933 119.654 197.887 119.568C197.84 119.481 197.816 119.384 197.816 119.286C197.817 119.188 197.842 119.092 197.89 119.006L202.267 107.606C202.569 106.654 202.603 105.641 202.368 104.671C202.132 103.701 201.634 102.809 200.925 102.087C200.372 101.515 199.862 100.907 199.397 100.267C199.02 99.7269 198.513 99.2843 197.919 98.9775C197.325 98.6708 196.663 98.5093 195.99 98.507C195.256 98.5244 194.541 98.739 193.925 99.127L185.336 104.607H185.191C185.18 104.554 185.18 104.499 185.191 104.447L183.581 95.3672C183.531 94.8715 183.59 94.3712 183.754 93.8991C183.918 93.427 184.182 92.9937 184.531 92.6274L193.141 84.9679C194.529 83.5942 195.433 81.83 195.722 79.9282C195.956 77.9107 196.308 75.9077 196.775 73.9286C196.995 72.9194 196.856 71.8677 196.38 70.945C195.904 70.0224 195.118 69.2835 194.153 68.8489L189.115 66.849C188.876 66.7546 188.684 66.5758 188.578 66.3491C188.485 66.1174 188.485 65.8608 188.578 65.6291L194.442 52.8899C194.654 52.535 194.954 52.2362 195.314 52.0199C195.674 51.8037 196.084 51.6766 196.506 51.65L202.701 51.95H202.949C203.938 51.9186 204.908 51.6702 205.784 51.2233C206.66 50.7764 207.42 50.1428 208.007 49.3701C209.377 47.41 210.852 45.5209 212.426 43.7105C213.665 42.1771 214.321 40.2775 214.284 38.3309L213.706 29.3914C213.717 28.8794 213.834 28.3748 214.051 27.9076C214.267 27.4404 214.578 27.02 214.966 26.6716L224.67 19.2921L224.856 19.1721C224.907 19.2369 224.942 19.3121 224.959 19.3921L227.148 26.4116C227.362 27.1686 227.828 27.8359 228.474 28.3097C229.12 28.7835 229.91 29.0372 230.72 29.0314C231.252 29.0325 231.778 28.9305 232.268 28.7315C233.523 28.2794 234.806 27.9054 236.109 27.6115C238.051 27.0869 239.713 25.8636 240.755 24.1918L246.846 12.9525C247.029 12.6829 247.277 12.4603 247.568 12.3036C247.859 12.1468 248.185 12.0607 248.518 12.0525M218.145 92.3674C222.96 92.1004 227.545 90.2846 231.174 87.2077C242.076 78.9283 249.324 63.0893 247.341 51.93C246.123 45.0904 241.663 40.9907 235.428 40.9907C230.606 41.2563 226.014 43.0721 222.378 46.1504C211.497 54.4298 204.249 70.2688 206.232 81.4281C207.45 88.2677 211.91 92.3674 218.145 92.3674ZM248.498 10.5126C247.883 10.5154 247.279 10.6737 246.747 10.9719C246.214 11.27 245.772 11.6977 245.462 12.2125L239.371 23.4518C238.528 24.7527 237.22 25.7069 235.696 26.1316C234.341 26.4695 233.01 26.8903 231.711 27.3916C231.406 27.5242 231.075 27.5924 230.741 27.5915C230.266 27.6038 229.802 27.4574 229.426 27.1769C229.05 26.8965 228.785 26.4991 228.676 26.0516L226.404 19.0121C226.335 18.6635 226.147 18.3477 225.87 18.1155C225.593 17.8833 225.243 17.7483 224.877 17.7322C224.432 17.7479 224.005 17.9022 223.658 18.1721L213.974 25.6117C213.387 26.1104 212.917 26.7257 212.596 27.4158C212.276 28.1059 212.112 28.8547 212.116 29.6114L212.694 38.5308C212.707 40.0999 212.176 41.6278 211.187 42.8706C209.597 44.7104 208.111 46.6303 206.686 48.6302C206.25 49.2153 205.684 49.6985 205.03 50.0446C204.377 50.3906 203.651 50.5906 202.907 50.6301H202.742L196.548 50.3301H196.403C195.69 50.369 194.998 50.5866 194.398 50.9617C193.797 51.3368 193.307 51.8565 192.976 52.47L187.112 65.1891C186.975 65.4828 186.901 65.7999 186.892 66.1218C186.884 66.4437 186.942 66.7639 187.063 67.0638C187.185 67.3637 187.366 67.6371 187.598 67.8681C187.83 68.0991 188.107 68.2829 188.412 68.4089L193.451 70.4088C194.089 70.6968 194.608 71.1856 194.923 71.7957C195.238 72.4058 195.33 73.1012 195.185 73.7686C194.715 75.7481 194.357 77.751 194.111 79.7682C193.877 81.3144 193.156 82.753 192.047 83.8879L183.374 91.6074C182.833 92.1429 182.422 92.7891 182.172 93.4985C181.922 94.208 181.839 94.9627 181.929 95.7072L183.54 104.787C183.559 105.157 183.72 105.507 183.991 105.769C184.262 106.031 184.623 106.187 185.006 106.207C185.398 106.19 185.778 106.065 186.1 105.847L194.689 100.387C195.074 100.135 195.526 99.9964 195.99 99.9869C196.402 100.009 196.803 100.124 197.161 100.321C197.519 100.519 197.825 100.795 198.055 101.127C198.562 101.832 199.121 102.5 199.728 103.127C200.251 103.644 200.62 104.289 200.795 104.994C200.969 105.698 200.943 106.435 200.719 107.126L196.341 118.586C196.223 118.875 196.172 119.185 196.192 119.496C196.211 119.806 196.301 120.108 196.455 120.381C196.609 120.654 196.822 120.891 197.081 121.075C197.34 121.259 197.637 121.385 197.952 121.446L204.415 122.845C204.627 122.865 204.842 122.865 205.055 122.845C205.67 122.843 206.273 122.684 206.806 122.386C207.338 122.088 207.781 121.66 208.09 121.146L214.181 109.906C215.019 108.601 216.33 107.646 217.856 107.226C219.214 106.891 220.545 106.463 221.841 105.947C222.143 105.829 222.466 105.768 222.791 105.767C223.266 105.754 223.73 105.901 224.106 106.181C224.482 106.462 224.747 106.859 224.856 107.306L227.045 114.346C227.11 114.696 227.298 115.014 227.576 115.247C227.854 115.48 228.205 115.613 228.573 115.626C229.012 115.615 229.434 115.46 229.77 115.186L239.475 107.806C240.062 107.308 240.53 106.693 240.847 106.002C241.165 105.312 241.323 104.562 241.312 103.807L240.734 94.8672C240.737 93.3067 241.266 91.7898 242.241 90.5475C243.831 88.7076 245.339 86.7878 246.743 84.7879C247.185 84.2043 247.755 83.7225 248.412 83.3768C249.068 83.0311 249.796 82.8301 250.542 82.788H250.707L256.901 83.088H257.025C257.742 83.0525 258.438 82.8365 259.042 82.4612C259.647 82.086 260.14 81.5644 260.473 80.9481L266.337 68.2289C266.474 67.9353 266.548 67.6182 266.557 67.2963C266.565 66.9744 266.507 66.6541 266.386 66.3543C266.264 66.0544 266.083 65.781 265.851 65.55C265.619 65.319 265.343 65.1351 265.037 65.0091L259.999 63.0093C259.359 62.7176 258.839 62.2252 258.524 61.6117C258.209 60.9982 258.118 60.2997 258.264 59.6295C258.736 57.6504 259.095 55.6475 259.338 53.6299C259.572 52.0837 260.293 50.6451 261.403 49.5101L269.992 41.8506C270.515 41.3233 270.915 40.6932 271.164 40.003C271.413 39.3129 271.507 38.579 271.437 37.8509L269.827 28.7715C269.807 28.4011 269.646 28.0511 269.375 27.7888C269.105 27.5266 268.743 27.3708 268.361 27.3516C267.97 27.3623 267.591 27.4802 267.267 27.6915L258.822 32.9912C258.435 33.2368 257.983 33.3688 257.521 33.3712C257.108 33.3537 256.705 33.2411 256.346 33.0429C255.987 32.8447 255.682 32.5664 255.456 32.2312C254.945 31.5295 254.386 30.8614 253.784 30.2314C253.269 29.7081 252.905 29.0637 252.728 28.362C252.55 27.6603 252.565 26.9259 252.772 26.2316L257.149 14.7724C257.271 14.485 257.326 14.175 257.309 13.8647C257.293 13.5544 257.205 13.2516 257.053 12.978C256.901 12.7044 256.688 12.467 256.43 12.2827C256.171 12.0985 255.874 11.972 255.559 11.9125L249.076 10.5126H248.456H248.498ZM218.145 90.8675C212.88 90.8675 208.874 87.5077 207.821 81.1681C205.922 70.4688 212.901 55.3298 223.411 47.3103C226.78 44.4609 231.026 42.7669 235.49 42.4906C240.755 42.4906 244.74 45.8504 245.813 52.19C247.713 62.8693 240.734 78.0283 230.224 86.0478C226.855 88.8972 222.609 90.5912 218.145 90.8675Z" fill="white"/>
</g>
</g>
<defs>
<filter id="filter0_f_796_8708" x="0" y="0.778442" width="275.689" height="203.122" filterUnits="userSpaceOnUse" color-interpolation-filters="sRGB">
<feFlood flood-opacity="0" result="BackgroundImageFix"/>
<feBlend mode="normal" in="SourceGraphic" in2="BackgroundImageFix" result="shape"/>
<feGaussianBlur stdDeviation="2" result="effect1_foregroundBlur_796_8708"/>
</filter>
</defs>
</svg>
