<svg width="24" height="24" viewBox="0 0 24 24" fill="none" xmlns="http://www.w3.org/2000/svg">
<path d="M15.5 4.38462H17.6C17.9713 4.38462 18.3274 4.53049 18.5899 4.79016C18.8525 5.04983 19 5.40201 19 5.76923V19.6154C19 19.9826 18.8525 20.3348 18.5899 20.5945C18.3274 20.8541 17.9713 21 17.6 21H6.4C6.0287 21 5.6726 20.8541 5.41005 20.5945C5.1475 20.3348 5 19.9826 5 19.6154V5.76923C5 5.40201 5.1475 5.04983 5.41005 4.79016C5.6726 4.53049 6.0287 4.38462 6.4 4.38462H8.5M15.5 4.38462C15.5 3.61991 14.8732 3 14.1 3H9.9C9.1268 3 8.5 3.61991 8.5 4.38462M15.5 4.38462L15.5 5.07692C15.5 5.84162 14.8732 6.46154 14.1 6.46154H9.9C9.1268 6.46154 8.5 5.84162 8.5 5.07692L8.5 4.38462M8.5 9.92308H15.5M8.5 13.3846H15.5M8.5 16.8462H15.5" stroke="white" stroke-width="1.6" stroke-linecap="round" stroke-linejoin="round"/>
</svg>
